<svg width="31" height="31" viewBox="0 0 31 31" fill="none" xmlns="http://www.w3.org/2000/svg">
<path d="M29.1359 26.1329C28.8536 26.8498 28.2024 27.8592 27.2789 28.5702C26.7457 28.9809 26.1091 29.3734 25.2347 29.6324C24.3026 29.9087 23.1546 30.002 21.7256 30.002H8.66028C7.23147 30.002 6.0834 29.9087 5.1512 29.6324C4.27682 29.3734 3.64036 28.9809 3.10705 28.5702C2.18363 27.8591 1.53228 26.8498 1.25005 26.1329C0.681551 24.6885 0.675781 23.0497 0.675781 22.0176V8.95216C0.675781 7.92004 0.681551 6.28123 1.25005 4.83685C1.53228 4.11997 2.18351 3.11058 3.10705 2.39958C3.64024 1.98893 4.27682 1.59639 5.1512 1.33735C6.08328 1.06112 7.23136 0.967773 8.66028 0.967773H21.7257C23.1546 0.967773 24.3026 1.06112 25.2348 1.33735C26.1092 1.59639 26.7457 1.98904 27.279 2.39958C28.2024 3.1107 28.8537 4.11997 29.136 4.83685C29.7045 6.28123 29.7102 7.92004 29.7102 8.95216V22.0176C29.7102 23.0496 29.7044 24.6884 29.1359 26.1329Z" fill="url(#paint0_linear)"/>
<path d="M17.3003 17.656C16.8646 17.1963 16.0994 16.9016 15.196 16.9016C14.2925 16.9016 13.5273 17.1963 13.0916 17.656C12.8643 17.8959 12.7441 18.1418 12.7062 18.4921C12.6329 19.1704 12.674 19.7545 12.7535 20.6883C12.8292 21.5782 12.973 22.7648 13.1606 23.9733C13.2941 24.8334 13.4026 25.2976 13.5014 25.63C13.6615 26.1688 14.26 26.6399 15.196 26.6399C16.1319 26.6399 16.7304 26.1686 16.8905 25.63C16.9893 25.2976 17.0978 24.8334 17.2313 23.9733C17.4189 22.7648 17.5627 21.5782 17.6384 20.6883C17.7179 19.7544 17.759 19.1703 17.6857 18.4921C17.6478 18.1419 17.5276 17.8959 17.3003 17.656ZM12.8221 13.563C12.8221 14.8753 13.8859 15.9391 15.1982 15.9391C16.5106 15.9391 17.5744 14.8753 17.5744 13.563C17.5744 12.2506 16.5106 11.1868 15.1982 11.1868C13.8859 11.1868 12.8221 12.2506 12.8221 13.563ZM15.1688 4.18559C9.6115 4.20148 5.05785 8.7099 4.98908 14.2668C4.93324 18.7683 7.80677 22.6189 11.8193 24.0303C11.9167 24.0646 12.0155 23.9837 12.0002 23.8816C11.9476 23.5321 11.898 23.1809 11.8524 22.8355C11.8362 22.7134 11.7585 22.6082 11.6457 22.5589C8.47427 21.1734 6.2597 17.9927 6.29524 14.3084C6.34185 9.47329 10.2901 5.53152 15.1252 5.4924C20.0681 5.45248 24.1021 9.46187 24.1021 14.3957C24.1021 18.0431 21.8972 21.1848 18.7504 22.5593C18.6377 22.6086 18.5604 22.7141 18.5443 22.8361C18.4988 23.1813 18.4492 23.5324 18.3967 23.8816C18.3812 23.9837 18.4801 24.0646 18.5775 24.0304C22.5517 22.6326 25.4085 18.8418 25.4085 14.3958C25.4082 8.75594 20.8121 4.16952 15.1688 4.18559ZM14.9843 8.86971C18.1346 8.74775 20.7363 11.2751 20.7363 14.3988C20.7363 15.9874 20.0633 17.4217 18.9875 18.4318C18.8963 18.5174 18.8472 18.639 18.8543 18.7639C18.8757 19.1439 18.8679 19.5131 18.8426 19.9301C18.8358 20.0413 18.9604 20.1122 19.0524 20.0496C20.8563 18.8168 22.0428 16.7439 22.0428 14.3988C22.0428 10.5376 18.8266 7.41333 14.9325 7.56425C11.3135 7.70456 8.41012 10.6883 8.36374 14.3098C8.33327 16.6915 9.52704 18.8016 11.3542 20.0498C11.4459 20.1124 11.5702 20.0414 11.5634 19.9304C11.538 19.5131 11.5302 19.1439 11.5516 18.7639C11.5586 18.6391 11.5097 18.5175 11.4187 18.432C10.3094 17.3905 9.62812 15.898 9.6715 14.2503C9.74789 11.3507 12.0857 8.98198 14.9843 8.86971Z" fill="white"/>
<defs>
<linearGradient id="paint0_linear" x1="15.193" y1="0.967773" x2="15.193" y2="30.002" gradientUnits="userSpaceOnUse">
<stop stop-color="#F452FF"/>
<stop offset="1" stop-color="#832BC1"/>
</linearGradient>
</defs>
</svg>
