<svg width="31" height="31" viewBox="0 0 31 31" fill="none" xmlns="http://www.w3.org/2000/svg">
<path d="M10.7426 0.742188H19.646C22.5987 0.742188 24.075 0.742187 25.6642 1.23765C27.3993 1.86036 28.7662 3.20804 29.3978 4.91901C29.9003 6.48597 29.9003 7.94164 29.9003 10.853V19.6317C29.9003 22.543 29.9003 23.9987 29.3978 25.5656C28.7662 27.2765 27.3994 28.6242 25.6642 29.2467C24.0749 29.7422 22.5987 29.7422 19.646 29.7422H10.7426C7.78995 29.7422 6.31362 29.7422 4.72441 29.2467C2.98926 28.6241 1.62239 27.2764 0.99078 25.5656C0.488281 23.9986 0.488281 22.543 0.488281 19.6317V10.853C0.488281 7.94164 0.488281 6.48597 0.99078 4.91901C1.62233 3.20815 2.98914 1.86042 4.72441 1.23765C6.31362 0.742187 7.78995 0.742188 10.7426 0.742188Z" fill="url(#paint0_linear)"/>
<path d="M15.2099 2.63965C22.2768 2.63965 28.0057 8.28275 28.0057 15.2439C28.0057 22.205 22.2768 27.8481 15.2099 27.8481C8.14304 27.8481 2.41406 22.205 2.41406 15.2439C2.41406 8.28275 8.14304 2.63965 15.2099 2.63965Z" fill="url(#paint1_linear)"/>
<path d="M20.5328 22.432L18.3874 19.5008C19.7348 18.5293 20.61 16.9601 20.61 15.1893C20.61 12.24 18.1829 9.84924 15.1887 9.84924C12.1947 9.84924 9.76761 12.24 9.76761 15.1893C9.76761 16.9679 10.6506 18.543 12.008 19.5135L9.86098 22.447C7.5787 20.8198 6.09375 18.1746 6.09375 15.1871C6.09375 10.2403 10.1649 6.23047 15.1867 6.23047C20.2085 6.23047 24.2796 10.2406 24.2796 15.1871C24.2796 18.1652 22.8036 20.8035 20.5331 22.432H20.5328ZM15.2065 13.0256C16.4146 13.0256 17.394 13.9904 17.394 15.1804C17.394 16.3704 16.4146 17.3351 15.2065 17.3351C13.9983 17.3351 13.019 16.3704 13.019 15.1804C13.019 13.9904 13.9983 13.0256 15.2065 13.0256Z" fill="url(#paint2_linear)"/>
<defs>
<linearGradient id="paint0_linear" x1="0.488281" y1="0.742188" x2="0.488281" y2="29.7422" gradientUnits="userSpaceOnUse">
<stop stop-color="#00CCBF"/>
<stop offset="1" stop-color="#00B265"/>
</linearGradient>
<linearGradient id="paint1_linear" x1="2.41406" y1="2.63965" x2="2.41406" y2="27.8481" gradientUnits="userSpaceOnUse">
<stop stop-color="#151515"/>
<stop offset="1" stop-color="#353535"/>
</linearGradient>
<linearGradient id="paint2_linear" x1="6.09375" y1="6.23047" x2="6.09375" y2="22.447" gradientUnits="userSpaceOnUse">
<stop offset="0.3" stop-color="white"/>
<stop offset="1" stop-color="#9CC0B7"/>
</linearGradient>
</defs>
</svg>
