<svg width="31" height="31" viewBox="0 0 31 31" fill="none" xmlns="http://www.w3.org/2000/svg">
<path d="M24.9453 0.121094H5.44531C2.54582 0.121094 0.195312 2.4716 0.195312 5.37109V24.8711C0.195312 27.7706 2.54582 30.1211 5.44531 30.1211H24.9453C27.8448 30.1211 30.1953 27.7706 30.1953 24.8711V5.37109C30.1953 2.4716 27.8448 0.121094 24.9453 0.121094Z" fill="#F25C31"/>
<path d="M18.4795 15.0988L18.4765 18.8143C18.4688 19.5703 18.023 20.0558 17.3617 20.0663C16.7205 20.0773 16.2369 19.6041 16.209 18.9089L16.2013 16.9894C16.1954 16.4842 15.961 16.2064 15.5602 16.1996C15.1594 16.1928 14.9172 16.47 14.9077 16.9765L14.903 18.6483C14.89 19.4227 14.4211 19.9286 13.7391 19.9206C13.0772 19.9126 12.6261 19.4289 12.6119 18.6778L12.6148 16.5106C12.6136 15.7866 12.4194 15.4731 11.9636 15.467C11.4929 15.4608 11.2768 15.7964 11.2756 16.5475L11.2804 21.3785C11.2851 21.8899 11.1039 22.2636 10.6729 22.4898C9.91515 22.8868 9.03302 22.3386 9.02 21.4486L9.00816 17.7952C9.0052 17.5825 8.96553 17.3066 8.83469 17.1756C8.68787 17.0294 8.38771 16.9132 8.21306 16.971C8.01177 17.0324 7.84955 17.2955 7.71871 17.5039C7.65951 17.6084 7.70569 17.7866 7.68911 17.9298C7.61511 18.5475 7.13852 18.998 6.56425 18.9993C5.99945 19.0011 5.46189 18.534 5.4465 17.9261L5.44531 14.2107C5.46071 13.6108 5.99768 13.1449 6.56662 13.1375C7.12905 13.1314 7.62044 13.596 7.69148 14.207C7.70569 14.3287 7.6897 14.4559 7.70569 14.5776C7.76489 14.9943 8.0017 15.2119 8.38652 15.2002C8.7595 15.1879 9.00342 14.9544 9.01289 14.5266L9.02237 12.1725C9.03776 11.3133 9.78017 10.7835 10.5498 11.0625C11.0045 11.2285 11.2602 11.5702 11.2756 12.0828L11.2816 13.0047C11.3088 13.4934 11.5687 13.7521 11.9884 13.7423C12.3881 13.7276 12.6012 13.4934 12.6077 13.006L12.616 10.3428C12.6426 9.33477 13.581 8.80495 14.3909 9.32247C14.7899 9.57693 14.9119 9.9703 14.9089 10.4337L14.9054 13.7159C14.9036 14.0834 15.006 14.3686 15.3885 14.4565C15.8544 14.5635 16.1907 14.2844 16.1996 13.7497L16.209 11.2727C16.228 10.5142 16.7454 10.0434 17.4594 10.1049C18.0704 10.1528 18.47 10.6089 18.4777 11.3194L18.4812 15.0994L18.4795 15.0988ZM22.0826 16.4123L22.0808 18.5155C22.0701 19.2347 21.6486 19.7079 21.0021 19.7467C20.3781 19.7835 19.8299 19.3299 19.8133 18.6391L19.8056 14.1861C19.8216 13.4762 20.3248 13.0687 20.998 13.0963C21.6492 13.1228 22.0713 13.5929 22.0796 14.3072L22.0826 16.4104V16.4123ZM23.4099 16.9962L23.4117 16.4405C23.446 15.8136 23.8853 15.3588 24.4691 15.3219C25.0788 15.2838 25.6069 15.7165 25.665 16.3557C25.704 16.7835 25.7064 17.2162 25.6661 17.6501C25.6058 18.2974 25.1008 18.6993 24.4631 18.6631C23.8616 18.6286 23.4419 18.188 23.4129 17.553C23.4034 17.3686 23.4111 17.1824 23.4111 16.9974L23.4099 16.9962Z" fill="#FEFEFE"/>
</svg>
