<svg width="31" height="31" viewBox="0 0 31 31" fill="none" xmlns="http://www.w3.org/2000/svg">
<path fill-rule="evenodd" clip-rule="evenodd" d="M0.28125 23.6453H5.71936V21.9912H0.28125V23.6453Z" fill="#D83230"/>
<path fill-rule="evenodd" clip-rule="evenodd" d="M0.28125 21.4923H5.71936V19.8271H0.28125V21.4923Z" fill="#D83230"/>
<path fill-rule="evenodd" clip-rule="evenodd" d="M0.28125 19.3283H5.71936V17.6631H0.28125V19.3283Z" fill="#D83230"/>
<path fill-rule="evenodd" clip-rule="evenodd" d="M0.28125 17.1638H5.71936V15.499H0.28125V17.1638Z" fill="#E58773"/>
<path fill-rule="evenodd" clip-rule="evenodd" d="M0.28125 14.9986H5.71936V13.334H0.28125V14.9986Z" fill="#E58773"/>
<path fill-rule="evenodd" clip-rule="evenodd" d="M6.37891 23.6463H11.817V21.9922H6.37891V23.6463Z" fill="#F8D91E"/>
<path fill-rule="evenodd" clip-rule="evenodd" d="M6.37891 21.4923H11.817V19.8271H6.37891V21.4923Z" fill="#F8D91E"/>
<path fill-rule="evenodd" clip-rule="evenodd" d="M6.37891 19.3283H11.817V17.6631H6.37891V19.3283Z" fill="#F8D91E"/>
<path fill-rule="evenodd" clip-rule="evenodd" d="M12.4766 23.6463H17.9147V21.9922H12.4766V23.6463Z" fill="#C43382"/>
<path fill-rule="evenodd" clip-rule="evenodd" d="M12.4766 21.4923H17.9147V19.8271H12.4766V21.4923Z" fill="#C43382"/>
<path fill-rule="evenodd" clip-rule="evenodd" d="M12.4766 19.3283H17.9147V17.6631H12.4766V19.3283Z" fill="#C43382"/>
<path fill-rule="evenodd" clip-rule="evenodd" d="M12.4766 17.1638H17.9147V15.499H12.4766V17.1638Z" fill="#DA9AB9"/>
<path fill-rule="evenodd" clip-rule="evenodd" d="M12.4766 14.9986H17.9147V13.334H12.4766V14.9986Z" fill="#DA9AB9"/>
<path fill-rule="evenodd" clip-rule="evenodd" d="M12.4766 12.8341H17.9147V11.1689H12.4766V12.8341Z" fill="#DA9AB9"/>
<path fill-rule="evenodd" clip-rule="evenodd" d="M12.4766 10.6703H17.9147V9.00488H12.4766V10.6703Z" fill="#DA9AB9"/>
<path fill-rule="evenodd" clip-rule="evenodd" d="M18.5742 23.6463H24.0123V21.9922H18.5742V23.6463Z" fill="#B3CF38"/>
<path fill-rule="evenodd" clip-rule="evenodd" d="M18.5742 21.4923H24.0123V19.8271H18.5742V21.4923Z" fill="#B3CF38"/>
<path fill-rule="evenodd" clip-rule="evenodd" d="M18.5742 19.3283H24.0123V17.6631H18.5742V19.3283Z" fill="#B3CF38"/>
<path fill-rule="evenodd" clip-rule="evenodd" d="M18.5742 17.1638H24.0123V15.499H18.5742V17.1638Z" fill="#D6DB7C"/>
<path fill-rule="evenodd" clip-rule="evenodd" d="M18.5742 14.9986H24.0123V13.334H18.5742V14.9986Z" fill="#D6DB7C"/>
<path fill-rule="evenodd" clip-rule="evenodd" d="M24.6719 23.6463H30.1104V21.9922H24.6719V23.6463Z" fill="#3CADD3"/>
<path fill-rule="evenodd" clip-rule="evenodd" d="M24.6719 21.4923H30.1104V19.8271H24.6719V21.4923Z" fill="#3CADD3"/>
<path fill-rule="evenodd" clip-rule="evenodd" d="M24.6719 19.3275H30.1104V17.6621H24.6719V19.3275Z" fill="#3CADD3"/>
<path fill-rule="evenodd" clip-rule="evenodd" d="M24.6719 17.1634H30.1104V15.498H24.6719V17.1634Z" fill="#AACED9"/>
<path fill-rule="evenodd" clip-rule="evenodd" d="M24.6719 14.9982H30.1104V13.333H24.6719V14.9982Z" fill="#AACED9"/>
<path fill-rule="evenodd" clip-rule="evenodd" d="M24.6719 12.8337H30.1104V11.1689H24.6719V12.8337Z" fill="#AACED9"/>
<path fill-rule="evenodd" clip-rule="evenodd" d="M24.6719 10.6685H30.1104V9.00391H24.6719V10.6685Z" fill="#AACED9"/>
<path fill-rule="evenodd" clip-rule="evenodd" d="M24.6719 8.50425H30.1104V6.83887H24.6719V8.50425Z" fill="#AACED9"/>
</svg>
