<svg width="31" height="31" viewBox="0 0 31 31" fill="none" xmlns="http://www.w3.org/2000/svg">
<path d="M13.3203 9.78809V14.3341V16.1512V20.6972H17.0703V16.1512V14.3341V9.78809H13.3203Z" fill="#FAB908"/>
<path d="M2.07031 16.0947C3.10585 16.0947 3.94531 15.2553 3.94531 14.2197C3.94531 13.1842 3.10585 12.3447 2.07031 12.3447C1.03478 12.3447 0.195312 13.1842 0.195312 14.2197C0.195312 15.2553 1.03478 16.0947 2.07031 16.0947Z" fill="#0066D9"/>
<path d="M2.07031 18.1396C3.10585 18.1396 3.94531 17.3002 3.94531 16.2646C3.94531 15.2291 3.10585 14.3896 2.07031 14.3896C1.03478 14.3896 0.195312 15.2291 0.195312 16.2646C0.195312 17.3002 1.03478 18.1396 2.07031 18.1396Z" fill="#0066D9"/>
<path d="M3.94531 14.2197H0.195312V16.2652H3.94531V14.2197Z" fill="#0066D9"/>
<path d="M28.3203 18.1396C29.3558 18.1396 30.1953 17.3002 30.1953 16.2646C30.1953 15.2291 29.3558 14.3896 28.3203 14.3896C27.2848 14.3896 26.4453 15.2291 26.4453 16.2646C26.4453 17.3002 27.2848 18.1396 28.3203 18.1396Z" fill="#4285F4"/>
<path d="M28.3203 16.0947C29.3558 16.0947 30.1953 15.2553 30.1953 14.2197C30.1953 13.1842 29.3558 12.3447 28.3203 12.3447C27.2848 12.3447 26.4453 13.1842 26.4453 14.2197C26.4453 15.2553 27.2848 16.0947 28.3203 16.0947Z" fill="#4285F4"/>
<path d="M26.4453 16.2646H30.1953V14.2192H26.4453V16.2646Z" fill="#4285F4"/>
<path d="M8.54688 22.2305C9.58241 22.2305 10.4219 21.391 10.4219 20.3555C10.4219 19.3199 9.58241 18.4805 8.54688 18.4805C7.51134 18.4805 6.67188 19.3199 6.67188 20.3555C6.67188 21.391 7.51134 22.2305 8.54688 22.2305Z" fill="#EA4335"/>
<path d="M8.54688 24.2764C9.58241 24.2764 10.4219 23.4369 10.4219 22.4014C10.4219 21.3658 9.58241 20.5264 8.54688 20.5264C7.51134 20.5264 6.67188 21.3658 6.67188 22.4014C6.67188 23.4369 7.51134 24.2764 8.54688 24.2764Z" fill="#EA4335"/>
<path d="M10.4219 20.3555H6.67188V22.4009H10.4219V20.3555Z" fill="#EA4335"/>
<path d="M8.54688 9.95801C9.58241 9.95801 10.4219 9.11854 10.4219 8.08301C10.4219 7.04747 9.58241 6.20801 8.54688 6.20801C7.51134 6.20801 6.67188 7.04747 6.67188 8.08301C6.67188 9.11854 7.51134 9.95801 8.54688 9.95801Z" fill="#EA4335"/>
<path d="M8.54688 16.6055C9.58241 16.6055 10.4219 15.766 10.4219 14.7305C10.4219 13.6949 9.58241 12.8555 8.54688 12.8555C7.51134 12.8555 6.67188 13.6949 6.67188 14.7305C6.67188 15.766 7.51134 16.6055 8.54688 16.6055Z" fill="#EA4335"/>
<path d="M10.4219 8.08301H6.67188V14.7733H10.4219V8.08301Z" fill="#EA4335"/>
<path d="M21.8438 12.0039C22.8793 12.0039 23.7188 11.1644 23.7188 10.1289C23.7188 9.09337 22.8793 8.25391 21.8438 8.25391C20.8082 8.25391 19.9688 9.09337 19.9688 10.1289C19.9688 11.1644 20.8082 12.0039 21.8438 12.0039Z" fill="#34A853"/>
<path d="M21.8438 9.95801C22.8793 9.95801 23.7188 9.11854 23.7188 8.08301C23.7188 7.04747 22.8793 6.20801 21.8438 6.20801C20.8082 6.20801 19.9688 7.04747 19.9688 8.08301C19.9688 9.11854 20.8082 9.95801 21.8438 9.95801Z" fill="#34A853"/>
<path d="M19.9688 10.1289H23.7188V8.08345H19.9688V10.1289Z" fill="#34A853"/>
<path d="M15.1953 6.03809C16.2308 6.03809 17.0703 5.19862 17.0703 4.16309C17.0703 3.12755 16.2308 2.28809 15.1953 2.28809C14.1598 2.28809 13.3203 3.12755 13.3203 4.16309C13.3203 5.19862 14.1598 6.03809 15.1953 6.03809Z" fill="#FAB908"/>
<path d="M15.1953 3.99219C16.2308 3.99219 17.0703 3.15272 17.0703 2.11719C17.0703 1.08165 16.2308 0.242188 15.1953 0.242188C14.1598 0.242188 13.3203 1.08165 13.3203 2.11719C13.3203 3.15272 14.1598 3.99219 15.1953 3.99219Z" fill="#FAB908"/>
<path d="M13.3203 4.16309L17.0703 4.16309V2.11763L13.3203 2.11763V4.16309Z" fill="#FAB908"/>
<path d="M15.1953 30.2422C16.2308 30.2422 17.0703 29.4027 17.0703 28.3672C17.0703 27.3317 16.2308 26.4922 15.1953 26.4922C14.1598 26.4922 13.3203 27.3317 13.3203 28.3672C13.3203 29.4027 14.1598 30.2422 15.1953 30.2422Z" fill="#FAB908"/>
<path d="M15.1953 28.1963C16.2308 28.1963 17.0703 27.3568 17.0703 26.3213C17.0703 25.2858 16.2308 24.4463 15.1953 24.4463C14.1598 24.4463 13.3203 25.2858 13.3203 26.3213C13.3203 27.3568 14.1598 28.1963 15.1953 28.1963Z" fill="#FAB908"/>
<path d="M13.3203 28.3672H17.0703V26.3217H13.3203V28.3672Z" fill="#FAB908"/>
<path d="M21.8438 24.2764C22.8793 24.2764 23.7188 23.4369 23.7188 22.4014C23.7188 21.3658 22.8793 20.5264 21.8438 20.5264C20.8082 20.5264 19.9688 21.3658 19.9688 22.4014C19.9688 23.4369 20.8082 24.2764 21.8438 24.2764Z" fill="#34A853"/>
<path d="M21.8438 17.6289C22.8793 17.6289 23.7188 16.7894 23.7188 15.7539C23.7188 14.7184 22.8793 13.8789 21.8438 13.8789C20.8082 13.8789 19.9688 14.7184 19.9688 15.7539C19.9688 16.7894 20.8082 17.6289 21.8438 17.6289Z" fill="#34A853"/>
<path d="M19.9688 22.4014H23.7188V15.7536H19.9688V22.4014Z" fill="#34A853"/>
<path d="M15.1953 11.6631C16.2308 11.6631 17.0703 10.8236 17.0703 9.78809C17.0703 8.75255 16.2308 7.91309 15.1953 7.91309C14.1598 7.91309 13.3203 8.75255 13.3203 9.78809C13.3203 10.8236 14.1598 11.6631 15.1953 11.6631Z" fill="#FAB908"/>
<path d="M15.1953 22.5713C16.2308 22.5713 17.0703 21.7318 17.0703 20.6963C17.0703 19.6608 16.2308 18.8213 15.1953 18.8213C14.1598 18.8213 13.3203 19.6608 13.3203 20.6963C13.3203 21.7318 14.1598 22.5713 15.1953 22.5713Z" fill="#FAB908"/>
</svg>
