<svg width="31" height="31" viewBox="0 0 31 31" fill="none" xmlns="http://www.w3.org/2000/svg">
<path fill-rule="evenodd" clip-rule="evenodd" d="M13.8425 16.822C13.8425 14.9142 12.2899 13.3623 10.3828 13.3623V14.3666C11.0371 14.3666 11.6523 14.6223 12.1154 15.0856C12.5781 15.5479 12.8333 16.1657 12.8333 16.822L13.8425 16.822Z" fill="#AF3500"/>
<path fill-rule="evenodd" clip-rule="evenodd" d="M15.6742 16.8226C15.6742 13.9058 13.3002 11.5312 10.3828 11.5312V12.5459C12.7387 12.5459 14.6566 14.4647 14.6566 16.8226L15.6742 16.8226Z" fill="#AF3500"/>
<path fill-rule="evenodd" clip-rule="evenodd" d="M18.0979 16.6753C18.0979 12.3001 14.6104 8.73828 10.2344 8.73828V10.2602C13.7683 10.2602 16.645 13.1385 16.645 16.6752L18.0979 16.6753Z" fill="#AF3500"/>
<path d="M10.8961 17.337C11.4643 17.337 11.9249 16.8764 11.9249 16.3082C11.9249 15.7399 11.4643 15.2793 10.8961 15.2793C10.3278 15.2793 9.86719 15.7399 9.86719 16.3082C9.86719 16.8764 10.3278 17.337 10.8961 17.337Z" fill="#AF3500"/>
<path d="M15.1953 29.2422C22.9273 29.2422 29.1953 22.9742 29.1953 15.2422C29.1953 7.5102 22.9273 1.24219 15.1953 1.24219C7.46333 1.24219 1.19531 7.5102 1.19531 15.2422C1.19531 22.9742 7.46333 29.2422 15.1953 29.2422Z" stroke="#AF3500" stroke-width="1.9027"/>
<path d="M13.5042 20.6422C17.42 20.6422 20.5943 17.4678 20.5943 13.552C20.5943 9.63627 17.42 6.46191 13.5042 6.46191C9.58842 6.46191 6.41406 9.63627 6.41406 13.552C6.41406 17.4678 9.58842 20.6422 13.5042 20.6422Z" stroke="black" stroke-width="1.31937"/>
<path d="M13.0631 25.4287C15.3157 25.4287 17.1419 24.981 17.1419 24.4287C17.1419 23.8764 15.3157 23.4287 13.0631 23.4287C10.8105 23.4287 8.98438 23.8764 8.98438 24.4287C8.98438 24.981 10.8105 25.4287 13.0631 25.4287Z" fill="black"/>
<path d="M20.2141 22.2876C21.9504 24.024 23.8582 24.9314 24.4753 24.3143C25.0923 23.6973 24.185 21.7895 22.4486 20.0531C20.7123 18.3168 18.8045 17.4094 18.1874 18.0264C17.5704 18.6435 18.4777 20.5513 20.2141 22.2876Z" fill="black"/>
</svg>
