<svg width="31" height="31" viewBox="0 0 31 31" fill="none" xmlns="http://www.w3.org/2000/svg">
<path d="M15.1953 30.1211C6.88269 30.1211 0.195312 23.4337 0.195312 15.1211C0.195312 6.80847 6.88269 0.121094 15.1953 0.121094C23.5079 0.121094 30.1953 6.80847 30.1953 15.1211C30.1953 23.4337 23.5079 30.1211 15.1953 30.1211ZM15.1953 24.1837L16.3203 23.0587L15.1953 18.7462L14.0703 23.0587L15.1953 24.1837ZM13.7579 24.1211L13.1954 26.2462L14.5079 24.9337L13.7579 24.1211ZM16.6327 24.1211L15.8827 24.8711L17.1952 26.1836L16.6327 24.1211ZM17.6954 27.996L15.1953 25.4962L12.6952 27.996C13.5078 28.1212 14.3204 28.2461 15.1953 28.2461C16.0702 28.2461 16.8828 28.1835 17.6954 27.996ZM15.1953 1.99609C7.94544 1.99609 2.07031 7.87122 2.07031 15.1211C2.07031 20.871 5.75769 25.746 10.8828 27.4961L13.6953 17.0587C13.0702 16.6211 12.6952 15.8711 12.6952 15.0585C12.6952 13.6837 13.8202 12.5587 15.1953 12.5587C16.5704 12.5587 17.6954 13.6837 17.6954 15.0585C17.6954 15.8711 17.3204 16.5585 16.6953 17.0587L19.5078 27.4961C24.6329 25.746 28.3203 20.871 28.3203 15.1211C28.3203 7.87122 22.4452 1.99609 15.1953 1.99609ZM23.7577 21.621C23.4453 21.996 22.8828 22.1212 22.4452 21.8085C22.0079 21.4961 21.9453 20.9336 22.2577 20.5586C22.2577 20.5586 23.9452 18.3086 23.9452 15.1211C23.9452 11.9336 22.2577 9.68359 22.2577 9.68359C21.9453 9.30859 22.0079 8.74609 22.4452 8.43372C22.8828 8.12097 23.4453 8.24622 23.7577 8.62122C23.8829 8.74609 25.8202 11.3085 25.8202 15.1211C25.8202 18.9337 23.8829 21.4961 23.7577 21.621ZM19.1954 19.1835C18.8204 18.8085 18.8827 18.1211 19.2577 17.7461C19.2577 17.7461 20.1952 16.746 20.1952 15.1211C20.1952 13.4962 19.2577 12.5587 19.2577 12.4961C18.8827 12.1211 18.8827 11.496 19.1954 11.0587C19.5704 10.6211 20.1329 10.6211 20.5079 10.9961C20.5702 11.0587 22.0702 12.621 22.0702 15.1211C22.0702 17.6212 20.5702 19.1835 20.5079 19.2461C20.1329 19.6211 19.5704 19.5585 19.1954 19.1835ZM11.1952 19.1835C10.8202 19.5585 10.2577 19.6211 9.88269 19.2461C9.82044 19.1212 8.32044 17.6212 8.32044 15.1211C8.32044 12.621 9.82044 11.121 9.88269 10.9961C10.2577 10.6211 10.8828 10.6211 11.1952 11.0587C11.5702 11.4337 11.5079 12.1211 11.1329 12.4961C11.1329 12.5587 10.1954 13.4962 10.1954 15.1211C10.1954 16.746 11.1329 17.7461 11.1329 17.7461C11.5079 18.1211 11.5702 18.7462 11.1952 19.1835ZM7.94544 21.8085C7.50781 22.1212 6.94531 21.996 6.63294 21.621C6.50769 21.4961 4.57044 18.9337 4.57044 15.1211C4.57044 11.3085 6.50769 8.74609 6.63294 8.62122C6.94531 8.24622 7.50781 8.12097 7.94544 8.43372C8.38269 8.74609 8.44531 9.30859 8.13294 9.68359C8.13294 9.68359 6.44544 11.9336 6.44544 15.1211C6.44544 18.3086 8.13294 20.5586 8.13294 20.5586C8.44531 20.9336 8.32044 21.4961 7.94544 21.8085Z" fill="#FC7E0F"/>
</svg>
