<svg width="31" height="31" viewBox="0 0 31 31" fill="none" xmlns="http://www.w3.org/2000/svg">
<path fill-rule="evenodd" clip-rule="evenodd" d="M20.5883 13.2513C20.5493 13.1452 20.4977 12.9385 20.4021 12.755C19.9289 11.847 19.2991 11.0642 18.4634 10.4692C18.0989 10.2097 17.7133 9.9603 17.3026 9.79117C16.8298 9.59649 16.3458 9.85679 16.1594 10.3183C15.9892 10.74 16.1551 11.1762 16.5839 11.4339C16.8156 11.573 17.0559 11.6997 17.2774 11.8535C17.973 12.3362 18.4701 12.9862 18.856 13.7362C19.0684 14.1491 19.4822 14.3301 19.8677 14.232C20.2849 14.1258 20.5806 13.7646 20.5883 13.2513ZM23.5993 12.7599C23.5869 12.7059 23.5748 12.5993 23.5382 12.502C22.487 9.70525 20.5638 7.77737 17.7821 6.71296C17.4382 6.58126 17.1303 6.68812 16.8798 6.95051C16.3918 7.46142 16.6082 8.2067 17.3383 8.49719C18.8034 9.08015 20.0079 10.0036 20.8831 11.3155C21.2553 11.8732 21.5242 12.5023 21.8203 13.1088C22.0401 13.5593 22.4272 13.8007 22.8638 13.7146C23.2916 13.6302 23.6066 13.2434 23.5993 12.7599ZM26.6103 12.2154C26.5712 12.078 26.5168 11.8432 26.4381 11.617C25.8909 10.0446 25.0537 8.64048 23.947 7.40332C22.4185 5.69441 20.5765 4.4567 18.3788 3.78293C17.8251 3.61326 17.3411 3.88389 17.1966 4.38719C17.0548 4.88105 17.3126 5.30812 17.8513 5.49574C21.2041 6.6632 23.4846 8.92154 24.6995 12.2668C24.7806 12.49 24.8807 12.7176 25.0223 12.9049C25.2815 13.2477 25.6561 13.3125 26.0381 13.1629C26.4035 13.0197 26.6008 12.7231 26.6103 12.2154ZM15.1954 21.0051C11.9687 21.0083 9.39675 18.4336 9.39639 15.2C9.39603 12.6137 11.0662 10.411 13.5648 9.63383C13.9768 9.50567 14.4017 9.26277 14.6998 8.95507C15.3499 8.28419 15.3893 7.207 14.8858 6.44096C14.3252 5.58782 13.4365 5.30069 12.3428 5.61918C7.31437 7.08347 4.24028 12.3487 5.42772 17.4628C6.3748 21.5417 9.63269 24.539 13.8161 25.1509C14.5235 25.2543 15.2497 25.3431 15.9577 25.2955C16.6168 25.2511 17.2758 25.0565 17.9131 24.8577C21.4777 23.7465 23.7938 21.3866 24.8195 17.7841C25.1064 16.7766 24.6203 15.8137 23.6973 15.3831C22.7744 14.9527 21.6667 15.2285 21.091 16.0814C20.8764 16.3994 20.7477 16.7827 20.6168 17.1495C19.7929 19.461 17.6324 21.0027 15.1954 21.0051ZM15.1863 30.081C7.06019 30.1924 -0.12662 23.2988 0.282265 14.4259C0.645699 6.53885 7.02693 0.15918 15.295 0.15918C23.3886 0.15918 30.4488 6.91054 30.1103 15.7801C29.8152 23.513 23.3978 30.1477 15.1863 30.081Z" fill="#C71329"/>
</svg>
