<svg width="31" height="31" viewBox="0 0 31 31" fill="none" xmlns="http://www.w3.org/2000/svg">
<mask id="mask0" style="mask-type:alpha" maskUnits="userSpaceOnUse" x="0" y="0" width="31" height="31">
<path d="M0.304688 0.327148H30.0883V30.1111H0.304688V0.327148Z" fill="white"/>
</mask>
<g mask="url(#mask0)">
<path d="M30.0902 15.2296C30.0902 23.4604 23.4184 30.1325 15.1877 30.1325C6.95694 30.1325 0.285156 23.4604 0.285156 15.2296C0.285156 6.99929 6.95694 0.327148 15.1877 0.327148C23.4184 0.327148 30.0902 6.99929 30.0902 15.2296Z" fill="#F43E37"/>
</g>
<path d="M15.3227 22.4047C11.4362 22.4047 8.28554 19.254 8.28554 15.3676C8.28554 11.4808 11.4362 8.3301 15.3227 8.3301C19.2095 8.3301 22.3602 11.4808 22.3602 15.3676H19.8013C19.8013 12.894 17.7962 10.889 15.3227 10.889C12.8495 10.889 10.8445 12.894 10.8445 15.3676C10.8445 17.8408 12.8495 19.8455 15.3227 19.8455V22.4047ZM3.59375 15.3676C3.59375 8.88974 8.84518 3.63867 15.3227 3.63867C21.8005 3.63867 27.0516 8.88974 27.0516 15.3676H24.1195C24.1195 10.5094 20.1812 6.57081 15.3227 6.57081C10.4645 6.57081 6.52625 10.5094 6.52625 15.3676C6.52625 20.2258 10.4645 24.164 15.3227 24.164V27.0965C8.84518 27.0965 3.59375 21.8451 3.59375 15.3676Z" fill="#FFFFFE"/>
</svg>
