<svg width="31" height="31" viewBox="0 0 31 31" fill="none" xmlns="http://www.w3.org/2000/svg">
<path d="M15.1953 24.2422C20.1659 24.2422 24.1953 20.2128 24.1953 15.2422C24.1953 10.2716 20.1659 6.24219 15.1953 6.24219C10.2247 6.24219 6.19531 10.2716 6.19531 15.2422C6.19531 20.2128 10.2247 24.2422 15.1953 24.2422Z" fill="#1E376D"/>
<path d="M6.19531 15.2422H11.4453V27.9922L6.44928 26.1392L6.19531 15.2422Z" fill="#1E376D"/>
<path d="M15.1953 29.1172C22.8583 29.1172 29.0703 22.9051 29.0703 15.2422C29.0703 7.57924 22.8583 1.36719 15.1953 1.36719C7.53236 1.36719 1.32031 7.57924 1.32031 15.2422C1.32031 22.9051 7.53236 29.1172 15.1953 29.1172Z" stroke="#F70664" stroke-width="2.25"/>
</svg>
