<svg width="31" height="31" viewBox="0 0 31 31" fill="none" xmlns="http://www.w3.org/2000/svg">
<mask id="mask0" style="mask-type:alpha" maskUnits="userSpaceOnUse" x="0" y="0" width="31" height="31">
<path d="M25.4585 0.121094H4.93215C2.31607 0.121094 0.195312 2.24185 0.195312 4.85794V25.3843C0.195312 28.0003 2.31607 30.1211 4.93215 30.1211H25.4585C28.0746 30.1211 30.1953 28.0003 30.1953 25.3843V4.85794C30.1953 2.24185 28.0746 0.121094 25.4585 0.121094Z" fill="white"/>
</mask>
<g mask="url(#mask0)">
<path d="M25.4585 0.121094H4.93215C2.31607 0.121094 0.195312 2.24185 0.195312 4.85794V25.3843C0.195312 28.0003 2.31607 30.1211 4.93215 30.1211H25.4585C28.0746 30.1211 30.1953 28.0003 30.1953 25.3843V4.85794C30.1953 2.24185 28.0746 0.121094 25.4585 0.121094Z" fill="#F3842D"/>
<path fill-rule="evenodd" clip-rule="evenodd" d="M21.4774 30.0452H19.483C19.3555 29.7751 19.4725 29.5915 19.6682 29.398C21.0607 28.0222 22.4453 26.6384 23.8274 25.2519C23.9495 25.1294 24.035 24.9705 24.1375 24.8284C24.2338 24.8271 24.3303 24.8284 24.4265 24.8234C24.4794 24.8206 24.5318 24.8074 24.5845 24.7988C24.5309 24.7847 24.4775 24.7581 24.424 24.7581C23.144 24.7584 21.864 24.7615 20.5841 24.7642C20.5758 24.7373 20.5676 24.7104 20.5593 24.6835C21.8185 24.687 23.0778 24.6918 24.3371 24.6931C24.7465 24.6936 24.7501 24.6893 24.7502 24.2859C24.7511 22.1191 24.7494 19.9524 24.7496 17.7856C24.7496 16.682 24.7514 15.5783 24.7525 14.4746C24.7746 14.5079 24.7965 14.5412 24.8186 14.5745C24.818 17.7681 24.8169 20.9618 24.8184 24.1554C24.8185 24.2786 24.8441 24.4019 24.8579 24.5251C24.8677 24.4039 24.8776 24.2828 24.8876 24.1616C25.0305 24.0594 25.1907 23.9744 25.3138 23.8523C26.6692 22.5092 28.0158 21.1575 29.3724 19.8159C29.6028 19.588 29.8699 19.3969 30.1201 19.1888V21.9236C30.068 21.9067 29.9987 21.9054 29.9666 21.8704C29.7651 21.6508 29.6136 21.7168 29.4232 21.9075C26.8509 24.4827 24.2707 27.0499 21.699 29.6258C21.5922 29.7328 21.5498 29.904 21.4774 30.0452Z" fill="#ED722F"/>
<path fill-rule="evenodd" clip-rule="evenodd" d="M21.4766 30.0449C21.5489 29.9037 21.5913 29.7325 21.6981 29.6255C24.2698 27.0496 26.8501 24.4824 29.4223 21.9072C29.6127 21.7165 29.7643 21.6506 29.9657 21.8701C29.9979 21.9051 30.0671 21.9065 30.1192 21.9234V23.8294C30.0495 23.8894 29.9666 23.9393 29.9124 24.0109C29.6986 24.2928 29.5265 24.6134 29.2806 24.8624C27.8367 26.3238 26.3744 27.7668 24.9238 29.2215C24.6552 29.4909 24.3614 29.6985 23.9921 29.8094C23.8619 29.8485 23.7548 29.9642 23.6372 30.0449H21.4766Z" fill="#EE742A"/>
<path fill-rule="evenodd" clip-rule="evenodd" d="M30.1194 19.1885C29.8692 19.3966 29.6021 19.5876 29.3717 19.8155C28.015 21.1571 26.6684 22.5089 25.3131 23.852C25.19 23.974 25.0298 24.059 24.8869 24.1613C24.8868 22.9457 24.8868 21.7302 24.8867 20.5146C25.0199 20.4223 25.17 20.347 25.2835 20.235C26.3153 19.215 27.3424 18.1903 28.3671 17.1633C28.7082 16.8215 29.0382 16.4688 29.3733 16.1211L30.1194 16.7852V19.1885Z" fill="#EB6B29"/>
<path fill-rule="evenodd" clip-rule="evenodd" d="M23.6367 30.0455C23.7543 29.9648 23.8613 29.8491 23.9916 29.81C24.3609 29.6991 24.6547 29.4915 24.9233 29.2221C26.3739 27.7675 27.8362 26.3244 29.28 24.863C29.5259 24.6141 29.698 24.2934 29.9119 24.0115C29.9661 23.9399 30.049 23.89 30.1187 23.8301C30.1187 25.8329 30.1157 27.8357 30.124 29.8384C30.1246 30.0163 30.0894 30.0513 29.911 30.0507C27.8195 30.0426 25.7282 30.0455 23.6367 30.0455Z" fill="#F0782B"/>
<path fill-rule="evenodd" clip-rule="evenodd" d="M24.1365 24.8285C24.034 24.9705 23.9485 25.1295 23.8264 25.2519C22.4444 26.6384 21.0597 28.0222 19.6672 29.3982C19.4715 29.5916 19.3544 29.7751 19.4819 30.0452H16.4071C16.3235 29.9082 16.2399 29.7711 16.1562 29.6339C16.2656 29.5105 16.3688 29.3812 16.4853 29.2647C17.7736 27.977 19.0675 26.6948 20.3492 25.4007C20.5073 25.241 20.6038 25.0204 20.7289 24.8281C21.8647 24.8282 23.0007 24.8284 24.1365 24.8285Z" fill="#EB6A29"/>
<path fill-rule="evenodd" clip-rule="evenodd" d="M23.472 0.210938C23.3264 0.250898 23.1809 0.325777 23.0353 0.325897C18.0909 0.331897 13.1467 0.331897 8.20241 0.325897C8.05673 0.325777 7.91122 0.250898 7.76562 0.210938H23.472Z" fill="#F48936"/>
<path fill-rule="evenodd" clip-rule="evenodd" d="M13.4074 14.8485C13.3992 16.0409 14.1082 16.8192 15.0185 16.8711C15.9804 16.9259 16.7798 16.2698 16.8986 15.328C17.0029 14.5006 16.471 13.6701 15.6643 13.4618C15.4395 13.4037 15.184 13.4502 14.9443 13.4686C14.7456 13.4838 14.5229 13.4794 14.3563 13.5685C13.7526 13.891 13.4201 14.4031 13.4074 14.8485ZM17.0295 12.7635C17.0682 12.7947 17.1069 12.8258 17.1457 12.857C17.2446 12.9574 17.3437 13.058 17.4426 13.1584C17.8203 13.6768 18.1097 14.2315 18.1481 14.8871C18.1599 15.088 18.283 15.1313 18.4566 15.1289C18.7873 15.1243 19.1187 15.1159 19.4487 15.1317C19.6675 15.1421 19.7411 15.068 19.7198 14.8516C19.615 13.7825 19.2654 12.8219 18.4953 12.0424C18.3072 11.8669 18.1267 11.6824 17.9296 11.5174C17.1909 10.8984 16.3038 10.6733 15.3707 10.5765C15.2478 10.5637 15.1549 10.5791 15.1569 10.7408C15.1622 11.1549 15.1536 11.5691 15.1647 11.9828C15.1662 12.0373 15.2502 12.1362 15.2954 12.1358C15.8841 12.1322 16.3844 12.389 16.8842 12.6509C16.9337 12.6918 16.9833 12.7327 17.0328 12.7736L17.0295 12.7635ZM18.6174 10.6149L18.6107 10.6011C18.649 10.6304 18.6874 10.6597 18.7257 10.689C19.134 11.1504 19.5425 11.6118 19.9508 12.0732C20.0072 12.1611 20.0635 12.2491 20.1199 12.337L20.114 12.3294C20.1493 12.3888 20.1846 12.4482 20.2199 12.5076C20.2437 12.5552 20.2674 12.6027 20.2912 12.6503C20.5196 13.2541 20.7473 13.8574 20.8041 14.509C20.8581 15.1282 20.8617 15.1311 21.4801 15.1265C21.7673 15.1243 22.0544 15.1068 22.3415 15.0963C22.3343 14.7999 22.3503 14.5009 22.3154 14.2078C22.2137 13.3546 21.9823 12.5389 21.5418 11.7917C21.5446 11.7632 21.5325 11.7443 21.5053 11.7349C21.4728 11.6725 21.4404 11.6101 21.4079 11.5477L21.413 11.5547C21.355 11.4911 21.2972 11.4274 21.2393 11.3638C20.93 10.7146 20.4869 10.1733 19.9169 9.73442C19.8846 9.70475 19.8523 9.67508 19.82 9.64549L19.8277 9.64972C19.7792 9.60936 19.7307 9.56908 19.6822 9.52873L19.6907 9.53751C19.6563 9.51033 19.6219 9.48315 19.5874 9.45596L19.5877 9.45149C18.7864 8.78652 17.8622 8.37099 16.8582 8.12088C16.7363 8.09055 16.6056 8.09718 16.4801 8.07944C16.1008 8.02583 15.7227 7.96152 15.3421 7.92091C15.2866 7.91494 15.1681 8.01348 15.1663 8.06676C15.1523 8.46613 15.1581 8.86632 15.1621 9.26627C15.1636 9.42406 15.2585 9.46541 15.4075 9.46989C16.5618 9.50469 17.5907 9.90348 18.529 10.5579L18.5333 10.5585C18.5613 10.5773 18.5893 10.5961 18.6174 10.6149ZM24.7526 14.4745C24.7515 15.5782 24.7497 16.6819 24.7497 17.7855C24.7495 19.9523 24.7511 22.119 24.7503 24.2857C24.7502 24.6892 24.7466 24.6935 24.3372 24.693C23.0779 24.6917 21.8187 24.6868 20.5594 24.6834C20.5479 24.2058 20.5366 23.7281 20.5251 23.2506C20.5195 23.2064 20.514 23.1622 20.5084 23.1179C20.4674 23.1598 20.4264 23.2018 20.3853 23.2437C20.2965 23.2686 20.2022 23.2817 20.1195 23.32C19.4871 23.6134 18.8568 23.9115 18.2258 24.2083C17.6223 24.3633 17.021 24.5273 16.4142 24.6678C16.2261 24.7115 16.0233 24.6911 15.8272 24.7C15.7446 24.6963 15.6619 24.6888 15.5794 24.6895C14.6495 24.6983 13.7216 24.6888 12.8179 24.4246C12.6301 24.3698 12.441 24.319 12.2524 24.2664C12.2157 24.2307 12.179 24.1951 12.1423 24.1595C12.1405 24.1076 12.1388 24.0556 12.1371 24.0036C12.1371 23.9726 12.1372 23.9417 12.1372 23.9107C12.1372 23.0828 12.1371 22.255 12.1371 21.4273C12.1372 21.0675 12.1374 20.7077 12.1376 20.3479V20.0187V19.8506C12.1377 19.5476 12.1378 19.2446 12.138 18.9415C12.1378 18.8606 12.1376 18.7797 12.1375 18.6989C12.154 18.6752 12.1582 18.6495 12.1502 18.6217C12.2428 18.6747 12.3428 18.718 12.4269 18.7822C12.8976 19.1408 13.4129 19.4012 13.9986 19.5123C15.401 19.9064 16.6867 19.6201 17.8522 18.7978C18.6892 18.2073 19.2496 17.3956 19.5307 16.405C19.6245 16.0745 19.5733 16.0079 19.2369 16.0001C18.9465 15.9933 18.6552 16.0086 18.3653 15.9951C18.1256 15.9839 17.998 16.072 17.9001 16.301C17.3879 17.5 16.3843 18.0144 15.1612 18.2068C14.9728 18.1792 14.7815 18.1642 14.5965 18.1215C13.9162 17.9646 13.3671 17.5813 12.8744 17.1054C12.8404 17.0687 12.8064 17.0319 12.7724 16.995L12.788 16.9954C12.4284 16.4826 12.1907 15.9241 12.1474 15.293C12.1505 15.2656 12.1563 15.2383 12.1565 15.211C12.1677 13.8632 12.7881 12.9092 14.0224 12.3612C14.219 12.2739 14.2681 12.13 14.2691 11.9445C14.2706 11.6555 14.2728 11.3663 14.2692 11.0774C14.2661 10.8128 14.1976 10.7405 13.9417 10.7468C13.8476 10.7491 13.7513 10.7802 13.6611 10.8124C11.8414 11.4624 10.7168 13.0816 10.6216 14.7179C10.6037 14.7415 10.6021 14.7662 10.6165 14.7921C10.6132 15.1802 10.61 15.5684 10.6066 15.9565C10.6067 16.9234 10.6067 17.8904 10.6067 18.8572C10.6066 20.1601 10.6066 21.4628 10.6065 22.7656C10.6003 22.8599 10.5962 22.9545 10.5874 23.0485C10.574 23.1926 10.5573 23.3364 10.542 23.4804C10.4095 23.4172 10.2733 23.3608 10.1454 23.2895C9.87093 23.1367 9.60085 22.9761 9.32894 22.8187C8.48694 22.0059 7.64511 21.1996 7.0068 20.1998C4.89542 16.8926 5.10891 12.3714 7.54124 9.29453C9.186 7.21392 11.3184 5.91696 13.9528 5.63585C17.9247 5.21204 21.0439 6.734 23.2828 10.0379C23.3288 10.1059 23.3773 10.1722 23.4248 10.2393C23.4652 10.2995 23.5056 10.3599 23.5461 10.4202L23.5351 10.416C23.6861 10.7377 23.8432 11.0567 23.9871 11.3815C24.4235 12.3674 24.6366 13.4093 24.7526 14.4745Z" fill="#FEFDFC"/>
<path fill-rule="evenodd" clip-rule="evenodd" d="M18.2262 24.2088C18.8572 23.912 19.4874 23.6138 20.1199 23.3205C20.2025 23.2822 20.2968 23.269 20.3857 23.2441C20.4323 23.2465 20.4788 23.2488 20.5254 23.251C20.5369 23.7286 20.5483 24.2063 20.5598 24.6838C20.5681 24.7108 20.5762 24.7377 20.5845 24.7646L20.7304 24.8285C20.6053 25.0208 20.5088 25.2413 20.3506 25.4011C19.069 26.6952 17.775 27.9774 16.4867 29.2651C16.3703 29.3815 16.2671 29.5109 16.1577 29.6343C15.6311 29.1096 15.1046 28.5849 14.5781 28.0602C14.6773 27.9469 14.7707 27.8277 14.8769 27.7214C15.7616 26.8358 16.655 25.9589 17.531 25.0649C17.7872 24.8034 17.9958 24.4954 18.2262 24.2088Z" fill="#E96528"/>
<path fill-rule="evenodd" clip-rule="evenodd" d="M29.3733 16.1214C29.0382 16.4691 28.7081 16.8218 28.3671 17.1635C27.3424 18.1907 26.3152 19.2153 25.2834 20.2353C25.17 20.3474 25.0198 20.4225 24.8867 20.5149C24.887 19.1891 24.8873 17.8633 24.8876 16.5374C25.0204 16.4449 25.1692 16.3685 25.2836 16.257C25.8178 15.7366 26.3337 15.1973 26.8752 14.6849C27.0713 14.4994 27.2302 14.3095 27.2959 14.0479C27.9884 14.739 28.6808 15.4302 29.3733 16.1214Z" fill="#E96428"/>
<path fill-rule="evenodd" clip-rule="evenodd" d="M18.2239 24.208C17.9935 24.4947 17.7849 24.8026 17.5287 25.0641C16.6528 25.9581 15.7593 26.835 14.8746 27.7206C14.7684 27.8269 14.6751 27.9462 14.5759 28.0594C13.9932 27.4791 13.4107 26.8987 12.8281 26.3184C13.2822 26.1955 13.5299 25.8113 13.8408 25.5114C14.0676 25.2925 14.2245 24.9452 14.4878 24.8359C14.7664 24.7204 15.1346 24.8303 15.4628 24.8178C15.585 24.8132 15.7046 24.7411 15.8253 24.6998C16.0213 24.6907 16.2243 24.7111 16.4123 24.6675C17.0191 24.5271 17.6204 24.363 18.2239 24.208Z" fill="#E8612A"/>
<path fill-rule="evenodd" clip-rule="evenodd" d="M27.2969 14.0478C27.2312 14.3095 27.0723 14.4994 26.8762 14.6849C26.3347 15.1973 25.8188 15.7366 25.2846 16.257C25.1702 16.3684 25.0214 16.4449 24.8886 16.5374C24.8874 16.0564 24.892 15.5754 24.8822 15.0945C24.8787 14.9208 24.841 14.7478 24.8189 14.5744C24.7968 14.5411 24.7748 14.5078 24.7528 14.4746C24.6367 13.4092 24.4237 12.3674 23.9872 11.3815C23.8433 11.0566 23.6862 10.7377 23.5352 10.416C23.6419 10.4692 23.7713 10.4996 23.8517 10.5792C24.9805 11.6975 26.1026 12.8224 27.2256 13.9466C27.2543 13.9753 27.2734 14.0139 27.2969 14.0478Z" fill="#E75D27"/>
<path fill-rule="evenodd" clip-rule="evenodd" d="M12.1415 24.1599C12.1782 24.1955 12.2149 24.2311 12.2516 24.2668C12.364 24.7157 12.1123 25.0208 11.5842 25.0756C10.8322 24.3235 10.0802 23.5713 9.32812 22.8191C9.60004 22.9766 9.87012 23.1371 10.1446 23.29C10.2725 23.3612 10.4087 23.4177 10.5412 23.4808C10.5565 23.3368 10.5732 23.193 10.5866 23.049C10.5954 22.9549 10.5995 22.8603 10.6057 22.7661C10.6991 22.6778 10.8067 22.6003 10.8836 22.4995C11.2012 22.0834 11.5269 21.6785 12.0019 21.4268C12.0023 22.1232 11.9958 22.8198 12.009 23.516C12.0115 23.6484 12.0919 23.7794 12.1364 23.9111C12.1364 23.942 12.1363 23.973 12.1363 24.0039C12.0846 24.0577 11.9955 24.1128 12.1415 24.1599Z" fill="#E4562A"/>
<path fill-rule="evenodd" clip-rule="evenodd" d="M11.5859 25.0754C12.114 25.0206 12.3657 24.7155 12.2533 24.2666C12.4418 24.3192 12.631 24.3699 12.8188 24.4248C13.7225 24.689 14.6503 24.6985 15.5803 24.6898C15.6629 24.689 15.7455 24.6965 15.8281 24.7003C15.7073 24.7416 15.5878 24.8137 15.4657 24.8183C15.1375 24.8308 14.7692 24.7209 14.4907 24.8364C14.2273 24.9458 14.0704 25.293 13.8436 25.5119C13.5328 25.8118 13.285 26.196 12.831 26.3189C12.416 25.9043 12.001 25.4899 11.5859 25.0754Z" fill="#E65E2D"/>
<path fill-rule="evenodd" clip-rule="evenodd" d="M23.5472 10.4202C23.5067 10.3598 23.4662 10.2995 23.4258 10.2393C23.4662 10.2995 23.5067 10.3598 23.5472 10.4202Z" fill="#E75D27"/>
<path fill-rule="evenodd" clip-rule="evenodd" d="M24.8218 14.5742C24.8538 14.7476 24.9082 14.9206 24.9133 15.0944C24.9272 15.5752 24.9206 16.0562 24.9223 16.5372C24.922 17.8631 24.9215 19.1889 24.9211 20.5147C24.9212 21.7303 24.9212 22.9458 24.9214 24.1614C24.907 24.2825 24.8927 24.4037 24.8784 24.5249C24.8586 24.4016 24.8215 24.2784 24.8214 24.1552C24.8192 20.9616 24.8208 17.7679 24.8218 14.5742Z" fill="#E95E04"/>
<path fill-rule="evenodd" clip-rule="evenodd" d="M20.7318 24.862L20.5859 24.7695C21.8659 24.7657 23.1459 24.7611 24.4259 24.7607C24.4794 24.7607 24.5328 24.7993 24.5863 24.8197C24.5336 24.832 24.4813 24.8512 24.4283 24.8552C24.3322 24.8625 24.2357 24.8606 24.1394 24.8625C23.0036 24.8624 21.8676 24.8621 20.7318 24.862Z" fill="#EA6302"/>
<path fill-rule="evenodd" clip-rule="evenodd" d="M12.0018 21.4264C11.5267 21.6782 11.201 22.0832 10.8834 22.4992C10.8066 22.6 10.699 22.6775 10.6055 22.7657C10.6056 21.4629 10.6056 20.1602 10.6057 18.8574C10.7447 18.7826 10.9082 18.7335 11.0184 18.6285C11.4738 18.1954 11.9088 17.7407 12.3611 17.3041C12.4859 17.1835 12.6441 17.0975 12.787 16.9955L12.7715 16.9951C12.8054 17.032 12.8395 17.0688 12.8735 17.1055C13.3661 17.5814 13.9152 17.9647 14.5955 18.1216C14.7805 18.1643 14.9718 18.1793 15.1602 18.207C15.1015 18.2787 15.0454 18.3527 14.9834 18.4215C14.6556 18.7859 14.3264 19.149 13.9976 19.5124C13.412 19.4012 12.8967 19.1409 12.4259 18.7823C12.3418 18.7181 12.2418 18.6748 12.1492 18.6218C12.1449 18.6476 12.1407 18.6732 12.1365 18.699C12.1366 18.7798 12.1368 18.8608 12.137 18.9416C11.9484 19.2081 11.9482 19.5831 12.1366 19.8508V20.0188C11.9589 20.1285 11.9598 20.2383 12.1366 20.348C12.1365 20.7078 12.1363 21.0676 12.1361 21.4274C12.0913 21.4271 12.0465 21.4267 12.0018 21.4264Z" fill="#E24F24"/>
<path fill-rule="evenodd" clip-rule="evenodd" d="M13.4063 14.8486C13.419 14.4031 13.7515 13.8911 14.3552 13.5686C14.5218 13.4795 14.7444 13.4839 14.9431 13.4687C15.1829 13.4503 15.4384 13.4038 15.6631 13.4619C16.4699 13.6702 17.0018 14.5007 16.8975 15.3281C16.7787 16.2698 15.9793 16.926 15.0174 16.8712C14.1071 16.8193 13.3981 16.041 13.4063 14.8486Z" fill="#E24E24"/>
<path fill-rule="evenodd" clip-rule="evenodd" d="M14 19.5122C14.3288 19.1487 14.658 18.7857 14.9858 18.4214C15.0477 18.3525 15.1038 18.2784 15.1626 18.2068C16.3857 18.0144 17.3893 17.5 17.9015 16.301C17.9994 16.0718 18.127 15.9839 18.3666 15.9951C18.6566 16.0085 18.9478 15.9933 19.2383 16C19.5747 16.0078 19.6259 16.0745 19.532 16.405C19.2511 17.3955 18.6906 18.2072 17.8535 18.7978C16.6882 19.62 15.4024 19.9064 14 19.5122Z" fill="#E55727"/>
<path fill-rule="evenodd" clip-rule="evenodd" d="M10.6055 15.9562C10.6088 15.568 10.612 15.1799 10.6153 14.7917C10.6218 14.7845 10.6344 14.7767 10.6338 14.7701C10.6324 14.7524 10.6252 14.7351 10.6203 14.7176C10.7157 13.0812 11.8401 11.4621 13.6599 10.8121C13.7501 10.7799 13.8464 10.7488 13.9405 10.7465C14.1964 10.7402 14.2648 10.8125 14.268 11.077C14.2715 11.366 14.2695 11.6552 14.2679 11.9441C14.2669 12.1297 14.2179 12.2735 14.0212 12.3608C12.7869 12.9089 12.1665 13.8629 12.1552 15.2107C12.155 15.238 12.1493 15.2653 12.1462 15.2926C12.1048 15.2601 12.0502 15.2356 12.0243 15.1936C11.8617 14.9298 11.8503 14.9223 11.6276 15.1319C11.4102 15.3365 11.2121 15.5626 10.9872 15.7584C10.8823 15.8498 10.7341 15.8918 10.6055 15.9562Z" fill="#DF4523"/>
<path fill-rule="evenodd" clip-rule="evenodd" d="M18.5279 10.5582C17.5895 9.90373 16.5607 9.50494 15.4063 9.47014C15.2574 9.46566 15.1625 9.42431 15.1609 9.26652C15.157 8.86657 15.1511 8.46638 15.1651 8.06693C15.167 8.01373 15.2854 7.91519 15.3409 7.92116C15.7215 7.96177 16.0996 8.02607 16.479 8.07969C16.6044 8.09743 16.7352 8.0908 16.8571 8.12113C17.861 8.37124 18.7853 8.78677 19.5865 9.45174C19.2724 9.5284 19.1185 9.80933 18.8862 9.98991C18.6901 10.1423 18.5578 10.3123 18.5279 10.5582Z" fill="#E04825"/>
<path fill-rule="evenodd" clip-rule="evenodd" d="M10.6055 15.9563C10.7341 15.8919 10.8823 15.8499 10.9872 15.7585C11.2121 15.5627 11.4102 15.3366 11.6276 15.1319C11.8503 14.9224 11.8617 14.9299 12.0243 15.1937C12.0502 15.2357 12.1048 15.2601 12.1462 15.2927C12.1896 15.9239 12.4272 16.4824 12.7868 16.9952C12.6439 17.0971 12.4857 17.1831 12.3609 17.3037C11.9087 17.7404 11.4736 18.195 11.0182 18.6282C10.908 18.7331 10.7445 18.7822 10.6055 18.857C10.6055 17.8901 10.6055 16.9232 10.6055 15.9563Z" fill="#E14924"/>
<path fill-rule="evenodd" clip-rule="evenodd" d="M17.442 13.1587C17.3431 13.0583 17.244 12.9578 17.1451 12.8572C17.1063 12.8261 17.0676 12.7949 17.0289 12.7637L17.0322 12.7739C16.9827 12.733 16.9331 12.6921 16.8836 12.6511C16.3838 12.3892 15.8835 12.1324 15.2948 12.1361C15.2496 12.1364 15.1655 12.0376 15.1641 11.9831C15.153 11.5693 15.1615 11.1551 15.1563 10.7411C15.1543 10.5794 15.2472 10.564 15.37 10.5767C16.3032 10.6736 17.1903 10.8988 17.929 11.5177C18.126 11.6827 18.3066 11.8672 18.4947 12.0427C18.1438 12.4147 17.793 12.7867 17.442 13.1587Z" fill="#E14B25"/>
<path fill-rule="evenodd" clip-rule="evenodd" d="M21.5436 11.7922C21.9841 12.5393 22.2155 13.355 22.3172 14.2082C22.3521 14.5012 22.3361 14.8004 22.3434 15.0967C22.0562 15.1072 21.7691 15.1247 21.4819 15.1269C20.8634 15.1315 20.8598 15.1286 20.8059 14.5094C20.749 13.8578 20.5213 13.2545 20.293 12.6507C20.6368 12.6336 20.7307 12.3005 20.9493 12.1256C21.1324 11.9793 21.2778 11.7854 21.5436 11.7922Z" fill="#E55627"/>
<path fill-rule="evenodd" clip-rule="evenodd" d="M21.5401 11.7914C21.2744 11.7846 21.1289 11.9785 20.9459 12.1249C20.7272 12.2998 20.6333 12.6328 20.2895 12.65C20.2658 12.6024 20.2421 12.5548 20.2183 12.5073C20.183 12.4479 20.1477 12.3884 20.1123 12.329L20.1183 12.3367C20.0618 12.2488 20.0055 12.1608 19.9491 12.0729C19.5408 11.6115 19.1323 11.1501 18.724 10.6887C18.6857 10.6594 18.6473 10.63 18.609 10.6007L18.6158 10.6146C18.5877 10.5958 18.5597 10.577 18.5317 10.5582L18.5273 10.5576C18.5573 10.3117 18.6896 10.1418 18.8858 9.98935C19.118 9.80877 19.2719 9.52783 19.586 9.45117L19.5857 9.45565C19.6202 9.48283 19.6547 9.51001 19.6891 9.53719L19.6806 9.52841C19.7291 9.56877 19.7775 9.60905 19.8261 9.6494L19.8183 9.64518C19.8507 9.67476 19.883 9.70443 19.9152 9.7341C20.4852 10.173 20.9283 10.7142 21.2376 11.3635C21.2956 11.4271 21.3534 11.4908 21.4113 11.5544L21.4063 11.5474C21.4387 11.6098 21.4712 11.6722 21.5037 11.7345C21.5308 11.7439 21.543 11.7628 21.5401 11.7914Z" fill="#E24E24"/>
<path fill-rule="evenodd" clip-rule="evenodd" d="M17.4414 13.1589C17.7923 12.7869 18.1431 12.4149 18.4941 12.043C19.2642 12.8224 19.6138 13.783 19.7186 14.852C19.7399 15.0685 19.6661 15.1427 19.4475 15.1322C19.1174 15.1164 18.7861 15.1248 18.4553 15.1294C18.2817 15.1319 18.1587 15.0885 18.1469 14.8877C18.1085 14.232 17.819 13.6774 17.4414 13.1589Z" fill="#E35126"/>
<path fill-rule="evenodd" clip-rule="evenodd" d="M12.0013 21.4268C12.0461 21.4271 12.0909 21.4274 12.1357 21.4278C12.1358 22.2555 12.1358 23.0833 12.1358 23.9112C12.0913 23.7795 12.0109 23.6485 12.0084 23.5161C11.9952 22.8199 12.0016 22.1232 12.0013 21.4268Z" fill="#E34D19"/>
<path fill-rule="evenodd" clip-rule="evenodd" d="M12.1373 19.8506C11.9489 19.5829 11.9491 19.2079 12.1376 18.9414C12.1375 19.2446 12.1374 19.5475 12.1373 19.8506Z" fill="#E34D19"/>
<path fill-rule="evenodd" clip-rule="evenodd" d="M12.1369 20.3478C11.96 20.2381 11.9591 20.1284 12.1369 20.0186V20.3478Z" fill="#E34D19"/>
<path fill-rule="evenodd" clip-rule="evenodd" d="M20.5265 23.2508L20.3867 23.244C20.4279 23.202 20.4688 23.1601 20.5098 23.1182C20.5154 23.1625 20.5209 23.2067 20.5265 23.2508Z" fill="#ED722F"/>
<path fill-rule="evenodd" clip-rule="evenodd" d="M19.9492 12.0732C20.0056 12.1612 20.0618 12.2492 20.1182 12.3371C20.0618 12.2492 20.0056 12.1612 19.9492 12.0732Z" fill="#E55627"/>
<path fill-rule="evenodd" clip-rule="evenodd" d="M21.4121 11.5552C21.3541 11.4916 21.2962 11.4279 21.2383 11.3643C21.2962 11.4279 21.3541 11.4916 21.4121 11.5552Z" fill="#E55627"/>
<path fill-rule="evenodd" clip-rule="evenodd" d="M12.1778 24.1599C11.9669 24.1127 12.0956 24.0577 12.1703 24.0039C12.1727 24.056 12.1752 24.1079 12.1778 24.1599Z" fill="#E34D19"/>
<path fill-rule="evenodd" clip-rule="evenodd" d="M20.1133 12.3291C20.1534 12.3885 20.1934 12.4479 20.2333 12.5073C20.1934 12.4479 20.1534 12.3885 20.1133 12.3291Z" fill="#E55627"/>
<path fill-rule="evenodd" clip-rule="evenodd" d="M19.8291 9.64931C19.7806 9.60896 19.7321 9.56868 19.6836 9.52832C19.7321 9.56868 19.7806 9.60896 19.8291 9.64931Z" fill="#E04825"/>
<path fill-rule="evenodd" clip-rule="evenodd" d="M16.8828 12.6514C16.9323 12.6923 16.9819 12.7332 17.0314 12.7741C16.9819 12.7332 16.9323 12.6923 16.8828 12.6514Z" fill="#E35126"/>
<path fill-rule="evenodd" clip-rule="evenodd" d="M21.5262 11.7351C21.4862 11.6727 21.4463 11.6103 21.4062 11.5479C21.4463 11.6103 21.4862 11.6727 21.5262 11.7351Z" fill="#E55627"/>
<path fill-rule="evenodd" clip-rule="evenodd" d="M12.1523 18.7348C12.1585 18.6974 12.1646 18.6604 12.1707 18.623C12.1823 18.6632 12.1763 18.7004 12.1523 18.7348Z" fill="#E34D19"/>
<path fill-rule="evenodd" clip-rule="evenodd" d="M12.8934 17.1151C12.8535 17.0752 12.8134 17.0351 12.7734 16.9951C12.8134 17.0351 12.8535 17.0752 12.8934 17.1151Z" fill="#E14924"/>
<path fill-rule="evenodd" clip-rule="evenodd" d="M19.7059 9.57413C19.666 9.53477 19.626 9.49541 19.5859 9.45605C19.626 9.49541 19.666 9.53477 19.7059 9.57413Z" fill="#E04825"/>
<path fill-rule="evenodd" clip-rule="evenodd" d="M17.0312 12.7637C17.0712 12.8037 17.1112 12.8437 17.1512 12.8837C17.1112 12.8437 17.0712 12.8037 17.0312 12.7637Z" fill="#E35126"/>
<path fill-rule="evenodd" clip-rule="evenodd" d="M18.6094 10.6016C18.6494 10.6416 18.6894 10.6816 18.7294 10.7216C18.6894 10.6816 18.6494 10.6416 18.6094 10.6016Z" fill="#E04825"/>
<path fill-rule="evenodd" clip-rule="evenodd" d="M18.5352 10.5645C18.5751 10.5917 18.6151 10.6189 18.6552 10.6462C18.6151 10.6189 18.5751 10.5917 18.5352 10.5645Z" fill="#E04825"/>
<path fill-rule="evenodd" clip-rule="evenodd" d="M10.6385 14.7197C10.6456 14.745 10.6559 14.7701 10.658 14.7958C10.6588 14.8054 10.6407 14.8167 10.6312 14.8272C10.6103 14.7897 10.6127 14.7539 10.6385 14.7197Z" fill="#E4562A"/>
<path fill-rule="evenodd" clip-rule="evenodd" d="M19.9403 9.76551C19.9003 9.72547 19.8604 9.68543 19.8203 9.64551C19.8604 9.68543 19.9003 9.72547 19.9403 9.76551Z" fill="#E04825"/>
</g>
</svg>
