<svg width="31" height="31" viewBox="0 0 31 31" fill="none" xmlns="http://www.w3.org/2000/svg">
<path d="M14.6885 11.5498H15.653C16.2447 11.5498 16.7244 12.0295 16.7244 12.6212C16.7244 12.6968 16.7164 12.7722 16.7005 12.8461L12.9921 30.1212H9.83594L13.6409 12.3964C13.7469 11.9025 14.1834 11.5498 14.6885 11.5498Z" fill="#F90000"/>
<path d="M8.48542 15.9988C5.09075 12.8039 5.37489 7.84896 8.50037 4.96473C9.09855 4.41747 10.0556 4.44705 10.594 5.05347C11.1623 5.64511 11.1174 6.57694 10.5192 7.13899C8.62001 8.89911 8.44056 11.8869 10.5342 13.8541C11.1324 14.4161 11.1623 15.348 10.594 15.9396C10.0257 16.5312 9.0836 16.5608 8.48542 15.9988ZM7.43789 18.173C8.18561 18.6167 8.33516 19.5042 7.73698 20.2437C7.43789 20.6875 6.98925 20.8354 6.54062 20.8354C6.24153 20.8354 5.94244 20.6875 5.64335 20.5396C2.65245 18.3209 0.708372 14.4753 0.558827 10.4817C0.409282 6.34028 2.35336 2.93837 5.64335 0.423919C6.24153 -0.0198082 7.28834 -0.0198082 7.73698 0.719737C8.18561 1.31137 8.18561 2.34674 7.43789 2.79047C4.89563 4.71328 3.54972 7.37565 3.54972 10.4817C3.54972 13.4399 5.04517 16.546 7.43789 18.173ZM19.7886 15.9396C19.2204 15.348 19.2503 14.4161 19.8335 13.8393C21.9271 11.8721 21.7626 8.88432 19.8484 7.1242C19.2503 6.57694 19.2054 5.63032 19.7737 5.03868C20.327 4.44705 21.2841 4.40268 21.8823 4.96473C25.0077 7.84896 25.2919 12.8039 21.8972 15.9988C21.299 16.5608 20.3569 16.5312 19.7886 15.9396ZM24.7454 0.423919C28.0353 2.93837 29.9645 6.34028 29.8299 10.4817C29.8299 14.4753 27.8858 18.3209 24.7454 20.5396C24.4463 20.6875 24.1472 20.8354 23.8481 20.8354C23.3995 20.8354 22.9508 20.6875 22.6517 20.2437C22.0536 19.5042 22.2031 18.6167 22.9508 18.173C25.3435 16.546 26.839 13.4399 26.839 10.4817C26.839 7.37565 25.4931 4.71328 22.9508 2.79047C22.2031 2.34674 22.2031 1.31137 22.6517 0.719737C23.1004 -0.0198082 24.1472 -0.0198082 24.7454 0.423919Z" fill="#F90000"/>
<path d="M15.1948 13.6922C16.97 13.6922 18.409 12.2532 18.409 10.478C18.409 8.70276 16.97 7.26367 15.1948 7.26367C13.4196 7.26367 11.9805 8.70276 11.9805 10.478C11.9805 12.2532 13.4196 13.6922 15.1948 13.6922Z" fill="#F90000"/>
</svg>
