<svg width="31" height="31" viewBox="0 0 31 31" fill="none" xmlns="http://www.w3.org/2000/svg">
<path d="M25.9867 0.842773H4.4045C2.41206 0.842773 0.796875 2.45796 0.796875 4.4504V26.0326C0.796875 28.025 2.41206 29.6402 4.4045 29.6402H25.9867C27.9791 29.6402 29.5943 28.025 29.5943 26.0326V4.4504C29.5943 2.45796 27.9791 0.842773 25.9867 0.842773Z" fill="#00A4FF" stroke="#002D46" stroke-width="1.20254"/>
<path d="M3.90625 18.9102H25.5148C25.5148 18.9102 24.4148 26.0968 14.7071 26.0968C4.99942 26.0968 3.90625 18.9102 3.90625 18.9102Z" fill="#FF00B7"/>
<path d="M8.34817 24.6729C6.14065 23.6304 4.47427 21.5094 3.98438 19.1183C5.64083 19.0276 7.29881 18.9661 8.95832 18.9336C10.1254 18.911 11.5584 18.6777 12.6982 18.9293C11.5243 19.5346 10.4727 19.9827 9.63461 21.0805C9.23525 21.6031 8.92012 22.1849 8.70063 22.805C8.62819 23.0054 8.14603 24.5776 8.34817 24.6729Z" fill="black"/>
<path d="M14.4737 22.969C14.445 23.184 14.4502 23.4558 14.6455 23.5531C14.7903 23.6264 14.9744 23.5531 15.0798 23.4286C15.1852 23.304 15.231 23.1422 15.2788 22.9873C15.781 21.3307 16.7868 20.04 18.0418 18.8887C17.3022 18.9611 16.3657 18.8377 15.8305 19.4524C15.0372 20.3624 14.6346 21.8003 14.4737 22.969Z" fill="black"/>
<path d="M7.46772 22.1758C8.12081 22.1758 8.72323 20.4668 8.93024 19.1709H6.25C6.35909 20.4562 6.83152 22.1758 7.46772 22.1758Z" fill="white"/>
<path d="M21.9553 22.1758C22.5938 22.1758 23.0653 20.4562 23.1733 19.1709H20.4922C20.7001 20.4668 21.3033 22.1758 21.9553 22.1758Z" fill="white"/>
<path d="M14.7078 26.5911C9.5005 26.5911 6.71032 24.5405 5.28616 22.8192C3.72973 20.9386 3.43053 19.0641 3.41793 18.9859L3.33203 18.417H26.0916L26.0057 18.9862C25.9934 19.0652 25.6907 20.9398 24.134 22.8197C22.7073 24.5405 19.9145 26.5911 14.7078 26.5911ZM4.53171 19.4045C5.01502 21.0445 7.0476 25.601 14.7078 25.601C22.285 25.601 24.3774 21.0348 24.8825 19.4045H4.53171Z" fill="black"/>
<path d="M14.7122 16.443C17.5736 16.443 19.8932 14.1234 19.8932 11.262C19.8932 8.40065 17.5736 6.08105 14.7122 6.08105C11.8508 6.08105 9.53125 8.40065 9.53125 11.262C9.53125 14.1234 11.8508 16.443 14.7122 16.443Z" fill="#00A397"/>
<path d="M14.7115 13.9298C16.1852 13.9298 17.38 12.735 17.38 11.2613C17.38 9.7875 16.1852 8.59277 14.7115 8.59277C13.2377 8.59277 12.043 9.7875 12.043 11.2613C12.043 12.735 13.2377 13.9298 14.7115 13.9298Z" fill="black"/>
<path d="M16.9606 11.2824C17.7801 11.2824 18.4446 10.618 18.4446 9.79845C18.4446 8.97886 17.7801 8.31445 16.9606 8.31445C16.141 8.31445 15.4766 8.97886 15.4766 9.79845C15.4766 10.618 16.141 11.2824 16.9606 11.2824Z" fill="white"/>
<path d="M14.6435 3.23828C23.4725 3.23828 24.0454 11.7257 24.0454 11.7257C24.0454 11.7257 24.6701 16.3597 21.494 16.3597H14.1914" fill="white"/>
<path d="M14.7798 3.23828C5.95085 3.23828 5.37792 11.7257 5.37792 11.7257C5.37792 11.7257 4.75318 16.3597 7.92932 16.3597H15.2322" fill="white"/>
<path d="M14.7122 16.443C17.5736 16.443 19.8932 14.1234 19.8932 11.262C19.8932 8.40065 17.5736 6.08105 14.7122 6.08105C11.8508 6.08105 9.53125 8.40065 9.53125 11.262C9.53125 14.1234 11.8508 16.443 14.7122 16.443Z" fill="#00A397"/>
<path d="M14.7115 13.9298C16.1852 13.9298 17.38 12.735 17.38 11.2613C17.38 9.7875 16.1852 8.59277 14.7115 8.59277C13.2377 8.59277 12.043 9.7875 12.043 11.2613C12.043 12.735 13.2377 13.9298 14.7115 13.9298Z" fill="black"/>
<path d="M16.9606 11.2824C17.7801 11.2824 18.4446 10.618 18.4446 9.79845C18.4446 8.97886 17.7801 8.31445 16.9606 8.31445C16.141 8.31445 15.4766 8.97886 15.4766 9.79845C15.4766 10.618 16.141 11.2824 16.9606 11.2824Z" fill="white"/>
<path d="M24.5361 11.672C24.4952 11.2036 23.6253 2.83335 14.7821 2.74517V2.74316C14.7586 2.74316 14.7357 2.74316 14.7122 2.74316C14.6887 2.74316 14.6661 2.74316 14.6424 2.74316V2.74517C5.79995 2.83335 4.92954 11.2028 4.88831 11.6718C4.85967 11.9051 4.55789 14.5163 5.80453 15.9422C6.33308 16.5469 7.04887 16.8536 7.9316 16.8536H21.4928C22.3756 16.8536 23.0911 16.5469 23.6199 15.9422C24.8665 14.5163 24.5659 11.9054 24.5361 11.672ZM22.8755 15.2911C22.5379 15.6771 22.0858 15.8638 21.4928 15.8638H7.9316C7.33949 15.8638 6.88768 15.6768 6.55039 15.2911C5.56746 14.1693 5.86723 11.8129 5.87038 11.7897L5.87353 11.7574C5.89644 11.4307 6.52863 3.77563 14.7122 3.73183C22.8958 3.77563 23.5277 11.4307 23.5509 11.7568L23.5541 11.7897C23.6425 12.4474 23.6932 14.3557 22.8755 15.292V15.2911Z" fill="black"/>
</svg>
