<svg width="31" height="31" viewBox="0 0 31 31" fill="none" xmlns="http://www.w3.org/2000/svg">
<path d="M8.27223 26.208C8.27214 28.4404 6.46639 30.2422 4.23108 30.2422C2.00441 30.2422 0.195312 28.4403 0.195312 26.208C0.195312 23.9874 2.00441 22.1653 4.23108 22.1653C6.46648 22.1653 8.27223 23.9874 8.27223 26.208ZM19.8107 30.2422H14.0889C14.0889 26.5211 12.6417 23.0184 10.0185 20.3974C7.39265 17.7707 3.90468 16.3209 0.195312 16.3209V10.6268C11.008 10.6268 19.8107 19.4254 19.8107 30.2422ZM30.1953 30.2422H24.4259C24.4259 16.874 13.5525 5.99463 0.195312 5.99463V0.242188C16.7358 0.242188 30.1953 13.7049 30.1953 30.2422Z" fill="#F5A623"/>
</svg>
