<svg width="31" height="31" viewBox="0 0 31 31" fill="none" xmlns="http://www.w3.org/2000/svg">
<path d="M24.0684 13.54C19.2332 10.6685 11.2577 10.4045 6.642 11.8054C5.90062 12.0304 5.1168 11.612 4.89218 10.8708C4.66757 10.129 5.08563 9.34575 5.82736 9.12042C11.1259 7.51211 19.9341 7.82271 25.5004 11.1269C26.1671 11.5228 26.3858 12.3838 25.9907 13.0494C25.5952 13.7161 24.7334 13.9359 24.0684 13.54ZM23.91 17.793C23.5708 18.3435 22.8511 18.5161 22.3013 18.1781C18.2703 15.7004 12.1234 14.9825 7.35435 16.4301C6.73586 16.6169 6.08279 16.2684 5.8949 15.6509C5.70861 15.0326 6.05735 14.3806 6.67477 14.1926C12.1227 12.5393 18.8954 13.3399 23.5253 16.1853C24.075 16.5238 24.248 17.2438 23.91 17.793ZM22.0746 21.8775C21.805 22.3196 21.2295 22.458 20.789 22.1886C17.2666 20.0358 12.8331 19.5497 7.61176 20.7422C7.10861 20.8576 6.60708 20.5423 6.49226 20.0392C6.37709 19.5362 6.69126 19.0347 7.19548 18.9199C12.9094 17.6137 17.8106 18.1758 21.7643 20.5918C22.2052 20.861 22.344 21.4369 22.0746 21.8775ZM15.1953 0.242188C6.91122 0.242188 0.195312 6.95791 0.195312 15.242C0.195312 23.527 6.91122 30.2422 15.1953 30.2422C23.4798 30.2422 30.1953 23.527 30.1953 15.242C30.1953 6.95791 23.4798 0.242188 15.1953 0.242188Z" fill="#1ED760"/>
</svg>
