<svg xmlns="http://www.w3.org/2000/svg" width="112" height="112" viewBox="0 0 112 112"><defs><style>.a{fill:none;}.b{fill:#786aff;}.c{fill:#fa9797;}</style></defs><g transform="translate(-255 -1973)"><rect class="a" width="112" height="112" rx="10" transform="translate(255 1973)"/><g transform="translate(272.362 1990.362)"><path class="b" d="M11.728,37.292V9.728H58.093V37.292l7.728-4.416V2H4V32.875Z" transform="translate(3.728 -2)"/><path class="b" d="M53.257,26.02H28.019L2,11.152V45.339a7.728,7.728,0,0,0,7.728,7.728h61.82a7.728,7.728,0,0,0,7.728-7.728V11.152Z" transform="translate(-2 24.209)"/><g transform="translate(21.118 11.618)"><path class="a" d="M0,0H34.907V34.907H0Z" transform="translate(0.066 -0.434)"/><g transform="translate(1.607 1.107)"><path class="c" d="M14.559,25.331h-1.2l1.186-7.172-3.669.005h-.053a.6.6,0,0,1-.6-.6,1.112,1.112,0,0,1,.131-.382l6.593-11,1.219.005-1.215,7.184,3.688,0H20.7a.6.6,0,0,1,.6.6.585.585,0,0,1-.127.352ZM15.768,0A15.768,15.768,0,1,0,31.535,15.768,15.768,15.768,0,0,0,15.768,0Z" transform="translate(0)"/></g></g></g></g></svg>