<svg xmlns="http://www.w3.org/2000/svg" width="112" height="112" viewBox="0 0 112 112"><defs><style>.a{fill:none;}.b{fill:#786aff;}.c{fill:#fff;}.d{fill:#fa9797;}</style></defs><g transform="translate(-254 -1974)"><rect class="a" width="112" height="112" rx="10" transform="translate(254 1974)"/><g transform="translate(267.911 1987.15)"><circle class="b" cx="39.393" cy="39.393" r="39.393" transform="translate(0.761 1.735)"/><path class="b" d="M40.155,81.752A40.623,40.623,0,1,1,80.778,41.129,40.67,40.67,0,0,1,40.155,81.752Zm0-78.785A38.161,38.161,0,1,0,78.316,41.129,38.2,38.2,0,0,0,40.155,2.967Z" transform="translate(0)"/><path class="c" d="M33.318,81.752C20.131,81.752,9.4,63.528,9.4,41.129S20.131.505,33.318.505,57.232,18.729,57.232,41.129,46.5,81.752,33.318,81.752Zm0-78.785c-11.829,0-21.453,17.119-21.453,38.161S21.488,79.29,33.318,79.29,54.77,62.171,54.77,41.129,45.146,2.967,33.318,2.967Z" transform="translate(6.837)"/><rect class="c" width="2.463" height="78.784" transform="translate(38.923 1.737)"/><path class="c" d="M40.155,58.206c-22.4,0-40.623-10.728-40.623-23.914S17.755,10.377,40.155,10.377,80.778,21.1,80.778,34.292,62.554,58.206,40.155,58.206Zm0-45.367c-21.043,0-38.161,9.624-38.161,21.453S19.112,55.744,40.155,55.744,78.316,46.12,78.316,34.291,61.2,12.839,40.155,12.839Z" transform="translate(0 6.837)"/><rect class="c" width="78.784" height="2.463" transform="translate(0.763 39.898)"/><circle class="c" cx="5.895" cy="5.895" r="5.895" transform="translate(14.536 14.459)"/><circle class="c" cx="5.895" cy="5.895" r="5.895" transform="translate(54.034 16.212)"/><circle class="c" cx="5.895" cy="5.895" r="5.895" transform="translate(14.536 54.253)"/><circle class="d" cx="22.182" cy="22.182" r="22.182" transform="translate(41.386 39.063)"/><g transform="translate(53.205 52.075)"><path class="c" d="M31.242,30.972h3.094V49.312H31.242Zm20.528,1.6a6.073,6.073,0,0,1,1.916,4.934,5.845,5.845,0,0,1-1.956,4.879q-1.956,1.548-6,1.547H42.481v5.379H39.386V30.972h6.3Q49.856,30.972,51.77,32.572Zm-2.192,7.57a4.049,4.049,0,0,0,.934-2.887,3,3,0,0,0-1.181-2.689,6.82,6.82,0,0,0-3.7-.787H42.481v7.346h3.6Q48.647,41.126,49.578,40.142Z" transform="translate(-31.242 -30.972)"/></g></g></g></svg>