<svg xmlns="http://www.w3.org/2000/svg" width="112" height="112" viewBox="0 0 112 112"><defs><style>.a,.e{fill:none;}.b{fill:#786aff;}.c{fill:#fff;}.d{fill:#fa9797;}.e{stroke:#707070;}.f{fill:#c8c5cc;}.g{fill:#fdd8ae;}.h{fill:#57565c;}.i{fill:#3c3b41;}.j{fill:#787681;}.k{fill:#fbbf7d;}.l{fill:#8b8893;}</style></defs><g transform="translate(-254 -1971)"><g transform="translate(0 -3)"><rect class="a" width="112" height="112" rx="10" transform="translate(254 1974)"/><g transform="translate(268.994 1985.546)"><path class="b" d="M56.7,7.427V15.3a3.036,3.036,0,0,1-3.027,3.027H43.686l-3.935,3.935a.874.874,0,0,1-1.513-.605v-3.33H37.027A3.036,3.036,0,0,1,34,15.3V7.427A3.036,3.036,0,0,1,37.027,4.4H53.675A3.036,3.036,0,0,1,56.7,7.427Z" transform="translate(30.449)"/><circle class="c" cx="1.967" cy="1.967" r="1.967" transform="translate(68.081 9.394)"/><circle class="c" cx="1.967" cy="1.967" r="1.967" transform="translate(73.833 9.394)"/><circle class="c" cx="1.967" cy="1.967" r="1.967" transform="translate(79.735 9.394)"/></g><circle class="d" cx="14.228" cy="14.228" r="14.228" transform="translate(263.855 2017.249)"/><g transform="translate(282.172 1994.19)"><circle cx="2.195" cy="2.195" r="2.195" transform="translate(37.422 24.286)"/><path class="e" d="M64.622,249.735V226.166a9.426,9.426,0,0,0-5.64-8.631l-12.753-5.592a7.372,7.372,0,0,1-4.411-6.752v-.4H30.17v.439a7.369,7.369,0,0,1-4.407,6.747L13.115,217.53a9.429,9.429,0,0,0-5.635,8.632v23.573" transform="translate(0 -174.829)"/><path class="b" d="M181.325,291.68l2.282,26.935-3.688,4.2-3.919-4.2,2.513-26.935" transform="translate(-143.865 -249.007)"/><path class="f" d="M210.045,259.508l4.636-8.42-2.78-1.328-9.122,6.313,4.12,3.671a2.195,2.195,0,0,0,3.145-.236Z" transform="translate(-166.728 -213.22)"/><path class="f" d="M126.056,259.508l-4.636-8.42,2.78-1.328,9.123,6.313-4.123,3.671a2.195,2.195,0,0,1-3.144-.236Z" transform="translate(-97.271 -213.22)"/><path class="g" d="M158.671,211.352l-9.119,6.313h0l-9.122-6.313a6.658,6.658,0,0,0,2.424-2.609,7.155,7.155,0,0,0,.644-1.817,8.25,8.25,0,0,0,.176-1.718v-.439h11.648v.4a7.365,7.365,0,0,0,3.353,6.18Z" transform="translate(-113.499 -174.812)"/><path class="h" d="M117.28,22.2c0-6.908,5.6-14.7,12.509-14.7h0A12.509,12.509,0,0,1,142.3,20.009v3Z" transform="translate(-93.736 -6.403)"/><path class="i" d="M190.956,7.5h0a9.338,9.338,0,0,0-2.026.219,12.51,12.51,0,0,1,10.146,12.289v2.859l4.389.146V20.009A12.509,12.509,0,0,0,190.956,7.5Z" transform="translate(-154.904 -6.403)"/><path class="j" d="M135.895,17.7a1.1,1.1,0,0,1-1.1-1.1v-3a11.411,11.411,0,1,0-22.823,0,1.1,1.1,0,1,1-2.195,0,13.606,13.606,0,1,1,27.212,0v3a1.1,1.1,0,0,1-1.1,1.1Z" transform="translate(-87.333)"/><path class="k" d="M173.419,206.984a9.375,9.375,0,0,1-12.049-.057,8.25,8.25,0,0,0,.176-1.718v-.439h11.648v.4A7.378,7.378,0,0,0,173.419,206.984Z" transform="translate(-131.376 -174.812)"/><path class="g" d="M157.353,66.757a9.375,9.375,0,1,1-18.75,0V60.715a5.036,5.036,0,0,1,1.09-3.95c1.526-1.618,3.769-.846,6.867-2.048a11.932,11.932,0,0,0,4.5-3.186,5.356,5.356,0,0,0,1.728,3.546c1.241,1.005,2.433.693,3.472,1.7.614.585,1.23,1.7,1.091,3.95Z" transform="translate(-111.925 -43.991)"/><path class="k" d="M204.626,56.682c-1.039-1-2.231-.691-3.472-1.7a5.4,5.4,0,0,1-1.728-3.546,12.941,12.941,0,0,1-1.788,1.655,4.426,4.426,0,0,0,1.317,1.892c1.241,1.005,2.433.693,3.472,1.7.614.585,1.23,1.7,1.091,3.95v6.042a9.373,9.373,0,0,1-8.278,9.309,9.363,9.363,0,0,0,10.472-9.309V60.632C205.856,58.38,205.24,57.274,204.626,56.682Z" transform="translate(-160.291 -43.914)"/><path class="l" d="M267.445,90.5h2.926a2.195,2.195,0,0,1,2.195,2.195v5.267a2.195,2.195,0,0,1-2.195,2.195h-2.926a.585.585,0,0,1-.585-.585V91.085A.585.585,0,0,1,267.445,90.5Z" transform="translate(-221.433 -77.26)"/><path class="j" d="M278.055,90.5H275.86a2.195,2.195,0,0,1,2.195,2.195v5.267a2.195,2.195,0,0,1-2.195,2.195h2.195a2.194,2.194,0,0,0,2.194-2.195V92.695A2.195,2.195,0,0,0,278.055,90.5Z" transform="translate(-229.116 -77.26)"/><path class="l" d="M.585,0H3.511A2.195,2.195,0,0,1,5.706,2.195V7.461A2.195,2.195,0,0,1,3.511,9.656H.585A.585.585,0,0,1,0,9.071V.585A.585.585,0,0,1,.585,0Z" transform="translate(26.676 22.896) rotate(180)"/><path class="j" d="M121.894,90.5H119.7a.585.585,0,0,1,.585.585v8.485a.585.585,0,0,1-.585.585h2.195a.585.585,0,0,0,.585-.585V91.085A.585.585,0,0,0,121.894,90.5Z" transform="translate(-95.802 -77.26)"/></g><path class="c" d="M5.484,27.353c.192-.192.192-.385.192-.769s0-.385-.192-.577-.192-.192-.577-.192-.769.385-1.154.961L2.6,26.007c.385-.577.577-.961.961-1.154A2.978,2.978,0,0,1,5.1,24.469a1.893,1.893,0,0,1,1.538.577,2.183,2.183,0,0,1,.577,1.538,1.441,1.441,0,0,1-.192.961c-.192.192-.577.769-.961,1.154L4.907,30.045H7.6v1.346h-5V30.237l1.923-2.115A2.081,2.081,0,0,0,5.484,27.353Zm5.576,1.154V27.353H12.6v1.154h.769v1.346H12.6v1.538H11.06V29.853H8.368V28.7l2.5-4.038H12.6l-2.307,3.845ZM17.982,23.7h1.346L15.29,32.544H13.944ZM20.1,26.969V24.854h5v1.154L22.4,31.583h-1.73l2.692-5.576h-1.73v.961Z" transform="translate(264.331 2003.354)"/></g></g></svg>