<svg xmlns="http://www.w3.org/2000/svg" width="112" height="112" viewBox="0 0 112 112"><defs><style>.a{fill:none;}.b{fill:#ff13dc;opacity:0;}.c{fill:#786aff;}.d{fill:#fa9797;}</style></defs><g transform="translate(-254 -1974)"><rect class="a" width="112" height="112" rx="10" transform="translate(254 1974)"/><g transform="translate(263.148 1986.149)"><rect class="b" width="90" height="90" transform="translate(-1.149 -1.149)"/><path class="c" d="M36.152,1H11.468A2.468,2.468,0,0,0,9,3.468V15.81h9.873a4.937,4.937,0,0,1,4.937,4.937V30.62H36.152a2.468,2.468,0,0,0,2.468-2.468V3.468A2.468,2.468,0,0,0,36.152,1Z" transform="translate(35.724 4.231)"/><rect class="c" width="28" height="30" rx="0.5" transform="translate(5.851 44.851)"/><path class="c" d="M19.81,24.747v8.619A30.486,30.486,0,0,1,34.62,19.215V7.468A2.468,2.468,0,0,0,32.152,5H7.468A2.468,2.468,0,0,0,5,7.468V19.81h9.873A4.937,4.937,0,0,1,19.81,24.747Z" transform="translate(19.977 19.977)"/><path class="d" d="M31.068,9.1A21.968,21.968,0,1,0,53.036,31.068,21.968,21.968,0,0,0,31.068,9.1ZM43.41,32.3a1.234,1.234,0,0,1-1.234,1.234H33.536v8.639A1.234,1.234,0,0,1,32.3,43.41H29.834A1.234,1.234,0,0,1,28.6,42.176V33.536H19.961A1.234,1.234,0,0,1,18.726,32.3V29.834A1.234,1.234,0,0,1,19.961,28.6H28.6V19.961a1.234,1.234,0,0,1,1.234-1.234H32.3a1.234,1.234,0,0,1,1.234,1.234V28.6h8.639a1.234,1.234,0,0,1,1.234,1.234Z" transform="translate(36.118 36.118)"/></g></g></svg>