<svg xmlns="http://www.w3.org/2000/svg" width="112" height="112" viewBox="0 0 112 112"><defs><style>.a{fill:none;}.b{fill:#786aff;}.c{fill:#fa9797;}</style></defs><g transform="translate(-255 -1973)"><rect class="a" width="112" height="112" rx="10" transform="translate(255 1973)"/><g transform="translate(272.362 1990.362)"><path class="b" d="M11.728,37.292V9.728H58.093V37.292l7.728-4.416V2H4V32.875Z" transform="translate(3.728 -2)"/><path class="b" d="M53.257,26.02H28.019L2,11.152V45.339a7.728,7.728,0,0,0,7.728,7.728h61.82a7.728,7.728,0,0,0,7.728-7.728V11.152Z" transform="translate(-2 24.209)"/><g transform="translate(23.451 13.951)"><path class="a" d="M0,0H30.241V30.241H0Z" transform="translate(0.066 -0.434)"/></g><g transform="translate(19.255 15.446)"><path class="c" d="M27.573,0c-3.69,0-6.547,2.613-9.191,5.636C15.738,2.613,12.881,0,9.191,0a9.191,9.191,0,0,0,0,18.382c3.69,0,6.547-2.613,9.191-5.636,2.644,3.023,5.5,5.636,9.191,5.636A9.191,9.191,0,0,0,27.573,0ZM9.191,13.787a4.6,4.6,0,0,1,0-9.191c1.979,0,4.1,2.15,6.189,4.6C13.289,11.637,11.17,13.787,9.191,13.787Zm18.382,0c-1.979,0-4.1-2.15-6.189-4.6,2.092-2.446,4.21-4.6,6.189-4.6a4.6,4.6,0,0,1,0,9.191Z"/></g></g></g></svg>