<svg xmlns="http://www.w3.org/2000/svg" width="112" height="112" viewBox="0 0 112 112"><defs><style>.a{fill:none;}.b{fill:#786aff;}.c{fill:#fff;}.d,.e{fill:#fa9797;}.e{opacity:0;}</style></defs><g transform="translate(-254 -1974)"><rect class="a" width="112" height="112" rx="10" transform="translate(254 1974)"/><g transform="translate(267.907 1989.701)"><path class="b" d="M83.925,52.8l-3.683-2.776v-.934a2.92,2.92,0,0,0-2.631-2.881V42.971a35.057,35.057,0,0,0-7.156-21.337L70.3,21.4a1.484,1.484,0,0,1,.066-.526,3.657,3.657,0,0,0-.934-2.631c-.408-.434-.829-.868-1.315-1.315a36.832,36.832,0,0,0-53.328,1.315,3.7,3.7,0,0,0-.868,3.17l-.171.237A35.175,35.175,0,0,0,6.577,42.971v3.236a2.92,2.92,0,0,0-2.631,2.881v.934L.263,52.8A.684.684,0,0,0,0,53.311V67.018a.618.618,0,0,0,.263.513l3.683,2.776v.934a2.933,2.933,0,0,0,2.92,2.92h5.262a2.92,2.92,0,0,0,2.907-2.92V49.088a2.894,2.894,0,0,0-2.907-2.894h-.881V42.971a30.479,30.479,0,0,1,6.222-18.535v-.066h0a3.67,3.67,0,0,0,2.71-1.21,29.558,29.558,0,0,1,42.713-1.039l.987,1.039a3.631,3.631,0,0,0,2.539,1.2.986.986,0,0,0,.2,0v.066a30.545,30.545,0,0,1,6.209,18.548v3.223h-.868a2.894,2.894,0,0,0-2.907,2.894V71.24a2.92,2.92,0,0,0,2.907,2.92h5.262a2.933,2.933,0,0,0,3.026-2.92v-.934l3.67-2.776a.592.592,0,0,0,.263-.513V53.311a.645.645,0,0,0-.25-.513ZM3.946,68.688l-2.631-2V53.639l2.631-2Zm8.182-21.2a1.618,1.618,0,0,1,1.618,1.6V71.24a1.618,1.618,0,0,1-1.618,1.618H6.867a1.618,1.618,0,0,1-1.6-1.618V49.088a1.618,1.618,0,0,1,1.618-1.6h5.262ZM9.945,42.971v3.223H7.893V42.971A33.82,33.82,0,0,1,14.47,22.805,3.775,3.775,0,0,0,15,23.41a3.946,3.946,0,0,0,1.079.671A31.781,31.781,0,0,0,9.945,42.971Zm56.6-19.916a2.3,2.3,0,0,1-1.644-.763c-.342-.368-.684-.737-1.039-1.079A30.584,30.584,0,0,0,42.094,12.2a30.952,30.952,0,0,0-22.81,10.089,2.46,2.46,0,0,1-3.354.158,2.381,2.381,0,0,1-.145-3.341A35.714,35.714,0,0,1,42.094,7.454,35.28,35.28,0,0,1,67.219,17.794a14.638,14.638,0,0,1,1.21,1.315,2.368,2.368,0,0,1-.171,3.354A2.276,2.276,0,0,1,66.548,23.055Zm1.513,1.013a3.433,3.433,0,0,0,1.066-.658,3.775,3.775,0,0,0,.526-.605A33.754,33.754,0,0,1,76.23,42.971v3.223H74.244V42.971A31.926,31.926,0,0,0,68.061,24.068ZM78.927,71.24a1.618,1.618,0,0,1-1.618,1.618H72.047a1.618,1.618,0,0,1-1.618-1.618V49.088a1.618,1.618,0,0,1,1.618-1.6h5.262a1.618,1.618,0,0,1,1.618,1.6Zm3.946-4.551-2.631,2v-17.1l2.631,2Z" transform="translate(0 0)"/><path class="b" d="M3.637,40.73V57.778l-2.657-2V42.729Z" transform="translate(0.309 10.91)"/><path class="b" d="M63.654,42.729V55.779l-2.644,2V40.73Z" transform="translate(19.245 10.91)"/><path class="c" d="M63.654,42.729V55.779l-2.644,2v-.96l1.315-1.039V42.729L61.01,41.69v-.96Z" transform="translate(19.245 10.91)"/><path class="b" d="M62.038,39.175V61.327a1.618,1.618,0,0,1-1.618,1.618H55.158a1.618,1.618,0,0,1-1.618-1.618V39.175a1.618,1.618,0,0,1,1.618-1.6H60.42a1.618,1.618,0,0,1,1.618,1.6Z" transform="translate(16.889 9.913)"/><path class="c" d="M2.309,42.729V55.779l1.329,1.039v.96l-2.657-2V42.729l2.657-2v.96Z" transform="translate(0.309 10.91)"/><path class="b" d="M12.485,39.175V61.327a1.618,1.618,0,0,1-1.618,1.618H5.6A1.618,1.618,0,0,1,4,61.327V39.175a1.618,1.618,0,0,1,1.618-1.6H10.88A1.618,1.618,0,0,1,12.485,39.175Z" transform="translate(1.262 9.913)"/><path class="b" d="M11.094,39.175V61.327a1.618,1.618,0,0,1-1.618,1.618H8.41c.526,0,.96-.723.96-1.618V39.175c0-.881-.434-1.6-.96-1.6H9.476a1.618,1.618,0,0,1,1.618,1.6Z" transform="translate(2.653 9.913)"/><path class="b" d="M6.631,72.544H5.6A1.618,1.618,0,0,1,4,70.926V48.774a1.618,1.618,0,0,1,1.618-1.6H6.631c-.539,0-.973.723-.973,1.6V70.926C5.7,71.821,6.131,72.544,6.631,72.544ZM67,22.136a2.276,2.276,0,0,1-1.71.605,2.3,2.3,0,0,1-1.644-.763c-.342-.368-.684-.737-1.039-1.079a30.584,30.584,0,0,0-21.771-9.011,30.952,30.952,0,0,0-22.81,10.089,2.46,2.46,0,0,1-3.354.158,2.381,2.381,0,0,1-.145-3.341A35.714,35.714,0,0,1,40.832,7.14,35.28,35.28,0,0,1,65.957,17.48a14.638,14.638,0,0,1,1.21,1.315A2.368,2.368,0,0,1,67,22.136Z" transform="translate(1.262 0.314)"/><path class="b" d="M64.923,21.794a2.342,2.342,0,0,0-.592-1.789c-.368-.434-.776-.842-1.171-1.315a34.53,34.53,0,0,0-50.566,1.315,2.328,2.328,0,0,0-.592,1.8,2.381,2.381,0,0,1,.145-3.012A35.714,35.714,0,0,1,38.456,7.14,35.28,35.28,0,0,1,63.581,17.48a14.639,14.639,0,0,1,1.21,1.315,2.368,2.368,0,0,1,.132,3Z" transform="translate(3.638 0.314)"/><path class="b" d="M64.813,21.505a1.815,1.815,0,0,1-.3.342,1.934,1.934,0,0,1-.487.342c-.316-.368-.645-.723-.973-1.066a33.751,33.751,0,0,0-50.368,1.092,2.407,2.407,0,0,1-.5-.342,2.249,2.249,0,0,1-.289-.329,2.328,2.328,0,0,1,.592-1.8,34.53,34.53,0,0,1,50.566-1.315,12.791,12.791,0,0,1,1.171,1.315,2.342,2.342,0,0,1,.592,1.763Z" transform="translate(3.748 0.603)"/><path class="b" d="M14.248,20.086a31.781,31.781,0,0,0-6.2,18.89V42.2H6V38.976A33.82,33.82,0,0,1,12.577,18.81a3.775,3.775,0,0,0,.526.605,3.946,3.946,0,0,0,1.144.671ZM74.4,38.976V42.2H72.351V38.976a31.926,31.926,0,0,0-6.183-18.9,3.433,3.433,0,0,0,1.066-.658,3.776,3.776,0,0,0,.526-.605A33.754,33.754,0,0,1,74.4,38.976Z" transform="translate(1.893 3.995)"/><path class="d" d="M57.552,38.467H56.328a4.262,4.262,0,0,1-2.947-7.143l.855-.855a.658.658,0,0,0,0-.921l-4.5-4.5a.658.658,0,0,0-.921,0l-.737.737a4.2,4.2,0,0,1-4.67.895A4.144,4.144,0,0,1,40.78,22.8V21.735a.658.658,0,0,0-.658-.645H33.808a.631.631,0,0,0-.645.645v1.223a3.946,3.946,0,0,1-2.46,3.657l-.2.092a4.2,4.2,0,0,1-4.617-.921l-.75-.737a.645.645,0,0,0-.908,0l-4.486,4.5a.605.605,0,0,0-.2.447.645.645,0,0,0,.2.474l.855.855a4.262,4.262,0,0,1-2.973,7.143h-1.21a.658.658,0,0,0-.658.658v6.354a.645.645,0,0,0,.658.645h1.21A4.275,4.275,0,0,1,20.6,53.279l-.855.855a.631.631,0,0,0,0,.921l4.486,4.486a.618.618,0,0,0,.908,0l.868-.855a4.275,4.275,0,0,1,7.169,2.96v1.21a.645.645,0,0,0,.645.658h6.354a.658.658,0,0,0,.658-.658v-1.21a4.262,4.262,0,0,1,7.143-2.96l.855.855a.631.631,0,0,0,.921,0l4.473-4.486a.658.658,0,0,0,0-.921l-.855-.855a4.275,4.275,0,0,1,2.947-7.156h1.223a.631.631,0,0,0,.645-.645V39.125a.645.645,0,0,0-.631-.658Zm-.7,6.367h-.526A5.577,5.577,0,0,0,52.461,54.2l.395.395-3.565,3.578L48.87,57.8a5.577,5.577,0,0,0-9.353,3.946v.566H34.492V61.75A5.577,5.577,0,0,0,25.126,57.8l-.395.408-3.578-3.578.408-.395A5.406,5.406,0,0,0,22.6,48.267a5.341,5.341,0,0,0-4.933-3.394H17.1v-5.1h.566A5.577,5.577,0,0,0,21.614,30.4L21.206,30l3.578-3.565.276.276a5.538,5.538,0,0,0,6.025,1.2l.2-.079a5.262,5.262,0,0,0,3.21-4.867v-.566h5.064V22.8a5.564,5.564,0,0,0,9.484,3.946l.289-.276L52.908,30l-.395.408a5.577,5.577,0,0,0,3.867,9.366h.474Z" transform="translate(4.971 4.715)"/><path class="d" d="M56.019,39.467A5.577,5.577,0,0,1,52.152,30.1l.395-.408-3.565-3.565-.289.276a5.564,5.564,0,0,1-9.484-3.946V22.05H34.183v.566a5.262,5.262,0,0,1-3.262,4.867l-.2.079a5.538,5.538,0,0,1-6.025-1.2l-.276-.276-3.578,3.565.408.408a5.577,5.577,0,0,1-3.946,9.366H16.74v5.064h.566a5.341,5.341,0,0,1,4.933,3.394A5.406,5.406,0,0,1,21.2,53.857l-.408.395L24.37,57.83l.395-.408a5.577,5.577,0,0,1,9.366,3.946v.566h5.064v-.566a5.577,5.577,0,0,1,9.353-3.946l.421.408L52.6,54.292,52.2,53.9a5.577,5.577,0,0,1,3.867-9.366h.474V39.467ZM36.669,54.384A12.392,12.392,0,1,1,49.06,42.005,12.392,12.392,0,0,1,36.669,54.384Z" transform="translate(5.281 5.017)"/><path class="c" d="M34.861,27.8A12.391,12.391,0,1,0,47.253,40.191,12.391,12.391,0,0,0,34.861,27.8Zm0,23.481a11.1,11.1,0,1,1,11.1-11.089,11.1,11.1,0,0,1-11.1,11.089Z" transform="translate(7.088 6.831)"/><path class="b" d="M53.56,39.175V61.327a1.618,1.618,0,0,0,1.618,1.618h1.066c-.526,0-.96-.723-.96-1.618V39.175c0-.881.434-1.6.96-1.6H55.178a1.618,1.618,0,0,0-1.618,1.6Z" transform="translate(16.895 9.913)"/><path class="b" d="M58,62.945h1.066a1.618,1.618,0,0,0,1.565-1.618V39.175a1.618,1.618,0,0,0-1.618-1.6H58c.539,0,.973.723.973,1.6V61.327C58.947,62.221,58.513,62.945,58,62.945Z" transform="translate(18.296 9.913)"/><path class="b" d="M35.221,26.65a13.891,13.891,0,1,0,13.891,13.9,13.891,13.891,0,0,0-13.891-13.9Zm0,26.309a12.362,12.362,0,1,0,0-.026Z" transform="translate(6.728 6.468)"/><path class="b" d="M35.221,26.65a13.891,13.891,0,1,0,13.891,13.9,13.891,13.891,0,0,0-13.891-13.9Zm0,26.309a12.362,12.362,0,1,0,0-.026Z" transform="translate(6.728 6.468)"/></g><g transform="translate(303.009 2029.009)"><rect class="e" width="14" height="14" transform="translate(-0.009 -0.009)"/><path class="d" d="M13.594,2H.388A.373.373,0,0,0,0,2.357v9.269a.373.373,0,0,0,.388.357H13.594a.373.373,0,0,0,.388-.357V2.357A.373.373,0,0,0,13.594,2Zm-.388.713V3.25L6.991,7.612.777,3.25V2.713Zm0,1.434V9.816L9.166,6.982ZM4.816,6.982.777,9.816V4.147ZM.777,11.269v-.556L5.454,7.43l1.065.749a.833.833,0,0,0,.944,0L8.529,7.43l4.677,3.283v.556Z" transform="translate(0)"/></g></g></svg>