<svg width="19" height="18" viewBox="0 0 19 18" fill="none" xmlns="http://www.w3.org/2000/svg">
<path d="M9.26953 1C7.68728 1 6.14057 1.46919 4.82497 2.34824C3.50938 3.22729 2.484 4.47672 1.8785 5.93853C1.273 7.40034 1.11457 9.00887 1.42325 10.5607C1.73193 12.1126 2.49386 13.538 3.61268 14.6569C4.7315 15.7757 6.15696 16.5376 7.70881 16.8463C9.26066 17.155 10.8692 16.9965 12.331 16.391C13.7928 15.7855 15.0422 14.7602 15.9213 13.4446C16.8003 12.129 17.2695 10.5823 17.2695 9C17.2695 6.87827 16.4267 4.84344 14.9264 3.34315C13.4261 1.84285 11.3913 1 9.26953 1ZM9.26953 16C7.88507 16 6.53169 15.5895 5.38054 14.8203C4.2294 14.0511 3.33219 12.9579 2.80238 11.6788C2.27256 10.3997 2.13394 8.99224 2.40404 7.63437C2.67413 6.2765 3.34082 5.02922 4.31979 4.05025C5.29875 3.07128 6.54604 2.4046 7.9039 2.1345C9.26177 1.86441 10.6692 2.00303 11.9483 2.53284C13.2274 3.06266 14.3207 3.95986 15.0898 5.11101C15.859 6.26215 16.2695 7.61553 16.2695 9C16.2695 10.8565 15.532 12.637 14.2193 13.9497C12.9065 15.2625 11.126 16 9.26953 16Z" fill="#6E6E6E"/>
<path d="M10.2695 8.043V3.5C10.2695 3.36739 10.2169 3.24021 10.1231 3.14645C10.0293 3.05268 9.90214 3 9.76953 3H8.76953C8.63692 3 8.50975 3.05268 8.41598 3.14645C8.32221 3.24021 8.26953 3.36739 8.26953 3.5V8.793C8.26956 8.9256 8.32226 9.05275 8.41603 9.1465L11.2195 11.95C11.2659 11.9965 11.321 12.0333 11.3817 12.0585C11.4423 12.0836 11.5073 12.0966 11.573 12.0966C11.6387 12.0967 11.7037 12.0838 11.7644 12.0587C11.825 12.0336 11.8802 11.9968 11.9266 11.9504L11.927 11.95L12.5945 11.282C12.6883 11.1882 12.7409 11.0611 12.7409 10.9285C12.7409 10.7959 12.6883 10.6688 12.5945 10.575L10.416 8.396C10.3224 8.30238 10.2697 8.17542 10.2695 8.043Z" fill="#6E6E6E"/>
</svg>
