<svg xmlns="http://www.w3.org/2000/svg" xmlns:xlink="http://www.w3.org/1999/xlink" width="454.851" height="261.412" viewBox="0 0 454.851 261.412"><defs><style>.a{fill:url(#a);}.b{fill:url(#b);}.ab,.ac,.al,.c,.q,.s{mix-blend-mode:color-dodge;}.ab,.ac,.al,.c,.d,.e,.o,.q,.s,.y{isolation:isolate;}.c{fill:url(#c);}.d{fill:#bcbec0;}.d,.e{mix-blend-mode:multiply;}.f{fill:#d1d3d4;}.g{fill:#603913;}.h{fill:#9d9eb3;}.i{fill:#fff;}.j{fill:url(#d);}.k{fill:url(#e);}.l{fill:#20c58b;}.m{fill:url(#f);}.n{fill:url(#g);}.o,.y{mix-blend-mode:screen;}.o{fill:url(#h);}.p{fill:#0dee9f;}.q{fill:url(#i);}.r{fill:url(#k);}.s{fill:url(#l);}.t{fill:url(#m);}.u{fill:url(#n);}.v{fill:url(#o);}.w{fill:url(#p);}.x{fill:url(#q);}.y{fill:url(#r);}.z{fill:url(#s);}.aa{fill:url(#t);}.ab{fill:url(#u);}.ac{fill:url(#x);}.ad{fill:#fefeff;}.ae{fill:url(#y);}.af{fill:url(#z);}.ag{fill:url(#aa);}.ah{fill:url(#ab);}.ai{fill:url(#ac);}.aj{fill:url(#ae);}.ak{fill:url(#af);}.al{fill:url(#ag);}</style><linearGradient id="a" x1="0.27" y1="0.554" x2="1.823" y2="0.19" gradientUnits="objectBoundingBox"><stop offset="0.035" stop-color="#ffa98c"/><stop offset="0.317" stop-color="#feb892"/><stop offset="0.86" stop-color="#fee0a3"/><stop offset="1" stop-color="#feeca8"/></linearGradient><linearGradient id="b" x1="-0.887" y1="0.743" x2="1.948" y2="0.246" gradientUnits="objectBoundingBox"><stop offset="0" stop-color="#51433e"/><stop offset="0.035" stop-color="#ffa98c"/><stop offset="0.317" stop-color="#feb892"/><stop offset="0.86" stop-color="#fee0a3"/><stop offset="1" stop-color="#feeca8"/></linearGradient><radialGradient id="c" cx="0.5" cy="0.5" r="0.419" gradientTransform="translate(-0.285) scale(1.57 1)" gradientUnits="objectBoundingBox"><stop offset="0" stop-color="#fff"/><stop offset="0.066" stop-color="#d8d8d8"/><stop offset="0.162" stop-color="#a5a5a5"/><stop offset="0.262" stop-color="#797979"/><stop offset="0.366" stop-color="#545454"/><stop offset="0.473" stop-color="#353535"/><stop offset="0.585" stop-color="#1d1d1d"/><stop offset="0.704" stop-color="#0d0d0d"/><stop offset="0.835" stop-color="#030303"/><stop offset="1"/></radialGradient><radialGradient id="d" cx="-0.019" cy="1.711" r="10.189" gradientTransform="translate(0.28) scale(0.439 1)" gradientUnits="objectBoundingBox"><stop offset="0" stop-color="#eeebf2"/><stop offset="0.581" stop-color="#d4d1d8"/><stop offset="0.939" stop-color="#a5a5b8"/><stop offset="1" stop-color="#9d9eb3"/></radialGradient><radialGradient id="e" cx="0.888" cy="0.124" r="1.074" gradientTransform="translate(-0.352) scale(1.703 1)" gradientUnits="objectBoundingBox"><stop offset="0" stop-color="#20c58b"/><stop offset="1" stop-color="#0dee9f"/></radialGradient><radialGradient id="f" cx="0.884" cy="0.841" r="3.974" gradientTransform="translate(0.262) scale(0.477 1)" gradientUnits="objectBoundingBox"><stop offset="0" stop-color="#0dee9f"/><stop offset="1" stop-color="#138bbd"/></radialGradient><radialGradient id="g" cx="-0.116" cy="0.841" r="3.972" xlink:href="#f"/><linearGradient id="h" x1="0.153" y1="-0.414" x2="0.622" y2="0.82" gradientUnits="objectBoundingBox"><stop offset="0" stop-color="#fff"/><stop offset="1"/></linearGradient><radialGradient id="i" cx="0.756" cy="0.449" r="0.424" gradientTransform="translate(338.185) scale(1.514 1)" xlink:href="#c"/><linearGradient id="k" x1="-0.887" y1="0.743" x2="1.948" y2="0.246" xlink:href="#a"/><radialGradient id="l" cx="0.5" cy="0.5" r="0.419" xlink:href="#c"/><radialGradient id="m" cx="-0.085" cy="1.745" r="10.863" xlink:href="#d"/><radialGradient id="n" cx="0.888" cy="0.124" r="1.074" gradientTransform="translate(-0.352) scale(1.703 1)" gradientUnits="objectBoundingBox"><stop offset="0" stop-color="#a56ef4"/><stop offset="1" stop-color="#6b24d6"/></radialGradient><radialGradient id="o" cx="-0.112" cy="0.124" r="1.074" xlink:href="#n"/><radialGradient id="p" cx="0.884" cy="0.841" r="3.973" gradientTransform="translate(0.262) scale(0.477 1)" xlink:href="#n"/><radialGradient id="q" cx="-0.116" cy="0.841" r="3.971" gradientTransform="translate(0.262) scale(0.477 1)" xlink:href="#n"/><linearGradient id="r" x1="0.153" y1="-0.414" x2="0.622" y2="0.82" xlink:href="#h"/><linearGradient id="s" x1="-529.555" y1="0.885" x2="-530.381" y2="0.03" gradientUnits="objectBoundingBox"><stop offset="0.035" stop-color="#6b24d6"/><stop offset="0.195" stop-color="#7733dc"/><stop offset="0.504" stop-color="#965bec"/><stop offset="0.631" stop-color="#a56ef4"/><stop offset="0.874" stop-color="#6b24d6"/></linearGradient><linearGradient id="t" x1="-555.825" y1="0.742" x2="-552.993" y2="0.248" gradientUnits="objectBoundingBox"><stop offset="0.035" stop-color="#6b24d6"/><stop offset="0.294" stop-color="#7733dc"/><stop offset="0.794" stop-color="#965bec"/><stop offset="1" stop-color="#a56ef4"/></linearGradient><radialGradient id="u" cx="0.756" cy="0.449" r="0.424" gradientTransform="translate(338.164) scale(1.514 1)" xlink:href="#c"/><radialGradient id="x" cx="0.5" cy="0.5" r="0.419" xlink:href="#c"/><radialGradient id="y" cx="0.006" cy="1.814" r="10.225" xlink:href="#d"/><radialGradient id="z" cx="0.888" cy="0.124" r="1.074" gradientTransform="translate(-0.352) scale(1.703 1)" gradientUnits="objectBoundingBox"><stop offset="0" stop-color="#ff63ce"/><stop offset="1" stop-color="#9f19ab"/></radialGradient><radialGradient id="aa" cx="-0.112" cy="0.124" r="1.074" xlink:href="#z"/><radialGradient id="ab" cx="0.884" cy="0.841" r="3.974" gradientTransform="translate(0.262) scale(0.477 1)" xlink:href="#z"/><radialGradient id="ac" cx="-0.116" cy="0.841" r="3.972" gradientTransform="translate(0.262) scale(0.477 1)" xlink:href="#z"/><linearGradient id="ae" x1="-529.585" y1="0.885" x2="-530.411" y2="0.03" gradientUnits="objectBoundingBox"><stop offset="0.035" stop-color="#9f19ab"/><stop offset="0.164" stop-color="#ae24b0"/><stop offset="0.412" stop-color="#d643bf"/><stop offset="0.631" stop-color="#ff63ce"/><stop offset="0.874" stop-color="#dc48c1"/></linearGradient><linearGradient id="af" x1="-682.951" y1="0.72" x2="-679.472" y2="0.27" gradientUnits="objectBoundingBox"><stop offset="0.035" stop-color="#9f19ab"/><stop offset="0.244" stop-color="#ae24b0"/><stop offset="0.645" stop-color="#d643bf"/><stop offset="1" stop-color="#ff63ce"/></linearGradient><radialGradient id="ag" cx="0.756" cy="0.449" r="0.424" gradientTransform="translate(338.453) scale(1.514 1)" xlink:href="#c"/></defs><g transform="translate(0 85.087)"><path class="a" d="M538.256,269.271l-24.679-25.664c-1.513-1.576-3.236-1.73-3.847-.345l-5.873,13.323c-.61,1.385.121,3.785,1.636,5.359l24.676,25.667c1.515,1.574,3.236,1.728,3.849.342l5.873-13.323C540.5,273.245,539.769,270.846,538.256,269.271Z" transform="translate(-478.832 -164.243)"/><path class="b" d="M537.928,269.379l-24.676-25.664c-1.515-1.574-3.239-1.728-3.849-.345l-5.873,13.323c-.61,1.385.121,3.785,1.636,5.359l24.676,25.667c1.515,1.574,3.236,1.728,3.849.345l5.873-13.325C540.174,273.356,539.441,270.956,537.928,269.379Z" transform="translate(-479.224 -164.111)"/><path class="c" d="M534.225,269.376l-24.677-25.664c-1.109-1.155-2.327-1.537-3.14-1.118a3.689,3.689,0,0,1,2.341,1.278l24.676,25.664c1.515,1.576,2.248,3.974,1.636,5.359l-5.873,13.323a1.517,1.517,0,0,1-.707.775,1.48,1.48,0,0,0,1.508-.933l5.873-13.325C536.473,273.352,535.74,270.952,534.225,269.376Z" transform="translate(-475.523 -164.108)"/><path class="d" d="M507.016,242.474l-.057-.013,8.372,27.425,19.688,1.759-.029-.077L516.161,268Z" transform="translate(-474.866 -164.069)"/><g class="e" transform="translate(24.584 95.425)"><path class="f" d="M513.311,255.179l6.547,18.281.057.013-5.557-18.2Z" transform="translate(-491.856 -244.289)"/><path class="f" d="M516.605,251.387l-13.066-1.168.029.077,13.483,2.551Z" transform="translate(-503.539 -250.219)"/></g><path class="g" d="M508.454,246.932a2.541,2.541,0,0,1-1.664-1.844c-.246-.913.1-1.57.771-1.464a2.541,2.541,0,0,1,1.664,1.844C509.472,246.381,509.128,247.037,508.454,246.932Z" transform="translate(-475.164 -162.693)"/><g transform="translate(7.101 44.744)"><path class="h" d="M521.546,265.691a.549.549,0,0,1-.454-.242l-25.515-37.7.909-.613,25.061,37.027L546.6,227.136l.909.613L522,265.449A.549.549,0,0,1,521.546,265.691Z" transform="translate(-495.576 -227.136)"/></g><g transform="translate(20.105 44.878)"><path class="h" d="M514.464,265.618a.549.549,0,0,1-.521-.378L501.5,227.54l1.043-.342,11.922,36.12,11.922-36.12,1.043.342-12.442,37.7A.552.552,0,0,1,514.464,265.618Z" transform="translate(-501.499 -227.197)"/></g><path class="i" d="M558.263,237.831a24.972,24.972,0,0,0-.354-4.15,41.367,41.367,0,0,0-.784-4.628,33.906,33.906,0,0,0-5.871-11.992c-9.676-10.881-25.952-7.643-25.952-7.643s-16.27-3.238-25.946,7.636a33.885,33.885,0,0,0-5.882,12.014,40.856,40.856,0,0,0-.779,4.62,24.9,24.9,0,0,0-.353,4.143c0,3.763.821,7.759,6.093,10.093,5.972,4.437,15.778,7.336,26.868,7.336s20.893-2.9,26.865-7.336C557.189,245.97,558.263,241.618,558.263,237.831Z" transform="translate(-492.342 -204.115)"/><path class="i" d="M502.584,254.109c4.473,3.934,16.408,4.123,20.946,0-.145-24.924-4.776-44.937-10.473-44.937S502.729,229.185,502.584,254.109Z" transform="translate(-480.097 -203.87)"/><path class="j" d="M516.68,207.332a31.978,31.978,0,0,0-12.076,0,39.56,39.56,0,0,1,6.038,4.727A39.575,39.575,0,0,1,516.68,207.332Z" transform="translate(-477.681 -206.757)"/><g transform="translate(6.106 0.575)"><path class="k" d="M521.978,209.172c-14.577,0-26.433,17.139-26.855,38.511.018,6.194,11.953,8.657,16.381,6.427C511.649,229.185,516.28,209.172,521.978,209.172Z" transform="translate(-495.123 -204.445)"/><path class="l" d="M507.354,209.172c5.7,0,10.328,20.013,10.473,44.937,3.8,2.231,15.918-.233,16.382-6.427C533.787,226.311,521.931,209.172,507.354,209.172Z" transform="translate(-480.499 -204.445)"/><path class="m" d="M495.537,219.382c9.676-10.875,25.946-7.636,25.946-7.636a39.576,39.576,0,0,0-6.038-4.727A32.81,32.81,0,0,0,495.537,219.382Z" transform="translate(-494.628 -207.019)"/><path class="n" d="M533.306,219.389a32.816,32.816,0,0,0-19.914-12.37,39.58,39.58,0,0,0-6.038,4.727S523.63,208.508,533.306,219.389Z" transform="translate(-480.499 -207.019)"/></g><path class="o" d="M543.017,223.045c0,8.708-10.3,15.769-23.017,15.769s-23.014-7.061-23.014-15.769,10.3-15.771,23.014-15.771S543.017,214.335,543.017,223.045Z" transform="translate(-486.79 -206.139)"/><g transform="translate(46.173 93.875)"><g transform="translate(0 0)"><path class="l" d="M533.453,265.742c0,2.6-.9,4.448-2.358,5.342-.044.026-2.5,1.548-2.54,1.572-1.52.85-.549-1.078-2.857-2.411-4.646-2.681-8.411-9.178-8.411-14.506,0-2.637-2.435-2.659-.944-3.537.042-.026,2.786-1.592,2.828-1.616,1.517-.821,3.588-.67,5.874.65C529.688,253.916,533.453,260.413,533.453,265.742Z" transform="translate(-510.397 -248.835)"/><ellipse class="p" cx="6.846" cy="11.858" rx="6.846" ry="11.858" transform="matrix(0.863, -0.505, 0.505, 0.863, 0, 6.91)"/><path class="q" d="M522.107,251.889c-2.226-1.287-4.251-1.458-5.755-.707a6.622,6.622,0,0,1,5.028.99c4.646,2.681,8.412,9.175,8.412,14.506,0,2.775-1.023,4.685-2.657,5.5,2.053-.573,3.383-2.617,3.383-5.783C530.518,261.067,526.752,254.572,522.107,251.889Z" transform="translate(-509.809 -248.051)"/></g></g><path class="i" d="M518.708,263.762a7.085,7.085,0,0,1-1.223-1.783,4.227,4.227,0,0,1-.433-1.587.194.194,0,0,1,.079-.182.2.2,0,0,1,.2.024l1.223.7a.869.869,0,0,1,.4.538,3.362,3.362,0,0,0,1.756,2.1,1.616,1.616,0,0,0,1.269.305c.307-.108.459-.426.459-.955a2.375,2.375,0,0,0-.417-1.394,3.739,3.739,0,0,0-1.232-1.069l-1.37-.79a.645.645,0,0,1-.226-.239.622.622,0,0,1-.092-.312v-.656c0-.193.057-.314.173-.358l2.367-1.289-3.792-2.189a.675.675,0,0,1-.239-.246.626.626,0,0,1-.092-.314v-1.021a.241.241,0,0,1,.092-.224.236.236,0,0,1,.239.033l5.722,3.3a.693.693,0,0,1,.332.575v.929c0,.176-.057.283-.173.329l-2.288,1.381.161.105a6.925,6.925,0,0,1,2.028,2.057,4.837,4.837,0,0,1,.751,2.617,2.032,2.032,0,0,1-.472,1.484,1.545,1.545,0,0,1-1.3.4,4.8,4.8,0,0,1-1.895-.689A8.294,8.294,0,0,1,518.708,263.762Z" transform="translate(-462.799 -151.707)"/></g><g transform="translate(360.526 91.239)"><path class="a" d="M487.806,339.04l-33.622-34.968c-2.064-2.148-4.412-2.357-5.244-.47l-8,18.152c-.832,1.888.167,5.157,2.229,7.3l33.622,34.971c2.064,2.145,4.413,2.354,5.244.467l8-18.152C490.867,344.454,489.867,341.185,487.806,339.04Z" transform="translate(-406.844 -195.938)"/><path class="r" d="M487.478,339.148,453.856,304.18c-2.064-2.145-4.412-2.357-5.244-.47l-8,18.155c-.832,1.885.167,5.154,2.229,7.3l33.621,34.971c2.064,2.145,4.412,2.354,5.244.47l8-18.156C490.538,344.566,489.539,341.3,487.478,339.148Z" transform="translate(-407.497 -195.72)"/><path class="s" d="M481.315,339.141l-33.622-34.968c-1.514-1.573-3.171-2.094-4.281-1.523a5.025,5.025,0,0,1,3.189,1.741l33.622,34.968c2.064,2.148,3.063,5.418,2.232,7.3l-8.005,18.152a2.079,2.079,0,0,1-.96,1.056,2.015,2.015,0,0,0,2.052-1.271l8-18.156C484.375,344.559,483.376,341.289,481.315,339.141Z" transform="translate(-401.333 -195.713)"/><path class="d" d="M444.022,302.472l-.051-.012,11.383,37.361,26.822,2.4-.039-.1-25.655-4.852Z" transform="translate(-400.22 -195.645)"/><g class="e" transform="translate(33.493 130.017)"><path class="f" d="M450.314,315.176l8.921,24.908.078.018-7.569-24.8Z" transform="translate(-421.081 -300.338)"/><path class="f" d="M458.345,311.8l-17.8-1.589.039.1,18.371,3.476Z" transform="translate(-440.542 -310.216)"/></g><path class="g" d="M446.091,308.132a3.445,3.445,0,0,1-2.268-2.513c-.338-1.245.132-2.139,1.047-2a3.461,3.461,0,0,1,2.267,2.513C447.476,307.381,447.006,308.276,446.091,308.132Z" transform="translate(-400.733 -193.357)"/><g transform="translate(9.672 60.964)"><path class="h" d="M467.963,339.664a.748.748,0,0,1-.619-.329l-34.764-51.367,1.238-.835,34.145,50.449L502.1,287.133l1.239.835-34.761,51.367A.748.748,0,0,1,467.963,339.664Z" transform="translate(-432.579 -287.133)"/></g><g transform="translate(27.39 61.147)"><path class="h" d="M456.167,339.543a.75.75,0,0,1-.709-.512L438.5,287.664l1.421-.47,16.244,49.216,16.247-49.216,1.418.47-16.956,51.367A.747.747,0,0,1,456.167,339.543Z" transform="translate(-438.502 -287.194)"/></g><path class="i" d="M519.16,308.291a33.982,33.982,0,0,0-.482-5.654,57.069,57.069,0,0,0-1.065-6.306,46.2,46.2,0,0,0-8-16.34c-13.184-14.826-35.36-10.414-35.36-10.414s-22.167-4.412-35.351,10.4a46.16,46.16,0,0,0-8.014,16.37,56.261,56.261,0,0,0-1.062,6.294,33.9,33.9,0,0,0-.479,5.645c0,5.128,1.116,10.572,8.3,13.752,8.137,6.046,21.5,9.995,36.607,9.995s28.47-3.946,36.6-9.995C517.7,319.381,519.16,313.452,519.16,308.291Z" transform="translate(-429.346 -262.354)"/><path class="i" d="M439.587,330.4c6.1,5.361,22.355,5.618,28.539,0-.2-33.96-6.507-61.227-14.27-61.227S439.784,296.437,439.587,330.4Z" transform="translate(-408.951 -261.944)"/><path class="t" d="M458.06,267.535a43.728,43.728,0,0,0-16.453,0,54.033,54.033,0,0,1,8.227,6.444A54.03,54.03,0,0,1,458.06,267.535Z" transform="translate(-404.928 -266.754)"/><g transform="translate(8.316 0.781)"><path class="u" d="M468.715,269.169c-19.858,0-36.015,23.352-36.589,52.474.027,8.436,16.286,11.79,22.32,8.753C454.643,296.437,460.955,269.169,468.715,269.169Z" transform="translate(-432.126 -262.725)"/><path class="v" d="M444.357,269.169c7.763,0,14.072,27.268,14.27,61.227,5.172,3.036,21.688-.317,22.32-8.753C480.372,292.521,464.218,269.169,444.357,269.169Z" transform="translate(-407.768 -262.725)"/><path class="w" d="M432.54,283.863c13.184-14.817,35.351-10.4,35.351-10.4a54.051,54.051,0,0,0-8.227-6.444A44.733,44.733,0,0,0,432.54,283.863Z" transform="translate(-431.302 -267.015)"/><path class="x" d="M479.717,283.872a44.721,44.721,0,0,0-27.133-16.857,54.039,54.039,0,0,0-8.227,6.444S466.533,269.046,479.717,283.872Z" transform="translate(-407.768 -267.015)"/></g><path class="y" d="M496.706,288.757c0,11.864-14.039,21.485-31.357,21.485s-31.36-9.621-31.36-21.485,14.039-21.485,31.36-21.485S496.706,276.89,496.706,288.757Z" transform="translate(-420.099 -265.722)"/><g transform="translate(67.656 129.6)"><path class="z" d="M476.837,331.416c0,3.548-1.227,6.061-3.216,7.279-.06.036-3.4,2.109-3.461,2.142-2.07,1.158-.745-1.469-3.892-3.285-6.327-3.653-11.457-12.5-11.457-19.765,0-3.593-3.321-3.623-1.289-4.819.057-.036,3.8-2.169,3.856-2.2,2.064-1.119,4.885-.912,8,.885C471.7,315.307,476.837,324.156,476.837,331.416Z" transform="translate(-450.167 -310.077)"/><path class="aa" d="M474.88,332.165c0,7.26-5.131,10.186-11.461,6.534s-11.458-12.5-11.458-19.768,5.13-10.186,11.458-6.533S474.88,324.9,474.88,332.165Z" transform="translate(-451.962 -308.588)"/><path class="ab" d="M461.2,312.3c-3.033-1.75-5.789-1.986-7.841-.963,1.911-.533,4.284-.135,6.85,1.349,6.33,3.653,11.461,12.5,11.461,19.765,0,3.781-1.391,6.384-3.62,7.5,2.8-.781,4.61-3.566,4.61-7.88C472.656,324.808,467.526,315.959,461.2,312.3Z" transform="translate(-449.188 -308.769)"/></g><path class="i" d="M458.522,327.713a.855.855,0,0,1-.126-.428V316.552l-2.737.835a.328.328,0,0,1-.272-.054.854.854,0,0,1-.344-.407l-.781-1.615a.851.851,0,0,1-.09-.344.27.27,0,0,1,.2-.3l4.06-1.277a.741.741,0,0,1,.455.117l1.63.942a.946.946,0,0,1,.434.751V328.76a.294.294,0,0,1-.125.281.3.3,0,0,1-.308-.03l-1.684-.975A.852.852,0,0,1,458.522,327.713Z" transform="translate(-379.905 -173.886)"/></g><g transform="translate(167.583 0)"><path class="a" d="M423.309,308.541l-33.622-34.968c-2.064-2.148-4.409-2.357-5.241-.47l-8.005,18.156c-.832,1.885.168,5.154,2.229,7.3l33.625,34.971c2.061,2.145,4.409,2.354,5.241.47l8-18.155C426.37,313.955,425.373,310.689,423.309,308.541Z" transform="translate(-342.347 -165.439)"/><path class="r" d="M422.981,308.651,389.359,273.68c-2.064-2.145-4.41-2.354-5.241-.467l-8.005,18.153c-.832,1.888.167,5.157,2.232,7.3l33.622,34.968c2.061,2.148,4.409,2.357,5.241.47l8-18.153C426.042,314.066,425.045,310.8,422.981,308.651Z" transform="translate(-343 -165.22)"/><path class="ac" d="M416.818,308.645,383.2,273.674c-1.514-1.57-3.171-2.094-4.281-1.523a5.018,5.018,0,0,1,3.189,1.741l33.622,34.971c2.064,2.145,3.063,5.415,2.232,7.3l-8,18.153a2.119,2.119,0,0,1-.963,1.056,2.021,2.021,0,0,0,2.052-1.274l8-18.153C419.878,314.059,418.882,310.79,416.818,308.645Z" transform="translate(-336.836 -165.214)"/><path class="d" d="M379.546,271.977l-.081-.018,11.41,37.367,26.822,2.4-.039-.108L392,306.765Z" transform="translate(-335.741 -165.15)"/><g class="e" transform="translate(33.493 130.017)"><path class="f" d="M385.817,284.677l8.921,24.91.078.015-7.569-24.8Z" transform="translate(-356.584 -269.839)"/><path class="f" d="M393.847,281.309l-17.8-1.592.042.1,18.368,3.476Z" transform="translate(-376.045 -279.717)"/></g><path class="g" d="M381.594,277.633a3.451,3.451,0,0,1-2.268-2.513c-.338-1.244.132-2.139,1.05-2a3.459,3.459,0,0,1,2.264,2.513C382.979,276.882,382.509,277.777,381.594,277.633Z" transform="translate(-336.236 -162.858)"/><g transform="translate(9.672 60.964)"><path class="h" d="M403.466,309.168a.748.748,0,0,1-.619-.329l-34.764-51.37,1.239-.835,34.145,50.452,34.145-50.452,1.239.835-34.764,51.37A.748.748,0,0,1,403.466,309.168Z" transform="translate(-368.082 -256.634)"/></g><g transform="translate(27.39 61.147)"><path class="h" d="M391.67,309.047a.748.748,0,0,1-.709-.515l-16.956-51.367,1.418-.47,16.247,49.216L407.917,256.7l1.418.47-16.956,51.367A.745.745,0,0,1,391.67,309.047Z" transform="translate(-374.005 -256.695)"/></g><path class="ad" d="M454.663,277.794a33.647,33.647,0,0,0-.482-5.654,56.455,56.455,0,0,0-1.065-6.309,46.218,46.218,0,0,0-8-16.34c-13.184-14.826-35.363-10.41-35.363-10.41s-22.164-4.413-35.351,10.4a46.174,46.174,0,0,0-8.014,16.373,56.015,56.015,0,0,0-1.059,6.294,33.515,33.515,0,0,0-.482,5.645c0,5.124,1.116,10.572,8.3,13.749,8.137,6.049,21.5,9.995,36.607,9.995s28.47-3.946,36.607-9.992C453.2,288.88,454.663,282.951,454.663,277.794Z" transform="translate(-364.849 -231.853)"/><path class="i" d="M375.09,299.9c6.1,5.361,22.356,5.618,28.542,0-.2-33.96-6.51-61.224-14.273-61.224S375.287,265.936,375.09,299.9Z" transform="translate(-344.454 -231.444)"/><path class="ae" d="M393.561,237.039a43.551,43.551,0,0,0-16.45,0,53.867,53.867,0,0,1,8.224,6.444A54.006,54.006,0,0,1,393.561,237.039Z" transform="translate(-340.429 -236.255)"/><g transform="translate(8.316 0.784)"><path class="af" d="M404.218,238.671c-19.858,0-36.015,23.352-36.589,52.471.027,8.436,16.286,11.793,22.32,8.753C390.146,265.936,396.458,238.671,404.218,238.671Z" transform="translate(-367.629 -232.227)"/><path class="ag" d="M379.86,238.671c7.763,0,14.072,27.265,14.273,61.224,5.169,3.039,21.688-.317,22.317-8.753C415.875,262.023,399.721,238.671,379.86,238.671Z" transform="translate(-343.271 -232.227)"/><path class="ah" d="M368.043,253.362c13.186-14.814,35.351-10.4,35.351-10.4a53.868,53.868,0,0,0-8.224-6.444A44.721,44.721,0,0,0,368.043,253.362Z" transform="translate(-366.805 -236.517)"/><path class="ai" d="M415.223,253.371a44.724,44.724,0,0,0-27.136-16.854,54.015,54.015,0,0,0-8.227,6.444S402.039,238.545,415.223,253.371Z" transform="translate(-343.271 -236.517)"/></g><path class="y" d="M432.207,258.258c0,11.867-14.039,21.485-31.357,21.485s-31.357-9.618-31.357-21.485,14.039-21.485,31.357-21.485S432.207,246.391,432.207,258.258Z" transform="translate(-355.6 -235.223)"/><g transform="translate(62.909 127.905)"><g transform="translate(0 0)"><path class="aj" d="M412.339,300.919c0,3.548-1.223,6.061-3.216,7.275-.06.036-3.4,2.109-3.461,2.145-2.07,1.158-.745-1.472-3.889-3.288-6.33-3.653-11.46-12.5-11.46-19.765,0-3.593-3.321-3.62-1.286-4.819.057-.033,3.793-2.169,3.853-2.2,2.064-1.119,4.888-.912,8,.883C407.209,284.806,412.339,293.655,412.339,300.919Z" transform="translate(-380.923 -277.881)"/><ellipse class="ak" cx="9.328" cy="16.156" rx="9.328" ry="16.156" transform="matrix(0.863, -0.505, 0.505, 0.863, 0, 9.415)"/><path class="al" d="M396.7,281.8c-3.034-1.75-5.789-1.986-7.838-.96,1.908-.536,4.281-.138,6.851,1.346,6.327,3.656,11.457,12.5,11.457,19.768,0,3.781-1.391,6.381-3.62,7.5,2.8-.784,4.61-3.569,4.61-7.883C408.157,294.309,403.027,285.46,396.7,281.8Z" transform="translate(-379.942 -276.575)"/></g></g><path class="i" d="M389.929,295.237a.851.851,0,0,1-.129-.425v-1.083a.651.651,0,0,1,.455-.715l2.827-1.591a17.713,17.713,0,0,0,1.986-.757,2.992,2.992,0,0,0,1.041-.763,1.569,1.569,0,0,0,.344-1.026,3.689,3.689,0,0,0-.455-1.8,3.528,3.528,0,0,0-1.376-1.355q-.906-.52-1.424-.206a1.586,1.586,0,0,0-.643,1.218c-.036.147-.1.227-.21.245a.509.509,0,0,1-.335-.081l-1.631-.942a.807.807,0,0,1-.38-.655,3.414,3.414,0,0,1,.589-1.959,2.012,2.012,0,0,1,1.586-.811,4.511,4.511,0,0,1,2.429.748,9.7,9.7,0,0,1,2.465,2,8.354,8.354,0,0,1,1.523,2.45,6.971,6.971,0,0,1,.508,2.561,3.039,3.039,0,0,1-.682,2.133,4.8,4.8,0,0,1-2.112,1.206l-2.519,1.478,5.13,2.962a.87.87,0,0,1,.326.332.907.907,0,0,1,.129.449v1.5c0,.153-.045.248-.129.29a.344.344,0,0,1-.326-.054l-8.681-5.014A.824.824,0,0,1,389.929,295.237Z" transform="translate(-315.159 -144.114)"/></g></svg>