<svg width="943" height="111" viewBox="0 0 943 111" fill="none" xmlns="http://www.w3.org/2000/svg">
<path d="M221.471 7.60938H225.549V19H227.518V7.60938H231.603V5.90909H221.471V7.60938ZM235.599 13.1705C235.599 11.6044 236.59 10.7095 237.952 10.7095C239.268 10.7095 240.055 11.5469 240.055 12.9851V19H241.966V12.755C241.966 10.3068 240.623 9.05398 238.604 9.05398C237.076 9.05398 236.155 9.71875 235.695 10.7798H235.574V5.90909H233.688V19H235.599V13.1705ZM248.652 19.1982C251.42 19.1982 253.229 17.1719 253.229 14.1357C253.229 11.0803 251.42 9.05398 248.652 9.05398C245.884 9.05398 244.075 11.0803 244.075 14.1357C244.075 17.1719 245.884 19.1982 248.652 19.1982ZM248.658 17.5938C246.849 17.5938 246.006 16.0149 246.006 14.1293C246.006 12.25 246.849 10.652 248.658 10.652C250.454 10.652 251.298 12.25 251.298 14.1293C251.298 16.0149 250.454 17.5938 248.658 17.5938ZM261.581 14.9283C261.588 16.5966 260.348 17.3892 259.274 17.3892C258.091 17.3892 257.273 16.5327 257.273 15.1967V9.18182H255.362V15.4268C255.362 17.8622 256.698 19.1278 258.584 19.1278C260.06 19.1278 261.064 18.348 261.517 17.2997H261.62V19H263.499V9.18182H261.581V14.9283ZM273.424 11.5788C273.028 10.0511 271.833 9.05398 269.71 9.05398C267.492 9.05398 265.92 10.2237 265.92 11.9624C265.92 13.3558 266.764 14.2827 268.605 14.6918L270.267 15.0561C271.213 15.267 271.654 15.6889 271.654 16.3026C271.654 17.0632 270.842 17.6577 269.589 17.6577C268.445 17.6577 267.71 17.1655 267.48 16.2003L265.632 16.4815C265.952 18.2202 267.397 19.1982 269.602 19.1982C271.973 19.1982 273.616 17.9389 273.616 16.1619C273.616 14.7749 272.734 13.9183 270.931 13.5028L269.372 13.1449C268.291 12.8892 267.825 12.5249 267.831 11.8601C267.825 11.1058 268.643 10.5689 269.73 10.5689C270.919 10.5689 271.468 11.2273 271.692 11.8857L273.424 11.5788ZM278.575 19.2173C280.198 19.2173 281.112 18.3928 281.477 17.6577H281.553V19H283.42V12.4801C283.42 9.62287 281.17 9.05398 279.61 9.05398C277.833 9.05398 276.197 9.76989 275.558 11.5597L277.354 11.9688C277.635 11.272 278.351 10.6009 279.636 10.6009C280.869 10.6009 281.502 11.2464 281.502 12.3587V12.4034C281.502 13.1001 280.786 13.0874 279.022 13.2919C277.162 13.5092 275.257 13.995 275.257 16.2259C275.257 18.1563 276.708 19.2173 278.575 19.2173ZM278.99 17.6832C277.91 17.6832 277.13 17.1974 277.13 16.2514C277.13 15.2287 278.038 14.8643 279.144 14.7173C279.764 14.6342 281.234 14.468 281.509 14.1932V15.4588C281.509 16.6222 280.582 17.6832 278.99 17.6832ZM287.877 13.1705C287.877 11.6044 288.835 10.7095 290.165 10.7095C291.463 10.7095 292.249 11.5597 292.249 12.9851V19H294.16V12.755C294.16 10.326 292.824 9.05398 290.817 9.05398C289.34 9.05398 288.375 9.73793 287.921 10.7798H287.8V9.18182H285.965V19H287.877V13.1705ZM300.399 19.1918C302.188 19.1918 302.892 18.0987 303.237 17.4723H303.397V19H305.263V5.90909H303.352V10.7734H303.237C302.892 10.1662 302.24 9.05398 300.411 9.05398C298.04 9.05398 296.295 10.9268 296.295 14.1101C296.295 17.2869 298.014 19.1918 300.399 19.1918ZM300.821 17.5618C299.114 17.5618 298.225 16.0597 298.225 14.0909C298.225 12.1413 299.095 10.6776 300.821 10.6776C302.489 10.6776 303.384 12.0391 303.384 14.0909C303.384 16.1555 302.47 17.5618 300.821 17.5618ZM316.89 19.1982C319.658 19.1982 321.467 17.1719 321.467 14.1357C321.467 11.0803 319.658 9.05398 316.89 9.05398C314.122 9.05398 312.313 11.0803 312.313 14.1357C312.313 17.1719 314.122 19.1982 316.89 19.1982ZM316.897 17.5938C315.088 17.5938 314.244 16.0149 314.244 14.1293C314.244 12.25 315.088 10.652 316.897 10.652C318.693 10.652 319.536 12.25 319.536 14.1293C319.536 16.0149 318.693 17.5938 316.897 17.5938ZM328.273 9.18182H326.157V8.29972C326.157 7.4304 326.515 6.95739 327.448 6.95739C327.845 6.95739 328.126 7.04688 328.305 7.1044L328.752 5.55753C328.484 5.45526 327.928 5.29545 327.154 5.29545C325.601 5.29545 324.239 6.20313 324.239 8.04403V9.18182H322.725V10.7159H324.239V19H326.157V10.7159H328.273V9.18182ZM339.592 9.18182H337.578V6.82955H335.667V9.18182H334.229V10.7159H335.667V16.5135C335.66 18.2969 337.022 19.1598 338.53 19.1278C339.138 19.1214 339.547 19.0064 339.771 18.9233L339.425 17.3445C339.297 17.37 339.061 17.4276 338.754 17.4276C338.134 17.4276 337.578 17.223 337.578 16.1172V10.7159H339.592V9.18182ZM345.832 19.1982C347.973 19.1982 349.488 18.1435 349.923 16.5455L348.114 16.2195C347.769 17.1463 346.938 17.6193 345.851 17.6193C344.215 17.6193 343.115 16.5582 343.064 14.6662H350.044V13.9886C350.044 10.4411 347.922 9.05398 345.698 9.05398C342.962 9.05398 341.159 11.1378 341.159 14.1548C341.159 17.2038 342.936 19.1982 345.832 19.1982ZM343.07 13.2344C343.147 11.8409 344.157 10.6328 345.71 10.6328C347.193 10.6328 348.165 11.7322 348.171 13.2344H343.07ZM355.022 19.2173C356.646 19.2173 357.56 18.3928 357.924 17.6577H358.001V19H359.867V12.4801C359.867 9.62287 357.617 9.05398 356.057 9.05398C354.28 9.05398 352.644 9.76989 352.005 11.5597L353.801 11.9688C354.082 11.272 354.798 10.6009 356.083 10.6009C357.317 10.6009 357.949 11.2464 357.949 12.3587V12.4034C357.949 13.1001 357.234 13.0874 355.469 13.2919C353.609 13.5092 351.704 13.995 351.704 16.2259C351.704 18.1563 353.155 19.2173 355.022 19.2173ZM355.437 17.6832C354.357 17.6832 353.577 17.1974 353.577 16.2514C353.577 15.2287 354.485 14.8643 355.591 14.7173C356.211 14.6342 357.681 14.468 357.956 14.1932V15.4588C357.956 16.6222 357.029 17.6832 355.437 17.6832ZM362.413 19H364.324V12.9467C364.324 11.6236 365.251 10.7031 366.337 10.7031C367.399 10.7031 368.134 11.4063 368.134 12.4737V19H370.038V12.7422C370.038 11.5597 370.761 10.7031 372.007 10.7031C373.017 10.7031 373.848 11.2656 373.848 12.5952V19H375.759V12.4162C375.759 10.1726 374.506 9.05398 372.729 9.05398C371.317 9.05398 370.256 9.73153 369.783 10.7798H369.68C369.252 9.70597 368.351 9.05398 367.041 9.05398C365.743 9.05398 364.778 9.69957 364.369 10.7798H364.247V9.18182H362.413V19ZM385.678 11.5788C385.282 10.0511 384.087 9.05398 381.964 9.05398C379.746 9.05398 378.174 10.2237 378.174 11.9624C378.174 13.3558 379.018 14.2827 380.859 14.6918L382.521 15.0561C383.467 15.267 383.908 15.6889 383.908 16.3026C383.908 17.0632 383.096 17.6577 381.843 17.6577C380.699 17.6577 379.964 17.1655 379.734 16.2003L377.886 16.4815C378.206 18.2202 379.65 19.1982 381.856 19.1982C384.227 19.1982 385.87 17.9389 385.87 16.1619C385.87 14.7749 384.988 13.9183 383.185 13.5028L381.626 13.1449C380.545 12.8892 380.079 12.5249 380.085 11.8601C380.079 11.1058 380.897 10.5689 381.984 10.5689C383.172 10.5689 383.722 11.2273 383.946 11.8857L385.678 11.5788ZM394.864 19H396.807L398.801 11.9112H398.948L400.942 19H402.892L405.775 9.18182H403.8L401.888 16.3601H401.793L399.875 9.18182H397.9L395.969 16.392H395.873L393.949 9.18182H391.974L394.864 19ZM411.425 19.1982C414.193 19.1982 416.002 17.1719 416.002 14.1357C416.002 11.0803 414.193 9.05398 411.425 9.05398C408.658 9.05398 406.849 11.0803 406.849 14.1357C406.849 17.1719 408.658 19.1982 411.425 19.1982ZM411.432 17.5938C409.623 17.5938 408.779 16.0149 408.779 14.1293C408.779 12.25 409.623 10.652 411.432 10.652C413.228 10.652 414.072 12.25 414.072 14.1293C414.072 16.0149 413.228 17.5938 411.432 17.5938ZM418.135 19H420.047V13.0043C420.047 11.7195 421.037 10.7926 422.392 10.7926C422.789 10.7926 423.236 10.8629 423.39 10.9077V9.07955C423.198 9.05398 422.821 9.0348 422.578 9.0348C421.427 9.0348 420.443 9.68679 420.085 10.7415H419.983V9.18182H418.135V19ZM426.955 5.90909H425.044V19H426.955V5.90909ZM433.201 19.1918C434.991 19.1918 435.694 18.0987 436.04 17.4723H436.199V19H438.066V5.90909H436.155V10.7734H436.04C435.694 10.1662 435.042 9.05398 433.214 9.05398C430.843 9.05398 429.098 10.9268 429.098 14.1101C429.098 17.2869 430.817 19.1918 433.201 19.1918ZM433.623 17.5618C431.917 17.5618 431.028 16.0597 431.028 14.0909C431.028 12.1413 431.897 10.6776 433.623 10.6776C435.292 10.6776 436.187 12.0391 436.187 14.0909C436.187 16.1555 435.272 17.5618 433.623 17.5618ZM442.922 19H444.865L446.86 11.9112H447.007L449.001 19H450.951L453.833 9.18182H451.858L449.947 16.3601H449.851L447.934 9.18182H445.958L444.028 16.392H443.932L442.008 9.18182H440.033L442.922 19ZM455.647 19L457.558 19V9.18182H455.647V19ZM456.612 7.6669C457.271 7.6669 457.82 7.15554 457.82 6.52912C457.82 5.9027 457.271 5.38494 456.612 5.38494C455.948 5.38494 455.404 5.9027 455.404 6.52912C455.404 7.15554 455.948 7.6669 456.612 7.6669ZM463.805 19.1918C465.595 19.1918 466.298 18.0987 466.643 17.4723H466.803V19H468.669V5.90909H466.758V10.7734H466.643C466.298 10.1662 465.646 9.05398 463.818 9.05398C461.446 9.05398 459.701 10.9268 459.701 14.1101C459.701 17.2869 461.421 19.1918 463.805 19.1918ZM464.227 17.5618C462.52 17.5618 461.632 16.0597 461.632 14.0909C461.632 12.1413 462.501 10.6776 464.227 10.6776C465.895 10.6776 466.79 12.0391 466.79 14.0909C466.79 16.1555 465.876 17.5618 464.227 17.5618ZM475.629 19.1982C477.77 19.1982 479.285 18.1435 479.72 16.5455L477.911 16.2195C477.565 17.1463 476.734 17.6193 475.648 17.6193C474.011 17.6193 472.912 16.5582 472.861 14.6662H479.841V13.9886C479.841 10.4411 477.719 9.05398 475.494 9.05398C472.759 9.05398 470.956 11.1378 470.956 14.1548C470.956 17.2038 472.733 19.1982 475.629 19.1982ZM472.867 13.2344C472.944 11.8409 473.954 10.6328 475.507 10.6328C476.99 10.6328 477.962 11.7322 477.968 13.2344H472.867ZM489.582 19.2173C491.206 19.2173 492.12 18.3928 492.484 17.6577H492.561V19H494.428V12.4801C494.428 9.62287 492.178 9.05398 490.618 9.05398C488.841 9.05398 487.205 9.76989 486.565 11.5597L488.362 11.9688C488.643 11.272 489.359 10.6009 490.644 10.6009C491.877 10.6009 492.51 11.2464 492.51 12.3587V12.4034C492.51 13.1001 491.794 13.0874 490.03 13.2919C488.17 13.5092 486.265 13.995 486.265 16.2259C486.265 18.1563 487.716 19.2173 489.582 19.2173ZM489.998 17.6832C488.918 17.6832 488.138 17.1974 488.138 16.2514C488.138 15.2287 489.046 14.8643 490.151 14.7173C490.771 14.6342 492.242 14.468 492.516 14.1932V15.4588C492.516 16.6222 491.59 17.6832 489.998 17.6832ZM496.973 19H498.884V13.0043C498.884 11.7195 499.875 10.7926 501.23 10.7926C501.627 10.7926 502.074 10.8629 502.228 10.9077V9.07955C502.036 9.05398 501.659 9.0348 501.416 9.0348C500.265 9.0348 499.281 9.68679 498.923 10.7415H498.821V9.18182H496.973V19ZM507.761 19.1982C509.903 19.1982 511.418 18.1435 511.852 16.5455L510.043 16.2195C509.698 17.1463 508.867 17.6193 507.781 17.6193C506.144 17.6193 505.045 16.5582 504.994 14.6662H511.974V13.9886C511.974 10.4411 509.852 9.05398 507.627 9.05398C504.891 9.05398 503.089 11.1378 503.089 14.1548C503.089 17.2038 504.866 19.1982 507.761 19.1982ZM505 13.2344C505.077 11.8409 506.087 10.6328 507.64 10.6328C509.123 10.6328 510.095 11.7322 510.101 13.2344H505ZM525.078 14.9283C525.084 16.5966 523.844 17.3892 522.77 17.3892C521.587 17.3892 520.769 16.5327 520.769 15.1967V9.18182H518.858V15.4268C518.858 17.8622 520.194 19.1278 522.08 19.1278C523.556 19.1278 524.56 18.348 525.014 17.2997H525.116V19H526.995V9.18182H525.078V14.9283ZM536.92 11.5788C536.524 10.0511 535.329 9.05398 533.207 9.05398C530.989 9.05398 529.416 10.2237 529.416 11.9624C529.416 13.3558 530.26 14.2827 532.101 14.6918L533.763 15.0561C534.709 15.267 535.15 15.6889 535.15 16.3026C535.15 17.0632 534.338 17.6577 533.085 17.6577C531.941 17.6577 531.206 17.1655 530.976 16.2003L529.128 16.4815C529.448 18.2202 530.893 19.1982 533.098 19.1982C535.469 19.1982 537.112 17.9389 537.112 16.1619C537.112 14.7749 536.23 13.9183 534.427 13.5028L532.868 13.1449C531.788 12.8892 531.321 12.5249 531.327 11.8601C531.321 11.1058 532.139 10.5689 533.226 10.5689C534.415 10.5689 534.964 11.2273 535.188 11.8857L536.92 11.5788ZM539.214 19H541.125V9.18182H539.214V19ZM540.179 7.6669C540.837 7.6669 541.387 7.15554 541.387 6.52912C541.387 5.9027 540.837 5.38494 540.179 5.38494C539.514 5.38494 538.971 5.9027 538.971 6.52912C538.971 7.15554 539.514 7.6669 540.179 7.6669ZM545.607 13.1705C545.607 11.6044 546.566 10.7095 547.896 10.7095C549.193 10.7095 549.979 11.5597 549.979 12.9851V19H551.891V12.755C551.891 10.326 550.555 9.05398 548.547 9.05398C547.071 9.05398 546.106 9.73793 545.652 10.7798H545.53V9.18182H543.696V19H545.607V13.1705ZM558.57 22.8864C561.07 22.8864 563 21.7422 563 19.2173V9.18182H561.127V10.7734H560.986C560.648 10.1662 559.97 9.05398 558.142 9.05398C555.771 9.05398 554.025 10.9268 554.025 14.0526C554.025 17.1847 555.809 18.853 558.129 18.853C559.932 18.853 560.628 17.8366 560.974 17.2102H561.095V19.1406C561.095 20.6811 560.04 21.3459 558.589 21.3459C556.998 21.3459 556.378 20.5469 556.039 19.9844L554.396 20.6619C554.914 21.8636 556.224 22.8864 558.57 22.8864ZM558.551 17.2678C556.844 17.2678 555.956 15.9574 555.956 14.027C555.956 12.1413 556.825 10.6776 558.551 10.6776C560.219 10.6776 561.114 12.0391 561.114 14.027C561.114 16.0533 560.2 17.2678 558.551 17.2678Z" fill="black"/>
<path d="M570.327 19H572.238V12.9467C572.238 11.6236 573.165 10.7031 574.252 10.7031C575.313 10.7031 576.048 11.4063 576.048 12.4737V19H577.953V12.7422C577.953 11.5597 578.675 10.7031 579.921 10.7031C580.931 10.7031 581.762 11.2656 581.762 12.5952V19H583.673V12.4162C583.673 10.1726 582.421 9.05398 580.644 9.05398C579.231 9.05398 578.17 9.73153 577.697 10.7798H577.595C577.166 9.70597 576.265 9.05398 574.955 9.05398C573.657 9.05398 572.692 9.69957 572.283 10.7798H572.161V9.18182H570.327V19ZM589.092 19.2173C590.716 19.2173 591.63 18.3928 591.994 17.6577H592.071V19H593.937V12.4801C593.937 9.62287 591.687 9.05398 590.128 9.05398C588.351 9.05398 586.714 9.76989 586.075 11.5597L587.871 11.9688C588.153 11.272 588.869 10.6009 590.153 10.6009C591.387 10.6009 592.02 11.2464 592.02 12.3587V12.4034C592.02 13.1001 591.304 13.0874 589.54 13.2919C587.68 13.5092 585.775 13.995 585.775 16.2259C585.775 18.1563 587.226 19.2173 589.092 19.2173ZM589.508 17.6832C588.427 17.6832 587.648 17.1974 587.648 16.2514C587.648 15.2287 588.555 14.8643 589.661 14.7173C590.281 14.6342 591.751 14.468 592.026 14.1932V15.4588C592.026 16.6222 591.099 17.6832 589.508 17.6832ZM596.483 19H598.394V9.18182H596.483V19ZM597.448 7.6669C598.107 7.6669 598.656 7.15554 598.656 6.52912C598.656 5.9027 598.107 5.38494 597.448 5.38494C596.783 5.38494 596.24 5.9027 596.24 6.52912C596.24 7.15554 596.783 7.6669 597.448 7.6669ZM602.877 5.90909L600.965 5.90909V19H602.877V5.90909ZM605.448 19H607.359V12.9467C607.359 11.6236 608.286 10.7031 609.373 10.7031C610.434 10.7031 611.169 11.4063 611.169 12.4737V19H613.074V12.7422C613.074 11.5597 613.796 10.7031 615.042 10.7031C616.052 10.7031 616.883 11.2656 616.883 12.5952V19H618.794V12.4162C618.794 10.1726 617.542 9.05398 615.765 9.05398C614.352 9.05398 613.291 9.73153 612.818 10.7798H612.716C612.287 9.70597 611.386 9.05398 610.076 9.05398C608.778 9.05398 607.813 9.69957 607.404 10.7798H607.282V9.18182H605.448V19ZM625.492 19.1982C628.259 19.1982 630.068 17.1719 630.068 14.1357C630.068 11.0803 628.259 9.05398 625.492 9.05398C622.724 9.05398 620.915 11.0803 620.915 14.1357C620.915 17.1719 622.724 19.1982 625.492 19.1982ZM625.498 17.5938C623.689 17.5938 622.845 16.0149 622.845 14.1293C622.845 12.25 623.689 10.652 625.498 10.652C627.294 10.652 628.138 12.25 628.138 14.1293C628.138 16.0149 627.294 17.5938 625.498 17.5938ZM635.877 19.1918C637.667 19.1918 638.37 18.0987 638.715 17.4723H638.875V19H640.742V5.90909H638.83V10.7734H638.715C638.37 10.1662 637.718 9.05398 635.89 9.05398C633.519 9.05398 631.774 10.9268 631.774 14.1101C631.774 17.2869 633.493 19.1918 635.877 19.1918ZM636.299 17.5618C634.592 17.5618 633.704 16.0597 633.704 14.0909C633.704 12.1413 634.573 10.6776 636.299 10.6776C637.967 10.6776 638.862 12.0391 638.862 14.0909C638.862 16.1555 637.948 17.5618 636.299 17.5618ZM647.605 19.1982C650.373 19.1982 652.182 17.1719 652.182 14.1357C652.182 11.0803 650.373 9.05398 647.605 9.05398C644.837 9.05398 643.028 11.0803 643.028 14.1357C643.028 17.1719 644.837 19.1982 647.605 19.1982ZM647.611 17.5938C645.802 17.5938 644.959 16.0149 644.959 14.1293C644.959 12.25 645.802 10.652 647.611 10.652C649.408 10.652 650.251 12.25 650.251 14.1293C650.251 16.0149 649.408 17.5938 647.611 17.5938Z" fill="#2F70FE"/>
<path d="M656.725 5.90909H654.622L654.788 15.2351H656.559L656.725 5.90909ZM655.67 19.1214C656.367 19.1214 656.949 18.5526 656.949 17.843C656.949 17.1463 656.367 16.571 655.67 16.571C654.967 16.571 654.392 17.1463 654.392 17.843C654.392 18.5526 654.967 19.1214 655.67 19.1214Z" fill="#5D5FEF"/>
<g clip-path="url(#clip0)">
<g clip-path="url(#clip1)">
<path d="M91.7997 82.8443C91.6585 82.5031 91.5262 82.1443 91.385 81.8381L90.7321 80.3768L90.7056 80.3506C88.7644 76.1506 86.6909 71.8806 84.4938 67.6806L84.4056 67.5056C84.185 67.0943 83.9644 66.6393 83.735 66.2193C83.4527 65.7206 83.1791 65.1868 82.7291 64.6793C82.2905 64.1483 81.7385 63.7205 81.1128 63.4267C80.4872 63.133 79.8037 62.9806 79.1115 62.9806C78.4193 62.9806 77.7357 63.133 77.1101 63.4267C76.4845 63.7205 75.9325 64.1483 75.4938 64.6793C75.0791 65.1868 74.7703 65.7206 74.488 66.2193C74.2674 66.6743 74.0468 67.1206 73.8174 67.5318L73.7291 67.7068C71.5674 71.9068 69.4585 76.1768 67.5174 80.3768L67.4644 80.4293C67.2703 80.8843 67.0409 81.3568 66.8203 81.8643C66.6791 82.1706 66.538 82.5031 66.3968 82.8706C66.0156 83.8329 65.8939 84.8771 66.0436 85.9003C66.1934 86.9234 66.6093 87.8903 67.2506 88.7054C67.8918 89.5206 68.7362 90.1561 69.7005 90.5491C70.6648 90.9421 71.7157 91.0792 72.7497 90.9468C73.741 90.8174 74.6955 90.49 75.5556 89.9843C76.7027 89.3456 77.8056 88.4181 79.0409 87.0793C80.2762 88.4181 81.4056 89.3456 82.5262 89.9931C83.6038 90.6203 84.8242 90.9665 86.0732 90.9993C87.5197 91.0053 88.9196 90.4921 90.0143 89.5545C91.109 88.6168 91.8246 87.3181 92.0291 85.8981C92.2655 84.8776 92.1855 83.8102 91.7997 82.8356V82.8443ZM79.1291 84.2968C77.6115 82.3718 76.6232 80.6043 76.288 79.0906C76.149 78.5297 76.1191 77.9476 76.1997 77.3756C76.2615 76.9293 76.4291 76.5356 76.6585 76.2031C77.188 75.4418 78.1144 74.9693 79.1291 74.9693C79.611 74.9547 80.089 75.059 80.5202 75.2728C80.9514 75.4866 81.3224 75.8033 81.5997 76.1943C81.8291 76.5443 81.9968 76.9293 82.0497 77.3756C82.138 77.8831 82.1027 78.4693 81.9615 79.0906C81.6262 80.5781 80.638 82.3631 79.1291 84.2968ZM90.3703 85.5918C90.2701 86.3128 89.9811 86.9951 89.5321 87.5708C89.0831 88.1465 88.4899 88.5955 87.8115 88.8731C87.1409 89.1531 86.3997 89.2318 85.6762 89.1531C84.9703 89.0656 84.2644 88.8381 83.5409 88.4181C82.3396 87.6818 81.2594 86.767 80.338 85.7056C82.1909 83.4306 83.3115 81.3568 83.735 79.5106C83.938 78.6356 83.9644 77.8481 83.8762 77.1218C83.766 76.4335 83.5072 75.7768 83.1174 75.1968C82.6723 74.5679 82.0783 74.0571 81.3874 73.7092C80.6966 73.3614 79.9302 73.1871 79.1556 73.2018C77.5232 73.2018 76.0674 73.9543 75.185 75.1881C74.7878 75.7666 74.5311 76.4285 74.435 77.1218C74.3203 77.8568 74.3468 78.6706 74.5762 79.5106C74.9997 81.3568 76.1468 83.4568 77.9732 85.7231C77.0675 86.8047 75.9847 87.7276 74.7703 88.4531C74.038 88.8731 73.3409 89.0918 72.635 89.1793C71.5373 89.3188 70.4284 89.0229 69.5494 88.3561C68.6704 87.6892 68.0924 86.7053 67.9409 85.6181C67.8527 84.9181 67.9144 84.2181 68.1968 83.4306C68.285 83.1506 68.4174 82.8706 68.5585 82.5381C68.7527 82.0831 68.9821 81.6106 69.2027 81.1381L69.238 81.0768C71.1438 76.9031 73.2262 72.6418 75.388 68.4681L75.4762 68.2931C75.6968 67.8731 75.9174 67.4268 76.1468 67.0068C76.3762 66.5606 76.6232 66.1318 76.9409 65.7818C77.2158 65.4564 77.5594 65.1946 77.9474 65.015C78.3354 64.8354 78.7583 64.7423 79.1865 64.7423C79.6146 64.7423 80.0376 64.8354 80.4256 65.015C80.8136 65.1946 81.1571 65.4564 81.4321 65.7818C81.7409 66.1318 81.9968 66.5606 82.2262 67.0068C82.4468 67.4268 82.6674 67.8818 82.8968 68.2931L82.985 68.4681C85.138 72.6418 87.2203 76.9031 89.1615 81.0768L89.188 81.1031C89.4174 81.5581 89.6115 82.0656 89.8321 82.5031C89.9732 82.8443 90.1144 83.1156 90.2027 83.4043C90.3703 84.1918 90.4585 84.8918 90.3703 85.5918ZM102.653 84.1043C101.988 84.114 101.329 83.9751 100.726 83.6979C100.123 83.4207 99.5898 83.0123 99.1674 82.5031C98.218 81.4181 97.7142 80.019 97.7556 78.5831C97.7411 77.1159 98.2612 75.6928 99.2203 74.5756C99.664 74.0599 100.216 73.6469 100.838 73.3657C101.46 73.0845 102.137 72.942 102.82 72.9481C103.463 72.9306 104.101 73.0757 104.672 73.3696C105.243 73.6634 105.729 74.0965 106.085 74.6281L106.173 73.2543H108.75V83.8243H106.164L106.076 82.2843C105.709 82.8519 105.202 83.3171 104.603 83.6356C104.004 83.9541 103.332 84.1155 102.653 84.1043ZM103.323 81.5843C103.835 81.5843 104.285 81.4443 104.709 81.1906C105.097 80.9106 105.414 80.5431 105.661 80.0968C105.882 79.6506 105.997 79.1168 105.997 78.5218C106.031 78.0051 105.93 77.4883 105.702 77.022C105.475 76.5558 105.13 76.156 104.7 75.8618C104.287 75.6067 103.81 75.4714 103.323 75.4714C102.837 75.4714 102.36 75.6067 101.947 75.8618C101.559 76.1418 101.241 76.5093 100.994 76.9556C100.76 77.4477 100.646 77.9869 100.659 78.5306C100.624 79.0474 100.726 79.5642 100.953 80.0304C101.18 80.4967 101.526 80.8964 101.956 81.1906C102.37 81.4443 102.82 81.5843 103.323 81.5843ZM113.161 70.4018C113.161 70.7081 113.109 70.9881 112.967 71.2156C112.826 71.4343 112.632 71.6356 112.376 71.7756C112.12 71.9156 111.847 71.9681 111.564 71.9681C111.282 71.9681 111 71.9156 110.744 71.7756C110.502 71.642 110.298 71.4492 110.153 71.2156C110.016 70.9663 109.949 70.6854 109.959 70.4018C109.959 70.0868 110.02 69.8068 110.153 69.5881C110.294 69.3256 110.497 69.1681 110.744 69.0281C111 68.8881 111.273 68.8268 111.564 68.8268C111.845 68.8204 112.123 68.8864 112.37 69.0183C112.618 69.1502 112.827 69.3435 112.976 69.5793C113.105 69.8344 113.168 70.1168 113.161 70.4018ZM110.161 83.7893V73.2368H112.967V83.8068H110.153L110.161 83.7893ZM120.467 76.0018V76.0368C120.335 75.9756 120.159 75.9493 120.026 75.9231C119.85 75.8881 119.709 75.8881 119.541 75.8881C118.756 75.8881 118.164 76.1156 117.776 76.5881C117.353 77.0693 117.159 77.7431 117.159 78.6093V83.7981H114.344V73.2281H116.929L117.017 74.8293C117.3 74.2693 117.635 73.8493 118.111 73.5343C118.585 73.2283 119.143 73.0754 119.709 73.0968C119.911 73.0968 120.106 73.1143 120.273 73.1493C120.361 73.1756 120.414 73.1756 120.467 73.2018V76.0018ZM121.597 83.7893V68.8968H124.403V74.5843C124.8 74.0768 125.25 73.6831 125.814 73.3768C126.708 72.9422 127.724 72.8189 128.697 73.0268C129.671 73.2348 130.545 73.7619 131.179 74.5231C132.131 75.6104 132.635 77.0129 132.591 78.4518C132.605 79.919 132.085 81.3421 131.126 82.4593C130.683 82.975 130.13 83.388 129.508 83.6692C128.886 83.9504 128.21 84.093 127.526 84.0868C126.883 84.1043 126.246 83.9593 125.675 83.6654C125.104 83.3715 124.617 82.9384 124.261 82.4068L124.173 83.7806L121.597 83.8068V83.7893ZM127.023 81.5843C127.526 81.5843 127.976 81.4443 128.4 81.1906C128.788 80.9106 129.106 80.5431 129.353 80.0968C129.582 79.6506 129.688 79.1168 129.688 78.5218C129.688 77.9356 129.582 77.4018 129.353 76.9556C129.121 76.5253 128.795 76.1516 128.4 75.8618C127.987 75.6067 127.51 75.4714 127.023 75.4714C126.537 75.4714 126.06 75.6067 125.647 75.8618C125.25 76.1418 124.941 76.5093 124.685 76.9556C124.452 77.4477 124.337 77.9869 124.35 78.5306C124.315 79.0474 124.417 79.5642 124.644 80.0304C124.871 80.4967 125.217 80.8964 125.647 81.1906C126.061 81.4443 126.511 81.5843 127.023 81.5843ZM133.65 83.7981V73.2281H136.235L136.323 74.6018C136.648 74.0753 137.109 73.6443 137.658 73.3536C138.207 73.0628 138.825 72.9228 139.447 72.9481C140.158 72.9359 140.857 73.1319 141.457 73.5117C142.056 73.8914 142.529 74.438 142.817 75.0831C143.126 75.7481 143.294 76.5706 143.294 77.4893V83.8243H140.479V77.8568C140.479 77.1218 140.311 76.5443 139.976 76.1156C139.641 75.6956 139.182 75.4681 138.6 75.4681C138.176 75.4681 137.806 75.5556 137.479 75.7481C137.17 75.9493 136.914 76.2031 136.72 76.5618C136.524 76.9245 136.427 77.3317 136.438 77.7431V83.7981H133.65ZM144.697 83.7981V68.8881H147.511V74.5756C147.893 74.0653 148.389 73.6501 148.96 73.363C149.531 73.0759 150.162 72.9249 150.803 72.9218C151.468 72.9122 152.126 73.0511 152.729 73.3283C153.333 73.6055 153.865 74.0139 154.288 74.5231C155.233 75.6103 155.733 77.0086 155.691 78.4431C155.706 79.9104 155.186 81.3338 154.226 82.4506C153.783 82.9663 153.23 83.3793 152.608 83.6605C151.986 83.9417 151.31 84.0842 150.626 84.0781C149.983 84.0955 149.346 83.9505 148.775 83.6566C148.204 83.3627 147.717 82.9297 147.361 82.3981L147.282 83.7718L144.697 83.7981ZM150.15 81.5843C150.661 81.5843 151.111 81.4443 151.526 81.1906C151.923 80.9106 152.232 80.5431 152.488 80.0968C152.709 79.6506 152.823 79.1168 152.823 78.5218C152.858 78.0051 152.756 77.4883 152.529 77.022C152.301 76.5558 151.956 76.156 151.526 75.8618C151.113 75.6067 150.636 75.4714 150.15 75.4714C149.663 75.4714 149.186 75.6067 148.773 75.8618C148.385 76.1418 148.067 76.5093 147.82 76.9556C147.574 77.4433 147.459 77.9858 147.485 78.5306C147.451 79.0474 147.552 79.5642 147.779 80.0304C148.007 80.4967 148.352 80.8964 148.782 81.1906C149.197 81.4443 149.62 81.5843 150.15 81.5843Z" fill="#FF385C"/>
</g>
<g clip-path="url(#clip2)">
<path d="M229.097 68.9728V75.7425H222.928V68.9728H220V85.1328H222.928V78.5829H229.097V85.1328H232.025V68.9728H229.097Z" fill="#33475B"/>
<path d="M241.398 79.9091C241.398 80.5567 241.142 81.1779 240.688 81.6358C240.234 82.0938 239.617 82.351 238.975 82.351C238.332 82.351 237.716 82.0938 237.262 81.6358C236.807 81.1779 236.552 80.5567 236.552 79.9091V72.9875H233.774V79.9091C233.774 81.298 234.322 82.63 235.296 83.612C236.27 84.5941 237.592 85.1459 238.97 85.1459C240.348 85.1459 241.669 84.5941 242.644 83.612C243.618 82.63 244.165 81.298 244.165 79.9091V72.9875H241.398V79.9091Z" fill="#33475B"/>
<path d="M261.979 73.7005C261.979 72.2817 262.91 71.832 263.93 71.832C264.752 71.832 265.838 72.4625 266.549 73.2276L268.368 71.0669C267.46 69.8289 265.617 68.9728 264.109 68.9728C261.096 68.9728 258.917 70.7516 258.917 73.7005C258.917 79.1715 265.551 77.4361 265.551 80.4977C265.551 81.4421 264.642 82.2765 263.6 82.2765C261.957 82.2765 261.425 81.4667 260.67 80.6105L258.651 82.7263C259.943 84.3244 261.535 85.1357 263.444 85.1357C266.306 85.1357 268.609 83.3352 268.609 80.5208C268.609 74.4467 261.974 76.334 261.974 73.7005" fill="#33475B"/>
<path d="M303.023 82.5513C301.381 82.5513 300.915 81.8355 300.915 80.7392V75.8872H303.466V73.4286H300.915V70.1847L298.099 71.4588V81.3423C298.099 83.8703 299.829 85.1444 302.202 85.1444C302.574 85.1512 302.946 85.1212 303.313 85.0547L304 82.5051C303.69 82.5268 303.334 82.5484 303.023 82.5484" fill="#33475B"/>
<path d="M251.97 73.0685C250.594 73.0685 249.634 73.4705 248.706 74.3889V69.0697H245.924V78.9285C245.924 82.6193 248.571 85.1473 251.545 85.1473C254.846 85.1473 257.748 82.5745 257.748 79.1093C257.748 75.6876 255.077 73.0699 251.97 73.0699V73.0685ZM251.953 82.3257C251.329 82.3257 250.718 82.1391 250.199 81.7895C249.68 81.4399 249.276 80.943 249.037 80.3616C248.798 79.7802 248.735 79.1405 248.857 78.5233C248.979 77.9061 249.279 77.3392 249.721 76.8942C250.162 76.4493 250.725 76.1463 251.337 76.0235C251.949 75.9007 252.584 75.9637 253.161 76.2045C253.738 76.4454 254.231 76.8532 254.578 77.3764C254.924 77.8996 255.11 78.5148 255.11 79.144C255.11 79.9879 254.777 80.7971 254.185 81.3938C253.593 81.9905 252.79 82.3257 251.953 82.3257Z" fill="#33475B"/>
<path d="M282.179 78.9618C282.179 75.4909 279.282 72.9239 275.976 72.9239C273.002 72.9239 270.354 75.4518 270.354 79.1426V89.0072H273.137V83.6808C274.063 84.5977 275.025 85.0012 276.399 85.0012C279.506 85.0012 282.177 82.385 282.177 78.9618H282.179ZM279.544 78.9271C279.544 79.5564 279.359 80.1715 279.013 80.6948C278.666 81.218 278.173 81.6258 277.596 81.8666C277.019 82.1074 276.384 82.1704 275.772 82.0477C275.16 81.9249 274.597 81.6219 274.156 81.1769C273.714 80.7319 273.414 80.165 273.292 79.5478C273.17 78.9306 273.233 78.2909 273.472 77.7095C273.71 77.1282 274.115 76.6312 274.634 76.2816C275.153 75.932 275.764 75.7454 276.388 75.7454C277.225 75.7454 278.028 76.0806 278.62 76.6773C279.212 77.274 279.544 78.0833 279.544 78.9271Z" fill="#33475B"/>
<path d="M291.167 72.7879V69.9707C291.536 69.7967 291.849 69.5206 292.068 69.1744C292.288 68.8283 292.406 68.4263 292.408 68.0154V67.9503C292.408 67.375 292.181 66.8232 291.777 66.4164C291.374 66.0095 290.826 65.781 290.256 65.781H290.191C289.62 65.781 289.073 66.0095 288.669 66.4164C288.265 66.8232 288.039 67.375 288.039 67.9503V68.0154C288.041 68.4263 288.158 68.8283 288.378 69.1744C288.598 69.5206 288.91 69.7967 289.28 69.9707V72.7879C288.218 72.9516 287.218 73.3951 286.382 74.0736L278.717 68.0559C278.771 67.8574 278.8 67.6528 278.803 67.447C278.804 66.9636 278.662 66.4907 278.396 66.0883C278.131 65.6858 277.752 65.3719 277.31 65.1861C276.867 65.0004 276.379 64.9512 275.909 65.0448C275.438 65.1384 275.006 65.3705 274.666 65.7119C274.326 66.0532 274.095 66.4884 274 66.9625C273.906 67.4365 273.954 67.9281 274.136 68.375C274.319 68.8219 274.63 69.2041 275.028 69.4732C275.427 69.7423 275.895 69.8862 276.375 69.8868C276.795 69.8849 277.206 69.7722 277.569 69.5599L285.117 75.4793C284.439 76.5119 284.085 77.7265 284.102 78.9647C284.119 80.203 284.505 81.4075 285.211 82.4212L282.915 84.7351C282.729 84.6754 282.536 84.6437 282.341 84.6411C281.947 84.6414 281.562 84.7593 281.235 84.98C280.908 85.2007 280.653 85.5142 280.502 85.8809C280.352 86.2477 280.312 86.6512 280.389 87.0404C280.466 87.4297 280.656 87.7872 280.934 88.0679C281.213 88.3485 281.567 88.5397 281.954 88.6172C282.34 88.6947 282.74 88.655 283.104 88.5033C283.468 88.3515 283.779 88.0945 283.998 87.7646C284.217 87.4347 284.334 87.0468 284.334 86.6499C284.332 86.4535 284.3 86.2585 284.241 86.0714L286.512 83.7821C287.253 84.3565 288.114 84.7525 289.03 84.9397C289.946 85.1269 290.892 85.1003 291.796 84.862C292.7 84.6236 293.538 84.1799 294.246 83.5647C294.954 82.9496 295.512 82.1793 295.879 81.3129C296.246 80.4466 296.411 79.5071 296.362 78.5664C296.313 77.6257 296.051 76.7089 295.596 75.886C295.141 75.0632 294.506 74.3562 293.738 73.8192C292.97 73.2822 292.091 72.9294 291.167 72.7879ZM290.225 82.0524C289.604 82.0518 288.997 81.8656 288.481 81.5173C287.964 81.169 287.562 80.6742 287.325 80.0955C287.087 79.5168 287.025 78.8802 287.147 78.266C287.268 77.6519 287.567 77.0878 288.007 76.6451C288.446 76.2024 289.006 75.9009 289.615 75.7788C290.225 75.6566 290.856 75.7193 291.43 75.9589C292.004 76.1985 292.495 76.6042 292.84 77.1248C293.186 77.6454 293.37 78.2575 293.371 78.8837C293.371 79.7237 293.039 80.5293 292.45 81.1233C291.861 81.7172 291.062 82.0509 290.228 82.0509" fill="#FF7A59"/>
</g>
<path d="M403.747 77.3591C403.747 81.2457 400.661 84.1096 396.875 84.1096C393.089 84.1096 390.004 81.2457 390.004 77.3591C390.004 73.4452 393.089 70.6087 396.875 70.6087C400.661 70.6087 403.747 73.4452 403.747 77.3591ZM400.739 77.3591C400.739 74.9304 398.951 73.2687 396.875 73.2687C394.8 73.2687 393.012 74.9304 393.012 77.3591C393.012 79.7635 394.8 81.4496 396.875 81.4496C398.951 81.4496 400.739 79.7604 400.739 77.3591Z" fill="#EA4335"/>
<path d="M418.57 77.3591C418.57 81.2457 415.485 84.1096 411.698 84.1096C407.912 84.1096 404.827 81.2457 404.827 77.3591C404.827 73.4483 407.912 70.6087 411.698 70.6087C415.485 70.6087 418.57 73.4452 418.57 77.3591ZM415.562 77.3591C415.562 74.9304 413.774 73.2687 411.698 73.2687C409.623 73.2687 407.835 74.9304 407.835 77.3591C407.835 79.7635 409.623 81.4496 411.698 81.4496C413.774 81.4496 415.562 79.7604 415.562 77.3591Z" fill="#FBBC05"/>
<path d="M432.776 71.0165V83.1357C432.776 88.1209 429.792 90.157 426.266 90.157C422.946 90.157 420.948 87.9687 420.194 86.1791L422.813 85.1048C423.279 86.2035 424.422 87.5 426.263 87.5C428.52 87.5 429.919 86.1274 429.919 83.5435V82.5726H429.814C429.141 83.3913 427.844 84.1065 426.207 84.1065C422.782 84.1065 419.645 81.1665 419.645 77.3835C419.645 73.5731 422.782 70.6087 426.207 70.6087C427.841 70.6087 429.138 71.3239 429.814 72.1183H429.919V71.0196H432.776V71.0165ZM430.132 77.3835C430.132 75.0065 428.523 73.2687 426.476 73.2687C424.4 73.2687 422.662 75.0065 422.662 77.3835C422.662 79.7361 424.4 81.4496 426.476 81.4496C428.523 81.4496 430.132 79.7361 430.132 77.3835Z" fill="#4285F4"/>
<path d="M437.486 63.9131V83.6957H434.552V63.9131H437.486Z" fill="#34A853"/>
<path d="M448.918 79.5809L451.252 81.1148C450.499 82.2135 448.683 84.1065 445.545 84.1065C441.654 84.1065 438.748 81.1422 438.748 77.3561C438.748 73.3417 441.679 70.6057 445.209 70.6057C448.763 70.6057 450.502 73.3935 451.07 74.9L451.382 75.667L442.225 79.4043C442.926 80.7587 444.017 81.4496 445.545 81.4496C447.077 81.4496 448.139 80.707 448.918 79.5809ZM441.731 77.1522L447.852 74.6474C447.516 73.8043 446.503 73.217 445.311 73.217C443.782 73.217 441.654 74.547 441.731 77.1522Z" fill="#EA4335"/>
<path d="M378.899 75.603V72.7391H388.691C388.787 73.2383 388.836 73.8287 388.836 74.4678C388.836 76.6165 388.24 79.2735 386.32 81.1665C384.451 83.0839 382.064 84.1065 378.902 84.1065C373.04 84.1065 368.111 79.4013 368.111 73.6248C368.111 67.8483 373.04 63.143 378.902 63.143C382.144 63.143 384.454 64.3969 386.19 66.0313L384.139 68.0522C382.895 66.9017 381.209 66.0069 378.899 66.0069C374.618 66.0069 371.271 69.4065 371.271 73.6248C371.271 77.843 374.618 81.2426 378.899 81.2426C381.675 81.2426 383.256 80.1439 384.269 79.1456C385.09 78.3361 385.631 77.1796 385.844 75.6L378.899 75.603Z" fill="#4285F4"/>
<g clip-path="url(#clip3)">
<path d="M559.063 78.9752L558.336 81.031H558.275C558.154 80.5674 557.932 79.862 557.568 79.0155L553.67 69.2403H549.853V84.8201H552.377V75.2062C552.377 74.6015 552.377 73.9163 552.357 73.0698C552.337 72.6465 552.297 72.324 552.276 72.0822H552.337C552.458 72.6868 552.6 73.1302 552.701 73.4124L557.387 84.7798H559.164L563.81 73.3116C563.911 73.0496 564.012 72.5256 564.113 72.0822H564.173C564.113 73.231 564.072 74.2589 564.052 74.8837V84.7597H566.739V69.2H563.062L559.063 78.9752ZM569.284 73.5938H571.909V84.7597H569.284V73.5938ZM570.617 68.8775C570.172 68.8775 569.809 69.0387 569.506 69.3209C569.203 69.6031 569.041 69.9659 569.041 70.4093C569.041 70.8325 569.203 71.1953 569.506 71.4775C569.809 71.7597 570.172 71.9008 570.617 71.9008C571.061 71.9008 571.445 71.7395 571.728 71.4775C572.031 71.1953 572.192 70.8325 572.192 70.4093C572.192 69.986 572.031 69.6232 571.728 69.3209C571.465 69.0387 571.081 68.8775 570.617 68.8775ZM581.221 73.493C580.736 73.3922 580.231 73.3318 579.747 73.3318C578.555 73.3318 577.464 73.5938 576.555 74.1178C575.646 74.6418 574.919 75.3674 574.455 76.2744C573.97 77.2015 573.727 78.2698 573.727 79.4992C573.727 80.5674 573.97 81.5147 574.434 82.3814C574.899 83.2279 575.545 83.9132 576.414 84.3767C577.242 84.8403 578.211 85.0822 579.302 85.0822C580.555 85.0822 581.625 84.8201 582.473 84.3364L582.494 84.3163V81.8977L582.393 81.9783C582.009 82.2605 581.564 82.5023 581.12 82.6434C580.656 82.8046 580.231 82.8853 579.868 82.8853C578.817 82.8853 577.989 82.5829 577.404 81.9178C576.798 81.2729 576.495 80.386 576.495 79.2775C576.495 78.1287 576.798 77.2217 577.424 76.5566C578.05 75.8915 578.878 75.5488 579.888 75.5488C580.736 75.5488 581.605 75.831 582.393 76.3953L582.494 76.476V73.9163L582.473 73.8961C582.13 73.755 581.746 73.5938 581.221 73.493ZM589.886 73.4124C589.24 73.4124 588.634 73.6139 588.109 74.0372C587.664 74.4 587.361 74.924 587.099 75.5488H587.079V73.5938H584.453V84.7597H587.079V79.0558C587.079 78.0884 587.281 77.2822 587.725 76.6977C588.169 76.093 588.735 75.7907 589.422 75.7907C589.664 75.7907 589.907 75.8511 590.209 75.8915C590.492 75.9721 590.694 76.0527 590.836 76.1535L590.937 76.2341V73.6139L590.876 73.5938C590.694 73.4729 590.331 73.4124 589.886 73.4124ZM597.037 73.3519C595.199 73.3519 593.724 73.8961 592.694 74.9643C591.644 76.0325 591.139 77.5039 591.139 79.3581C591.139 81.0915 591.664 82.5023 592.674 83.5302C593.684 84.538 595.057 85.062 596.774 85.062C598.572 85.062 600.006 84.5178 601.036 83.4294C602.086 82.3411 602.591 80.8899 602.591 79.0961C602.591 77.3225 602.107 75.9116 601.117 74.8837C600.167 73.8558 598.774 73.3519 597.037 73.3519ZM599.137 81.938C598.653 82.5628 597.885 82.8651 596.936 82.8651C595.986 82.8651 595.219 82.5628 594.673 81.8977C594.128 81.2729 593.865 80.3659 593.865 79.217C593.865 78.0279 594.148 77.1209 594.673 76.476C595.219 75.831 595.966 75.5085 596.915 75.5085C597.845 75.5085 598.572 75.8108 599.097 76.4356C599.622 77.0604 599.905 77.9674 599.905 79.1566C599.864 80.3659 599.642 81.3132 599.137 81.938ZM608.449 78.2294C607.621 77.8868 607.096 77.6248 606.853 77.4031C606.651 77.2015 606.55 76.9194 606.55 76.5566C606.55 76.2542 606.671 75.9519 606.974 75.7504C607.277 75.5488 607.621 75.448 608.126 75.448C608.57 75.448 609.035 75.5287 609.479 75.6496C609.923 75.7705 610.327 75.9519 610.651 76.1938L610.752 76.2744V73.8155L610.691 73.7953C610.388 73.6744 609.984 73.5535 609.499 73.4527C609.014 73.3721 608.57 73.3318 608.207 73.3318C606.954 73.3318 605.924 73.6341 605.116 74.2992C604.308 74.924 603.924 75.7705 603.924 76.7581C603.924 77.2822 604.005 77.7457 604.187 78.1287C604.369 78.5116 604.631 78.8744 604.995 79.1767C605.358 79.4589 605.884 79.7814 606.611 80.0837C607.217 80.3457 607.681 80.5473 607.964 80.7085C608.247 80.8698 608.429 81.0511 608.57 81.1922C608.671 81.3535 608.732 81.555 608.732 81.817C608.732 82.5628 608.166 82.9256 607.015 82.9256C606.57 82.9256 606.106 82.8449 605.56 82.6636C605.015 82.4822 604.51 82.2201 604.086 81.9178L603.985 81.8372V84.3969L604.046 84.417C604.429 84.5984 604.894 84.7194 605.459 84.8605C606.025 84.9612 606.53 85.0418 606.974 85.0418C608.328 85.0418 609.439 84.7395 610.226 84.0744C611.034 83.4294 611.458 82.6031 611.458 81.5349C611.458 80.7891 611.257 80.124 610.812 79.6201C610.226 79.1364 609.499 78.6325 608.449 78.2294ZM618.387 73.3519C616.549 73.3519 615.074 73.8961 614.044 74.9643C613.014 76.0325 612.489 77.5039 612.489 79.3581C612.489 81.0915 613.014 82.5023 614.024 83.5302C615.034 84.538 616.407 85.062 618.124 85.062C619.922 85.062 621.356 84.5178 622.386 83.4294C623.436 82.3411 623.941 80.8899 623.941 79.0961C623.941 77.3225 623.456 75.9116 622.467 74.8837C621.517 73.8558 620.124 73.3519 618.387 73.3519ZM620.467 81.938C619.982 82.5628 619.215 82.8651 618.265 82.8651C617.296 82.8651 616.549 82.5628 616.003 81.8977C615.458 81.2729 615.195 80.3659 615.195 79.217C615.195 78.0279 615.478 77.1209 616.003 76.476C616.549 75.831 617.296 75.5085 618.245 75.5085C619.154 75.5085 619.902 75.8108 620.427 76.4356C620.952 77.0604 621.235 77.9674 621.235 79.1566C621.235 80.3659 620.972 81.3132 620.467 81.938ZM637.979 75.7504V73.5938H635.333V70.2884L635.253 70.3085L632.748 71.0542L632.687 71.0744V73.5938H628.728V72.1829C628.728 71.538 628.89 71.0341 629.173 70.7116C629.456 70.3891 629.88 70.2279 630.405 70.2279C630.768 70.2279 631.152 70.3085 631.576 70.4899L631.677 70.5504V68.2729L631.617 68.2527C631.253 68.1318 630.768 68.0511 630.142 68.0511C629.355 68.0511 628.668 68.2325 628.042 68.5349C627.415 68.8775 626.951 69.3411 626.607 69.9659C626.264 70.5705 626.082 71.2558 626.082 72.0418V73.5938H624.244V75.7302H626.082V84.7597H628.728V75.7504H632.687V81.4946C632.687 83.8527 633.798 85.0418 636.02 85.0418C636.384 85.0418 636.767 84.9814 637.131 84.9209C637.515 84.8403 637.798 84.7395 637.959 84.6589L637.979 84.6387V82.4822L637.878 82.5628C637.717 82.6636 637.575 82.7442 637.333 82.8046C637.131 82.8651 636.949 82.8853 636.808 82.8853C636.283 82.8853 635.919 82.7643 635.657 82.462C635.414 82.1798 635.293 81.7163 635.293 81.031V75.7504H637.979Z" fill="#737373"/>
<path d="M516 64H528.382V76.355H516V64Z" fill="#F25022"/>
<path d="M529.675 64H542.057V76.355H529.675V64Z" fill="#7FBA00"/>
<path d="M516 77.645H528.382V90H516V77.645Z" fill="#00A4EF"/>
<path d="M529.675 77.645H542.057V90H529.675V77.645Z" fill="#FFB900"/>
</g>
<g clip-path="url(#clip4)">
<path d="M741.502 73.2478V74.7213H741.547C742.077 73.9324 742.957 73.0033 744.908 73.0033C746.426 73.0033 747.591 73.7759 748.09 74.943H748.135C748.561 74.3529 749.05 73.9063 749.597 73.5901C750.245 73.2152 750.966 73.0001 751.874 73.0001C753.929 73.0001 755.748 74.3366 755.748 77.7074V84.1001H752.615V78.154C752.615 76.4458 751.999 75.4581 750.716 75.4581C749.777 75.4581 749.095 76.0514 748.835 76.7816C748.745 77.0326 748.703 77.3749 748.703 77.6617V84.1033H745.57V77.9128C745.57 76.4621 744.978 75.4548 743.713 75.4548C742.701 75.4548 742.067 76.2046 741.807 76.8468C741.696 77.1206 741.661 77.4368 741.661 77.7335V84.1001H738.525V73.2478H741.502ZM771.918 73.2478V75.2951H772.004C772.579 73.7303 773.945 73.0033 775.144 73.0033C775.445 73.0033 775.612 73.0262 775.854 73.0718V75.9144C775.567 75.8753 775.3 75.8362 774.926 75.8362C773.567 75.8362 772.621 76.5795 772.382 77.7432C772.33 77.9845 772.313 78.2453 772.313 78.5452V84.1033H769.097V73.2478H771.918ZM780.221 69.6522V73.0685H782.938V75.8329H780.221V79.9111C780.221 81.2313 780.578 81.8703 781.638 81.8703C782.137 81.8703 782.504 81.8116 782.823 81.7366L782.865 84.0283C782.438 84.1783 781.531 84.3413 780.609 84.3413C779.524 84.3413 778.62 83.986 778.069 83.435C777.438 82.8059 777.147 81.7757 777.147 80.3088V69.6522H780.221ZM736.342 84.1001H733.223V69.6522H736.342V84.1001ZM728.025 80.224C728.025 80.4229 728.008 80.6315 727.949 80.8108C727.706 81.5639 726.878 82.1995 725.845 82.1995C724.982 82.1995 724.296 81.7399 724.296 80.7652C724.296 79.2754 726.043 78.8614 728.028 78.8712V80.224H728.025ZM731.14 77.6259C731.14 75.1647 730.025 73.0033 726.251 73.0033C724.314 73.0033 722.775 73.5151 721.936 73.9715L722.55 75.947C723.316 75.4907 724.539 75.1158 725.696 75.1158C727.613 75.1125 727.925 76.1361 727.925 76.7914V76.9478C723.749 76.9413 721.112 78.3007 721.112 81.0716C721.112 82.7635 722.453 84.3478 724.788 84.3478C726.226 84.3478 727.426 83.8099 728.146 82.9461H728.216C728.216 82.9461 728.694 84.8205 731.321 84.1033C731.182 83.3209 731.137 82.4897 731.137 81.4889V77.6259H731.14ZM705.445 69.6522C705.767 71.1811 706.682 75.621 706.682 75.621C707.066 77.4466 707.42 79.3602 707.687 80.8728H707.735C707.995 79.2656 708.404 77.7432 708.841 75.859L710.383 69.6522H713.796L715.238 76.0188C715.615 77.7889 715.917 79.1548 716.156 80.801H716.201C716.461 79.1385 716.801 77.7172 717.171 75.8981L718.558 69.6522H721.832L717.774 84.1001C715.189 84.6314 714.198 83.6535 713.845 82.1017C713.491 80.5468 712.798 77.59 712.798 77.59C712.441 75.9699 712.164 74.8289 711.97 73.1663H711.921C711.644 74.8126 711.353 75.9666 710.923 77.5868L709.222 84.1033C706.581 84.5988 705.666 83.8653 705.16 81.8735C704.724 80.1686 702 69.6554 702 69.6554H705.445V69.6522ZM763.899 80.224C763.899 80.4229 763.881 80.6315 763.822 80.8108C763.58 81.5639 762.752 82.1995 761.719 82.1995C760.856 82.1995 760.17 81.7399 760.17 80.7652C760.17 79.2754 761.916 78.8614 763.902 78.8712V80.224H763.899ZM767.014 77.6259C767.014 75.1647 765.898 73.0033 762.124 73.0033C760.187 73.0033 758.649 73.5151 757.81 73.9715L758.423 75.947C759.189 75.4907 760.413 75.1158 761.57 75.1158C763.483 75.1125 763.798 76.1361 763.798 76.7914V76.9478C759.626 76.9413 756.989 78.3007 756.989 81.0716C756.989 82.7635 758.333 84.3478 760.665 84.3478C762.1 84.3478 763.303 83.8099 764.02 82.9461H764.093C764.093 82.9461 764.571 84.8205 767.198 84.1033C767.059 83.3209 767.014 82.4897 767.014 81.4889V77.6259Z" fill="#041E42"/>
<path d="M795.58 79.1241C795.888 79.6517 795.867 80.2406 795.539 80.5096L789.867 84.4276C789.276 84.7646 788.392 84.3561 787.891 83.5017C787.387 82.6439 787.477 81.6874 788.067 81.3504L794.347 78.4705C794.741 78.3208 795.273 78.5965 795.58 79.1241ZM803.045 79.1241C803.356 78.5965 803.884 78.3242 804.278 78.4671L810.561 81.3469C811.152 81.6839 811.238 82.6405 810.737 83.4983C810.233 84.3527 809.345 84.7578 808.758 84.4242L803.086 80.5062C802.762 80.2406 802.737 79.6483 803.045 79.1241ZM799.311 81.2482C799.929 81.2482 800.437 81.5614 800.506 81.9733L801.117 88.7745C801.117 89.4485 800.319 90 799.314 90C798.313 90 797.511 89.4485 797.511 88.7745L798.119 81.9733C798.188 81.5614 798.696 81.2482 799.311 81.2482ZM803.086 73.4938L808.758 69.5724C809.345 69.2354 810.233 69.6405 810.737 70.4983C811.238 71.3561 811.152 72.3126 810.561 72.6496L804.278 75.5329C803.884 75.6758 803.352 75.4035 803.045 74.8759C802.737 74.3483 802.762 73.7594 803.086 73.4938ZM794.347 75.5329L788.067 72.6496C787.48 72.3126 787.39 71.3561 787.891 70.4983C788.392 69.6405 789.28 69.2354 789.867 69.5724L795.539 73.4938C795.867 73.756 795.888 74.3483 795.58 74.8759C795.273 75.4035 794.741 75.6758 794.347 75.5329ZM798.119 72.0267L797.511 65.2255C797.511 64.5515 798.309 64 799.314 64C800.319 64 801.117 64.5515 801.117 65.2255L800.506 72.0267C800.437 72.4352 799.929 72.7518 799.311 72.7518C798.696 72.7518 798.188 72.4352 798.119 72.0267ZM812.271 84.4004V84.2302H812.427C812.478 84.2302 812.513 84.2642 812.513 84.3153C812.513 84.3629 812.478 84.4004 812.427 84.4004H812.271ZM812.143 84.7101C812.143 84.7272 812.157 84.7442 812.178 84.7442H812.244C812.261 84.7442 812.278 84.7272 812.278 84.7101V84.5161H812.385L812.472 84.7203C812.478 84.734 812.489 84.7442 812.503 84.7442H812.582C812.606 84.7442 812.624 84.7203 812.613 84.6965C812.582 84.6352 812.551 84.5706 812.52 84.5059C812.572 84.4889 812.651 84.4378 812.651 84.3153C812.651 84.1859 812.544 84.111 812.437 84.111H812.178C812.161 84.111 812.143 84.128 812.143 84.1451V84.7101ZM811.864 84.4276C811.864 84.1519 812.092 83.9272 812.371 83.9272C812.651 83.9272 812.879 84.1485 812.879 84.4276C812.879 84.7033 812.655 84.928 812.371 84.928C812.088 84.928 811.864 84.7033 811.864 84.4276ZM811.743 84.4276C811.743 84.768 812.022 85.0471 812.371 85.0471C812.717 85.0471 813 84.768 813 84.4276C813 84.0872 812.717 83.8081 812.371 83.8081C812.022 83.8081 811.743 84.0872 811.743 84.4276Z" fill="#FFC124"/>
</g>
</g>
<defs>
<clipPath id="clip0">
<rect width="811" height="60" fill="white" transform="translate(66 47)"/>
</clipPath>
<clipPath id="clip1">
<rect width="90" height="28" fill="white" transform="translate(66 63)"/>
</clipPath>
<clipPath id="clip2">
<rect width="84" height="24" fill="white" transform="translate(220 65)"/>
</clipPath>
<clipPath id="clip3">
<rect width="122" height="26" fill="white" transform="translate(516 64)"/>
</clipPath>
<clipPath id="clip4">
<rect width="111" height="26" fill="white" transform="translate(702 64)"/>
</clipPath>
</defs>
</svg>
