<svg xmlns="http://www.w3.org/2000/svg" width="96" height="96" viewBox="0 0 96 96">
  <g id="Simplify_conversion" transform="translate(6075 403)">
    <g id="Group_100547" data-name="Group 100547" transform="translate(-54.002 -12.432)">
      <path id="Path_90798" data-name="Path 90798" d="M801.973,61.352v35.94h35.756V61.352Zm-44.7,35.94h35.756V61.352H757.277Zm0-80.864V52.367h35.756V16.427Z" transform="translate(-6770.5 -399.427)" fill="#414141"/>
      <g id="auto_awesome_black_24dp" transform="translate(-5968.276 -381.987)">
        <path id="Path_90805" data-name="Path 90805" d="M0,0H35.5V35.5H0Z" fill="none"/>
        <path id="Path_90806" data-name="Path 90806" d="M27.629,12.835l1.85-4.069,4.068-1.848L29.478,5.069,27.629,1l-1.85,4.069L21.712,6.917l4.069,1.85Zm-11.1.737-3.7-8.133-3.7,8.137L1,17.273l8.137,3.7,3.7,8.137,3.7-8.137,8.137-3.7Zm11.1,8.137-1.85,4.069-4.069,1.85,4.069,1.85,1.85,4.07,1.85-4.069,4.068-1.848-4.069-1.85Z" transform="translate(0.48 0.48)" fill="#20c58b"/>
      </g>
    </g>
    <rect id="Rectangle_139143" data-name="Rectangle 139143" width="96" height="96" transform="translate(-6075 -403)" fill="none"/>
  </g>
</svg>
