<svg xmlns="http://www.w3.org/2000/svg" width="96" height="96" viewBox="0 0 96 96">
  <g id="Send_ineractive_AMP_Emails" transform="translate(6747 439)">
    <rect id="Rectangle_139143" data-name="Rectangle 139143" width="96" height="96" transform="translate(-6747 -439)" fill="none"/>
    <g id="Group_100543" data-name="Group 100543" transform="translate(21.091 -11.909)">
      <path id="Path_90801" data-name="Path 90801" d="M22.362,45.961V15.922H72.89V45.961l8.422-4.813V7.5H13.94V41.147Z" transform="translate(-6768.518 -428.5)" fill="#414141"/>
      <path id="Path_90802" data-name="Path 90802" d="M63.359,53.171h-27.5L7.5,36.967V74.224a8.422,8.422,0,0,0,8.422,8.422H83.293a8.422,8.422,0,0,0,8.422-8.422V36.967Z" transform="translate(-6770.5 -419.431)" fill="#414141"/>
      <path id="Path_90803" data-name="Path 90803" d="M43.662,49.842S60.5,37.593,60.5,28.52c0-8.615-13.1-12.363-16.843-1.044C39.919,16.154,26.819,19.9,26.819,28.52,26.819,37.593,43.662,49.842,43.662,49.842Z" transform="translate(-6764.555 -424.525)" fill="#20c58b"/>
    </g>
  </g>
</svg>
