<svg width="7" height="12" viewBox="0 0 7 12" fill="none" xmlns="http://www.w3.org/2000/svg">
<path d="M6.39777 5.64865L0.360269 0.933029C0.344493 0.920608 0.325533 0.91289 0.305568 0.910759C0.285603 0.908628 0.265441 0.912172 0.247399 0.920983C0.229357 0.929794 0.214166 0.943516 0.203571 0.960571C0.192976 0.977627 0.187406 0.997325 0.187501 1.0174V2.05267C0.187501 2.1183 0.218305 2.18124 0.269198 2.22142L5.09063 5.98615L0.269198 9.75089C0.216966 9.79106 0.187501 9.85401 0.187501 9.91964V10.9549C0.187501 11.0446 0.290626 11.0942 0.360269 11.0393L6.39777 6.32365C6.44908 6.28363 6.4906 6.23242 6.51915 6.17394C6.5477 6.11546 6.56254 6.05123 6.56254 5.98615C6.56254 5.92107 6.5477 5.85685 6.51915 5.79837C6.4906 5.73988 6.44908 5.68868 6.39777 5.64865Z" fill="black"/>
</svg>
