<svg width="24" height="25" viewBox="0 0 24 25" fill="none" xmlns="http://www.w3.org/2000/svg">
<path d="M12 5.22672V3.10156L17 6.22672L12 9.35187V7.22672C8.69 7.22672 6 9.91672 6 13.2267C6 16.5367 8.69 19.2267 12 19.2267C15.31 19.2267 18 16.5367 18 13.2267H20C20 17.6467 16.42 21.2267 12 21.2267C7.58 21.2267 4 17.6467 4 13.2267C4 8.80672 7.58 5.22672 12 5.22672Z" fill="black"/>
<path d="M9.63984 15.7705C9.3164 15.7705 9.02344 15.7142 8.76094 15.6017C8.49844 15.4845 8.2875 15.3064 8.12812 15.0673C7.96875 14.8283 7.88437 14.5283 7.875 14.1673H8.76094C8.76562 14.4064 8.84297 14.608 8.99297 14.772C9.14766 14.9314 9.36328 15.0111 9.63984 15.0111C9.90234 15.0111 10.1039 14.9384 10.2445 14.7931C10.3852 14.6478 10.4555 14.465 10.4555 14.2447C10.4555 13.9869 10.3617 13.7923 10.1742 13.6611C9.99141 13.5252 9.75469 13.4572 9.46406 13.4572H9.09844V12.7189H9.47109C9.71016 12.7189 9.90937 12.6627 10.0687 12.5502C10.2281 12.4377 10.3078 12.2712 10.3078 12.0509C10.3078 11.8681 10.2469 11.7228 10.125 11.615C10.0078 11.5025 9.84375 11.4462 9.63281 11.4462C9.40312 11.4462 9.22265 11.5142 9.0914 11.6502C8.96484 11.7861 8.89453 11.9525 8.88047 12.1494H8.00156C8.02031 11.6947 8.17734 11.3361 8.47266 11.0736C8.77266 10.8111 9.15937 10.6798 9.63281 10.6798C9.97031 10.6798 10.2539 10.7408 10.4836 10.8627C10.718 10.9798 10.8937 11.1369 11.0109 11.3337C11.1328 11.5306 11.1937 11.7486 11.1937 11.9877C11.1937 12.2642 11.1164 12.4986 10.9617 12.6908C10.8117 12.8783 10.6242 13.0048 10.3992 13.0705C10.6758 13.1267 10.9008 13.2627 11.0742 13.4783C11.2477 13.6892 11.3344 13.9564 11.3344 14.2798C11.3344 14.5517 11.2687 14.8002 11.1375 15.0252C11.0062 15.2502 10.8141 15.4306 10.5609 15.5666C10.3125 15.7025 10.0055 15.7705 9.63984 15.7705Z" fill="black"/>
<path d="M14.1307 15.7705C13.676 15.7705 13.287 15.665 12.9635 15.4541C12.6401 15.2384 12.3893 14.9408 12.2112 14.5611C12.0378 14.1767 11.951 13.7314 11.951 13.2252C11.951 12.7236 12.0378 12.2806 12.2112 11.8962C12.3893 11.5119 12.6401 11.2142 12.9635 11.0033C13.287 10.7877 13.676 10.6798 14.1307 10.6798C14.5854 10.6798 14.9745 10.7877 15.2979 11.0033C15.6213 11.2142 15.8698 11.5119 16.0432 11.8962C16.2213 12.2806 16.3104 12.7236 16.3104 13.2252C16.3104 13.7314 16.2213 14.1767 16.0432 14.5611C15.8698 14.9408 15.6213 15.2384 15.2979 15.4541C14.9745 15.665 14.5854 15.7705 14.1307 15.7705ZM14.1307 14.9619C14.501 14.9619 14.8034 14.8072 15.0378 14.4978C15.2721 14.1884 15.3893 13.7642 15.3893 13.2252C15.3893 12.6861 15.2721 12.2619 15.0378 11.9525C14.8034 11.6431 14.501 11.4884 14.1307 11.4884C13.7557 11.4884 13.451 11.6431 13.2167 11.9525C12.987 12.2619 12.8721 12.6861 12.8721 13.2252C12.8721 13.7642 12.987 14.1884 13.2167 14.4978C13.451 14.8072 13.7557 14.9619 14.1307 14.9619Z" fill="black"/>
</svg>
