<svg width="24" height="25" viewBox="0 0 24 25" fill="none" xmlns="http://www.w3.org/2000/svg">
<path d="M12 5.22672V3.10156L7 6.22672L12 9.35187V7.22672C15.31 7.22672 18 9.91672 18 13.2267C18 16.5367 15.31 19.2267 12 19.2267C8.69 19.2267 6 16.5367 6 13.2267H4C4 17.6467 7.58 21.2267 12 21.2267C16.42 21.2267 20 17.6467 20 13.2267C20 8.80672 16.42 5.22672 12 5.22672Z" fill="black"/>
<path d="M9.4336 15.6861V11.7908L8.625 11.9806V11.2916L9.81328 10.7642H10.3688V15.6861H9.4336Z" fill="black"/>
<path d="M13.2356 15.7705C12.7809 15.7705 12.3918 15.665 12.0684 15.4541C11.745 15.2384 11.4942 14.9408 11.316 14.5611C11.1426 14.1767 11.0559 13.7314 11.0559 13.2252C11.0559 12.7236 11.1426 12.2806 11.316 11.8962C11.4942 11.5119 11.745 11.2142 12.0684 11.0033C12.3918 10.7877 12.7809 10.6798 13.2356 10.6798C13.6903 10.6798 14.0793 10.7877 14.4028 11.0033C14.7262 11.2142 14.9746 11.5119 15.1481 11.8962C15.3262 12.2806 15.4153 12.7236 15.4153 13.2252C15.4153 13.7314 15.3262 14.1767 15.1481 14.5611C14.9746 14.9408 14.7262 15.2384 14.4028 15.4541C14.0793 15.665 13.6903 15.7705 13.2356 15.7705ZM13.2356 14.9619C13.6059 14.9619 13.9082 14.8072 14.1426 14.4978C14.377 14.1884 14.4942 13.7642 14.4942 13.2252C14.4942 12.6861 14.377 12.2619 14.1426 11.9525C13.9082 11.6431 13.6059 11.4884 13.2356 11.4884C12.8606 11.4884 12.5559 11.6431 12.3215 11.9525C12.0918 12.2619 11.977 12.6861 11.977 13.2252C11.977 13.7642 12.0918 14.1884 12.3215 14.4978C12.5559 14.8072 12.8606 14.9619 13.2356 14.9619Z" fill="black"/>
</svg>
