<svg width="30" height="30" viewBox="0 0 30 30" fill="none" xmlns="http://www.w3.org/2000/svg">
<path d="M22.8335 5.84431C22.8376 5.84431 22.8417 5.8443 22.8459 5.8443C26.2458 5.8443 29.002 8.98414 29.002 12.8573C29.002 16.1251 27.0401 18.8709 24.3849 19.6494V26.8834C24.3849 27.5289 23.9256 28.0522 23.3589 28.0522H22.3329C21.7662 28.0522 21.3069 27.5289 21.3069 26.8834V19.6494C20.4395 19.3951 19.6461 18.9308 18.9709 18.307C21.6042 16.4539 23.3589 13.1358 23.3589 9.35081C23.3589 8.12131 23.1737 6.94107 22.8335 5.84431Z" fill="#786AFF"/>
<path d="M4.89068 9.37976C4.89995 13.3117 6.80286 16.7365 9.6153 18.5329C8.97336 19.5821 8.03704 20.3802 6.94269 20.7717V26.8835C6.94269 27.529 6.48333 28.0523 5.91667 28.0523H4.89065C4.32399 28.0523 3.86463 27.529 3.86463 26.8835V20.7717C1.78329 20.027 0.273556 17.8119 0.273556 15.1951C0.273556 12.1647 2.29826 9.67296 4.89068 9.37976Z" fill="#C4C4C4"/>
<path d="M12.5829 18.5372C8.78534 17.7166 5.91381 13.9156 5.91381 9.35064C5.91381 4.18639 9.58873 -6.10352e-05 14.122 -6.10352e-05C18.6552 -6.10352e-05 22.3301 4.18639 22.3301 9.35064C22.3301 13.9156 19.4586 17.7166 15.661 18.5372V28.052C15.661 28.6976 15.2016 29.2209 14.635 29.2209H13.609C13.0423 29.2209 12.5829 28.6976 12.5829 28.052V18.5372Z" fill="#E6E6E6"/>
</svg>
