<svg width="58" height="49" viewBox="0 0 58 49" fill="none" xmlns="http://www.w3.org/2000/svg">
<path d="M35.907 29.2481H13.0535C10.6282 29.2481 8.66211 31.231 8.66211 33.6771V43.4315C8.66211 45.8775 10.6282 47.8605 13.0535 47.8605H35.907C38.3324 47.8605 40.2985 45.8775 40.2985 43.4315V33.6771C40.2985 31.231 38.3324 29.2481 35.907 29.2481Z" stroke="black" stroke-width="2" stroke-miterlimit="10" stroke-linecap="round"/>
<path d="M28.3738 1.13954H5.52033C3.09502 1.13954 1.12891 3.12247 1.12891 5.56853V15.323C1.12891 17.769 3.09502 19.7519 5.52033 19.7519H28.3738C30.7992 19.7519 32.7653 17.769 32.7653 15.323V5.56853C32.7653 3.12247 30.7992 1.13954 28.3738 1.13954Z" stroke="black" stroke-width="2" stroke-miterlimit="10" stroke-linecap="round"/>
<path d="M52.4788 6.45737H42.4305C40.0052 6.45737 38.0391 8.44029 38.0391 10.8864V20.6408C38.0391 23.0868 40.0052 25.0698 42.4305 25.0698H52.4788C54.9041 25.0698 56.8702 23.0868 56.8702 20.6408V10.8864C56.8702 8.44029 54.9041 6.45737 52.4788 6.45737Z" stroke="#20C58B" stroke-width="2" stroke-miterlimit="10" stroke-linecap="round"/>
<path d="M20.3379 19.7519V27.5995" stroke="black" stroke-width="2" stroke-miterlimit="10" stroke-linecap="round"/>
<path d="M9.03906 7.97675H23.1022" stroke="black" stroke-width="2" stroke-miterlimit="10" stroke-linecap="round"/>
<path d="M9.03906 12.5349H17.8295" stroke="black" stroke-width="2" stroke-miterlimit="10" stroke-linecap="round"/>
<path d="M16.5723 36.0853H30.6354" stroke="black" stroke-width="2" stroke-miterlimit="10" stroke-linecap="round"/>
<path d="M16.5723 40.6434H25.3627" stroke="black" stroke-width="2" stroke-miterlimit="10" stroke-linecap="round"/>
<path d="M42.3398 15.9535H52.6292" stroke="#20C58B" stroke-width="2" stroke-miterlimit="10" stroke-linecap="round"/>
<path d="M47.4844 10.7648V21.1422" stroke="#20C58B" stroke-width="2" stroke-miterlimit="10" stroke-linecap="round"/>
</svg>
