<svg width="64" height="46" viewBox="0 0 64 46" fill="none" xmlns="http://www.w3.org/2000/svg">
<path d="M24.6365 10.6517L35.0958 16.6219C35.4591 16.8293 35.7611 17.129 35.9711 17.4905C36.1812 17.8521 36.2918 18.2626 36.2918 18.6806C36.2918 19.0986 36.1812 19.5091 35.9711 19.8707C35.7611 20.2322 35.4591 20.5319 35.0958 20.7393L20.1321 29.279C19.7735 29.4814 19.3685 29.5878 18.9564 29.5878C18.5444 29.5878 18.1394 29.4814 17.7807 29.279L2.81711 20.7393C2.45377 20.5319 2.15181 20.2322 1.94178 19.8707C1.73174 19.5091 1.62109 19.0986 1.62109 18.6806C1.62109 18.2626 1.73174 17.8521 1.94178 17.4905C2.15181 17.129 2.45377 16.8293 2.81711 16.6219L13.2764 10.6517" stroke="black" stroke-width="2" stroke-linecap="round" stroke-linejoin="round"/>
<path d="M36.7747 27.8303L18.9634 38.0017L1.14453 27.8303" stroke="black" stroke-width="2" stroke-linecap="round" stroke-linejoin="round"/>
<path d="M36.7747 34.6925L18.9634 44.8639L1.14453 34.6925" stroke="black" stroke-width="2" stroke-linecap="round" stroke-linejoin="round"/>
<path d="M18.957 1.14371V21.2196" stroke="#20C58B" stroke-width="2" stroke-miterlimit="10" stroke-linecap="round"/>
<path d="M12.9258 18.1697L18.9647 21.9821L25.0723 18.1697" stroke="#20C58B" stroke-width="2" stroke-miterlimit="10" stroke-linecap="round"/>
<path d="M49.1132 20.5868C52.908 20.5868 55.9843 17.5144 55.9843 13.7245C55.9843 9.9346 52.908 6.86226 49.1132 6.86226C45.3185 6.86226 42.2422 9.9346 42.2422 13.7245C42.2422 17.5144 45.3185 20.5868 49.1132 20.5868Z" stroke="#20C58B" stroke-width="2" stroke-miterlimit="10" stroke-linecap="round"/>
<path d="M39.3945 25.3675C41.3164 23.4475 43.7653 22.1398 46.4314 21.61C49.0975 21.0801 51.8611 21.352 54.3725 22.391C56.884 23.43 59.0304 25.1896 60.5404 27.4472C62.0503 29.7048 62.856 32.3589 62.8553 35.0738" stroke="#20C58B" stroke-width="2" stroke-miterlimit="10" stroke-linecap="round"/>
<circle cx="49" cy="14" r="6" fill="#D7FFF1"/>
</svg>
