<svg width="58" height="48" viewBox="0 0 58 48" fill="none" xmlns="http://www.w3.org/2000/svg">
<path fill-rule="evenodd" clip-rule="evenodd" d="M41.6213 33.8403H39.1935L38.888 33.6616C38.9605 33.4545 39 33.2319 39 33V18C39 16.8954 38.1046 16 37 16H8.69231L7.99023 15.5894V12.403C7.99023 11.2312 8.4561 10.1075 9.28534 9.27887C10.1146 8.45029 11.2392 7.98479 12.412 7.98479H41.6213C42.794 7.98479 43.9186 8.45029 44.7479 9.27887C45.5771 10.1075 46.043 11.2312 46.043 12.403V29.4221C46.043 30.5938 45.5771 31.7176 44.7479 32.5462C43.9186 33.3748 42.794 33.8403 41.6213 33.8403Z" fill="#D7FFF1"/>
<path d="M45.282 26.9962H48.4709C49.6436 26.9962 50.7683 26.5307 51.5975 25.7021C52.4267 24.8735 52.8926 23.7497 52.8926 22.5779V5.55894C52.8926 4.38714 52.4267 3.26335 51.5975 2.43477C50.7683 1.60619 49.6436 1.14069 48.4709 1.14069H19.2616C18.0889 1.14069 16.9642 1.60619 16.1349 2.43477C15.3057 3.26335 14.8398 4.38714 14.8398 5.55894V8.74525" stroke="black" stroke-width="2" stroke-miterlimit="10"/>
<path d="M39.1935 33.8403H41.6213C42.794 33.8403 43.9186 33.3748 44.7479 32.5462C45.5771 31.7176 46.043 30.5938 46.043 29.4221V12.403C46.043 11.2312 45.5771 10.1075 44.7479 9.27887C43.9186 8.45029 42.794 7.98479 41.6213 7.98479H12.412C11.2392 7.98479 10.1146 8.45029 9.28534 9.27887C8.4561 10.1075 7.99023 11.2312 7.99023 12.403V15.5894" stroke="#20C58B" stroke-width="2" stroke-miterlimit="10" stroke-linecap="round"/>
<path d="M34.7716 15.5894H5.56235C3.1203 15.5894 1.14062 17.5675 1.14062 20.0076V37.0266C1.14062 39.4667 3.1203 41.4449 5.56235 41.4449H34.7716C37.2137 41.4449 39.1934 39.4667 39.1934 37.0266V20.0076C39.1934 17.5675 37.2137 15.5894 34.7716 15.5894Z" stroke="black" stroke-width="2" stroke-miterlimit="10"/>
<path d="M38.8145 20.9126L19.7881 32.3194L0.761719 20.9126" stroke="black" stroke-width="2" stroke-miterlimit="10"/>
<path d="M45.1914 40.8441H54.5752" stroke="black" stroke-width="2" stroke-linecap="round" stroke-linejoin="round"/>
<path d="M51.5312 46.8593L56.8586 40.8441L51.5312 34.7605" stroke="black" stroke-width="2" stroke-linecap="round" stroke-linejoin="round"/>
</svg>
