<svg width="49" height="54" viewBox="0 0 49 54" fill="none" xmlns="http://www.w3.org/2000/svg">
<path d="M36 12H47V44.6757L41.5 51L36 44.6757V12Z" fill="#D7FFF1"/>
<path d="M41.7266 31.9604V17.0028" stroke="#20C58B" stroke-width="2" stroke-miterlimit="10" stroke-linecap="round"/>
<path d="M34.9814 40.8282H5.59672C4.41696 40.8282 3.28553 40.361 2.45132 39.5295C1.6171 38.698 1.14844 37.5702 1.14844 36.3943V19.3151C1.14844 18.1392 1.6171 17.0115 2.45132 16.1799C3.28553 15.3484 4.41696 14.8813 5.59672 14.8813H34.9814" stroke="black" stroke-width="2" stroke-miterlimit="10" stroke-linecap="round"/>
<path d="M34.8359 23.2759L20.6719 31.6704L1.53125 20.2233" stroke="black" stroke-width="2" stroke-miterlimit="10" stroke-linecap="round"/>
<path d="M47.8516 11.0656V45.407L41.7266 52.2753L35.6016 45.407V11.0656H47.8516Z" stroke="#20C58B" stroke-width="2" stroke-miterlimit="10" stroke-linecap="round"/>
<path d="M35.6016 10.684V7.24986C35.6016 5.63068 36.2469 4.07781 37.3955 2.93287C38.5442 1.78793 40.1021 1.14472 41.7266 1.14472C43.351 1.14472 44.9089 1.78793 46.0576 2.93287C47.2063 4.07781 47.8516 5.63068 47.8516 7.24986V10.684H35.6016Z" stroke="#20C58B" stroke-width="2" stroke-miterlimit="10" stroke-linecap="round"/>
</svg>
