<svg xmlns="http://www.w3.org/2000/svg" width="59" height="58" viewBox="0 0 59 58"><defs><style>.a{fill:#00d1b6;opacity:0;}.b{fill:#fff;}</style></defs><g transform="translate(0.284 -0.212)"><rect class="a" width="59" height="58" transform="translate(-0.284 0.212)"/><path class="b" d="M38.14,25.225V54.346A1.78,1.78,0,0,1,36.3,56.059H17.89a1.78,1.78,0,0,1-1.841-1.713V25.225H3.175a.924.924,0,0,1-.852-.529.814.814,0,0,1,.2-.934L27.095.9,51.664,23.762a.814.814,0,0,1,.2.934.924.924,0,0,1-.852.529Z" transform="translate(2.935 0.627)"/></g></svg>