<svg xmlns="http://www.w3.org/2000/svg" width="86.222" height="88.306" viewBox="0 0 86.222 88.306"><defs><style>.a{fill:#f9f6f6;}.b{fill:#dddaec;}.c{fill:#20c58b;}.d{fill:#0dee9f;}.e{fill:#26457d;}.f{fill:#786aff;}.g{fill:#fff;}.h{fill:#d0cee7;}.i{fill:#9c92ff;}.j{fill:#21386b;}</style></defs><g transform="translate(-6.041 0)"><path class="a" d="M68.641,88.306H7.846a1.8,1.8,0,0,1-1.8-1.8V1.8A1.8,1.8,0,0,1,7.846,0H68.641a1.8,1.8,0,0,1,1.8,1.8V86.5A1.805,1.805,0,0,1,68.641,88.306Z" transform="translate(0 0)"/><path class="b" d="M351.356,0H347.68a1.805,1.805,0,0,1,1.805,1.805V86.5a1.805,1.805,0,0,1-1.805,1.805h3.676a1.805,1.805,0,0,0,1.8-1.805V1.805A1.8,1.8,0,0,0,351.356,0Z" transform="translate(-282.716)"/><path class="c" d="M113.276,55.077H70.349a1.539,1.539,0,0,1-1.539-1.539V48.686a1.539,1.539,0,0,1,1.539-1.539h42.926a1.539,1.539,0,0,1,1.539,1.539v4.851A1.539,1.539,0,0,1,113.276,55.077Z" transform="translate(-51.943 -39.015)"/><path class="d" d="M309.283,47.146h-3.614a1.539,1.539,0,0,1,1.539,1.539v4.851a1.539,1.539,0,0,1-1.539,1.539h3.614a1.539,1.539,0,0,0,1.539-1.539V48.685A1.539,1.539,0,0,0,309.283,47.146Z" transform="translate(-247.95 -39.015)"/><g transform="translate(18.403 21.834)"><path class="e" d="M119.319,129.258H79.051a1.332,1.332,0,1,1,0-2.664h40.268a1.332,1.332,0,0,1,0,2.664Z" transform="translate(-77.719 -126.594)"/><g transform="translate(0 10.084)"><path class="e" d="M115.056,187.724h-36a1.332,1.332,0,1,1,0-2.664h36a1.332,1.332,0,1,1,0,2.664Z" transform="translate(-77.719 -185.06)"/></g><g transform="translate(0 20.167)"><path class="e" d="M119.319,246.189H79.051a1.332,1.332,0,1,1,0-2.664h40.268a1.332,1.332,0,1,1,0,2.664Z" transform="translate(-77.719 -243.525)"/></g><g transform="translate(0 30.251)"><path class="e" d="M119.319,304.654H79.051a1.332,1.332,0,0,1,0-2.664h40.268a1.332,1.332,0,0,1,0,2.664Z" transform="translate(-77.719 -301.99)"/></g><g transform="translate(0 40.335)"><path class="e" d="M119.319,363.12H79.051a1.332,1.332,0,0,1,0-2.664h40.268a1.332,1.332,0,0,1,0,2.664Z" transform="translate(-77.719 -360.456)"/></g><g transform="translate(0 50.418)"><path class="e" d="M119.319,421.586H79.051a1.332,1.332,0,1,1,0-2.664h40.268a1.332,1.332,0,1,1,0,2.664Z" transform="translate(-77.719 -418.922)"/></g></g><path class="f" d="M207.6,187.947a18.036,18.036,0,1,0-4.136,28.6,1.775,1.775,0,0,1,2.108.294l6.874,6.874,5.416-5.416-6.873-6.873a1.778,1.778,0,0,1-.292-2.112A18.043,18.043,0,0,0,207.6,187.947Z" transform="translate(-141.336 -151.16)"/><path d="M0,0H7.66V5.9H0Z" transform="translate(66.931 68.388) rotate(-45)"/><circle class="g" cx="12.601" cy="12.601" r="12.601" transform="translate(40.914 36.94)"/><path class="h" d="M223.3,217.873a12.69,12.69,0,0,0-1.319,1.552,12.6,12.6,0,0,1,17.587,17.587A12.6,12.6,0,1,0,223.3,217.873Z" transform="translate(-178.699 -177.242)"/><path class="f" d="M383.855,389.8a8.855,8.855,0,0,1-12.523,0l-8.752-8.752a3.55,3.55,0,0,1,0-5.021l7.5-7.5a3.55,3.55,0,0,1,5.021,0l8.752,8.752A8.855,8.855,0,0,1,383.855,389.8Z" transform="translate(-294.185 -304.108)"/><path class="i" d="M395.624,368.529l-3.218,3.218a3.55,3.55,0,0,1,5.021,0l8.752,8.752a8.858,8.858,0,0,1,1.4,10.7,8.858,8.858,0,0,0,1.819-13.922l-8.752-8.752A3.551,3.551,0,0,0,395.624,368.529Z" transform="translate(-319.728 -304.107)"/><g transform="translate(81.791 77.818)"><path d="M448.479,455.761a1.328,1.328,0,0,1-.942-.39l-1.9-1.9a1.332,1.332,0,0,1,1.884-1.884l1.9,1.9a1.332,1.332,0,0,1-.942,2.274Z" transform="translate(-445.242 -451.192)"/></g><g transform="translate(41.067 42.595)"><path class="j" d="M230.918,246.966h-17a12.5,12.5,0,0,0-1.336,2.664h18.341a1.332,1.332,0,1,0,0-2.664Z" transform="translate(-211.981 -246.966)"/><path class="j" d="M228.06,298.551H209.124a12.58,12.58,0,0,0,.721,2.664H228.06a1.332,1.332,0,1,0,0-2.664Z" transform="translate(-209.124 -289.654)"/></g></g></svg>