<svg width="96" height="97" viewBox="0 0 96 97" fill="none" xmlns="http://www.w3.org/2000/svg">
<path d="M94.1434 10.9733V18.8463C94.141 19.6484 93.8213 20.4169 93.2542 20.9841C92.687 21.5512 91.9184 21.8709 91.1164 21.8733H81.1294L77.1944 25.8083C77.0742 25.9371 76.9178 26.0266 76.7459 26.065C76.5739 26.1034 76.3944 26.089 76.2308 26.0236C76.0672 25.9582 75.9272 25.8448 75.8292 25.6984C75.7311 25.5521 75.6796 25.3795 75.6814 25.2033V21.8733H74.4704C73.6683 21.8709 72.8997 21.5512 72.3326 20.9841C71.7654 20.4169 71.4457 19.6484 71.4434 18.8463V10.9733C71.4457 10.1712 71.7654 9.40266 72.3326 8.8355C72.8997 8.26834 73.6683 7.94866 74.4704 7.94629H91.1184C91.9201 7.94919 92.6881 8.2691 93.2549 8.8362C93.8216 9.4033 94.141 10.1716 94.1434 10.9733Z" fill="#20C58B"/>
<path d="M77.0432 16.8744C78.1295 16.8744 79.0102 15.9938 79.0102 14.9074C79.0102 13.8211 78.1295 12.9404 77.0432 12.9404C75.9568 12.9404 75.0762 13.8211 75.0762 14.9074C75.0762 15.9938 75.9568 16.8744 77.0432 16.8744Z" fill="white"/>
<path d="M82.7951 16.8744C83.8815 16.8744 84.7621 15.9938 84.7621 14.9074C84.7621 13.8211 83.8815 12.9404 82.7951 12.9404C81.7088 12.9404 80.8281 13.8211 80.8281 14.9074C80.8281 15.9938 81.7088 16.8744 82.7951 16.8744Z" fill="white"/>
<path d="M88.6955 16.8744C89.7819 16.8744 90.6625 15.9938 90.6625 14.9074C90.6625 13.8211 89.7819 12.9404 88.6955 12.9404C87.6092 12.9404 86.7285 13.8211 86.7285 14.9074C86.7285 15.9938 87.6092 16.8744 88.6955 16.8744Z" fill="white"/>
<path d="M16.0835 63.705C23.9414 63.705 30.3115 57.3349 30.3115 49.477C30.3115 41.6191 23.9414 35.249 16.0835 35.249C8.22556 35.249 1.85547 41.6191 1.85547 49.477C1.85547 57.3349 8.22556 63.705 16.0835 63.705Z" fill="#20C58B"/>
<path d="M59.7887 40.8661C61.001 40.8661 61.9837 39.8833 61.9837 38.6711C61.9837 37.4588 61.001 36.4761 59.7887 36.4761C58.5765 36.4761 57.5938 37.4588 57.5938 38.6711C57.5938 39.8833 58.5765 40.8661 59.7887 40.8661Z" fill="black"/>
<path d="M84.7943 87.0959V63.5269C84.7941 61.6959 84.2606 59.9046 83.259 58.3719C82.2574 56.8391 80.8311 55.6313 79.1543 54.8959L66.4013 49.3038C65.0897 48.7286 63.974 47.7836 63.1906 46.5845C62.4073 45.3855 61.9902 43.9841 61.9903 42.5518V42.1519H50.3423V42.5909C50.3422 44.0219 49.9255 45.422 49.1429 46.6202C48.3603 47.8183 47.2457 48.7626 45.9353 49.3379L33.2873 54.8909C31.6116 55.6274 30.1864 56.8358 29.1858 58.3686C28.1852 59.9014 27.6523 61.6924 27.6523 63.5229V87.0959" fill="#414141"/>
<path d="M57.6316 54.8633L59.9136 81.7983L56.2256 85.9983L52.3066 81.7983L54.8196 54.8633" fill="white"/>
<path d="M63.4886 58.478L68.1246 50.058L65.3447 48.73L56.2227 55.043L60.3427 58.714C60.5625 58.9094 60.8195 59.0587 61.0982 59.1529C61.3769 59.2471 61.6718 59.2843 61.9651 59.2623C62.2585 59.2402 62.5445 59.1595 62.806 59.0247C63.0676 58.89 63.2994 58.7041 63.4877 58.478H63.4886Z" fill="#C8C5CC"/>
<path d="M48.9583 58.478L44.3223 50.058L47.1023 48.73L56.2253 55.043L52.1023 58.714C51.8824 58.9093 51.6255 59.0584 51.3469 59.1525C51.0682 59.2466 50.7736 59.2837 50.4803 59.2617C50.187 59.2397 49.9012 59.159 49.6397 59.0244C49.3783 58.8897 49.1465 58.7039 48.9583 58.478Z" fill="#C8C5CC"/>
<path d="M65.3445 48.73L56.2255 55.043L47.1035 48.73C48.1334 48.0965 48.9714 47.1946 49.5275 46.121C49.8232 45.5471 50.0398 44.9359 50.1715 44.304C50.2901 43.739 50.3491 43.1632 50.3475 42.586V42.147H61.9955V42.547C61.9949 43.775 62.3013 44.9836 62.8869 46.0629C63.4726 47.1423 64.3187 48.0581 65.3485 48.727L65.3445 48.73Z" fill="white"/>
<path d="M43.7168 27.9871C43.7168 21.0791 49.3168 13.2871 56.2258 13.2871C57.8687 13.2868 59.4955 13.6102 61.0134 14.2387C62.5313 14.8672 63.9105 15.7886 65.0723 16.9502C66.2341 18.1118 67.1556 19.4909 67.7844 21.0087C68.4132 22.5265 68.7368 24.1532 68.7368 25.7961V28.7961L43.7168 27.9871Z" fill="#57565C"/>
<path d="M56.2252 13.2871C55.5439 13.286 54.8645 13.3594 54.1992 13.5061C57.0552 14.0557 59.6305 15.5833 61.4822 17.826C63.3339 20.0688 64.3463 22.8867 64.3452 25.7951V28.6541L68.7342 28.8001V25.7961C68.7342 22.4785 67.4163 19.2968 65.0704 16.9509C62.7245 14.605 59.5428 13.2871 56.2252 13.2871Z" fill="#3C3B41"/>
<path d="M68.7338 29.8901C68.5893 29.8901 68.4463 29.8616 68.3128 29.8064C68.1794 29.7511 68.0581 29.67 67.956 29.5679C67.8538 29.4658 67.7728 29.3445 67.7175 29.211C67.6622 29.0776 67.6338 28.9345 67.6338 28.7901V25.7901C67.6338 22.7636 66.4315 19.861 64.2914 17.7209C62.1514 15.5809 59.2488 14.3786 56.2223 14.3786C53.1958 14.3786 50.2932 15.5809 48.1531 17.7209C46.0131 19.861 44.8108 22.7636 44.8108 25.7901C44.8209 25.9404 44.8001 26.0913 44.7495 26.2332C44.699 26.3752 44.6198 26.5053 44.5169 26.6154C44.414 26.7254 44.2895 26.8132 44.1513 26.8732C44.0131 26.9332 43.864 26.9642 43.7133 26.9642C43.5626 26.9642 43.4135 26.9332 43.2753 26.8732C43.137 26.8132 43.0126 26.7254 42.9097 26.6154C42.8068 26.5053 42.7276 26.3752 42.677 26.2332C42.6265 26.0913 42.6056 25.9404 42.6158 25.7901C42.6158 22.1815 44.0493 18.7208 46.6009 16.1692C49.1525 13.6176 52.6132 12.1841 56.2218 12.1841C59.8303 12.1841 63.2911 13.6176 65.8427 16.1692C68.3943 18.7208 69.8278 22.1815 69.8278 25.7901V28.7901C69.8278 29.0818 69.7119 29.3616 69.5056 29.5679C69.2993 29.7742 69.0195 29.8901 68.7278 29.8901H68.7338Z" fill="#787681"/>
<path d="M62.215 44.3619C60.5201 45.7699 58.3835 46.5359 56.1801 46.5254C53.9768 46.515 51.8475 45.7289 50.166 44.3049C50.2846 43.74 50.3436 43.1642 50.342 42.5869V42.1479H61.99V42.5479C61.9895 43.1596 62.0651 43.7689 62.215 44.3619Z" fill="white"/>
<path d="M65.6013 34.956C65.6013 37.4424 64.6136 39.827 62.8554 41.5851C61.0973 43.3433 58.7127 44.331 56.2263 44.331C53.7399 44.331 51.3553 43.3433 49.5972 41.5851C47.839 39.827 46.8513 37.4424 46.8513 34.956V28.914C46.746 28.216 46.7886 27.5036 46.9764 26.8231C47.1641 26.1426 47.4929 25.5092 47.9413 24.964C49.4673 23.346 51.7103 24.118 54.8083 22.916C56.5364 22.2199 58.0776 21.1287 59.3083 19.73C59.4122 21.0888 60.0301 22.3569 61.0363 23.276C62.2773 24.281 63.4693 23.969 64.5083 24.976C65.1223 25.561 65.7383 26.676 65.5993 28.926L65.6013 34.956Z" fill="#FFFDFB"/>
<path d="M64.5071 24.9579C63.4681 23.9579 62.2761 24.2669 61.0351 23.2579C60.0325 22.3361 59.4153 21.0695 59.3071 19.7119C58.7645 20.3186 58.1658 20.8727 57.5191 21.3669C57.7833 22.1028 58.2377 22.7557 58.8361 23.2589C60.0771 24.2639 61.2691 23.9519 62.3081 24.9589C62.9221 25.5439 63.5381 26.6589 63.3991 28.9089V34.9509C63.3991 37.2472 62.5562 39.4636 61.0303 41.1796C59.5044 42.8955 57.4017 43.9917 55.1211 44.2599C56.4359 44.4168 57.7691 44.2929 59.0326 43.8966C60.296 43.5002 61.4611 42.8404 62.4507 41.9606C63.4404 41.0809 64.2322 40.0012 64.7739 38.7929C65.3156 37.5846 65.5948 36.2751 65.5931 34.9509V28.9079C65.7371 26.6559 65.1211 25.5499 64.5071 24.9579Z" fill="#C8C5CC"/>
<path d="M66.1846 25.4302H69.1106C69.6928 25.4302 70.2511 25.6614 70.6627 26.0731C71.0744 26.4847 71.3056 27.043 71.3056 27.6252V32.8922C71.3056 33.4743 71.0744 34.0326 70.6627 34.4443C70.2511 34.8559 69.6928 35.0872 69.1106 35.0872H66.1846C66.0295 35.0872 65.8807 35.0255 65.771 34.9158C65.6613 34.8061 65.5996 34.6573 65.5996 34.5022V26.0152C65.5996 25.86 65.6613 25.7112 65.771 25.6015C65.8807 25.4918 66.0295 25.4302 66.1846 25.4302Z" fill="white"/>
<path d="M69.111 25.4302H66.916C67.4982 25.4302 68.0565 25.6614 68.4681 26.0731C68.8798 26.4847 69.111 27.043 69.111 27.6252V32.8922C69.111 33.4743 68.8798 34.0326 68.4681 34.4443C68.0565 34.8559 67.4982 35.0872 66.916 35.0872H69.111C69.3992 35.0872 69.6846 35.0304 69.9509 34.9201C70.2171 34.8098 70.459 34.6481 70.6628 34.4442C70.8665 34.2404 71.0281 33.9984 71.1383 33.7321C71.2485 33.4658 71.3052 33.1804 71.305 32.8922V27.6252C71.305 27.0432 71.0739 26.485 70.6625 26.0734C70.251 25.6618 69.693 25.4304 69.111 25.4302Z" fill="#787681"/>
<path d="M46.2627 35.0859H43.3367C43.0484 35.0859 42.763 35.0292 42.4967 34.9189C42.2304 34.8085 41.9884 34.6469 41.7846 34.443C41.5807 34.2392 41.419 33.9972 41.3087 33.7309C41.1984 33.4646 41.1417 33.1792 41.1417 32.8909V27.6249C41.1417 27.3367 41.1984 27.0513 41.3087 26.7849C41.419 26.5186 41.5807 26.2767 41.7846 26.0728C41.9884 25.869 42.2304 25.7073 42.4967 25.597C42.763 25.4867 43.0484 25.4299 43.3367 25.4299H46.2627C46.3395 25.4299 46.4156 25.4451 46.4865 25.4745C46.5575 25.5039 46.622 25.547 46.6763 25.6013C46.7306 25.6556 46.7737 25.7201 46.8031 25.7911C46.8325 25.862 46.8477 25.9381 46.8477 26.0149V34.5009C46.8477 34.6561 46.786 34.8049 46.6763 34.9146C46.5666 35.0243 46.4178 35.0859 46.2627 35.0859V35.0859Z" fill="#8B8893"/>
<path d="M46.2643 25.4302H44.0703C44.2255 25.4302 44.3743 25.4918 44.484 25.6015C44.5937 25.7112 44.6553 25.86 44.6553 26.0152V34.5002C44.6553 34.6553 44.5937 34.8041 44.484 34.9138C44.3743 35.0235 44.2255 35.0852 44.0703 35.0852H46.2653C46.4205 35.0852 46.5693 35.0235 46.679 34.9138C46.7887 34.8041 46.8503 34.6553 46.8503 34.5002V26.0152C46.8503 25.9383 46.8351 25.8621 46.8057 25.7911C46.7762 25.72 46.733 25.6555 46.6786 25.6012C46.6242 25.5468 46.5596 25.5038 46.4885 25.4744C46.4174 25.4451 46.3412 25.43 46.2643 25.4302Z" fill="#787681"/>
<path d="M7.81564 48.7067C8.00764 48.5147 8.00764 48.3217 8.00764 47.9377C8.00764 47.5537 8.00764 47.5527 7.81564 47.3607C7.62364 47.1687 7.62364 47.1687 7.23864 47.1687C6.85364 47.1687 6.46964 47.5537 6.08464 48.1297L4.93164 47.3607C5.31664 46.7837 5.50864 46.3997 5.89264 46.2067C6.36149 45.9419 6.89336 45.8092 7.43164 45.8227C7.71488 45.7972 8.00023 45.8358 8.26649 45.9357C8.53275 46.0356 8.77309 46.1942 8.96964 46.3997C9.35488 46.8177 9.56189 47.3695 9.54664 47.9377C9.59688 48.2706 9.52895 48.6106 9.35464 48.8987C9.16264 49.0907 8.77764 49.6677 8.39364 50.0527L7.23864 51.3987H9.93164V52.7447H4.93164V51.5907L6.85464 49.4757C7.24518 49.3221 7.58017 49.0541 7.81564 48.7067ZM13.3916 49.8607V48.7067H14.9316V49.8607H15.7006V51.2067H14.9316V52.7447H13.3916V51.2067H10.6996V50.0537L13.1996 46.0157H14.9316L12.6246 49.8607H13.3916ZM20.3136 45.0537H21.6596L17.6216 53.8977H16.2756L20.3136 45.0537ZM22.4316 48.3227V46.2077H27.4316V47.3617L24.7316 52.9367H23.0016L25.6936 47.3607H23.9636V48.3217L22.4316 48.3227Z" fill="white"/>
</svg>
