<svg width="96" height="96" viewBox="0 0 96 96" fill="none" xmlns="http://www.w3.org/2000/svg">
<path d="M96 0H0V96H96V0Z" fill="white"/>
<path d="M76.063 12.106H12.106C11.172 12.1028 10.2465 12.2845 9.38295 12.6405C8.51937 12.9964 7.73476 13.5197 7.07427 14.1802C6.41378 14.8407 5.89048 15.6253 5.53449 16.4889C5.17851 17.3525 4.99687 18.2779 5.00004 19.212V61.85C4.99925 62.7834 5.18252 63.7078 5.53935 64.5703C5.89618 65.4328 6.41957 66.2164 7.07958 66.8765C7.73959 67.5365 8.52326 68.0599 9.38576 68.4167C10.2483 68.7735 11.1726 68.9568 12.106 68.956H36.978V76.062H29.872V83.168H58.3V76.063H51.191V68.956H58.3V61.85H12.106V19.212H76.063V36.978H83.169V19.212C83.1698 18.2786 82.9866 17.3542 82.6297 16.4917C82.2729 15.6292 81.7495 14.8455 81.0895 14.1855C80.4295 13.5255 79.6458 13.0021 78.7833 12.6453C77.9208 12.2885 76.9964 12.1052 76.063 12.106ZM47.531 36.978L44.085 26.319L40.638 36.978H29.872L38.648 43.232L35.308 53.572L44.084 47.172L52.86 53.572L49.52 43.232L58.3 36.978H47.531Z" fill="#414141"/>
<path d="M79.0009 75.9994C75.0677 76.0001 71.2564 74.6368 68.2157 72.142C65.175 69.6473 63.0928 66.1753 62.3251 62.3178C61.5573 58.4603 62.151 54.4566 64.0048 50.9877C65.8585 47.5188 68.8574 44.7998 72.4911 43.2944C76.1248 41.789 80.1686 41.5903 83.9325 42.7319C87.6964 43.8734 90.9484 46.2839 93.1337 49.5541C95.3189 52.8244 96.3024 56.7512 95.9169 60.6655C95.5314 64.5797 93.7996 68.2398 91.0184 71.0209C89.4438 72.6041 87.5715 73.8597 85.5087 74.7143C83.4458 75.5689 81.2337 76.0052 79.0009 75.9994ZM84.4579 59.4643C83.5736 59.4294 82.7109 59.7444 82.0575 60.3412C81.5457 60.8078 81.1904 61.4196 81.038 62.0951C80.8855 62.7707 80.9442 63.4774 81.2059 64.1186C81.4677 64.7598 81.9192 65.3052 82.5009 65.6811C83.0825 66.0569 83.7658 66.245 84.4579 66.2201C84.9113 66.2358 85.3626 66.1602 85.786 65.9975C86.2095 65.8348 86.5965 65.5881 86.9227 65.2729C87.249 64.9577 87.5092 64.5811 87.6864 64.1635C87.8636 63.7459 87.954 63.2969 87.954 62.8432C87.954 62.3895 87.8636 61.9405 87.6864 61.5229C87.5092 61.1053 87.249 60.7268 86.9227 60.4116C86.5965 60.0963 86.2095 59.8497 85.786 59.6869C85.3626 59.5242 84.9113 59.4487 84.4579 59.4643ZM81.8993 51.9233L74.1981 66.0034H77.4989L85.1981 51.9233H81.8993ZM74.9618 51.7006C74.0722 51.6652 73.2045 51.9824 72.5477 52.5834C71.9458 53.2772 71.6141 54.1649 71.6141 55.0834C71.6141 56.0019 71.9458 56.8896 72.5477 57.5834C73.2045 58.1845 74.0722 58.5016 74.9618 58.4662C75.4003 58.4843 75.839 58.4166 76.2509 58.2651C76.6627 58.1135 77.0399 57.8813 77.3622 57.5834C77.9558 56.8857 78.2821 55.9995 78.2821 55.0834C78.2821 54.1673 77.9558 53.2812 77.3622 52.5834C77.0403 52.2856 76.6623 52.0535 76.2509 51.9018C75.8394 51.7501 75.402 51.6811 74.9637 51.6987L74.9618 51.7006ZM84.4364 64.2006C83.8014 64.2006 83.4794 63.7413 83.4794 62.8393C83.4531 62.4763 83.5398 62.114 83.7274 61.8022C83.8141 61.6958 83.9236 61.6107 84.0477 61.5522C84.1719 61.4937 84.3089 61.4633 84.4462 61.4643C84.5834 61.4653 84.7174 61.4978 84.8407 61.558C84.964 61.6182 85.0719 61.7043 85.1571 61.8119C85.3545 62.1164 85.4482 62.4775 85.4208 62.8393C85.4494 63.1999 85.3555 63.5602 85.1571 63.8627C85.0738 63.9732 84.966 64.0618 84.8407 64.1205C84.7154 64.1793 84.5766 64.2054 84.4384 64.1987L84.4364 64.2006ZM74.9364 56.4428C74.2994 56.4428 73.9755 55.9835 73.9755 55.0815C73.9755 54.1795 74.2994 53.7006 74.9364 53.7006C75.5734 53.7006 75.9149 54.1655 75.9149 55.0815C75.9391 55.4396 75.849 55.7957 75.6571 56.0991C75.5734 56.2087 75.4652 56.2976 75.3407 56.3569C75.2162 56.4162 75.0801 56.445 74.9423 56.4409L74.9364 56.4428Z" fill="#20C58B"/>
</svg>
