<svg width="96" height="96" viewBox="0 0 96 96" fill="none" xmlns="http://www.w3.org/2000/svg">
<path d="M96 0H0V96H96V0Z" fill="white"/>
<path d="M67.6404 41.5816C63.4684 41.5866 59.3919 42.8309 55.9282 45.1567C52.4646 47.4824 49.77 50.7848 48.1864 54.6446C46.5918 58.5113 46.1742 62.7628 46.9859 66.8659C47.7977 70.969 49.8026 74.7412 52.7494 77.7096C54.9472 79.9204 57.6096 81.6143 60.5434 82.6681C63.4773 83.722 66.609 84.1094 69.7112 83.8024C72.8134 83.4953 75.8084 82.5014 78.4787 80.8929C81.149 79.2843 83.4277 77.1014 85.1494 74.5026C87.8553 70.4274 89.0721 65.5433 88.5944 60.6749C88.1167 55.8065 85.9738 51.2521 82.5274 47.7806C80.5769 45.8171 78.2576 44.2586 75.7028 43.1946C73.1479 42.1306 70.408 41.5821 67.6404 41.5806V41.5816ZM77.1904 64.5036L63.3204 80.4386C63.1533 80.6315 62.9375 80.7763 62.6956 80.8579C62.4537 80.9395 62.1944 80.9549 61.9445 80.9026C61.6947 80.8503 61.4633 80.7321 61.2745 80.5603C61.0856 80.3885 60.9461 80.1694 60.8704 79.9256C60.7673 79.597 60.7847 79.2425 60.9194 78.9256L65.5974 67.7596L58.9834 64.9056C58.6237 64.7495 58.3059 64.5107 58.0558 64.2087C57.8057 63.9067 57.6303 63.5499 57.544 63.1674C57.4577 62.7849 57.4628 62.3874 57.559 62.0073C57.6551 61.6271 57.8396 61.275 58.0974 60.9796L71.9654 45.0476C72.1328 44.8562 72.3481 44.7128 72.5893 44.6321C72.8304 44.5515 73.0887 44.5365 73.3375 44.5888C73.5864 44.641 73.8169 44.7586 74.0052 44.9293C74.1936 45.1001 74.3331 45.318 74.4094 45.5606C74.5126 45.8863 74.4974 46.238 74.3664 46.5536L69.6874 57.7196L76.2964 60.5736C76.6574 60.7287 76.9767 60.9669 77.2281 61.2689C77.4796 61.5709 77.656 61.928 77.7432 62.3111C77.8304 62.6943 77.8257 63.0926 77.7297 63.4736C77.6336 63.8546 77.4488 64.2076 77.1904 64.5036Z" fill="#20C58B"/>
<path d="M51.3 41.2808L53.344 35.6588L55.082 39.1298C60.1372 36.6659 65.8307 35.8259 71.382 36.7248L82.96 20.1738C83.094 19.982 83.1659 19.7537 83.166 19.5198V8.14177C83.1662 7.89985 83.0896 7.66412 82.9472 7.46851C82.8049 7.2729 82.6041 7.1275 82.3739 7.05323C82.1436 6.97897 81.8958 6.97967 81.666 7.05524C81.4362 7.13081 81.2363 7.27735 81.095 7.47377L62.481 33.4848L53.2 14.9298C53.1005 14.7289 52.9441 14.5617 52.7503 14.449C52.5565 14.3363 52.3338 14.2831 52.11 14.296C51.8862 14.3088 51.6711 14.3873 51.4915 14.5215C51.3119 14.6557 51.1758 14.8398 51.1 15.0508L38.645 49.3298L29.314 39.9968C29.1124 39.7946 28.8425 39.6752 28.5573 39.6621C28.2721 39.649 27.9923 39.743 27.773 39.9258L10.412 54.3898C10.2832 54.497 10.1795 54.6312 10.1083 54.7829C10.0371 54.9346 10.0001 55.1002 10 55.2678V64.8438C9.99893 65.0643 10.0617 65.2805 10.1807 65.4662C10.2997 65.6519 10.4699 65.7991 10.6708 65.8903C10.8716 65.9814 11.0945 66.0125 11.3127 65.9797C11.5308 65.947 11.7348 65.8518 11.9 65.7058L28.01 51.6278L39.125 62.7418C39.3864 58.4737 40.619 54.3216 42.729 50.6024C44.839 46.8831 47.7705 43.6948 51.3 41.2808Z" fill="#414141"/>
</svg>
