<svg width="55" height="56" viewBox="0 0 55 56" fill="none" xmlns="http://www.w3.org/2000/svg">
<path d="M28.2391 56C15.7653 55.9663 4.89673 48.0869 1.35127 36.3342C-1.60983 26.4864 0.309922 17.485 6.97007 9.61873C11.0643 4.7847 16.3441 1.82172 22.551 0.553748C26.023 -0.15437 29.5993 -0.183627 33.0825 0.467593C33.472 0.538764 33.4758 0.643648 33.3241 0.958301C31.611 4.52436 29.906 8.09542 28.2091 11.6715C28.167 11.7833 28.089 11.878 27.9874 11.9407C27.8857 12.0034 27.766 12.0306 27.6472 12.018C24.0783 12.1092 20.6424 13.3914 17.8863 15.6605C15.1301 17.9297 13.212 21.0554 12.4372 24.5404C10.7272 32.1576 14.8476 40.037 22.1183 42.8295C27.8888 45.0452 33.2585 44.1631 38.1431 40.376C38.3922 40.1887 38.4952 40.1513 38.6732 40.4603C40.5461 43.7379 42.4353 47.0093 44.3407 50.2744C44.5073 50.561 44.4474 50.6902 44.2002 50.8625C40.521 53.4656 36.265 55.1366 31.7976 55.7322C30.617 55.8844 29.4292 55.9738 28.2391 56Z" fill="#EF492D"/>
<path d="M47.617 47.8904C47.4634 47.808 47.4204 47.6394 47.3417 47.5027C45.2116 43.8193 43.0889 40.1321 40.9737 36.4412C40.9018 36.29 40.7845 36.165 40.6381 36.0837C40.4916 36.0025 40.3235 35.969 40.1571 35.9879C35.9281 36.001 31.7009 35.9879 27.4718 35.9879H26.9455C26.9417 35.8255 27.0008 35.6678 27.1103 35.5478C29.2579 31.8169 31.4068 28.086 33.5569 24.3552C33.614 24.2318 33.7083 24.1293 33.8265 24.0621C33.9447 23.995 34.081 23.9665 34.2162 23.9806C38.5452 23.9918 42.8729 23.9918 47.1994 23.9806C47.3338 23.9665 47.4693 23.9952 47.5866 24.0624C47.704 24.1296 47.7971 24.232 47.853 24.3552C50.0119 28.1173 52.1807 31.8744 54.3596 35.6265C54.4324 35.7226 54.4733 35.8391 54.4767 35.9597C54.48 36.0802 54.4456 36.1988 54.3783 36.2988C52.1895 40.0784 50.0088 43.8543 47.8362 47.6263C47.7781 47.7219 47.7519 47.853 47.617 47.8904Z" fill="#EF492D"/>
<path d="M38.4998 8.26987C37.7244 7.49447 37.0015 6.75279 36.2523 6.02235C36.0201 5.7976 36.183 5.63091 36.2823 5.46047C37.1396 3.9677 38.5354 2.85937 40.1836 2.36264C41.1824 2.03303 42.2391 1.91608 43.2858 2.0193C44.3325 2.12252 45.3461 2.44363 46.2613 2.96198C49.6325 4.78434 49.331 9.01155 47.385 10.9219C46.6473 11.6324 45.8116 12.2334 44.9034 12.7068C43.9669 13.205 43.0304 13.6751 42.1127 14.2052C41.3504 14.6416 40.7567 15.2447 40.4814 16.1174C40.369 16.4696 40.4364 16.5613 40.8129 16.5576C43.2889 16.5426 45.7668 16.5576 48.2447 16.5426C48.6193 16.5426 48.7597 16.6138 48.7448 17.0221C48.711 17.8967 48.7242 18.7733 48.7448 19.6442C48.7448 19.9214 48.668 20.0188 48.3833 20.0188C44.4014 20.0113 40.4208 20.0113 36.4415 20.0188C36.2542 20.0188 36.08 20.0188 36.0781 19.7472C36.0781 16.9902 36.5876 14.4224 38.7452 12.4559C39.7729 11.5457 40.9267 10.7888 42.1708 10.2084C42.8525 9.87497 43.5418 9.55657 44.1373 9.07336C44.658 8.65007 45.0176 8.13689 45.0551 7.44391C45.1113 6.35948 44.2535 5.55412 42.9574 5.46984C41.0938 5.33686 39.7491 6.17593 38.8089 7.73421C38.7152 7.88779 38.6291 8.04512 38.4998 8.26987Z" fill="#EF492D"/>
<path d="M47.994 51.8157V50.9148H47.6719V50.7275H48.5353V50.9148H48.2094V51.8157H47.994ZM48.6739 51.8157V50.7313H49.0017L49.1889 51.4711L49.3762 50.7313H49.7059V51.8157H49.5205V50.9617L49.3051 51.8157H49.0934L48.8799 50.9617V51.8157H48.6739Z" fill="#EF492D"/>
</svg>
