<svg width="77" height="45" viewBox="0 0 77 45" fill="none" xmlns="http://www.w3.org/2000/svg">
<path d="M76.2495 21.0456L55.7274 0.523488C55.06 -0.143897 54.0589 -0.143897 53.3916 0.523488L49.3873 4.5278L65.905 21.0456C66.5724 21.7129 66.5724 22.714 66.0719 23.3814C66.0719 23.3814 66.0719 23.3814 65.905 23.5483L48.8867 40.3997L52.891 44.404C53.5584 45.0714 54.5595 45.0714 55.2269 44.5709C55.2269 44.5709 55.2269 44.5709 55.3937 44.404L76.4163 23.3814C76.9169 22.8809 76.9169 21.7129 76.2495 21.0456Z" fill="#2CB5B4"/>
<path d="M41.3778 2.02525L39.8761 0.523636C39.2088 -0.143748 38.2077 -0.143748 37.5403 0.35679C37.5403 0.35679 37.5403 0.35679 37.3734 0.523636L33.3691 4.52794L36.0387 7.19748L41.2109 12.3697L46.3831 7.19748L41.3778 2.02525Z" fill="#8CBF44"/>
<path d="M40.8789 32.3916L35.7066 37.5638L33.0371 40.2334L37.0414 44.2377C37.7088 44.9051 38.7099 44.9051 39.3773 44.2377L40.8789 42.7361L46.0511 37.5638L40.8789 32.3916Z" fill="#8CBF44"/>
<path d="M49.8866 21.047C50.554 21.7143 50.554 22.8823 49.8866 23.5496L40.877 32.3925L46.0492 37.5647L60.2311 23.3828C60.8985 22.7154 60.8985 21.5475 60.2311 20.8801L46.5497 7.19873L41.3775 12.371L49.8866 21.047Z" fill="#B8CE2C"/>
<path d="M16.3509 21.5461L30.6997 7.19733L25.3606 1.85826L24.0258 0.523488C23.3585 -0.143897 22.1905 -0.143897 21.5231 0.523488L0.500538 21.5461C-0.166846 22.2135 -0.166846 23.2146 0.500538 23.8819L21.0226 44.404C21.69 45.0714 22.6911 45.0714 23.3585 44.404L24.8601 42.9024L30.0323 37.7302L16.3509 24.0488C15.5167 23.5483 15.183 22.714 15.8504 21.8798C16.0172 21.5461 16.1841 21.5461 16.3509 21.5461Z" fill="#87EFEF"/>
<path d="M32.3705 21.5475L38.7106 15.2073L33.3715 10.0351L30.702 7.19873L16.5201 21.3807C15.8527 22.048 15.8527 23.0491 16.5201 23.7165L30.2015 37.3979L32.871 34.7283L38.0432 29.5561L32.3705 23.8833C31.7031 23.3828 31.7031 22.2149 32.3705 21.5475Z" fill="#8CBF44"/>
<path d="M32.3716 23.8819L38.2112 29.7215L44.5514 23.3814C45.2188 22.714 45.2188 21.5461 44.5514 20.8787L38.7118 15.0391L32.3716 21.5461C31.7042 22.2134 31.7042 23.2145 32.3716 23.8819Z" fill="#B8CE2C"/>
<path d="M41.3778 2.02525L39.8761 0.523636C39.2088 -0.143748 38.2077 -0.143748 37.5403 0.35679C37.5403 0.35679 37.5403 0.35679 37.3734 0.523636L33.3691 4.52794L36.0387 7.19748L41.2109 12.3697L46.3831 7.19748L41.3778 2.02525Z" fill="#41E3E2"/>
<path d="M40.8789 32.3916L35.7066 37.5638L33.0371 40.2334L37.0414 44.2377C37.7088 44.9051 38.7099 44.9051 39.3773 44.2377L40.8789 42.7361L46.0511 37.5638L40.8789 32.3916Z" fill="#41E3E2"/>
<path d="M49.8866 21.047C50.554 21.7143 50.554 22.8823 49.8866 23.5496L40.877 32.3925L46.0492 37.5647L60.2311 23.3828C60.8985 22.7154 60.8985 21.5475 60.2311 20.8801L46.5497 7.19873L41.3775 12.371L49.8866 21.047Z" fill="#4FBCC1"/>
<path d="M16.3509 21.5461L30.6997 7.19733L25.3606 1.85826L24.0258 0.523488C23.3585 -0.143897 22.1905 -0.143897 21.5231 0.523488L0.500538 21.5461C-0.166846 22.2135 -0.166846 23.2146 0.500538 23.8819L21.0226 44.404C21.69 45.0714 22.6911 45.0714 23.3585 44.404L24.8601 42.9024L30.0323 37.7302L16.3509 24.0488C15.5167 23.5483 15.183 22.714 15.8504 21.8798C16.0172 21.5461 16.1841 21.5461 16.3509 21.5461Z" fill="#87EFEF"/>
<path d="M32.3705 21.5475L38.7106 15.2073L33.3715 10.0351L30.702 7.19873L16.5201 21.3807C15.8527 22.048 15.8527 23.0491 16.5201 23.7165L30.2015 37.3979L32.871 34.7283L38.0432 29.5561L32.3705 23.8833C31.7031 23.3828 31.7031 22.2149 32.3705 21.5475Z" fill="#41E3E2"/>
<path d="M32.3716 23.8819L38.2112 29.7215L44.5514 23.3814C45.2188 22.714 45.2188 21.5461 44.5514 20.8787L38.7118 15.0391L32.3716 21.5461C31.7042 22.2134 31.7042 23.2145 32.3716 23.8819Z" fill="#4FBCC1"/>
</svg>
