<svg width="169" height="36" viewBox="0 0 169 36" fill="none" xmlns="http://www.w3.org/2000/svg">
<path d="M25.3445 16.6629C25.5846 16.6308 25.8168 16.6308 26.0329 16.6629C26.1529 16.3817 26.1769 15.8836 26.0649 15.3533C25.8968 14.558 25.6727 14.0759 25.2164 14.1563C24.7522 14.2286 24.7362 14.807 24.9043 15.6024C24.9923 16.0443 25.1604 16.4299 25.3445 16.6629Z" fill="black"/>
<path d="M21.3746 17.2895C21.7027 17.4342 21.9109 17.5306 21.9909 17.4502C22.0389 17.394 22.0229 17.2976 21.9509 17.169C21.7908 16.9039 21.4546 16.6308 21.0944 16.4781C20.3661 16.1648 19.4936 16.2692 18.8293 16.7513C18.6051 16.9119 18.397 17.1369 18.4291 17.2735C18.4371 17.3217 18.4691 17.3538 18.5491 17.3618C18.7332 17.3859 19.3655 17.0566 20.1019 17.0164C20.6142 16.9842 21.0464 17.1449 21.3746 17.2895Z" fill="black"/>
<path d="M20.7103 17.6751C20.278 17.7394 20.0379 17.884 19.8858 18.0206C19.7578 18.1331 19.6777 18.2616 19.6777 18.35C19.6777 18.3902 19.6937 18.4143 19.7098 18.4303C19.7258 18.4464 19.7498 18.4544 19.7818 18.4544C19.8778 18.4544 20.0939 18.3661 20.0939 18.3661C20.6943 18.1491 21.0865 18.1732 21.4787 18.2214C21.6948 18.2456 21.7988 18.2616 21.8469 18.1813C21.8629 18.1572 21.8789 18.117 21.8308 18.0447C21.7428 17.876 21.3026 17.6028 20.7103 17.6751Z" fill="black"/>
<path d="M23.6622 18.4166C23.5569 18.6317 23.7096 18.9234 24.0032 19.0682C24.2968 19.213 24.6201 19.156 24.7254 18.941C24.8307 18.726 24.678 18.4343 24.3844 18.2895C24.0908 18.1447 23.7675 18.2016 23.6622 18.4166Z" fill="black"/>
<path d="M26.308 18.0244C26.3135 17.6961 26.1245 17.4266 25.8858 17.4226C25.6472 17.4185 25.4492 17.6814 25.4436 18.0097C25.4381 18.338 25.6271 18.6074 25.8658 18.6115C26.1045 18.6155 26.3024 18.3527 26.308 18.0244Z" fill="black"/>
<path d="M9.9223 23.323C9.86627 23.2507 9.76222 23.2748 9.67417 23.2909C9.61014 23.3069 9.5301 23.323 9.45006 23.323C9.27397 23.323 9.12989 23.2427 9.04185 23.1141C8.92979 22.9454 8.93779 22.6964 9.05785 22.4152C9.07386 22.375 9.08987 22.3348 9.11388 22.2866C9.30598 21.8608 9.62615 21.1378 9.27397 20.4549C9.00183 19.9407 8.5616 19.6193 8.03333 19.5551C7.52907 19.4908 7.00079 19.6756 6.67262 20.0451C6.14435 20.6236 6.06431 21.4189 6.16836 21.7001C6.20838 21.8046 6.26441 21.8287 6.30443 21.8367C6.39248 21.8528 6.52855 21.7805 6.60859 21.5636C6.61659 21.5475 6.6246 21.5234 6.6326 21.4913C6.67262 21.3707 6.73666 21.1538 6.84871 20.9771C6.98478 20.7602 7.19289 20.6155 7.44102 20.5673C7.69715 20.5111 7.95328 20.5593 8.1694 20.7039C8.53759 20.9449 8.68166 21.4029 8.52158 21.8287C8.44154 22.0536 8.30547 22.4794 8.33748 22.8329C8.39351 23.5399 8.83374 23.8291 9.22594 23.8613C9.61014 23.8774 9.87428 23.6604 9.93831 23.5078C9.97833 23.4033 9.94631 23.3471 9.9223 23.323Z" fill="black"/>
<path d="M31.8847 22.0214C31.8687 21.9732 31.7726 21.6278 31.6446 21.21C31.5165 20.7922 31.3804 20.503 31.3804 20.503C31.9007 19.7237 31.9087 19.0248 31.8366 18.6231C31.7646 18.133 31.5565 17.7152 31.1483 17.2814C30.7401 16.8476 29.8996 16.4057 28.723 16.0763C28.587 16.0361 28.1467 15.9156 28.1067 15.9076C28.1067 15.8835 28.0747 14.4454 28.0507 13.8268C28.0347 13.3769 27.9947 12.6859 27.7786 11.995C27.5224 11.0631 27.0742 10.2516 26.5139 9.72943C28.0507 8.12263 29.0192 6.36319 29.0112 4.84476C29.0032 1.92842 25.4413 1.05272 21.0471 2.87644C21.0391 2.87644 20.1266 3.2701 20.1186 3.2701C20.1106 3.26207 18.4377 1.6151 18.4137 1.591C13.4031 -2.79556 -2.25296 14.6784 2.75763 18.9203L3.84619 19.8523C3.56605 20.5914 3.45399 21.435 3.54203 22.3428C3.66209 23.5077 4.2624 24.6325 5.23091 25.4921C6.15138 26.3116 7.36801 26.8338 8.54462 26.8338C10.4896 31.3409 14.9399 34.1046 20.1586 34.2572C25.7535 34.4259 30.4599 31.7908 32.429 27.0507C32.557 26.7213 33.1013 25.219 33.1013 23.9014C33.1093 22.5678 32.3649 22.0214 31.8847 22.0214ZM8.97684 25.5644C8.80875 25.5966 8.63266 25.6046 8.45657 25.6046C6.7677 25.5564 4.94276 24.0299 4.76667 22.2223C4.56656 20.2218 5.58309 18.6793 7.39202 18.3097C7.60813 18.2696 7.87227 18.2374 8.15241 18.2535C9.16094 18.3097 10.6577 19.089 10.9939 21.2984C11.29 23.2587 10.8098 25.2511 8.97684 25.5644ZM7.09587 17.1127C5.97529 17.3296 4.98278 17.9723 4.37446 18.8561C4.01428 18.5508 3.34193 17.9643 3.22187 17.7393C2.25337 15.8995 4.27841 12.3164 5.68714 10.2918C9.17694 5.28663 14.6438 1.50262 17.1731 2.18551C17.5813 2.30602 18.95 3.88872 18.95 3.88872C18.95 3.88872 16.4207 5.29467 14.0755 7.263C10.9138 9.70533 8.5206 13.2564 7.09587 17.1127ZM24.841 24.8173C24.8811 24.8012 24.9051 24.761 24.8971 24.7209C24.8891 24.6727 24.849 24.6325 24.793 24.6405C24.793 24.6405 22.1436 25.0342 19.6383 24.1183C19.9105 23.2265 20.6389 23.5479 21.7274 23.6363C23.7044 23.7568 25.4734 23.4676 26.778 23.09C27.9146 22.7606 29.4034 22.1179 30.556 21.202C30.9482 22.0616 31.0843 23.0096 31.0843 23.0096C31.0843 23.0096 31.3884 22.9534 31.6365 23.1141C31.8767 23.2587 32.0528 23.564 31.9327 24.3593C31.6926 25.8376 31.0602 27.0347 30.0117 28.1433C29.3714 28.8343 28.595 29.4368 27.7065 29.8707C27.2343 30.1197 26.73 30.3366 26.2017 30.5134C22.2317 31.8149 18.1736 30.3848 16.8689 27.3158C16.7649 27.0829 16.6768 26.8418 16.6048 26.5928C16.0445 24.5682 16.5167 22.142 17.9975 20.6155C18.0855 20.5191 18.1816 20.4066 18.1816 20.262C18.1816 20.1415 18.1016 20.0129 18.0375 19.9246C17.5173 19.1694 15.7243 17.8839 16.0845 15.4014C16.3406 13.6179 17.9015 12.3565 19.3502 12.4289C19.4703 12.4369 19.5983 12.4449 19.7184 12.453C20.3507 12.4931 20.895 12.5735 21.4153 12.5895C22.2797 12.6297 23.0641 12.5012 23.9846 11.7299C24.2968 11.4728 24.5449 11.2479 24.9691 11.1756C25.0171 11.1675 25.1212 11.1273 25.3453 11.1354C25.5694 11.1434 25.7855 11.2077 25.9776 11.3362C26.714 11.8263 26.8261 13.0234 26.8581 13.8991C26.8821 14.3972 26.9381 15.6103 26.9621 15.9558C27.0102 16.7511 27.2183 16.8636 27.6345 17.0002C27.8746 17.0805 28.0907 17.1368 28.4109 17.2251C29.3874 17.4983 29.9717 17.7795 30.3399 18.141C30.556 18.366 30.66 18.607 30.6921 18.8319C30.8041 19.6755 30.0357 20.7199 28.0027 21.6679C25.7775 22.7043 23.0721 22.9695 21.2072 22.7606C21.0631 22.7445 20.5588 22.6883 20.5508 22.6883C19.062 22.4874 18.2056 24.4236 19.1021 25.7492C19.6784 26.6008 21.2552 27.1632 22.824 27.1632C26.4339 27.1632 29.2033 25.6207 30.2358 24.279C30.2678 24.2388 30.2678 24.2308 30.3159 24.1585C30.3639 24.0781 30.3239 24.038 30.2598 24.0862C29.4194 24.6646 25.6735 26.9624 21.6714 26.2714C21.6714 26.2714 21.1831 26.1911 20.7429 26.0143C20.3907 25.8778 19.6544 25.5323 19.5583 24.7771C22.808 25.7653 24.841 24.8173 24.841 24.8173ZM19.7184 24.2147C19.7184 24.2147 19.7264 24.2147 19.7184 24.2147V24.2147ZM13.5392 10.2677C14.7798 8.82963 16.3086 7.57632 17.6773 6.87736C17.7254 6.85326 17.7734 6.90147 17.7494 6.94967C17.6373 7.15052 17.4292 7.56829 17.3652 7.88965C17.3572 7.93785 17.4052 7.97802 17.4532 7.94589C18.3017 7.3594 19.7824 6.74079 21.0871 6.66045C21.1431 6.66045 21.1671 6.73275 21.1271 6.76489C20.927 6.91753 20.7109 7.12642 20.5588 7.34334C20.5348 7.38351 20.5588 7.43171 20.5988 7.43171C21.5113 7.43974 22.8 7.7611 23.6324 8.22708C23.6884 8.25921 23.6484 8.37169 23.5844 8.35562C22.3197 8.0664 20.2387 7.84144 18.0855 8.37169C16.1565 8.84569 14.6918 9.56875 13.6192 10.3561C13.5632 10.3882 13.4992 10.3159 13.5392 10.2677Z" fill="black"/>
<path d="M62.2164 13.0795C59.9848 13.0795 58.8835 14.8408 58.3619 15.9669C58.0721 16.6021 58.0141 17.093 57.7823 17.093C57.4635 17.093 57.6953 16.6598 57.4345 15.707C57.0867 14.4365 56.0434 13.1083 53.8119 13.1083C51.4644 13.1083 50.4501 15.0718 49.9864 16.169C49.6676 16.9197 49.6676 17.1218 49.4068 17.1218C49.03 17.1218 49.3488 16.5443 49.4937 15.8514C49.8125 14.4943 49.5807 13.4548 49.5807 13.4548H45.8711V27.3721H50.9428C50.9428 27.3721 50.9428 21.5684 50.9428 20.4423C50.9428 19.0852 51.5224 17.3528 52.5077 17.3528C53.638 17.3528 53.8698 18.219 53.8698 19.836C53.8698 21.3085 53.8698 27.3721 53.8698 27.3721H58.9705C58.9705 27.3721 58.9705 21.5107 58.9705 20.4423C58.9705 19.2296 59.4632 17.3528 60.5355 17.3528C61.6947 17.3528 61.8976 18.5655 61.8976 19.836C61.8976 21.1064 61.8976 27.3721 61.8976 27.3721H66.9113C66.9113 27.3721 66.9113 21.8571 66.9113 19.2007C66.8823 15.5049 65.5782 13.0795 62.2164 13.0795Z" fill="black"/>
<path d="M148.318 13.0795C146.086 13.0795 144.985 14.8408 144.463 15.9669C144.173 16.6021 144.115 17.093 143.884 17.093C143.565 17.093 143.768 16.5443 143.536 15.707C143.159 14.4365 142.232 13.1083 139.913 13.1083C137.566 13.1083 136.551 15.0718 136.088 16.169C135.769 16.9197 135.769 17.1218 135.508 17.1218C135.131 17.1218 135.45 16.5443 135.595 15.8514C135.914 14.4943 135.682 13.4548 135.682 13.4548H131.943V27.3721H137.015C137.015 27.3721 137.015 21.5684 137.015 20.4423C137.015 19.0852 137.595 17.3528 138.58 17.3528C139.71 17.3528 139.942 18.219 139.942 19.836C139.942 21.3085 139.942 27.3721 139.942 27.3721H145.043C145.043 27.3721 145.043 21.5107 145.043 20.4423C145.043 19.2296 145.535 17.3528 146.608 17.3528C147.767 17.3528 147.97 18.5655 147.97 19.836C147.97 21.1064 147.97 27.3721 147.97 27.3721H152.984C152.984 27.3721 152.984 21.8571 152.984 19.2007C152.955 15.5049 151.679 13.0795 148.318 13.0795Z" fill="black"/>
<path d="M75.5471 13.0795C71.6636 13.0795 68.8815 14.4943 68.8815 14.4943V18.681C68.8815 18.681 71.9534 16.9197 74.4458 16.9197C76.4455 16.9197 76.6774 17.988 76.5904 18.8831C76.5904 18.8831 76.0108 18.7388 74.2719 18.7388C70.1276 18.7388 68.041 20.6156 68.041 23.6185C68.041 26.477 70.3885 27.6608 72.3592 27.6608C75.2283 27.6608 76.5035 25.7263 76.9092 24.8023C77.17 24.1671 77.228 23.734 77.4598 23.734C77.7496 23.734 77.6337 24.0516 77.6337 24.6868C77.6047 25.784 77.6627 26.6213 77.8366 27.3432H81.6621V20.5001C81.6621 16.1979 80.1261 13.0795 75.5471 13.0795ZM74.3009 24.0516C73.0837 24.3403 72.4461 23.9649 72.4461 23.1565C72.4461 22.0593 73.5764 21.6262 75.1993 21.6262C75.9238 21.6262 76.5904 21.6839 76.5904 21.6839C76.6194 22.1459 75.5761 23.7628 74.3009 24.0516Z" fill="black"/>
<path d="M95.0814 9.18152H90.0098V27.3144H95.0814V9.18152Z" fill="black"/>
<path d="M100.673 20.3557C100.673 19.1141 101.832 17.9592 103.976 17.9592C106.324 17.9592 108.179 19.0852 108.613 19.3451V14.4943C108.613 14.4943 107.135 13.0795 103.484 13.0795C99.6293 13.0795 96.4414 15.3316 96.4414 20.1536C96.4414 24.9755 99.3395 27.6608 103.484 27.6608C106.701 27.6608 108.642 25.8995 108.642 25.8995V21.3085C108.034 21.655 106.353 22.81 104.034 22.81C101.542 22.7811 100.673 21.655 100.673 20.3557Z" fill="black"/>
<path d="M118.875 13.0794C115.948 13.0794 114.817 15.8513 114.585 16.3422C114.354 16.8331 114.238 17.0929 114.064 17.0929C113.745 17.0929 113.977 16.5154 114.093 16.1401C114.325 15.4182 114.817 13.5703 114.817 11.2893C114.817 9.73006 114.614 9.21033 114.614 9.21033H110.238V27.3432H115.31C115.31 27.3432 115.31 21.5395 115.31 20.4134C115.31 19.2874 115.774 17.3239 117.049 17.3239C118.121 17.3239 118.44 18.1035 118.44 19.6916C118.44 21.2797 118.44 27.3721 118.44 27.3721H123.512C123.512 27.3721 123.512 23.1276 123.512 20.0092C123.512 16.3711 122.932 13.0794 118.875 13.0794Z" fill="black"/>
<path d="M125.164 13.3971V27.3144H130.236V13.3971C130.236 13.3971 129.395 13.888 127.714 13.888C126.033 13.888 125.164 13.3971 125.164 13.3971Z" fill="black"/>
<path d="M127.683 13.0795C129.396 13.0795 130.784 12.1746 130.784 11.0583C130.784 9.94202 129.396 9.03711 127.683 9.03711C125.97 9.03711 124.582 9.94202 124.582 11.0583C124.582 12.1746 125.97 13.0795 127.683 13.0795Z" fill="black"/>
<path d="M83.2852 13.3971V27.3144H88.3568V13.3971C88.3568 13.3971 87.5164 13.888 85.8355 13.888C84.1546 13.9168 83.2852 13.3971 83.2852 13.3971Z" fill="black"/>
<path d="M85.806 13.0795C87.5187 13.0795 88.907 12.1746 88.907 11.0583C88.907 9.94202 87.5187 9.03711 85.806 9.03711C84.0934 9.03711 82.7051 9.94202 82.7051 11.0583C82.7051 12.1746 84.0934 13.0795 85.806 13.0795Z" fill="black"/>
<path d="M163.043 13.0795C160.435 13.0795 159.246 15.014 158.725 16.1401C158.377 16.862 158.406 17.093 158.145 17.093C157.768 17.093 158.087 16.5155 158.232 15.8225C158.551 14.4654 158.319 13.426 158.319 13.426H154.609V31.1834H159.681C159.681 31.1834 159.681 28.2672 159.681 25.553C160.29 26.5636 161.391 27.6608 163.101 27.6608C166.781 27.6608 168.607 24.5713 168.607 20.3846C168.607 15.6204 166.405 13.0795 163.043 13.0795ZM161.652 24.3114C160.492 24.3114 159.623 22.8389 159.623 20.7888C159.623 18.7965 160.492 17.2662 161.594 17.2662C163.014 17.2662 163.593 18.5655 163.593 20.7888C163.622 23.1276 163.072 24.3114 161.652 24.3114Z" fill="black"/>
</svg>
