<svg width="157" height="40" viewBox="0 0 157 40" fill="none" xmlns="http://www.w3.org/2000/svg">
<path d="M9.56385 19.3812C13.1676 20.4875 15.5217 23.4835 19.4817 23.4835C23.5097 23.4835 26.4384 19.6345 28.5787 19.3812C30.5049 19.1323 33.5018 19.8431 35.9633 21.0219V11.2795C35.9716 10.3152 35.7884 9.35881 35.4242 8.46585C35.0601 7.57289 34.5223 6.76114 33.842 6.07762C33.1617 5.3941 32.3525 4.85241 31.4613 4.48402C30.5701 4.11563 29.6146 3.92786 28.6503 3.93157H10.3489C9.38363 3.93039 8.42761 4.11961 7.53559 4.48839C6.64358 4.85718 5.83303 5.39828 5.15042 6.08073C4.4678 6.76318 3.92651 7.5736 3.55751 8.46552C3.18851 9.35745 2.99906 10.3134 3 11.2786V20.4911C4.78396 19.63 7.42364 18.7009 9.56385 19.3812Z" fill="#20C58B"/>
<path d="M28.5787 19.3838C26.4385 19.6693 23.5123 23.4861 19.4817 23.4861C15.664 23.4861 13.2033 20.4901 9.56382 19.3838C7.42362 18.7026 4.78306 19.6326 3 20.4901V29.5513C2.99906 30.5166 3.18851 31.4726 3.55751 32.3645C3.92651 33.2564 4.46783 34.0668 5.15045 34.7492C5.83306 35.4317 6.64355 35.9728 7.53557 36.3416C8.42759 36.7104 9.3836 36.8996 10.3488 36.8984H28.6502C29.6156 36.8997 30.5717 36.7105 31.4638 36.3418C32.3559 35.9731 33.1665 35.432 33.8493 34.7496C34.532 34.0671 35.0734 33.2567 35.4424 32.3647C35.8115 31.4727 36.0009 30.5166 36 29.5513V20.9878C33.5375 19.8447 30.505 19.134 28.5787 19.3838Z" fill="#5858E0"/>
<path d="M10.2051 30.0106C9.9007 30.0114 9.59914 29.9522 9.31773 29.8362C9.03631 29.7202 8.78055 29.5497 8.56516 29.3347C8.34976 29.1196 8.17896 28.8642 8.06253 28.583C7.9461 28.3017 7.88637 28.0003 7.88672 27.6959V13.17C7.89865 12.5629 8.14821 11.9847 8.58176 11.5596C9.01532 11.1345 9.59831 10.8964 10.2055 10.8964C10.8127 10.8964 11.3957 11.1345 11.8293 11.5596C12.2628 11.9847 12.5124 12.5629 12.5243 13.17V27.6601C12.5262 28.2786 12.2835 28.8729 11.849 29.3133C11.4145 29.7536 10.8236 30.0042 10.2051 30.0106Z" fill="white"/>
<path d="M19.4833 26.73C19.1783 26.7307 18.8762 26.6711 18.5943 26.5547C18.3124 26.4382 18.0564 26.2672 17.8408 26.0514C17.6253 25.8356 17.4546 25.5793 17.3384 25.2973C17.2223 25.0153 17.163 24.7131 17.1641 24.4081V16.4524C17.176 15.8453 17.4256 15.2671 17.8591 14.842C18.2927 14.4168 18.8757 14.1787 19.4829 14.1787C20.0901 14.1787 20.6731 14.4168 21.1066 14.842C21.5402 15.2671 21.7897 15.8453 21.8017 16.4524V24.4439C21.7965 25.0542 21.5495 25.6375 21.1149 26.0661C20.6804 26.4946 20.0936 26.7334 19.4833 26.73Z" fill="white"/>
<path d="M28.7587 30.0106C28.4542 30.0115 28.1526 29.9524 27.8711 29.8364C27.5895 29.7205 27.3337 29.5501 27.1182 29.335C26.9027 29.1199 26.7319 28.8644 26.6154 28.5831C26.4989 28.3019 26.4391 28.0004 26.4395 27.6959V13.17C26.4514 12.5629 26.7009 11.9847 27.1345 11.5596C27.5681 11.1345 28.151 10.8964 28.7583 10.8964C29.3655 10.8964 29.9484 11.1345 30.382 11.5596C30.8156 11.9847 31.0651 12.5629 31.077 13.17V27.6601C31.0789 28.2785 30.8363 28.8726 30.4021 29.3129C29.9678 29.7532 29.3771 30.004 28.7587 30.0106Z" fill="white"/>
<path d="M45.668 29H48.188V20.9C48.188 20.02 48.428 19.308 48.908 18.764C49.396 18.22 50.036 17.948 50.828 17.948C51.628 17.948 52.264 18.22 52.736 18.764C53.216 19.3 53.456 20.036 53.456 20.972L53.444 29H55.952L55.964 20.9C55.964 19.924 56.224 19.188 56.744 18.692C57.272 18.196 57.892 17.948 58.604 17.948C59.388 17.948 60.02 18.212 60.5 18.74C60.98 19.268 61.22 19.996 61.22 20.924L61.208 29H63.716L63.728 20.324C63.728 18.932 63.34 17.816 62.564 16.976C61.796 16.136 60.716 15.716 59.324 15.716C58.476 15.716 57.708 15.904 57.02 16.28C56.332 16.648 55.788 17.16 55.388 17.816C55.044 17.16 54.552 16.648 53.912 16.28C53.28 15.904 52.516 15.716 51.62 15.716C50.844 15.716 50.132 15.872 49.484 16.184C48.844 16.488 48.316 16.904 47.9 17.432V16.04H45.668V29ZM70.5041 29.36C72.5681 29.36 74.1241 28.612 75.1721 27.116V29H77.3921V21.02C77.3921 20.476 77.3681 19.968 77.3201 19.496C77.2721 19.024 77.1441 18.576 76.9361 18.152C76.5361 17.296 75.9041 16.672 75.0401 16.28C74.1841 15.88 73.1761 15.68 72.0161 15.68C70.5201 15.68 69.3201 16.008 68.4161 16.664C67.5121 17.32 66.9041 18.204 66.5921 19.316L68.9321 20.036C69.1561 19.316 69.5521 18.796 70.1201 18.476C70.6881 18.156 71.3121 17.996 71.9921 17.996C73.0001 17.996 73.7281 18.212 74.1761 18.644C74.6321 19.068 74.8801 19.728 74.9201 20.624C73.8641 20.768 72.8321 20.92 71.8241 21.08C70.8161 21.232 69.9361 21.416 69.1841 21.632C68.1841 21.952 67.4241 22.428 66.9041 23.06C66.3841 23.692 66.1241 24.496 66.1241 25.472C66.1241 26.176 66.2881 26.824 66.6161 27.416C66.9521 28 67.4441 28.472 68.0921 28.832C68.7481 29.184 69.5521 29.36 70.5041 29.36ZM70.9481 27.308C70.1481 27.308 69.5561 27.124 69.1721 26.756C68.7961 26.388 68.6081 25.952 68.6081 25.448C68.6081 24.936 68.7761 24.532 69.1121 24.236C69.4561 23.94 69.8841 23.704 70.3961 23.528C70.9401 23.368 71.5801 23.228 72.3161 23.108C73.0601 22.988 73.9201 22.856 74.8961 22.712C74.8881 23.016 74.8681 23.356 74.8361 23.732C74.8041 24.108 74.7361 24.444 74.6321 24.74C74.5361 25.164 74.3321 25.572 74.0201 25.964C73.7161 26.356 73.3041 26.68 72.7841 26.936C72.2721 27.184 71.6601 27.308 70.9481 27.308ZM80.7481 13.916H83.2561V11.48H80.7481V13.916ZM80.7481 29H83.2561V16.04H80.7481V29ZM87.0997 29H89.6077V11.36H87.0997V29ZM93.1993 29H95.7193V20.9C95.7193 20.02 95.9593 19.308 96.4393 18.764C96.9273 18.22 97.5673 17.948 98.3593 17.948C99.1593 17.948 99.7953 18.22 100.267 18.764C100.747 19.3 100.987 20.036 100.987 20.972L100.975 29H103.483L103.495 20.9C103.495 19.924 103.755 19.188 104.275 18.692C104.803 18.196 105.423 17.948 106.135 17.948C106.919 17.948 107.551 18.212 108.031 18.74C108.511 19.268 108.751 19.996 108.751 20.924L108.739 29H111.247L111.259 20.324C111.259 18.932 110.871 17.816 110.095 16.976C109.327 16.136 108.247 15.716 106.855 15.716C106.007 15.716 105.239 15.904 104.551 16.28C103.863 16.648 103.319 17.16 102.919 17.816C102.575 17.16 102.083 16.648 101.443 16.28C100.811 15.904 100.047 15.716 99.1513 15.716C98.3753 15.716 97.6633 15.872 97.0153 16.184C96.3753 16.488 95.8473 16.904 95.4313 17.432V16.04H93.1993V29ZM119.839 29.36C121.127 29.36 122.247 29.072 123.199 28.496C124.151 27.912 124.887 27.108 125.407 26.084C125.935 25.052 126.199 23.86 126.199 22.508C126.199 21.172 125.939 19.992 125.419 18.968C124.899 17.936 124.163 17.132 123.211 16.556C122.259 15.972 121.135 15.68 119.839 15.68C118.567 15.68 117.455 15.968 116.503 16.544C115.551 17.12 114.811 17.92 114.283 18.944C113.755 19.968 113.491 21.156 113.491 22.508C113.491 23.844 113.751 25.028 114.271 26.06C114.791 27.092 115.523 27.9 116.467 28.484C117.419 29.068 118.543 29.36 119.839 29.36ZM119.839 26.996C118.631 26.996 117.715 26.592 117.091 25.784C116.467 24.968 116.155 23.876 116.155 22.508C116.155 21.188 116.455 20.116 117.055 19.292C117.655 18.46 118.583 18.044 119.839 18.044C121.063 18.044 121.983 18.448 122.599 19.256C123.223 20.064 123.535 21.148 123.535 22.508C123.535 23.836 123.227 24.916 122.611 25.748C122.003 26.58 121.079 26.996 119.839 26.996ZM133.984 29.36C134.8 29.36 135.528 29.224 136.168 28.952C136.816 28.68 137.376 28.3 137.848 27.812V29H140.08V11.72H137.56V16.928C137.112 16.528 136.592 16.22 136 16.004C135.408 15.788 134.752 15.68 134.032 15.68C132.816 15.68 131.764 15.98 130.876 16.58C129.996 17.172 129.316 17.984 128.836 19.016C128.356 20.04 128.116 21.204 128.116 22.508C128.116 23.804 128.352 24.968 128.824 26C129.304 27.032 129.984 27.852 130.864 28.46C131.744 29.06 132.784 29.36 133.984 29.36ZM134.332 27.092C133.532 27.092 132.868 26.888 132.34 26.48C131.812 26.072 131.42 25.524 131.164 24.836C130.908 24.14 130.78 23.364 130.78 22.508C130.78 21.66 130.908 20.892 131.164 20.204C131.428 19.516 131.828 18.968 132.364 18.56C132.9 18.152 133.584 17.948 134.416 17.948C135.6 17.948 136.468 18.372 137.02 19.22C137.572 20.068 137.848 21.164 137.848 22.508C137.848 23.852 137.572 24.952 137.02 25.808C136.468 26.664 135.572 27.092 134.332 27.092ZM149.066 29.36C150.354 29.36 151.474 29.072 152.426 28.496C153.378 27.912 154.114 27.108 154.634 26.084C155.162 25.052 155.426 23.86 155.426 22.508C155.426 21.172 155.166 19.992 154.646 18.968C154.126 17.936 153.39 17.132 152.438 16.556C151.486 15.972 150.362 15.68 149.066 15.68C147.794 15.68 146.682 15.968 145.73 16.544C144.778 17.12 144.038 17.92 143.51 18.944C142.982 19.968 142.718 21.156 142.718 22.508C142.718 23.844 142.978 25.028 143.498 26.06C144.018 27.092 144.75 27.9 145.694 28.484C146.646 29.068 147.77 29.36 149.066 29.36ZM149.066 26.996C147.858 26.996 146.942 26.592 146.318 25.784C145.694 24.968 145.382 23.876 145.382 22.508C145.382 21.188 145.682 20.116 146.282 19.292C146.882 18.46 147.81 18.044 149.066 18.044C150.29 18.044 151.21 18.448 151.826 19.256C152.45 20.064 152.762 21.148 152.762 22.508C152.762 23.836 152.454 24.916 151.838 25.748C151.23 26.58 150.306 26.996 149.066 26.996Z" fill="#18191F"/>
</svg>
