<svg width="56" height="56" viewBox="0 0 56 56" fill="none" xmlns="http://www.w3.org/2000/svg">
<path d="M28 56C43.464 56 56 43.464 56 28C56 12.536 43.464 0 28 0C12.536 0 0 12.536 0 28C0 43.464 12.536 56 28 56Z" fill="#DA552F"/>
<path d="M31.6809 14.0708H18.1699V42.0238H23.7609V33.6378H31.6809C34.2757 33.6378 36.7641 32.607 38.5989 30.7723C40.4337 28.9375 41.4644 26.449 41.4644 23.8543C41.4644 21.2595 40.4337 18.7711 38.5989 16.9363C36.7641 15.1016 34.2757 14.0708 31.6809 14.0708ZM31.6809 28.0468H23.7609V19.6608H31.6809C32.793 19.6608 33.8595 20.1026 34.6458 20.8889C35.4322 21.6752 35.8739 22.7418 35.8739 23.8538C35.8739 24.9659 35.4322 26.0324 34.6458 26.8187C33.8595 27.605 32.793 28.0468 31.6809 28.0468Z" fill="white"/>
</svg>
