<svg width="27" height="26" viewBox="0 0 27 26" fill="none" xmlns="http://www.w3.org/2000/svg">
<path d="M14.7058 1.438L16.7298 7.67C16.8162 7.98165 17.0051 8.25509 17.266 8.44615C17.5269 8.63721 17.8446 8.73475 18.1678 8.723H24.7098C25.0689 8.6202 25.454 8.6608 25.7838 8.83625C26.1136 9.01169 26.3625 9.30828 26.4779 9.66355C26.5934 10.0188 26.5665 10.4051 26.4029 10.7409C26.2393 11.0767 25.9517 11.336 25.6008 11.464L20.3128 15.315C20.0471 15.4956 19.8491 15.7596 19.7502 16.0653C19.6514 16.371 19.6572 16.701 19.7668 17.003L21.7798 23.235C21.9886 23.5444 22.069 23.9229 22.004 24.2905C21.939 24.6581 21.7337 24.986 21.4315 25.2051C21.1292 25.4242 20.7537 25.5172 20.3841 25.4646C20.0145 25.4119 19.6799 25.2177 19.4508 24.923L14.1598 21.075C13.9075 20.8775 13.5962 20.7701 13.2758 20.7701C12.9553 20.7701 12.6441 20.8775 12.3918 21.075L7.08679 24.927C6.84938 25.195 6.52058 25.3649 6.16462 25.4035C5.80865 25.4421 5.45109 25.3465 5.16178 25.1356C4.87248 24.9246 4.6722 24.6134 4.60009 24.2627C4.52797 23.912 4.58919 23.547 4.77179 23.239L6.78479 17.007C6.8944 16.705 6.90022 16.375 6.80134 16.0693C6.70245 15.7636 6.50451 15.4996 6.23879 15.319L0.94779 11.467C0.596842 11.339 0.309277 11.0797 0.145661 10.7439C-0.0179545 10.4081 -0.0448511 10.0218 0.0706358 9.66655C0.186123 9.31128 0.434979 9.01469 0.764793 8.83924C1.09461 8.6638 1.47964 8.62321 1.83879 8.726H8.37979C8.70297 8.73775 9.02068 8.64021 9.2816 8.44915C9.54252 8.25808 9.73142 7.98465 9.81779 7.673L11.8298 1.438C11.8298 1.05662 11.9813 0.690858 12.251 0.421181C12.5206 0.151503 12.8864 0 13.2678 0C13.6492 0 14.0149 0.151503 14.2846 0.421181C14.5543 0.690858 14.7058 1.05662 14.7058 1.438Z" fill="#FBB03B"/>
</svg>
