<svg xmlns="http://www.w3.org/2000/svg" width="205" height="84" viewBox="0 0 205 84">
  <g id="angel_list" transform="translate(-3744 -11842)">
    <g id="Group_71" data-name="Group 71" transform="translate(-385.39 2.479)">
      <path id="Path_315" data-name="Path 315" d="M621.045,16.7l5.769,15.431H623.3l-1.168-3.437h-5.77l-1.2,3.437H611.74L617.575,16.7Zm.195,9.467L619.3,20.5h-.042l-2.011,5.661Z" transform="translate(3592.451 11857.167)" fill="#231f20"/>
      <path id="Path_316" data-name="Path 316" d="M628.781,20.479v1.552h.066a3.52,3.52,0,0,1,1.5-1.417,4.37,4.37,0,0,1,1.9-.444,5.213,5.213,0,0,1,2.02.336,3.006,3.006,0,0,1,1.243.931,3.605,3.605,0,0,1,.636,1.447,9.017,9.017,0,0,1,.183,1.891v6.874h-3.056V25.333a3.923,3.923,0,0,0-.431-2.065,1.675,1.675,0,0,0-1.534-.681,2.084,2.084,0,0,0-1.8.744,4.292,4.292,0,0,0-.561,2.452v5.856h-3.086V20.479Z" transform="translate(3594.404 11857.646)" fill="#231f20"/>
      <path id="Path_317" data-name="Path 317" d="M647.47,32.472a3.775,3.775,0,0,1-.789,1.609,4.71,4.71,0,0,1-1.751,1.264,7.541,7.541,0,0,1-3.068.519,7.145,7.145,0,0,1-1.674-.2,5.325,5.325,0,0,1-1.555-.636,3.827,3.827,0,0,1-1.168-1.114,3.226,3.226,0,0,1-.528-1.633h3.047a1.745,1.745,0,0,0,.844,1.2,3.023,3.023,0,0,0,1.447.336,2.229,2.229,0,0,0,1.891-.777,3.052,3.052,0,0,0,.574-1.966V29.6H644.7a3.039,3.039,0,0,1-1.417,1.309,4.582,4.582,0,0,1-1.933.42,4.877,4.877,0,0,1-2.162-.444,4.088,4.088,0,0,1-1.5-1.2,5.034,5.034,0,0,1-.853-1.8,8.483,8.483,0,0,1-.271-2.173,7,7,0,0,1,.3-2.086,5.438,5.438,0,0,1,.919-1.771,4.424,4.424,0,0,1,1.5-1.222,4.5,4.5,0,0,1,2.065-.453,4.322,4.322,0,0,1,1.933.411,3.345,3.345,0,0,1,1.393,1.384h.042v-1.5h2.917V30.932A7.529,7.529,0,0,1,647.47,32.472Zm-4.2-3.716a2.406,2.406,0,0,0,.822-.69,3.07,3.07,0,0,0,.486-.985,4.1,4.1,0,0,0,.163-1.156,6.322,6.322,0,0,0-.13-1.309,3.266,3.266,0,0,0-.431-1.093,2.246,2.246,0,0,0-.8-.756,2.526,2.526,0,0,0-1.254-.282,2.253,2.253,0,0,0-1.114.258,2.352,2.352,0,0,0-.777.7,2.994,2.994,0,0,0-.453,1.015,5.015,5.015,0,0,0-.141,1.2,6.079,6.079,0,0,0,.121,1.2,3.227,3.227,0,0,0,.411,1.069,2.414,2.414,0,0,0,.768.777,2.172,2.172,0,0,0,1.2.3,2.442,2.442,0,0,0,1.129-.255Z" transform="translate(3595.883 11857.648)" fill="#231f20"/>
      <path id="Path_318" data-name="Path 318" d="M651.589,28.97a3.144,3.144,0,0,0,3.587.2,1.927,1.927,0,0,0,.823-.984h2.7a5.127,5.127,0,0,1-1.986,2.876,5.854,5.854,0,0,1-3.242.864,6.384,6.384,0,0,1-2.378-.42,4.942,4.942,0,0,1-1.8-1.2,5.4,5.4,0,0,1-1.135-1.858,6.82,6.82,0,0,1-.4-2.377,6.53,6.53,0,0,1,.423-2.332,5.4,5.4,0,0,1,2.972-3.113,5.783,5.783,0,0,1,2.323-.453,5.31,5.31,0,0,1,2.485.552,4.965,4.965,0,0,1,1.738,1.48,6.076,6.076,0,0,1,.985,2.119,7.874,7.874,0,0,1,.216,2.485h-8.068A3.1,3.1,0,0,0,651.589,28.97Zm3.471-5.877a2.169,2.169,0,0,0-1.676-.6,2.667,2.667,0,0,0-1.221.249,2.325,2.325,0,0,0-.777.615,2.237,2.237,0,0,0-.411.774,3.445,3.445,0,0,0-.141.735h4.991a3.551,3.551,0,0,0-.765-1.774Z" transform="translate(3597.431 11857.647)" fill="#231f20"/>
      <path id="Path_319" data-name="Path 319" d="M662.048,16.7V32.131h-3.071V16.7Z" transform="translate(3598.982 11857.167)" fill="#231f20"/>
      <path id="Path_320" data-name="Path 320" d="M667.216,16.7V29.276h7.519v2.852H663.824V16.7Z" transform="translate(3599.652 11857.167)" fill="#231f20"/>
      <path id="Path_321" data-name="Path 321" d="M674.528,19.229V16.7H677.6v2.527Zm3.068,1.729V32.13h-3.068V20.958Z" transform="translate(3601.132 11857.168)" fill="#231f20"/>
      <path id="Path_322" data-name="Path 322" d="M681.811,28.874a1.806,1.806,0,0,0,.528.582,2.28,2.28,0,0,0,.744.336,3.5,3.5,0,0,0,.876.108,3.26,3.26,0,0,0,.682-.075,2.3,2.3,0,0,0,.648-.237,1.482,1.482,0,0,0,.487-.432,1.141,1.141,0,0,0,.195-.681q0-.69-.919-1.039a18.43,18.43,0,0,0-2.56-.69q-.669-.15-1.309-.357a4.45,4.45,0,0,1-1.135-.54,2.616,2.616,0,0,1-.8-.843,2.382,2.382,0,0,1-.3-1.243,3.363,3.363,0,0,1,.42-1.771,3.1,3.1,0,0,1,1.114-1.093,4.861,4.861,0,0,1,1.555-.561,9.6,9.6,0,0,1,1.77-.162,8.851,8.851,0,0,1,1.762.174,4.67,4.67,0,0,1,1.525.582,3.492,3.492,0,0,1,1.113,1.092,3.657,3.657,0,0,1,.528,1.717h-2.917a1.338,1.338,0,0,0-.669-1.2,3.066,3.066,0,0,0-1.425-.3,5.368,5.368,0,0,0-.562.033,1.881,1.881,0,0,0-.552.141,1.14,1.14,0,0,0-.42.3.827.827,0,0,0-.174.552.857.857,0,0,0,.073.369.841.841,0,0,0,.228.3,2.328,2.328,0,0,0,.789.42,9.886,9.886,0,0,0,1.114.3q.627.129,1.275.282a13,13,0,0,1,1.309.366,4.338,4.338,0,0,1,1.135.573,2.771,2.771,0,0,1,.8.9,2.6,2.6,0,0,1,.3,1.309,3.393,3.393,0,0,1-1.606,3.023,4.724,4.724,0,0,1-1.632.636,9.514,9.514,0,0,1-1.87.183,9.27,9.27,0,0,1-1.9-.2,5.028,5.028,0,0,1-1.654-.648,3.694,3.694,0,0,1-1.2-1.2,3.761,3.761,0,0,1-.508-1.87h2.919a1.684,1.684,0,0,0,.228.858Z" transform="translate(3601.704 11857.648)" fill="#231f20"/>
      <path id="Path_323" data-name="Path 323" d="M695.485,20.848V22.9h-2.248v5.532a1.5,1.5,0,0,0,.262,1.039,1.492,1.492,0,0,0,1.038.258,3.834,3.834,0,0,0,.5-.021,4.269,4.269,0,0,0,.453-.066V32.02a7.3,7.3,0,0,1-.864.087q-.478.021-.931.021a9.007,9.007,0,0,1-1.351-.1,3.191,3.191,0,0,1-1.122-.378,1.993,1.993,0,0,1-.768-.8,2.863,2.863,0,0,1-.282-1.363v-6.6h-1.858V20.836h1.858V17.5h3.068v3.35Z" transform="translate(3603.038 11857.278)" fill="#231f20"/>
      <path id="Path_324" data-name="Path 324" d="M605.39,22.386a6.046,6.046,0,0,1,4.275,2.558q1.238,1.984,1.245,6.263,0,8.487-5.1,13.89a17.147,17.147,0,0,1-13.049,5.4,16.875,16.875,0,0,1-6.075-1.127,15.052,15.052,0,0,1-5.062-3.149,15.97,15.97,0,0,1-3.638-4.7,11.4,11.4,0,0,1-1.211-5.062,7.086,7.086,0,0,1,1.245-4.478,6.594,6.594,0,0,1,3.935-2.173,17.958,17.958,0,0,1-.743-1.988,4.835,4.835,0,0,1-.236-1.245,4.492,4.492,0,0,1,1.6-3.1,4.5,4.5,0,0,1,3.014-1.583,4.135,4.135,0,0,1,1.278.219,8.413,8.413,0,0,1,1.549.726q-2.6-7.34-3.773-11.332a23.564,23.564,0,0,1-1.173-5.5,4.858,4.858,0,0,1,1.076-3.317,3.715,3.715,0,0,1,2.93-1.228q3.165,0,8.008,14.143.84,2.423,1.279,3.739.371-1.043,1.043-2.963,4.859-14.011,8.359-14.011a3.484,3.484,0,0,1,2.743,1.161,4.571,4.571,0,0,1,1.012,3.115,24.046,24.046,0,0,1-1.127,5.42Q607.664,16,605.39,22.386ZM581.278,36.124q.471.574,1.312,1.687,2.223,3.064,4.107,3.064a1.785,1.785,0,0,0,1.144-.4,1.115,1.115,0,0,0,.507-.84,4.194,4.194,0,0,0-.675-1.687,21.768,21.768,0,0,0-1.853-2.659,20.057,20.057,0,0,0-2.24-2.507,2.518,2.518,0,0,0-1.431-.79,2.8,2.8,0,0,0-2.174,1.262,4.679,4.679,0,0,0-.991,2.98,8.255,8.255,0,0,0,.675,3.081,14.821,14.821,0,0,0,2,3.419,13.36,13.36,0,0,0,4.933,4.09,14.7,14.7,0,0,0,6.523,1.417,14.222,14.222,0,0,0,10.994-4.9,17.621,17.621,0,0,0,4.428-12.273,15.256,15.256,0,0,0-.338-3.587,3.428,3.428,0,0,0-1.11-1.937q-1.381-1.144-5.373-2.055a37.4,37.4,0,0,0-8.335-.908,2.8,2.8,0,0,0-1.718.4,1.673,1.673,0,0,0-.507,1.38,3.474,3.474,0,0,0,2.559,3.317Q596.278,28.7,602,28.69h1.381a.93.93,0,0,1,.759.337,2.184,2.184,0,0,1,.388,1.06,7.944,7.944,0,0,1-2.363,1.228,12.691,12.691,0,0,0-2.726,1.35,12.091,12.091,0,0,0-3.229,3.557,7.514,7.514,0,0,0-1.229,3.857,8.706,8.706,0,0,0,.524,2.676,9.281,9.281,0,0,1,.523,1.937v.236l-.067.3a2.833,2.833,0,0,1-2.338-1.735,9.422,9.422,0,0,1-.857-4.36v-.3a1.873,1.873,0,0,1-.524.337,1.484,1.484,0,0,1-.557.1,3.106,3.106,0,0,1-.574-.051,5.932,5.932,0,0,1-.608-.152,6.073,6.073,0,0,1,.153.726,4.373,4.373,0,0,1,.05.557,2.794,2.794,0,0,1-.976,2.14,3.33,3.33,0,0,1-2.324.891,6.383,6.383,0,0,1-4.309-2.072,5.809,5.809,0,0,1-2.191-4.05,2.3,2.3,0,0,1,.085-.658,1.117,1.117,0,0,1,.283-.489Zm10.1.807a1.385,1.385,0,0,0,1.043-.523,1.653,1.653,0,0,0,.472-1.127,11.755,11.755,0,0,0-.924-2.98,29.9,29.9,0,0,0-2.308-4.6,10.769,10.769,0,0,0-1.987-2.541,2.9,2.9,0,0,0-1.853-.857,2.353,2.353,0,0,0-1.566.891,2.524,2.524,0,0,0-.857,1.667,6.046,6.046,0,0,0,.841,2.423,22.892,22.892,0,0,0,2.257,3.435,18.778,18.778,0,0,0,2.794,3.1,3.782,3.782,0,0,0,2.089,1.1Zm3.3-16.266L591.044,10.15a31.485,31.485,0,0,0-2.191-5.237q-.775-1.232-1.687-1.228a1.4,1.4,0,0,0-1.134.54,2.225,2.225,0,0,0-.438,1.448,22.013,22.013,0,0,0,1.177,5.4q1.178,3.851,3.537,10.07a1.125,1.125,0,0,1,.574-.523,2.738,2.738,0,0,1,1.013-.152q.2,0,.806.034t1.982.159Zm3.8,10.195a20.737,20.737,0,0,1-2.744-.3,14.563,14.563,0,0,1-2.474-.675q.538,1.08.958,2.156a18.51,18.51,0,0,1,.675,2.123,16.768,16.768,0,0,1,1.688-1.836A14.178,14.178,0,0,1,598.485,30.86Zm4.478-9.058q2.254-6.128,3.52-10.124a25.073,25.073,0,0,0,1.262-4.9,2.408,2.408,0,0,0-.422-1.515,1.393,1.393,0,0,0-1.16-.54q-.942,0-1.92,1.566a25.776,25.776,0,0,0-2.157,5.035l-3.375,9.732Z" transform="translate(3587.617 11855.061)" fill="#231f20"/>
    </g>
    <g id="Component_1_50" data-name="Component 1 – 50" transform="translate(3744 11842)">
      <rect id="Rectangle_43" data-name="Rectangle 43" width="205" height="84" fill="none" opacity="0"/>
    </g>
  </g>
</svg>
