<svg width="1316" height="61" viewBox="0 0 1316 61" fill="none" xmlns="http://www.w3.org/2000/svg">
<path d="M11.2614 39.644H13.8949V32.0332H21.3097V29.7747H13.8949V24.4565H22.0852V22.1895H11.2614V39.644ZM25.1193 39.644H27.6676V26.5531H25.1193V39.644ZM26.4062 24.5332C27.2841 24.5332 28.017 23.8514 28.017 23.0162C28.017 22.181 27.2841 21.4906 26.4062 21.4906C25.5199 21.4906 24.7955 22.181 24.7955 23.0162C24.7955 23.8514 25.5199 24.5332 26.4062 24.5332ZM33.6442 31.8713C33.6442 29.7832 34.9226 28.5901 36.6953 28.5901C38.4254 28.5901 39.4737 29.7236 39.4737 31.6242V39.644H42.022V31.3173C42.022 28.0787 40.2408 26.3827 37.5646 26.3827C35.5959 26.3827 34.3089 27.2946 33.7038 28.6838H33.5419V26.5531H31.0959V39.644H33.6442V31.8713ZM51.5504 26.5531H48.8658V23.4168H46.3175V26.5531H44.3999V28.5986H46.3175V36.3287C46.3089 38.7065 48.1243 39.8571 50.1357 39.8145C50.9453 39.806 51.4908 39.6526 51.7891 39.5418L51.3288 37.4367C51.1584 37.4707 50.843 37.5475 50.4339 37.5475C49.6072 37.5475 48.8658 37.2747 48.8658 35.8003V28.5986H51.5504V26.5531ZM59.8707 39.9082C62.7259 39.9082 64.7457 38.502 65.3253 36.3713L62.9134 35.9367C62.4531 37.1725 61.3452 37.8031 59.8963 37.8031C57.7145 37.8031 56.2486 36.3884 56.1804 33.8656H65.4872V32.9622C65.4872 28.2321 62.6577 26.3827 59.6918 26.3827C56.044 26.3827 53.6406 29.1611 53.6406 33.1838C53.6406 37.2492 56.0099 39.9082 59.8707 39.9082ZM56.1889 31.9565C56.2912 30.0986 57.6378 28.4878 59.7088 28.4878C61.6861 28.4878 62.9815 29.9537 62.9901 31.9565H56.1889ZM73.8288 39.9082C76.9226 39.9082 78.9254 38.0503 79.2067 35.502H76.7266C76.4027 36.9168 75.3033 37.752 73.8459 37.752C71.6896 37.752 70.3004 35.9537 70.3004 33.0986C70.3004 30.2946 71.7152 28.5304 73.8459 28.5304C75.4652 28.5304 76.4538 29.5531 76.7266 30.7804H79.2067C78.9339 28.1384 76.7777 26.3827 73.8033 26.3827C70.1129 26.3827 67.7266 29.1611 67.7266 33.1582C67.7266 37.1043 70.0277 39.9082 73.8288 39.9082ZM84.4801 31.8713C84.4801 29.7832 85.8011 28.5901 87.6165 28.5901C89.3722 28.5901 90.4205 29.7065 90.4205 31.6242V39.644H92.9688V31.3173C92.9688 28.0531 91.179 26.3827 88.4858 26.3827C86.4489 26.3827 85.2216 27.269 84.608 28.6838H84.446V22.1895H81.9318V39.644H84.4801V31.8713Z" fill="#9B9B9B"/>
<path d="M231.773 39.644H242.819V37.377H234.407V32.0332H242.145V29.7747H234.407V24.4565H242.716V22.1895H231.773V39.644ZM250.93 39.8997C253.316 39.8997 254.254 38.4423 254.714 37.6071H254.927V39.644H257.416V22.1895H254.868V28.6753H254.714C254.254 27.8656 253.385 26.3827 250.947 26.3827C247.785 26.3827 245.458 28.8798 245.458 33.1242C245.458 37.36 247.751 39.8997 250.93 39.8997ZM251.493 37.7264C249.217 37.7264 248.032 35.7236 248.032 33.0986C248.032 30.4992 249.191 28.5475 251.493 28.5475C253.717 28.5475 254.91 30.3628 254.91 33.0986C254.91 35.8514 253.691 37.7264 251.493 37.7264ZM260.397 24.4565H265.834V39.644H268.459V24.4565H273.905V22.1895H260.397V24.4565ZM280.429 39.9082C283.284 39.9082 285.304 38.502 285.884 36.3713L283.472 35.9367C283.012 37.1725 281.904 37.8031 280.455 37.8031C278.273 37.8031 276.807 36.3884 276.739 33.8656H286.046V32.9622C286.046 28.2321 283.216 26.3827 280.25 26.3827C276.603 26.3827 274.199 29.1611 274.199 33.1838C274.199 37.2492 276.569 39.9082 280.429 39.9082ZM276.748 31.9565C276.85 30.0986 278.196 28.4878 280.267 28.4878C282.245 28.4878 283.54 29.9537 283.549 31.9565H276.748ZM294.387 39.9082C297.481 39.9082 299.484 38.0503 299.765 35.502H297.285C296.961 36.9168 295.862 37.752 294.404 37.752C292.248 37.752 290.859 35.9537 290.859 33.0986C290.859 30.2946 292.274 28.5304 294.404 28.5304C296.024 28.5304 297.012 29.5531 297.285 30.7804H299.765C299.493 28.1384 297.336 26.3827 294.362 26.3827C290.672 26.3827 288.285 29.1611 288.285 33.1582C288.285 37.1043 290.586 39.9082 294.387 39.9082ZM305.039 31.8713C305.039 29.7832 306.36 28.5901 308.175 28.5901C309.931 28.5901 310.979 29.7065 310.979 31.6242V39.644H313.527V31.3173C313.527 28.0531 311.738 26.3827 309.044 26.3827C307.007 26.3827 305.78 27.269 305.167 28.6838H305.005V22.1895H302.49V39.644H305.039V31.8713ZM328.359 39.8912C329.936 39.8912 331.683 39.3628 332.859 38.2634L334.035 39.644H336.916L334.436 36.6781C335.177 35.6895 335.885 34.1384 335.885 31.7179H333.583C333.583 32.8855 333.311 33.9253 332.859 34.7946L329.365 30.6185L330.558 29.7406C332.007 28.6838 332.876 27.4651 332.876 25.8031C332.876 23.7662 331.231 22.002 328.547 22.002C325.887 22.002 324.14 23.7151 324.14 26.127C324.14 27.6867 324.958 28.9225 326.058 30.2605C324.064 31.6412 322.708 32.9281 322.708 35.0077C322.708 37.8117 324.848 39.8912 328.359 39.8912ZM331.427 36.5759C330.524 37.3259 329.441 37.735 328.368 37.735C326.475 37.735 325.24 36.448 325.24 34.9395C325.24 34.4026 325.691 33.3287 327.055 32.323L327.515 31.9821L331.427 36.5759ZM327.958 28.9225C327.166 27.9509 326.544 27.056 326.544 26.1696C326.544 25.1554 327.379 24.1327 328.606 24.1327C329.782 24.1327 330.549 25.0531 330.549 25.8713C330.549 26.9111 329.978 27.5418 329.032 28.1639L327.958 28.9225ZM352.252 22.1895V34.5645C352.244 36.5759 351.306 37.6497 349.636 37.6497C348.093 37.6497 347.02 36.7293 347.011 35.2804H344.395C344.395 38.2293 346.61 39.8827 349.568 39.8827C352.772 39.8827 354.869 37.9225 354.877 34.5645V22.1895H352.252ZM364.02 39.9082C367.711 39.9082 370.123 37.2065 370.123 33.1582C370.123 29.0844 367.711 26.3827 364.02 26.3827C360.33 26.3827 357.918 29.0844 357.918 33.1582C357.918 37.2065 360.33 39.9082 364.02 39.9082ZM364.029 37.769C361.617 37.769 360.492 35.6639 360.492 33.1497C360.492 30.644 361.617 28.5134 364.029 28.5134C366.424 28.5134 367.549 30.644 367.549 33.1497C367.549 35.6639 366.424 37.769 364.029 37.769ZM373.172 39.644H375.66V37.6071H375.873C376.333 38.4423 377.271 39.8997 379.657 39.8997C382.828 39.8997 385.129 37.36 385.129 33.1242C385.129 28.8798 382.794 26.3827 379.632 26.3827C377.203 26.3827 376.325 27.8656 375.873 28.6753H375.72V22.1895H373.172V39.644ZM375.669 33.0986C375.669 30.3628 376.862 28.5475 379.086 28.5475C381.396 28.5475 382.555 30.4992 382.555 33.0986C382.555 35.7236 381.362 37.7264 379.086 37.7264C376.896 37.7264 375.669 35.8514 375.669 33.0986ZM397.8 29.7492C397.272 27.7122 395.678 26.3827 392.848 26.3827C389.891 26.3827 387.794 27.9423 387.794 30.2605C387.794 32.1185 388.919 33.3543 391.374 33.8997L393.59 34.3855C394.851 34.6668 395.439 35.2293 395.439 36.0475C395.439 37.0617 394.357 37.8543 392.686 37.8543C391.161 37.8543 390.181 37.198 389.874 35.9111L387.411 36.2861C387.837 38.6043 389.763 39.9082 392.703 39.9082C395.865 39.9082 398.056 38.2293 398.056 35.86C398.056 34.0105 396.88 32.8685 394.476 32.3145L392.397 31.8372C390.956 31.4963 390.334 31.0105 390.343 30.1242C390.334 29.1185 391.425 28.4026 392.874 28.4026C394.459 28.4026 395.192 29.2804 395.49 30.1582L397.8 29.7492Z" fill="#9B9B9B"/>
<path d="M564.617 26.7747H567.157C567.08 23.9793 564.609 21.9509 561.063 21.9509C557.56 21.9509 554.876 23.9537 554.876 26.9622C554.876 29.3912 556.614 30.8145 559.418 31.573L561.481 32.1355C563.347 32.6298 564.788 33.2435 564.788 34.7946C564.788 36.4992 563.16 37.6242 560.918 37.6242C558.89 37.6242 557.202 36.7207 557.049 34.8202H554.407C554.577 37.9821 557.023 39.9338 560.935 39.9338C565.035 39.9338 567.396 37.7776 567.396 34.8202C567.396 31.6753 564.592 30.4565 562.376 29.9111L560.671 29.4679C559.308 29.1185 557.492 28.4793 557.501 26.8088C557.501 25.3259 558.856 24.2264 561.004 24.2264C563.006 24.2264 564.43 25.1639 564.617 26.7747ZM574.148 39.9338C576.312 39.9338 577.531 38.8344 578.017 37.8543H578.119V39.644H580.608V30.9509C580.608 27.1412 577.608 26.3827 575.528 26.3827C573.159 26.3827 570.977 27.3372 570.125 29.7236L572.52 30.269C572.895 29.3401 573.849 28.4452 575.562 28.4452C577.207 28.4452 578.051 29.306 578.051 30.7889V30.8486C578.051 31.7776 577.097 31.7605 574.744 32.0332C572.264 32.323 569.724 32.9707 569.724 35.9452C569.724 38.519 571.659 39.9338 574.148 39.9338ZM574.702 37.8884C573.261 37.8884 572.222 37.2406 572.222 35.9793C572.222 34.6156 573.432 34.1298 574.906 33.9338C575.733 33.823 577.693 33.6014 578.06 33.235V34.9225C578.06 36.4736 576.824 37.8884 574.702 37.8884ZM587.812 39.9338C589.977 39.9338 591.195 38.8344 591.681 37.8543H591.783V39.644H594.272V30.9509C594.272 27.1412 591.272 26.3827 589.192 26.3827C586.823 26.3827 584.641 27.3372 583.789 29.7236L586.184 30.269C586.559 29.3401 587.513 28.4452 589.227 28.4452C590.871 28.4452 591.715 29.306 591.715 30.7889V30.8486C591.715 31.7776 590.761 31.7605 588.408 32.0332C585.928 32.323 583.388 32.9707 583.388 35.9452C583.388 38.519 585.323 39.9338 587.812 39.9338ZM588.366 37.8884C586.925 37.8884 585.886 37.2406 585.886 35.9793C585.886 34.6156 587.096 34.1298 588.57 33.9338C589.397 33.823 591.357 33.6014 591.724 33.235V34.9225C591.724 36.4736 590.488 37.8884 588.366 37.8884ZM607.476 29.7492C606.947 27.7122 605.354 26.3827 602.524 26.3827C599.567 26.3827 597.47 27.9423 597.47 30.2605C597.47 32.1185 598.595 33.3543 601.05 33.8997L603.266 34.3855C604.527 34.6668 605.115 35.2293 605.115 36.0475C605.115 37.0617 604.033 37.8543 602.362 37.8543C600.837 37.8543 599.857 37.198 599.55 35.9111L597.087 36.2861C597.513 38.6043 599.439 39.9082 602.379 39.9082C605.541 39.9082 607.732 38.2293 607.732 35.86C607.732 34.0105 606.555 32.8685 604.152 32.3145L602.072 31.8372C600.632 31.4963 600.01 31.0105 600.018 30.1242C600.01 29.1185 601.101 28.4026 602.55 28.4026C604.135 28.4026 604.868 29.2804 605.166 30.1582L607.476 29.7492Z" fill="#9B9B9B"/>
<path d="M799.672 39.644H810.717V37.377H802.305V32.0332H810.044V29.7747H802.305V24.4565H810.615V22.1895H799.672V39.644ZM819.442 39.9082C822.536 39.9082 824.539 38.0503 824.82 35.502H822.34C822.016 36.9168 820.917 37.752 819.459 37.752C817.303 37.752 815.914 35.9537 815.914 33.0986C815.914 30.2946 817.328 28.5304 819.459 28.5304C821.078 28.5304 822.067 29.5531 822.34 30.7804H824.82C824.547 28.1384 822.391 26.3827 819.417 26.3827C815.726 26.3827 813.34 29.1611 813.34 33.1582C813.34 37.1043 815.641 39.9082 819.442 39.9082ZM833.059 39.9082C836.75 39.9082 839.162 37.2065 839.162 33.1582C839.162 29.0844 836.75 26.3827 833.059 26.3827C829.369 26.3827 826.957 29.0844 826.957 33.1582C826.957 37.2065 829.369 39.9082 833.059 39.9082ZM833.068 37.769C830.656 37.769 829.531 35.6639 829.531 33.1497C829.531 30.644 830.656 28.5134 833.068 28.5134C835.463 28.5134 836.588 30.644 836.588 33.1497C836.588 35.6639 835.463 37.769 833.068 37.769ZM842.006 39.644H844.554V31.573C844.554 29.8088 845.79 28.5815 847.239 28.5815C848.654 28.5815 849.634 29.519 849.634 30.9423V39.644H852.174V31.3003C852.174 29.7236 853.137 28.5815 854.799 28.5815C856.145 28.5815 857.253 29.3315 857.253 31.1043V39.644H859.801V30.8656C859.801 27.8742 858.131 26.3827 855.762 26.3827C853.878 26.3827 852.463 27.2861 851.833 28.6838H851.696C851.125 27.252 849.924 26.3827 848.176 26.3827C846.446 26.3827 845.159 27.2435 844.614 28.6838H844.452V26.5531H842.006V39.644ZM863.217 39.644H865.765V31.573C865.765 29.8088 867.001 28.5815 868.45 28.5815C869.865 28.5815 870.845 29.519 870.845 30.9423V39.644H873.385V31.3003C873.385 29.7236 874.348 28.5815 876.01 28.5815C877.356 28.5815 878.464 29.3315 878.464 31.1043V39.644H881.012V30.8656C881.012 27.8742 879.342 26.3827 876.973 26.3827C875.089 26.3827 873.674 27.2861 873.044 28.6838H872.907C872.336 27.252 871.135 26.3827 869.387 26.3827C867.657 26.3827 866.37 27.2435 865.825 28.6838H865.663V26.5531H863.217V39.644ZM890.07 39.9082C892.925 39.9082 894.945 38.502 895.525 36.3713L893.113 35.9367C892.652 37.1725 891.544 37.8031 890.096 37.8031C887.914 37.8031 886.448 36.3884 886.38 33.8656H895.686V32.9622C895.686 28.2321 892.857 26.3827 889.891 26.3827C886.243 26.3827 883.84 29.1611 883.84 33.1838C883.84 37.2492 886.209 39.9082 890.07 39.9082ZM886.388 31.9565C886.49 30.0986 887.837 28.4878 889.908 28.4878C891.885 28.4878 893.181 29.9537 893.189 31.9565H886.388ZM898.514 39.644H901.062V31.6497C901.062 29.9367 902.383 28.7009 904.19 28.7009C904.718 28.7009 905.315 28.7946 905.52 28.8543V26.4168C905.264 26.3827 904.761 26.3571 904.437 26.3571C902.903 26.3571 901.591 27.2264 901.113 28.6327H900.977V26.5531H898.514V39.644ZM912.77 39.9082C915.864 39.9082 917.867 38.0503 918.148 35.502H915.668C915.344 36.9168 914.245 37.752 912.787 37.752C910.631 37.752 909.242 35.9537 909.242 33.0986C909.242 30.2946 910.657 28.5304 912.787 28.5304C914.407 28.5304 915.395 29.5531 915.668 30.7804H918.148C917.875 28.1384 915.719 26.3827 912.745 26.3827C909.054 26.3827 906.668 29.1611 906.668 33.1582C906.668 37.1043 908.969 39.9082 912.77 39.9082ZM926.515 39.9082C929.37 39.9082 931.39 38.502 931.97 36.3713L929.558 35.9367C929.098 37.1725 927.99 37.8031 926.541 37.8031C924.359 37.8031 922.893 36.3884 922.825 33.8656H932.132V32.9622C932.132 28.2321 929.302 26.3827 926.336 26.3827C922.689 26.3827 920.285 29.1611 920.285 33.1838C920.285 37.2492 922.654 39.9082 926.515 39.9082ZM922.833 31.9565C922.936 30.0986 924.282 28.4878 926.353 28.4878C928.331 28.4878 929.626 29.9537 929.635 31.9565H922.833Z" fill="#9B9B9B"/>
<path d="M1096.57 39.644H1103.26C1107.31 39.644 1109.15 37.6242 1109.15 34.948C1109.15 32.2463 1107.25 30.7207 1105.52 30.627V30.4565C1107.13 30.0475 1108.46 28.9565 1108.46 26.7747C1108.46 24.1923 1106.67 22.1895 1102.96 22.1895H1096.57V39.644ZM1099.2 37.3855V31.7946H1103.09C1105.21 31.7946 1106.53 33.1582 1106.53 34.8202C1106.53 36.2861 1105.53 37.3855 1103 37.3855H1099.2ZM1099.2 29.7406V24.431H1102.8C1104.88 24.431 1105.88 25.5304 1105.88 26.9793C1105.88 28.6668 1104.5 29.7406 1102.73 29.7406H1099.2ZM1112.03 39.644H1123.52V37.3855H1115.66V37.2577L1119.13 33.627C1122.33 30.3969 1123.24 28.8543 1123.24 26.9026C1123.24 24.0986 1120.95 21.9509 1117.66 21.9509C1114.4 21.9509 1112.01 24.0645 1112.01 27.252H1114.53C1114.52 25.377 1115.73 24.1497 1117.61 24.1497C1119.39 24.1497 1120.73 25.2406 1120.73 26.9793C1120.73 28.5219 1119.81 29.6298 1117.94 31.6156L1112.03 37.735V39.644ZM1141.49 27.8656C1140.89 24.1327 1137.97 21.9509 1134.27 21.9509C1129.76 21.9509 1126.43 25.3344 1126.43 30.9168C1126.43 36.4992 1129.74 39.8827 1134.27 39.8827C1138.11 39.8827 1140.91 37.4793 1141.49 34.0276L1138.83 34.019C1138.37 36.252 1136.5 37.4793 1134.29 37.4793C1131.3 37.4793 1129.04 35.1867 1129.04 30.9168C1129.04 26.681 1131.29 24.3543 1134.3 24.3543C1136.52 24.3543 1138.39 25.6071 1138.83 27.8656H1141.49ZM1160.51 26.7747H1163.05C1162.97 23.9793 1160.5 21.9509 1156.95 21.9509C1153.45 21.9509 1150.77 23.9537 1150.77 26.9622C1150.77 29.3912 1152.5 30.8145 1155.31 31.573L1157.37 32.1355C1159.24 32.6298 1160.68 33.2435 1160.68 34.7946C1160.68 36.4992 1159.05 37.6242 1156.81 37.6242C1154.78 37.6242 1153.09 36.7207 1152.94 34.8202H1150.3C1150.47 37.9821 1152.91 39.9338 1156.83 39.9338C1160.93 39.9338 1163.29 37.7776 1163.29 34.8202C1163.29 31.6753 1160.48 30.4565 1158.27 29.9111L1156.56 29.4679C1155.2 29.1185 1153.38 28.4793 1153.39 26.8088C1153.39 25.3259 1154.75 24.2264 1156.89 24.2264C1158.9 24.2264 1160.32 25.1639 1160.51 26.7747ZM1171.87 39.9082C1174.73 39.9082 1176.75 38.502 1177.33 36.3713L1174.91 35.9367C1174.45 37.1725 1173.35 37.8031 1171.9 37.8031C1169.71 37.8031 1168.25 36.3884 1168.18 33.8656H1177.49V32.9622C1177.49 28.2321 1174.66 26.3827 1171.69 26.3827C1168.04 26.3827 1165.64 29.1611 1165.64 33.1838C1165.64 37.2492 1168.01 39.9082 1171.87 39.9082ZM1168.19 31.9565C1168.29 30.0986 1169.64 28.4878 1171.71 28.4878C1173.69 28.4878 1174.98 29.9537 1174.99 31.9565H1168.19ZM1180.31 39.644H1182.86V31.6497C1182.86 29.9367 1184.18 28.7009 1185.99 28.7009C1186.52 28.7009 1187.12 28.7946 1187.32 28.8543V26.4168C1187.06 26.3827 1186.56 26.3571 1186.24 26.3571C1184.7 26.3571 1183.39 27.2264 1182.91 28.6327H1182.78V26.5531H1180.31V39.644ZM1201.12 26.5531H1198.39L1195.08 36.627H1194.94L1191.63 26.5531H1188.89L1193.65 39.644H1196.38L1201.12 26.5531ZM1203.52 39.644H1206.07V26.5531H1203.52V39.644ZM1204.8 24.5332C1205.68 24.5332 1206.42 23.8514 1206.42 23.0162C1206.42 22.181 1205.68 21.4906 1204.8 21.4906C1203.92 21.4906 1203.19 22.181 1203.19 23.0162C1203.19 23.8514 1203.92 24.5332 1204.8 24.5332ZM1215.01 39.9082C1218.1 39.9082 1220.11 38.0503 1220.39 35.502H1217.91C1217.58 36.9168 1216.48 37.752 1215.03 37.752C1212.87 37.752 1211.48 35.9537 1211.48 33.0986C1211.48 30.2946 1212.89 28.5304 1215.03 28.5304C1216.64 28.5304 1217.63 29.5531 1217.91 30.7804H1220.39C1220.11 28.1384 1217.96 26.3827 1214.98 26.3827C1211.29 26.3827 1208.91 29.1611 1208.91 33.1582C1208.91 37.1043 1211.21 39.9082 1215.01 39.9082ZM1228.75 39.9082C1231.61 39.9082 1233.63 38.502 1234.21 36.3713L1231.8 35.9367C1231.34 37.1725 1230.23 37.8031 1228.78 37.8031C1226.6 37.8031 1225.13 36.3884 1225.06 33.8656H1234.37V32.9622C1234.37 28.2321 1231.54 26.3827 1228.57 26.3827C1224.93 26.3827 1222.52 29.1611 1222.52 33.1838C1222.52 37.2492 1224.89 39.9082 1228.75 39.9082ZM1225.07 31.9565C1225.17 30.0986 1226.52 28.4878 1228.59 28.4878C1230.57 28.4878 1231.86 29.9537 1231.87 31.9565H1225.07ZM1247.01 29.7492C1246.48 27.7122 1244.88 26.3827 1242.06 26.3827C1239.1 26.3827 1237 27.9423 1237 30.2605C1237 32.1185 1238.13 33.3543 1240.58 33.8997L1242.8 34.3855C1244.06 34.6668 1244.65 35.2293 1244.65 36.0475C1244.65 37.0617 1243.56 37.8543 1241.89 37.8543C1240.37 37.8543 1239.39 37.198 1239.08 35.9111L1236.62 36.2861C1237.04 38.6043 1238.97 39.9082 1241.91 39.9082C1245.07 39.9082 1247.26 38.2293 1247.26 35.86C1247.26 34.0105 1246.09 32.8685 1243.68 32.3145L1241.6 31.8372C1240.16 31.4963 1239.54 31.0105 1239.55 30.1242C1239.54 29.1185 1240.63 28.4026 1242.08 28.4026C1243.67 28.4026 1244.4 29.2804 1244.7 30.1582L1247.01 29.7492Z" fill="#9B9B9B"/>
</svg>
