<svg width="102" height="113" viewBox="0 0 102 113" fill="none" xmlns="http://www.w3.org/2000/svg">
<path fill-rule="evenodd" clip-rule="evenodd" d="M6.25407 77.9952C1.72519 68.7474 0.543979 58.5838 1.10055 48.3047C1.80143 35.3605 0.89777 20.7457 9.85971 11.404C19.1181 1.75324 33.9581 0.55857 47.3219 0.124724C60.6648 -0.30845 75.3745 0.105686 85.3982 8.95166C95.0817 17.4973 95.0677 32.0463 97.8029 44.6742C100.133 55.4305 104.019 66.5266 100.093 76.7981C96.3041 86.7121 85.9451 91.6838 77.4235 97.9922C69.1698 104.102 61.5999 112.89 51.33 112.897C41.1403 112.903 33.5159 104.269 25.4488 98.0231C17.9558 92.2215 10.4244 86.5109 6.25407 77.9952Z" fill="#20C58B"/>
</svg>
