<svg width="92" height="103" viewBox="0 0 92 103" fill="none" xmlns="http://www.w3.org/2000/svg">
<path fill-rule="evenodd" clip-rule="evenodd" d="M5.09733 71.1764C1.01488 62.8402 -0.0499003 53.6784 0.451806 44.4126C1.0836 32.7443 0.269019 19.5701 8.34756 11.1493C16.6933 2.44982 30.0705 1.37292 42.117 0.981827C54.1446 0.591355 67.4043 0.964672 76.44 8.93867C85.1689 16.6419 85.1564 29.7568 87.6219 41.1399C89.722 50.836 93.2257 60.8383 89.6867 70.0972C86.2708 79.034 76.933 83.5156 69.2513 89.2022C61.8113 94.7099 54.9875 102.632 45.73 102.637C36.5447 102.643 29.6719 94.8605 22.4 89.2301C15.6456 84.0003 8.85654 78.8526 5.09733 71.1764Z" fill="#5858E0"/>
</svg>
