<svg width="164" height="32" viewBox="0 0 164 32" fill="none" xmlns="http://www.w3.org/2000/svg">
<path d="M44.4695 0H3.13634C1.58061 0 0.319092 1.43206 0.319092 3.19935V28.8C0.319092 30.5673 1.57995 32 3.13634 32H44.4695C46.0252 32 47.288 30.5673 47.288 28.8V3.19935C47.288 1.43206 46.0252 0 44.4695 0Z" fill="#2196F2"/>
<path d="M34.3955 17.8563C34.4671 17.4534 34.3955 17.1201 34.3955 17.1201V7.51489H31.1936V16.0532H20.5208V10.7168L13.05 17.6532L20.5208 24.5902V19.2545H32.2605C33.5617 19.2545 34.0948 18.7201 34.3037 18.187H34.3955V17.8563Z" fill="white"/>
<path d="M52.4609 15.6372C52.5026 7.39636 59.4168 0.69498 67.7475 0.65332C71.4129 0.65332 74.7457 1.86015 77.3696 3.89954C78.3695 4.73208 78.5361 6.18888 77.7862 7.22972C76.953 8.26992 75.4116 8.43656 74.4535 7.68798C72.6211 6.18953 70.3304 5.39864 67.7475 5.39864C64.8736 5.39864 62.208 6.56382 60.25 8.39555C58.3753 10.31 57.2095 12.8076 57.2095 15.6372C57.2095 18.4681 58.376 21.0484 60.25 22.8802C62.208 24.7113 64.8736 25.8771 67.7475 25.8771C70.3304 25.8771 72.5794 25.0849 74.4535 23.5871C75.4116 22.8802 76.953 23.0455 77.7862 24.0447C78.5361 25.0849 78.3695 26.5833 77.3696 27.3742C74.7457 29.4136 71.4129 30.6211 67.7475 30.6211C59.4168 30.6217 52.5026 23.9204 52.4609 15.6372Z" fill="#2196F2"/>
<path d="M85.6177 1.48608C86.9085 1.48608 87.95 2.52628 87.95 3.77542V28.3326C87.95 29.5811 86.9085 30.6226 85.6177 30.6226C84.3679 30.6226 83.3264 29.5811 83.3264 28.3326V3.77542C83.3271 2.52693 84.3679 1.48608 85.6177 1.48608Z" fill="#2196F2"/>
<path d="M97.9475 4.60732C97.9475 5.85647 96.9887 6.89731 95.6979 6.89731C94.4481 6.89731 93.4482 5.85647 93.4482 4.60732V3.73376C93.4482 2.48527 94.4481 1.48608 95.6979 1.48608C96.9887 1.48608 97.9475 2.48462 97.9475 3.73376V4.60732ZM97.9475 12.1413V28.3743C97.9475 29.6228 96.9887 30.622 95.6979 30.622C94.4481 30.622 93.4482 29.6228 93.4482 28.3743V12.1413C93.4482 10.8094 94.4481 9.85191 95.6979 9.85191C96.9887 9.85256 97.9475 10.8094 97.9475 12.1413Z" fill="#2196F2"/>
<path d="M103.028 28.3326V3.77542C103.028 2.52693 104.028 1.48608 105.319 1.48608C106.611 1.48608 107.652 2.52628 107.652 3.77542V18.1774L116.191 9.64426C117.066 8.7707 118.565 8.7707 119.439 9.64426C120.357 10.5601 120.357 12.0169 119.439 12.8911L113.191 19.1343L119.606 26.8348C120.398 27.834 120.272 29.2895 119.272 30.0804C118.856 30.4553 118.315 30.622 117.815 30.622C117.148 30.622 116.482 30.3297 116.065 29.7894L109.942 22.3811L107.651 24.6698V28.3326C107.651 29.5811 106.61 30.6226 105.318 30.6226C104.028 30.622 103.028 29.5811 103.028 28.3326Z" fill="#2196F2"/>
<path d="M127.937 24.7114C129.645 24.7114 131.062 26.1266 131.062 27.834C131.062 29.5388 129.645 30.9129 127.937 30.9129C126.23 30.9129 124.855 29.5388 124.855 27.834C124.855 26.1266 126.23 24.7114 127.937 24.7114Z" fill="#2196F2"/>
<path d="M154.596 20.2576V28.4158C154.596 29.6226 153.597 30.6218 152.388 30.6218C151.305 30.6218 150.472 29.8309 150.222 28.8317C148.639 29.9559 146.764 30.6218 144.682 30.6218C141.849 30.6218 139.391 29.4559 137.601 27.5832C135.81 25.6688 134.768 23.0878 134.768 20.2576C134.768 17.3856 135.81 14.8053 137.601 12.9319C139.391 11.0175 141.849 9.81006 144.682 9.81006C146.764 9.81006 148.639 10.5176 150.222 11.6411C150.472 10.6003 151.305 9.81006 152.388 9.81006C153.596 9.81006 154.596 10.8086 154.596 12.0577V20.2576ZM150.181 20.2576C150.181 18.5092 149.556 17.0114 148.556 15.9705C147.557 14.8463 146.141 14.2638 144.683 14.2638C143.183 14.2638 141.767 14.8463 140.809 15.9705C139.81 17.0114 139.225 18.5092 139.225 20.2576C139.225 21.9643 139.809 23.4628 140.809 24.5446C141.767 25.5848 143.183 26.1681 144.683 26.1681C146.141 26.1681 147.556 25.5848 148.556 24.5446C149.556 23.4628 150.181 21.9643 150.181 20.2576Z" fill="#2196F2"/>
<path d="M163.135 4.60732C163.135 5.85647 162.176 6.89731 160.885 6.89731C159.635 6.89731 158.636 5.85647 158.636 4.60732V3.73376C158.636 2.48527 159.635 1.48608 160.885 1.48608C162.176 1.48608 163.135 2.48462 163.135 3.73376V4.60732ZM163.135 12.1413V28.3743C163.135 29.6228 162.176 30.622 160.885 30.622C159.635 30.622 158.636 29.6228 158.636 28.3743V12.1413C158.636 10.8094 159.635 9.85191 160.885 9.85191C162.176 9.85256 163.135 10.8094 163.135 12.1413Z" fill="#2196F2"/>
</svg>
