<svg xmlns="http://www.w3.org/2000/svg" xmlns:xlink="http://www.w3.org/1999/xlink" width="165" height="183" viewBox="0 0 165 183"><defs><style>.a{fill:rgba(39,39,39,0.99);stroke:rgba(255,255,255,0.22);}.b,.d,.g{fill:none;}.b{stroke:#fff;stroke-dasharray:4;}.c,.f{fill:#fff;}.c{opacity:0.08;}.d{stroke:#5858e0;stroke-width:2px;}.e{fill:#786aff;opacity:0;}.h{fill:url(#a);}.i{fill:url(#b);}.j{fill:#20c58b;}.k{stroke:none;}.l{filter:url(#e);}.m{filter:url(#c);}</style><linearGradient id="a" x1="0.5" x2="0.5" y2="1" gradientUnits="objectBoundingBox"><stop offset="0" stop-color="#786aff"/><stop offset="1" stop-color="#6d60ee"/></linearGradient><linearGradient id="b" x1="0.297" y1="-0.095" x2="0.772" y2="1" gradientUnits="objectBoundingBox"><stop offset="0" stop-color="#786aff"/><stop offset="0.297" stop-color="#7464ff"/><stop offset="1" stop-color="#4a32f3"/></linearGradient><filter id="c" x="47.979" y="30.768" width="69.621" height="69.621" filterUnits="userSpaceOnUse"><feOffset dy="10" input="SourceAlpha"/><feGaussianBlur stdDeviation="6" result="d"/><feFlood flood-opacity="0.129"/><feComposite operator="in" in2="d"/><feComposite in="SourceGraphic"/></filter><filter id="e" x="8" y="89" width="33" height="33" filterUnits="userSpaceOnUse"><feOffset dy="3" input="SourceAlpha"/><feGaussianBlur stdDeviation="3" result="f"/><feFlood flood-opacity="0.322"/><feComposite operator="in" in2="f"/><feComposite in="SourceGraphic"/></filter></defs><g transform="translate(-1249 -2202)"><g transform="translate(0 1)"><g class="a" transform="translate(1249 2201)"><rect class="k" width="165" height="183" rx="4"/><rect class="g" x="0.5" y="0.5" width="164" height="182" rx="3.5"/></g><line class="b" y2="35" transform="translate(1332.5 2274.5)"/></g><rect class="c" width="62.764" height="7" rx="3.5" transform="translate(1300 2335)"/><rect class="c" width="62.764" height="7" rx="3.5" transform="translate(1300 2351)"/><g transform="translate(1262.652 2251.044)"><g class="d" transform="translate(-0.652 5.956)"><rect class="k" width="140" height="60"/><rect class="g" x="1" y="1" width="138" height="58"/></g><g transform="translate(61.418 57.187)"><rect class="e" width="17" height="17" transform="translate(-0.07 0.769)"/><g transform="translate(0.144 0)"><rect class="f" width="9" height="8" transform="translate(3.786 4.769)"/><path class="g" d="M0,0H16.834V16.834H0Z"/><path class="h" d="M9.014,2a7.014,7.014,0,1,0,7.014,7.014A7.017,7.017,0,0,0,9.014,2Zm3.507,7.716H9.716v2.806h-1.4V9.716H5.507v-1.4H8.313V5.507h1.4V8.313h2.806Z" transform="translate(-0.597 -0.597)"/></g></g><g transform="translate(44.146 -18.554)"><rect class="e" width="54" height="53" transform="translate(-0.799 -1.49)"/><g transform="translate(4.818 4.916)"><rect class="f" width="19" height="21" transform="translate(11.383 8.594)"/><path class="g" d="M0,0H40.345V40.345H0Z"/><g class="m" transform="matrix(1, 0, 0, 1, -62.62, -35.41)"><path class="i" d="M18.81,2a16.81,16.81,0,1,0,16.81,16.81A16.817,16.817,0,0,0,18.81,2Zm8.405,18.491H20.491v6.724H17.129V20.491H10.405V17.129h6.724V10.405h3.362v6.724h6.724Z" transform="translate(63.98 36.77)"/></g></g></g><g transform="translate(2 -8.515)"><rect class="g" width="17" height="17" transform="translate(0.348 53.471)"/><g class="l" transform="matrix(1, 0, 0, 1, -15.65, -40.53)"><rect class="j" width="15" height="15" rx="1" transform="translate(17 95)"/></g><g transform="translate(0.74 52.537)"><path class="g" d="M0,0H17.894V17.894H0Z"/><g transform="translate(1.278 1.917)"><path class="g" d="M0,0H15.338V15.338H0Z"/><path class="f" d="M13.609,9.919H9.919v3.69H8.69V9.919H5V8.69H8.69V5h1.23V8.69h3.69Z" transform="translate(-2.562 -2.201)"/></g></g></g></g></g></svg>