<svg width="337" height="630" viewBox="0 0 337 630" fill="none" xmlns="http://www.w3.org/2000/svg">
<path fill-rule="evenodd" clip-rule="evenodd" d="M-195.094 434.904C-220.31 383.414 -226.887 326.826 -223.788 269.596C-219.885 197.526 -224.917 116.155 -175.019 64.1432C-123.471 10.4108 -40.8469 3.75926 33.5592 1.34367C107.848 -1.06806 189.747 1.23773 245.557 50.4895C299.471 98.069 299.394 179.074 314.622 249.382C327.594 309.27 349.234 371.049 327.375 428.238C306.277 483.436 248.602 511.117 201.155 546.241C155.202 580.259 113.054 629.19 55.8748 629.224C-0.858583 629.257 -43.3088 581.19 -88.224 546.413C-129.943 514.111 -171.876 482.316 -195.094 434.904Z" fill="#EEEEF8"/>
</svg>
