<svg width="33" height="32" viewBox="0 0 33 32" fill="none" xmlns="http://www.w3.org/2000/svg">
<path d="M6.36649 14.9948C9.88482 16.0838 12.1466 19.0157 16 19.0157C19.9372 19.0157 22.7853 15.2461 24.7958 14.9948C26.6387 14.7435 29.5707 15.4136 32 16.5864V7.12042C32 3.18325 28.8168 0 24.8796 0H7.12042C3.18325 0 0 3.18325 0 7.12042V16.0838C1.75916 15.2461 4.27225 14.3246 6.36649 14.9948Z" fill="#20C58B"/>
<path d="M24.8798 14.9948C22.7856 15.2461 19.9374 19.0157 16.084 19.0157C12.3981 19.0157 9.9688 16.0838 6.45048 14.9948C4.35624 14.3246 1.84315 15.2461 0.0839844 16.0838V24.8796C0.0839844 28.8168 3.26723 32 7.2044 32H24.9636C28.9007 32 32.084 28.8168 32.084 24.8796V16.5864C29.6547 15.4137 26.7227 14.7435 24.8798 14.9948Z" fill="#5858E0"/>
<path d="M7.03668 25.2985C5.78014 25.2985 4.7749 24.2933 4.7749 23.0367V8.96344C4.7749 7.7069 5.78014 6.70166 7.03668 6.70166C8.20946 6.70166 9.21469 7.7069 9.21469 8.96344V23.0367C9.21469 24.2933 8.20946 25.2985 7.03668 25.2985Z" fill="white"/>
<path d="M16.0001 22.1151C14.7435 22.1151 13.7383 21.1099 13.7383 19.8534V12.1465C13.7383 10.89 14.7435 9.88477 16.0001 9.88477C17.2566 9.88477 18.2618 10.89 18.2618 12.1465V19.9371C18.2618 21.1099 17.2566 22.1151 16.0001 22.1151Z" fill="white"/>
<path d="M25.0469 25.2985C23.7904 25.2985 22.7852 24.2933 22.7852 23.0367V8.96344C22.7852 7.7069 23.7904 6.70166 25.0469 6.70166C26.3035 6.70166 27.3087 7.7069 27.3087 8.96344V23.0367C27.2249 24.2933 26.2197 25.2985 25.0469 25.2985Z" fill="white"/>
</svg>
