<svg width="230" height="264" viewBox="0 0 230 264" fill="none" xmlns="http://www.w3.org/2000/svg">
<path d="M2.25 4.5C2.25 3.67157 2.92157 3 3.75 3H10.5V21H3.75C2.92157 21 2.25 20.3284 2.25 19.5V4.5Z" fill="#786AFF"/>
<path d="M20.25 20.6707C21.059 20.6724 21.75 20.0157 21.75 19.1702V4.07961C21.75 3.2341 21.059 2.57739 20.25 2.5791V20.6707Z" fill="#786AFF" fill-opacity="0.4"/>
<path d="M11.25 2.99999L17.7317 1.8215C18.6524 1.65409 19.5 2.36145 19.5 3.29731V20.7027C19.5 21.6385 18.6524 22.3459 17.7317 22.1785L11.25 21V2.99999Z" fill="#E6E6E6"/>
<path d="M41.7216 7.09095H43.2557C43.1854 5.11581 41.3636 3.63925 38.8324 3.63925C36.3267 3.63925 34.358 5.09664 34.358 7.2955C34.358 9.0597 35.6364 10.108 37.6818 10.6961L39.2926 11.1563C40.6733 11.5398 41.9006 12.0256 41.9006 13.3296C41.9006 14.7614 40.5199 15.7074 38.7045 15.7074C37.1449 15.7074 35.7642 15.0171 35.6364 13.5341H34C34.1534 15.6819 35.892 17.1392 38.7045 17.1392C41.7216 17.1392 43.4347 15.4773 43.4347 13.3552C43.4347 10.9006 41.108 10.108 39.7528 9.75005L38.4233 9.39209C37.4517 9.13641 35.892 8.62505 35.892 7.21879C35.892 5.96595 37.0426 5.0455 38.7812 5.0455C40.3665 5.0455 41.5682 5.79976 41.7216 7.09095Z" fill="black"/>
<path d="M52.024 12.8949C52.024 14.7358 50.6177 15.5796 49.4927 15.5796C48.2399 15.5796 47.345 14.6591 47.345 13.2273V7.09095H45.8365V13.3296C45.8365 15.8353 47.166 17.037 49.0069 17.037C50.4899 17.037 51.4615 16.2444 51.9217 15.2472H52.024V16.9091H53.5325V7.09095H52.024V12.8949Z" fill="black"/>
<path d="M56.5 16.9091H57.9574V15.4006H58.1364C58.4688 15.9375 59.108 17.1137 61 17.1137C63.4545 17.1137 65.1676 15.1449 65.1676 12.0256C65.1676 8.93186 63.4545 6.96311 60.9744 6.96311C59.0568 6.96311 58.4688 8.13925 58.1364 8.65061H58.0085V3.81823H56.5V16.9091ZM57.983 12C57.983 9.80118 58.9545 8.31823 60.7955 8.31823C62.7131 8.31823 63.6591 9.92902 63.6591 12C63.6591 14.0966 62.6875 15.7586 60.7955 15.7586C58.9801 15.7586 57.983 14.2245 57.983 12Z" fill="black"/>
<path d="M67.4751 7.09095V17.625C67.4751 18.6222 67.0661 19.1847 66.1456 19.1847H65.8643V20.591H66.1712C68.0632 20.591 68.9837 19.4404 68.9837 17.625V7.09095H67.4751ZM68.2166 5.45459C68.8047 5.45459 69.2905 4.99436 69.2905 4.43186C69.2905 3.86936 68.8047 3.40914 68.2166 3.40914C67.6285 3.40914 67.1428 3.86936 67.1428 4.43186C67.1428 4.99436 67.6285 5.45459 68.2166 5.45459Z" fill="black"/>
<path d="M75.8631 17.1137C77.8574 17.1137 79.3148 16.1165 79.775 14.6336L78.3176 14.2245C77.9341 15.2472 77.0456 15.7586 75.8631 15.7586C74.0925 15.7586 72.8716 14.6144 72.8013 12.5114H79.9284V11.8722C79.9284 8.21595 77.7551 6.96311 75.7097 6.96311C73.0506 6.96311 71.2864 9.0597 71.2864 12.0767C71.2864 15.0938 73.025 17.1137 75.8631 17.1137ZM72.8013 11.2074C72.9036 9.67973 73.9838 8.31823 75.7097 8.31823C77.3461 8.31823 78.3944 9.5455 78.3944 11.2074H72.8013Z" fill="black"/>
<path d="M86.2118 17.1137C88.3851 17.1137 89.8169 15.7841 90.0726 14.0455H88.5641C88.2828 15.1194 87.388 15.7586 86.2118 15.7586C84.4221 15.7586 83.2715 14.2756 83.2715 12C83.2715 9.77561 84.4476 8.31823 86.2118 8.31823C87.5414 8.31823 88.334 9.13641 88.5641 10.0313H90.0726C89.8169 8.19039 88.2573 6.96311 86.1863 6.96311C83.5272 6.96311 81.763 9.0597 81.763 12.0512C81.763 14.9915 83.4505 17.1137 86.2118 17.1137Z" fill="black"/>
<path d="M96.5478 7.09095H94.4512V4.73868H92.9426V7.09095H91.4597V8.36936H92.9426V14.5057C92.9426 16.2188 94.3233 17.037 95.6017 17.037C96.1642 17.037 96.5222 16.9347 96.7267 16.858L96.4199 15.5029C96.2921 15.5285 96.0875 15.5796 95.7551 15.5796C95.0904 15.5796 94.4512 15.375 94.4512 14.0966V8.36936H96.5478V7.09095Z" fill="black"/>
<path d="M105.388 3.81823H103.879V16.9091H105.388V3.81823Z" fill="black"/>
<path d="M108.151 16.9091H109.659V7.09095H108.151V16.9091ZM108.918 5.45459C109.506 5.45459 109.992 4.99436 109.992 4.43186C109.992 3.86936 109.506 3.40914 108.918 3.40914C108.33 3.40914 107.844 3.86936 107.844 4.43186C107.844 4.99436 108.33 5.45459 108.918 5.45459Z" fill="black"/>
<path d="M113.931 11.0029C113.931 9.28982 114.992 8.31823 116.437 8.31823C117.836 8.31823 118.687 9.23229 118.687 10.7728V16.9091H120.195V10.6705C120.195 8.16482 118.859 6.96311 116.871 6.96311C115.388 6.96311 114.468 7.62789 114.008 8.62505H113.88V7.09095H112.422V16.9091H113.931V11.0029Z" fill="black"/>
<path d="M127.068 17.1137C129.062 17.1137 130.52 16.1165 130.98 14.6336L129.523 14.2245C129.139 15.2472 128.251 15.7586 127.068 15.7586C125.298 15.7586 124.077 14.6144 124.006 12.5114H131.134V11.8722C131.134 8.21595 128.96 6.96311 126.915 6.96311C124.256 6.96311 122.491 9.0597 122.491 12.0767C122.491 15.0938 124.23 17.1137 127.068 17.1137ZM124.006 11.2074C124.109 9.67973 125.189 8.31823 126.915 8.31823C128.551 8.31823 129.599 9.5455 129.599 11.2074H124.006Z" fill="black"/>
<path d="M139.232 16.9091L140.549 13.2017H145.842L147.158 16.9091H148.82L144.013 3.81823H142.377L137.57 16.9091H139.232ZM141.048 11.7955L143.144 5.88925H143.246L145.343 11.7955H141.048Z" fill="black"/>
<path d="M155.283 3.20459H153.902L149.683 18.8779H151.064L155.283 3.20459Z" fill="black"/>
<path d="M157.275 16.9091H162.006C165.099 16.9091 166.378 15.4006 166.378 13.4319C166.378 11.3608 164.946 10.2358 163.744 10.1591V10.0313C164.869 9.72448 165.866 8.983 165.866 7.2955C165.866 5.37789 164.588 3.81823 161.852 3.81823H157.275V16.9091ZM158.861 15.5029V10.9517H162.082C163.795 10.9517 164.869 12.1023 164.869 13.4319C164.869 14.5824 164.077 15.5029 162.006 15.5029H158.861ZM158.861 9.57107V5.22448H161.852C163.591 5.22448 164.358 6.14493 164.358 7.2955C164.358 8.67618 163.233 9.57107 161.801 9.57107H158.861Z" fill="black"/>
<path d="M178.11 7.09095H176.014V4.73868H174.505V7.09095H173.022V8.36936H174.505V14.5057C174.505 16.2188 175.886 17.037 177.164 17.037C177.727 17.037 178.085 16.9347 178.289 16.858L177.982 15.5029C177.855 15.5285 177.65 15.5796 177.318 15.5796C176.653 15.5796 176.014 15.375 176.014 14.0966V8.36936H178.11V7.09095Z" fill="black"/>
<path d="M184.39 17.1137C186.385 17.1137 187.842 16.1165 188.302 14.6336L186.845 14.2245C186.461 15.2472 185.573 15.7586 184.39 15.7586C182.62 15.7586 181.399 14.6144 181.329 12.5114H188.456V11.8722C188.456 8.21595 186.283 6.96311 184.237 6.96311C181.578 6.96311 179.814 9.0597 179.814 12.0767C179.814 15.0938 181.552 17.1137 184.39 17.1137ZM181.329 11.2074C181.431 9.67973 182.511 8.31823 184.237 8.31823C185.873 8.31823 186.922 9.5455 186.922 11.2074H181.329Z" fill="black"/>
<path d="M197.705 9.28982C197.232 7.89635 196.171 6.96311 194.228 6.96311C192.157 6.96311 190.623 8.13925 190.623 9.80118C190.623 11.1563 191.428 12.064 193.231 12.4858L194.867 12.8694C195.858 13.0995 196.324 13.5725 196.324 14.25C196.324 15.0938 195.43 15.7841 194.023 15.7841C192.79 15.7841 192.016 15.2536 191.748 14.1989L190.316 14.5569C190.667 16.2252 192.042 17.1137 194.049 17.1137C196.331 17.1137 197.884 15.8672 197.884 14.1733C197.884 12.8054 197.028 11.9425 195.276 11.5142L193.819 11.1563C192.655 10.8687 192.131 10.4787 192.131 9.72448C192.131 8.88073 193.026 8.26709 194.228 8.26709C195.545 8.26709 196.088 8.99578 196.35 9.67334L197.705 9.28982Z" fill="black"/>
<path d="M204.425 7.09095H202.328V4.73868H200.82V7.09095H199.337V8.36936H200.82V14.5057C200.82 16.2188 202.2 17.037 203.479 17.037C204.041 17.037 204.399 16.9347 204.604 16.858L204.297 15.5029C204.169 15.5285 203.964 15.5796 203.632 15.5796C202.967 15.5796 202.328 15.375 202.328 14.0966V8.36936H204.425V7.09095Z" fill="black"/>
<path d="M206.694 16.9091H208.202V7.09095H206.694V16.9091ZM207.461 5.45459C208.049 5.45459 208.535 4.99436 208.535 4.43186C208.535 3.86936 208.049 3.40914 207.461 3.40914C206.873 3.40914 206.387 3.86936 206.387 4.43186C206.387 4.99436 206.873 5.45459 207.461 5.45459Z" fill="black"/>
<path d="M212.474 11.0029C212.474 9.28982 213.535 8.31823 214.98 8.31823C216.379 8.31823 217.23 9.23229 217.23 10.7728V16.9091H218.738V10.6705C218.738 8.16482 217.402 6.96311 215.414 6.96311C213.931 6.96311 213.011 7.62789 212.551 8.62505H212.423V7.09095H210.965V16.9091H212.474V11.0029Z" fill="black"/>
<path d="M225.458 20.7955C227.81 20.7955 229.702 19.7216 229.702 17.1904V7.09095H228.245V8.65061H228.091C227.759 8.13925 227.145 6.96311 225.228 6.96311C222.748 6.96311 221.034 8.93186 221.034 11.9489C221.034 15.0171 222.824 16.7557 225.202 16.7557C227.12 16.7557 227.733 15.6307 228.066 15.0938H228.194V17.0881C228.194 18.7245 227.043 19.466 225.458 19.466C223.674 19.466 223.048 18.5263 222.645 17.983L221.444 18.8267C222.057 19.8559 223.265 20.7955 225.458 20.7955ZM225.407 15.4006C223.515 15.4006 222.543 13.9688 222.543 11.9233C222.543 9.92902 223.489 8.31823 225.407 8.31823C227.248 8.31823 228.219 9.80118 228.219 11.9233C228.219 14.0966 227.222 15.4006 225.407 15.4006Z" fill="black"/>
<path d="M3 62.7627C3 61.9343 3.67157 61.2627 4.5 61.2627H9C9.82843 61.2627 10.5 61.9343 10.5 62.7627V67.2627C10.5 68.0911 9.82843 68.7627 9 68.7627H4.5C3.67157 68.7627 3 68.0911 3 67.2627V62.7627Z" fill="#786AFF" fill-opacity="0.4"/>
<path d="M2.25 53.7627C2.25 52.9343 2.92157 52.2627 3.75 52.2627H9C9.82843 52.2627 10.5 52.9343 10.5 53.7627V59.0127C10.5 59.8411 9.82843 60.5127 9 60.5127H3.75C2.92157 60.5127 2.25 59.8411 2.25 59.0127V53.7627Z" fill="#786AFF"/>
<path d="M11.25 62.7627C11.25 61.9343 11.9216 61.2627 12.75 61.2627H18C18.8284 61.2627 19.5 61.9343 19.5 62.7627V68.0127C19.5 68.8411 18.8284 69.5127 18 69.5127H12.75C11.9216 69.5127 11.25 68.8411 11.25 68.0127V62.7627Z" fill="#786AFF"/>
<path d="M11.25 51.5127C11.25 50.6843 11.9216 50.0127 12.75 50.0127H20.25C21.0784 50.0127 21.75 50.6843 21.75 51.5127V59.0127C21.75 59.8411 21.0784 60.5127 20.25 60.5127H12.75C11.9216 60.5127 11.25 59.8411 11.25 59.0127V51.5127Z" fill="#E6E6E6"/>
<path d="M38.0398 64.9092C42.0284 64.9092 44.2784 62.4291 44.2784 58.3382C44.2784 54.2728 42.0284 51.8183 38.2188 51.8183H34V64.9092H38.0398ZM35.5852 63.5029V53.2245H38.1165C41.1847 53.2245 42.7443 55.1677 42.7443 58.3382C42.7443 61.5342 41.1847 63.5029 37.9375 63.5029H35.5852Z" fill="black"/>
<path d="M50.8494 65.1137C52.8438 65.1137 54.3011 64.1166 54.7614 62.6336L53.304 62.2245C52.9205 63.2472 52.032 63.7586 50.8494 63.7586C49.0788 63.7586 47.858 62.6144 47.7876 60.5115H54.9148V59.8722C54.9148 56.216 52.7415 54.9632 50.696 54.9632C48.0369 54.9632 46.2727 57.0597 46.2727 60.0768C46.2727 63.0938 48.0114 65.1137 50.8494 65.1137ZM47.7876 59.2075C47.8899 57.6798 48.9702 56.3183 50.696 56.3183C52.3324 56.3183 53.3807 57.5455 53.3807 59.2075H47.7876Z" fill="black"/>
<path d="M61.4794 55.091H59.3828V52.7387H57.8743V55.091H56.3913V56.3694H57.8743V62.5058C57.8743 64.2188 59.255 65.037 60.5334 65.037C61.0959 65.037 61.4538 64.9347 61.6584 64.858L61.3516 63.5029C61.2237 63.5285 61.0192 63.5796 60.6868 63.5796C60.022 63.5796 59.3828 63.3751 59.3828 62.0967V56.3694H61.4794V55.091Z" fill="black"/>
<path d="M66.6378 65.1393C68.3509 65.1393 69.2457 64.2188 69.5526 63.5796H69.6293V64.9092H71.1378V58.4404C71.1378 55.3211 68.7599 54.9632 67.5071 54.9632C66.0241 54.9632 64.3366 55.4745 63.5696 57.2643L65.0014 57.7757C65.3338 57.0597 66.12 56.2927 67.5582 56.2927C68.9453 56.2927 69.6293 57.0278 69.6293 58.287V58.3382C69.6293 59.0669 68.8878 59.0029 67.098 59.233C65.2763 59.4695 63.2884 59.8722 63.2884 62.1222C63.2884 64.0399 64.7713 65.1393 66.6378 65.1393ZM66.8679 63.7842C65.6662 63.7842 64.7969 63.2472 64.7969 62.199C64.7969 61.0484 65.8452 60.6904 67.0213 60.537C67.6605 60.4603 69.3736 60.2813 69.6293 59.9745V61.3552C69.6293 62.5825 68.6577 63.7842 66.8679 63.7842Z" fill="black"/>
<path d="M73.8912 64.9092H75.3997V55.091H73.8912V64.9092ZM74.6582 53.4546C75.2463 53.4546 75.7321 52.9944 75.7321 52.4319C75.7321 51.8694 75.2463 51.4092 74.6582 51.4092C74.0701 51.4092 73.5843 51.8694 73.5843 52.4319C73.5843 52.9944 74.0701 53.4546 74.6582 53.4546Z" fill="black"/>
<path d="M79.6712 51.8183H78.1626V64.9092H79.6712V51.8183Z" fill="black"/>
<path d="M86.5506 65.1137C88.5449 65.1137 90.0023 64.1166 90.4625 62.6336L89.0051 62.2245C88.6216 63.2472 87.7331 63.7586 86.5506 63.7586C84.78 63.7586 83.5591 62.6144 83.4888 60.5115H90.6159V59.8722C90.6159 56.216 88.4426 54.9632 86.3972 54.9632C83.7381 54.9632 81.9739 57.0597 81.9739 60.0768C81.9739 63.0938 83.7125 65.1137 86.5506 65.1137ZM83.4888 59.2075C83.5911 57.6798 84.6713 56.3183 86.3972 56.3183C88.0336 56.3183 89.0819 57.5455 89.0819 59.2075H83.4888Z" fill="black"/>
<path d="M96.6181 65.1137C98.5101 65.1137 99.1493 63.9376 99.4817 63.4007H99.6607V64.9092H101.118V51.8183H99.6096V56.6507H99.4817C99.1493 56.1393 98.5613 54.9632 96.6436 54.9632C94.1635 54.9632 92.4505 56.9319 92.4505 60.0257C92.4505 63.145 94.1635 65.1137 96.6181 65.1137ZM96.8226 63.7586C94.9306 63.7586 93.959 62.0967 93.959 60.0001C93.959 57.9291 94.905 56.3183 96.8226 56.3183C98.6635 56.3183 99.6351 57.8012 99.6351 60.0001C99.6351 62.2245 98.638 63.7586 96.8226 63.7586Z" fill="black"/>
<path d="M112.042 65.1393C113.755 65.1393 114.65 64.2188 114.957 63.5796H115.034V64.9092H116.542V58.4404C116.542 55.3211 114.164 54.9632 112.911 54.9632C111.428 54.9632 109.741 55.4745 108.974 57.2643L110.406 57.7757C110.738 57.0597 111.524 56.2927 112.963 56.2927C114.35 56.2927 115.034 57.0278 115.034 58.287V58.3382C115.034 59.0669 114.292 59.0029 112.502 59.233C110.681 59.4695 108.693 59.8722 108.693 62.1222C108.693 64.0399 110.176 65.1393 112.042 65.1393ZM112.272 63.7842C111.07 63.7842 110.201 63.2472 110.201 62.199C110.201 61.0484 111.249 60.6904 112.426 60.537C113.065 60.4603 114.778 60.2813 115.034 59.9745V61.3552C115.034 62.5825 114.062 63.7842 112.272 63.7842Z" fill="black"/>
<path d="M120.804 59.0029C120.804 57.2899 121.865 56.3183 123.31 56.3183C124.71 56.3183 125.56 57.2323 125.56 58.7728V64.9092H127.068V58.6705C127.068 56.1649 125.732 54.9632 123.744 54.9632C122.261 54.9632 121.341 55.6279 120.881 56.6251H120.753V55.091H119.295V64.9092H120.804V59.0029Z" fill="black"/>
<path d="M132.714 65.1393C134.427 65.1393 135.322 64.2188 135.629 63.5796H135.705V64.9092H137.214V58.4404C137.214 55.3211 134.836 54.9632 133.583 54.9632C132.1 54.9632 130.413 55.4745 129.646 57.2643L131.078 57.7757C131.41 57.0597 132.196 56.2927 133.634 56.2927C135.021 56.2927 135.705 57.0278 135.705 58.287V58.3382C135.705 59.0669 134.964 59.0029 133.174 59.233C131.352 59.4695 129.365 59.8722 129.365 62.1222C129.365 64.0399 130.847 65.1393 132.714 65.1393ZM132.944 63.7842C131.742 63.7842 130.873 63.2472 130.873 62.199C130.873 61.0484 131.921 60.6904 133.097 60.537C133.737 60.4603 135.45 60.2813 135.705 59.9745V61.3552C135.705 62.5825 134.734 63.7842 132.944 63.7842Z" fill="black"/>
<path d="M141.476 51.8183H139.967V64.9092H141.476V51.8183Z" fill="black"/>
<path d="M145.21 68.591C146.572 68.591 147.531 67.8687 148.1 66.341L152.28 55.1166L150.631 55.091L147.921 62.9149H147.818L145.108 55.091H143.472L147.102 64.9603L146.821 65.7274C146.271 67.2231 145.594 67.3637 144.494 67.0825L144.111 68.412C144.264 68.4887 144.699 68.591 145.21 68.591Z" fill="black"/>
<path d="M158.546 55.091H156.449V52.7387H154.941V55.091H153.458V56.3694H154.941V62.5058C154.941 64.2188 156.321 65.037 157.6 65.037C158.162 65.037 158.52 64.9347 158.725 64.858L158.418 63.5029C158.29 63.5285 158.086 63.5796 157.753 63.5796C157.088 63.5796 156.449 63.3751 156.449 62.0967V56.3694H158.546V55.091Z" fill="black"/>
<path d="M160.815 64.9092H162.324V55.091H160.815V64.9092ZM161.582 53.4546C162.17 53.4546 162.656 52.9944 162.656 52.4319C162.656 51.8694 162.17 51.4092 161.582 51.4092C160.994 51.4092 160.508 51.8694 160.508 52.4319C160.508 52.9944 160.994 53.4546 161.582 53.4546Z" fill="black"/>
<path d="M169.075 65.1137C171.248 65.1137 172.68 63.7842 172.936 62.0455H171.427C171.146 63.1194 170.251 63.7586 169.075 63.7586C167.285 63.7586 166.135 62.2757 166.135 60.0001C166.135 57.7757 167.311 56.3183 169.075 56.3183C170.405 56.3183 171.197 57.1365 171.427 58.0313H172.936C172.68 56.1904 171.121 54.9632 169.05 54.9632C166.39 54.9632 164.626 57.0597 164.626 60.0512C164.626 62.9916 166.314 65.1137 169.075 65.1137Z" fill="black"/>
<path d="M182.096 57.2899C181.623 55.8964 180.562 54.9632 178.618 54.9632C176.547 54.9632 175.013 56.1393 175.013 57.8012C175.013 59.1563 175.819 60.064 177.621 60.4859L179.258 60.8694C180.248 61.0995 180.715 61.5725 180.715 62.2501C180.715 63.0938 179.82 63.7842 178.414 63.7842C177.18 63.7842 176.407 63.2536 176.138 62.199L174.706 62.5569C175.058 64.2252 176.432 65.1137 178.439 65.1137C180.721 65.1137 182.275 63.8673 182.275 62.1734C182.275 60.8055 181.418 59.9426 179.667 59.5143L178.209 59.1563C177.046 58.8687 176.522 58.4788 176.522 57.7245C176.522 56.8808 177.417 56.2671 178.618 56.2671C179.935 56.2671 180.479 56.9958 180.741 57.6734L182.096 57.2899Z" fill="black"/>
<path d="M16.875 114.375C16.875 116.239 15.364 117.75 13.5 117.75C11.636 117.75 10.125 116.239 10.125 114.375C10.125 112.511 11.636 111 13.5 111C15.364 111 16.875 112.511 16.875 114.375Z" fill="#786AFF" fill-opacity="0.4"/>
<path d="M13.125 102.188C13.125 104.362 11.3621 106.125 9.1875 106.125C7.01288 106.125 5.25 104.362 5.25 102.188C5.25 100.013 7.01288 98.25 9.1875 98.25C11.3621 98.25 13.125 100.013 13.125 102.188Z" fill="#E6E6E6"/>
<path d="M13.2557 113.876C12.7059 113.889 12.18 113.619 12.0809 113.274L9.92847 105.773C9.8294 105.427 10.1947 105.137 10.7445 105.124C11.2942 105.112 11.8201 105.381 11.9192 105.726L14.0717 113.228C14.1707 113.573 13.8054 113.863 13.2557 113.876Z" fill="#786AFF"/>
<path d="M34 101.225H38.1165V112.909H39.7017V101.225H43.8182V99.8183H34V101.225Z" fill="black"/>
<path d="M48.7528 113.114C50.7472 113.114 52.2045 112.117 52.6648 110.634L51.2074 110.225C50.8239 111.247 49.9354 111.759 48.7528 111.759C46.9822 111.759 45.7614 110.614 45.6911 108.511H52.8182V107.872C52.8182 104.216 50.6449 102.963 48.5994 102.963C45.9403 102.963 44.1761 105.06 44.1761 108.077C44.1761 111.094 45.9148 113.114 48.7528 113.114ZM45.6911 107.207C45.7933 105.68 46.8736 104.318 48.5994 104.318C50.2358 104.318 51.2841 105.546 51.2841 107.207H45.6911Z" fill="black"/>
<path d="M59.1016 113.114C61.2749 113.114 62.7067 111.784 62.9624 110.046H61.4538C61.1726 111.119 60.2777 111.759 59.1016 111.759C57.3118 111.759 56.1612 110.276 56.1612 108C56.1612 105.776 57.3374 104.318 59.1016 104.318C60.4311 104.318 61.2237 105.136 61.4538 106.031H62.9624C62.7067 104.19 61.147 102.963 59.076 102.963C56.4169 102.963 54.6527 105.06 54.6527 108.051C54.6527 110.992 56.3402 113.114 59.1016 113.114Z" fill="black"/>
<path d="M66.6761 107.003C66.6761 105.29 67.7692 104.318 69.2585 104.318C70.6776 104.318 71.5341 105.213 71.5341 106.773V112.909H73.0426V106.671C73.0426 104.146 71.7003 102.963 69.6932 102.963C68.1463 102.963 67.2642 103.609 66.804 104.625H66.6761V99.8183H65.1676V112.909H66.6761V107.003Z" fill="black"/>
<path d="M77.3109 107.003C77.3109 105.29 78.372 104.318 79.8166 104.318C81.2164 104.318 82.0666 105.232 82.0666 106.773V112.909H83.5751V106.671C83.5751 104.165 82.2392 102.963 80.2512 102.963C78.7683 102.963 77.8478 103.628 77.3876 104.625H77.2598V103.091H75.8024V112.909H77.3109V107.003Z" fill="black"/>
<path d="M86.3317 112.909H87.8402V103.091H86.3317V112.909ZM87.0987 101.455C87.6868 101.455 88.1726 100.994 88.1726 100.432C88.1726 99.8694 87.6868 99.4092 87.0987 99.4092C86.5107 99.4092 86.0249 99.8694 86.0249 100.432C86.0249 100.994 86.5107 101.455 87.0987 101.455Z" fill="black"/>
<path d="M94.5918 113.114C96.7651 113.114 98.1969 111.784 98.4526 110.046H96.9441C96.6628 111.119 95.7679 111.759 94.5918 111.759C92.802 111.759 91.6515 110.276 91.6515 108C91.6515 105.776 92.8276 104.318 94.5918 104.318C95.9213 104.318 96.714 105.136 96.9441 106.031H98.4526C98.1969 104.19 96.6372 102.963 94.5662 102.963C91.9071 102.963 90.1429 105.06 90.1429 108.051C90.1429 110.992 91.8304 113.114 94.5918 113.114Z" fill="black"/>
<path d="M103.547 113.139C105.26 113.139 106.155 112.219 106.462 111.58H106.539V112.909H108.047V106.44C108.047 103.321 105.669 102.963 104.416 102.963C102.933 102.963 101.246 103.475 100.479 105.264L101.911 105.776C102.243 105.06 103.029 104.293 104.468 104.293C105.855 104.293 106.539 105.028 106.539 106.287V106.338C106.539 107.067 105.797 107.003 104.007 107.233C102.186 107.47 100.198 107.872 100.198 110.122C100.198 112.04 101.681 113.139 103.547 113.139ZM103.777 111.784C102.575 111.784 101.706 111.247 101.706 110.199C101.706 109.048 102.754 108.69 103.931 108.537C104.57 108.46 106.283 108.281 106.539 107.975V109.355C106.539 110.582 105.567 111.784 103.777 111.784Z" fill="black"/>
<path d="M112.309 99.8183H110.8V112.909H112.309V99.8183Z" fill="black"/>
<path d="M127.498 103.091H129.032C128.962 101.116 127.14 99.6393 124.609 99.6393C122.103 99.6393 120.134 101.097 120.134 103.296C120.134 105.06 121.413 106.108 123.458 106.696L125.069 107.156C126.45 107.54 127.677 108.026 127.677 109.33C127.677 110.761 126.296 111.707 124.481 111.707C122.921 111.707 121.541 111.017 121.413 109.534H119.776C119.93 111.682 121.669 113.139 124.481 113.139C127.498 113.139 129.211 111.477 129.211 109.355C129.211 106.901 126.884 106.108 125.529 105.75L124.2 105.392C123.228 105.136 121.669 104.625 121.669 103.219C121.669 101.966 122.819 101.046 124.558 101.046C126.143 101.046 127.345 101.8 127.498 103.091Z" fill="black"/>
<path d="M137.8 108.895C137.8 110.736 136.394 111.58 135.269 111.58C134.016 111.58 133.121 110.659 133.121 109.227V103.091H131.613V109.33C131.613 111.835 132.942 113.037 134.783 113.037C136.266 113.037 137.238 112.244 137.698 111.247H137.8V112.909H139.309V103.091H137.8V108.895Z" fill="black"/>
<path d="M142.072 116.591H143.58V111.401H143.708C144.041 111.938 144.68 113.114 146.572 113.114C149.026 113.114 150.74 111.145 150.74 108.026C150.74 104.932 149.026 102.963 146.546 102.963C144.629 102.963 144.041 104.139 143.708 104.651H143.529V103.091H142.072V116.591ZM143.555 108C143.555 105.801 144.526 104.318 146.367 104.318C148.285 104.318 149.231 105.929 149.231 108C149.231 110.097 148.259 111.759 146.367 111.759C144.552 111.759 143.555 110.225 143.555 108Z" fill="black"/>
<path d="M153.041 116.591H154.549V111.401H154.677C155.009 111.938 155.649 113.114 157.541 113.114C159.995 113.114 161.708 111.145 161.708 108.026C161.708 104.932 159.995 102.963 157.515 102.963C155.597 102.963 155.009 104.139 154.677 104.651H154.498V103.091H153.041V116.591ZM154.524 108C154.524 105.801 155.495 104.318 157.336 104.318C159.254 104.318 160.2 105.929 160.2 108C160.2 110.097 159.228 111.759 157.336 111.759C155.521 111.759 154.524 110.225 154.524 108Z" fill="black"/>
<path d="M167.998 113.114C170.657 113.114 172.447 111.094 172.447 108.051C172.447 104.983 170.657 102.963 167.998 102.963C165.339 102.963 163.549 104.983 163.549 108.051C163.549 111.094 165.339 113.114 167.998 113.114ZM167.998 111.759C165.978 111.759 165.058 110.02 165.058 108.051C165.058 106.082 165.978 104.318 167.998 104.318C170.018 104.318 170.938 106.082 170.938 108.051C170.938 110.02 170.018 111.759 167.998 111.759Z" fill="black"/>
<path d="M174.75 112.909H176.258V106.696C176.258 105.367 177.306 104.395 178.738 104.395C179.141 104.395 179.556 104.472 179.659 104.497V102.963C179.486 102.95 179.09 102.938 178.866 102.938C177.69 102.938 176.667 103.602 176.309 104.574H176.207V103.091H174.75V112.909Z" fill="black"/>
<path d="M186.332 103.091H184.235V100.739H182.727V103.091H181.244V104.369H182.727V110.506C182.727 112.219 184.108 113.037 185.386 113.037C185.949 113.037 186.306 112.935 186.511 112.858L186.204 111.503C186.076 111.528 185.872 111.58 185.539 111.58C184.875 111.58 184.235 111.375 184.235 110.097V104.369H186.332V103.091Z" fill="black"/>
<path d="M11.25 159.375C11.25 160.825 10.0747 162 8.625 162C7.17525 162 6 160.825 6 159.375C6 157.925 7.17525 156.75 8.625 156.75C10.0747 156.75 11.25 157.925 11.25 159.375Z" fill="#786AFF"/>
<path d="M18 159.375C18 160.825 16.8247 162 15.375 162C13.9253 162 12.75 160.825 12.75 159.375C12.75 157.925 13.9253 156.75 15.375 156.75C16.8247 156.75 18 157.925 18 159.375Z" fill="#786AFF"/>
<path d="M1.5 154.125C1.5 153.504 2.00368 153 2.625 153H21.375C21.9963 153 22.5 153.504 22.5 154.125C22.5 154.746 21.9963 155.25 21.375 155.25H2.625C2.00368 155.25 1.5 154.746 1.5 154.125Z" fill="#786AFF" fill-opacity="0.4"/>
<path d="M7.5 146.25C7.08579 146.25 6.75 146.586 6.75 147V152.25H17.25V147C17.25 146.586 16.9142 146.25 16.5 146.25H7.5Z" fill="#E6E6E6"/>
<path d="M9 165C9 164.586 9.33579 164.25 9.75 164.25H14.25C14.6642 164.25 15 164.586 15 165C15 165.414 14.6642 165.75 14.25 165.75H9.75C9.33579 165.75 9 165.414 9 165Z" fill="#E6E6E6"/>
<path d="M34 162.737H35.5852V157.956H38.4489C41.4979 157.956 42.8722 156.102 42.8722 153.788C42.8722 151.474 41.4979 149.646 38.4233 149.646H34V162.737ZM35.5852 156.55V151.053H38.3722C40.5007 151.053 41.3125 152.216 41.3125 153.788C41.3125 155.361 40.5007 156.55 38.3977 156.55H35.5852Z" fill="black"/>
<path d="M45.2212 162.737H46.7298V156.524C46.7298 155.195 47.7781 154.223 49.2099 154.223C49.6126 154.223 50.0281 154.3 50.1303 154.325V152.791C49.9577 152.778 49.5614 152.766 49.3377 152.766C48.1616 152.766 47.1388 153.43 46.7809 154.402H46.6786V152.919H45.2212V162.737Z" fill="black"/>
<path d="M55.6083 162.942C58.2674 162.942 60.0572 160.922 60.0572 157.879C60.0572 154.811 58.2674 152.791 55.6083 152.791C52.9492 152.791 51.1594 154.811 51.1594 157.879C51.1594 160.922 52.9492 162.942 55.6083 162.942ZM55.6083 161.587C53.5884 161.587 52.668 159.848 52.668 157.879C52.668 155.911 53.5884 154.146 55.6083 154.146C57.6282 154.146 58.5487 155.911 58.5487 157.879C58.5487 159.848 57.6282 161.587 55.6083 161.587Z" fill="black"/>
<path d="M66.7321 152.919H64.5332V151.922C64.5332 150.95 64.9423 150.439 65.9395 150.439C66.3741 150.439 66.6298 150.541 66.7832 150.592L67.2179 149.288C66.9877 149.186 66.5275 149.033 65.786 149.033C64.3798 149.033 63.0247 149.876 63.0247 151.564V152.919H61.4395V154.197H63.0247V162.737H64.5332V154.197H66.7321V152.919Z" fill="black"/>
<path d="M72.5584 162.942C74.5527 162.942 76.0101 161.945 76.4703 160.462L75.013 160.053C74.6294 161.075 73.7409 161.587 72.5584 161.587C70.7878 161.587 69.5669 160.443 69.4966 158.34H76.6238V157.7C76.6238 154.044 74.4505 152.791 72.405 152.791C69.7459 152.791 67.9817 154.888 67.9817 157.905C67.9817 160.922 69.7203 162.942 72.5584 162.942ZM69.4966 157.036C69.5989 155.508 70.6792 154.146 72.405 154.146C74.0414 154.146 75.0897 155.374 75.0897 157.036H69.4966Z" fill="black"/>
<path d="M85.873 155.118C85.4 153.724 84.339 152.791 82.3958 152.791C80.3248 152.791 78.7907 153.967 78.7907 155.629C78.7907 156.984 79.5961 157.892 81.3986 158.314L83.035 158.697C84.0257 158.928 84.4924 159.401 84.4924 160.078C84.4924 160.922 83.5975 161.612 82.1912 161.612C80.9576 161.612 80.1841 161.082 79.9157 160.027L78.4838 160.385C78.8354 162.053 80.2097 162.942 82.2168 162.942C84.4988 162.942 86.052 161.695 86.052 160.001C86.052 158.634 85.1955 157.771 83.4441 157.342L81.9867 156.984C80.8233 156.697 80.2992 156.307 80.2992 155.553C80.2992 154.709 81.1941 154.095 82.3958 154.095C83.7125 154.095 84.2559 154.824 84.5179 155.501L85.873 155.118Z" fill="black"/>
<path d="M95.2773 155.118C94.8043 153.724 93.7433 152.791 91.8001 152.791C89.729 152.791 88.195 153.967 88.195 155.629C88.195 156.984 89.0004 157.892 90.8029 158.314L92.4393 158.697C93.43 158.928 93.8967 159.401 93.8967 160.078C93.8967 160.922 93.0018 161.612 91.5955 161.612C90.3619 161.612 89.5884 161.082 89.32 160.027L87.8881 160.385C88.2397 162.053 89.614 162.942 91.6211 162.942C93.9031 162.942 95.4563 161.695 95.4563 160.001C95.4563 158.634 94.5998 157.771 92.8484 157.342L91.391 156.984C90.2276 156.697 89.7035 156.307 89.7035 155.553C89.7035 154.709 90.5984 154.095 91.8001 154.095C93.1168 154.095 93.6602 154.824 93.9222 155.501L95.2773 155.118Z" fill="black"/>
<path d="M97.7271 162.737H99.2356V152.919H97.7271V162.737ZM98.4941 151.283C99.0822 151.283 99.568 150.822 99.568 150.26C99.568 149.697 99.0822 149.237 98.4941 149.237C97.9061 149.237 97.4203 149.697 97.4203 150.26C97.4203 150.822 97.9061 151.283 98.4941 151.283Z" fill="black"/>
<path d="M105.987 162.942C108.646 162.942 110.436 160.922 110.436 157.879C110.436 154.811 108.646 152.791 105.987 152.791C103.328 152.791 101.538 154.811 101.538 157.879C101.538 160.922 103.328 162.942 105.987 162.942ZM105.987 161.587C103.967 161.587 103.047 159.848 103.047 157.879C103.047 155.911 103.967 154.146 105.987 154.146C108.007 154.146 108.928 155.911 108.928 157.879C108.928 159.848 108.007 161.587 105.987 161.587Z" fill="black"/>
<path d="M114.247 156.831C114.247 155.118 115.308 154.146 116.753 154.146C118.153 154.146 119.003 155.06 119.003 156.601V162.737H120.512V156.499C120.512 153.993 119.176 152.791 117.188 152.791C115.705 152.791 114.784 153.456 114.324 154.453H114.196V152.919H112.739V162.737H114.247V156.831Z" fill="black"/>
<path d="M126.157 162.967C127.87 162.967 128.765 162.047 129.072 161.408H129.149V162.737H130.657V156.269C130.657 153.149 128.279 152.791 127.027 152.791C125.544 152.791 123.856 153.303 123.089 155.092L124.521 155.604C124.853 154.888 125.64 154.121 127.078 154.121C128.465 154.121 129.149 154.856 129.149 156.115V156.166C129.149 156.895 128.407 156.831 126.618 157.061C124.796 157.298 122.808 157.7 122.808 159.95C122.808 161.868 124.291 162.967 126.157 162.967ZM126.387 161.612C125.186 161.612 124.316 161.075 124.316 160.027C124.316 158.876 125.365 158.519 126.541 158.365C127.18 158.288 128.893 158.109 129.149 157.803V159.183C129.149 160.411 128.177 161.612 126.387 161.612Z" fill="black"/>
<path d="M134.919 149.646H133.411V162.737H134.919V149.646Z" fill="black"/>
<path d="M150.108 152.919H151.642C151.572 150.944 149.75 149.467 147.219 149.467C144.713 149.467 142.745 150.925 142.745 153.124C142.745 154.888 144.023 155.936 146.069 156.524L147.679 156.984C149.06 157.368 150.287 157.854 150.287 159.158C150.287 160.59 148.907 161.536 147.091 161.536C145.532 161.536 144.151 160.845 144.023 159.362H142.387C142.54 161.51 144.279 162.967 147.091 162.967C150.108 162.967 151.821 161.305 151.821 159.183C151.821 156.729 149.495 155.936 148.14 155.578L146.81 155.22C145.838 154.965 144.279 154.453 144.279 153.047C144.279 151.794 145.429 150.874 147.168 150.874C148.753 150.874 149.955 151.628 150.108 152.919Z" fill="black"/>
<path d="M158.34 162.942C160.334 162.942 161.791 161.945 162.252 160.462L160.794 160.053C160.411 161.075 159.522 161.587 158.34 161.587C156.569 161.587 155.348 160.443 155.278 158.34H162.405V157.7C162.405 154.044 160.232 152.791 158.186 152.791C155.527 152.791 153.763 154.888 153.763 157.905C153.763 160.922 155.502 162.942 158.34 162.942ZM155.278 157.036C155.38 155.508 156.46 154.146 158.186 154.146C159.823 154.146 160.871 155.374 160.871 157.036H155.278Z" fill="black"/>
<path d="M164.7 162.737H166.208V156.524C166.208 155.195 167.257 154.223 168.688 154.223C169.091 154.223 169.507 154.3 169.609 154.325V152.791C169.436 152.778 169.04 152.766 168.816 152.766C167.64 152.766 166.617 153.43 166.259 154.402H166.157V152.919H164.7V162.737Z" fill="black"/>
<path d="M179.724 152.919H178.088L175.378 160.743H175.275L172.565 152.919H170.929L174.559 162.737H176.094L179.724 152.919Z" fill="black"/>
<path d="M181.715 162.737H183.224V152.919H181.715V162.737ZM182.482 151.283C183.07 151.283 183.556 150.822 183.556 150.26C183.556 149.697 183.07 149.237 182.482 149.237C181.894 149.237 181.409 149.697 181.409 150.26C181.409 150.822 181.894 151.283 182.482 151.283Z" fill="black"/>
<path d="M189.975 162.942C192.149 162.942 193.581 161.612 193.836 159.874H192.328C192.047 160.947 191.152 161.587 189.975 161.587C188.186 161.587 187.035 160.104 187.035 157.828C187.035 155.604 188.211 154.146 189.975 154.146C191.305 154.146 192.098 154.965 192.328 155.859H193.836C193.581 154.019 192.021 152.791 189.95 152.791C187.291 152.791 185.527 154.888 185.527 157.879C185.527 160.82 187.214 162.942 189.975 162.942Z" fill="black"/>
<path d="M200.158 162.942C202.152 162.942 203.61 161.945 204.07 160.462L202.613 160.053C202.229 161.075 201.341 161.587 200.158 161.587C198.387 161.587 197.167 160.443 197.096 158.34H204.223V157.7C204.223 154.044 202.05 152.791 200.005 152.791C197.346 152.791 195.581 154.888 195.581 157.905C195.581 160.922 197.32 162.942 200.158 162.942ZM197.096 157.036C197.199 155.508 198.279 154.146 200.005 154.146C201.641 154.146 202.689 155.374 202.689 157.036H197.096Z" fill="black"/>
<path d="M213.473 155.118C213 153.724 211.939 152.791 209.995 152.791C207.924 152.791 206.39 153.967 206.39 155.629C206.39 156.984 207.196 157.892 208.998 158.314L210.635 158.697C211.625 158.928 212.092 159.401 212.092 160.078C212.092 160.922 211.197 161.612 209.791 161.612C208.557 161.612 207.784 161.082 207.515 160.027L206.083 160.385C206.435 162.053 207.809 162.942 209.816 162.942C212.098 162.942 213.652 161.695 213.652 160.001C213.652 158.634 212.795 157.771 211.044 157.342L209.586 156.984C208.423 156.697 207.899 156.307 207.899 155.553C207.899 154.709 208.794 154.095 209.995 154.095C211.312 154.095 211.855 154.824 212.118 155.501L213.473 155.118Z" fill="black"/>
<path d="M21 205.941C21 209.84 17.8162 213 13.8889 213H12.1111C8.18375 213 5 209.84 5 205.941V198H13.8889C17.8162 198 21 201.16 21 205.059V205.941Z" fill="#E6E6E6"/>
<path d="M16 205.375C16 206.825 14.8247 208 13.375 208C11.9253 208 10.75 206.825 10.75 205.375C10.75 203.925 11.9253 202.75 13.375 202.75C14.8247 202.75 16 203.925 16 205.375Z" fill="#786AFF"/>
<path d="M45.0455 201.635C44.5597 198.95 42.4119 197.365 39.7784 197.365C36.429 197.365 34 199.948 34 204.09C34 208.232 36.429 210.814 39.7784 210.814C42.4119 210.814 44.5597 209.229 45.0455 206.544H43.4602C43.0767 208.359 41.517 209.331 39.7784 209.331C37.4006 209.331 35.5341 207.49 35.5341 204.09C35.5341 200.689 37.4006 198.848 39.7784 198.848C41.517 198.848 43.0767 199.82 43.4602 201.635H45.0455Z" fill="black"/>
<path d="M53.59 206.621C53.59 208.462 52.1838 209.305 51.0588 209.305C49.8059 209.305 48.911 208.385 48.911 206.953V200.817H47.4025V207.055C47.4025 209.561 48.7321 210.763 50.573 210.763C52.0559 210.763 53.0275 209.97 53.4877 208.973H53.59V210.635H55.0985V200.817H53.59V206.621Z" fill="black"/>
<path d="M64.8161 203.016C64.343 201.622 63.282 200.689 61.3388 200.689C59.2678 200.689 57.7337 201.865 57.7337 203.527C57.7337 204.882 58.5391 205.79 60.3416 206.212L61.978 206.595C62.9688 206.825 63.4354 207.298 63.4354 207.976C63.4354 208.82 62.5405 209.51 61.1342 209.51C59.9006 209.51 59.1271 208.979 58.8587 207.925L57.4268 208.283C57.7784 209.951 59.1527 210.84 61.1598 210.84C63.4418 210.84 64.995 209.593 64.995 207.899C64.995 206.531 64.1385 205.668 62.3871 205.24L60.9297 204.882C59.7663 204.595 59.2422 204.205 59.2422 203.45C59.2422 202.607 60.1371 201.993 61.3388 201.993C62.6555 201.993 63.1989 202.722 63.4609 203.399L64.8161 203.016Z" fill="black"/>
<path d="M71.5357 200.817H69.4391V198.465H67.9306V200.817H66.4476V202.095H67.9306V208.232C67.9306 209.945 69.3113 210.763 70.5897 210.763C71.1522 210.763 71.5101 210.661 71.7147 210.584L71.4078 209.229C71.28 209.254 71.0755 209.305 70.7431 209.305C70.0783 209.305 69.4391 209.101 69.4391 207.823V202.095H71.5357V200.817Z" fill="black"/>
<path d="M77.688 210.84C80.3471 210.84 82.1369 208.82 82.1369 205.777C82.1369 202.709 80.3471 200.689 77.688 200.689C75.0289 200.689 73.2392 202.709 73.2392 205.777C73.2392 208.82 75.0289 210.84 77.688 210.84ZM77.688 209.484C75.6681 209.484 74.7477 207.746 74.7477 205.777C74.7477 203.808 75.6681 202.044 77.688 202.044C79.7079 202.044 80.6284 203.808 80.6284 205.777C80.6284 207.746 79.7079 209.484 77.688 209.484Z" fill="black"/>
<path d="M84.4396 210.635H85.9482V204.499C85.9482 203.06 86.9964 202.044 88.1726 202.044C89.3168 202.044 90.1158 202.792 90.1158 203.911V210.635H91.6499V204.243C91.6499 202.977 92.4425 202.044 93.8232 202.044C94.897 202.044 95.8175 202.613 95.8175 204.064V210.635H97.326V204.064C97.326 201.756 96.0859 200.689 94.3345 200.689C92.9283 200.689 91.8991 201.335 91.3942 202.351H91.2919C90.8061 201.303 89.9496 200.689 88.6584 200.689C87.38 200.689 86.4339 201.303 86.0249 202.351H85.897V200.817H84.4396V210.635Z" fill="black"/>
<path d="M108.854 210.84C110.746 210.84 111.385 209.663 111.718 209.126H111.897V210.635H113.354V197.544H111.846V202.376H111.718C111.385 201.865 110.797 200.689 108.88 200.689C106.4 200.689 104.686 202.658 104.686 205.751C104.686 208.871 106.4 210.84 108.854 210.84ZM109.059 209.484C107.167 209.484 106.195 207.823 106.195 205.726C106.195 203.655 107.141 202.044 109.059 202.044C110.9 202.044 111.871 203.527 111.871 205.726C111.871 207.95 110.874 209.484 109.059 209.484Z" fill="black"/>
<path d="M120.315 210.84C122.974 210.84 124.764 208.82 124.764 205.777C124.764 202.709 122.974 200.689 120.315 200.689C117.656 200.689 115.866 202.709 115.866 205.777C115.866 208.82 117.656 210.84 120.315 210.84ZM120.315 209.484C118.295 209.484 117.375 207.746 117.375 205.777C117.375 203.808 118.295 202.044 120.315 202.044C122.335 202.044 123.255 203.808 123.255 205.777C123.255 207.746 122.335 209.484 120.315 209.484Z" fill="black"/>
<path d="M127.067 210.635H128.575V204.499C128.575 203.06 129.623 202.044 130.8 202.044C131.944 202.044 132.743 202.792 132.743 203.911V210.635H134.277V204.243C134.277 202.977 135.069 202.044 136.45 202.044C137.524 202.044 138.444 202.613 138.444 204.064V210.635H139.953V204.064C139.953 201.756 138.713 200.689 136.961 200.689C135.555 200.689 134.526 201.335 134.021 202.351H133.919C133.433 201.303 132.577 200.689 131.285 200.689C130.007 200.689 129.061 201.303 128.652 202.351H128.524V200.817H127.067V210.635Z" fill="black"/>
<path d="M145.6 210.865C147.313 210.865 148.208 209.945 148.515 209.305H148.592V210.635H150.1V204.166C150.1 201.047 147.722 200.689 146.47 200.689C144.987 200.689 143.299 201.2 142.532 202.99L143.964 203.501C144.296 202.786 145.083 202.019 146.521 202.019C147.908 202.019 148.592 202.754 148.592 204.013V204.064C148.592 204.793 147.85 204.729 146.061 204.959C144.239 205.195 142.251 205.598 142.251 207.848C142.251 209.766 143.734 210.865 145.6 210.865ZM145.83 209.51C144.629 209.51 143.759 208.973 143.759 207.925C143.759 206.774 144.808 206.416 145.984 206.263C146.623 206.186 148.336 206.007 148.592 205.7V207.081C148.592 208.308 147.62 209.51 145.83 209.51Z" fill="black"/>
<path d="M152.854 210.635H154.362V200.817H152.854V210.635ZM153.621 199.18C154.209 199.18 154.695 198.72 154.695 198.158C154.695 197.595 154.209 197.135 153.621 197.135C153.033 197.135 152.547 197.595 152.547 198.158C152.547 198.72 153.033 199.18 153.621 199.18Z" fill="black"/>
<path d="M158.634 204.729C158.634 203.016 159.695 202.044 161.139 202.044C162.539 202.044 163.389 202.958 163.389 204.499V210.635H164.898V204.396C164.898 201.891 163.562 200.689 161.574 200.689C160.091 200.689 159.171 201.354 158.71 202.351H158.583V200.817H157.125V210.635H158.634V204.729Z" fill="black"/>
<path d="M9.22814 252.134C9.30358 252.647 9.77999 253.001 10.2922 252.925C10.8045 252.85 11.1586 252.373 11.0831 251.861L10.8373 250.192C10.5053 247.938 8.40915 246.38 6.15529 246.712C6.24581 247.326 6.8175 247.751 7.43219 247.661C8.04688 247.57 8.61857 247.995 8.7091 248.61L9.22814 252.134Z" fill="#E6E6E6"/>
<path d="M15.25 251.5C15.25 252.328 14.5784 253 13.75 253C12.9216 253 12.25 252.328 12.25 251.5V250.75C12.25 247.851 14.6005 245.5 17.5 245.5V246.625C17.5 247.246 16.9963 247.75 16.375 247.75C15.7537 247.75 15.25 248.254 15.25 248.875V251.5Z" fill="#E6E6E6"/>
<path d="M18.3292 254.5H5.67078L6.5639 259.276C6.69664 259.986 7.31625 260.5 8.03834 260.5H15.9617C16.6837 260.5 17.3034 259.986 17.4361 259.276L18.3292 254.5Z" fill="#786AFF"/>
<path d="M34 243.511V256.602H35.483V246.656H35.6108L39.7017 256.602H41.1335L45.2244 246.656H45.3523V256.602H46.8352V243.511H44.9432L40.4943 254.378H40.3409L35.892 243.511H34Z" fill="black"/>
<path d="M52.6983 256.832C54.4114 256.832 55.3063 255.912 55.6131 255.273H55.6898V256.602H57.1983V250.134C57.1983 247.014 54.8205 246.656 53.5676 246.656C52.0847 246.656 50.3972 247.168 49.6301 248.957L51.062 249.469C51.3944 248.753 52.1806 247.986 53.6188 247.986C55.0059 247.986 55.6898 248.721 55.6898 249.98V250.031C55.6898 250.76 54.9483 250.696 53.1586 250.926C51.3368 251.163 49.3489 251.565 49.3489 253.815C49.3489 255.733 50.8319 256.832 52.6983 256.832ZM52.9284 255.477C51.7267 255.477 50.8574 254.94 50.8574 253.892C50.8574 252.742 51.9057 252.384 53.0819 252.23C53.7211 252.154 55.4341 251.975 55.6898 251.668V253.048C55.6898 254.276 54.7182 255.477 52.9284 255.477Z" fill="black"/>
<path d="M61.4602 250.696C61.4602 248.983 62.5213 248.011 63.9659 248.011C65.3658 248.011 66.2159 248.926 66.2159 250.466V256.602H67.7244V250.364C67.7244 247.858 66.3885 246.656 64.4006 246.656C62.9176 246.656 61.9972 247.321 61.5369 248.318H61.4091V246.784H59.9517V256.602H61.4602V250.696Z" fill="black"/>
<path d="M73.3702 256.832C75.0833 256.832 75.9782 255.912 76.285 255.273H76.3617V256.602H77.8702V250.134C77.8702 247.014 75.4924 246.656 74.2395 246.656C72.7566 246.656 71.0691 247.168 70.302 248.957L71.7338 249.469C72.0662 248.753 72.8525 247.986 74.2907 247.986C75.6777 247.986 76.3617 248.721 76.3617 249.98V250.031C76.3617 250.76 75.6202 250.696 73.8304 250.926C72.0087 251.163 70.0208 251.565 70.0208 253.815C70.0208 255.733 71.5037 256.832 73.3702 256.832ZM73.6003 255.477C72.3986 255.477 71.5293 254.94 71.5293 253.892C71.5293 252.742 72.5776 252.384 73.7537 252.23C74.3929 252.154 76.106 251.975 76.3617 251.668V253.048C76.3617 254.276 75.3901 255.477 73.6003 255.477Z" fill="black"/>
<path d="M84.5866 260.489C86.9389 260.489 88.831 259.415 88.831 256.884V246.784H87.3736V248.344H87.2202C86.8878 247.832 86.2741 246.656 84.3565 246.656C81.8764 246.656 80.1634 248.625 80.1634 251.642C80.1634 254.71 81.9531 256.449 84.331 256.449C86.2486 256.449 86.8622 255.324 87.1946 254.787H87.3224V256.781C87.3224 258.418 86.1719 259.159 84.5866 259.159C82.8033 259.159 82.1768 258.22 81.7741 257.676L80.5724 258.52C81.1861 259.549 82.3942 260.489 84.5866 260.489ZM84.5355 255.094C82.6435 255.094 81.6719 253.662 81.6719 251.617C81.6719 249.622 82.6179 248.011 84.5355 248.011C86.3764 248.011 87.348 249.494 87.348 251.617C87.348 253.79 86.3509 255.094 84.5355 255.094Z" fill="black"/>
<path d="M95.7088 256.807C97.7031 256.807 99.1605 255.81 99.6207 254.327L98.1634 253.918C97.7798 254.94 96.8913 255.452 95.7088 255.452C93.9382 255.452 92.7173 254.308 92.647 252.205H99.7741V251.565C99.7741 247.909 97.6009 246.656 95.5554 246.656C92.8963 246.656 91.1321 248.753 91.1321 251.77C91.1321 254.787 92.8707 256.807 95.7088 256.807ZM92.647 250.901C92.7493 249.373 93.8295 248.011 95.5554 248.011C97.1918 248.011 98.2401 249.239 98.2401 250.901H92.647Z" fill="black"/>
<path d="M111.12 256.807C113.293 256.807 114.725 255.477 114.981 253.739H113.472C113.191 254.813 112.296 255.452 111.12 255.452C109.33 255.452 108.18 253.969 108.18 251.693C108.18 249.469 109.356 248.011 111.12 248.011C112.45 248.011 113.242 248.83 113.472 249.725H114.981C114.725 247.884 113.165 246.656 111.094 246.656C108.435 246.656 106.671 248.753 106.671 251.744C106.671 254.685 108.359 256.807 111.12 256.807Z" fill="black"/>
<path d="M121.175 256.807C123.834 256.807 125.624 254.787 125.624 251.744C125.624 248.676 123.834 246.656 121.175 246.656C118.516 246.656 116.726 248.676 116.726 251.744C116.726 254.787 118.516 256.807 121.175 256.807ZM121.175 255.452C119.155 255.452 118.234 253.713 118.234 251.744C118.234 249.776 119.155 248.011 121.175 248.011C123.195 248.011 124.115 249.776 124.115 251.744C124.115 253.713 123.195 255.452 121.175 255.452Z" fill="black"/>
<path d="M129.435 250.696C129.435 248.983 130.496 248.011 131.941 248.011C133.34 248.011 134.191 248.926 134.191 250.466V256.602H135.699V250.364C135.699 247.858 134.363 246.656 132.375 246.656C130.892 246.656 129.972 247.321 129.512 248.318H129.384V246.784H127.926V256.602H129.435V250.696Z" fill="black"/>
<path d="M142.725 246.784H140.629V244.432H139.12V246.784H137.637V248.063H139.12V254.199C139.12 255.912 140.501 256.73 141.779 256.73C142.342 256.73 142.7 256.628 142.904 256.551L142.598 255.196C142.47 255.222 142.265 255.273 141.933 255.273C141.268 255.273 140.629 255.068 140.629 253.79V248.063H142.725V246.784Z" fill="black"/>
<path d="M147.884 256.832C149.597 256.832 150.492 255.912 150.799 255.273H150.875V256.602H152.384V250.134C152.384 247.014 150.006 246.656 148.753 246.656C147.27 246.656 145.583 247.168 144.816 248.957L146.248 249.469C146.58 248.753 147.366 247.986 148.804 247.986C150.191 247.986 150.875 248.721 150.875 249.98V250.031C150.875 250.76 150.134 250.696 148.344 250.926C146.522 251.163 144.534 251.565 144.534 253.815C144.534 255.733 146.017 256.832 147.884 256.832ZM148.114 255.477C146.912 255.477 146.043 254.94 146.043 253.892C146.043 252.742 147.091 252.384 148.267 252.23C148.907 252.154 150.62 251.975 150.875 251.668V253.048C150.875 254.276 149.904 255.477 148.114 255.477Z" fill="black"/>
<path d="M159.126 256.807C161.299 256.807 162.731 255.477 162.987 253.739H161.478C161.197 254.813 160.302 255.452 159.126 255.452C157.336 255.452 156.186 253.969 156.186 251.693C156.186 249.469 157.362 248.011 159.126 248.011C160.455 248.011 161.248 248.83 161.478 249.725H162.987C162.731 247.884 161.171 246.656 159.1 246.656C156.441 246.656 154.677 248.753 154.677 251.744C154.677 254.685 156.365 256.807 159.126 256.807Z" fill="black"/>
<path d="M169.462 246.784H167.365V244.432H165.857V246.784H164.374V248.063H165.857V254.199C165.857 255.912 167.237 256.73 168.516 256.73C169.078 256.73 169.436 256.628 169.641 256.551L169.334 255.196C169.206 255.222 169.002 255.273 168.669 255.273C168.004 255.273 167.365 255.068 167.365 253.79V248.063H169.462V246.784Z" fill="black"/>
<path d="M178.51 248.983C178.037 247.59 176.976 246.656 175.032 246.656C172.961 246.656 171.427 247.832 171.427 249.494C171.427 250.85 172.233 251.757 174.035 252.179L175.672 252.563C176.662 252.793 177.129 253.266 177.129 253.943C177.129 254.787 176.234 255.477 174.828 255.477C173.594 255.477 172.821 254.947 172.552 253.892L171.121 254.25C171.472 255.918 172.846 256.807 174.854 256.807C177.135 256.807 178.689 255.56 178.689 253.867C178.689 252.499 177.832 251.636 176.081 251.207L174.623 250.85C173.46 250.562 172.936 250.172 172.936 249.418C172.936 248.574 173.831 247.96 175.032 247.96C176.349 247.96 176.893 248.689 177.155 249.367L178.51 248.983Z" fill="black"/>
</svg>
