<svg width="200" height="264" viewBox="0 0 200 264" fill="none" xmlns="http://www.w3.org/2000/svg">
<path d="M6.75 4.5C6.75 3.67157 7.42157 3 8.25 3H15.75C16.5784 3 17.25 3.67157 17.25 4.5H6.75Z" fill="#786AFF" fill-opacity="0.4"/>
<path d="M4.5 6.75C4.5 5.92157 5.17157 5.25 6 5.25H18C18.8284 5.25 19.5 5.92157 19.5 6.75V7.5H4.5V6.75Z" fill="#786AFF"/>
<path fill-rule="evenodd" clip-rule="evenodd" d="M3.75 8.25C2.92157 8.25 2.25 8.92157 2.25 9.75V20.25C2.25 21.0784 2.92157 21.75 3.75 21.75H20.25C21.0784 21.75 21.75 21.0784 21.75 20.25V9.75C21.75 8.92157 21.0784 8.25 20.25 8.25H3.75Z" fill="#E6E6E6"/>
<path d="M7.87187 15.1414C7.4093 14.6885 7.125 14.0734 7.125 13.3958C7.125 12.0036 8.32544 10.875 9.80625 10.875C10.7131 10.875 11.5148 11.8139 12 12.4617C12.4852 11.8139 13.2869 10.875 14.1937 10.875C15.6746 10.875 16.875 12.0036 16.875 13.3958C16.875 14.1066 16.5621 14.7487 16.0588 15.2069L12 19.125L7.87187 15.1414Z" fill="#786AFF"/>
<path d="M34 17.8679H35.5852V12.0128H42.5653V17.8679H44.1506V4.77697H42.5653V10.6065H35.5852V4.77697H34V17.8679Z" fill="black"/>
<path d="M46.6083 6.18322H50.7248V17.8679H52.31V6.18322H56.4265V4.77697H46.6083V6.18322Z" fill="black"/>
<path d="M58.873 4.77697V17.8679H60.356V7.92185H60.4838L64.5748 17.8679H66.0066L70.0975 7.92185H70.2253V17.8679H71.7083V4.77697H69.8162L65.3674 15.6434H65.214L60.7651 4.77697H58.873Z" fill="black"/>
<path d="M74.8867 17.8679H82.5572V16.4616H76.4719V4.77697H74.8867V17.8679Z" fill="black"/>
<path d="M89.435 4.16333H88.0543L83.8356 19.8366H85.2163L89.435 4.16333Z" fill="black"/>
<path d="M91.9647 17.8679L93.2814 14.1605H98.574L99.8908 17.8679H101.553L96.7459 4.77697H95.1096L90.3027 17.8679H91.9647ZM93.78 12.7542L95.8766 6.84799H95.9789L98.0755 12.7542H93.78Z" fill="black"/>
<path d="M103.592 4.77697V17.8679H105.075V7.92185H105.203L109.294 17.8679H110.725L114.816 7.92185H114.944V17.8679H116.427V4.77697H114.535L110.086 15.6434H109.933L105.484 4.77697H103.592Z" fill="black"/>
<path d="M119.605 17.8679H121.191V13.0866H124.054C127.103 13.0866 128.478 11.2329 128.478 8.91901C128.478 6.60509 127.103 4.77697 124.029 4.77697H119.605V17.8679ZM121.191 11.6804V6.18322H123.978C126.106 6.18322 126.918 7.34657 126.918 8.91901C126.918 10.4915 126.106 11.6804 124.003 11.6804H121.191Z" fill="black"/>
<path d="M140.006 18.0724C142 18.0724 143.457 17.0753 143.918 15.5923L142.46 15.1832C142.077 16.2059 141.188 16.7173 140.006 16.7173C138.235 16.7173 137.014 15.5731 136.944 13.4701H144.071V12.8309C144.071 9.17469 141.898 7.92185 139.852 7.92185C137.193 7.92185 135.429 10.0184 135.429 13.0355C135.429 16.0525 137.168 18.0724 140.006 18.0724ZM136.944 12.1662C137.046 10.6385 138.126 9.27697 139.852 9.27697C141.489 9.27697 142.537 10.5042 142.537 12.1662H136.944Z" fill="black"/>
<path d="M146.366 17.8679H147.874V11.7315C147.874 10.2933 148.923 9.27697 150.099 9.27697C151.243 9.27697 152.042 10.0248 152.042 11.1434V17.8679H153.576V11.4758C153.576 10.2102 154.369 9.27697 155.749 9.27697C156.823 9.27697 157.744 9.84586 157.744 11.2969V17.8679H159.252V11.2969C159.252 8.98933 158.012 7.92185 156.261 7.92185C154.854 7.92185 153.825 8.56745 153.32 9.58379H153.218C152.732 8.53549 151.876 7.92185 150.585 7.92185C149.306 7.92185 148.36 8.53549 147.951 9.58379H147.823V8.04969H146.366V17.8679Z" fill="black"/>
<path d="M164.9 18.098C166.613 18.098 167.507 17.1775 167.814 16.5383H167.891V17.8679H169.4V11.3991C169.4 8.27981 167.022 7.92185 165.769 7.92185C164.286 7.92185 162.598 8.43322 161.831 10.223L163.263 10.7344C163.596 10.0184 164.382 9.2514 165.82 9.2514C167.207 9.2514 167.891 9.98648 167.891 11.2457V11.2969C167.891 12.0255 167.149 11.9616 165.36 12.1917C163.538 12.4282 161.55 12.8309 161.55 15.0809C161.55 16.9986 163.033 18.098 164.9 18.098ZM165.13 16.7429C163.928 16.7429 163.059 16.2059 163.059 15.1576C163.059 14.0071 164.107 13.6491 165.283 13.4957C165.922 13.419 167.635 13.24 167.891 12.9332V14.3139C167.891 15.5412 166.919 16.7429 165.13 16.7429Z" fill="black"/>
<path d="M172.153 17.8679H173.661V8.04969H172.153V17.8679ZM172.92 6.41333C173.508 6.41333 173.994 5.9531 173.994 5.3906C173.994 4.8281 173.508 4.36788 172.92 4.36788C172.332 4.36788 171.846 4.8281 171.846 5.3906C171.846 5.9531 172.332 6.41333 172.92 6.41333Z" fill="black"/>
<path d="M177.933 4.77697H176.424V17.8679H177.933V4.77697Z" fill="black"/>
<path d="M187.65 10.2486C187.177 8.85509 186.116 7.92185 184.173 7.92185C182.102 7.92185 180.568 9.09799 180.568 10.7599C180.568 12.115 181.373 13.0227 183.176 13.4446L184.812 13.8281C185.803 14.0582 186.27 14.5312 186.27 15.2088C186.27 16.0525 185.375 16.7429 183.969 16.7429C182.735 16.7429 181.961 16.2123 181.693 15.1576L180.261 15.5156C180.613 17.1839 181.987 18.0724 183.994 18.0724C186.276 18.0724 187.829 16.826 187.829 15.1321C187.829 13.7642 186.973 12.9013 185.221 12.473L183.764 12.115C182.601 11.8274 182.077 11.4375 182.077 10.6832C182.077 9.83947 182.971 9.22583 184.173 9.22583C185.49 9.22583 186.033 9.95452 186.295 10.6321L187.65 10.2486Z" fill="black"/>
<path d="M3 62.7627C3 61.9343 3.67157 61.2627 4.5 61.2627H9C9.82843 61.2627 10.5 61.9343 10.5 62.7627V67.2627C10.5 68.0911 9.82843 68.7627 9 68.7627H4.5C3.67157 68.7627 3 68.0911 3 67.2627V62.7627Z" fill="#786AFF" fill-opacity="0.4"/>
<path d="M2.25 53.7627C2.25 52.9343 2.92157 52.2627 3.75 52.2627H9C9.82843 52.2627 10.5 52.9343 10.5 53.7627V59.0127C10.5 59.8411 9.82843 60.5127 9 60.5127H3.75C2.92157 60.5127 2.25 59.8411 2.25 59.0127V53.7627Z" fill="#786AFF"/>
<path d="M11.25 62.7627C11.25 61.9343 11.9216 61.2627 12.75 61.2627H18C18.8284 61.2627 19.5 61.9343 19.5 62.7627V68.0127C19.5 68.8411 18.8284 69.5127 18 69.5127H12.75C11.9216 69.5127 11.25 68.8411 11.25 68.0127V62.7627Z" fill="#786AFF"/>
<path d="M11.25 51.5127C11.25 50.6843 11.9216 50.0127 12.75 50.0127H20.25C21.0784 50.0127 21.75 50.6843 21.75 51.5127V59.0127C21.75 59.8411 21.0784 60.5127 20.25 60.5127H12.75C11.9216 60.5127 11.25 59.8411 11.25 59.0127V51.5127Z" fill="#E6E6E6"/>
<path d="M38.0653 64.973C40.5582 64.973 42.3864 63.1321 42.3864 60.6264C42.3864 58.0888 40.6222 56.2287 38.2188 56.2287C37.3366 56.2287 36.4801 56.5419 35.9432 56.9702H35.8665L36.3267 53.1094H41.7983V51.7031H34.9972L34.2045 58.1463L35.6875 58.3253C36.2308 57.9354 37.1577 57.6541 37.9631 57.6605C39.6314 57.6733 40.8523 58.9389 40.8523 60.652C40.8523 62.3331 39.6761 63.5668 38.0653 63.5668C36.723 63.5668 35.6555 62.7039 35.5341 61.5213H34C34.0959 63.5156 35.8153 64.973 38.0653 64.973Z" fill="black"/>
<path d="M49.1955 64.973C52.0847 64.973 53.7466 62.5249 53.7466 58.2486C53.7466 54.0043 52.0591 51.5242 49.1955 51.5242C46.3319 51.5242 44.6444 54.0043 44.6444 58.2486C44.6444 62.5249 46.3063 64.973 49.1955 64.973ZM49.1955 63.5668C47.2907 63.5668 46.1784 61.6556 46.1784 58.2486C46.1784 54.848 47.3034 52.9049 49.1955 52.9049C51.0875 52.9049 52.2125 54.848 52.2125 58.2486C52.2125 61.6556 51.1003 63.5668 49.1955 63.5668Z" fill="black"/>
<path d="M60.0364 62.4929H61.4682V58.9901H64.9711V57.5583H61.4682V54.0554H60.0364V57.5583H56.5336V58.9901H60.0364V62.4929Z" fill="black"/>
<path d="M77.3988 54.9759H75.3022V52.6236H73.7937V54.9759H72.3107V56.2543H73.7937V62.3906C73.7937 64.1037 75.1744 64.9219 76.4528 64.9219C77.0153 64.9219 77.3732 64.8196 77.5778 64.7429L77.271 63.3878C77.1431 63.4134 76.9386 63.4645 76.6062 63.4645C75.9414 63.4645 75.3022 63.26 75.3022 61.9816V56.2543H77.3988V54.9759Z" fill="black"/>
<path d="M83.679 64.9986C85.6733 64.9986 87.1307 64.0014 87.5909 62.5185L86.1335 62.1094C85.75 63.1321 84.8615 63.6435 83.679 63.6435C81.9084 63.6435 80.6875 62.4993 80.6172 60.3963H87.7443V59.7571C87.7443 56.1009 85.571 54.848 83.5256 54.848C80.8665 54.848 79.1023 56.9446 79.1023 59.9617C79.1023 62.9787 80.8409 64.9986 83.679 64.9986ZM80.6172 59.0924C80.7195 57.5647 81.7997 56.2031 83.5256 56.2031C85.1619 56.2031 86.2102 57.4304 86.2102 59.0924H80.6172Z" fill="black"/>
<path d="M90.0391 64.7941H91.5476V58.6577C91.5476 57.2195 92.5959 56.2031 93.772 56.2031C94.9162 56.2031 95.7152 56.951 95.7152 58.0696V64.7941H97.2493V58.402C97.2493 57.1364 98.0419 56.2031 99.4226 56.2031C100.496 56.2031 101.417 56.772 101.417 58.223V64.7941H102.925V58.223C102.925 55.9155 101.685 54.848 99.934 54.848C98.5277 54.848 97.4986 55.4936 96.9936 56.51H96.8913C96.4055 55.4617 95.549 54.848 94.2578 54.848C92.9794 54.848 92.0334 55.4617 91.6243 56.51H91.4964V54.9759H90.0391V64.7941Z" fill="black"/>
<path d="M105.684 68.4759H107.192V63.2855H107.32C107.652 63.8225 108.292 64.9986 110.184 64.9986C112.638 64.9986 114.351 63.0299 114.351 59.9105C114.351 56.8168 112.638 54.848 110.158 54.848C108.24 54.848 107.652 56.0242 107.32 56.5355H107.141V54.9759H105.684V68.4759ZM107.167 59.885C107.167 57.6861 108.138 56.2031 109.979 56.2031C111.897 56.2031 112.843 57.8139 112.843 59.885C112.843 61.9816 111.871 63.6435 109.979 63.6435C108.164 63.6435 107.167 62.1094 107.167 59.885Z" fill="black"/>
<path d="M118.161 51.7031H116.652V64.7941H118.161V51.7031Z" fill="black"/>
<path d="M123.813 65.0242C125.526 65.0242 126.421 64.1037 126.728 63.4645H126.805V64.7941H128.313V58.3253C128.313 55.206 125.935 54.848 124.682 54.848C123.199 54.848 121.512 55.3594 120.745 57.1492L122.177 57.6605C122.509 56.9446 123.295 56.1776 124.733 56.1776C126.121 56.1776 126.805 56.9127 126.805 58.1719V58.223C126.805 58.9517 126.063 58.8878 124.273 59.1179C122.452 59.3544 120.464 59.7571 120.464 62.0071C120.464 63.9247 121.947 65.0242 123.813 65.0242ZM124.043 63.6691C122.841 63.6691 121.972 63.1321 121.972 62.0838C121.972 60.9333 123.02 60.5753 124.197 60.4219C124.836 60.3452 126.549 60.1662 126.805 59.8594V61.2401C126.805 62.4674 125.833 63.6691 124.043 63.6691Z" fill="black"/>
<path d="M135.336 54.9759H133.24V52.6236H131.731V54.9759H130.248V56.2543H131.731V62.3906C131.731 64.1037 133.112 64.9219 134.39 64.9219C134.953 64.9219 135.311 64.8196 135.515 64.7429L135.208 63.3878C135.081 63.4134 134.876 63.4645 134.544 63.4645C133.879 63.4645 133.24 63.26 133.24 61.9816V56.2543H135.336V54.9759Z" fill="black"/>
<path d="M141.616 64.9986C143.611 64.9986 145.068 64.0014 145.528 62.5185L144.071 62.1094C143.687 63.1321 142.799 63.6435 141.616 63.6435C139.846 63.6435 138.625 62.4993 138.555 60.3963H145.682V59.7571C145.682 56.1009 143.509 54.848 141.463 54.848C138.804 54.848 137.04 56.9446 137.04 59.9617C137.04 62.9787 138.778 64.9986 141.616 64.9986ZM138.555 59.0924C138.657 57.5647 139.737 56.2031 141.463 56.2031C143.099 56.2031 144.148 57.4304 144.148 59.0924H138.555Z" fill="black"/>
<path d="M154.931 57.1747C154.458 55.7813 153.397 54.848 151.454 54.848C149.383 54.848 147.849 56.0242 147.849 57.6861C147.849 59.0412 148.654 59.9489 150.457 60.3708L152.093 60.7543C153.084 60.9844 153.55 61.4574 153.55 62.135C153.55 62.9787 152.656 63.6691 151.249 63.6691C150.016 63.6691 149.242 63.1385 148.974 62.0838L147.542 62.4418C147.893 64.1101 149.268 64.9986 151.275 64.9986C153.557 64.9986 155.11 63.7522 155.11 62.0583C155.11 60.6904 154.254 59.8274 152.502 59.3992L151.045 59.0412C149.881 58.7536 149.357 58.3637 149.357 57.6094C149.357 56.7656 150.252 56.152 151.454 56.152C152.771 56.152 153.314 56.8807 153.576 57.5583L154.931 57.1747Z" fill="black"/>
<path d="M16.875 114.375C16.875 116.239 15.364 117.75 13.5 117.75C11.636 117.75 10.125 116.239 10.125 114.375C10.125 112.511 11.636 111 13.5 111C15.364 111 16.875 112.511 16.875 114.375Z" fill="#786AFF" fill-opacity="0.4"/>
<path d="M13.125 102.188C13.125 104.362 11.3621 106.125 9.1875 106.125C7.01288 106.125 5.25 104.362 5.25 102.188C5.25 100.013 7.01288 98.25 9.1875 98.25C11.3621 98.25 13.125 100.013 13.125 102.188Z" fill="#E6E6E6"/>
<path d="M1.88815 111.106C1.67374 110.305 2.14861 109.483 2.94881 109.269L20.3355 104.61C21.1357 104.395 21.9582 104.87 22.1726 105.67C22.387 106.471 21.9121 107.293 21.1119 107.508L3.72527 112.166C2.92507 112.381 2.10257 111.906 1.88815 111.106Z" fill="#786AFF"/>
<path d="M41.7216 103.193H43.2557C43.1854 101.218 41.3636 99.7415 38.8324 99.7415C36.3267 99.7415 34.358 101.199 34.358 103.398C34.358 105.162 35.6364 106.21 37.6818 106.798L39.2926 107.259C40.6733 107.642 41.9006 108.128 41.9006 109.432C41.9006 110.864 40.5199 111.81 38.7045 111.81C37.1449 111.81 35.7642 111.119 35.6364 109.636H34C34.1534 111.784 35.892 113.242 38.7045 113.242C41.7216 113.242 43.4347 111.58 43.4347 109.457C43.4347 107.003 41.108 106.21 39.7528 105.852L38.4233 105.494C37.4517 105.239 35.892 104.727 35.892 103.321C35.892 102.068 37.0426 101.148 38.7812 101.148C40.3665 101.148 41.5682 101.902 41.7216 103.193Z" fill="black"/>
<path d="M50.1064 103.193H48.0098V100.841H46.5012V103.193H45.0183V104.472H46.5012V110.608C46.5012 112.321 47.8819 113.139 49.1603 113.139C49.7228 113.139 50.0808 113.037 50.2853 112.96L49.9785 111.605C49.8507 111.631 49.6461 111.682 49.3137 111.682C48.649 111.682 48.0098 111.477 48.0098 110.199V104.472H50.1064V103.193Z" fill="black"/>
<path d="M56.3865 113.216C58.3809 113.216 59.8382 112.219 60.2985 110.736L58.8411 110.327C58.4576 111.349 57.5691 111.861 56.3865 111.861C54.6159 111.861 53.3951 110.717 53.3248 108.614H60.4519V107.974C60.4519 104.318 58.2786 103.065 56.2331 103.065C53.574 103.065 51.8098 105.162 51.8098 108.179C51.8098 111.196 53.5485 113.216 56.3865 113.216ZM53.3248 107.31C53.427 105.782 54.5073 104.421 56.2331 104.421C57.8695 104.421 58.9178 105.648 58.9178 107.31H53.3248Z" fill="black"/>
<path d="M62.7466 116.693H64.2551V111.503H64.383C64.7154 112.04 65.3546 113.216 67.2466 113.216C69.7012 113.216 71.4142 111.247 71.4142 108.128C71.4142 105.034 69.7012 103.065 67.2211 103.065C65.3034 103.065 64.7154 104.242 64.383 104.753H64.204V103.193H62.7466V116.693ZM64.2296 108.102C64.2296 105.903 65.2012 104.421 67.0421 104.421C68.9597 104.421 69.9057 106.031 69.9057 108.102C69.9057 110.199 68.9341 111.861 67.0421 111.861C65.2267 111.861 64.2296 110.327 64.2296 108.102Z" fill="black"/>
<path d="M79.3404 106.696H73.6131V108.102H79.3404V106.696Z" fill="black"/>
<path d="M82.1992 113.011H83.6566V111.503H83.8356C84.168 112.04 84.8072 113.216 86.6992 113.216C89.1538 113.216 90.8668 111.247 90.8668 108.128C90.8668 105.034 89.1538 103.065 86.6737 103.065C84.756 103.065 84.168 104.242 83.8356 104.753H83.7077V99.9205H82.1992V113.011ZM83.6822 108.102C83.6822 105.903 84.6538 104.421 86.4947 104.421C88.4123 104.421 89.3583 106.031 89.3583 108.102C89.3583 110.199 88.3867 111.861 86.4947 111.861C84.6793 111.861 83.6822 110.327 83.6822 108.102Z" fill="black"/>
<path d="M93.7944 116.693C95.1559 116.693 96.1147 115.971 96.6836 114.443L100.864 103.219L99.2148 103.193L96.5046 111.017H96.4023L93.6921 103.193H92.0558L95.6864 113.063L95.4052 113.83C94.8555 115.325 94.1779 115.466 93.0785 115.185L92.695 116.514C92.8484 116.591 93.283 116.693 93.7944 116.693Z" fill="black"/>
<path d="M108.485 106.696H102.758V108.102H108.485V106.696Z" fill="black"/>
<path d="M118.094 105.392C117.621 103.999 116.56 103.065 114.616 103.065C112.545 103.065 111.011 104.242 111.011 105.903C111.011 107.259 111.817 108.166 113.619 108.588L115.256 108.972C116.246 109.202 116.713 109.675 116.713 110.352C116.713 111.196 115.818 111.886 114.412 111.886C113.178 111.886 112.405 111.356 112.136 110.301L110.705 110.659C111.056 112.327 112.43 113.216 114.438 113.216C116.719 113.216 118.273 111.97 118.273 110.276C118.273 108.908 117.416 108.045 115.665 107.617L114.207 107.259C113.044 106.971 112.52 106.581 112.52 105.827C112.52 104.983 113.415 104.369 114.616 104.369C115.933 104.369 116.477 105.098 116.739 105.776L118.094 105.392Z" fill="black"/>
<path d="M124.813 103.193H122.717V100.841H121.208V103.193H119.725V104.472H121.208V110.608C121.208 112.321 122.589 113.139 123.867 113.139C124.43 113.139 124.788 113.037 124.992 112.96L124.686 111.605C124.558 111.631 124.353 111.682 124.021 111.682C123.356 111.682 122.717 111.477 122.717 110.199V104.472H124.813V103.193Z" fill="black"/>
<path d="M131.094 113.216C133.088 113.216 134.545 112.219 135.006 110.736L133.548 110.327C133.165 111.349 132.276 111.861 131.094 111.861C129.323 111.861 128.102 110.717 128.032 108.614H135.159V107.974C135.159 104.318 132.986 103.065 130.94 103.065C128.281 103.065 126.517 105.162 126.517 108.179C126.517 111.196 128.256 113.216 131.094 113.216ZM128.032 107.31C128.134 105.782 129.214 104.421 130.94 104.421C132.577 104.421 133.625 105.648 133.625 107.31H128.032Z" fill="black"/>
<path d="M137.454 116.693H138.962V111.503H139.09C139.422 112.04 140.062 113.216 141.954 113.216C144.408 113.216 146.121 111.247 146.121 108.128C146.121 105.034 144.408 103.065 141.928 103.065C140.01 103.065 139.422 104.242 139.09 104.753H138.911V103.193H137.454V116.693ZM138.937 108.102C138.937 105.903 139.908 104.421 141.749 104.421C143.667 104.421 144.613 106.031 144.613 108.102C144.613 110.199 143.641 111.861 141.749 111.861C139.934 111.861 138.937 110.327 138.937 108.102Z" fill="black"/>
<path d="M157.857 103.193H155.658V102.196C155.658 101.224 156.067 100.713 157.064 100.713C157.499 100.713 157.755 100.815 157.908 100.867L158.343 99.5626C158.113 99.4603 157.653 99.3069 156.911 99.3069C155.505 99.3069 154.15 100.151 154.15 101.838V103.193H152.564V104.472H154.15V113.011H155.658V104.472H157.857V103.193Z" fill="black"/>
<path d="M163.556 113.216C166.215 113.216 168.004 111.196 168.004 108.153C168.004 105.085 166.215 103.065 163.556 103.065C160.896 103.065 159.107 105.085 159.107 108.153C159.107 111.196 160.896 113.216 163.556 113.216ZM163.556 111.861C161.536 111.861 160.615 110.122 160.615 108.153C160.615 106.185 161.536 104.421 163.556 104.421C165.575 104.421 166.496 106.185 166.496 108.153C166.496 110.122 165.575 111.861 163.556 111.861Z" fill="black"/>
<path d="M170.307 113.011H171.816V106.798C171.816 105.469 172.864 104.497 174.296 104.497C174.699 104.497 175.114 104.574 175.216 104.599V103.065C175.044 103.053 174.647 103.04 174.424 103.04C173.248 103.04 172.225 103.705 171.867 104.676H171.765V103.193H170.307V113.011Z" fill="black"/>
<path d="M177.004 113.011H178.513V106.875C178.513 105.437 179.561 104.421 180.737 104.421C181.882 104.421 182.681 105.168 182.681 106.287V113.011H184.215V106.619C184.215 105.354 185.007 104.421 186.388 104.421C187.462 104.421 188.382 104.989 188.382 106.44V113.011H189.891V106.44C189.891 104.133 188.651 103.065 186.899 103.065C185.493 103.065 184.464 103.711 183.959 104.727H183.857C183.371 103.679 182.514 103.065 181.223 103.065C179.945 103.065 178.999 103.679 178.59 104.727H178.462V103.193H177.004V113.011Z" fill="black"/>
<path d="M199.604 105.392C199.131 103.999 198.069 103.065 196.126 103.065C194.055 103.065 192.521 104.242 192.521 105.903C192.521 107.259 193.327 108.166 195.129 108.588L196.765 108.972C197.756 109.202 198.223 109.675 198.223 110.352C198.223 111.196 197.328 111.886 195.922 111.886C194.688 111.886 193.915 111.356 193.646 110.301L192.214 110.659C192.566 112.327 193.94 113.216 195.947 113.216C198.229 113.216 199.782 111.97 199.782 110.276C199.782 108.908 198.926 108.045 197.175 107.617L195.717 107.259C194.554 106.971 194.03 106.581 194.03 105.827C194.03 104.983 194.925 104.369 196.126 104.369C197.443 104.369 197.986 105.098 198.248 105.776L199.604 105.392Z" fill="black"/>
<path d="M11.25 159.375C11.25 160.825 10.0747 162 8.625 162C7.17525 162 6 160.825 6 159.375C6 157.925 7.17525 156.75 8.625 156.75C10.0747 156.75 11.25 157.925 11.25 159.375Z" fill="#786AFF"/>
<path d="M18 159.375C18 160.825 16.8247 162 15.375 162C13.9253 162 12.75 160.825 12.75 159.375C12.75 157.925 13.9253 156.75 15.375 156.75C16.8247 156.75 18 157.925 18 159.375Z" fill="#786AFF"/>
<path d="M1.5 154.125C1.5 153.504 2.00368 153 2.625 153H21.375C21.9963 153 22.5 153.504 22.5 154.125C22.5 154.746 21.9963 155.25 21.375 155.25H2.625C2.00368 155.25 1.5 154.746 1.5 154.125Z" fill="#786AFF" fill-opacity="0.4"/>
<path d="M7.5 146.25C7.08579 146.25 6.75 146.586 6.75 147V152.25H17.25V147C17.25 146.586 16.9142 146.25 16.5 146.25H7.5Z" fill="#E6E6E6"/>
<path d="M9 165C9 164.586 9.33579 164.25 9.75 164.25H14.25C14.6642 164.25 15 164.586 15 165C15 165.414 14.6642 165.75 14.25 165.75H9.75C9.33579 165.75 9 165.414 9 165Z" fill="#E6E6E6"/>
<path d="M45.0455 153.737C44.5597 151.053 42.4119 149.467 39.7784 149.467C36.429 149.467 34 152.05 34 156.192C34 160.334 36.429 162.916 39.7784 162.916C42.4119 162.916 44.5597 161.331 45.0455 158.646H43.4602C43.0767 160.462 41.517 161.433 39.7784 161.433C37.4006 161.433 35.5341 159.592 35.5341 156.192C35.5341 152.791 37.4006 150.95 39.7784 150.95C41.517 150.95 43.0767 151.922 43.4602 153.737H45.0455Z" fill="black"/>
<path d="M51.3912 162.942C54.0502 162.942 55.84 160.922 55.84 157.879C55.84 154.811 54.0502 152.791 51.3912 152.791C48.7321 152.791 46.9423 154.811 46.9423 157.879C46.9423 160.922 48.7321 162.942 51.3912 162.942ZM51.3912 161.587C49.3713 161.587 48.4508 159.848 48.4508 157.879C48.4508 155.911 49.3713 154.146 51.3912 154.146C53.411 154.146 54.3315 155.911 54.3315 157.879C54.3315 159.848 53.411 161.587 51.3912 161.587Z" fill="black"/>
<path d="M59.6513 156.831C59.6513 155.118 60.7124 154.146 62.157 154.146C63.5568 154.146 64.407 155.06 64.407 156.601V162.737H65.9155V156.499C65.9155 153.993 64.5795 152.791 62.5916 152.791C61.1087 152.791 60.1882 153.456 59.728 154.453H59.6001V152.919H58.1428V162.737H59.6513V156.831Z" fill="black"/>
<path d="M72.3794 162.942C74.2715 162.942 74.9107 161.766 75.2431 161.229H75.4221V162.737H76.8794V149.646H75.3709V154.479H75.2431C74.9107 153.967 74.3226 152.791 72.405 152.791C69.9249 152.791 68.2118 154.76 68.2118 157.854C68.2118 160.973 69.9249 162.942 72.3794 162.942ZM72.584 161.587C70.6919 161.587 69.7203 159.925 69.7203 157.828C69.7203 155.757 70.6664 154.146 72.584 154.146C74.4249 154.146 75.3965 155.629 75.3965 157.828C75.3965 160.053 74.3993 161.587 72.584 161.587Z" fill="black"/>
<path d="M79.8517 162.737H81.3603V152.919H79.8517V162.737ZM80.6188 151.283C81.2069 151.283 81.6926 150.822 81.6926 150.26C81.6926 149.697 81.2069 149.237 80.6188 149.237C80.0307 149.237 79.5449 149.697 79.5449 150.26C79.5449 150.822 80.0307 151.283 80.6188 151.283Z" fill="black"/>
<path d="M88.3931 152.919H86.2965V150.567H84.788V152.919H83.305V154.197H84.788V160.334C84.788 162.047 86.1687 162.865 87.4471 162.865C88.0096 162.865 88.3675 162.763 88.5721 162.686L88.2653 161.331C88.1374 161.357 87.9329 161.408 87.6005 161.408C86.9357 161.408 86.2965 161.203 86.2965 159.925V154.197H88.3931V152.919Z" fill="black"/>
<path d="M90.6623 162.737H92.1708V152.919H90.6623V162.737ZM91.4293 151.283C92.0174 151.283 92.5032 150.822 92.5032 150.26C92.5032 149.697 92.0174 149.237 91.4293 149.237C90.8413 149.237 90.3555 149.697 90.3555 150.26C90.3555 150.822 90.8413 151.283 91.4293 151.283Z" fill="black"/>
<path d="M98.9224 162.942C101.582 162.942 103.371 160.922 103.371 157.879C103.371 154.811 101.582 152.791 98.9224 152.791C96.2633 152.791 94.4735 154.811 94.4735 157.879C94.4735 160.922 96.2633 162.942 98.9224 162.942ZM98.9224 161.587C96.9025 161.587 95.9821 159.848 95.9821 157.879C95.9821 155.911 96.9025 154.146 98.9224 154.146C100.942 154.146 101.863 155.911 101.863 157.879C101.863 159.848 100.942 161.587 98.9224 161.587Z" fill="black"/>
<path d="M107.183 156.831C107.183 155.118 108.244 154.146 109.688 154.146C111.088 154.146 111.938 155.06 111.938 156.601V162.737H113.447V156.499C113.447 153.993 112.111 152.791 110.123 152.791C108.64 152.791 107.719 153.456 107.259 154.453H107.131V152.919H105.674V162.737H107.183V156.831Z" fill="black"/>
<path d="M119.093 162.967C120.806 162.967 121.7 162.047 122.007 161.408H122.084V162.737H123.593V156.269C123.593 153.149 121.215 152.791 119.962 152.791C118.479 152.791 116.791 153.303 116.024 155.092L117.456 155.604C117.789 154.888 118.575 154.121 120.013 154.121C121.4 154.121 122.084 154.856 122.084 156.115V156.166C122.084 156.895 121.343 156.831 119.553 157.061C117.731 157.298 115.743 157.7 115.743 159.95C115.743 161.868 117.226 162.967 119.093 162.967ZM119.323 161.612C118.121 161.612 117.252 161.075 117.252 160.027C117.252 158.876 118.3 158.519 119.476 158.365C120.115 158.288 121.828 158.109 122.084 157.803V159.183C122.084 160.411 121.112 161.612 119.323 161.612Z" fill="black"/>
<path d="M127.854 149.646H126.346V162.737H127.854V149.646Z" fill="black"/>
<path d="M140.052 152.919H137.853V151.922C137.853 150.95 138.262 150.439 139.259 150.439C139.694 150.439 139.95 150.541 140.103 150.592L140.538 149.288C140.308 149.186 139.847 149.033 139.106 149.033C137.7 149.033 136.345 149.876 136.345 151.564V152.919H134.759V154.197H136.345V162.737H137.853V154.197H140.052V152.919Z" fill="black"/>
<path d="M145.751 162.942C148.41 162.942 150.199 160.922 150.199 157.879C150.199 154.811 148.41 152.791 145.751 152.791C143.091 152.791 141.302 154.811 141.302 157.879C141.302 160.922 143.091 162.942 145.751 162.942ZM145.751 161.587C143.731 161.587 142.81 159.848 142.81 157.879C142.81 155.911 143.731 154.146 145.751 154.146C147.77 154.146 148.691 155.911 148.691 157.879C148.691 159.848 147.77 161.587 145.751 161.587Z" fill="black"/>
<path d="M152.502 162.737H154.011V156.524C154.011 155.195 155.059 154.223 156.491 154.223C156.893 154.223 157.309 154.3 157.411 154.325V152.791C157.239 152.778 156.842 152.766 156.619 152.766C155.442 152.766 154.42 153.43 154.062 154.402H153.96V152.919H152.502V162.737Z" fill="black"/>
<path d="M159.199 162.737H160.708V156.601C160.708 155.163 161.756 154.146 162.932 154.146C164.077 154.146 164.876 154.894 164.876 156.013V162.737H166.41V156.345C166.41 155.08 167.202 154.146 168.583 154.146C169.657 154.146 170.577 154.715 170.577 156.166V162.737H172.086V156.166C172.086 153.859 170.846 152.791 169.094 152.791C167.688 152.791 166.659 153.437 166.154 154.453H166.052C165.566 153.405 164.709 152.791 163.418 152.791C162.14 152.791 161.194 153.405 160.785 154.453H160.657V152.919H159.199V162.737Z" fill="black"/>
<path d="M181.798 155.118C181.325 153.724 180.264 152.791 178.321 152.791C176.25 152.791 174.716 153.967 174.716 155.629C174.716 156.984 175.521 157.892 177.324 158.314L178.96 158.697C179.951 158.928 180.418 159.401 180.418 160.078C180.418 160.922 179.523 161.612 178.117 161.612C176.883 161.612 176.11 161.082 175.841 160.027L174.409 160.385C174.761 162.053 176.135 162.942 178.142 162.942C180.424 162.942 181.977 161.695 181.977 160.001C181.977 158.634 181.121 157.771 179.369 157.342L177.912 156.984C176.749 156.697 176.225 156.307 176.225 155.553C176.225 154.709 177.119 154.095 178.321 154.095C179.638 154.095 180.181 154.824 180.443 155.501L181.798 155.118Z" fill="black"/>
<path d="M19.1902 205.875L15.6685 199.125H21C21.4142 199.125 21.75 199.461 21.75 199.875V205.125C21.75 205.539 21.4142 205.875 21 205.875H19.1902Z" fill="#786AFF" fill-opacity="0.4"/>
<path d="M8.21167 202.23L12.3751 194.25L21.3751 211.5H11.3178C12.2085 210.505 12.7501 209.191 12.7501 207.75C12.7501 205.015 10.7983 202.736 8.21167 202.23Z" fill="#E6E6E6"/>
<path d="M12 207.75C12 210.442 9.81739 212.625 7.125 212.625C4.43261 212.625 2.25 210.442 2.25 207.75C2.25 205.058 4.43261 202.875 7.125 202.875C9.81739 202.875 12 205.058 12 207.75Z" fill="#786AFF"/>
<path d="M34 195.818V208.909H35.483V198.963H35.6108L39.7017 208.909H41.1335L45.2244 198.963H45.3523V208.909H46.8352V195.818H44.9432L40.4943 206.685H40.3409L35.892 195.818H34Z" fill="black"/>
<path d="M53.7978 209.114C56.4569 209.114 58.2466 207.094 58.2466 204.051C58.2466 200.983 56.4569 198.963 53.7978 198.963C51.1387 198.963 49.3489 200.983 49.3489 204.051C49.3489 207.094 51.1387 209.114 53.7978 209.114ZM53.7978 207.759C51.7779 207.759 50.8574 206.02 50.8574 204.051C50.8574 202.082 51.7779 200.318 53.7978 200.318C55.8177 200.318 56.7381 202.082 56.7381 204.051C56.7381 206.02 55.8177 207.759 53.7978 207.759Z" fill="black"/>
<path d="M60.7539 208.909H62.2113V207.401H62.3903C62.7227 207.938 63.3619 209.114 65.2539 209.114C67.7085 209.114 69.4215 207.145 69.4215 204.026C69.4215 200.932 67.7085 198.963 65.2283 198.963C63.3107 198.963 62.7227 200.139 62.3903 200.651H62.2624V195.818H60.7539V208.909ZM62.2369 204C62.2369 201.801 63.2085 200.318 65.0494 200.318C66.967 200.318 67.913 201.929 67.913 204C67.913 206.097 66.9414 207.759 65.0494 207.759C63.234 207.759 62.2369 206.225 62.2369 204Z" fill="black"/>
<path d="M71.729 208.909H73.2376V199.091H71.729V208.909ZM72.4961 197.455C73.0842 197.455 73.57 196.994 73.57 196.432C73.57 195.869 73.0842 195.409 72.4961 195.409C71.908 195.409 71.4222 195.869 71.4222 196.432C71.4222 196.994 71.908 197.455 72.4961 197.455Z" fill="black"/>
<path d="M77.5091 195.818H76.0005V208.909H77.5091V195.818Z" fill="black"/>
<path d="M84.3885 209.114C86.3828 209.114 87.8402 208.117 88.3004 206.634L86.843 206.225C86.4595 207.247 85.571 207.759 84.3885 207.759C82.6179 207.759 81.397 206.614 81.3267 204.511H88.4538V203.872C88.4538 200.216 86.2805 198.963 84.2351 198.963C81.576 198.963 79.8118 201.06 79.8118 204.077C79.8118 207.094 81.5504 209.114 84.3885 209.114ZM81.3267 203.207C81.429 201.68 82.5092 200.318 84.2351 200.318C85.8714 200.318 86.9197 201.546 86.9197 203.207H81.3267Z" fill="black"/>
<path d="M95.8111 208.909H97.3196V202.696C97.3196 201.367 98.3679 200.395 99.7997 200.395C100.202 200.395 100.618 200.472 100.72 200.497V198.963C100.548 198.95 100.151 198.938 99.9276 198.938C98.7514 198.938 97.7287 199.602 97.3707 200.574H97.2685V199.091H95.8111V208.909Z" fill="black"/>
<path d="M106.326 209.114C108.32 209.114 109.778 208.117 110.238 206.634L108.781 206.225C108.397 207.247 107.509 207.759 106.326 207.759C104.555 207.759 103.335 206.614 103.264 204.511H110.391V203.872C110.391 200.216 108.218 198.963 106.173 198.963C103.513 198.963 101.749 201.06 101.749 204.077C101.749 207.094 103.488 209.114 106.326 209.114ZM103.264 203.207C103.366 201.68 104.447 200.318 106.173 200.318C107.809 200.318 108.857 201.546 108.857 203.207H103.264Z" fill="black"/>
<path d="M119.641 201.29C119.168 199.896 118.107 198.963 116.163 198.963C114.092 198.963 112.558 200.139 112.558 201.801C112.558 203.156 113.364 204.064 115.166 204.486L116.803 204.869C117.793 205.1 118.26 205.573 118.26 206.25C118.26 207.094 117.365 207.784 115.959 207.784C114.725 207.784 113.952 207.254 113.683 206.199L112.251 206.557C112.603 208.225 113.977 209.114 115.984 209.114C118.266 209.114 119.82 207.867 119.82 206.173C119.82 204.805 118.963 203.943 117.212 203.514L115.754 203.156C114.591 202.869 114.067 202.479 114.067 201.725C114.067 200.881 114.962 200.267 116.163 200.267C117.48 200.267 118.023 200.996 118.286 201.673L119.641 201.29Z" fill="black"/>
<path d="M122.09 212.591H123.599V207.401H123.727C124.059 207.938 124.698 209.114 126.59 209.114C129.045 209.114 130.758 207.145 130.758 204.026C130.758 200.932 129.045 198.963 126.565 198.963C124.647 198.963 124.059 200.139 123.727 200.651H123.548V199.091H122.09V212.591ZM123.573 204C123.573 201.801 124.545 200.318 126.386 200.318C128.303 200.318 129.249 201.929 129.249 204C129.249 206.097 128.278 207.759 126.386 207.759C124.57 207.759 123.573 206.225 123.573 204Z" fill="black"/>
<path d="M137.048 209.114C139.707 209.114 141.497 207.094 141.497 204.051C141.497 200.983 139.707 198.963 137.048 198.963C134.389 198.963 132.599 200.983 132.599 204.051C132.599 207.094 134.389 209.114 137.048 209.114ZM137.048 207.759C135.028 207.759 134.107 206.02 134.107 204.051C134.107 202.082 135.028 200.318 137.048 200.318C139.068 200.318 139.988 202.082 139.988 204.051C139.988 206.02 139.068 207.759 137.048 207.759Z" fill="black"/>
<path d="M145.308 203.003C145.308 201.29 146.369 200.318 147.814 200.318C149.213 200.318 150.064 201.232 150.064 202.773V208.909H151.572V202.671C151.572 200.165 150.236 198.963 148.248 198.963C146.765 198.963 145.845 199.628 145.385 200.625H145.257V199.091H143.799V208.909H145.308V203.003Z" fill="black"/>
<path d="M161.283 201.29C160.81 199.896 159.749 198.963 157.806 198.963C155.735 198.963 154.201 200.139 154.201 201.801C154.201 203.156 155.006 204.064 156.809 204.486L158.445 204.869C159.436 205.1 159.903 205.573 159.903 206.25C159.903 207.094 159.008 207.784 157.601 207.784C156.368 207.784 155.594 207.254 155.326 206.199L153.894 206.557C154.246 208.225 155.62 209.114 157.627 209.114C159.909 209.114 161.462 207.867 161.462 206.173C161.462 204.805 160.606 203.943 158.854 203.514L157.397 203.156C156.233 202.869 155.709 202.479 155.709 201.725C155.709 200.881 156.604 200.267 157.806 200.267C159.123 200.267 159.666 200.996 159.928 201.673L161.283 201.29Z" fill="black"/>
<path d="M163.733 208.909H165.241V199.091H163.733V208.909ZM164.5 197.455C165.088 197.455 165.574 196.994 165.574 196.432C165.574 195.869 165.088 195.409 164.5 195.409C163.912 195.409 163.426 195.869 163.426 196.432C163.426 196.994 163.912 197.455 164.5 197.455Z" fill="black"/>
<path d="M176.033 199.091H174.396L171.686 206.915H171.584L168.874 199.091H167.237L170.868 208.909H172.402L176.033 199.091Z" fill="black"/>
<path d="M181.789 209.114C183.783 209.114 185.241 208.117 185.701 206.634L184.243 206.225C183.86 207.247 182.971 207.759 181.789 207.759C180.018 207.759 178.797 206.614 178.727 204.511H185.854V203.872C185.854 200.216 183.681 198.963 181.635 198.963C178.976 198.963 177.212 201.06 177.212 204.077C177.212 207.094 178.951 209.114 181.789 209.114ZM178.727 203.207C178.829 201.68 179.91 200.318 181.635 200.318C183.272 200.318 184.32 201.546 184.32 203.207H178.727Z" fill="black"/>
<path fill-rule="evenodd" clip-rule="evenodd" d="M12 262.5C17.3848 262.5 21.75 257.799 21.75 252C21.75 246.201 17.3848 241.5 12 241.5C6.61522 241.5 2.25 246.201 2.25 252C2.25 257.799 6.61522 262.5 12 262.5ZM11.25 260.25C15.3921 260.25 18.75 256.556 18.75 252C18.75 247.444 15.3921 243.75 11.25 243.75C7.10786 243.75 3.75 247.444 3.75 252C3.75 256.556 7.10786 260.25 11.25 260.25Z" fill="#786AFF"/>
<path fill-rule="evenodd" clip-rule="evenodd" d="M11.25 259.5C14.9779 259.5 18 256.142 18 252C18 247.858 14.9779 244.5 11.25 244.5C7.52208 244.5 4.5 247.858 4.5 252C4.5 256.142 7.52208 259.5 11.25 259.5ZM10.5 256.5C12.5711 256.5 14.25 254.485 14.25 252C14.25 249.515 12.5711 247.5 10.5 247.5C8.42893 247.5 6.75 249.515 6.75 252C6.75 254.485 8.42893 256.5 10.5 256.5Z" fill="#786AFF" fill-opacity="0.4"/>
<path d="M13.5 252C13.5 254.071 12.1569 255.75 10.5 255.75C8.84315 255.75 7.5 254.071 7.5 252C7.5 249.929 8.84315 248.25 10.5 248.25C12.1569 248.25 13.5 249.929 13.5 252Z" fill="#E6E6E6"/>
<path d="M34 258.635H35.5852V253.854H38.4489C41.4979 253.854 42.8722 252 42.8722 249.686C42.8722 247.372 41.4979 245.544 38.4233 245.544H34V258.635ZM35.5852 252.448V246.95H38.3722C40.5007 246.95 41.3125 248.114 41.3125 249.686C41.3125 251.259 40.5007 252.448 38.3977 252.448H35.5852Z" fill="black"/>
<path d="M49.2322 258.84C51.2266 258.84 52.6839 257.842 53.1442 256.359L51.6868 255.95C51.3033 256.973 50.4148 257.484 49.2322 257.484C47.4616 257.484 46.2408 256.34 46.1705 254.237H53.2976V253.598C53.2976 249.942 51.1243 248.689 49.0788 248.689C46.4197 248.689 44.6555 250.786 44.6555 253.803C44.6555 256.82 46.3942 258.84 49.2322 258.84ZM46.1705 252.933C46.2727 251.406 47.353 250.044 49.0788 250.044C50.7152 250.044 51.7635 251.271 51.7635 252.933H46.1705Z" fill="black"/>
<path d="M55.5923 258.635H57.1009V252.422C57.1009 251.092 58.1491 250.121 59.581 250.121C59.9837 250.121 60.3991 250.198 60.5014 250.223V248.689C60.3288 248.676 59.9325 248.663 59.7088 248.663C58.5327 248.663 57.5099 249.328 57.152 250.3H57.0497V248.817H55.5923V258.635Z" fill="black"/>
<path d="M69.2441 251.016C68.7711 249.622 67.7101 248.689 65.7669 248.689C63.6958 248.689 62.1618 249.865 62.1618 251.527C62.1618 252.882 62.9672 253.79 64.7697 254.212L66.4061 254.595C67.3968 254.825 67.8635 255.298 67.8635 255.976C67.8635 256.82 66.9686 257.51 65.5623 257.51C64.3287 257.51 63.5552 256.979 63.2868 255.925L61.8549 256.283C62.2065 257.951 63.5808 258.84 65.5879 258.84C67.8699 258.84 69.4231 257.593 69.4231 255.899C69.4231 254.531 68.5666 253.668 66.8152 253.24L65.3578 252.882C64.1944 252.595 63.6703 252.205 63.6703 251.45C63.6703 250.607 64.5652 249.993 65.7669 249.993C67.0836 249.993 67.627 250.722 67.889 251.399L69.2441 251.016Z" fill="black"/>
<path d="M75.6825 258.84C78.3416 258.84 80.1314 256.82 80.1314 253.777C80.1314 250.709 78.3416 248.689 75.6825 248.689C73.0234 248.689 71.2337 250.709 71.2337 253.777C71.2337 256.82 73.0234 258.84 75.6825 258.84ZM75.6825 257.484C73.6626 257.484 72.7422 255.746 72.7422 253.777C72.7422 251.808 73.6626 250.044 75.6825 250.044C77.7024 250.044 78.6229 251.808 78.6229 253.777C78.6229 255.746 77.7024 257.484 75.6825 257.484Z" fill="black"/>
<path d="M83.9426 252.729C83.9426 251.016 85.0037 250.044 86.4483 250.044C87.8482 250.044 88.6983 250.958 88.6983 252.499V258.635H90.2069V252.396C90.2069 249.891 88.8709 248.689 86.883 248.689C85.4 248.689 84.4796 249.354 84.0194 250.351H83.8915V248.817H82.4341V258.635H83.9426V252.729Z" fill="black"/>
<path d="M95.8526 258.865C97.5657 258.865 98.4606 257.945 98.7674 257.305H98.8441V258.635H100.353V252.166C100.353 249.047 97.9748 248.689 96.7219 248.689C95.239 248.689 93.5515 249.2 92.7844 250.99L94.2163 251.501C94.5486 250.786 95.3349 250.019 96.7731 250.019C98.1602 250.019 98.8441 250.754 98.8441 252.013V252.064C98.8441 252.793 98.1026 252.729 96.3129 252.959C94.4911 253.195 92.5032 253.598 92.5032 255.848C92.5032 257.766 93.9861 258.865 95.8526 258.865ZM96.0827 257.51C94.881 257.51 94.0117 256.973 94.0117 255.925C94.0117 254.774 95.06 254.416 96.2362 254.263C96.8754 254.186 98.5884 254.007 98.8441 253.7V255.081C98.8441 256.308 97.8725 257.51 96.0827 257.51Z" fill="black"/>
<path d="M104.615 245.544H103.106V258.635H104.615V245.544Z" fill="black"/>
<path d="M107.377 258.635H108.886V248.817H107.377V258.635ZM108.145 247.18C108.733 247.18 109.218 246.72 109.218 246.158C109.218 245.595 108.733 245.135 108.145 245.135C107.556 245.135 107.071 245.595 107.071 246.158C107.071 246.72 107.556 247.18 108.145 247.18Z" fill="black"/>
<path d="M111.368 258.635H119.064V257.229H113.464V257.126L118.885 250.019V248.817H111.547V250.223H116.942V250.325L111.368 257.484V258.635Z" fill="black"/>
<path d="M125.222 258.84C127.217 258.84 128.674 257.842 129.134 256.359L127.677 255.95C127.294 256.973 126.405 257.484 125.222 257.484C123.452 257.484 122.231 256.34 122.161 254.237H129.288V253.598C129.288 249.942 127.115 248.689 125.069 248.689C122.41 248.689 120.646 250.786 120.646 253.803C120.646 256.82 122.384 258.84 125.222 258.84ZM122.161 252.933C122.263 251.406 123.343 250.044 125.069 250.044C126.705 250.044 127.754 251.271 127.754 252.933H122.161Z" fill="black"/>
<path d="M140.762 258.84C142.756 258.84 144.213 257.842 144.673 256.359L143.216 255.95C142.833 256.973 141.944 257.484 140.762 257.484C138.991 257.484 137.77 256.34 137.7 254.237H144.827V253.598C144.827 249.942 142.654 248.689 140.608 248.689C137.949 248.689 136.185 250.786 136.185 253.803C136.185 256.82 137.923 258.84 140.762 258.84ZM137.7 252.933C137.802 251.406 138.882 250.044 140.608 250.044C142.244 250.044 143.293 251.271 143.293 252.933H137.7Z" fill="black"/>
<path d="M147.122 258.635H148.63V252.499C148.63 251.06 149.678 250.044 150.855 250.044C151.999 250.044 152.798 250.792 152.798 251.911V258.635H154.332V252.243C154.332 250.977 155.124 250.044 156.505 250.044C157.579 250.044 158.499 250.613 158.499 252.064V258.635H160.008V252.064C160.008 249.756 158.768 248.689 157.017 248.689C155.61 248.689 154.581 249.335 154.076 250.351H153.974C153.488 249.303 152.632 248.689 151.34 248.689C150.062 248.689 149.116 249.303 148.707 250.351H148.579V248.817H147.122V258.635Z" fill="black"/>
<path d="M165.655 258.865C167.368 258.865 168.263 257.945 168.57 257.305H168.647V258.635H170.155V252.166C170.155 249.047 167.778 248.689 166.525 248.689C165.042 248.689 163.354 249.2 162.587 250.99L164.019 251.501C164.351 250.786 165.138 250.019 166.576 250.019C167.963 250.019 168.647 250.754 168.647 252.013V252.064C168.647 252.793 167.905 252.729 166.116 252.959C164.294 253.195 162.306 253.598 162.306 255.848C162.306 257.766 163.789 258.865 165.655 258.865ZM165.885 257.51C164.684 257.51 163.814 256.973 163.814 255.925C163.814 254.774 164.863 254.416 166.039 254.263C166.678 254.186 168.391 254.007 168.647 253.7V255.081C168.647 256.308 167.675 257.51 165.885 257.51Z" fill="black"/>
<path d="M172.909 258.635H174.417V248.817H172.909V258.635ZM173.676 247.18C174.264 247.18 174.75 246.72 174.75 246.158C174.75 245.595 174.264 245.135 173.676 245.135C173.088 245.135 172.602 245.595 172.602 246.158C172.602 246.72 173.088 247.18 173.676 247.18Z" fill="black"/>
<path d="M178.689 245.544H177.18V258.635H178.689V245.544Z" fill="black"/>
<path d="M188.406 251.016C187.933 249.622 186.872 248.689 184.929 248.689C182.858 248.689 181.324 249.865 181.324 251.527C181.324 252.882 182.129 253.79 183.932 254.212L185.568 254.595C186.559 254.825 187.026 255.298 187.026 255.976C187.026 256.82 186.131 257.51 184.724 257.51C183.491 257.51 182.717 256.979 182.449 255.925L181.017 256.283C181.369 257.951 182.743 258.84 184.75 258.84C187.032 258.84 188.585 257.593 188.585 255.899C188.585 254.531 187.729 253.668 185.977 253.24L184.52 252.882C183.357 252.595 182.832 252.205 182.832 251.45C182.832 250.607 183.727 249.993 184.929 249.993C186.246 249.993 186.789 250.722 187.051 251.399L188.406 251.016Z" fill="black"/>
</svg>
