<svg width="225" height="264" viewBox="0 0 225 264" fill="none" xmlns="http://www.w3.org/2000/svg">
<path d="M19.5 14.25C19.5 16.03 18.9722 17.7701 17.9832 19.2501C16.9943 20.7302 15.5887 21.8837 13.9442 22.5649C12.2996 23.2461 10.49 23.4243 8.74419 23.0771C6.99836 22.7298 5.39472 21.8726 4.13604 20.614C2.87737 19.3553 2.0202 17.7516 1.67294 16.0058C1.32567 14.26 1.5039 12.4504 2.18509 10.8058C2.86628 9.16131 4.01983 7.75571 5.49987 6.76677C6.97992 5.77784 8.71997 5.25 10.5 5.25V14.25H19.5Z" fill="#E6E6E6"/>
<path d="M16.5 6C15.1875 4.6875 13.0835 4.13967 11.25 4.125L11.25 12.375L16.5 6Z" fill="#786AFF" fill-opacity="0.4"/>
<path d="M22.125 12.375C22.125 11.25 21.6536 9.47266 21 8.4375C20.3464 7.40234 19.0577 6.17559 18 5.4375L12 12.375H22.125Z" fill="#786AFF"/>
<path d="M41.7216 6.97587H43.2557C43.1854 5.00073 41.3636 3.52417 38.8324 3.52417C36.3267 3.52417 34.358 4.98156 34.358 7.18042C34.358 8.94462 35.6364 9.99292 37.6818 10.581L39.2926 11.0412C40.6733 11.4247 41.9006 11.9105 41.9006 13.2145C41.9006 14.6463 40.5199 15.5924 38.7045 15.5924C37.1449 15.5924 35.7642 14.902 35.6364 13.4191H34C34.1534 15.5668 35.892 17.0242 38.7045 17.0242C41.7216 17.0242 43.4347 15.3622 43.4347 13.2401C43.4347 10.7855 41.108 9.99292 39.7528 9.63497L38.4233 9.27701C37.4517 9.02133 35.892 8.50997 35.892 7.10372C35.892 5.85087 37.0426 4.93042 38.7812 4.93042C40.3665 4.93042 41.5682 5.68468 41.7216 6.97587Z" fill="black"/>
<path d="M46.8081 20.4759C48.1696 20.4759 49.1284 19.7536 49.6973 18.2259L53.8777 7.00144L52.2285 6.97587L49.5183 14.7997H49.416L46.7058 6.97587H45.0694L48.7001 16.8452L48.4189 17.6122C47.8691 19.108 47.1916 19.2486 46.0922 18.9674L45.7086 20.2969C45.862 20.3736 46.2967 20.4759 46.8081 20.4759Z" fill="black"/>
<path d="M57.3821 10.8878C57.3821 9.17474 58.4432 8.20315 59.8878 8.20315C61.2876 8.20315 62.1378 9.11721 62.1378 10.6577V16.7941H63.6463V10.5554C63.6463 8.04974 62.3104 6.84803 60.3224 6.84803C58.8395 6.84803 57.919 7.51281 57.4588 8.50997H57.331V6.97587H55.8736V16.7941H57.3821V10.8878Z" fill="black"/>
<path d="M70.3915 16.9986C72.5648 16.9986 73.9966 15.6691 74.2523 13.9304H72.7438C72.4625 15.0043 71.5677 15.6435 70.3915 15.6435C68.6017 15.6435 67.4512 14.1605 67.4512 11.885C67.4512 9.66053 68.6273 8.20315 70.3915 8.20315C71.7211 8.20315 72.5137 9.02133 72.7438 9.91622H74.2523C73.9966 8.07531 72.437 6.84803 70.3659 6.84803C67.7069 6.84803 65.9426 8.94462 65.9426 11.9361C65.9426 14.8764 67.6302 16.9986 70.3915 16.9986Z" fill="black"/>
<path d="M85.5087 16.9986C87.682 16.9986 89.1138 15.6691 89.3695 13.9304H87.861C87.5797 15.0043 86.6848 15.6435 85.5087 15.6435C83.7189 15.6435 82.5684 14.1605 82.5684 11.885C82.5684 9.66053 83.7445 8.20315 85.5087 8.20315C86.8382 8.20315 87.6309 9.02133 87.861 9.91622H89.3695C89.1138 8.07531 87.5542 6.84803 85.4831 6.84803C82.824 6.84803 81.0598 8.94462 81.0598 11.9361C81.0598 14.8764 82.7473 16.9986 85.5087 16.9986Z" fill="black"/>
<path d="M94.464 17.0242C96.177 17.0242 97.0719 16.1037 97.3787 15.4645H97.4554V16.7941H98.964V10.3253C98.964 7.20599 96.5861 6.84803 95.3333 6.84803C93.8503 6.84803 92.1628 7.3594 91.3958 9.14917L92.8276 9.66053C93.16 8.94462 93.9462 8.17758 95.3844 8.17758C96.7715 8.17758 97.4554 8.91266 97.4554 10.1719V10.223C97.4554 10.9517 96.714 10.8878 94.9242 11.1179C93.1024 11.3544 91.1145 11.7571 91.1145 14.0071C91.1145 15.9247 92.5975 17.0242 94.464 17.0242ZM94.6941 15.6691C93.4924 15.6691 92.623 15.1321 92.623 14.0838C92.623 12.9333 93.6713 12.5753 94.8475 12.4219C95.4867 12.3452 97.1998 12.1662 97.4554 11.8594V13.2401C97.4554 14.4674 96.4838 15.6691 94.6941 15.6691Z" fill="black"/>
<path d="M103.226 3.70315H101.717V16.7941H103.226V3.70315Z" fill="black"/>
<path d="M110.105 16.9986C112.1 16.9986 113.557 16.0014 114.017 14.5185L112.56 14.1094C112.176 15.1321 111.288 15.6435 110.105 15.6435C108.335 15.6435 107.114 14.4993 107.044 12.3963H114.171V11.7571C114.171 8.10087 111.997 6.84803 109.952 6.84803C107.293 6.84803 105.529 8.94463 105.529 11.9617C105.529 14.9787 107.267 16.9986 110.105 16.9986ZM107.044 11.0924C107.146 9.56465 108.226 8.20315 109.952 8.20315C111.588 8.20315 112.637 9.43042 112.637 11.0924H107.044Z" fill="black"/>
<path d="M117.974 10.8878C117.974 9.17474 119.035 8.20315 120.48 8.20315C121.879 8.20315 122.73 9.11721 122.73 10.6577V16.7941H124.238V10.5554C124.238 8.04974 122.902 6.84803 120.914 6.84803C119.431 6.84803 118.511 7.51281 118.051 8.50997H117.923V6.97587H116.465V16.7941H117.974V10.8878Z" fill="black"/>
<path d="M130.702 16.9986C132.594 16.9986 133.233 15.8225 133.566 15.2855H133.745V16.7941H135.202V3.70315H133.694V8.53553H133.566C133.233 8.02417 132.645 6.84803 130.728 6.84803C128.248 6.84803 126.534 8.81678 126.534 11.9105C126.534 15.0299 128.248 16.9986 130.702 16.9986ZM130.907 15.6435C129.015 15.6435 128.043 13.9816 128.043 11.885C128.043 9.81394 128.989 8.20315 130.907 8.20315C132.748 8.20315 133.719 9.6861 133.719 11.885C133.719 14.1094 132.722 15.6435 130.907 15.6435Z" fill="black"/>
<path d="M141.064 17.0242C142.777 17.0242 143.672 16.1037 143.978 15.4645H144.055V16.7941H145.564V10.3253C145.564 7.20599 143.186 6.84803 141.933 6.84803C140.45 6.84803 138.762 7.3594 137.995 9.14917L139.427 9.66053C139.76 8.94462 140.546 8.17758 141.984 8.17758C143.371 8.17758 144.055 8.91266 144.055 10.1719V10.223C144.055 10.9517 143.314 10.8878 141.524 11.1179C139.702 11.3544 137.714 11.7571 137.714 14.0071C137.714 15.9247 139.197 17.0242 141.064 17.0242ZM141.294 15.6691C140.092 15.6691 139.223 15.1321 139.223 14.0838C139.223 12.9333 140.271 12.5753 141.447 12.4219C142.086 12.3452 143.799 12.1662 144.055 11.8594V13.2401C144.055 14.4674 143.083 15.6691 141.294 15.6691Z" fill="black"/>
<path d="M148.317 16.7941H149.825V10.581C149.825 9.25144 150.874 8.27985 152.306 8.27985C152.708 8.27985 153.124 8.35656 153.226 8.38212V6.84803C153.053 6.83525 152.657 6.82247 152.433 6.82247C151.257 6.82247 150.235 7.48724 149.877 8.45883H149.774V6.97587H148.317V16.7941Z" fill="black"/>
<path d="M12.3749 57.4268L22.4999 58.125L4.34473 68.25L12.3749 57.4268Z" fill="#786AFF"/>
<path d="M3 52.875V67.5L8.625 55.6875L3 52.875Z" fill="#E6E6E6"/>
<path d="M11.625 51L3 69L11.625 57.375V51Z" fill="#786AFF" fill-opacity="0.4"/>
<path d="M41.7216 55.1932H43.2557C43.1854 53.2181 41.3636 51.7415 38.8324 51.7415C36.3267 51.7415 34.358 53.1989 34.358 55.3978C34.358 57.162 35.6364 58.2103 37.6818 58.7984L39.2926 59.2586C40.6733 59.6421 41.9006 60.1279 41.9006 61.4319C41.9006 62.8637 40.5199 63.8097 38.7045 63.8097C37.1449 63.8097 35.7642 63.1194 35.6364 61.6364H34C34.1534 63.7842 35.892 65.2415 38.7045 65.2415C41.7216 65.2415 43.4347 63.5796 43.4347 61.4575C43.4347 59.0029 41.108 58.2103 39.7528 57.8523L38.4233 57.4944C37.4517 57.2387 35.892 56.7273 35.892 55.3211C35.892 54.0682 37.0426 53.1478 38.7812 53.1478C40.3665 53.1478 41.5682 53.9021 41.7216 55.1932Z" fill="black"/>
<path d="M46.8081 68.6932C48.1696 68.6932 49.1284 67.9709 49.6973 66.4432L53.8777 55.2188L52.2285 55.1932L49.5183 63.0171H49.416L46.7058 55.1932H45.0694L48.7001 65.0626L48.4189 65.8296C47.8691 67.3254 47.1916 67.466 46.0922 67.1847L45.7086 68.5143C45.862 68.591 46.2967 68.6932 46.8081 68.6932Z" fill="black"/>
<path d="M57.3821 59.1052C57.3821 57.3921 58.4432 56.4205 59.8878 56.4205C61.2876 56.4205 62.1378 57.3346 62.1378 58.8751V65.0114H63.6463V58.7728C63.6463 56.2671 62.3104 55.0654 60.3224 55.0654C58.8395 55.0654 57.919 55.7302 57.4588 56.7273H57.331V55.1932H55.8736V65.0114H57.3821V59.1052Z" fill="black"/>
<path d="M70.3915 65.216C72.5648 65.216 73.9966 63.8864 74.2523 62.1478H72.7438C72.4625 63.2217 71.5677 63.8609 70.3915 63.8609C68.6017 63.8609 67.4512 62.3779 67.4512 60.1023C67.4512 57.8779 68.6273 56.4205 70.3915 56.4205C71.7211 56.4205 72.5137 57.2387 72.7438 58.1336H74.2523C73.9966 56.2927 72.437 55.0654 70.3659 55.0654C67.7069 55.0654 65.9426 57.162 65.9426 60.1535C65.9426 63.0938 67.6302 65.216 70.3915 65.216Z" fill="black"/>
<path d="M88.8837 55.1932H90.4178C90.3475 53.2181 88.5257 51.7415 85.9945 51.7415C83.4888 51.7415 81.5201 53.1989 81.5201 55.3978C81.5201 57.162 82.7985 58.2103 84.8439 58.7984L86.4547 59.2586C87.8354 59.6421 89.0627 60.1279 89.0627 61.4319C89.0627 62.8637 87.682 63.8097 85.8667 63.8097C84.307 63.8097 82.9263 63.1194 82.7985 61.6364H81.1621C81.3155 63.7842 83.0542 65.2415 85.8667 65.2415C88.8837 65.2415 90.5968 63.5796 90.5968 61.4575C90.5968 59.0029 88.2701 58.2103 86.915 57.8523L85.5854 57.4944C84.6138 57.2387 83.0542 56.7273 83.0542 55.3211C83.0542 54.0682 84.2047 53.1478 85.9434 53.1478C87.5286 53.1478 88.7303 53.9021 88.8837 55.1932Z" fill="black"/>
<path d="M94.5071 59.1052C94.5071 57.3921 95.6001 56.4205 97.0895 56.4205C98.5085 56.4205 99.3651 57.3154 99.3651 58.8751V65.0114H100.874V58.7728C100.874 56.2479 99.5312 55.0654 97.5241 55.0654C95.9773 55.0654 95.0952 55.711 94.6349 56.7273H94.5071V51.9205H92.9986V65.0114H94.5071V59.1052Z" fill="black"/>
<path d="M107.622 65.216C110.281 65.216 112.071 63.1961 112.071 60.1535C112.071 57.0853 110.281 55.0654 107.622 55.0654C104.963 55.0654 103.173 57.0853 103.173 60.1535C103.173 63.1961 104.963 65.216 107.622 65.216ZM107.622 63.8609C105.602 63.8609 104.682 62.1222 104.682 60.1535C104.682 58.1847 105.602 56.4205 107.622 56.4205C109.642 56.4205 110.562 58.1847 110.562 60.1535C110.562 62.1222 109.642 63.8609 107.622 63.8609Z" fill="black"/>
<path d="M114.374 68.6932H115.882V63.5029H116.01C116.342 64.0398 116.982 65.216 118.874 65.216C121.328 65.216 123.041 63.2472 123.041 60.1279C123.041 57.0342 121.328 55.0654 118.848 55.0654C116.93 55.0654 116.342 56.2415 116.01 56.7529H115.831V55.1932H114.374V68.6932ZM115.857 60.1023C115.857 57.9035 116.828 56.4205 118.669 56.4205C120.587 56.4205 121.533 58.0313 121.533 60.1023C121.533 62.1989 120.561 63.8609 118.669 63.8609C116.854 63.8609 115.857 62.3268 115.857 60.1023Z" fill="black"/>
<path d="M125.342 65.0114H126.851V55.1932H125.342V65.0114ZM126.109 53.5569C126.697 53.5569 127.183 53.0967 127.183 52.5342C127.183 51.9717 126.697 51.5114 126.109 51.5114C125.521 51.5114 125.036 51.9717 125.036 52.5342C125.036 53.0967 125.521 53.5569 126.109 53.5569Z" fill="black"/>
<path d="M133.986 55.1932H131.787V54.1961C131.787 53.2245 132.196 52.7131 133.193 52.7131C133.628 52.7131 133.884 52.8154 134.037 52.8665L134.472 51.5626C134.242 51.4603 133.781 51.3069 133.04 51.3069C131.634 51.3069 130.279 52.1506 130.279 53.8381V55.1932H128.693V56.4717H130.279V65.0114H131.787V56.4717H133.986V55.1932Z" fill="black"/>
<path d="M137.072 68.6932C138.433 68.6932 139.392 67.9709 139.961 66.4432L144.141 55.2188L142.492 55.1932L139.782 63.0171H139.68L136.969 55.1932H135.333L138.964 65.0626L138.683 65.8296C138.133 67.3254 137.455 67.466 136.356 67.1847L135.972 68.5143C136.126 68.591 136.56 68.6932 137.072 68.6932Z" fill="black"/>
<path d="M155.188 65.216C157.362 65.216 158.794 63.8864 159.049 62.1478H157.541C157.259 63.2217 156.365 63.8609 155.188 63.8609C153.399 63.8609 152.248 62.3779 152.248 60.1023C152.248 57.8779 153.424 56.4205 155.188 56.4205C156.518 56.4205 157.311 57.2387 157.541 58.1336H159.049C158.794 56.2927 157.234 55.0654 155.163 55.0654C152.504 55.0654 150.74 57.162 150.74 60.1535C150.74 63.0938 152.427 65.216 155.188 65.216Z" fill="black"/>
<path d="M165.243 65.216C167.902 65.216 169.692 63.1961 169.692 60.1535C169.692 57.0853 167.902 55.0654 165.243 55.0654C162.584 55.0654 160.794 57.0853 160.794 60.1535C160.794 63.1961 162.584 65.216 165.243 65.216ZM165.243 63.8609C163.223 63.8609 162.303 62.1222 162.303 60.1535C162.303 58.1847 163.223 56.4205 165.243 56.4205C167.263 56.4205 168.183 58.1847 168.183 60.1535C168.183 62.1222 167.263 63.8609 165.243 63.8609Z" fill="black"/>
<path d="M173.503 59.1052C173.503 57.3921 174.564 56.4205 176.009 56.4205C177.409 56.4205 178.259 57.3346 178.259 58.8751V65.0114H179.767V58.7728C179.767 56.2671 178.431 55.0654 176.444 55.0654C174.961 55.0654 174.04 55.7302 173.58 56.7273H173.452V55.1932H171.995V65.0114H173.503V59.1052Z" fill="black"/>
<path d="M186.794 55.1932H184.697V52.841H183.189V55.1932H181.706V56.4717H183.189V62.608C183.189 64.3211 184.569 65.1393 185.848 65.1393C186.41 65.1393 186.768 65.037 186.973 64.9603L186.666 63.6052C186.538 63.6307 186.334 63.6819 186.001 63.6819C185.336 63.6819 184.697 63.4773 184.697 62.1989V56.4717H186.794V55.1932Z" fill="black"/>
<path d="M191.952 65.2415C193.665 65.2415 194.56 64.3211 194.867 63.6819H194.944V65.0114H196.452V58.5427C196.452 55.4234 194.074 55.0654 192.822 55.0654C191.339 55.0654 189.651 55.5768 188.884 57.3665L190.316 57.8779C190.648 57.162 191.434 56.395 192.873 56.395C194.26 56.395 194.944 57.13 194.944 58.3893V58.4404C194.944 59.1691 194.202 59.1052 192.412 59.3353C190.591 59.5718 188.603 59.9745 188.603 62.2245C188.603 64.1421 190.086 65.2415 191.952 65.2415ZM192.182 63.8864C190.981 63.8864 190.111 63.3495 190.111 62.3012C190.111 61.1506 191.16 60.7927 192.336 60.6393C192.975 60.5626 194.688 60.3836 194.944 60.0768V61.4575C194.944 62.6847 193.972 63.8864 192.182 63.8864Z" fill="black"/>
<path d="M203.194 65.216C205.368 65.216 206.799 63.8864 207.055 62.1478H205.547C205.265 63.2217 204.37 63.8609 203.194 63.8609C201.404 63.8609 200.254 62.3779 200.254 60.1023C200.254 57.8779 201.43 56.4205 203.194 56.4205C204.524 56.4205 205.316 57.2387 205.547 58.1336H207.055C206.799 56.2927 205.24 55.0654 203.169 55.0654C200.51 55.0654 198.745 57.162 198.745 60.1535C198.745 63.0938 200.433 65.216 203.194 65.216Z" fill="black"/>
<path d="M213.53 55.1932H211.434V52.841H209.925V55.1932H208.442V56.4717H209.925V62.608C209.925 64.3211 211.306 65.1393 212.584 65.1393C213.147 65.1393 213.505 65.037 213.709 64.9603L213.402 63.6052C213.275 63.6307 213.07 63.6819 212.738 63.6819C212.073 63.6819 211.434 63.4773 211.434 62.1989V56.4717H213.53V55.1932Z" fill="black"/>
<path d="M222.578 57.3921C222.105 55.9986 221.044 55.0654 219.101 55.0654C217.03 55.0654 215.496 56.2415 215.496 57.9035C215.496 59.2586 216.301 60.1663 218.104 60.5881L219.74 60.9717C220.731 61.2018 221.197 61.6748 221.197 62.3523C221.197 63.1961 220.303 63.8864 218.896 63.8864C217.663 63.8864 216.889 63.3559 216.621 62.3012L215.189 62.6592C215.54 64.3275 216.915 65.216 218.922 65.216C221.204 65.216 222.757 63.9695 222.757 62.2756C222.757 60.9077 221.901 60.0448 220.149 59.6165L218.692 59.2586C217.528 58.9709 217.004 58.581 217.004 57.8268C217.004 56.983 217.899 56.3694 219.101 56.3694C220.418 56.3694 220.961 57.0981 221.223 57.7756L222.578 57.3921Z" fill="black"/>
<path d="M2.25 108.194C2.25 107.662 2.53151 107.17 2.98993 106.901L7.5 104.25V117.75H3.75C2.92157 117.75 2.25 117.078 2.25 116.25V108.194Z" fill="#786AFF"/>
<path d="M16.5 106.5L21.0133 109.168C21.4699 109.438 21.75 109.929 21.75 110.459V116.25C21.75 117.078 21.0784 117.75 20.25 117.75H16.5V106.5Z" fill="#786AFF" fill-opacity="0.4"/>
<path d="M8.25 99.3577C8.25 98.8271 8.78589 98.4643 9.27854 98.6613L14.8071 100.873C15.3766 101.101 15.75 101.652 15.75 102.265V117.75H8.25V99.3577Z" fill="#E6E6E6"/>
<path d="M39.8551 99.8183V109.176C39.8551 110.806 39.0753 111.682 37.7074 111.682C36.4609 111.682 35.5597 110.953 35.5597 109.841H34C34 111.854 35.5597 113.088 37.7074 113.088C39.983 113.088 41.4403 111.688 41.4403 109.176V99.8183H39.8551Z" fill="black"/>
<path d="M48.4013 113.114C51.0604 113.114 52.8501 111.094 52.8501 108.051C52.8501 104.983 51.0604 102.963 48.4013 102.963C45.7422 102.963 43.9524 104.983 43.9524 108.051C43.9524 111.094 45.7422 113.114 48.4013 113.114ZM48.4013 111.759C46.3814 111.759 45.4609 110.02 45.4609 108.051C45.4609 106.082 46.3814 104.318 48.4013 104.318C50.4212 104.318 51.3416 106.082 51.3416 108.051C51.3416 110.02 50.4212 111.759 48.4013 111.759Z" fill="black"/>
<path d="M61.3404 108.895C61.3404 110.736 59.9341 111.58 58.8091 111.58C57.5563 111.58 56.6614 110.659 56.6614 109.227V103.091H55.1529V109.33C55.1529 111.835 56.4824 113.037 58.3233 113.037C59.8063 113.037 60.7779 112.244 61.2381 111.247H61.3404V112.909H62.8489V103.091H61.3404V108.895Z" fill="black"/>
<path d="M65.6119 112.909H67.1204V106.696C67.1204 105.367 68.1687 104.395 69.6005 104.395C70.0032 104.395 70.4187 104.472 70.521 104.497V102.963C70.3484 102.95 69.9521 102.938 69.7283 102.938C68.5522 102.938 67.5295 103.602 67.1715 104.574H67.0692V103.091H65.6119V112.909Z" fill="black"/>
<path d="M73.8176 107.003C73.8176 105.29 74.8787 104.318 76.3233 104.318C77.7232 104.318 78.5733 105.232 78.5733 106.773V112.909H80.0819V106.671C80.0819 104.165 78.7459 102.963 76.758 102.963C75.275 102.963 74.3546 103.628 73.8944 104.625H73.7665V103.091H72.3091V112.909H73.8176V107.003Z" fill="black"/>
<path d="M86.9549 113.114C88.9492 113.114 90.4066 112.117 90.8668 110.634L89.4094 110.225C89.0259 111.247 88.1374 111.759 86.9549 111.759C85.1843 111.759 83.9634 110.614 83.8931 108.511H91.0202V107.872C91.0202 104.216 88.8469 102.963 86.8015 102.963C84.1424 102.963 82.3782 105.06 82.3782 108.077C82.3782 111.094 84.1168 113.114 86.9549 113.114ZM83.8931 107.207C83.9954 105.68 85.0756 104.318 86.8015 104.318C88.4379 104.318 89.4862 105.546 89.4862 107.207H83.8931Z" fill="black"/>
<path d="M93.9877 116.591C95.3493 116.591 96.3081 115.869 96.877 114.341L101.057 103.117L99.4082 103.091L96.698 110.915H96.5957L93.8855 103.091H92.2491L95.8798 112.96L95.5985 113.727C95.0488 115.223 94.3713 115.364 93.2718 115.082L92.8883 116.412C93.0417 116.489 93.4764 116.591 93.9877 116.591Z" fill="black"/>
<path d="M108.32 112.909H109.778V111.401H109.957C110.289 111.938 110.928 113.114 112.82 113.114C115.275 113.114 116.988 111.145 116.988 108.026C116.988 104.932 115.275 102.963 112.795 102.963C110.877 102.963 110.289 104.139 109.957 104.651H109.829V99.8183H108.32V112.909ZM109.803 108C109.803 105.801 110.775 104.318 112.616 104.318C114.533 104.318 115.479 105.929 115.479 108C115.479 110.097 114.508 111.759 112.616 111.759C110.8 111.759 109.803 110.225 109.803 108Z" fill="black"/>
<path d="M125.483 108.895C125.483 110.736 124.077 111.58 122.952 111.58C121.699 111.58 120.804 110.659 120.804 109.227V103.091H119.295V109.33C119.295 111.835 120.625 113.037 122.466 113.037C123.949 113.037 124.92 112.244 125.381 111.247H125.483V112.909H126.991V103.091H125.483V108.895Z" fill="black"/>
<path d="M129.754 112.909H131.263V103.091H129.754V112.909ZM130.521 101.455C131.11 101.455 131.595 100.994 131.595 100.432C131.595 99.8694 131.11 99.4092 130.521 99.4092C129.933 99.4092 129.448 99.8694 129.448 100.432C129.448 100.994 129.933 101.455 130.521 101.455Z" fill="black"/>
<path d="M135.534 99.8183H134.026V112.909H135.534V99.8183Z" fill="black"/>
<path d="M142.005 113.114C143.897 113.114 144.536 111.938 144.868 111.401H145.047V112.909H146.505V99.8183H144.996V104.651H144.868C144.536 104.139 143.948 102.963 142.03 102.963C139.55 102.963 137.837 104.932 137.837 108.026C137.837 111.145 139.55 113.114 142.005 113.114ZM142.209 111.759C140.317 111.759 139.346 110.097 139.346 108C139.346 105.929 140.292 104.318 142.209 104.318C144.05 104.318 145.022 105.801 145.022 108C145.022 110.225 144.025 111.759 142.209 111.759Z" fill="black"/>
<path d="M153.594 113.114C155.588 113.114 157.045 112.117 157.506 110.634L156.048 110.225C155.665 111.247 154.776 111.759 153.594 111.759C151.823 111.759 150.602 110.614 150.532 108.511H157.659V107.872C157.659 104.216 155.486 102.963 153.44 102.963C150.781 102.963 149.017 105.06 149.017 108.077C149.017 111.094 150.756 113.114 153.594 113.114ZM150.532 107.207C150.634 105.68 151.714 104.318 153.44 104.318C155.077 104.318 156.125 105.546 156.125 107.207H150.532Z" fill="black"/>
<path d="M159.954 112.909H161.462V106.696C161.462 105.367 162.51 104.395 163.942 104.395C164.345 104.395 164.76 104.472 164.863 104.497V102.963C164.69 102.95 164.294 102.938 164.07 102.938C162.894 102.938 161.871 103.602 161.513 104.574H161.411V103.091H159.954V112.909Z" fill="black"/>
<path d="M11.25 148.5L4.125 152.631H19.875L12.75 148.5C12.3277 148.289 11.6723 148.289 11.25 148.5Z" fill="#786AFF" fill-opacity="0.4"/>
<path d="M2.25 154.875C2.25 154.047 2.92157 153.375 3.75 153.375H20.25C21.0784 153.375 21.75 154.047 21.75 154.875V163.5C21.75 164.328 21.0784 165 20.25 165H3.75C2.92157 165 2.25 164.328 2.25 163.5V154.875Z" fill="#786AFF"/>
<path d="M2.80046 153.714C2.46445 153.989 2.25 154.407 2.25 154.875V163.5C2.25 164.328 2.92157 165 3.75 165H20.25C21.0784 165 21.75 164.328 21.75 163.5V154.875C21.75 154.407 21.5356 153.989 21.1995 153.714L12.7861 158.891C12.304 159.188 11.696 159.188 11.2139 158.891L2.80046 153.714Z" fill="#E6E6E6"/>
<path d="M35.6619 162.507L36.9787 158.8H42.2713L43.5881 162.507H45.25L40.4432 149.416H38.8068L34 162.507H35.6619ZM37.4773 157.393L39.5739 151.487H39.6761L41.7727 157.393H37.4773Z" fill="black"/>
<path d="M47.2891 162.507H48.8743V157.726H51.7379C54.7869 157.726 56.1612 155.872 56.1612 153.558C56.1612 151.244 54.7869 149.416 51.7124 149.416H47.2891V162.507ZM48.8743 156.32V150.822H51.6612C53.7898 150.822 54.6016 151.986 54.6016 153.558C54.6016 155.131 53.7898 156.32 51.6868 156.32H48.8743Z" fill="black"/>
<path d="M60.3001 149.416H58.7148V162.507H60.3001V149.416Z" fill="black"/>
<path d="M70.2285 154.888C69.7555 153.494 68.6944 152.561 66.7512 152.561C64.6802 152.561 63.1461 153.737 63.1461 155.399C63.1461 156.754 63.9515 157.662 65.7541 158.084L67.3904 158.467C68.3812 158.697 68.8478 159.17 68.8478 159.848C68.8478 160.692 67.9529 161.382 66.5467 161.382C65.313 161.382 64.5396 160.852 64.2711 159.797L62.8393 160.155C63.1909 161.823 64.5652 162.712 66.5723 162.712C68.8542 162.712 70.4075 161.465 70.4075 159.771C70.4075 158.403 69.551 157.54 67.7995 157.112L66.3422 156.754C65.1788 156.467 64.6547 156.077 64.6547 155.322C64.6547 154.479 65.5495 153.865 66.7512 153.865C68.068 153.865 68.6113 154.594 68.8734 155.271L70.2285 154.888Z" fill="black"/>
<path d="M81.4482 162.686C82.6499 162.686 83.9922 162.264 84.8423 161.395L85.7692 162.507H87.5845L85.7756 160.302C86.2678 159.669 86.8175 158.608 86.8175 156.78H85.3601C85.3601 157.675 85.1555 158.467 84.8168 159.126L81.9723 155.655L82.9311 154.939C84.005 154.146 84.6697 153.277 84.6697 152.024C84.6697 150.567 83.468 149.288 81.4993 149.288C79.5817 149.288 78.3288 150.49 78.3288 152.254C78.3288 153.418 78.9616 154.312 79.8629 155.399C78.3352 156.46 77.2805 157.445 77.2805 159.03C77.2805 161.152 78.8658 162.686 81.4482 162.686ZM83.9411 160.302C83.2188 160.979 82.3047 161.357 81.397 161.357C79.8374 161.357 78.8146 160.257 78.8146 159.03C78.8146 158.672 79.147 157.751 80.3232 156.882L80.8089 156.524L83.9411 160.302ZM81.0455 154.53C80.4063 153.75 79.8629 153.009 79.8629 152.28C79.8629 151.462 80.5533 150.592 81.5504 150.592C82.4964 150.592 83.1357 151.359 83.1357 152.024C83.1357 152.919 82.6499 153.405 81.9084 153.891L81.0455 154.53Z" fill="black"/>
<path d="M96.8993 162.507H98.5357L101.425 152.075H101.527L104.416 162.507H106.053L109.632 149.416H108.021L105.286 160.078H105.158L102.371 149.416H100.581L97.7942 160.078H97.6664L94.9306 149.416H93.3198L96.8993 162.507Z" fill="black"/>
<path d="M114.605 162.712C116.6 162.712 118.057 161.714 118.517 160.232L117.06 159.822C116.676 160.845 115.788 161.357 114.605 161.357C112.835 161.357 111.614 160.212 111.544 158.109H118.671V157.47C118.671 153.814 116.497 152.561 114.452 152.561C111.793 152.561 110.029 154.658 110.029 157.675C110.029 160.692 111.767 162.712 114.605 162.712ZM111.544 156.805C111.646 155.278 112.726 153.916 114.452 153.916C116.088 153.916 117.137 155.143 117.137 156.805H111.544Z" fill="black"/>
<path d="M121.17 162.507H122.627V160.999H122.806C123.139 161.535 123.778 162.712 125.67 162.712C128.124 162.712 129.838 160.743 129.838 157.624C129.838 154.53 128.124 152.561 125.644 152.561C123.727 152.561 123.139 153.737 122.806 154.249H122.678V149.416H121.17V162.507ZM122.653 157.598C122.653 155.399 123.624 153.916 125.465 153.916C127.383 153.916 128.329 155.527 128.329 157.598C128.329 159.695 127.357 161.357 125.465 161.357C123.65 161.357 122.653 159.822 122.653 157.598Z" fill="black"/>
<path d="M133.654 156.601C133.654 154.888 134.747 153.916 136.236 153.916C137.655 153.916 138.512 154.811 138.512 156.371V162.507H140.02V156.268C140.02 153.744 138.678 152.561 136.671 152.561C135.124 152.561 134.242 153.207 133.781 154.223H133.654V149.416H132.145V162.507H133.654V156.601Z" fill="black"/>
<path d="M146.768 162.712C149.428 162.712 151.217 160.692 151.217 157.649C151.217 154.581 149.428 152.561 146.768 152.561C144.109 152.561 142.32 154.581 142.32 157.649C142.32 160.692 144.109 162.712 146.768 162.712ZM146.768 161.357C144.749 161.357 143.828 159.618 143.828 157.649C143.828 155.68 144.749 153.916 146.768 153.916C148.788 153.916 149.709 155.68 149.709 157.649C149.709 159.618 148.788 161.357 146.768 161.357Z" fill="black"/>
<path d="M157.509 162.712C160.168 162.712 161.958 160.692 161.958 157.649C161.958 154.581 160.168 152.561 157.509 152.561C154.85 152.561 153.06 154.581 153.06 157.649C153.06 160.692 154.85 162.712 157.509 162.712ZM157.509 161.357C155.489 161.357 154.568 159.618 154.568 157.649C154.568 155.68 155.489 153.916 157.509 153.916C159.529 153.916 160.449 155.68 160.449 157.649C160.449 159.618 159.529 161.357 157.509 161.357Z" fill="black"/>
<path d="M164.26 162.507H165.769V158.832L166.824 157.854L170.499 162.507H172.417L167.961 156.882L172.11 152.689H170.243L165.948 157.061H165.769V149.416H164.26V162.507Z" fill="black"/>
<path d="M181.006 154.888C180.533 153.494 179.472 152.561 177.529 152.561C175.458 152.561 173.923 153.737 173.923 155.399C173.923 156.754 174.729 157.662 176.531 158.084L178.168 158.467C179.159 158.697 179.625 159.17 179.625 159.848C179.625 160.692 178.73 161.382 177.324 161.382C176.09 161.382 175.317 160.852 175.048 159.797L173.617 160.155C173.968 161.823 175.343 162.712 177.35 162.712C179.632 162.712 181.185 161.465 181.185 159.771C181.185 158.403 180.328 157.54 178.577 157.112L177.119 156.754C175.956 156.467 175.432 156.077 175.432 155.322C175.432 154.479 176.327 153.865 177.529 153.865C178.845 153.865 179.389 154.594 179.651 155.271L181.006 154.888Z" fill="black"/>
<path d="M1.5 199.875L11.625 204.375V214.125L1.5 210V199.875Z" fill="#786AFF"/>
<path d="M22.5 199.875L12.375 204.375V214.125L22.5 209.25V199.875Z" fill="#786AFF" fill-opacity="0.4"/>
<path d="M12 203.625L1.5 198.938L12 194.25L22.5 198.938L12 203.625Z" fill="#E6E6E6"/>
<path d="M34 195.716V208.807H35.483V198.861H35.6108L39.7017 208.807H41.1335L45.2244 198.861H45.3523V208.807H46.8352V195.716H44.9432L40.4943 206.582H40.3409L35.892 195.716H34Z" fill="black"/>
<path d="M52.6983 209.037C54.4114 209.037 55.3063 208.117 55.6131 207.477H55.6898V208.807H57.1983V202.338C57.1983 199.219 54.8205 198.861 53.5676 198.861C52.0847 198.861 50.3972 199.372 49.6301 201.162L51.062 201.673C51.3944 200.957 52.1806 200.19 53.6188 200.19C55.0059 200.19 55.6898 200.925 55.6898 202.185V202.236C55.6898 202.965 54.9483 202.901 53.1586 203.131C51.3368 203.367 49.3489 203.77 49.3489 206.02C49.3489 207.938 50.8319 209.037 52.6983 209.037ZM52.9284 207.682C51.7267 207.682 50.8574 207.145 50.8574 206.097C50.8574 204.946 51.9057 204.588 53.0819 204.435C53.7211 204.358 55.4341 204.179 55.6898 203.872V205.253C55.6898 206.48 54.7182 207.682 52.9284 207.682Z" fill="black"/>
<path d="M61.4602 202.901C61.4602 201.188 62.5213 200.216 63.9659 200.216C65.3658 200.216 66.2159 201.13 66.2159 202.671V208.807H67.7244V202.568C67.7244 200.063 66.3885 198.861 64.4006 198.861C62.9176 198.861 61.9972 199.526 61.5369 200.523H61.4091V198.989H59.9517V208.807H61.4602V202.901Z" fill="black"/>
<path d="M73.3702 209.037C75.0833 209.037 75.9782 208.117 76.285 207.477H76.3617V208.807H77.8702V202.338C77.8702 199.219 75.4924 198.861 74.2395 198.861C72.7566 198.861 71.0691 199.372 70.302 201.162L71.7338 201.673C72.0662 200.957 72.8525 200.19 74.2907 200.19C75.6777 200.19 76.3617 200.925 76.3617 202.185V202.236C76.3617 202.965 75.6202 202.901 73.8304 203.131C72.0087 203.367 70.0208 203.77 70.0208 206.02C70.0208 207.938 71.5037 209.037 73.3702 209.037ZM73.6003 207.682C72.3986 207.682 71.5293 207.145 71.5293 206.097C71.5293 204.946 72.5776 204.588 73.7537 204.435C74.3929 204.358 76.106 204.179 76.3617 203.872V205.253C76.3617 206.48 75.3901 207.682 73.6003 207.682Z" fill="black"/>
<path d="M84.5866 212.693C86.9389 212.693 88.831 211.619 88.831 209.088V198.989H87.3736V200.548H87.2202C86.8878 200.037 86.2741 198.861 84.3565 198.861C81.8764 198.861 80.1634 200.83 80.1634 203.847C80.1634 206.915 81.9531 208.653 84.331 208.653C86.2486 208.653 86.8622 207.528 87.1946 206.992H87.3224V208.986C87.3224 210.622 86.1719 211.364 84.5866 211.364C82.8033 211.364 82.1768 210.424 81.7741 209.881L80.5724 210.724C81.1861 211.754 82.3942 212.693 84.5866 212.693ZM84.5355 207.298C82.6435 207.298 81.6719 205.867 81.6719 203.821C81.6719 201.827 82.6179 200.216 84.5355 200.216C86.3764 200.216 87.348 201.699 87.348 203.821C87.348 205.994 86.3509 207.298 84.5355 207.298Z" fill="black"/>
<path d="M95.7088 209.011C97.7031 209.011 99.1605 208.014 99.6207 206.531L98.1634 206.122C97.7798 207.145 96.8913 207.656 95.7088 207.656C93.9382 207.656 92.7173 206.512 92.647 204.409H99.7741V203.77C99.7741 200.114 97.6009 198.861 95.5554 198.861C92.8963 198.861 91.1321 200.957 91.1321 203.974C91.1321 206.992 92.8707 209.011 95.7088 209.011ZM92.647 203.105C92.7493 201.577 93.8295 200.216 95.5554 200.216C97.1918 200.216 98.2401 201.443 98.2401 203.105H92.647Z" fill="black"/>
<path d="M105.776 209.011C107.668 209.011 108.308 207.835 108.64 207.298H108.819V208.807H110.276V195.716H108.768V200.548H108.64C108.308 200.037 107.719 198.861 105.802 198.861C103.322 198.861 101.609 200.83 101.609 203.923C101.609 207.043 103.322 209.011 105.776 209.011ZM105.981 207.656C104.089 207.656 103.117 205.994 103.117 203.898C103.117 201.827 104.063 200.216 105.981 200.216C107.822 200.216 108.793 201.699 108.793 203.898C108.793 206.122 107.796 207.656 105.981 207.656Z" fill="black"/>
<path d="M122.018 209.011C123.911 209.011 124.55 207.835 124.882 207.298H125.061V208.807H126.518V195.716H125.01V200.548H124.882C124.55 200.037 123.962 198.861 122.044 198.861C119.564 198.861 117.851 200.83 117.851 203.923C117.851 207.043 119.564 209.011 122.018 209.011ZM122.223 207.656C120.331 207.656 119.359 205.994 119.359 203.898C119.359 201.827 120.305 200.216 122.223 200.216C124.064 200.216 125.036 201.699 125.036 203.898C125.036 206.122 124.038 207.656 122.223 207.656Z" fill="black"/>
<path d="M133.607 209.011C135.602 209.011 137.059 208.014 137.519 206.531L136.062 206.122C135.678 207.145 134.79 207.656 133.607 207.656C131.837 207.656 130.616 206.512 130.545 204.409H137.673V203.77C137.673 200.114 135.499 198.861 133.454 198.861C130.795 198.861 129.031 200.957 129.031 203.974C129.031 206.992 130.769 209.011 133.607 209.011ZM130.545 203.105C130.648 201.577 131.728 200.216 133.454 200.216C135.09 200.216 136.138 201.443 136.138 203.105H130.545Z" fill="black"/>
<path d="M141.476 195.716H139.967V208.807H141.476V195.716Z" fill="black"/>
<path d="M144.239 208.807H145.747V198.989H144.239V208.807ZM145.006 197.352C145.594 197.352 146.08 196.892 146.08 196.33C146.08 195.767 145.594 195.307 145.006 195.307C144.418 195.307 143.932 195.767 143.932 196.33C143.932 196.892 144.418 197.352 145.006 197.352Z" fill="black"/>
<path d="M156.539 198.989H154.902L152.192 206.813H152.09L149.38 198.989H147.743L151.374 208.807H152.908L156.539 198.989Z" fill="black"/>
<path d="M162.295 209.011C164.289 209.011 165.746 208.014 166.207 206.531L164.749 206.122C164.366 207.145 163.477 207.656 162.295 207.656C160.524 207.656 159.303 206.512 159.233 204.409H166.36V203.77C166.36 200.114 164.187 198.861 162.141 198.861C159.482 198.861 157.718 200.957 157.718 203.974C157.718 206.992 159.457 209.011 162.295 209.011ZM159.233 203.105C159.335 201.577 160.415 200.216 162.141 200.216C163.778 200.216 164.826 201.443 164.826 203.105H159.233Z" fill="black"/>
<path d="M168.655 208.807H170.163V202.594C170.163 201.264 171.212 200.293 172.643 200.293C173.046 200.293 173.462 200.369 173.564 200.395V198.861C173.391 198.848 172.995 198.835 172.771 198.835C171.595 198.835 170.572 199.5 170.214 200.472H170.112V198.989H168.655V208.807Z" fill="black"/>
<path d="M178.241 209.037C179.954 209.037 180.849 208.117 181.156 207.477H181.233V208.807H182.741V202.338C182.741 199.219 180.363 198.861 179.111 198.861C177.628 198.861 175.94 199.372 175.173 201.162L176.605 201.673C176.937 200.957 177.724 200.19 179.162 200.19C180.549 200.19 181.233 200.925 181.233 202.185V202.236C181.233 202.965 180.491 202.901 178.702 203.131C176.88 203.367 174.892 203.77 174.892 206.02C174.892 207.938 176.375 209.037 178.241 209.037ZM178.471 207.682C177.27 207.682 176.4 207.145 176.4 206.097C176.4 204.946 177.449 204.588 178.625 204.435C179.264 204.358 180.977 204.179 181.233 203.872V205.253C181.233 206.48 180.261 207.682 178.471 207.682Z" fill="black"/>
<path d="M185.699 208.807H187.157V207.298H187.336C187.668 207.835 188.307 209.011 190.199 209.011C192.654 209.011 194.367 207.043 194.367 203.923C194.367 200.83 192.654 198.861 190.174 198.861C188.256 198.861 187.668 200.037 187.336 200.548H187.208V195.716H185.699V208.807ZM187.182 203.898C187.182 201.699 188.154 200.216 189.995 200.216C191.912 200.216 192.858 201.827 192.858 203.898C192.858 205.994 191.887 207.656 189.995 207.656C188.179 207.656 187.182 206.122 187.182 203.898Z" fill="black"/>
<path d="M196.674 208.807H198.183V198.989H196.674V208.807ZM197.441 197.352C198.029 197.352 198.515 196.892 198.515 196.33C198.515 195.767 198.029 195.307 197.441 195.307C196.853 195.307 196.368 195.767 196.368 196.33C196.368 196.892 196.853 197.352 197.441 197.352Z" fill="black"/>
<path d="M202.454 195.716H200.946V208.807H202.454V195.716Z" fill="black"/>
<path d="M205.217 208.807H206.726V198.989H205.217V208.807ZM205.984 197.352C206.572 197.352 207.058 196.892 207.058 196.33C207.058 195.767 206.572 195.307 205.984 195.307C205.396 195.307 204.911 195.767 204.911 196.33C204.911 196.892 205.396 197.352 205.984 197.352Z" fill="black"/>
<path d="M213.759 198.989H211.662V196.636H210.154V198.989H208.671V200.267H210.154V206.403C210.154 208.117 211.534 208.935 212.813 208.935C213.375 208.935 213.733 208.832 213.938 208.756L213.631 207.401C213.503 207.426 213.298 207.477 212.966 207.477C212.301 207.477 211.662 207.273 211.662 205.994V200.267H213.759V198.989Z" fill="black"/>
<path d="M216.999 212.489C218.361 212.489 219.32 211.766 219.889 210.239L224.069 199.014L222.42 198.989L219.71 206.813H219.607L216.897 198.989H215.261L218.892 208.858L218.61 209.625C218.061 211.121 217.383 211.261 216.284 210.98L215.9 212.31C216.053 212.386 216.488 212.489 216.999 212.489Z" fill="black"/>
<path d="M6.00908 246.75C6.00606 246.75 6.00303 246.75 6 246.75C3.51472 246.75 1.5 248.765 1.5 251.25C1.5 253.347 2.93412 255.109 4.875 255.608V260.25C4.875 260.664 5.21079 261 5.625 261H6.375C6.78921 261 7.125 260.664 7.125 260.25V255.608C7.75904 255.445 8.339 255.147 8.83256 254.747C6.90767 253.558 5.625 251.429 5.625 249C5.625 248.211 5.76035 247.454 6.00908 246.75Z" fill="#786AFF" fill-opacity="0.4"/>
<path d="M19.125 249.019C19.1182 251.542 17.7272 253.739 15.6714 254.892C16.1406 255.565 16.8251 256.077 17.625 256.328V260.25C17.625 260.664 17.9608 261 18.375 261H19.125C19.5392 261 19.875 260.664 19.875 260.25V256.328C21.3964 255.851 22.5 254.429 22.5 252.75C22.5 250.806 21.02 249.207 19.125 249.019Z" fill="#786AFF"/>
<path d="M13.5 254.895C16.276 254.368 18.375 251.929 18.375 249C18.375 245.686 15.6887 243 12.375 243C9.06129 243 6.375 245.686 6.375 249C6.375 251.929 8.47403 254.368 11.25 254.895V261C11.25 261.414 11.5858 261.75 12 261.75H12.75C13.1642 261.75 13.5 261.414 13.5 261V254.895Z" fill="#E6E6E6"/>
<path d="M42.5909 243.614V252.153C42.5909 254.071 41.2741 255.452 39.0881 255.452C36.902 255.452 35.5852 254.071 35.5852 252.153V243.614H34V252.281C34 254.966 36.0071 256.935 39.0881 256.935C42.169 256.935 44.1761 254.966 44.1761 252.281V243.614H42.5909Z" fill="black"/>
<path d="M47.1373 260.386H48.6458V255.196H48.7736C49.106 255.733 49.7452 256.909 51.6373 256.909C54.0918 256.909 55.8049 254.94 55.8049 251.821C55.8049 248.727 54.0918 246.758 51.6117 246.758C49.6941 246.758 49.106 247.935 48.7736 248.446H48.5946V246.886H47.1373V260.386ZM48.6202 251.795C48.6202 249.596 49.5918 248.114 51.4327 248.114C53.3503 248.114 54.2963 249.724 54.2963 251.795C54.2963 253.892 53.3248 255.554 51.4327 255.554C49.6174 255.554 48.6202 254.02 48.6202 251.795Z" fill="black"/>
<path d="M59.6145 243.614H58.106V256.704H59.6145V243.614Z" fill="black"/>
<path d="M66.3661 256.909C69.0252 256.909 70.815 254.889 70.815 251.846C70.815 248.778 69.0252 246.758 66.3661 246.758C63.707 246.758 61.9173 248.778 61.9173 251.846C61.9173 254.889 63.707 256.909 66.3661 256.909ZM66.3661 255.554C64.3462 255.554 63.4258 253.815 63.4258 251.846C63.4258 249.878 64.3462 248.114 66.3661 248.114C68.386 248.114 69.3065 249.878 69.3065 251.846C69.3065 253.815 68.386 255.554 66.3661 255.554Z" fill="black"/>
<path d="M76.0069 256.935C77.72 256.935 78.6149 256.014 78.9217 255.375H78.9984V256.704H80.5069V250.236C80.5069 247.116 78.1291 246.758 76.8762 246.758C75.3933 246.758 73.7058 247.27 72.9387 249.06L74.3706 249.571C74.7029 248.855 75.4892 248.088 76.9274 248.088C78.3145 248.088 78.9984 248.823 78.9984 250.082V250.133C78.9984 250.862 78.2569 250.798 76.4672 251.028C74.6454 251.265 72.6575 251.668 72.6575 253.918C72.6575 255.835 74.1404 256.935 76.0069 256.935ZM76.237 255.579C75.0353 255.579 74.166 255.043 74.166 253.994C74.166 252.844 75.2143 252.486 76.3904 252.332C77.0297 252.256 78.7427 252.077 78.9984 251.77V253.15C78.9984 254.378 78.0268 255.579 76.237 255.579Z" fill="black"/>
<path d="M86.9677 256.909C88.8597 256.909 89.4989 255.733 89.8313 255.196H90.0103V256.704H91.4677V243.614H89.9592V248.446H89.8313C89.4989 247.935 88.9109 246.758 86.9933 246.758C84.5131 246.758 82.8001 248.727 82.8001 251.821C82.8001 254.94 84.5131 256.909 86.9677 256.909ZM87.1722 255.554C85.2802 255.554 84.3086 253.892 84.3086 251.795C84.3086 249.724 85.2546 248.114 87.1722 248.114C89.0131 248.114 89.9847 249.596 89.9847 251.795C89.9847 254.02 88.9876 255.554 87.1722 255.554Z" fill="black"/>
<path d="M99.707 256.704H101.292V250.849H108.272V256.704H109.858V243.614H108.272V249.443H101.292V243.614H99.707V256.704Z" fill="black"/>
<path d="M112.315 245.02H116.432V256.704H118.017V245.02H122.134V243.614H112.315V245.02Z" fill="black"/>
<path d="M124.58 243.614V256.704H126.063V246.758H126.191L130.282 256.704H131.714L135.805 246.758H135.932V256.704H137.415V243.614H135.523L131.074 254.48H130.921L126.472 243.614H124.58Z" fill="black"/>
<path d="M140.594 256.704H148.264V255.298H142.179V243.614H140.594V256.704Z" fill="black"/>
</svg>
