<svg width="177" height="32" viewBox="0 0 177 32" fill="none" xmlns="http://www.w3.org/2000/svg">
<g clip-path="url(#clip0)">
<path d="M6.36649 14.9948C9.88482 16.0838 12.1466 19.0157 16 19.0157C19.9372 19.0157 22.7853 15.2461 24.7958 14.9948C26.6387 14.7435 29.5707 15.4136 32 16.5864V7.12042C32 3.18325 28.8168 0 24.8796 0H7.12042C3.18325 0 0 3.18325 0 7.12042V16.0838C1.75916 15.2461 4.27225 14.3246 6.36649 14.9948Z" fill="#20C58B"/>
<path d="M24.8795 14.9948C22.7853 15.2461 19.9371 19.0157 16.0837 19.0157C12.3979 19.0157 9.96856 16.0838 6.45023 14.9948C4.35599 14.3246 1.8429 15.2461 0.0837402 16.0838V24.8796C0.0837402 28.8168 3.26699 32 7.20416 32H24.9633C28.9005 32 32.0837 28.8168 32.0837 24.8796V16.5864C29.6544 15.4137 26.7225 14.7435 24.8795 14.9948Z" fill="#5858E0"/>
<path d="M7.03668 25.2985C5.78014 25.2985 4.7749 24.2933 4.7749 23.0367V8.96344C4.7749 7.7069 5.78014 6.70166 7.03668 6.70166C8.20946 6.70166 9.21469 7.7069 9.21469 8.96344V23.0367C9.21469 24.2933 8.20946 25.2985 7.03668 25.2985Z" fill="white"/>
<path d="M16.0001 22.1151C14.7435 22.1151 13.7383 21.1099 13.7383 19.8534V12.1465C13.7383 10.89 14.7435 9.88477 16.0001 9.88477C17.2566 9.88477 18.2618 10.89 18.2618 12.1465V19.9371C18.2618 21.1099 17.2566 22.1151 16.0001 22.1151Z" fill="white"/>
<path d="M25.0472 25.2985C23.7906 25.2985 22.7854 24.2933 22.7854 23.0367V8.96344C22.7854 7.7069 23.7906 6.70166 25.0472 6.70166C26.3037 6.70166 27.309 7.7069 27.309 8.96344V23.0367C27.2252 24.2933 26.22 25.2985 25.0472 25.2985Z" fill="white"/>
<path d="M61.403 9.88487C62.492 10.9739 62.9946 12.6493 62.9946 14.7435V23.4555H60.4815V14.9948C60.4815 13.487 60.1465 12.398 59.3925 11.5603C58.6386 10.7226 57.7172 10.3875 56.3768 10.3875C55.0365 10.3875 54.0313 10.8063 53.1936 11.7278C52.3559 12.6493 52.0208 13.9058 52.0208 15.4974V23.4555H49.5077V14.9948C49.5077 13.487 49.0889 12.398 48.4187 11.5603C47.6648 10.7226 46.7433 10.3875 45.4868 10.3875C44.1465 10.3875 43.0575 10.8063 42.3035 11.7278C41.4658 12.5655 41.1308 13.9058 41.1308 15.4974V23.4555H38.6177V8.46078H41.1308V11.8953C41.5496 10.7226 42.136 9.8011 43.0575 9.13094C43.9789 8.54455 45.0679 8.20947 46.3245 8.20947C47.581 8.20947 48.7538 8.54455 49.6753 9.21471C50.5967 9.88487 51.2669 10.8063 51.6857 12.0629C52.1046 10.8901 52.7747 9.88487 53.78 9.21471C54.7852 8.54455 55.8742 8.20947 57.1308 8.20947C58.8899 8.20947 60.314 8.79586 61.403 9.88487Z" fill="white"/>
<path d="M76.733 9.38197C77.7382 10.1359 78.4921 11.0574 78.8272 12.3139V8.54428H81.3403V23.4553H78.8272V19.6856C78.4084 20.8584 77.7382 21.8636 76.733 22.6176C75.7277 23.3715 74.4712 23.7066 73.0471 23.7066C71.7068 23.7066 70.534 23.3715 69.445 22.7851C68.4398 22.1987 67.6021 21.2773 67.0157 20.1045C66.4293 18.9317 66.0942 17.5914 66.0942 15.9998C66.0942 14.4082 66.4293 13.0678 67.0157 11.8951C67.6021 10.7223 68.4398 9.88459 69.445 9.21444C70.4503 8.54428 71.623 8.29297 73.0471 8.29297C74.4712 8.29297 75.7277 8.62805 76.733 9.38197ZM70.0314 11.9788C69.1099 12.9841 68.6073 14.3244 68.6073 15.9998C68.6073 17.6752 69.0262 19.0155 70.0314 20.0207C70.9529 21.026 72.2094 21.4448 73.7173 21.4448C74.7225 21.4448 75.5602 21.1935 76.3141 20.7746C77.0681 20.3558 77.7382 19.6856 78.1571 18.8479C78.5759 18.0102 78.8272 17.005 78.8272 15.9998C78.8272 14.9108 78.6597 13.9893 78.1571 13.0678C77.7382 12.2301 77.1518 11.56 76.3141 11.1411C75.5602 10.7223 74.6387 10.471 73.7173 10.471C72.2094 10.471 70.9529 10.9736 70.0314 11.9788Z" fill="white"/>
<path d="M85.3613 3.01553C85.6964 2.76422 86.1153 2.59668 86.6179 2.59668C87.1205 2.59668 87.5394 2.76422 87.8744 3.01553C88.2095 3.26684 88.2933 3.68569 88.2933 4.10453C88.2933 4.52338 88.1257 4.94223 87.8744 5.19354C87.5394 5.44485 87.1205 5.61239 86.6179 5.61239C86.1153 5.61239 85.6964 5.44485 85.3613 5.19354C85.0263 4.94223 84.9425 4.52338 84.9425 4.10453C84.8587 3.60192 85.0263 3.26684 85.3613 3.01553ZM87.7907 8.46055V23.4553H85.2776V8.46055H87.7907Z" fill="white"/>
<path d="M94.2409 3.26709V23.4556H91.7278V3.26709H94.2409Z" fill="white"/>
<path d="M120.963 9.88487C122.052 10.9739 122.555 12.6493 122.555 14.7435V23.4555H120.042V14.9948C120.042 13.487 119.707 12.398 118.953 11.5603C118.199 10.7226 117.277 10.3875 115.937 10.3875C114.597 10.3875 113.592 10.8063 112.754 11.7278C111.916 12.5655 111.581 13.9058 111.581 15.4974V23.4555H109.068V14.9948C109.068 13.487 108.649 12.398 107.979 11.5603C107.225 10.7226 106.304 10.3875 105.047 10.3875C103.707 10.3875 102.618 10.8063 101.864 11.7278C101.026 12.5655 100.691 13.9058 100.691 15.4974V23.4555H98.178V8.46078H100.691V11.8953C101.11 10.7226 101.696 9.8011 102.618 9.13094C103.539 8.54455 104.628 8.20947 105.885 8.20947C107.141 8.20947 108.314 8.54455 109.236 9.21471C110.157 9.88487 110.827 10.8063 111.246 12.0629C111.665 10.8901 112.335 9.88487 113.34 9.21471C114.346 8.54455 115.435 8.20947 116.691 8.20947C118.45 8.20947 119.874 8.79586 120.963 9.88487Z" fill="white"/>
<path d="M137.047 9.21444C138.22 9.80082 139.058 10.7223 139.728 11.8951C140.398 13.0678 140.733 14.4082 140.733 15.9998C140.733 17.5914 140.398 18.9317 139.728 20.1045C139.058 21.2773 138.22 22.115 137.047 22.7851C135.874 23.3715 134.618 23.7066 133.194 23.7066C131.77 23.7066 130.429 23.3715 129.34 22.7851C128.168 22.1987 127.33 21.2773 126.66 20.1045C125.99 18.9317 125.655 17.5914 125.655 15.9998C125.655 14.4082 125.99 13.0678 126.66 11.8951C127.33 10.7223 128.251 9.88459 129.34 9.21444C130.513 8.62805 131.77 8.29297 133.194 8.29297C134.618 8.29297 135.958 8.62805 137.047 9.21444ZM130.764 11.0574C130.011 11.4762 129.424 12.0626 128.922 12.9003C128.503 13.738 128.251 14.7432 128.251 15.9998C128.251 17.1726 128.503 18.1778 128.922 19.0155C129.34 19.8532 130.011 20.4396 130.764 20.8584C131.518 21.2773 132.356 21.4448 133.194 21.4448C134.115 21.4448 134.953 21.2773 135.623 20.8584C136.377 20.4396 136.963 19.8532 137.466 19.0155C137.969 18.1778 138.136 17.1726 138.136 15.9998C138.136 14.827 137.885 13.738 137.466 12.9003C137.047 12.0626 136.377 11.4762 135.623 11.0574C134.869 10.6385 134.032 10.471 133.194 10.471C132.356 10.471 131.518 10.6385 130.764 11.0574Z" fill="white"/>
<path d="M153.885 9.38227C154.89 10.1362 155.644 11.0577 155.979 12.3142V3.26709H158.492V23.4556H155.979V19.6859C155.56 20.8587 154.89 21.8639 153.885 22.6179C152.88 23.3718 151.623 23.7069 150.199 23.7069C148.859 23.7069 147.686 23.3718 146.597 22.7854C145.592 22.199 144.754 21.2776 144.168 20.1048C143.581 18.932 143.246 17.5917 143.246 16.0001C143.246 14.4085 143.581 13.0681 144.168 11.8954C144.754 10.7226 145.592 9.88489 146.597 9.21473C147.602 8.62835 148.775 8.29327 150.199 8.29327C151.623 8.29327 152.88 8.62835 153.885 9.38227ZM147.183 11.9791C146.262 12.9844 145.759 14.3247 145.759 16.0001C145.759 17.6755 146.178 19.0158 147.183 20.021C148.105 21.0263 149.361 21.4451 150.869 21.4451C151.874 21.4451 152.712 21.1938 153.466 20.7749C154.22 20.3561 154.89 19.6859 155.309 18.8482C155.728 18.0105 155.979 17.0053 155.979 16.0001C155.979 14.9111 155.812 13.9896 155.309 13.0681C154.89 12.2304 154.304 11.5603 153.466 11.1414C152.712 10.7226 151.791 10.4713 150.869 10.4713C149.278 10.4713 148.105 10.9739 147.183 11.9791Z" fill="white"/>
<path d="M173.152 9.21444C174.324 9.80082 175.162 10.7223 175.832 11.8951C176.502 13.0678 176.838 14.4082 176.838 15.9998C176.838 17.5914 176.502 18.9317 175.832 20.1045C175.162 21.2773 174.324 22.115 173.152 22.7851C171.979 23.3715 170.722 23.7066 169.298 23.7066C167.874 23.7066 166.534 23.3715 165.445 22.7851C164.272 22.1987 163.434 21.2773 162.764 20.1045C162.094 18.9317 161.759 17.5914 161.759 15.9998C161.759 14.4082 162.094 13.0678 162.764 11.8951C163.434 10.7223 164.356 9.88459 165.445 9.21444C166.618 8.62805 167.874 8.29297 169.298 8.29297C170.722 8.29297 171.979 8.62805 173.152 9.21444ZM166.785 11.0574C166.031 11.4762 165.445 12.0626 164.942 12.9003C164.523 13.738 164.272 14.7432 164.272 15.9998C164.272 17.1726 164.523 18.1778 164.942 19.0155C165.361 19.8532 166.031 20.4396 166.785 20.8584C167.539 21.2773 168.377 21.4448 169.215 21.4448C170.136 21.4448 170.974 21.2773 171.644 20.8584C172.398 20.4396 172.984 19.8532 173.487 19.0155C173.906 18.1778 174.157 17.1726 174.157 15.9998C174.157 14.827 173.906 13.738 173.487 12.9003C173.068 12.0626 172.398 11.4762 171.644 11.0574C170.89 10.6385 170.052 10.471 169.215 10.471C168.293 10.471 167.539 10.6385 166.785 11.0574Z" fill="white"/>
</g>
<defs>
<clipPath id="clip0">
<rect width="176.754" height="32" fill="white"/>
</clipPath>
</defs>
</svg>
