<svg width="96" height="96" viewBox="0 0 96 96" fill="none" xmlns="http://www.w3.org/2000/svg">
<path d="M12.0781 74.5877L48.3614 93.0509L83.2668 74.5877V2.38867H12.0781V74.5877Z" fill="white"/>
<path d="M83.9943 2.66357L11.3359 75.8731L48.997 94.5199L83.9943 76.6079V2.66357Z" fill="#F2F3F2"/>
<path d="M9.6875 26.4546V76.1489L10.9735 76.7919L47.2567 95.255L48.359 95.8061L49.4613 95.255L84.4585 76.7919L85.7445 76.1489V0H9.6875V26.4546ZM12.0758 74.771V2.38826H83.3563V74.771L48.359 93.2342L12.0758 74.771Z" fill="#DCDEDC"/>
<path d="M47.7088 3.5824C48.0763 3.5824 48.4437 3.5824 48.8111 3.67425L47.7088 5.78695C46.0554 5.69509 44.5857 6.98108 44.4939 8.6345C44.402 10.2879 45.688 11.7576 47.3414 11.8495H47.7088C48.4437 11.8495 49.1785 11.5739 49.7297 11.1146L50.9238 13.1355C50.0052 13.7784 48.903 14.1459 47.7088 14.1459C44.7694 14.2377 42.2893 12.0332 42.1975 9.09378C42.1056 6.15437 44.3102 3.67425 47.2496 3.5824H47.7088V3.5824ZM51.4749 8.08336L52.8528 10.3798L51.4749 12.5843L50.189 10.3798H47.5251L48.903 8.08336H51.4749ZM49.2704 7.25665C49.2704 6.88922 49.3622 6.5218 49.546 6.24623C49.7297 5.97066 50.0971 5.69509 50.3727 5.51138L50.5564 5.41952C50.9238 5.23581 51.0157 5.14395 51.0157 4.96024C51.0157 4.77653 50.7401 4.59282 50.5564 4.59282C50.189 4.59282 49.9134 4.77653 49.7297 5.14395L49.2704 4.68467C49.3622 4.50096 49.546 4.31725 49.7297 4.13353C50.0052 3.94982 50.2808 3.94982 50.5564 3.94982C50.8319 3.94982 51.1994 4.04168 51.3831 4.22539C51.5668 4.4091 51.7505 4.68467 51.7505 4.96024C51.7505 5.41952 51.4749 5.78695 50.9238 5.97066L50.6482 6.15437C50.3727 6.33809 50.189 6.42994 50.0971 6.70551H51.7505V7.34851L49.2704 7.25665V7.25665ZM47.7088 18.7387L56.4352 13.7784V0H38.8906V13.6866L47.7088 18.7387Z" fill="#FF492C"/>
<path d="M87.487 51.2559H7.9394L5 57.6858L7.9394 64.1157H87.487L90.3345 57.6858L87.487 51.2559Z" fill="#FF492C"/>
<path d="M20.5196 37.4683C21.1259 37.4683 21.6586 37.5907 22.1179 37.8357C22.5772 38.0806 22.9324 38.4328 23.1834 38.892C23.4345 39.3452 23.5601 39.8657 23.5601 40.4536C23.5601 41.0353 23.4315 41.5467 23.1743 41.9876C22.9109 42.4224 22.5435 42.7622 22.072 43.0072C21.6005 43.2521 21.0554 43.3746 20.4369 43.3746H18.4804C18.4375 43.3746 18.4161 43.3991 18.4161 43.4481V46.957C18.4161 47.006 18.3977 47.0458 18.361 47.0764C18.3304 47.1071 18.2906 47.1224 18.2416 47.1224H16.6341C16.5851 47.1224 16.5453 47.1071 16.5147 47.0764C16.4841 47.0458 16.4688 47.006 16.4688 46.957V37.6336C16.4688 37.5846 16.4841 37.5448 16.5147 37.5142C16.5453 37.4836 16.5851 37.4683 16.6341 37.4683H20.5196ZM20.2257 41.8223C20.6543 41.8223 20.9942 41.6998 21.2453 41.4548C21.5025 41.2099 21.6311 40.8914 21.6311 40.4995C21.6311 40.0892 21.5025 39.7616 21.2453 39.5167C20.9942 39.2656 20.6543 39.14 20.2257 39.14H18.4804C18.4375 39.14 18.4161 39.1645 18.4161 39.2135V41.7488C18.4161 41.7978 18.4375 41.8223 18.4804 41.8223H20.2257ZM30.5136 42.851C30.5626 43.2001 30.5779 43.589 30.5595 44.0176C30.5534 44.134 30.4952 44.1921 30.385 44.1921H26.132C26.0769 44.1921 26.0555 44.2136 26.0677 44.2564C26.0984 44.4402 26.1504 44.6239 26.2239 44.8076C26.4627 45.322 26.9496 45.5792 27.6844 45.5792C28.2723 45.5731 28.7346 45.3342 29.0714 44.8627C29.1143 44.8076 29.1572 44.78 29.2 44.78C29.2245 44.78 29.2552 44.7984 29.2919 44.8351L30.2839 45.8088C30.3329 45.8578 30.3574 45.9007 30.3574 45.9374C30.3574 45.9558 30.3391 45.9925 30.3023 46.0476C29.9961 46.4273 29.6073 46.7182 29.1357 46.9203C28.652 47.1285 28.1253 47.2326 27.5558 47.2326C26.772 47.2326 26.1045 47.055 25.5533 46.6998C25.0083 46.3385 24.6164 45.8364 24.3776 45.1934C24.1816 44.7341 24.0836 44.134 24.0836 43.393C24.0836 42.8847 24.1541 42.4377 24.2949 42.0519C24.5092 41.4028 24.8797 40.8853 25.4064 40.4995C25.933 40.1137 26.5576 39.9208 27.2802 39.9208C28.1988 39.9208 28.9367 40.1872 29.494 40.72C30.0512 41.2527 30.3911 41.9631 30.5136 42.851ZM27.2986 41.6018C26.7169 41.6018 26.3341 41.8712 26.1504 42.4101C26.1137 42.5326 26.083 42.6796 26.0585 42.851C26.0585 42.8939 26.083 42.9153 26.132 42.9153H28.5111C28.5662 42.9153 28.5846 42.8939 28.5662 42.851C28.5172 42.5877 28.4927 42.4591 28.4927 42.4652C28.4131 42.1897 28.2692 41.9753 28.061 41.8223C27.8589 41.6753 27.6048 41.6018 27.2986 41.6018ZM35.2901 39.9484C35.6208 39.9484 35.8841 40.0127 36.0801 40.1413C36.1474 40.178 36.1719 40.2454 36.1536 40.3434L35.8688 41.9141C35.8627 42.0243 35.7984 42.058 35.6759 42.0151C35.5351 41.9662 35.3758 41.9417 35.1983 41.9417C35.1248 41.9417 35.0207 41.9509 34.8859 41.9692C34.5614 41.9998 34.2828 42.1223 34.05 42.3366C33.8235 42.551 33.7102 42.8388 33.7102 43.2001V46.957C33.7102 47.006 33.6918 47.0458 33.6551 47.0764C33.6244 47.1071 33.5877 47.1224 33.5448 47.1224H31.9282C31.8853 47.1224 31.8455 47.1071 31.8088 47.0764C31.7781 47.0458 31.7628 47.006 31.7628 46.957V40.2056C31.7628 40.1627 31.7781 40.1229 31.8088 40.0862C31.8455 40.0555 31.8853 40.0402 31.9282 40.0402H33.5448C33.5877 40.0402 33.6244 40.0555 33.6551 40.0862C33.6918 40.1229 33.7102 40.1627 33.7102 40.2056V40.7292C33.7102 40.7537 33.7194 40.772 33.7377 40.7843C33.75 40.7965 33.7622 40.7904 33.7745 40.7659C34.1542 40.2209 34.6594 39.9484 35.2901 39.9484ZM41.1597 40.0311C41.2087 40.0311 41.2485 40.0464 41.2791 40.077C41.3098 40.1076 41.3251 40.1474 41.3251 40.1964V41.5008C41.3251 41.5497 41.3098 41.5895 41.2791 41.6202C41.2485 41.6508 41.2087 41.6661 41.1597 41.6661H39.8278C39.7788 41.6661 39.7543 41.6875 39.7543 41.7304V46.957C39.7543 47.006 39.739 47.0458 39.7084 47.0764C39.6778 47.1071 39.638 47.1224 39.589 47.1224H37.9815C37.9325 47.1224 37.8927 47.1071 37.8621 47.0764C37.8315 47.0458 37.8162 47.006 37.8162 46.957V41.7304C37.8162 41.6875 37.7917 41.6661 37.7427 41.6661H36.9343C36.8853 41.6661 36.8455 41.6508 36.8149 41.6202C36.7843 41.5895 36.769 41.5497 36.769 41.5008V40.1964C36.769 40.1474 36.7843 40.1076 36.8149 40.077C36.8455 40.0464 36.8853 40.0311 36.9343 40.0311H37.7427C37.7917 40.0311 37.8162 40.0066 37.8162 39.9576V39.6544C37.8162 39.0849 37.9019 38.641 38.0734 38.3225C38.2509 38.0102 38.5326 37.7867 38.9184 37.652C39.3104 37.5173 39.8523 37.4591 40.5443 37.4774H41.0679C41.1107 37.4774 41.1475 37.4928 41.1781 37.5234C41.2148 37.5601 41.2332 37.5999 41.2332 37.6428V38.7543C41.2332 38.8032 41.2148 38.843 41.1781 38.8737C41.1475 38.9104 41.1107 38.9288 41.0679 38.9288H40.6086C40.2902 38.9349 40.0666 38.9992 39.938 39.1217C39.8156 39.2503 39.7543 39.4799 39.7543 39.8106V39.9576C39.7543 40.0066 39.7788 40.0311 39.8278 40.0311H41.1597ZM45.1555 47.2326C44.3839 47.2326 43.7225 47.0305 43.1714 46.6263C42.6202 46.2222 42.2436 45.671 42.0416 44.9729C41.913 44.5443 41.8487 44.0758 41.8487 43.5675C41.8487 43.0286 41.913 42.5418 42.0416 42.107C42.2559 41.4273 42.6386 40.8945 43.1898 40.5087C43.7409 40.1229 44.4023 39.93 45.1739 39.93C45.9209 39.93 46.5639 40.1198 47.1028 40.4995C47.6295 40.8853 48.003 41.4181 48.2235 42.0978C48.3766 42.5571 48.4531 43.0378 48.4531 43.54C48.4531 44.036 48.3888 44.5014 48.2602 44.9362C48.0581 45.6527 47.6815 46.213 47.1304 46.6172C46.5854 47.0274 45.9271 47.2326 45.1555 47.2326ZM45.1555 45.57C45.4555 45.57 45.7127 45.4781 45.9271 45.2944C46.1414 45.1107 46.2945 44.8566 46.3864 44.532C46.4537 44.2381 46.4874 43.9166 46.4874 43.5675C46.4874 43.1817 46.4537 42.8572 46.3864 42.5938C46.2823 42.2815 46.1261 42.0366 45.9179 41.859C45.7036 41.6875 45.4433 41.6018 45.1371 41.6018C44.8309 41.6018 44.5737 41.6875 44.3655 41.859C44.1573 42.0366 44.0073 42.2815 43.9154 42.5938C43.8419 42.8082 43.8052 43.1327 43.8052 43.5675C43.8052 43.9839 43.8389 44.3054 43.9062 44.532C43.9981 44.8566 44.1512 45.1107 44.3655 45.2944C44.5798 45.4781 44.8432 45.57 45.1555 45.57ZM53.2297 39.9484C53.5603 39.9484 53.8237 40.0127 54.0196 40.1413C54.0931 40.178 54.1176 40.2454 54.0931 40.3434L53.8083 41.9141C53.8022 42.0243 53.7379 42.058 53.6154 42.0151C53.4746 41.9662 53.3154 41.9417 53.1378 41.9417C53.0643 41.9417 52.9633 41.9509 52.8347 41.9692C52.504 41.9998 52.2223 42.1223 51.9896 42.3366C51.763 42.551 51.6497 42.8388 51.6497 43.2001V46.957C51.6497 47.006 51.6314 47.0458 51.5946 47.0764C51.564 47.1071 51.5242 47.1224 51.4752 47.1224H49.8677C49.8248 47.1224 49.785 47.1071 49.7483 47.0764C49.7177 47.0458 49.7024 47.006 49.7024 46.957V40.2056C49.7024 40.1627 49.7177 40.1229 49.7483 40.0862C49.785 40.0555 49.8248 40.0402 49.8677 40.0402H51.4752C51.5242 40.0402 51.564 40.0555 51.5946 40.0862C51.6314 40.1229 51.6497 40.1627 51.6497 40.2056V40.7292C51.6497 40.7537 51.6558 40.772 51.6681 40.7843C51.6926 40.7965 51.7079 40.7904 51.714 40.7659C52.0937 40.2209 52.5989 39.9484 53.2297 39.9484ZM62.8286 39.93C63.5451 39.93 64.1054 40.1443 64.5096 40.573C64.9138 41.0078 65.1159 41.6171 65.1159 42.4009V46.957C65.1159 47.006 65.1006 47.0458 65.0699 47.0764C65.0393 47.1071 65.0026 47.1224 64.9597 47.1224H63.343C63.3002 47.1224 63.2604 47.1071 63.2236 47.0764C63.193 47.0458 63.1777 47.006 63.1777 46.957V42.8235C63.1777 42.4499 63.0828 42.1529 62.8929 41.9325C62.697 41.712 62.4367 41.6018 62.1122 41.6018C61.7937 41.6018 61.5335 41.712 61.3314 41.9325C61.1293 42.1529 61.0283 42.4469 61.0283 42.8143V46.957C61.0283 47.006 61.0129 47.0458 60.9823 47.0764C60.9456 47.1071 60.9058 47.1224 60.8629 47.1224H59.2646C59.2156 47.1224 59.1758 47.1071 59.1452 47.0764C59.1146 47.0458 59.0993 47.006 59.0993 46.957V42.8235C59.0993 42.4561 58.9982 42.1591 58.7961 41.9325C58.5941 41.712 58.3307 41.6018 58.0062 41.6018C57.7184 41.6018 57.4734 41.6875 57.2713 41.859C57.0754 42.0366 56.959 42.2815 56.9223 42.5938V46.957C56.9223 47.006 56.907 47.0458 56.8763 47.0764C56.8396 47.1071 56.7998 47.1224 56.7569 47.1224H55.1494C55.1005 47.1224 55.0607 47.1071 55.03 47.0764C54.9994 47.0458 54.9841 47.006 54.9841 46.957V40.2056C54.9841 40.1627 54.9994 40.1229 55.03 40.0862C55.0607 40.0555 55.1005 40.0402 55.1494 40.0402H56.7569C56.7998 40.0402 56.8396 40.0555 56.8763 40.0862C56.907 40.1229 56.9223 40.1627 56.9223 40.2056V40.7475C56.9223 40.772 56.9315 40.7904 56.9498 40.8026C56.9682 40.8088 56.9866 40.7965 57.0049 40.7659C57.3846 40.2086 57.9694 39.93 58.7594 39.93C59.2187 39.93 59.6198 40.028 59.9627 40.224C60.3056 40.4138 60.569 40.6894 60.7527 41.0507C60.7772 41.1058 60.8109 41.1058 60.8537 41.0507C61.0497 40.671 61.3222 40.3893 61.6712 40.2056C62.0142 40.0219 62.4 39.93 62.8286 39.93ZM72.7124 42.851C72.7675 43.2001 72.7859 43.589 72.7675 44.0176C72.7552 44.134 72.694 44.1921 72.5838 44.1921H68.3308C68.2757 44.1921 68.2573 44.2136 68.2757 44.2564C68.3002 44.4402 68.3492 44.6239 68.4227 44.8076C68.6615 45.322 69.1484 45.5792 69.8832 45.5792C70.4711 45.5731 70.9365 45.3342 71.2794 44.8627C71.3162 44.8076 71.356 44.78 71.3988 44.78C71.4295 44.78 71.4631 44.7984 71.4999 44.8351L72.4919 45.8088C72.5348 45.8578 72.5562 45.9007 72.5562 45.9374C72.5562 45.9558 72.5379 45.9925 72.5011 46.0476C72.201 46.4273 71.8122 46.7182 71.3345 46.9203C70.8569 47.1285 70.3333 47.2326 69.7638 47.2326C68.9738 47.2326 68.3063 47.055 67.7613 46.6998C67.2102 46.3385 66.8152 45.8364 66.5764 45.1934C66.3865 44.7341 66.2916 44.134 66.2916 43.393C66.2916 42.8847 66.359 42.4377 66.4937 42.0519C66.708 41.4028 67.0785 40.8853 67.6052 40.4995C68.1318 40.1137 68.7595 39.9208 69.4882 39.9208C70.4068 39.9208 71.1447 40.1872 71.702 40.72C72.2592 41.2527 72.596 41.9631 72.7124 42.851ZM69.4974 41.6018C68.9218 41.6018 68.5421 41.8712 68.3584 42.4101C68.3216 42.5326 68.288 42.6796 68.2573 42.851C68.2573 42.8939 68.2818 42.9153 68.3308 42.9153H70.7099C70.765 42.9153 70.7834 42.8939 70.765 42.851C70.7222 42.5877 70.7007 42.4591 70.7007 42.4652C70.615 42.1897 70.4711 41.9753 70.269 41.8223C70.0608 41.6753 69.8036 41.6018 69.4974 41.6018ZM77.4889 39.9484C77.8196 39.9484 78.0829 40.0127 78.2789 40.1413C78.3524 40.178 78.3799 40.2454 78.3615 40.3434L78.0768 41.9141C78.0645 42.0243 77.9972 42.058 77.8747 42.0151C77.74 41.9662 77.5808 41.9417 77.3971 41.9417C77.3236 41.9417 77.2225 41.9509 77.0939 41.9692C76.7632 41.9998 76.4816 42.1223 76.2488 42.3366C76.0223 42.551 75.909 42.8388 75.909 43.2001V46.957C75.909 47.006 75.8937 47.0458 75.8631 47.0764C75.8263 47.1071 75.7865 47.1224 75.7436 47.1224H74.127C74.0841 47.1224 74.0474 47.1071 74.0167 47.0764C73.98 47.0458 73.9616 47.006 73.9616 46.957V40.2056C73.9616 40.1627 73.98 40.1229 74.0167 40.0862C74.0474 40.0555 74.0841 40.0402 74.127 40.0402H75.7436C75.7865 40.0402 75.8263 40.0555 75.8631 40.0862C75.8937 40.1229 75.909 40.1627 75.909 40.2056V40.7292C75.909 40.7537 75.9182 40.772 75.9365 40.7843C75.9549 40.7965 75.9702 40.7904 75.9825 40.7659C76.356 40.2209 76.8582 39.9484 77.4889 39.9484Z" fill="#252530"/>
<path d="M39.5957 23.8643C39.5957 23.8215 39.611 23.7817 39.6416 23.7449C39.6723 23.7143 39.709 23.699 39.7519 23.699H41.3685C41.4114 23.699 41.4512 23.7143 41.4879 23.7449C41.5186 23.7817 41.5339 23.8215 41.5339 23.8643V33.1786C41.5339 33.2276 41.5186 33.2674 41.4879 33.298C41.4512 33.3286 41.4114 33.3439 41.3685 33.3439H39.7519C39.709 33.3439 39.6723 33.3286 39.6416 33.298C39.611 33.2674 39.5957 33.2276 39.5957 33.1786V29.3757C39.5957 29.3329 39.5712 29.3114 39.5222 29.3114H36.4726C36.4297 29.3114 36.4083 29.3329 36.4083 29.3757V33.1786C36.4083 33.2276 36.393 33.2674 36.3624 33.298C36.3256 33.3286 36.2858 33.3439 36.243 33.3439H34.6263C34.5834 33.3439 34.5467 33.3286 34.5161 33.298C34.4793 33.2674 34.4609 33.2276 34.4609 33.1786V23.8643C34.4609 23.8215 34.4793 23.7817 34.5161 23.7449C34.5467 23.7143 34.5834 23.699 34.6263 23.699H36.243C36.2858 23.699 36.3256 23.7143 36.3624 23.7449C36.393 23.7817 36.4083 23.8215 36.4083 23.8643V27.5661C36.4083 27.6151 36.4297 27.6396 36.4726 27.6396H39.5222C39.5712 27.6396 39.5957 27.6151 39.5957 27.5661V23.8643ZM44.0416 25.4626C43.7292 25.4626 43.469 25.3585 43.2608 25.1503C43.0526 24.9482 42.9485 24.691 42.9485 24.3787C42.9485 24.0542 43.0495 23.7909 43.2516 23.5888C43.4537 23.3867 43.717 23.2856 44.0416 23.2856C44.3661 23.2856 44.6294 23.3867 44.8315 23.5888C45.0336 23.7909 45.1346 24.0542 45.1346 24.3787C45.1346 24.691 45.0305 24.9482 44.8223 25.1503C44.6141 25.3585 44.3539 25.4626 44.0416 25.4626ZM43.2148 33.3439C43.172 33.3439 43.1322 33.3286 43.0954 33.298C43.0648 33.2674 43.0495 33.2276 43.0495 33.1786V26.4179C43.0495 26.369 43.0648 26.3292 43.0954 26.2985C43.1322 26.2679 43.172 26.2526 43.2148 26.2526H44.8315C44.8744 26.2526 44.9111 26.2679 44.9417 26.2985C44.9785 26.3292 44.9969 26.369 44.9969 26.4179V33.1786C44.9969 33.2276 44.9785 33.2674 44.9417 33.298C44.9111 33.3286 44.8744 33.3439 44.8315 33.3439H43.2148ZM50.8297 26.4271C50.8297 26.3843 50.8481 26.3445 50.8848 26.3077C50.9155 26.2771 50.9522 26.2618 50.9951 26.2618H52.6117C52.6546 26.2618 52.6944 26.2771 52.7312 26.3077C52.7618 26.3445 52.7771 26.3843 52.7771 26.4271V32.7101C52.7771 33.9104 52.4311 34.7677 51.7391 35.2821C51.0471 35.8026 50.1531 36.0629 49.0569 36.0629C48.7323 36.0629 48.3741 36.0384 47.9822 35.9894C47.8903 35.9771 47.8444 35.9189 47.8444 35.8148L47.8995 34.3911C47.8995 34.2686 47.9638 34.2165 48.0924 34.2349C48.4231 34.29 48.7262 34.3176 49.0018 34.3176C49.5897 34.3176 50.0428 34.1921 50.3613 33.941C50.6736 33.6777 50.8297 33.2643 50.8297 32.7009C50.8297 32.6703 50.8205 32.6519 50.8022 32.6458C50.7838 32.6397 50.7654 32.6489 50.7471 32.6734C50.398 33.0469 49.8897 33.2337 49.2222 33.2337C48.6221 33.2337 48.074 33.0898 47.578 32.802C47.0759 32.5141 46.7176 32.0487 46.5033 31.4057C46.3686 30.9832 46.3012 30.4351 46.3012 29.7615C46.3012 29.045 46.3839 28.4633 46.5492 28.0162C46.7391 27.4529 47.0636 27.0028 47.5229 26.666C47.9822 26.323 48.518 26.1516 49.1304 26.1516C49.8346 26.1516 50.3735 26.3628 50.7471 26.7854C50.7654 26.8037 50.7838 26.8099 50.8022 26.8037C50.8205 26.7976 50.8297 26.7823 50.8297 26.7578V26.4271ZM50.7195 30.873C50.793 30.6035 50.8297 30.2269 50.8297 29.7431C50.8297 29.4615 50.8205 29.2441 50.8022 29.091C50.7838 28.9317 50.7532 28.7817 50.7103 28.6409C50.6246 28.3959 50.4868 28.1969 50.297 28.0438C50.1071 27.8968 49.8683 27.8233 49.5805 27.8233C49.3049 27.8233 49.0722 27.8968 48.8824 28.0438C48.6864 28.1969 48.5425 28.3959 48.4507 28.6409C48.3221 28.9164 48.2578 29.29 48.2578 29.7615C48.2578 30.2759 48.3129 30.6433 48.4231 30.8638C48.5027 31.1149 48.6466 31.3139 48.8548 31.4609C49.063 31.614 49.308 31.6905 49.5897 31.6905C49.8836 31.6905 50.1286 31.614 50.3245 31.4609C50.5144 31.3139 50.646 31.1179 50.7195 30.873ZM57.8659 26.1516C58.6008 26.1516 59.1917 26.3781 59.6388 26.8313C60.0858 27.2783 60.3093 27.8876 60.3093 28.6592V33.1786C60.3093 33.2276 60.294 33.2674 60.2634 33.298C60.2328 33.3286 60.196 33.3439 60.1532 33.3439H58.5365C58.4936 33.3439 58.4538 33.3286 58.4171 33.298C58.3864 33.2674 58.3711 33.2276 58.3711 33.1786V29.0542C58.3711 28.6929 58.267 28.3959 58.0588 28.1632C57.8567 27.9366 57.5842 27.8233 57.2413 27.8233C56.9045 27.8233 56.632 27.9366 56.4238 28.1632C56.2156 28.3959 56.1115 28.6929 56.1115 29.0542V33.1786C56.1115 33.2276 56.0962 33.2674 56.0655 33.298C56.0349 33.3286 55.9951 33.3439 55.9461 33.3439H54.3386C54.2897 33.3439 54.2499 33.3286 54.2192 33.298C54.1886 33.2674 54.1733 33.2276 54.1733 33.1786V23.8643C54.1733 23.8215 54.1886 23.7817 54.2192 23.7449C54.2499 23.7143 54.2897 23.699 54.3386 23.699H55.9461C55.9951 23.699 56.0349 23.7143 56.0655 23.7449C56.0962 23.7817 56.1115 23.8215 56.1115 23.8643V26.914C56.1115 26.9385 56.1207 26.9568 56.139 26.9691C56.1574 26.9752 56.1696 26.9691 56.1758 26.9507C56.5554 26.4179 57.1188 26.1516 57.8659 26.1516Z" fill="#252530"/>
<path d="M32.6185 61.3416C32.1409 61.3416 31.7245 61.265 31.3693 61.1119C31.0141 60.9588 30.7385 60.7445 30.5426 60.4689C30.3527 60.1934 30.2578 59.8688 30.2578 59.4952V59.2656C30.2578 59.235 30.2701 59.2074 30.2946 59.1829C30.3129 59.1646 30.3374 59.1554 30.368 59.1554H31.1856C31.2162 59.1554 31.2437 59.1646 31.2682 59.1829C31.2866 59.2074 31.2958 59.235 31.2958 59.2656V59.4401C31.2958 59.7218 31.4213 59.9545 31.6724 60.1382C31.9235 60.3281 32.2664 60.423 32.7012 60.423C33.0747 60.423 33.3564 60.3434 33.5463 60.1842C33.7361 60.025 33.831 59.8198 33.831 59.5687C33.831 59.3973 33.779 59.2503 33.6749 59.1278C33.5708 59.0115 33.4238 58.9043 33.234 58.8063C33.038 58.7083 32.7471 58.5859 32.3613 58.4389C31.9265 58.2797 31.5744 58.1297 31.305 57.9888C31.0355 57.848 30.812 57.6551 30.6344 57.4101C30.4507 57.1713 30.3589 56.8712 30.3589 56.5099C30.3589 55.971 30.5548 55.5454 30.9467 55.2331C31.3387 54.9208 31.8622 54.7646 32.5175 54.7646C32.9768 54.7646 33.384 54.8443 33.7392 55.0035C34.0882 55.1627 34.3607 55.3862 34.5567 55.674C34.7526 55.9557 34.8506 56.2833 34.8506 56.6569V56.813C34.8506 56.8437 34.8384 56.8712 34.8139 56.8957C34.7955 56.9141 34.771 56.9233 34.7404 56.9233H33.9137C33.8831 56.9233 33.8586 56.9141 33.8402 56.8957C33.8157 56.8712 33.8035 56.8437 33.8035 56.813V56.712C33.8035 56.4242 33.6871 56.1823 33.4544 55.9863C33.2156 55.7843 32.888 55.6832 32.4715 55.6832C32.1347 55.6832 31.8745 55.7536 31.6908 55.8945C31.5009 56.0353 31.406 56.2343 31.406 56.4915C31.406 56.6753 31.455 56.8253 31.553 56.9416C31.651 57.058 31.7979 57.1621 31.9939 57.254C32.1899 57.3519 32.493 57.4744 32.9033 57.6214C33.3381 57.7867 33.6871 57.9368 33.9504 58.0715C34.2076 58.2062 34.4312 58.393 34.621 58.6318C34.8047 58.8767 34.8966 59.1799 34.8966 59.5412C34.8966 60.0923 34.6914 60.5302 34.2811 60.8547C33.877 61.1793 33.3228 61.3416 32.6185 61.3416ZM38.2218 61.3416C37.7686 61.3416 37.3675 61.2528 37.0184 61.0752C36.6694 60.8976 36.3999 60.6465 36.2101 60.322C36.0141 59.9913 35.9162 59.6116 35.9162 59.1829V54.9484C35.9162 54.9177 35.9284 54.8932 35.9529 54.8749C35.9713 54.8504 35.9958 54.8381 36.0264 54.8381H36.8715C36.9021 54.8381 36.9296 54.8504 36.9541 54.8749C36.9725 54.8932 36.9817 54.9177 36.9817 54.9484V59.2013C36.9817 59.5626 37.095 59.8566 37.3216 60.0831C37.5481 60.3097 37.8482 60.423 38.2218 60.423C38.5953 60.423 38.8954 60.3097 39.1219 60.0831C39.3485 59.8566 39.4618 59.5626 39.4618 59.2013V54.9484C39.4618 54.9177 39.4741 54.8932 39.4986 54.8749C39.5169 54.8504 39.5414 54.8381 39.572 54.8381H40.4171C40.4477 54.8381 40.4753 54.8504 40.4998 54.8749C40.5182 54.8932 40.5274 54.9177 40.5274 54.9484V59.1829C40.5274 59.6116 40.4324 59.9913 40.2426 60.322C40.0528 60.6465 39.7833 60.8976 39.4343 61.0752C39.0852 61.2528 38.681 61.3416 38.2218 61.3416ZM45.9561 54.9116C45.9867 54.8626 46.0295 54.8381 46.0847 54.8381H46.9297C46.9604 54.8381 46.9879 54.8504 47.0124 54.8749C47.0308 54.8932 47.04 54.9177 47.04 54.9484V61.1578C47.04 61.1885 47.0308 61.213 47.0124 61.2313C46.9879 61.2558 46.9604 61.2681 46.9297 61.2681H46.0847C46.054 61.2681 46.0265 61.2558 46.002 61.2313C45.9836 61.213 45.9744 61.1885 45.9744 61.1578V56.7763C45.9744 56.7579 45.9652 56.7457 45.9469 56.7396C45.9346 56.7334 45.9254 56.7396 45.9193 56.7579L44.7711 58.5216C44.7405 58.5706 44.6976 58.5951 44.6425 58.5951H44.22C44.1649 58.5951 44.122 58.5706 44.0914 58.5216L42.934 56.7671C42.9279 56.7487 42.9156 56.7426 42.8972 56.7487C42.885 56.7549 42.8789 56.7671 42.8789 56.7855V61.1578C42.8789 61.1885 42.8697 61.213 42.8513 61.2313C42.8268 61.2558 42.7993 61.2681 42.7686 61.2681H41.9236C41.8929 61.2681 41.8685 61.2558 41.8501 61.2313C41.8256 61.213 41.8133 61.1885 41.8133 61.1578V54.9484C41.8133 54.9177 41.8256 54.8932 41.8501 54.8749C41.8685 54.8504 41.8929 54.8381 41.9236 54.8381H42.7686C42.8238 54.8381 42.8666 54.8626 42.8972 54.9116L44.3945 57.1805C44.4067 57.1927 44.419 57.1988 44.4312 57.1988C44.4435 57.1988 44.4527 57.1927 44.4588 57.1805L45.9561 54.9116ZM52.5238 54.9116C52.5544 54.8626 52.5973 54.8381 52.6524 54.8381H53.4975C53.5281 54.8381 53.5526 54.8504 53.5709 54.8749C53.5954 54.8932 53.6077 54.9177 53.6077 54.9484V61.1578C53.6077 61.1885 53.5954 61.213 53.5709 61.2313C53.5526 61.2558 53.5281 61.2681 53.4975 61.2681H52.6524C52.6218 61.2681 52.5973 61.2558 52.5789 61.2313C52.5544 61.213 52.5422 61.1885 52.5422 61.1578V56.7763C52.5422 56.7579 52.536 56.7457 52.5238 56.7396C52.5054 56.7334 52.4932 56.7396 52.487 56.7579L51.3388 58.5216C51.3082 58.5706 51.2654 58.5951 51.2102 58.5951H50.7877C50.7326 58.5951 50.6897 58.5706 50.6591 58.5216L49.5017 56.7671C49.4956 56.7487 49.4864 56.7426 49.4742 56.7487C49.4558 56.7549 49.4466 56.7671 49.4466 56.7855V61.1578C49.4466 61.1885 49.4374 61.213 49.419 61.2313C49.3945 61.2558 49.367 61.2681 49.3364 61.2681H48.4913C48.4607 61.2681 48.4362 61.2558 48.4178 61.2313C48.3933 61.213 48.3811 61.1885 48.3811 61.1578V54.9484C48.3811 54.9177 48.3933 54.8932 48.4178 54.8749C48.4362 54.8504 48.4607 54.8381 48.4913 54.8381H49.3364C49.3915 54.8381 49.4344 54.8626 49.465 54.9116L50.9622 57.1805C50.9745 57.1927 50.9867 57.1988 50.999 57.1988C51.0112 57.1988 51.0204 57.1927 51.0265 57.1805L52.5238 54.9116ZM59.3028 55.6465C59.3028 55.6771 59.2936 55.7016 59.2752 55.72C59.2507 55.7444 59.2232 55.7567 59.1926 55.7567H56.0603C56.0296 55.7567 56.0143 55.772 56.0143 55.8026V57.5203C56.0143 57.551 56.0296 57.5663 56.0603 57.5663H58.1638C58.1944 57.5663 58.2219 57.5755 58.2464 57.5938C58.2648 57.6183 58.274 57.6459 58.274 57.6765V58.3746C58.274 58.4052 58.2648 58.4328 58.2464 58.4573C58.2219 58.4756 58.1944 58.4848 58.1638 58.4848H56.0603C56.0296 58.4848 56.0143 58.5001 56.0143 58.5308V60.3036C56.0143 60.3342 56.0296 60.3495 56.0603 60.3495H59.1926C59.2232 60.3495 59.2507 60.3618 59.2752 60.3863C59.2936 60.4046 59.3028 60.4291 59.3028 60.4597V61.1578C59.3028 61.1885 59.2936 61.213 59.2752 61.2313C59.2507 61.2558 59.2232 61.2681 59.1926 61.2681H55.059C55.0284 61.2681 55.0039 61.2558 54.9855 61.2313C54.961 61.213 54.9488 61.1885 54.9488 61.1578V54.9484C54.9488 54.9177 54.961 54.8932 54.9855 54.8749C55.0039 54.8504 55.0284 54.8381 55.059 54.8381H59.1926C59.2232 54.8381 59.2507 54.8504 59.2752 54.8749C59.2936 54.8932 59.3028 54.9177 59.3028 54.9484V55.6465ZM63.9966 61.2681C63.9354 61.2681 63.8925 61.2405 63.868 61.1854L62.6555 58.5399C62.6433 58.5154 62.6249 58.5032 62.6004 58.5032H61.4982C61.4675 58.5032 61.4522 58.5185 61.4522 58.5491V61.1578C61.4522 61.1885 61.44 61.213 61.4155 61.2313C61.3971 61.2558 61.3726 61.2681 61.342 61.2681H60.4969C60.4663 61.2681 60.4418 61.2558 60.4234 61.2313C60.3989 61.213 60.3867 61.1885 60.3867 61.1578V54.9484C60.3867 54.9177 60.3989 54.8932 60.4234 54.8749C60.4418 54.8504 60.4663 54.8381 60.4969 54.8381H63.023C63.3965 54.8381 63.7272 54.9147 64.015 55.0678C64.3028 55.227 64.5264 55.4474 64.6856 55.7291C64.8448 56.017 64.9244 56.3446 64.9244 56.712C64.9244 57.1345 64.8142 57.4928 64.5937 57.7867C64.3794 58.0868 64.0793 58.295 63.6935 58.4113C63.6813 58.4113 63.6721 58.4175 63.666 58.4297C63.6598 58.442 63.6598 58.4542 63.666 58.4665L64.9611 61.1395C64.9734 61.164 64.9795 61.1823 64.9795 61.1946C64.9795 61.2436 64.9458 61.2681 64.8785 61.2681H63.9966ZM61.4982 55.7567C61.4675 55.7567 61.4522 55.772 61.4522 55.8026V57.6306C61.4522 57.6612 61.4675 57.6765 61.4982 57.6765H62.876C63.1699 57.6765 63.4057 57.5877 63.5833 57.4101C63.767 57.2386 63.8589 57.009 63.8589 56.7212C63.8589 56.4334 63.767 56.2007 63.5833 56.0231C63.4057 55.8455 63.1699 55.7567 62.876 55.7567H61.4982Z" fill="white"/>
<path d="M37.1644 77.8577C37.146 77.8761 37.1399 77.8945 37.146 77.9129C37.1582 77.9312 37.1766 77.9404 37.2011 77.9404H40.811C40.8539 77.9404 40.8907 77.9557 40.9213 77.9863C40.958 78.017 40.9764 78.0537 40.9764 78.0966V79.3917C40.9764 79.4346 40.958 79.4714 40.9213 79.502C40.8907 79.5326 40.8539 79.5479 40.811 79.5479H34.822C34.773 79.5479 34.7332 79.5326 34.7026 79.502C34.672 79.4714 34.6567 79.4346 34.6567 79.3917V78.1609C34.6567 78.0813 34.6842 78.0139 34.7393 77.9588C35.1741 77.5362 35.6181 77.0739 36.0713 76.5718C36.5244 76.0696 36.8092 75.7573 36.9255 75.6348C37.1705 75.3409 37.4216 75.0592 37.6787 74.7897C38.4871 73.8957 38.8913 73.2312 38.8913 72.7965C38.8913 72.4842 38.781 72.227 38.5606 72.0249C38.3401 71.8289 38.0523 71.7309 37.6971 71.7309C37.3419 71.7309 37.0541 71.8289 36.8337 72.0249C36.6071 72.227 36.4938 72.4933 36.4938 72.824V73.1547C36.4938 73.1976 36.4785 73.2343 36.4479 73.2649C36.4173 73.2955 36.3805 73.3109 36.3376 73.3109H34.7669C34.724 73.3109 34.6873 73.2955 34.6567 73.2649C34.6199 73.2343 34.6016 73.1976 34.6016 73.1547V72.5301C34.6322 72.0524 34.7853 71.6268 35.0608 71.2533C35.3364 70.8859 35.7008 70.6042 36.1539 70.4082C36.6132 70.2122 37.1276 70.1143 37.6971 70.1143C38.3279 70.1143 38.8759 70.2337 39.3413 70.4725C39.8068 70.7052 40.165 71.0206 40.4161 71.4186C40.6733 71.8228 40.8019 72.2668 40.8019 72.7505C40.8019 73.1241 40.7069 73.5068 40.5171 73.8987C40.3334 74.2907 40.0548 74.7132 39.6812 75.1664C39.4056 75.5093 39.1086 75.8522 38.7902 76.1951C38.4718 76.532 37.9972 77.0188 37.3664 77.6557L37.1644 77.8577ZM45.3028 79.6949C44.323 79.6949 43.5514 79.4224 42.988 78.8774C42.4185 78.3323 42.1338 77.5883 42.1338 76.6452V73.1271C42.1338 72.2025 42.4185 71.4707 42.988 70.9318C43.5514 70.3868 44.323 70.1143 45.3028 70.1143C46.2765 70.1143 47.0512 70.3868 47.6268 70.9318C48.1963 71.4707 48.4811 72.2025 48.4811 73.1271V76.6452C48.4811 77.5883 48.1963 78.3323 47.6268 78.8774C47.0512 79.4224 46.2765 79.6949 45.3028 79.6949ZM45.3028 78.0874C45.7009 78.0874 46.0162 77.9649 46.2489 77.72C46.4878 77.475 46.6072 77.1474 46.6072 76.7371V73.072C46.6072 72.6679 46.4878 72.3433 46.2489 72.0984C46.0162 71.8534 45.7009 71.7309 45.3028 71.7309C44.9109 71.7309 44.5986 71.8534 44.3659 72.0984C44.1271 72.3433 44.0076 72.6679 44.0076 73.072V76.7371C44.0076 77.1474 44.1271 77.475 44.3659 77.72C44.5986 77.9649 44.9109 78.0874 45.3028 78.0874ZM52.2104 77.8577C52.192 77.8761 52.189 77.8945 52.2012 77.9129C52.2074 77.9312 52.2257 77.9404 52.2563 77.9404H55.8663C55.9092 77.9404 55.9459 77.9557 55.9765 77.9863C56.0071 78.017 56.0225 78.0537 56.0225 78.0966V79.3917C56.0225 79.4346 56.0071 79.4714 55.9765 79.502C55.9459 79.5326 55.9092 79.5479 55.8663 79.5479H49.8681C49.8252 79.5479 49.7885 79.5326 49.7579 79.502C49.7272 79.4714 49.7119 79.4346 49.7119 79.3917V78.1609C49.7119 78.0813 49.7364 78.0139 49.7854 77.9588C50.2263 77.5362 50.6703 77.0739 51.1173 76.5718C51.5705 76.0696 51.8552 75.7573 51.9716 75.6348C52.2227 75.3409 52.4768 75.0592 52.734 74.7897C53.5423 73.8957 53.9465 73.2312 53.9465 72.7965C53.9465 72.4842 53.8363 72.227 53.6158 72.0249C53.3892 71.8289 53.0984 71.7309 52.7432 71.7309C52.388 71.7309 52.1002 71.8289 51.8797 72.0249C51.6593 72.227 51.5491 72.4933 51.5491 72.824V73.1547C51.5491 73.1976 51.5337 73.2343 51.5031 73.2649C51.4725 73.2955 51.4327 73.3109 51.3837 73.3109H49.813C49.7701 73.3109 49.7334 73.2955 49.7027 73.2649C49.6721 73.2343 49.6568 73.1976 49.6568 73.1547V72.5301C49.6813 72.0524 49.8313 71.6268 50.1069 71.2533C50.3825 70.8859 50.7499 70.6042 51.2092 70.4082C51.6685 70.2122 52.1798 70.1143 52.7432 70.1143C53.3739 70.1143 53.922 70.2337 54.3874 70.4725C54.8589 70.7052 55.2202 71.0206 55.4713 71.4186C55.7224 71.8228 55.8479 72.2668 55.8479 72.7505C55.8479 73.1241 55.7561 73.5068 55.5724 73.8987C55.3825 74.2907 55.1008 74.7132 54.7273 75.1664C54.4517 75.5093 54.1547 75.8522 53.8363 76.1951C53.5178 76.532 53.0433 77.0188 52.4125 77.6557L52.2104 77.8577ZM58.4842 70.2612C58.5332 70.2367 58.6006 70.2245 58.6863 70.2245H60.303C60.3458 70.2245 60.3826 70.2398 60.4132 70.2704C60.4438 70.301 60.4591 70.3378 60.4591 70.3806V79.3917C60.4591 79.4346 60.4438 79.4714 60.4132 79.502C60.3826 79.5326 60.3458 79.5479 60.303 79.5479H58.7414C58.6985 79.5479 58.6618 79.5326 58.6312 79.502C58.5944 79.4714 58.5761 79.4346 58.5761 79.3917V72.0892C58.5761 72.0708 58.5699 72.0524 58.5577 72.0341C58.5393 72.0157 58.5209 72.0126 58.5026 72.0249L57.1798 72.3831L57.1247 72.3923C57.0451 72.3923 57.0053 72.3433 57.0053 72.2453L56.9686 71.1063C56.9686 71.0145 57.0084 70.9502 57.088 70.9134L58.4842 70.2612Z" fill="#252530"/>
</svg>
