<svg width="703" height="46" viewBox="0 0 703 46" fill="none" xmlns="http://www.w3.org/2000/svg">
<path d="M4.38303 0.938965H48.1774V45.061H4.38303V0.938965Z" fill="#FF5A00"/>
<path d="M127.029 9.67603C127.43 9.71243 127.502 10.1857 127.539 10.4769C127.648 11.9695 127.684 13.4257 127.684 14.9182C127.757 16.338 127.757 17.7214 127.757 19.1411C128.558 18.5223 129.323 17.867 130.269 17.503C131.762 16.8477 133.582 16.8477 135.038 17.6122C136.604 18.4131 137.696 19.942 138.242 21.5802C138.751 23.1456 138.897 24.8202 138.788 26.4584C138.642 28.3878 138.133 30.3173 137.004 31.8827C136.349 32.7928 135.475 33.5937 134.383 33.9941C132.635 34.613 130.706 34.3946 129.141 33.4116C128.667 33.1204 128.231 32.6836 127.794 32.3195C127.612 32.902 127.466 33.448 127.284 34.0305C126.447 34.0305 125.646 34.1033 124.809 33.9577C125.136 32.6471 125.136 31.2638 125.173 29.9168C125.245 25.1479 125.173 20.3789 125.136 15.6463C125.027 13.7897 125.173 11.9331 124.845 10.1129C125.609 9.89444 126.301 9.67603 127.029 9.67603ZM133.145 19.5052C132.417 19.3596 131.689 19.3596 130.961 19.4324C129.65 19.6144 128.595 20.5245 127.757 21.471C127.721 21.7987 127.757 22.0899 127.721 22.4175V29.9896C127.684 30.2445 127.903 30.4265 128.085 30.5721C129.359 31.8099 131.252 32.3923 133 31.9555C133.837 31.737 134.565 31.191 134.965 30.4265C135.584 29.3708 135.803 28.133 135.912 26.9317C135.985 26.0216 136.094 25.075 135.985 24.1649C135.948 23.1092 135.73 21.9807 135.184 21.0706C134.747 20.3061 134.019 19.6872 133.145 19.5052ZM143.994 10.3313C144.503 10.1493 145.086 10.1857 145.595 10.4041C146.069 10.6953 146.396 11.1322 146.615 11.6419C146.942 12.734 146.069 13.9717 144.94 14.1173C144.066 14.2266 143.12 13.7169 142.865 12.8432C142.501 11.8967 143.047 10.7317 143.994 10.3313ZM66.3432 12.3335C67.5809 11.4962 69.0371 10.841 70.5661 10.841C72.1315 10.8046 73.7333 10.9138 75.153 11.6055C75.7355 11.8603 76.318 12.1515 76.8276 12.5884C76.4636 13.2072 75.9903 13.7533 75.5535 14.2994C74.971 13.9717 74.425 13.6077 73.8061 13.3893C72.2771 12.8432 70.5297 12.734 69.0007 13.3529C67.7266 13.8625 66.6708 14.8454 66.0156 16.0468C65.5787 16.8841 65.1783 17.7942 64.9962 18.7407C64.8506 19.6508 64.7778 20.5973 64.7414 21.5438C64.705 22.7816 64.6322 24.0557 64.705 25.2935C64.9234 27.0409 65.5059 28.7883 66.7072 30.0988C67.7266 31.3002 69.2555 31.9919 70.8209 32.1375C71.6218 32.1739 72.4591 32.1739 73.26 31.9919C74.2429 31.7734 75.0802 31.2638 75.9903 30.8633C76.5 31.373 76.9733 31.9555 77.4101 32.5743C76.7548 32.9384 76.0632 33.3024 75.3351 33.5937C73.442 34.3582 71.2942 34.3946 69.2919 34.1761C67.8358 33.8849 66.4888 33.1204 65.3603 32.1739C64.0497 31.0454 63.1032 29.5528 62.5571 27.9146C62.1567 26.8225 61.9747 25.6575 61.8655 24.529C61.8291 23.6553 61.7198 22.818 61.8291 21.9443C61.8655 20.3061 62.1203 18.7043 62.7756 17.1753C63.5037 15.2823 64.6686 13.4985 66.3432 12.3335Z" fill="black"/>
<path d="M17.3794 11.9333C17.5614 11.8969 17.7798 11.8241 17.9618 11.8241C18.9083 11.7877 19.8549 11.8605 20.8014 11.8969C20.947 11.8605 21.0198 12.0061 21.0562 12.1154C22.476 15.0641 23.8957 18.0493 25.3519 20.998C25.6796 21.6169 25.9344 22.2358 26.2984 22.8182C26.5897 22.345 26.8445 21.8353 27.0993 21.3257C28.7375 18.1585 30.2665 14.9913 31.8683 11.8241C32.924 11.8605 33.9797 11.7513 35.0355 11.9333C34.8534 12.5522 34.4894 13.0619 34.2346 13.6443C32.1231 17.6852 29.9753 21.7261 27.8638 25.767C27.791 25.9126 27.7546 26.0946 27.7546 26.2766C27.7546 29.1526 27.7546 32.0649 27.7546 34.9409C26.7353 34.9409 25.716 34.9409 24.6966 34.9409C24.6966 32.1377 24.6966 29.2982 24.6966 26.4951C24.6966 26.2038 24.733 25.8762 24.551 25.585C22.5852 21.9081 20.6558 18.2313 18.6899 14.518C18.2531 13.6443 17.7798 12.807 17.3794 11.9333Z" fill="#FFFEFE"/>
<path d="M186.732 13.2075C187.57 12.9527 188.443 12.7342 189.317 12.5886C189.171 14.1904 189.062 15.7922 189.026 17.4304C190.373 17.4668 191.756 17.4668 193.103 17.5032C192.885 18.1221 192.63 18.741 192.339 19.3234C191.174 19.3234 190.045 19.3234 188.88 19.3234C188.88 20.816 188.88 22.3086 188.88 23.8012C188.88 24.9661 188.953 26.1674 188.917 27.3324C188.953 28.6793 188.88 30.0263 189.026 31.3368C189.062 31.8829 189.572 32.2834 190.045 32.429C190.882 32.611 191.756 32.5382 192.557 32.3562C192.775 32.8294 192.885 33.3755 192.848 33.8852C192.12 34.2856 191.247 34.3584 190.409 34.4312C189.244 34.4676 187.934 34.2856 187.096 33.3755C186.405 32.7202 186.478 31.7009 186.368 30.8272C186.296 28.9342 186.332 27.0047 186.296 25.1117C186.296 23.1823 186.296 21.2164 186.296 19.287C185.567 19.287 184.839 19.287 184.111 19.287C184.075 18.6681 184.075 18.0129 184.111 17.394C184.839 17.394 185.531 17.394 186.259 17.394C186.514 16.0106 186.514 14.5909 186.732 13.2075ZM87.203 17.0299C87.8946 17.0663 88.5863 17.0299 89.2416 17.2484C90.7706 17.758 92.0447 18.8138 92.8456 20.1971C93.5373 21.3985 94.0106 22.7454 94.047 24.1288C94.1198 25.9854 94.1926 27.9148 93.6101 29.6987C93.0641 31.3733 91.8991 32.8658 90.2973 33.7031C88.7319 34.504 86.8389 34.686 85.1643 34.2128C83.6353 33.8123 82.3248 32.793 81.4511 31.4825C80.4682 30.0627 80.1405 28.3517 80.1041 26.6407C80.0677 25.0025 80.0313 23.3279 80.5774 21.7625C81.087 20.2335 82.07 18.8138 83.4533 17.9401C84.0722 17.5396 84.7639 17.212 85.492 17.0664C86.0744 16.9935 86.6569 17.0299 87.203 17.0299ZM85.8924 19.1414C85.0187 19.3598 84.1814 19.8695 83.7082 20.634C83.0165 21.7625 82.9073 23.1095 82.8344 24.3836C82.7616 25.3301 82.8345 26.2766 82.9073 27.2232C83.0529 28.3517 83.2713 29.553 83.8174 30.5724C84.3998 31.6645 85.6376 32.2105 86.8389 32.2834C87.9675 32.3562 89.2052 32.0649 90.0061 31.1912C90.6614 30.4631 91.0254 29.553 91.171 28.5701C91.3531 27.3688 91.3167 26.1674 91.2803 24.9661C91.2439 23.7283 91.1346 22.4178 90.625 21.2528C90.3337 20.5248 89.7877 19.9059 89.096 19.5418C88.1495 18.9594 86.9481 18.8866 85.8924 19.1414ZM98.5975 17.576C99.362 17.3212 100.127 17.1392 100.927 16.9935C101.255 17.7216 101.437 18.5225 101.51 19.3234C102.056 19.0322 102.456 18.5953 102.966 18.2677C104.095 17.4304 105.478 16.9207 106.898 16.9935C107.225 17.0299 107.517 17.1028 107.808 17.2484C108.281 17.5032 108.791 17.758 109.191 18.1221C109.592 18.5225 109.883 19.0322 110.174 19.5418C110.829 19.2506 111.303 18.7409 111.885 18.3405C112.868 17.6488 113.997 17.1028 115.234 16.9935C116.363 16.8843 117.491 17.2484 118.329 18.0129C118.693 18.3769 119.093 18.7409 119.275 19.2142C119.457 19.6875 119.53 20.1971 119.566 20.7068C119.748 23.3643 119.639 26.0582 119.748 28.7157C119.748 30.4995 119.748 32.247 119.748 34.0308C118.875 34.0308 118.001 34.0672 117.091 34.0308C117.091 31.3733 117.091 28.7157 117.091 26.0582C117.091 24.3472 117.127 22.6362 116.982 20.9252C116.909 20.3791 116.618 19.8695 116.181 19.5418C115.671 19.2142 115.016 19.2506 114.433 19.287C113.378 19.3962 112.54 20.0515 111.739 20.6704C111.375 20.998 110.975 21.2893 110.611 21.6169C110.502 21.6897 110.538 21.8717 110.538 21.9809C110.538 25.9854 110.538 29.9899 110.538 33.9944C109.664 33.9944 108.791 33.9944 107.917 33.9944V24.6384C107.917 23.874 107.917 23.1095 107.881 22.3814C107.844 21.6169 107.917 20.7796 107.553 20.0879C107.007 19.3234 105.951 19.1778 105.114 19.3962C103.803 19.7239 102.638 20.5248 101.655 21.4349C101.51 21.5441 101.51 21.7261 101.51 21.9081C101.51 25.949 101.51 29.9899 101.51 34.0308C100.745 34.0672 99.9809 34.0672 99.2164 34.0308C99.1436 29.9171 99.18 25.767 99.0708 21.6169C99.0344 20.6704 99.0344 19.7239 98.9252 18.8138C98.816 18.3769 98.6703 17.9765 98.5975 17.576ZM143.375 17.4304C144.212 17.3212 145.049 17.1756 145.887 16.9935C145.996 19.3234 145.96 21.6533 145.96 23.9832C145.96 27.3324 145.96 30.6816 145.96 34.0308C145.086 34.0672 144.212 34.0672 143.338 34.0308C143.302 29.2254 143.338 24.4564 143.338 19.6511C143.375 18.923 143.338 18.1585 143.375 17.4304ZM177.122 17.1028C178.905 17.4304 180.434 19.0686 180.471 20.9252C180.58 23.6919 180.434 26.4587 180.471 29.2254V30.0627C180.471 30.6088 180.507 31.1548 180.653 31.7009C180.762 32.247 181.272 32.5382 181.672 32.8658C181.308 33.3755 180.981 33.958 180.507 34.3948C180.216 34.6496 179.852 34.3584 179.634 34.2128C179.015 33.7395 178.578 33.0478 178.214 32.3562C177.631 32.6838 177.231 33.1571 176.648 33.4847C175.702 34.1036 174.573 34.4676 173.408 34.4312C172.389 34.4676 171.333 34.2856 170.423 33.8123C168.931 33.0114 168.093 31.264 168.13 29.6258C168.13 28.0241 168.931 26.4587 170.205 25.5122C171.734 24.3472 173.7 23.9832 175.556 23.8376C176.394 23.7647 177.267 23.7647 178.141 23.7283C178.177 22.891 178.105 22.0537 177.995 21.2164C177.886 20.5248 177.558 19.7967 176.903 19.4326C176.139 19.0322 175.229 18.9958 174.355 19.1414C172.753 19.3234 171.261 20.0151 169.95 20.9616C169.586 20.452 169.222 19.9787 168.931 19.4326C168.785 19.1778 169.003 18.9594 169.222 18.8502C170.969 17.8672 172.899 17.0299 174.937 17.0664H175.811C176.248 17.0299 176.685 17.0299 177.122 17.1028ZM176.03 25.4393C175.229 25.5122 174.391 25.5486 173.627 25.767C172.68 26.0218 171.807 26.6407 171.297 27.478C171.006 27.9512 171.006 28.5337 170.969 29.0798C170.969 29.6622 170.897 30.3175 171.115 30.8636C171.333 31.4461 171.734 31.9921 172.316 32.2106C172.972 32.5018 173.736 32.5382 174.464 32.4654C175.338 32.3562 176.102 31.8829 176.758 31.3732C177.304 30.9 177.85 30.3175 177.886 29.553C177.995 28.2061 177.959 26.8591 177.995 25.5122C177.34 25.5122 176.685 25.3665 176.03 25.4393ZM204.571 17.1392C206.063 17.5032 207.41 18.4133 208.284 19.6511C209.012 20.6704 209.485 21.8353 209.704 23.0731C209.886 24.238 209.958 25.4393 209.886 26.6043C209.849 28.5337 209.267 30.4631 208.102 31.9921C207.155 33.2299 205.699 33.958 204.206 34.2492C202.386 34.5768 200.42 34.2492 198.891 33.1571C197.544 32.2106 196.707 30.6816 196.234 29.1526C195.979 28.3517 195.943 27.5508 195.87 26.7135C195.833 25.3301 195.833 23.9468 196.088 22.5998C196.452 21.0708 197.217 19.5782 198.382 18.4861C199.255 17.6852 200.348 17.1756 201.513 17.0299C202.532 16.9207 203.551 16.9571 204.571 17.1392ZM201.695 19.105C200.457 19.2506 199.474 20.2335 199.073 21.3621C198.564 22.5634 198.637 23.874 198.6 25.1481C198.637 26.3495 198.637 27.5508 198.855 28.7521C199.001 29.553 199.255 30.3539 199.802 30.9728C200.311 31.5917 201.076 31.9921 201.84 32.1377C202.131 32.2105 202.459 32.247 202.75 32.247H203.042L203.333 32.2106C203.952 32.1377 204.534 31.9557 205.08 31.6645C205.735 31.3004 206.209 30.6088 206.464 29.9171C206.791 29.0798 206.828 28.1697 206.9 27.296C206.937 26.2402 206.973 25.1845 206.9 24.1288C206.828 23.0367 206.682 21.9081 206.172 20.9252C205.699 20.1971 205.044 19.5782 204.243 19.2142C203.478 18.9958 202.568 18.9958 201.695 19.105ZM214.363 17.6124C215.164 17.394 215.929 17.1392 216.73 16.9571C217.166 17.758 217.239 18.7045 217.276 19.5782C217.676 19.287 218.004 18.8866 218.368 18.5225C219.496 17.394 221.171 16.7023 222.773 16.9935V17.212C222.409 17.9765 222.19 18.8138 221.863 19.6147C221.826 19.7603 221.608 19.7239 221.499 19.7239C220.807 19.7239 220.042 19.7239 219.423 20.0879C218.805 20.4519 218.259 20.9252 217.822 21.5077C217.385 22.0537 217.458 22.8182 217.458 23.4735C217.421 24.42 217.385 25.3665 217.421 26.313C217.421 28.8613 217.421 31.4461 217.421 33.9944C216.548 34.0308 215.674 34.0308 214.8 33.9944C214.8 31.1548 214.8 28.2789 214.8 25.4393C214.8 23.5099 214.8 21.5441 214.727 19.6147C214.655 18.9594 214.436 18.3041 214.363 17.6124ZM151.129 17.6488C151.893 17.394 152.694 17.1028 153.495 17.1028C153.786 17.8672 153.969 18.6681 154.078 19.469C154.769 19.0322 155.352 18.4497 156.08 18.0493C157.463 17.2484 159.138 16.6659 160.703 17.2484C161.613 17.576 162.524 18.0857 163.07 18.923C163.506 19.5054 163.616 20.3063 163.688 21.0344C163.834 23.6191 163.798 26.2038 163.798 28.8249C163.798 30.5723 163.834 32.2834 163.834 34.0308C162.96 34.0672 162.087 34.0672 161.213 34.0308C161.213 31.1912 161.14 28.3153 161.14 25.4758C161.104 23.874 161.177 22.3086 160.995 20.7068C160.74 19.9423 160.012 19.3234 159.211 19.287C158.628 19.2506 158.009 19.2506 157.427 19.469C156.189 19.9423 155.061 20.7068 154.041 21.5441C154.005 25.6942 154.041 29.8807 154.041 34.0308C153.277 34.0308 152.512 34.0672 151.748 34.0308C151.748 31.6645 151.675 29.2982 151.675 26.9319C151.639 24.4928 151.675 22.0901 151.529 19.6511C151.493 18.9594 151.275 18.3041 151.129 17.6488Z" fill="black"/>
<path d="M370.163 37.0363L367.401 32.322C368.709 29.8934 368.709 27.0363 368.709 23.322C368.709 18.6077 368.709 15.1792 365.948 12.322C364.059 10.322 361.588 9.32202 358.391 9.32202C355.193 9.32202 352.723 10.4649 350.833 12.322C348.072 15.0363 348.072 18.4649 348.072 23.322C348.072 28.0363 347.927 31.4649 350.833 34.322C352.868 36.322 355.193 37.322 358.391 37.322C359.263 37.322 359.989 37.1792 360.716 37.0363H370.163ZM354.757 31.0363C353.74 29.8934 353.449 28.6077 353.449 23.322C353.449 18.0363 353.74 16.7506 354.757 15.6077C355.484 14.7506 356.792 14.1792 358.245 14.1792C359.699 14.1792 361.007 14.7506 361.733 15.6077C362.751 16.7506 363.041 18.0363 363.041 23.322C363.041 28.6077 362.751 29.8934 361.733 31.0363C361.007 31.8934 359.699 32.4649 358.245 32.4649C356.792 32.4649 355.484 31.8934 354.757 31.0363Z" fill="#3C3C3C"/>
<path d="M433.964 9.60767H439.341V37.0362H433.964V9.60767Z" fill="#3C3C3C"/>
<path d="M304.036 37.322C299.821 37.322 296.624 36.4648 293.863 33.7506L297.351 30.322C299.095 32.0363 301.565 32.6077 304.036 32.6077C307.233 32.6077 308.977 31.4648 308.977 29.1791C308.977 28.1791 308.687 27.4648 308.105 26.8934C307.524 26.322 306.943 26.1791 305.635 25.8934L302.292 25.4648C299.967 25.1791 298.077 24.322 296.915 23.1791C295.607 21.8934 294.88 20.0363 294.88 17.7506C294.88 12.8934 298.513 9.46484 304.617 9.46484C308.396 9.46484 311.303 10.322 313.628 12.6077L310.14 15.8934C308.396 14.1791 306.216 14.0363 304.472 14.0363C301.565 14.0363 300.112 15.6077 300.112 17.4648C300.112 18.1791 300.403 18.8934 300.984 19.4648C301.565 20.0363 302.437 20.322 303.6 20.6077L306.943 21.0363C309.559 21.322 311.157 22.0363 312.32 23.1791C313.773 24.6077 314.5 26.6077 314.5 29.0363C314.5 34.322 309.849 37.322 304.036 37.322Z" fill="#3C3C3C"/>
<path d="M322.348 37.0362V9.60767H340.805V14.322H327.871V20.7505H338.916V25.6077H327.871V32.322H340.805V37.0362H322.348Z" fill="#3C3C3C"/>
<path d="M387.167 37.322C381.499 37.322 376.848 33.4648 376.848 27.6077V9.60767H382.371V27.4648C382.371 30.6077 384.26 32.4648 387.167 32.4648C390.073 32.4648 391.963 30.6077 391.963 27.4648V9.60767H397.34V27.6077C397.34 33.4648 392.835 37.322 387.167 37.322Z" fill="#3C3C3C"/>
<path d="M423.209 34.322C421.32 36.322 418.849 37.322 415.652 37.322C412.455 37.322 409.984 36.1792 408.095 34.322C405.333 31.6077 405.333 28.1792 405.333 23.322C405.333 18.6077 405.188 15.1792 408.095 12.322C409.984 10.322 412.455 9.32202 415.652 9.32202C418.849 9.32202 421.175 10.4649 423.209 12.322C425.971 15.0363 425.971 18.4649 425.971 23.322C425.971 28.0363 425.971 31.4649 423.209 34.322ZM419.14 15.6077C418.413 14.7506 417.105 14.1792 415.652 14.1792C414.199 14.1792 412.891 14.7506 412.164 15.6077C411.147 16.7506 410.856 18.0363 410.856 23.322C410.856 28.6077 411.147 29.8934 412.164 31.0363C412.891 31.8934 414.199 32.4649 415.652 32.4649C417.105 32.4649 418.413 31.8934 419.14 31.0363C420.157 29.8934 420.448 28.6077 420.448 23.322C420.448 18.0363 420.157 16.7506 419.14 15.6077Z" fill="#3C3C3C"/>
<path d="M465.065 37.0362L463.467 32.1791H453.584L451.84 37.0362H446.172L456.345 9.60767H460.56L470.733 37.0362H465.065ZM458.525 17.6077L455.037 27.6077H462.013L458.525 17.6077Z" fill="#3C3C3C"/>
<path d="M502.707 9.60767H509.683V16.4648H502.707V9.60767Z" fill="#50B848"/>
<path d="M485.267 31.1791V9.60767H481.779V34.6077L485.267 31.1791Z" fill="#50B848"/>
<path d="M487.737 33.6077L484.249 37.0362H509.683V33.6077H487.737Z" fill="#50B848"/>
<path d="M492.243 24.322V9.60767H488.755V27.7505L492.243 24.322Z" fill="#50B848"/>
<path d="M494.713 26.7505L491.225 30.1791H509.683V26.7505H494.713Z" fill="#50B848"/>
<path d="M499.219 17.4648V9.60767H495.731V20.8934L499.219 17.4648Z" fill="#50B848"/>
<path d="M501.689 19.8933L498.201 23.3219H509.683V19.8933H501.689Z" fill="#50B848"/>
<path d="M623.915 16.6992L628.983 30.2563H625.898L624.872 27.2369H619.803L618.749 30.2563H615.74L620.866 16.6992H623.915ZM624.086 25.0165L622.385 20.0404H622.348L620.581 25.0138L624.086 25.0165Z" fill="#231F20"/>
<path d="M632.427 20.4413V21.8047H632.485C632.79 21.2674 633.25 20.8339 633.804 20.56C634.324 20.3055 634.896 20.1721 635.475 20.1697C636.081 20.1499 636.684 20.2502 637.25 20.465C637.679 20.6371 638.056 20.919 638.342 21.2825C638.62 21.6596 638.811 22.0937 638.901 22.5536C639.013 23.1002 639.067 23.657 639.062 24.2149V30.2538H636.377V24.7054C636.377 23.895 636.251 23.2902 635.998 22.8911C635.744 22.4921 635.295 22.2925 634.65 22.2925C633.915 22.2925 633.388 22.5105 633.068 22.9465C632.748 23.3825 632.583 24.1007 632.575 25.101V30.2459H629.864V20.4413H632.427Z" fill="#231F20"/>
<path d="M650.145 30.9787C650.031 31.4986 649.793 31.9833 649.452 32.3922C649.032 32.8764 648.506 33.2564 647.914 33.5024C647.058 33.84 646.14 33.9954 645.219 33.9586C644.724 33.9572 644.23 33.897 643.748 33.7793C643.266 33.6664 642.805 33.4777 642.382 33.2202C641.974 32.9708 641.625 32.6372 641.356 32.2419C641.075 31.8144 640.914 31.3187 640.892 30.8073H643.569C643.608 31.0263 643.695 31.234 643.823 31.4162C643.951 31.5983 644.117 31.7504 644.31 31.8622C644.702 32.0647 645.139 32.1662 645.581 32.1575C646.34 32.1575 646.894 31.9298 647.242 31.4745C647.604 30.9739 647.782 30.3638 647.746 29.7472V28.4551H647.709C647.43 28.9633 646.993 29.3668 646.464 29.6048C645.932 29.85 645.352 29.976 644.766 29.974C644.111 29.9907 643.462 29.8571 642.867 29.5837C642.35 29.3416 641.898 28.9801 641.549 28.5289C641.196 28.0565 640.942 27.5186 640.8 26.9467C640.638 26.3232 640.559 25.6814 640.562 25.0375C640.557 24.4167 640.646 23.7987 640.826 23.2047C640.997 22.6408 641.27 22.1134 641.633 21.6489C641.988 21.1984 642.438 20.8319 642.952 20.5756C643.516 20.3007 644.138 20.1642 644.766 20.1774C645.352 20.165 645.933 20.2887 646.464 20.5387C646.984 20.8122 647.411 21.2357 647.688 21.7543H647.725V20.4358H650.288V29.6259C650.287 30.0806 650.239 30.5339 650.145 30.9787ZM646.454 27.7141C646.737 27.569 646.984 27.3617 647.176 27.1076C647.369 26.8473 647.514 26.5543 647.603 26.2426C647.699 25.9127 647.747 25.5708 647.746 25.2273C647.748 24.8412 647.71 24.4559 647.632 24.0776C647.565 23.7373 647.436 23.4121 647.253 23.1177C647.078 22.8414 646.836 22.613 646.551 22.4532C646.211 22.2768 645.831 22.1914 645.449 22.2053C645.109 22.1953 644.772 22.2734 644.47 22.4321C644.199 22.5834 643.966 22.7944 643.787 23.0491C643.6 23.3184 643.465 23.6209 643.389 23.9405C643.305 24.2858 643.264 24.6399 643.265 24.9953C643.265 25.3495 643.301 25.7028 643.371 26.0501C643.434 26.382 643.557 26.6999 643.732 26.9889C643.902 27.2654 644.133 27.4991 644.407 27.6719C644.726 27.8603 645.092 27.9519 645.462 27.9356C645.806 27.9414 646.146 27.8646 646.454 27.7114L646.454 27.7141Z" fill="#231F20"/>
<path d="M655.124 27.9014C655.528 28.2935 656.11 28.4895 656.87 28.4895C657.369 28.5026 657.861 28.3597 658.275 28.0807C658.608 27.8832 658.863 27.578 658.998 27.2158H661.371C660.992 28.3937 660.41 29.2358 659.626 29.7421C658.771 30.2677 657.781 30.5317 656.778 30.5015C656.064 30.5124 655.355 30.3871 654.689 30.1324C654.09 29.9019 653.55 29.5417 653.107 29.0775C652.667 28.6067 652.328 28.0513 652.11 27.4452C651.87 26.7755 651.751 26.0682 651.759 25.3567C651.757 24.6567 651.883 23.9622 652.131 23.3077C652.356 22.6973 652.703 22.1396 653.152 21.6692C653.601 21.1988 654.142 20.8257 654.742 20.573C655.387 20.3011 656.082 20.1655 656.783 20.1748C657.539 20.1572 658.289 20.3238 658.966 20.6601C659.569 20.969 660.092 21.4141 660.493 21.9601C660.899 22.5191 661.193 23.1513 661.358 23.8219C661.537 24.5351 661.601 25.2721 661.548 26.0054H654.46C654.498 26.8774 654.72 27.5094 655.124 27.9014ZM658.173 22.7381C657.849 22.3865 657.359 22.2107 656.701 22.2107C656.331 22.1979 655.963 22.2729 655.628 22.4295C655.364 22.5586 655.131 22.743 654.945 22.9701C654.781 23.1711 654.658 23.4023 654.584 23.6505C654.519 23.8608 654.478 24.0774 654.46 24.2966H658.845C658.769 23.7249 658.537 23.1854 658.173 22.7381H658.173Z" fill="#231F20"/>
<path d="M665.675 16.6992V30.2563H662.977V16.6992H665.675Z" fill="#231F20"/>
<path d="M670.804 16.6992V27.7485H677.41V30.2537H667.824V16.6992H670.804Z" fill="#231F20"/>
<path d="M678.528 18.9221V16.7017H681.223V18.9221H678.528ZM681.223 20.441V30.2561H678.528V20.441H681.223Z" fill="#231F20"/>
<path d="M685.429 27.817C685.544 28.0196 685.703 28.1943 685.893 28.3286C686.092 28.4657 686.313 28.5658 686.547 28.6239C686.799 28.688 687.058 28.7199 687.317 28.7189C687.519 28.718 687.719 28.6959 687.916 28.6529C688.115 28.6124 688.307 28.5422 688.485 28.4446C688.654 28.3515 688.8 28.2218 688.913 28.0649C689.032 27.8888 689.092 27.679 689.084 27.4663C689.084 27.0619 688.815 26.7578 688.277 26.5538C687.543 26.2979 686.791 26.0952 686.028 25.9473C685.636 25.8594 685.252 25.7548 684.878 25.6335C684.525 25.5232 684.189 25.3634 683.881 25.1588C683.595 24.9674 683.355 24.7142 683.18 24.4178C682.994 24.0848 682.903 23.7072 682.916 23.3261C682.894 22.7834 683.021 22.245 683.285 21.7702C683.524 21.3722 683.861 21.0418 684.264 20.8103C684.687 20.5694 685.149 20.4027 685.63 20.3172C686.143 20.2217 686.663 20.1741 687.185 20.1748C687.705 20.174 688.224 20.2252 688.733 20.3278C689.206 20.4183 689.66 20.5915 690.073 20.8394C690.467 21.0816 690.802 21.4097 691.051 21.7992C691.329 22.2558 691.488 22.7742 691.515 23.3076H688.952C688.958 23.0951 688.907 22.8849 688.804 22.6992C688.7 22.5135 688.548 22.3593 688.364 22.2528C687.974 22.0656 687.544 21.9751 687.112 21.9891C686.947 21.9901 686.782 21.9998 686.618 22.0181C686.451 22.0345 686.288 22.0763 686.133 22.1421C685.992 22.2005 685.865 22.2907 685.764 22.4058C685.656 22.5438 685.602 22.7161 685.611 22.891C685.608 23.0026 685.63 23.1134 685.675 23.2153C685.721 23.3172 685.789 23.4073 685.875 23.479C686.08 23.6456 686.315 23.771 686.568 23.8482C686.889 23.9551 687.216 24.0432 687.547 24.1119C687.914 24.1875 688.288 24.2702 688.667 24.3598C689.056 24.447 689.44 24.5544 689.817 24.6815C690.172 24.7994 690.508 24.9691 690.814 25.1852C691.103 25.3944 691.342 25.6645 691.515 25.9763C691.702 26.3299 691.793 26.7264 691.779 27.1261C691.8 27.654 691.681 28.1781 691.433 28.6447C691.185 29.1112 690.818 29.5036 690.368 29.7816C689.929 30.0557 689.443 30.2453 688.934 30.3407C688.393 30.4484 687.842 30.5023 687.291 30.5015C686.729 30.5022 686.169 30.4447 685.619 30.3301C685.105 30.2281 684.613 30.0352 684.166 29.7605C683.737 29.4955 683.376 29.1343 683.111 28.7057C682.821 28.2065 682.668 27.64 682.665 27.0628H685.229C685.227 27.3276 685.296 27.5882 685.429 27.817V27.817Z" fill="#231F20"/>
<path d="M698.614 20.4412V22.245H696.639V27.1051C696.639 27.5604 696.716 27.8645 696.869 28.0175C697.022 28.1704 697.326 28.246 697.781 28.2443C697.934 28.2443 698.079 28.2443 698.219 28.2258C698.352 28.2137 698.485 28.1943 698.617 28.1678V30.2564C698.366 30.2969 698.112 30.3224 697.858 30.3328C697.578 30.3451 697.305 30.3513 697.04 30.3513C696.643 30.353 696.246 30.3248 695.853 30.2669C695.507 30.2187 695.172 30.106 694.867 29.9346C694.58 29.7691 694.346 29.5259 694.192 29.2332C694.012 28.8607 693.927 28.4494 693.944 28.0359V22.2344H692.312V20.4307H693.944V17.4983H696.639V20.4412L698.614 20.4412Z" fill="#231F20"/>
<path d="M605.914 19.8441C607.693 20.1802 608.945 20.9292 609.67 22.0914C610.395 23.2536 610.76 25.0878 610.764 27.594C610.764 32.5648 609.27 36.6325 606.281 39.7968C603.293 42.9612 599.471 44.5424 594.817 44.5404C592.992 44.5416 591.183 44.2059 589.48 43.5502C587.828 42.9338 586.316 41.9933 585.033 40.7841C583.719 39.6207 582.635 38.2208 581.837 36.6572C581.144 35.2767 580.78 33.7547 580.773 32.2101C580.773 30.5142 581.137 29.2028 581.867 28.2759C582.596 27.3489 583.748 26.7125 585.324 26.3666C585.072 25.7978 584.854 25.2147 584.671 24.6203C584.554 24.2664 584.485 23.8985 584.464 23.5264C584.464 22.6389 584.932 21.7317 585.869 20.8047C586.806 19.8777 587.688 19.4143 588.517 19.4143C588.899 19.419 589.278 19.4841 589.64 19.607C590.114 19.7726 590.57 19.9862 591.001 20.2444C589.481 15.9455 588.376 12.627 587.686 10.2888C586.997 7.95061 586.653 6.33977 586.655 5.45628C586.655 4.23283 586.97 3.26139 587.6 2.54194C587.923 2.18288 588.321 1.89983 588.766 1.71321C589.211 1.5266 589.692 1.44106 590.174 1.46278C592.028 1.46278 594.373 5.60451 597.209 13.888C597.701 15.3071 598.076 16.4021 598.333 17.1729C598.55 16.5622 598.856 15.6945 599.249 14.5699C602.095 6.36348 604.543 2.26029 606.593 2.26029C607.045 2.24144 607.496 2.32313 607.912 2.49949C608.329 2.67585 608.702 2.94248 609.003 3.28016C609.596 3.96007 609.892 4.87222 609.892 6.01661C609.892 6.88429 609.562 8.47142 608.902 10.778C608.242 13.0845 607.246 16.1066 605.914 19.8441ZM584.731 31.9136C585.007 32.2496 585.392 32.7437 585.884 33.396C587.186 35.1906 588.389 36.0879 589.492 36.0879C589.858 36.0904 590.214 35.9645 590.497 35.7322C590.623 35.6512 590.728 35.5426 590.805 35.4147C590.882 35.2867 590.929 35.1428 590.942 34.994C590.942 34.6975 590.744 34.2034 590.349 33.5116C589.865 32.6934 589.321 31.9125 588.721 31.1754C588.128 30.3872 587.469 29.6503 586.753 28.9726C586.231 28.5101 585.812 28.2788 585.496 28.2788C584.806 28.2788 584.169 28.6484 583.586 29.3876C583.003 30.1337 582.695 31.0585 582.715 32.0055C582.737 32.9374 582.938 33.8563 583.308 34.7123C583.758 35.7876 584.35 36.7977 585.069 37.7156C586.201 39.2472 587.688 40.4804 589.403 41.3088C591.193 42.1579 593.153 42.5839 595.134 42.554C596.961 42.5865 598.772 42.2178 600.441 41.474C602.11 40.7302 603.596 39.6294 604.793 38.2492C607.386 35.3794 608.683 31.7851 608.683 27.4665C608.709 26.4079 608.609 25.35 608.386 24.315C608.26 23.6549 607.917 23.0559 607.411 22.6132C606.602 21.9432 605.029 21.3413 602.691 20.8077C600.288 20.2683 597.831 20.0007 595.368 20.0102C594.659 20.0102 594.156 20.1288 593.859 20.3659C593.563 20.6031 593.414 21.0073 593.414 21.5785C593.414 22.9206 594.163 23.892 595.662 24.4929C597.16 25.0937 599.586 25.3902 602.94 25.3823H604.153C604.279 25.3765 604.405 25.4002 604.521 25.4517C604.637 25.5032 604.739 25.5809 604.82 25.6788C605.013 25.9536 605.131 26.2748 605.161 26.6097C604.825 26.9259 604.133 27.2856 603.085 27.6888C602.242 27.9866 601.438 28.3848 600.69 28.8747C599.545 29.7161 598.58 30.7787 597.853 31.9996C597.19 33.0091 596.816 34.1812 596.773 35.3883C596.802 36.1912 596.957 36.9847 597.233 37.7393C597.447 38.2885 597.601 38.859 597.692 39.4411V39.6486L597.633 39.9154C596.765 39.8561 596.081 39.3482 595.579 38.3915C595.077 37.4349 594.826 36.1581 594.826 34.5611V34.2943C594.69 34.4181 594.535 34.5183 594.366 34.5907C594.21 34.6515 594.044 34.6817 593.877 34.6797C593.708 34.6805 593.539 34.6656 593.373 34.6352C593.193 34.6003 593.015 34.5557 592.839 34.5018C592.897 34.7113 592.941 34.9242 592.973 35.1392C592.998 35.3011 593.013 35.4645 593.017 35.6284C593.019 35.9851 592.944 36.338 592.796 36.6626C592.648 36.9872 592.431 37.2757 592.16 37.5081C591.606 38.0232 590.874 38.3037 590.118 38.2907C588.874 38.2907 587.612 37.684 586.332 36.4704C585.051 35.2568 584.409 34.0709 584.407 32.9127C584.404 32.7175 584.429 32.5228 584.482 32.3346C584.527 32.1725 584.612 32.0245 584.731 31.9047L584.731 31.9136ZM593.607 32.6222C593.784 32.6167 593.958 32.5728 594.116 32.4934C594.274 32.414 594.413 32.3012 594.523 32.1626C594.783 31.8977 594.931 31.5434 594.938 31.1724C594.938 30.7988 594.667 29.9262 594.126 28.5545C593.567 27.1528 592.889 25.8018 592.098 24.5166C591.631 23.6889 591.043 22.9362 590.352 22.2841C589.779 21.7821 589.236 21.5311 588.724 21.5311C588.309 21.5311 587.851 21.792 587.348 22.3138C586.846 22.8356 586.595 23.3238 586.595 23.7784C586.595 24.2507 586.842 24.9603 587.334 25.907C587.903 26.9705 588.567 27.9806 589.317 28.9251C590.032 29.9208 590.855 30.8337 591.772 31.6468C592.541 32.2911 593.152 32.6133 593.607 32.6133V32.6222ZM596.507 18.3321L593.311 9.09401C592.482 6.74791 591.841 5.21416 591.386 4.49274C590.932 3.77132 590.438 3.4116 589.904 3.41357C589.713 3.40987 589.523 3.45081 589.35 3.53315C589.177 3.61548 589.026 3.73695 588.908 3.88793C588.635 4.25394 588.499 4.70387 588.523 5.1598C588.523 6.06701 588.867 7.64821 589.557 9.90338C590.247 12.1586 591.283 15.1075 592.664 18.7502C592.772 18.542 592.951 18.3791 593.168 18.2906C593.454 18.1906 593.755 18.1453 594.058 18.1572C594.176 18.1572 594.412 18.1671 594.766 18.1869C595.12 18.2066 595.7 18.2531 596.507 18.3262V18.3321ZM599.848 27.2886C599.039 27.2533 598.234 27.1642 597.437 27.0218C596.697 26.8885 595.97 26.6901 595.264 26.4288C595.579 27.0613 595.859 27.6928 596.106 28.3233C596.341 28.9326 596.539 29.5553 596.699 30.1881C597.153 29.6144 597.648 29.0753 598.182 28.5753C598.7 28.1003 599.257 27.6699 599.848 27.2886ZM603.782 19.3312C605.102 15.7419 606.133 12.7772 606.874 10.437C607.615 8.09687 607.985 6.66194 607.983 6.13224C608.012 5.65955 607.881 5.19085 607.612 4.80107C607.493 4.64625 607.338 4.52239 607.16 4.43985C606.983 4.35732 606.788 4.31852 606.593 4.32671C606.041 4.32671 605.479 4.78526 604.906 5.70235C604.332 6.61944 603.701 8.09391 603.011 10.1257L600.046 18.676L603.782 19.3312Z" fill="#231F20"/>
</svg>
