<svg width="97" height="98" viewBox="0 0 97 98" fill="none" xmlns="http://www.w3.org/2000/svg">
<path opacity="0.1" d="M8 54.2526C8 78.1413 27.3655 97.5062 51.2531 97.5062C75.1407 97.5062 94.5062 78.1413 94.5062 54.2526C94.5062 30.365 75.1407 11 51.2531 11C27.3655 11 8 30.365 8 54.2526Z" fill="#20C58B"/>
<path d="M53.0437 54.1611L53.043 84.1611C55.8307 83.9785 58.5159 83.0123 61.043 81.8569V54.1611H53.0437Z" fill="#0A2E21"/>
<path d="M53.043 57.1611H61.043V53.1611H53.043V57.1611Z" fill="#786AFF"/>
<path d="M21.7421 53.2465L21.4566 66.6212C21.3575 72.502 26.0734 77.2869 32.0249 77.3899L32.2541 77.3907C38.2916 77.3462 43.307 72.2258 43.3532 66.2857L43.482 53.2465H21.7421Z" fill="url(#paint0_linear)"/>
<path d="M31.9237 28.4394C26.0289 28.5427 21.3583 33.3565 21.4566 39.272L21.7387 52.7271H43.271L43.1444 39.6096C43.0986 33.6343 38.1302 28.4834 32.1507 28.4381L31.9237 28.4394Z" fill="#FFC441"/>
<path d="M31.9237 28.4394C26.0289 28.5427 21.3583 33.3565 21.4566 39.272L21.7387 52.7271H43.271L43.1444 39.6096C43.0986 33.6343 38.1302 28.4834 32.1507 28.4381L31.9237 28.4394Z" fill="#0A2E21"/>
<path d="M27.1077 36.2763L45.2618 36.2765C46.0976 36.2768 46.7749 36.955 46.7749 37.7917L46.7749 49.5341C46.7745 50.3708 46.0975 51.0486 45.2621 51.0488L27.1079 51.049C26.2721 51.0488 25.5949 50.3705 25.5948 49.5338L25.5948 37.7918C25.5951 36.9552 26.2723 36.2761 27.1077 36.2763Z" fill="#786AFF"/>
<path d="M36.1845 46.2477L46.3166 36.7077C46.0439 36.4414 45.6727 36.2763 45.2616 36.2763L34.9838 36.2764L27.1075 36.276C26.6969 36.2761 26.3255 36.4412 26.0528 36.7074L36.1845 46.2477Z" fill="#EAEAEB"/>
<path d="M68.6073 28.6727L31.9424 28.3902L31.7382 28.3919C37.6982 28.4618 42.642 33.6013 42.6878 39.5622L42.8153 52.6788H21V54.0043H77.8112C78.8926 54.0043 79.7699 53.1342 79.7699 52.0608V40.0527C79.7229 33.8148 74.7257 28.7198 68.6073 28.6727Z" fill="url(#paint1_linear)"/>
<path d="M72.8506 38.4417C70.9613 38.4494 69.4237 39.9756 69.416 41.8509C69.4088 43.7261 70.9342 45.2405 72.823 45.2333C74.7114 45.2257 76.2487 43.699 76.2567 41.8242C76.2643 39.9531 74.7462 38.4417 72.8637 38.4417C72.8595 38.4417 72.8548 38.4417 72.8506 38.4417Z" fill="white"/>
<path d="M74.8516 24.0893C73.7705 24.04 72.8549 24.8692 72.806 25.941L72.0091 43.4111L73.9662 43.5003L74.5541 30.6033L80.4254 30.8711L80.5233 30.8731C81.5606 30.8699 82.4236 30.0587 82.471 29.0194L82.5911 26.3873C82.64 25.3155 81.8037 24.4064 80.7225 24.3571L74.8516 24.0893Z" fill="#0A2E21"/>
<defs>
<linearGradient id="paint0_linear" x1="32.4685" y1="53.2465" x2="32.4685" y2="77.3907" gradientUnits="userSpaceOnUse">
<stop stop-color="#20C58B"/>
<stop offset="1" stop-color="#27C990"/>
</linearGradient>
<linearGradient id="paint1_linear" x1="50.3849" y1="28.3902" x2="50.3849" y2="54.0043" gradientUnits="userSpaceOnUse">
<stop stop-color="#20C58B"/>
<stop offset="1" stop-color="#0AA66F" stop-opacity="0.96"/>
</linearGradient>
</defs>
</svg>
