<svg width="74" height="151" viewBox="0 0 74 151" fill="none" xmlns="http://www.w3.org/2000/svg">
<path d="M1.9476 0.5707C28.2764 3.87413 52.9237 18.6345 61.4637 42.2812C63.9663 49.3628 65.0803 57.598 62.9641 64.7515C68.6969 72.9148 72.326 82.4324 73.3274 91.548C74.9141 104.561 72.2701 118.616 62.9764 128.136C57.2536 134.071 49.3542 138.386 40.5389 139.696C44.2474 141.505 47.8357 143.638 51.0252 146.271C53.4879 148.271 51.1291 151.467 48.2336 149.77C40.1158 145.162 32.2921 141.49 23.0236 139.411C18.9841 138.496 19.2305 133.795 23.2884 133.796C28.9386 133.823 31.7903 130.161 33.0721 125.836C33.9366 122.926 39.1996 124.286 39.0541 127.273C38.83 131.337 36.5653 134.568 33.2236 136.67C33.3177 136.704 33.4118 136.738 33.5059 136.772C67.6661 135.367 75.5806 96.4201 60.5461 70.4134C59.7524 71.6911 58.7705 72.9003 57.6003 74.0412C50.0823 81.0741 37.8262 81.8713 27.138 78.7242C16.3257 75.6242 5.44344 67.5241 5.88677 56.8148C6.34174 46.9388 17.3015 42.7227 27.3637 43.5235C39.3006 44.4528 49.1766 49.792 56.8364 57.3659C57.0567 53.024 56.2755 48.5025 54.8772 44.4938C47.9004 23.2576 24.8192 8.88211 1.77589 3.91682C-0.479139 3.37372 -0.491786 0.23697 1.9476 0.5707ZM44.9286 54.052C36.773 48.9694 24.2024 45.1383 15.3958 49.3078C10.0931 51.8027 9.07913 57.4222 11.5205 62.3627C13.8979 67.1879 19.094 70.458 24.3648 72.3733C32.8357 75.4516 44.0158 75.8295 50.7139 70.4332C53.1222 68.5447 54.6795 66.0706 55.578 63.3571C52.6253 59.7968 49.0215 56.5526 44.9286 54.052Z" fill="#383886"/>
</svg>
