<svg xmlns="http://www.w3.org/2000/svg" width="205" height="84" viewBox="0 0 205 84">
  <g id="producthunt" transform="translate(-3502 -11735)">
    <g id="Component_1_51" data-name="Component 1 – 51" transform="translate(3502 11735)">
      <rect id="Rectangle_43" data-name="Rectangle 43" width="205" height="84" fill="none" opacity="0"/>
    </g>
    <g id="Group_72" data-name="Group 72" transform="translate(71 4.757)">
      <g id="Group_72-2" data-name="Group 72" transform="translate(3431 11744)">
        <g id="Rectangle_46" data-name="Rectangle 46" transform="translate(0 0.243)" fill="#fff" stroke="#ea532a" stroke-width="1">
          <rect width="205" height="57" rx="9" stroke="none"/>
          <rect x="0.5" y="0.5" width="204" height="56" rx="8.5" fill="none"/>
        </g>
        <path id="Path_670" data-name="Path 670" d="M208.57,36.484h-2.912v3.065h-.914v-6.94h4.3v.753h-3.385v2.374h2.912Zm5.492-.143h-3.008V38.8h3.494v.748h-4.409v-6.94H214.5v.753h-3.446v2.231h3.008Zm5.458,1.4h-2.908l-.653,1.811h-.944l2.65-6.94h.8l2.654,6.94h-.938Zm-2.631-.753h2.359l-1.182-3.246Zm9.342-3.623H224v6.187h-.911V33.362h-2.226v-.753h5.367Zm5.916-.753v4.719a2.213,2.213,0,0,1-.619,1.606,2.479,2.479,0,0,1-1.66.7l-.243.01a2.6,2.6,0,0,1-1.816-.615,2.2,2.2,0,0,1-.687-1.692V32.609h.906v4.7a1.679,1.679,0,0,0,2.783,1.173,1.579,1.579,0,0,0,.415-1.168v-4.7Zm3.989,4.133H234.5v2.808h-.92v-6.94h2.3a2.707,2.707,0,0,1,1.8.534,1.916,1.916,0,0,1,.635,1.554,1.865,1.865,0,0,1-.353,1.13,2.077,2.077,0,0,1-.973.72l1.63,2.946v.057h-.982Zm-1.63-.748h1.407a1.578,1.578,0,0,0,1.081-.353,1.189,1.189,0,0,0,.406-.944,1.252,1.252,0,0,0-.386-.987,1.621,1.621,0,0,0-1.106-.348h-1.4Zm9.023.348H240.52V38.8h3.494v.748H239.6v-6.94h4.361v.753H240.52v2.231h3.008Zm1.626,3.208v-6.94h1.959a3.154,3.154,0,0,1,1.6.4,2.689,2.689,0,0,1,1.073,1.139,3.7,3.7,0,0,1,.386,1.7v.443a3.694,3.694,0,0,1-.382,1.721,2.647,2.647,0,0,1-1.081,1.134,3.342,3.342,0,0,1-1.635.405Zm.914-6.187V38.8h.963a2.088,2.088,0,0,0,1.644-.658,2.71,2.71,0,0,0,.591-1.873v-.405a2.74,2.74,0,0,0-.557-1.835,1.966,1.966,0,0,0-1.573-.667ZM259.32,36.3a4.309,4.309,0,0,1-.343,1.783A2.6,2.6,0,0,1,258,39.244,2.684,2.684,0,0,1,254.1,38.1a4.161,4.161,0,0,1-.358-1.73v-.5a4.239,4.239,0,0,1,.348-1.768,2.729,2.729,0,0,1,3.908-1.177,2.572,2.572,0,0,1,.983,1.168,4.3,4.3,0,0,1,.343,1.778Zm-.91-.448a3.106,3.106,0,0,0-.5-1.892,1.763,1.763,0,0,0-2.755,0,3.047,3.047,0,0,0-.511,1.83v.51a3.136,3.136,0,0,0,.5,1.883,1.768,1.768,0,0,0,2.759.038,3.11,3.11,0,0,0,.5-1.854Zm7.616,3.694h-.92L261.613,34.2v5.348h-.92v-6.94h.92l3.5,5.372V32.609h.91Z" transform="translate(-146.45 -18.941)" fill="#ea532a"/>
        <path id="Path_671" data-name="Path 671" d="M207.332,53.316v6.017h-2.814V43.14h6.194a6.246,6.246,0,0,1,4.3,1.413,4.737,4.737,0,0,1,1.6,3.737,4.581,4.581,0,0,1-1.568,3.7,6.549,6.549,0,0,1-4.371,1.323Zm0-2.258h3.381a3.346,3.346,0,0,0,2.291-.7,2.611,2.611,0,0,0,.79-2.046,2.783,2.783,0,0,0-.8-2.091,3.073,3.073,0,0,0-2.2-.812h-3.459Zm17.795-1.29a6.692,6.692,0,0,0-1.1-.089,2.478,2.478,0,0,0-2.5,1.424v8.23h-2.7V47.3h2.58l.067,1.346a3.043,3.043,0,0,1,2.713-1.568,2.525,2.525,0,0,1,.957.156Zm.8,3.437a7.07,7.07,0,0,1,.7-3.181,5.08,5.08,0,0,1,1.969-2.18,5.518,5.518,0,0,1,2.914-.767,5.238,5.238,0,0,1,3.948,1.568,6.162,6.162,0,0,1,1.646,4.16l.011.634a7.108,7.108,0,0,1-.69,3.181,5.012,5.012,0,0,1-1.958,2.169,5.556,5.556,0,0,1-2.936.767,5.246,5.246,0,0,1-4.082-1.691,6.535,6.535,0,0,1-1.524-4.527Zm2.7.234a4.873,4.873,0,0,0,.768,2.914,2.5,2.5,0,0,0,2.135,1.045,2.454,2.454,0,0,0,2.125-1.068,5.331,5.331,0,0,0,.767-3.125,4.757,4.757,0,0,0-.79-2.892,2.633,2.633,0,0,0-4.226-.011A5.224,5.224,0,0,0,228.63,53.439Zm10.265-.211a7.13,7.13,0,0,1,1.291-4.46,4.129,4.129,0,0,1,3.459-1.691,3.925,3.925,0,0,1,3.091,1.335V42.25h2.7V59.333h-2.447l-.133-1.246a3.984,3.984,0,0,1-3.237,1.468,4.125,4.125,0,0,1-3.425-1.7A7.438,7.438,0,0,1,238.9,53.227Zm2.7.234a5.065,5.065,0,0,0,.7,2.869,2.309,2.309,0,0,0,2.013,1.023,2.551,2.551,0,0,0,2.424-1.479V50.736a2.513,2.513,0,0,0-2.4-1.446,2.306,2.306,0,0,0-2.025,1.046A5.554,5.554,0,0,0,241.6,53.461Zm17.951,4.694a4.193,4.193,0,0,1-3.381,1.4,3.754,3.754,0,0,1-2.97-1.146,4.893,4.893,0,0,1-1-3.314V47.3h2.7v7.763q0,2.291,1.9,2.291a2.672,2.672,0,0,0,2.659-1.412V47.3h2.7V59.333h-2.548Zm10.31-.756a2.447,2.447,0,0,0,1.68-.589,2.013,2.013,0,0,0,.711-1.457H274.8a4,4,0,0,1-.7,2.1,4.608,4.608,0,0,1-1.78,1.535,5.3,5.3,0,0,1-2.424.567,5.129,5.129,0,0,1-4-1.635,6.48,6.48,0,0,1-1.479-4.516v-.278a6.357,6.357,0,0,1,1.468-4.393,5.078,5.078,0,0,1,4-1.657,4.914,4.914,0,0,1,3.493,1.257,4.457,4.457,0,0,1,1.423,3.281H272.25a2.462,2.462,0,0,0-.711-1.7,2.257,2.257,0,0,0-1.68-.667,2.375,2.375,0,0,0-2.024.956,4.823,4.823,0,0,0-.722,2.881v.434a4.988,4.988,0,0,0,.7,2.925A2.394,2.394,0,0,0,269.859,57.4Zm10.366-13.024V47.3h2.124v2h-2.124v6.718a1.526,1.526,0,0,0,.267,1,1.3,1.3,0,0,0,.978.3,4.165,4.165,0,0,0,.946-.111V59.3a6.65,6.65,0,0,1-1.78.256q-3.114,0-3.114-3.437V49.3h-1.98v-2h1.98V44.374Zm22.989,14.959h-2.8v-7.2H293.17v7.2h-2.814V43.14h2.814v6.74h7.241V43.14h2.8Zm10.365-1.179a4.19,4.19,0,0,1-3.381,1.4,3.754,3.754,0,0,1-2.97-1.146,4.892,4.892,0,0,1-1-3.314V47.3h2.7v7.763q0,2.291,1.9,2.291a2.669,2.669,0,0,0,2.657-1.412V47.3h2.7V59.333h-2.547ZM321.454,47.3l.078,1.39a4.327,4.327,0,0,1,3.5-1.613q3.758,0,3.826,4.3v7.952h-2.7v-7.8a2.435,2.435,0,0,0-.5-1.691,2.051,2.051,0,0,0-1.613-.556,2.6,2.6,0,0,0-2.435,1.479v8.564h-2.7V47.3Zm13.558-2.925V47.3h2.124v2h-2.124v6.718a1.526,1.526,0,0,0,.267,1,1.3,1.3,0,0,0,.978.3,4.165,4.165,0,0,0,.946-.111V59.3a6.662,6.662,0,0,1-1.78.256q-3.114,0-3.114-3.437V49.3h-1.979v-2h1.979V44.374Z" transform="translate(-146.469 -18.116)" fill="#ea532a"/>
        <path id="Path_674" data-name="Path 674" d="M195.624,47.812A16.812,16.812,0,1,1,178.812,31,16.812,16.812,0,0,1,195.624,47.812Z" transform="translate(-150.069 -19.069)" fill="#ea532a" fill-rule="evenodd"/>
        <path id="Path_675" data-name="Path 675" d="M180.06,47.612h-4.707V42.568h4.707a2.522,2.522,0,0,1,0,5.044Zm0-8.406h-8.031V56.018h3.323V50.974h4.707a5.885,5.885,0,0,0,0-11.769Z" transform="translate(-149.22 -18.374)" fill="#fff" fill-rule="evenodd"/>
      </g>
    </g>
  </g>
</svg>
