<svg xmlns="http://www.w3.org/2000/svg" width="205" height="84" viewBox="0 0 205 84">
  <g id="sequoia" transform="translate(-3730 -11868)">
    <g id="Group_70" data-name="Group 70" transform="translate(-141.48 32.617)">
      <path id="Path_301" data-name="Path 301" d="M363.888,34.183l-2.478-4.229c1.173-2.179,1.173-4.741,1.173-8.073,0-4.229,0-7.3-2.477-9.867a8.821,8.821,0,0,0-6.779-2.691,9.3,9.3,0,0,0-6.78,2.691c-2.477,2.435-2.477,5.51-2.477,9.867,0,4.229-.13,7.3,2.477,9.867a9.018,9.018,0,0,0,6.78,2.691,10.3,10.3,0,0,0,2.086-.256ZM350.069,28.8c-.912-1.025-1.173-2.179-1.173-6.92s.261-5.895,1.173-6.92a4.461,4.461,0,0,1,6.258,0c.913,1.025,1.173,2.179,1.173,6.92s-.26,5.895-1.173,6.92a4.46,4.46,0,0,1-6.258,0Z" transform="translate(3582.036 11855.061)" fill="#3c3c3c"/>
      <path id="Path_302" data-name="Path 302" d="M429.964,9.608h4.823v24.6h-4.823Z" transform="translate(3573.192 11855.03)" fill="#3c3c3c"/>
      <path id="Path_303" data-name="Path 303" d="M298.989,34.454c-3.781,0-6.649-.769-9.126-3.2l3.129-3.076a8.347,8.347,0,0,0,6,2.05c2.868,0,4.432-1.025,4.432-3.076a2.678,2.678,0,0,0-.782-2.05,3.944,3.944,0,0,0-2.216-.9l-3-.384a8.346,8.346,0,0,1-4.823-2.05,6.62,6.62,0,0,1-1.825-4.87c0-4.357,3.259-7.433,8.734-7.433,3.39,0,6,.769,8.083,2.819l-3.129,2.947a6.777,6.777,0,0,0-5.085-1.666c-2.608,0-3.911,1.41-3.911,3.076a2.51,2.51,0,0,0,.782,1.794A4.95,4.95,0,0,0,298.6,19.46l3,.384a7.607,7.607,0,0,1,4.823,1.922,7.1,7.1,0,0,1,1.956,5.254C308.375,31.763,304.2,34.454,298.989,34.454Z" transform="translate(3587.617 11855.046)" fill="#3c3c3c"/>
      <path id="Path_304" data-name="Path 304" d="M318.348,34.212V9.608H334.9v4.229H323.3V19.6h9.908V23.96H323.3v6.023h11.6v4.229Z" transform="translate(3584.684 11855.03)" fill="#3c3c3c"/>
      <path id="Path_305" data-name="Path 305" d="M382.1,34.469c-5.084,0-9.257-3.46-9.257-8.714V9.608H377.8V25.626c0,2.819,1.695,4.485,4.3,4.485s4.3-1.666,4.3-4.485V9.608h4.823V25.754C391.23,31.008,387.189,34.469,382.1,34.469Z" transform="translate(3579.073 11855.03)" fill="#3c3c3c"/>
      <path id="Path_306" data-name="Path 306" d="M417.368,31.748a8.821,8.821,0,0,1-6.779,2.691,9.3,9.3,0,0,1-6.779-2.691c-2.478-2.435-2.478-5.51-2.478-9.867,0-4.229-.13-7.3,2.478-9.867a8.821,8.821,0,0,1,6.779-2.691,9.523,9.523,0,0,1,6.779,2.691c2.478,2.435,2.478,5.51,2.478,9.867C419.846,26.109,419.846,29.185,417.368,31.748Zm-3.65-16.787a4.461,4.461,0,0,0-6.258,0c-.912,1.025-1.173,2.179-1.173,6.92s.261,5.895,1.173,6.92a4.46,4.46,0,0,0,6.258,0c.912-1.025,1.173-2.179,1.173-6.92S414.631,15.986,413.718,14.961Z" transform="translate(3576.14 11855.061)" fill="#3c3c3c"/>
      <path id="Path_307" data-name="Path 307" d="M459.12,34.212l-1.433-4.357h-8.865l-1.564,4.357h-5.084l9.126-24.6h3.781l9.126,24.6Zm-5.867-17.428-3.129,8.97h6.258Z" transform="translate(3571.936 11855.03)" fill="#3c3c3c"/>
      <path id="Path_308" data-name="Path 308" d="M498.707,9.608h6.258v6.151h-6.258Z" transform="translate(3566.115 11855.03)" fill="#50b848"/>
      <path id="Path_309" data-name="Path 309" d="M480.908,28.958V9.608h-3.129V32.034Z" transform="translate(3568.27 11855.03)" fill="#50b848"/>
      <path id="Path_310" data-name="Path 310" d="M483.378,33.608l-3.129,3.076h22.815V33.608Z" transform="translate(3568.015 11852.56)" fill="#50b848"/>
      <path id="Path_311" data-name="Path 311" d="M487.884,22.807V9.608h-3.129V25.883Z" transform="translate(3567.551 11855.03)" fill="#50b848"/>
      <path id="Path_312" data-name="Path 312" d="M490.354,26.75l-3.129,3.076h16.558V26.75Z" transform="translate(3567.297 11853.266)" fill="#50b848"/>
      <path id="Path_313" data-name="Path 313" d="M494.86,16.656V9.608h-3.129V19.731Z" transform="translate(3566.833 11855.03)" fill="#50b848"/>
      <path id="Path_314" data-name="Path 314" d="M497.33,19.893,494.2,22.969h10.3V19.893Z" transform="translate(3566.579 11853.973)" fill="#50b848"/>
    </g>
    <g id="Component_1_49" data-name="Component 1 – 49" transform="translate(3730 11868)">
      <rect id="Rectangle_43" data-name="Rectangle 43" width="205" height="84" fill="none" opacity="0"/>
    </g>
  </g>
</svg>
