<svg xmlns="http://www.w3.org/2000/svg" width="164" height="164" viewBox="0 0 164 164"><defs><style>.a{fill:none;}.b{fill:rgba(241,241,241,0.15);}.c{fill:#fff;opacity:0.31;}.d{fill:#20c58b;}.e{fill:#f36a4f;}.f{fill:#ffd1ca;}.g{fill:#fffffe;opacity:0.36;}</style></defs><g transform="translate(-124 -215)"><rect class="a" width="164" height="164" transform="translate(124 215)"/><g transform="translate(10.986 2.634)"><g transform="matrix(0.914, -0.407, 0.407, 0.914, 124.487, 302.912)"><path class="b" d="M85.744,57.24H6.564A6.564,6.564,0,0,1,0,50.676V0H92.307V50.676a6.564,6.564,0,0,1-6.564,6.564" transform="translate(0 19.812)"/><g transform="translate(10.906 31.083)"><path class="c" d="M.359,14.076v.359H14.436V0H0V14.435H.359v-.359H.718V.718h13v13H.359v.359h0" transform="translate(36.5 0)"/><path class="c" d="M.359,14.076v.359H14.435V0H0V14.435H.359v-.359H.718V.718h13v13H.359v.359h0" transform="translate(18.25 0)"/><path class="c" d="M.359,14.076v.359H14.436V0H0V14.435H.359v-.359H.718V.718h13v13H.359v.359h0" transform="translate(0 0)"/><path class="c" d="M.359,14.076v.359H14.436V0H0V14.435H.359v-.359H.718V.718h13v13H.359v.359h0" transform="translate(36.5 17.412)"/><path class="d" d="M0,13.717H13.717V0H0Z" transform="translate(18.609 17.771)"/><path class="c" d="M.359,14.076v.359H14.435V0H0V14.435H.359v-.359H.718V.718h13v13H.359v.359h0" transform="translate(54.836 0)"/><path class="c" d="M.359,14.076v.359H14.435V0H0V14.435H.359v-.359H.718V.718h13v13H.359v.359h0" transform="translate(54.836 17.412)"/><path class="c" d="M.359,14.076v.359H14.436V0H0V14.435H.359v-.359H.718V.718h13v13H.359v.359h0" transform="translate(0 17.412)"/></g><g transform="translate(0 0)"><path class="e" d="M92.307,4.095V15.479H0V4.095A4.1,4.1,0,0,1,4.1,0H88.212a4.1,4.1,0,0,1,4.095,4.095" transform="translate(0 4.333)"/><g transform="translate(54.528 0)"><path class="f" d="M0,3.393A3.394,3.394,0,1,0,3.394,0,3.394,3.394,0,0,0,0,3.393" transform="translate(0 8.008)"/><path class="f" d="M1.945,12.675h0a1.945,1.945,0,0,0,1.946-1.944V1.945A1.945,1.945,0,0,0,0,1.945v8.786a1.945,1.945,0,0,0,1.945,1.944" transform="translate(1.449 0)"/></g><g transform="translate(24.91 0)"><path class="f" d="M0,3.393A3.394,3.394,0,1,0,3.394,0,3.394,3.394,0,0,0,0,3.393" transform="translate(0 8.008)"/><path class="f" d="M1.945,12.675h0A1.945,1.945,0,0,0,3.89,10.731V1.945a1.945,1.945,0,0,0-3.89,0v8.786a1.945,1.945,0,0,0,1.945,1.944" transform="translate(1.449 0)"/></g></g></g><path class="g" d="M8.789,39.292H3.371A3.375,3.375,0,0,1,0,35.92V18.811a3.382,3.382,0,0,1,1.01-2.4l.051-.044a3.344,3.344,0,0,1,2.31-.924H8.789a3.336,3.336,0,0,1,2.014.674,9.747,9.747,0,0,1,3.886-4.05,5.945,5.945,0,0,0,2.937-3.943,25.119,25.119,0,0,0,.6-6.607A1.516,1.516,0,0,1,19.741,0h2.593a2.634,2.634,0,0,1,.779.124,5.8,5.8,0,0,1,2.812,2.62,9.79,9.79,0,0,1,1.226,4.8,10.982,10.982,0,0,1-.508,3.278c-.267.852-.858,2.912-.572,3.624a1.251,1.251,0,0,0,.442.062h6.5a8.507,8.507,0,0,1,2.208.274,5.184,5.184,0,0,1,2.614,1.553,5.012,5.012,0,0,1,1.182,3.417,9,9,0,0,1-.235,1.953,9.361,9.361,0,0,1,.676,3.861A5.368,5.368,0,0,1,38.005,29.1c.083,1.4-.075,3.959-2.068,5.391a6.383,6.383,0,0,1-6.25,4.64H17.768a9.928,9.928,0,0,1-5.726-2.328,3.443,3.443,0,0,1-.89,1.517l-.052.049A3.354,3.354,0,0,1,8.789,39.292ZM3.371,18.468a.315.315,0,0,0-.208.067l-.035.036a.345.345,0,0,0-.1.24V35.92a.344.344,0,0,0,.343.343H8.789a.316.316,0,0,0,.2-.062l.036-.039a.346.346,0,0,0,.1-.242V18.811a.347.347,0,0,0-.1-.242.341.341,0,0,0-.24-.1ZM21.243,3.029a24.09,24.09,0,0,1-.7,5.909,8.9,8.9,0,0,1-4.416,5.79C13.761,16,12.512,19.066,12.16,21.3V32.92c.74.747,3.334,3.184,5.608,3.184H29.687a3.51,3.51,0,0,0,3.473-2.892,1.511,1.511,0,0,1,.805-1.048c1.1-.55,1.131-2.376.975-3.369a1.512,1.512,0,0,1,.585-1.53c1.365-1,1.034-3.173.335-4.724a1.493,1.493,0,0,1-.128-1.106,6.483,6.483,0,0,0,.256-1.682,2.1,2.1,0,0,0-.427-1.425,2.225,2.225,0,0,0-1.124-.623,5.478,5.478,0,0,0-1.424-.169h-6.5a3.1,3.1,0,0,1-3.217-1.9c-.758-1.829.157-4.752.458-5.712a8.033,8.033,0,0,0,.371-2.378,6.768,6.768,0,0,0-.831-3.31,3.474,3.474,0,0,0-1.039-1.208Z" transform="translate(226.07 215.43)"/></g></g></svg>