<svg xmlns="http://www.w3.org/2000/svg" width="164" height="164" viewBox="0 0 164 164"><defs><style>.a{fill:#f46b50;}.b{fill:#fffffe;}.c{fill:#fffefb;}.d{fill:#232531;}.e{fill:#fff;}.f{fill:#20c58b;}.g{fill:none;}</style></defs><g transform="translate(-1529.001 -276.999)"><g transform="translate(-32.775 120.845)"><g transform="translate(1583.491 169.156) rotate(17)"><path class="a" d="M8.526,0H68.543a8.551,8.551,0,0,1,8.525,8.525V45.353a8.552,8.552,0,0,1-8.525,8.526H48.595l-7.856,12.7a1.789,1.789,0,0,1-3.046,0l-7.855-12.7H8.526A8.551,8.551,0,0,1,0,45.353V8.525A8.55,8.55,0,0,1,8.526,0" transform="translate(0 0)"/><path class="b" d="M2.37,2.37h0a8.151,8.151,0,0,1,11.492,0l2.872,2.873L19.609,2.37A8.126,8.126,0,1,1,31.1,13.862L16.735,28.229,2.37,13.862a8.151,8.151,0,0,1,0-11.492" transform="translate(21.799 14.276)"/></g><g transform="translate(1657.853 245.81)"><path class="c" d="M55.019,27.509A27.51,27.51,0,1,1,27.51,0,27.509,27.509,0,0,1,55.019,27.509" transform="translate(11.054 6.043)"/><path class="d" d="M0,17.26H27.563V0H0Z" transform="translate(24.783 24.829)"/><path class="e" d="M.207.838l13.38,8.723a.457.457,0,0,0,.488.007L28.257.844A.456.456,0,0,0,27.78.067L13.843,8.639.705.074a.456.456,0,1,0-.5.763" transform="translate(24.327 24.374)"/><path class="f" d="M24.264,12.132A12.132,12.132,0,1,1,12.131,0,12.133,12.133,0,0,1,24.264,12.132" transform="translate(0 0)"/><path class="e" d="M.429,5.435,4.971,8.754a1.047,1.047,0,0,0,1.439-.2l5.4-6.863A1.046,1.046,0,1,0,10.169.4L5.39,6.469,1.663,3.746A1.046,1.046,0,0,0,.429,5.435" transform="translate(5.688 8.149)"/></g></g><rect class="g" width="164" height="164" transform="translate(1529.001 276.999)"/></g></svg>