<svg xmlns="http://www.w3.org/2000/svg" width="205" height="84" viewBox="0 0 205 84">
  <g id="y-combinator" transform="translate(-3572 -11871)">
    <g id="Group_69" data-name="Group 69" transform="translate(-15.17 36.349)">
      <path id="Path_297" data-name="Path 297" d="M.383.939H41.326V42.188H.383Z" transform="translate(3587.617 11855.061)" fill="#ff5a00"/>
      <path id="Path_298" data-name="Path 298" d="M118.781,9.676c.375.034.442.476.477.749.1,1.4.136,2.757.136,4.152.068,1.327.068,2.621.068,3.948a9.628,9.628,0,0,1,2.348-1.531,5.242,5.242,0,0,1,4.458.1,6.374,6.374,0,0,1,3,3.71,12.175,12.175,0,0,1,.51,4.561,9.884,9.884,0,0,1-1.668,5.071,5.378,5.378,0,0,1-2.45,1.974,5.659,5.659,0,0,1-4.9-.545,11.736,11.736,0,0,1-1.259-1.021c-.17.545-.307,1.055-.477,1.6a13.154,13.154,0,0,1-2.314-.068,17.614,17.614,0,0,0,.34-3.778c.067-4.458,0-8.917-.035-13.341a43.4,43.4,0,0,0-.272-5.173A7.494,7.494,0,0,1,118.781,9.676Zm5.718,9.189a6.856,6.856,0,0,0-2.042-.068,5.157,5.157,0,0,0-3,1.906c-.034.306,0,.579-.034.885v7.079c-.035.238.17.408.34.545a4.973,4.973,0,0,0,4.595,1.293,2.885,2.885,0,0,0,1.837-1.429,7.8,7.8,0,0,0,.885-3.267,13.154,13.154,0,0,0,.068-2.587,6.108,6.108,0,0,0-.749-2.893A2.956,2.956,0,0,0,124.5,18.865Zm10.143-8.577a2.071,2.071,0,0,1,1.5.068,2.447,2.447,0,0,1,.954,1.157,1.908,1.908,0,0,1-1.566,2.314,1.794,1.794,0,0,1-1.94-1.191A1.914,1.914,0,0,1,134.641,10.289ZM62.046,12.16a7.207,7.207,0,0,1,3.948-1.4,9.21,9.21,0,0,1,4.288.715,6.091,6.091,0,0,1,1.566.919A13.947,13.947,0,0,1,70.657,14a10.652,10.652,0,0,0-1.634-.851,6.382,6.382,0,0,0-4.493-.034,5.591,5.591,0,0,0-2.791,2.518,9.384,9.384,0,0,0-.953,2.518,22.053,22.053,0,0,0-.238,2.621c-.034,1.157-.1,2.348-.034,3.506a8.042,8.042,0,0,0,1.872,4.492,5.735,5.735,0,0,0,3.846,1.906,8.572,8.572,0,0,0,2.28-.136,13.912,13.912,0,0,0,2.553-1.055,12.271,12.271,0,0,1,1.327,1.6,17.109,17.109,0,0,1-1.94.953,11.788,11.788,0,0,1-5.65.544,8.409,8.409,0,0,1-3.676-1.872,8.979,8.979,0,0,1-2.621-3.982,12.768,12.768,0,0,1-.647-3.165,14.319,14.319,0,0,1-.034-2.416,11.834,11.834,0,0,1,.885-4.458A9.651,9.651,0,0,1,62.046,12.16Z" transform="translate(3583.879 11854.492)"/>
      <path id="Path_299" data-name="Path 299" d="M13.379,11.926a3.065,3.065,0,0,1,.544-.1c.885-.034,1.77.034,2.655.068.136-.034.2.1.238.2,1.327,2.757,2.655,5.548,4.016,8.3.306.579.545,1.157.885,1.7.272-.442.511-.919.749-1.4,1.532-2.961,2.961-5.922,4.458-8.883a21.534,21.534,0,0,1,2.961.1,13.692,13.692,0,0,1-.749,1.6c-1.974,3.778-3.982,7.556-5.956,11.333a1.087,1.087,0,0,0-.1.476v8.1H20.22v-7.9a1.5,1.5,0,0,0-.136-.851c-1.838-3.437-3.642-6.875-5.479-10.346C14.2,13.525,13.754,12.742,13.379,11.926Z" transform="translate(3586.771 11854.352)" fill="#fffefe"/>
      <path id="Path_300" data-name="Path 300" d="M175.788,13.167a19.235,19.235,0,0,1,2.417-.579c-.136,1.5-.238,3-.272,4.527,1.259.034,2.552.034,3.812.068a14.933,14.933,0,0,1-.714,1.7H177.8v4.186c0,1.089.068,2.212.035,3.3.034,1.259-.035,2.518.1,3.744a1.277,1.277,0,0,0,.953,1.021,5.457,5.457,0,0,0,2.348-.068,2.978,2.978,0,0,1,.272,1.429,5.723,5.723,0,0,1-2.28.51,3.939,3.939,0,0,1-3.1-.987c-.646-.613-.578-1.566-.681-2.382-.067-1.77-.034-3.574-.067-5.343V18.851h-2.043a15.534,15.534,0,0,1,0-1.77h2.008C175.584,15.788,175.584,14.461,175.788,13.167ZM82.74,16.741a7.116,7.116,0,0,1,1.906.2A6.141,6.141,0,0,1,88.015,19.7a7.866,7.866,0,0,1,1.123,3.676,14.877,14.877,0,0,1-.408,5.207,6.484,6.484,0,0,1-3.1,3.744,6.709,6.709,0,0,1-4.8.477,6.1,6.1,0,0,1-3.471-2.553A8.124,8.124,0,0,1,76.1,25.726a12.859,12.859,0,0,1,.442-4.561,6.72,6.72,0,0,1,2.689-3.574,5.577,5.577,0,0,1,1.906-.817A12.666,12.666,0,0,1,82.74,16.741Zm-1.225,1.974a3.341,3.341,0,0,0-2.042,1.4,7.378,7.378,0,0,0-.817,3.505,17.3,17.3,0,0,0,.068,2.655,9.115,9.115,0,0,0,.851,3.131A3.361,3.361,0,0,0,82.4,31,3.668,3.668,0,0,0,85.36,29.98a4.6,4.6,0,0,0,1.089-2.45,18.589,18.589,0,0,0,.1-3.369,9.341,9.341,0,0,0-.613-3.472,3.127,3.127,0,0,0-1.429-1.6A4,4,0,0,0,81.514,18.715Zm11.878-1.463a15.7,15.7,0,0,1,2.178-.545,6.833,6.833,0,0,1,.545,2.178c.51-.272.885-.681,1.361-.987a5.739,5.739,0,0,1,3.676-1.191,2.443,2.443,0,0,1,.851.238,6.369,6.369,0,0,1,1.293.817,6.114,6.114,0,0,1,.919,1.327,10.394,10.394,0,0,0,1.6-1.123,6.5,6.5,0,0,1,3.131-1.259,3.755,3.755,0,0,1,2.893.953,3.5,3.5,0,0,1,.884,1.123,4.822,4.822,0,0,1,.272,1.4c.17,2.484.068,5,.17,7.487v4.969c-.816,0-1.633.034-2.484,0V25.181c0-1.6.034-3.2-.1-4.8a1.951,1.951,0,0,0-.749-1.293,2.688,2.688,0,0,0-1.634-.238,5.119,5.119,0,0,0-2.519,1.293c-.34.306-.714.579-1.055.885-.1.068-.068.238-.068.34V32.6H102.1V23.854c0-.715,0-1.429-.034-2.11a5.066,5.066,0,0,0-.307-2.144,2.134,2.134,0,0,0-2.28-.647,7.634,7.634,0,0,0-3.233,1.906c-.136.1-.136.272-.136.442V32.635q-1.072.051-2.144,0c-.068-3.846-.034-7.726-.136-11.606-.034-.885-.034-1.77-.136-2.621C93.6,18,93.46,17.626,93.392,17.251Zm41.862-.136q1.174-.153,2.348-.408c.1,2.178.068,4.356.068,6.535v9.393q-1.226.051-2.451,0c-.034-4.493,0-8.951,0-13.443C135.254,18.511,135.219,17.8,135.254,17.115Zm31.55-.306a3.875,3.875,0,0,1,3.131,3.574c.1,2.587-.035,5.173,0,7.76v.783a5.86,5.86,0,0,0,.17,1.532c.1.511.579.783.953,1.089a8.768,8.768,0,0,1-1.089,1.429c-.272.238-.612-.034-.816-.17a5.139,5.139,0,0,1-1.328-1.736c-.545.306-.919.749-1.464,1.055a5.263,5.263,0,0,1-3.029.885,5.648,5.648,0,0,1-2.791-.579,4.379,4.379,0,0,1-2.144-3.914,4.869,4.869,0,0,1,1.94-3.846,9.339,9.339,0,0,1,5-1.566c.783-.068,1.6-.068,2.417-.1a13.565,13.565,0,0,0-.137-2.348,2.253,2.253,0,0,0-1.021-1.668,3.79,3.79,0,0,0-2.382-.272,8.8,8.8,0,0,0-4.118,1.7,13,13,0,0,1-.953-1.429c-.136-.238.067-.442.272-.544a10.724,10.724,0,0,1,5.343-1.668h.817A4.92,4.92,0,0,1,166.8,16.809ZM165.783,24.6a12.314,12.314,0,0,0-2.247.306,3.7,3.7,0,0,0-2.178,1.6,3.208,3.208,0,0,0-.307,1.5,4.571,4.571,0,0,0,.137,1.668,2.065,2.065,0,0,0,1.123,1.259,4.006,4.006,0,0,0,2.008.238,4.5,4.5,0,0,0,2.145-1.021,2.537,2.537,0,0,0,1.055-1.7c.1-1.259.068-2.518.1-3.778A16.576,16.576,0,0,0,165.783,24.6Zm26.683-7.76a6.04,6.04,0,0,1,3.471,2.348,7.82,7.82,0,0,1,1.328,3.2,15.4,15.4,0,0,1,.17,3.3,8.6,8.6,0,0,1-1.668,5.037,5.973,5.973,0,0,1-3.642,2.11,6.585,6.585,0,0,1-4.969-1.021,7.037,7.037,0,0,1-2.484-3.744,10.255,10.255,0,0,1-.34-2.28,18.069,18.069,0,0,1,.2-3.846,7.737,7.737,0,0,1,2.145-3.846,5.306,5.306,0,0,1,2.927-1.361A10.075,10.075,0,0,1,192.465,16.843Zm-2.689,1.838a3.115,3.115,0,0,0-2.451,2.11,9.587,9.587,0,0,0-.442,3.539,22.561,22.561,0,0,0,.238,3.369,4.2,4.2,0,0,0,.885,2.076,3.289,3.289,0,0,0,1.905,1.089,3.634,3.634,0,0,0,.851.1h.273l.272-.034a4.577,4.577,0,0,0,1.633-.511,3.086,3.086,0,0,0,1.294-1.634,8.59,8.59,0,0,0,.408-2.45,28.436,28.436,0,0,0,0-2.961,7.532,7.532,0,0,0-.681-3,4.314,4.314,0,0,0-1.8-1.6A6.16,6.16,0,0,0,189.777,18.681Zm11.843-1.4c.749-.2,1.464-.442,2.213-.613a5.58,5.58,0,0,1,.51,2.45,9.293,9.293,0,0,0,1.021-.987,4.79,4.79,0,0,1,4.118-1.429v.2c-.34.715-.545,1.5-.851,2.246-.035.136-.238.1-.34.1a3.8,3.8,0,0,0-1.941.34,5.081,5.081,0,0,0-1.5,1.327,2.849,2.849,0,0,0-.34,1.838c-.035.885-.068,1.77-.035,2.655V32.6q-1.224.051-2.45,0v-8c0-1.8,0-3.642-.068-5.445C201.893,18.545,201.688,17.932,201.62,17.285Zm-59.117.034a7.205,7.205,0,0,1,2.212-.51,10.012,10.012,0,0,1,.545,2.212c.646-.408,1.191-.953,1.872-1.327a5.165,5.165,0,0,1,4.322-.749,4.293,4.293,0,0,1,2.213,1.566,3.933,3.933,0,0,1,.578,1.974c.136,2.416.1,4.833.1,7.283,0,1.634.034,3.233.034,4.867q-1.226.051-2.45,0c0-2.655-.068-5.343-.068-8-.034-1.5.035-2.961-.136-4.458a1.94,1.94,0,0,0-1.668-1.327,4,4,0,0,0-1.668.17,11.658,11.658,0,0,0-3.166,1.94c-.034,3.88,0,7.794,0,11.674-.714,0-1.429.034-2.144,0,0-2.212-.068-4.424-.068-6.637-.034-2.28,0-4.527-.137-6.807A11.315,11.315,0,0,0,142.5,17.319Z" transform="translate(3582.688 11854.303)"/>
    </g>
    <g id="Component_1_48" data-name="Component 1 – 48" transform="translate(3572 11871)">
      <rect id="Rectangle_43" data-name="Rectangle 43" width="205" height="84" fill="none" opacity="0"/>
    </g>
  </g>
</svg>
