<svg width="111" height="104" viewBox="0 0 111 104" fill="none" xmlns="http://www.w3.org/2000/svg">
<path d="M110.625 103.087C110.625 96.2732 109.284 89.5257 106.676 83.2302C104.069 76.9356 100.247 71.2162 95.4292 66.3982C90.6117 61.5794 84.8921 57.7566 78.5972 55.1482C72.3025 52.5405 65.5557 51.1983 58.7422 51.1982V103.087H110.625Z" fill="#94C0D4"/>
<path d="M51.75 0C38.025 0 24.8622 5.45222 15.1572 15.1572C5.45222 24.8622 0 38.025 0 51.75C0 65.475 5.45222 78.6378 15.1572 88.3428C24.8622 98.0478 38.025 103.5 51.75 103.5V0Z" fill="#786AFF"/>
<path d="M79.3552 42.9209C90.7394 42.9209 99.9682 33.6913 99.9682 22.3059C99.9682 10.9206 90.7394 1.69092 79.3552 1.69092C67.9709 1.69092 58.7422 10.9206 58.7422 22.3059C58.7422 33.6913 67.9709 42.9209 79.3552 42.9209Z" fill="#FFD726"/>
</svg>
