<svg xmlns="http://www.w3.org/2000/svg" width="199.077" height="210.702" viewBox="0 0 199.077 210.702"><defs><style>.a{fill:#fefefe;}.b{fill:#13375b;}.c{fill:#4e6c87;}.d{fill:#f9e899;}.e{fill:#f3eded;}</style></defs><path class="a" d="M872.028,928.359l-6.686,21.485-21.053-30.806.006-.026s-7.726-3.928-9.663-4.294c-1.73-.327-7.28-.851-8.149.077a.3.3,0,0,0-.176-.132c-.736-.187-2.091,2.3-2.281,2.9s1.336,4.106,1.474,4.37-.393.406-1.063.151a17.344,17.344,0,0,1-2.776-2.682s-.2-3.925-1.466-3.9-.114,4.93-.114,4.93l1.227,1.644-1.817-1.1s-1.245-2.642-1.575-2.5-.773,1.479-.083,2.865a13.94,13.94,0,0,0,2.181,2.892l2.755,1.417s-3.2-.278-4.146-.994-1.327.29-.58,1.142,4.968,2.311,7.636,2.6a93.61,93.61,0,0,0,12.183-.144c.973-.179,2.781-.461,3.682.046,1.183,3.457,11.454,40.9,23.881,45.273,0,0,5.738-.753,12.277-15.635S887.747,934.1,887.747,934.1ZM833.4,920.733a13.33,13.33,0,0,1-5.123.222c-.872-.318-2.2-3.691-2.2-3.691a8.531,8.531,0,0,0,.482-1.767c.975,1.063,5.1.591,6.034,1.188C833.611,917.333,834.33,920.384,833.4,920.733Z" transform="translate(-817.468 -834.951)"/><path class="a" d="M1496.528,920.161s3.812,8.822,10.862,23.469,12.811,15.2,12.811,15.2c12.268-4.8,21.239-42.576,22.3-46.072.883-.538,2.7-.319,3.679-.173a93.677,93.677,0,0,0,12.182-.277c2.657-.379,6.825-1.983,7.542-2.861s.3-1.87-.619-1.121-4.109,1.136-4.109,1.136l2.7-1.512a13.94,13.94,0,0,0,2.079-2.966c.641-1.41.153-2.733-.183-2.86s-1.487,2.556-1.487,2.556l-1.777,1.163,1.169-1.685s.979-4.945-.285-4.923-1.33,3.952-1.33,3.952a17.341,17.341,0,0,1-2.682,2.776c-.661.278-1.2.154-1.068-.114s1.532-3.822,1.322-4.418-1.651-3.034-2.38-2.822a.3.3,0,0,0-.171.138c-.9-.9-6.429-.181-8.147.205-1.924.433-9.509,4.626-9.509,4.626l.007.025-19.975,31.516-7.425-21.241Zm54.51-19.312c.91-.629,5.052-.3,5.989-1.4a8.541,8.541,0,0,0,.543,1.75s-1.206,3.417-2.066,3.765a13.328,13.328,0,0,1-5.128-.044C1549.438,904.606,1550.051,901.532,1551.038,900.849Z" transform="translate(-1367.196 -822.034)"/><path class="b" d="M998.683,1244.972a139.519,139.519,0,0,0-22.122-8.627c-17.1-5.069-40.13-8.426-53.2,2.473-7.687,6.41,71.847,14.864,71.847,14.864Z" transform="translate(-902.768 -1091.832)"/><path class="b" d="M1392.255,1244.689s-7.57-11.106-27.042-10.848c-7.585.1-18.1,1.608-27.676,3.5a273.293,273.293,0,0,0-33.2,9.063l-1.517,9.1Z" transform="translate(-1210.378 -1093.652)"/><path class="b" d="M1190.9,1270.8l34.6,16.85,27.073-21.642-8.88-19.435-49.058,3.081Z" transform="translate(-1119.776 -1103.96)"/><path class="c" d="M1217.235,541.57c-3.874-7.894-4.08-22.811-1.044-31.569,2.457-7.087,8.34-11.126,15.916-11.95,8.787-.956,14.39.769,21.237,5.243,7.129,4.658,15.65,9.706,23.845,11.762,10.686,2.681,21.717,4.655,31.5,9.731,6.454,3.351,12.458,8.329,15.037,15.129,3.691,9.731-.535,20.936-7.357,28.8a48.582,48.582,0,0,1-73.75-.359,71.669,71.669,0,0,0-10.607-10.617C1226.516,553.424,1220.355,547.928,1217.235,541.57Z" transform="translate(-1138.558 -497.795)"/><g transform="translate(50.499 52.339)"><path class="d" d="M1235.454,774.421s-13.514-1.35-26.83-1.777c-11.883-.38-24.6,1.817-25.435,2.681-3.325,3.442-4.526,33.015-2.667,38.472s10.534,19.619,8.929,28.861-4.923,22.125-4.923,22.125a56.066,56.066,0,0,0,25.552,6.355c8.554-.062,20.4-1.764,27.743-7.193,0,0-4.287-11.463-3.855-20.489s5.068-24.4,7.52-29.93S1239.979,775.323,1235.454,774.421Z" transform="translate(-1161.165 -772.601)"/><path class="d" d="M1109.971,788.814l-5.093-2.586s-5.773,1.646-8.768,5.962c-2.461,3.547-13.5,35.719-13.5,35.719s15.4,6.008,20.292,5.727l7.5-19.735Z" transform="translate(-1082.612 -783.633)"/><path class="d" d="M1444.425,784.806l5.465-2.641s3.478.707,7.939,5.885c2.818,3.271,15.291,34.881,15.291,34.881s-15.179,6.536-20.083,6.425l-8.179-19.464Z" transform="translate(-1375.515 -780.343)"/></g><path class="a" d="M1301.257,673.108s.926,13.2,1.766,17.41c.868,4.346,2.027,24.326-7,26.7s-6.8-22.575-7.024-26.98-2.292-19.508-2.292-19.508Z" transform="translate(-1197.334 -637.792)"/><path class="e" d="M1286.7,670.729s.417,3.048.9,6.8c3.381,2.558,8.005,3.2,13.3.061.229-.135.445-.28.663-.422-.191-2.366-.31-4.062-.31-4.062Z" transform="translate(-1197.334 -637.792)"/><path class="a" d="M1268.982,520.041a15.511,15.511,0,0,1,8.494,6.567c3.155,5.178,4.943,20.175-6.225,26.781s-19.353-3.527-19.177-13.142S1254.729,517.876,1268.982,520.041Z" transform="translate(-1169.297 -515.607)"/><path class="a" d="M1237.56,588.614c.857,2.35,2.661,3.85,4.03,3.35s1.783-2.808.926-5.158-2.661-3.85-4.03-3.35S1236.7,586.264,1237.56,588.614Z" transform="translate(-1157.189 -567.063)"/><path class="c" d="M1332.443,519.143s6.352,15.608,12.332,17.18,5.638,9.309,5.638,9.309.453-17.879-5.059-22.165S1332.443,519.143,1332.443,519.143Z" transform="translate(-1234.362 -515.077)"/><path class="a" d="M1382.413,610.707c-.875,2.472-.23,4.956,1.441,5.547s3.735-.933,4.61-3.4.23-4.956-1.44-5.547S1383.288,608.235,1382.413,610.707Z" transform="translate(-1274.498 -586.342)"/><path class="a" d="M947.26,1381.633a26.363,26.363,0,0,0-8.731-4.547c-4.737-1.256-4.644,2.216-5.862,7.571s-3.269,8.867-5.863,14.06.584,17.018,2.038,17.172c3.514.37,5.143-7.153,8.469-13.572s12.6-8.576,15.3-8.863a195.621,195.621,0,0,1,28.709-1.839c-3.391-6.454-8.292-11.717-13.324-17.334C955.724,1378.536,947.26,1381.633,947.26,1381.633Z" transform="translate(-905.181 -1207.347)"/><path class="c" d="M1280.692,1272.918c-1.651-8.335-8.635-11.737-16.7-11.529-18.588.48-70.994,12.457-102.19,22.245,1.866,6.715.436,11.1,2.661,18.009,33.044-1.759,95.051-6.906,112.977-17.237C1280.232,1282.8,1281.491,1276.948,1280.692,1272.918Z" transform="translate(-1096.22 -1115.949)"/><path class="a" d="M1487.122,1405.072c-2.347-5.309-4.707-8.811-5.672-14.218-1.142-6.4-.608-9.971-8.456-6.94a18.862,18.862,0,0,1-13.961-.068c-2.935-1.2-6.563-2.68-10.684-4.335a49.089,49.089,0,0,0-4.762,17.776c9.756,1,16.867,1.988,17.228,2.026,1.569.162,12.147,2.394,15.167,8.962s4.377,14.744,7.822,13.955C1485.806,1421.772,1489.47,1410.381,1487.122,1405.072Z" transform="translate(-1324.338 -1211.582)"/><path class="c" d="M928.745,1245.935c-7.312-.2-19.952,1.176-21.843,9.433a24.028,24.028,0,0,0,1.055,13.39c2.034,4.709,6.717,7.274,11.365,9.266,8.859,3.755,63.728,9.578,92,12.489,3.337-6.041,6.1-12.757,5.889-18.631C989.915,1260.921,942.754,1246.325,928.745,1245.935Z" transform="translate(-889.465 -1103.431)"/></svg>