<svg width="90" height="91" viewBox="0 0 90 91" fill="none" xmlns="http://www.w3.org/2000/svg">
<path d="M66.1024 50.47C62.4285 50.4696 58.837 51.5643 55.782 53.6156C52.7271 55.667 50.346 58.5828 48.9398 61.9944C47.5336 65.4061 47.1656 69.1602 47.8821 72.7821C48.5987 76.404 50.3678 79.7309 52.9655 82.3422C55.5633 84.9535 58.8732 86.7318 62.4765 87.4523C66.0798 88.1727 69.8147 87.8029 73.209 86.3897C76.6032 84.9765 79.5043 82.5833 81.5453 79.5128C83.5863 76.4422 84.6756 72.8323 84.6754 69.1395C84.6751 64.1883 82.7183 59.4399 79.2353 55.9388C75.7522 52.4377 71.0283 50.4705 66.1024 50.47ZM74.5274 70.6914L62.2914 84.7514C62.0938 84.9801 61.8214 85.1304 61.5234 85.1752C61.2253 85.22 60.9211 85.1563 60.6656 84.9957C60.4101 84.8351 60.22 84.5881 60.1296 84.2992C60.0392 84.0102 60.0543 83.6983 60.1724 83.4196L64.2994 73.5692L58.4644 71.0513C58.1474 70.9151 57.867 70.7053 57.6462 70.4391C57.4254 70.1729 57.2705 69.8579 57.1942 69.52C57.1179 69.182 57.1223 68.8307 57.2072 68.4948C57.2921 68.1589 57.4549 67.848 57.6824 67.5876L69.9174 53.5276C70.1153 53.301 70.387 53.1524 70.6838 53.1085C70.9807 53.0645 71.2834 53.1281 71.5379 53.2878C71.7925 53.4474 71.9822 53.6929 72.0734 53.9802C72.1645 54.2676 72.151 54.5781 72.0354 54.8564L67.9084 64.7068L73.7384 67.2247C74.0565 67.3601 74.3381 67.5694 74.56 67.8355C74.7819 68.1016 74.9377 68.4168 75.0148 68.7553C75.0918 69.0938 75.0878 69.4458 75.0031 69.7824C74.9183 70.119 74.7553 70.4305 74.5274 70.6914Z" fill="#20C58B"/>
<path d="M39.9656 67.1763C39.9656 67.4688 40.0256 67.7462 40.0496 68.0337C40.335 62.8447 42.0237 57.8323 44.9336 53.5365V26.0961C44.9154 24.7532 45.4285 23.458 46.3601 22.4952C47.2917 21.5324 48.5656 20.9809 49.9016 20.9618H60.0856C60.6503 24.0398 62.3403 26.794 64.8231 28.6829C67.306 30.5718 70.4021 31.4586 73.5026 31.1691C76.6054 30.8037 79.4638 29.2965 81.5265 26.9383C83.5893 24.58 84.7104 21.5376 84.6736 18.3977C84.7104 15.2578 83.5893 12.2154 81.5265 9.85713C79.4638 7.49886 76.6054 5.99173 73.5026 5.62635C70.4025 5.33667 67.3068 6.2231 64.824 8.11137C62.3412 9.99964 60.651 12.7532 60.0856 15.8306H49.9016C47.2293 15.8684 44.6813 16.9716 42.818 18.8974C40.9548 20.8232 39.9287 23.414 39.9656 26.1001V41.5029H29.7816C29.216 38.4257 27.5257 35.6724 25.0429 33.7844C22.5601 31.8963 19.4645 31.01 16.3646 31.2997C13.2759 31.6997 10.4379 33.2168 8.38136 35.5673C6.32478 37.9178 5.19043 40.9409 5.19043 44.0711C5.19043 47.2013 6.32478 50.2243 8.38136 52.5748C10.4379 54.9254 13.2759 56.4425 16.3646 56.8424C19.4646 57.1321 22.5604 56.2457 25.0432 54.3574C27.526 52.4691 29.2162 49.7156 29.7816 46.6382H39.9656V67.1763ZM72.2566 10.6963C74.2607 10.7246 76.1716 11.5519 77.5691 12.9961C78.9665 14.4403 79.7361 16.3833 79.7086 18.3977C79.7453 19.4042 79.5797 20.4077 79.2219 21.3484C78.864 22.2892 78.3211 23.1477 77.6257 23.8728C76.9303 24.5979 76.0966 25.1746 75.1744 25.5685C74.2523 25.9624 73.2606 26.1654 72.2586 26.1654C71.2566 26.1654 70.2649 25.9624 69.3427 25.5685C68.4206 25.1746 67.5869 24.5979 66.8915 23.8728C66.196 23.1477 65.6532 22.2892 65.2953 21.3484C64.9374 20.4077 64.7719 19.4042 64.8086 18.3977C64.7811 16.3833 65.5507 14.4403 66.9481 12.9961C68.3456 11.5519 70.2565 10.7246 72.2606 10.6963H72.2566ZM17.6106 51.7725C15.6122 51.7212 13.7129 50.8872 12.3176 49.4484C10.9223 48.0096 10.1413 46.0798 10.1413 44.0706C10.1413 42.0613 10.9223 40.1315 12.3176 38.6927C13.7129 37.2539 15.6122 36.42 17.6106 36.3687C19.6089 36.42 21.5082 37.2539 22.9036 38.6927C24.2989 40.1315 25.0798 42.0613 25.0798 44.0706C25.0798 46.0798 24.2989 48.0096 22.9036 49.4484C21.5082 50.8872 19.6089 51.7212 17.6106 51.7725Z" fill="#414141"/>
</svg>
