<svg xmlns="http://www.w3.org/2000/svg" width="98.545" height="96" viewBox="0 0 98.545 96">
  <g id="Import_Contacts" transform="translate(-499 -675)">
    <rect id="Rectangle_139143" data-name="Rectangle 139143" width="96" height="96" transform="translate(499 675)" fill="none"/>
    <g id="Group_97297" data-name="Group 97297" transform="translate(3.097 1.59)">
      <path id="Path_71795" data-name="Path 71795" d="M131.215,320.522l.639,3.326,1.743-2.9,3.706-6.177,6.784-1.85,2.955-.806-2.637-1.558-14.571-8.61-2.473-1.462.543,2.821Z" transform="translate(444.861 439.311)" fill="#87eac7" stroke="#000" stroke-linecap="square" stroke-width="2"/>
      <g id="contact" transform="translate(500.662 676.696)">
        <rect id="Rectangle_139162" data-name="Rectangle 139162" width="64" height="64" rx="15" transform="translate(3.241 2.714)" fill="#353535"/>
        <path id="Path_71793" data-name="Path 71793" d="M39.829,15.415c7.779.147,14.536,7.737,13.427,15.655a14.193,14.193,0,0,1-13.6,11.819c-7.914,0-14.987-7.981-13.523-16.166A14.072,14.072,0,0,1,39.475,15.415C39.652,15.413,39.652,15.413,39.829,15.415Zm-.3,4.27c-6.256.119-11.34,7.494-8.411,13.567C33.684,38.575,41.753,40.225,46.181,36c5.176-4.935,2.439-16.149-6.407-16.318Zm.335,26.052A23.213,23.213,0,0,1,60.148,58.572c.789,1.623-.808,3.806-2.632,3.081-1.353-.538-1.72-2.318-2.588-3.584-5.238-7.642-16.587-10.327-24.74-5.459a18.836,18.836,0,0,0-7.265,7.984A2.672,2.672,0,0,1,21.1,61.8c-1.674.08-2.737-1.767-1.583-3.941A23.207,23.207,0,0,1,39.864,45.736Z" transform="translate(-4.643 -3.588)" fill="#fff"/>
      </g>
    </g>
  </g>
</svg>
