<svg xmlns="http://www.w3.org/2000/svg" width="96" height="96" viewBox="0 0 96 96">
  <g id="Transactional_emails" transform="translate(-495 -675)">
    <rect id="Rectangle_139143" data-name="Rectangle 139143" width="96" height="96" transform="translate(495 675)" fill="none"/>
    <g id="Group_77022" data-name="Group 77022" transform="translate(501.083 678.083)">
      <g id="Group_97120" data-name="Group 97120" transform="translate(10.363 5.228)">
        <path id="Path_18146" data-name="Path 18146" d="M37.759,42.517a6.759,6.759,0,1,1,6.759-6.759A6.779,6.779,0,0,1,37.759,42.517Z" transform="translate(14.621 11.552)" fill="#414141"/>
        <path id="Path_18147" data-name="Path 18147" d="M43.069,62.931A17.272,17.272,0,0,1,29.89,56.679l5.238-4.224a10.348,10.348,0,0,0,7.941,3.886,10.138,10.138,0,1,0,0-20.276,12.289,12.289,0,0,0-4.9,1.183L35.3,38.938,23.3,17.31l5.914-3.21,8.955,15.883a17.7,17.7,0,0,1,5.069-.845,16.9,16.9,0,1,1-.169,33.793Z" transform="translate(9.31 1.276)" fill="#414141"/>
        <path id="Path_18148" data-name="Path 18148" d="M20.9,56.586A16.913,16.913,0,0,1,16.672,23.3l1.69,6.59a10.292,10.292,0,0,0-7.6,9.8,10.138,10.138,0,0,0,20.276,0V36.31H56.379v6.759H37.455A16.859,16.859,0,0,1,20.9,56.586Z" transform="translate(-4 7.621)" fill="#414141"/>
        <path id="Path_18149" data-name="Path 18149" d="M16.759,42.517a6.759,6.759,0,1,1,6.759-6.759A6.779,6.779,0,0,1,16.759,42.517Z" transform="translate(0.136 11.552)" fill="#414141"/>
        <path id="Path_18150" data-name="Path 18150" d="M27.759,24.517a6.759,6.759,0,1,1,6.759-6.759A6.779,6.779,0,0,1,27.759,24.517Z" transform="translate(7.725 -0.863)" fill="#414141"/>
        <path id="Path_18151" data-name="Path 18151" d="M18.045,54,12.3,50.621l9.969-16.39a16.819,16.819,0,1,1,27.879-8.11l-6.59-1.69A13.043,13.043,0,0,0,43.9,21.9a10.138,10.138,0,1,0-15.376,8.617l2.872,1.69Z" transform="translate(1.725 -5)" fill="#414141"/>
      </g>
      <rect id="Canvas" width="90" height="90" transform="translate(-3.083 -0.083)" fill="#786aff" opacity="0"/>
      <g id="Group_97121" data-name="Group 97121">
        <path id="Path_71560" data-name="Path 71560" d="M20.386,0A20.387,20.387,0,0,1,34.325,35.264a20.109,20.109,0,0,1-13.938,5.509A20.386,20.386,0,0,1,20.386,0Z" transform="translate(45.098 46.819)" fill="#fff"/>
        <path id="Path_38963" data-name="Path 38963" d="M27.575,9A18.575,18.575,0,1,0,46.148,27.574,18.575,18.575,0,0,0,27.575,9ZM36,29.118,23.764,43.106a1.265,1.265,0,0,1-2.119-1.325l4.127-9.8-5.835-2.505a2.182,2.182,0,0,1-.782-3.446L31.39,12.042a1.265,1.265,0,0,1,2.118,1.322l-4.127,9.8,5.83,2.505A2.182,2.182,0,0,1,36,29.118Z" transform="translate(38.444 40.787)" fill="#20c58b"/>
      </g>
    </g>
  </g>
</svg>
