<svg width="96" height="97" viewBox="0 0 96 97" fill="none" xmlns="http://www.w3.org/2000/svg">
<path d="M56.3719 11.3996H42.8439C42.1544 9.52437 40.9098 7.90651 39.2777 6.76387C37.6456 5.62123 35.7044 5.00867 33.7154 5.00867C31.7264 5.00867 29.7852 5.62123 28.1531 6.76387C26.521 7.90651 25.2764 9.52437 24.5869 11.3996H11.0599C10.6232 11.3926 10.187 11.4354 9.75991 11.5273C8.52649 11.7845 7.39334 12.3947 6.49691 13.2842C5.90472 13.868 5.43184 14.5625 5.10491 15.3287C4.76303 16.1031 4.58657 16.941 4.58691 17.7883V62.5061C4.59321 63.363 4.76931 64.2101 5.10491 64.9978C5.43981 65.7593 5.91173 66.4521 6.49691 67.0413C7.39498 67.9319 8.53034 68.5421 9.76591 68.7983C10.1944 68.8647 10.6273 68.8983 11.0609 68.8988H56.3719C58.0725 68.9095 59.7081 68.2431 60.9212 67.0452C62.1344 65.8473 62.8264 64.2153 62.8459 62.5061V17.7883C62.8253 16.0797 62.1329 14.4488 60.9198 13.2518C59.7068 12.0547 58.0718 11.3889 56.3719 11.3996ZM30.4789 47.0822L25.9149 51.6174L14.2969 40.1467L25.9159 28.68L30.4799 33.2152L23.4569 40.1507L30.4789 47.0822ZM33.7159 15.3971C33.2463 15.3885 32.7896 15.2408 32.4032 14.9723C32.0169 14.7038 31.718 14.3266 31.5442 13.888C31.3703 13.4494 31.3293 12.969 31.4261 12.507C31.523 12.045 31.7535 11.6221 32.0886 11.2913C32.4238 10.9606 32.8487 10.7367 33.31 10.6478C33.7713 10.5589 34.2485 10.6089 34.6816 10.7917C35.1147 10.9744 35.4844 11.2816 35.7444 11.6748C36.0044 12.068 36.143 12.5297 36.1429 13.0018C36.1314 13.6407 35.8704 14.2495 35.4164 14.6968C34.9624 15.1441 34.3517 15.3942 33.7159 15.393V15.3971ZM41.5159 51.6184L36.9519 47.0832L43.9749 40.1477L36.9519 33.2122L41.5159 28.677L53.1359 40.1467L41.5159 51.6184Z" fill="#414141"/>
<path d="M77.0757 85.5971L77.7147 88.9402L79.4577 86.0253L83.1637 79.8165L89.9477 77.957L92.9027 77.1468L90.2657 75.5808L75.6947 66.9266L73.2217 65.457L73.7647 68.2926L77.0757 85.5971Z" fill="#786AFF" stroke="black" stroke-width="2" stroke-linecap="square"/>
</svg>
