<svg xmlns="http://www.w3.org/2000/svg" width="96" height="96" viewBox="0 0 96 96">
  <g id="Sending_campaign" transform="translate(-499 -675)">
    <rect id="Rectangle_139143" data-name="Rectangle 139143" width="96" height="96" transform="translate(499 675)" fill="none"/>
    <g id="Group_100435" data-name="Group 100435">
      <path id="Path_58164" data-name="Path 58164" d="M0,0H88.544V88.544H0ZM0,0H88.544V88.544H0Z" transform="translate(503.159 679.159)" fill="none"/>
      <path id="Path_58166" data-name="Path 58166" d="M58.631,4H8.292a6.284,6.284,0,0,0-6.261,6.292L2,48.047a6.311,6.311,0,0,0,6.292,6.292H58.631a6.311,6.311,0,0,0,6.292-6.292V10.292A6.311,6.311,0,0,0,58.631,4Zm0,12.585L33.462,32.316,8.292,16.585V10.292l25.17,15.731L58.631,10.292Z" transform="translate(513.97 683.074)" fill="#414141"/>
      <path id="View_Detail" data-name="View Detail" d="M6.656,25.063a2.19,2.19,0,0,0,4.245-.2l3.752-10.75,4.014,12.043c.823,2.47,3.513,2.267,3.944-.31L25.926,5.952l3.632,7.266a1.633,1.633,0,1,0,2.921-1.461L27.333,1.465a2.083,2.083,0,0,0-4.073.612L20.2,20.431,16.754,10.087a2.1,2.1,0,0,0-4.148-.012L8.615,21.488,7.053,18.037A2.377,2.377,0,0,0,2.659,17.8L.219,21.947A1.633,1.633,0,0,0,3.033,23.6L4.7,20.767Z" transform="translate(552.629 738.737)" fill="#20c58b"/>
    </g>
  </g>
</svg>
