<svg id="A_B_Testing" data-name="A/B  Testing" xmlns="http://www.w3.org/2000/svg" width="40" height="40" viewBox="0 0 40 40">
  <rect id="Canvas" width="40" height="40" fill="#786aff" opacity="0"/>
  <path id="Path_57673" data-name="Path 57673" d="M4.928,18.034,3.475,22.463a.262.262,0,0,1-.291.214H.54c-.159,0-.211-.08-.186-.269L5.8,6.679a4.159,4.159,0,0,0,.238-1.444c0-.111.053-.188.159-.188H9.872c.132,0,.159.027.186.161L16.168,22.44c.027.161,0,.241-.159.241H13.044a.264.264,0,0,1-.264-.161L11.24,18.034ZM10.4,15.108c-.556-1.771-1.8-5.5-2.327-7.381H8.047c-.423,1.8-1.48,4.939-2.273,7.381Z" transform="translate(0.426 6.169)" fill="#786aff"/>
  <path id="Path_57674" data-name="Path 57674" d="M10.16,24.336c-.027.111-.079.134-.184.134H7.781c-.132,0-.159-.053-.132-.161L12.857,4.635c.027-.111.053-.111.159-.111h2.222c.111,0,.132.027.111.134Z" transform="translate(9.338 5.529)" fill="#786aff"/>
  <path id="Path_57675" data-name="Path 57675" d="M12,5.342c0-.134.027-.214.159-.241.951-.027,3.357-.08,5.128-.08,5.524,0,6.371,2.952,6.371,4.667a4.21,4.21,0,0,1-1.667,3.489,4.5,4.5,0,0,1,2.538,4.16c0,3.382-2.881,5.422-7.243,5.422-2.3,0-4.1-.027-5.1-.053A.2.2,0,0,1,12,22.494Zm3.146,6.764h2.009a16.05,16.05,0,0,1,2.406.161,2.556,2.556,0,0,0,1-2.12c0-1.583-1.163-2.362-3.333-2.362-.846,0-1.533.027-2.088.027Zm0,7.889c.581.027,1.242.053,2.036.053,2.484.027,4.071-.832,4.071-2.63a2.246,2.246,0,0,0-1.9-2.333,6.855,6.855,0,0,0-1.793-.188h-2.41Z" transform="translate(14.667 6.137)" fill="#fa9797"/>
</svg>
