<svg xmlns="http://www.w3.org/2000/svg" width="40" height="40" viewBox="0 0 40 40"><defs><style>.a,.c{fill:#786aff;}.a{opacity:0;}.b{fill:#fa9797;}</style></defs><rect class="a" width="40" height="40"/><path class="b" d="M6.353,8.817A4.333,4.333,0,1,0,2.02,4.483,4.333,4.333,0,0,0,6.353,8.817Z" transform="translate(2.468 0.183)"/><path class="b" d="M11.353,8.817A4.333,4.333,0,1,0,7.019,4.483a4.333,4.333,0,0,0,4.333,4.333Z" transform="translate(8.579 0.183)"/><path class="b" d="M16.353,8.817A4.333,4.333,0,1,0,12.02,4.483,4.333,4.333,0,0,0,16.353,8.817Z" transform="translate(14.69 0.183)"/><path class="c" d="M30.081,5.007h-.444A6.818,6.818,0,0,0,24.3,7.077a6.821,6.821,0,0,0-5.333-2.07h-.444a6.818,6.818,0,0,0-5.333,2.07,6.821,6.821,0,0,0-5.333-2.07H7.414C3.858,5.007.969,6.785.969,10.341v8a1.111,1.111,0,0,0,1.111,1.111H3.192L4.3,30.563a1.111,1.111,0,0,0,1.111,1.111H9.858a1.111,1.111,0,0,0,1.111-1.111l1.111-11.111H14.3l1.111,11.111a1.111,1.111,0,0,0,1.111,1.111h4.444a1.111,1.111,0,0,0,1.111-1.111l1.111-11.111h2.222l1.111,11.111a1.111,1.111,0,0,0,1.111,1.111h4.444a1.111,1.111,0,0,0,1.111-1.111L34.3,19.452h1.111a1.111,1.111,0,0,0,1.111-1.111v-8C36.525,6.785,33.639,5.007,30.081,5.007Z" transform="translate(1.185 6.104)"/></svg>