<svg xmlns="http://www.w3.org/2000/svg" width="40" height="40" viewBox="0 0 40 40"><defs><style>.a,.b{fill:#786aff;}.a{opacity:0;}.c{fill:#fa9797;}</style></defs><rect class="a" width="40" height="40"/><g transform="translate(2 0.944)"><path class="b" d="M10.278,15.278H5.139A1.028,1.028,0,0,1,4.111,14.25V5H1.028A1.028,1.028,0,0,0,0,6.028V22.472A1.028,1.028,0,0,0,1.028,23.5H18.5V19.389H11.306a1.028,1.028,0,0,1-1.028-1.028Z" transform="translate(0 5.277)"/><g transform="translate(6.167 2.056)"><path class="b" d="M7.111,4.083A1.028,1.028,0,0,1,8.139,3.056H25.611V2.028A1.028,1.028,0,0,0,24.583,1H4.028A1.028,1.028,0,0,0,3,2.028V16.417a1.028,1.028,0,0,0,1.028,1.028H7.111Z" transform="translate(-3 -1)"/><path class="b" d="M7.111,4.083A1.028,1.028,0,0,1,8.139,3.056H25.611V2.028A1.028,1.028,0,0,0,24.583,1H4.028A1.028,1.028,0,0,0,3,2.028V16.417a1.028,1.028,0,0,0,1.028,1.028H7.111Z" transform="translate(-3 -1)"/></g><path class="c" d="M10.51,7.027a.508.508,0,0,0-.51.514V27.872a.509.509,0,0,0,.87.364l5.821-5.848h8.222c.458,0,.493-.746.232-1.007L10.87,7.177A.506.506,0,0,0,10.51,7.027Z" transform="translate(10.556 7.418)"/><path class="b" d="M28.611,18.417V4.028A1.028,1.028,0,0,0,27.583,3H7.028A1.028,1.028,0,0,0,6,4.028V18.417a1.028,1.028,0,0,0,1.028,1.028h5.139V11.792a2.571,2.571,0,0,1,2.565-2.569,2.541,2.541,0,0,1,1.813.754l9.515,9.468h1.523A1.028,1.028,0,0,0,28.611,18.417Z" transform="translate(6.333 3.167)"/></g></svg>