<svg xmlns="http://www.w3.org/2000/svg" width="40" height="40" viewBox="0 0 40 40"><defs><style>.a,.b{fill:#786aff;}.a{opacity:0;}.c{fill:#fa9797;}</style></defs><rect class="a" width="40" height="40"/><g transform="translate(2.373 2.373)"><rect class="a" width="36" height="36" transform="translate(-0.373 -0.373)"/><path class="b" d="M11.751,18.648V12.772a.979.979,0,0,1,.979-.979H25.461V2.979A.979.979,0,0,0,24.482,2H.979A.979.979,0,0,0,0,2.979V28.44a.979.979,0,0,0,.979.979h23.5a.979.979,0,0,0,.979-.979V19.627H12.731A.979.979,0,0,1,11.751,18.648Z" transform="translate(0 1.917)"/><path class="c" d="M20.71,5.843v4.694H7.49a.49.49,0,0,0-.49.49v2.938a.49.49,0,0,0,.49.49H20.71v4.694a.49.49,0,0,0,.836.346l6.913-7-6.913-7a.49.49,0,0,0-.836.346Z" transform="translate(6.71 5.132)"/></g></svg>