<svg xmlns="http://www.w3.org/2000/svg" width="40" height="40" viewBox="0 0 40 40"><defs><style>.a,.c{fill:#786aff;}.a{opacity:0;}.b{fill:#fa9797;}</style></defs><rect class="a" width="40" height="40"/><path class="b" d="M18.333,6.667V4.444a4.444,4.444,0,0,0-8.889,0V6.667H5v4.444H22.778V6.667Zm-2.222,0H11.667V4.444a2.222,2.222,0,1,1,4.444,0Z" transform="translate(6.111)"/><path class="c" d="M32,3H28.667V8.556a1.111,1.111,0,0,1-1.111,1.111h-20A1.111,1.111,0,0,1,6.444,8.556V3H3.111A1.111,1.111,0,0,0,2,4.111V33a1.111,1.111,0,0,0,1.111,1.111H32A1.111,1.111,0,0,0,33.111,33V4.111A1.111,1.111,0,0,0,32,3ZM13.166,24.314a.444.444,0,0,1,0,.626L11.29,26.816a.444.444,0,0,1-.626,0L5.252,21.4a.889.889,0,0,1,0-1.25l5.414-5.413a.444.444,0,0,1,.626,0l1.876,1.876a.444.444,0,0,1,0,.626L9.629,20.778Zm4.259,5.222a.444.444,0,0,1-.52.347l-2.6-.52a.444.444,0,0,1-.348-.52L17.32,12.022a.444.444,0,0,1,.52-.347l2.6.52a.444.444,0,0,1,.347.52ZM29.859,21.4l-5.414,5.412a.444.444,0,0,1-.626,0L21.943,24.94a.444.444,0,0,1,0-.626l3.539-3.537-3.537-3.537a.444.444,0,0,1,0-.626l1.876-1.876a.444.444,0,0,1,.626,0l5.412,5.412a.889.889,0,0,1,0,1.251Z" transform="translate(2.444 3.667)"/></svg>