<svg width="112" height="112" viewBox="0 0 112 112" fill="none" xmlns="http://www.w3.org/2000/svg">
<path d="M32.8178 52.6541V25.0901H79.1828V52.6541L86.9108 48.2381V17.3621H25.0898V48.2371L32.8178 52.6541Z" fill="#786AFF"/>
<path d="M68.6203 67.5911H43.3823L17.3633 52.7231V86.9101C17.3633 87.925 17.5632 88.9299 17.9515 89.8675C18.3399 90.8051 18.9091 91.6571 19.6268 92.3747C20.3444 93.0923 21.1963 93.6615 22.1339 94.0499C23.0715 94.4383 24.0764 94.6381 25.0913 94.6381H86.9113C87.9261 94.6381 88.9311 94.4383 89.8687 94.0499C90.8063 93.6615 91.6582 93.0923 92.3758 92.3747C93.0934 91.6571 93.6627 90.8051 94.051 89.8675C94.4394 88.9299 94.6393 87.925 94.6393 86.9101V52.7231L68.6203 67.5911Z" fill="#786AFF"/>
<path d="M56.0019 59.8631C56.0019 59.8631 71.4569 48.6231 71.4569 40.2971C71.4569 32.3921 59.4369 28.9531 56.0019 39.3391C52.5669 28.9501 40.5469 32.3921 40.5469 40.2971C40.5469 48.6231 56.0019 59.8631 56.0019 59.8631Z" fill="#FA9797"/>
</svg>
