<svg width="112" height="112" viewBox="0 0 112 112" fill="none" xmlns="http://www.w3.org/2000/svg">
<path d="M59.0843 45.603C64.0653 45.603 68.1033 42.7301 68.1033 37.8151C68.0874 35.4389 67.1283 33.1664 65.437 31.4973C63.7456 29.8283 61.4604 28.8993 59.0843 28.915C58.9633 28.915 58.8523 28.9741 58.7323 28.9851C58.2487 27.0544 57.1326 25.3412 55.5619 24.1188C53.9913 22.8963 52.0566 22.235 50.0663 22.2401C48.7748 22.2328 47.4966 22.5021 46.3178 23.0299C45.1391 23.5577 44.087 24.3317 43.2323 25.3C43.2553 25.018 43.3033 24.7541 43.3033 24.4661C43.2835 21.496 42.0847 18.6554 39.9706 16.5691C37.8566 14.4828 35.0004 13.3216 32.0303 13.3411C29.0602 13.3216 26.204 14.4828 24.0899 16.5691C21.9759 18.6554 20.7771 21.496 20.7573 24.4661C20.751 25.213 20.8217 25.9586 20.9683 26.691C20.8973 26.691 20.8273 26.691 20.7573 26.691C18.3811 26.6753 16.096 27.6043 14.4046 29.2733C12.7132 30.9424 11.7541 33.2149 11.7383 35.5911C11.7383 40.5071 15.7763 45.6041 20.7573 45.6041L59.0843 45.603Z" fill="#FA9797"/>
<path d="M86.3394 93.6801C88.1708 93.6801 89.6554 92.1955 89.6554 90.3641C89.6554 88.5327 88.1708 87.0481 86.3394 87.0481C84.5081 87.0481 83.0234 88.5327 83.0234 90.3641C83.0234 92.1955 84.5081 93.6801 86.3394 93.6801Z" fill="white"/>
<path d="M48.9376 35.134L43.1646 40.996C43.0999 41.063 43.0226 41.1165 42.937 41.1533C42.8514 41.1901 42.7594 41.2094 42.6663 41.2101C42.5731 41.2109 42.4808 41.193 42.3947 41.1576C42.3085 41.1222 42.2303 41.07 42.1646 41.004L42.1566 40.996L41.5276 40.357C41.3996 40.2248 41.3281 40.048 41.3281 39.864C41.3281 39.68 41.3996 39.5032 41.5276 39.371L46.4276 34.387L41.5326 29.407C41.4046 29.2748 41.3331 29.098 41.3331 28.914C41.3331 28.73 41.4046 28.5532 41.5326 28.421L42.1616 27.782C42.2262 27.715 42.3036 27.6615 42.3892 27.6247C42.4747 27.588 42.5668 27.5686 42.6599 27.5679C42.753 27.5671 42.8454 27.585 42.9315 27.6204C43.0177 27.6558 43.0959 27.708 43.1616 27.774L43.1696 27.782L48.9406 33.644C49.1344 33.8442 49.2428 34.1119 49.2428 34.3905C49.2428 34.6691 49.1344 34.9369 48.9406 35.137L48.9376 35.134Z" fill="white"/>
<path d="M24.2861 33.6401L30.0581 27.7781C30.1228 27.7111 30.2001 27.6576 30.2857 27.6208C30.3713 27.5841 30.4633 27.5647 30.5564 27.564C30.6496 27.5632 30.7419 27.5811 30.828 27.6165C30.9142 27.6519 30.9924 27.7041 31.0581 27.7701L31.0661 27.7781L31.6951 28.4171C31.8231 28.5493 31.8946 28.7261 31.8946 28.9101C31.8946 29.0941 31.8231 29.2709 31.6951 29.4031L26.7951 34.3871L31.6951 39.3691C31.8231 39.5013 31.8946 39.6781 31.8946 39.8621C31.8946 40.0461 31.8231 40.2229 31.6951 40.3551L31.0661 40.9941C31.0015 41.0611 30.9241 41.1146 30.8385 41.1514C30.753 41.1881 30.6609 41.2075 30.5678 41.2082C30.4747 41.209 30.3823 41.1911 30.2962 41.1557C30.21 41.1203 30.1318 41.0681 30.0661 41.0021L30.0581 40.9941L24.2861 35.1351C24.0902 34.9346 23.9805 34.6654 23.9805 34.3851C23.9805 34.1048 24.0902 33.8356 24.2861 33.6351V33.6401Z" fill="white"/>
<path d="M34.8406 42.621H34.0346C33.9261 42.622 33.819 42.5978 33.7215 42.5504C33.624 42.5029 33.5389 42.4334 33.4729 42.3474C33.4069 42.2614 33.3617 42.1612 33.341 42.0548C33.3203 41.9483 33.3246 41.8385 33.3536 41.7341L37.7166 25.5001C37.7561 25.3498 37.8444 25.217 37.9677 25.1225C38.091 25.028 38.2422 24.9772 38.3976 24.978H39.1766C39.2847 24.9772 39.3915 25.0014 39.4887 25.0487C39.5859 25.096 39.6708 25.1652 39.7367 25.2508C39.8027 25.3365 39.8479 25.4362 39.8689 25.5423C39.8899 25.6483 39.886 25.7578 39.8576 25.862L35.5216 42.0991C35.4821 42.2493 35.3937 42.3821 35.2704 42.4766C35.1471 42.5711 34.9959 42.6219 34.8406 42.621V42.621Z" fill="white"/>
<path d="M100.549 56.6622C100.365 56.3985 100.13 56.1738 99.8584 56.0009C99.5869 55.828 99.2839 55.7104 98.9668 55.6547C98.6498 55.5989 98.3249 55.6062 98.0106 55.6762C97.6964 55.7461 97.399 55.8772 97.1355 56.0622L37.0035 98.1662C37.2283 98.4882 37.5275 98.7512 37.8757 98.933C38.2239 99.1147 38.6107 99.2098 39.0035 99.2102H98.5435C98.8654 99.21 99.1841 99.1465 99.4814 99.0232C99.7787 98.8999 100.049 98.7193 100.276 98.4916C100.504 98.2639 100.684 97.9936 100.807 97.6962C100.93 97.3988 100.994 97.08 100.993 96.7582V58.0292C100.986 57.5393 100.831 57.063 100.549 56.6622V56.6622ZM40.4205 56.0622C40.056 55.8065 39.6288 55.655 39.1847 55.6239C38.7407 55.5927 38.2965 55.6831 37.8999 55.8853C37.5033 56.0875 37.1692 56.3939 36.9336 56.7716C36.698 57.1493 36.5697 57.584 36.5625 58.0292V96.8292L65.1915 73.3812L40.4205 56.0612" fill="#786AFF"/>
<path d="M79.3185 90.4289C79.2373 90.4395 79.1548 90.4285 79.0792 90.3969C79.0037 90.3653 78.9379 90.3142 78.8885 90.2489C78.8008 90.0618 78.7629 89.8551 78.7785 89.6489V84.3289C78.7939 83.8407 78.669 83.3583 78.4185 82.9389C78.1789 82.559 77.8535 82.2404 77.4685 82.0089C77.0575 81.7622 76.6079 81.5864 76.1385 81.4889C75.6456 81.3822 75.1428 81.3286 74.6385 81.3289C74.0747 81.3283 73.5121 81.3819 72.9585 81.4889C72.4387 81.5852 71.9406 81.7749 71.4885 82.0489C71.0554 82.3157 70.6893 82.6784 70.4185 83.1089C70.1195 83.6123 69.9543 84.1837 69.9385 84.7689H72.2185C72.2285 84.5216 72.2972 84.2801 72.4189 84.0645C72.5406 83.8489 72.7118 83.6653 72.9185 83.5289C73.3952 83.2452 73.9442 83.1062 74.4985 83.1289C74.7393 83.1301 74.9798 83.1468 75.2185 83.1789C75.4579 83.2087 75.6912 83.2762 75.9095 83.3789C76.1153 83.4777 76.2938 83.6254 76.4295 83.8089C76.5767 84.0194 76.6505 84.2724 76.6395 84.5289C76.6499 84.6643 76.6332 84.8004 76.5903 84.9292C76.5473 85.058 76.4791 85.1769 76.3895 85.2789C76.1988 85.4592 75.9644 85.5867 75.7095 85.6489C75.3853 85.7356 75.054 85.7925 74.7195 85.8189C74.3235 85.8554 73.9297 85.9121 73.5395 85.9889C73.0595 86.0416 72.5828 86.1183 72.1095 86.2189C71.6586 86.3102 71.2261 86.4758 70.8295 86.7089C70.4471 86.938 70.1303 87.2617 69.9095 87.6489C69.6569 88.1288 69.5361 88.6671 69.5595 89.2089C69.5487 89.6691 69.6482 90.1251 69.8495 90.5389C70.0337 90.9081 70.3006 91.2298 70.6295 91.4789C70.9691 91.7325 71.352 91.9222 71.7595 92.0389C72.1946 92.167 72.646 92.231 73.0995 92.2289C73.7475 92.2236 74.3911 92.1225 75.0095 91.9289C75.6356 91.7486 76.2086 91.4192 76.6795 90.9689C76.704 91.1656 76.7702 91.3547 76.8737 91.5237C76.9771 91.6927 77.1155 91.8377 77.2795 91.9489C77.633 92.1474 78.0344 92.2443 78.4395 92.2289C78.6881 92.2257 78.9359 92.1989 79.1795 92.1489C79.4155 92.1003 79.6488 92.0403 79.8795 91.9689V90.3889C79.7746 90.4139 79.6673 90.4273 79.5595 90.4289H79.3185V90.4289ZM76.4985 88.4689C76.5092 88.792 76.4183 89.1103 76.2385 89.3789C76.0662 89.6249 75.8449 89.8326 75.5885 89.9889C75.3324 90.1471 75.052 90.262 74.7585 90.3289C74.4898 90.3928 74.2147 90.4264 73.9385 90.4289C73.7139 90.4268 73.4899 90.4067 73.2685 90.3689C73.0328 90.3325 72.8037 90.2617 72.5885 90.1589C72.3847 90.0615 72.204 89.9217 72.0585 89.7489C71.9093 89.5697 71.8311 89.342 71.8385 89.1089C71.8313 88.8508 71.8826 88.5944 71.9885 88.3589C72.0816 88.1609 72.2225 87.989 72.3985 87.8589C72.581 87.7272 72.7836 87.6259 72.9985 87.5589C73.2274 87.4853 73.4613 87.4285 73.6985 87.3889C74.2018 87.2963 74.7085 87.2263 75.2185 87.1789C75.6725 87.15 76.1122 87.0092 76.4985 86.7689V88.4689V88.4689ZM90.3385 82.9399C89.9331 82.4352 89.4162 82.0313 88.8285 81.7599C88.1593 81.4601 87.4316 81.3132 86.6985 81.3299C86.0576 81.3244 85.4232 81.4575 84.8385 81.7199C84.2588 81.9861 83.7865 82.4408 83.4985 83.0099H83.4585V81.6099H81.2985V95.7699H83.5785V90.6099H83.6185C83.7911 90.8892 84.0111 91.1362 84.2685 91.3399C84.5283 91.5464 84.8141 91.7179 85.1185 91.8499C85.4262 91.9833 85.7484 92.0806 86.0785 92.1399C86.4085 92.1996 86.7431 92.2298 87.0785 92.2299C87.7323 92.2515 88.3814 92.1123 88.969 91.8246C89.5565 91.537 90.0645 91.1096 90.4485 90.5799C90.8251 90.0582 91.1031 89.4718 91.2685 88.8499C91.4491 88.1919 91.54 87.5124 91.5385 86.8299C91.5435 86.1058 91.4425 85.3848 91.2385 84.6899C91.0546 84.0538 90.749 83.4595 90.3385 82.9399V82.9399ZM89.1085 88.1189C89.0165 88.5337 88.8469 88.9273 88.6085 89.2789C88.3767 89.6179 88.0727 89.9013 87.7185 90.1089C87.3155 90.3329 86.8593 90.4435 86.3985 90.4289C85.9717 90.4385 85.5491 90.3423 85.1685 90.1489C84.8151 89.9625 84.505 89.7035 84.2585 89.3889C83.994 89.0472 83.8003 88.6563 83.6885 88.2389C83.5583 87.7667 83.4943 87.2787 83.4985 86.7889C83.4512 85.847 83.7071 84.9148 84.2285 84.1289C84.4789 83.7953 84.8083 83.5292 85.1871 83.3547C85.5659 83.1801 85.9822 83.1025 86.3985 83.1289C86.832 83.1204 87.26 83.2274 87.6385 83.4389C87.9954 83.6424 88.3027 83.9225 88.5385 84.2589C88.7855 84.6144 88.9683 85.0104 89.0785 85.4289C89.1989 85.8722 89.2594 86.3296 89.2585 86.7889C89.2592 87.2365 89.2089 87.6828 89.1085 88.1189V88.1189ZM93.5175 77.6689H95.7985V79.8289H93.5185L93.5175 77.6689ZM93.5175 81.6089H95.7985V91.9489H93.5185L93.5175 81.6089Z" fill="white"/>
</svg>
