<svg xmlns="http://www.w3.org/2000/svg" width="40" height="40" viewBox="0 0 40 40"><defs><style>.a,.b{fill:#786aff;}.a{opacity:0;}.c{fill:#fa9797;}</style></defs><rect class="a" width="40" height="40"/><path class="b" d="M13.933,28.667H4.222V22H15.067a13.618,13.618,0,0,1,1.251-2.222H4.222V13.111H30.889V14.3a13.573,13.573,0,0,1,2.222.767V3.111A1.111,1.111,0,0,0,32,2H3.111A1.111,1.111,0,0,0,2,3.111V29.778a1.111,1.111,0,0,0,1.111,1.111H14.3A13.608,13.608,0,0,1,13.933,28.667ZM4.222,4.222H30.889v6.667H4.222Z" transform="translate(2.444 2.444)"/><path class="c" d="M27.981,17.529H25.62a6.824,6.824,0,0,0-1-2.421L26.3,13.427a.674.674,0,0,0,0-.953l-1.022-1.022a.674.674,0,0,0-.953,0l-1.679,1.682a6.829,6.829,0,0,0-2.42-1V9.774a.674.674,0,0,0-.674-.674H18.2a.674.674,0,0,0-.674.674v2.361a6.828,6.828,0,0,0-2.42,1l-1.681-1.681a.674.674,0,0,0-.953,0l-1.022,1.022a.674.674,0,0,0,0,.953l1.681,1.681a6.826,6.826,0,0,0-1,2.421H9.774a.674.674,0,0,0-.674.674v1.349a.674.674,0,0,0,.674.674h2.361a6.826,6.826,0,0,0,1,2.421l-1.681,1.681a.674.674,0,0,0,0,.953l1.022,1.022a.674.674,0,0,0,.953,0l1.681-1.681a6.828,6.828,0,0,0,2.42,1v2.361a.674.674,0,0,0,.674.674h1.349a.674.674,0,0,0,.674-.674V25.62a6.828,6.828,0,0,0,2.42-1L24.33,26.3a.674.674,0,0,0,.953,0l1.022-1.022a.674.674,0,0,0,0-.953l-1.683-1.679a6.824,6.824,0,0,0,1-2.421h2.361a.674.674,0,0,0,.674-.674V18.2a.674.674,0,0,0-.674-.674Zm-9.1,5.238a3.889,3.889,0,1,1,3.889-3.889A3.889,3.889,0,0,1,18.878,22.767Z" transform="translate(11.122 11.122)"/></svg>