<svg xmlns="http://www.w3.org/2000/svg" width="40" height="40" viewBox="0 0 40 40"><defs><style>.a,.c{fill:#786aff;}.a{opacity:0;}.b{fill:#fa9797;}</style></defs><g transform="translate(0 -0.029)"><rect class="a" width="39.971" height="40" transform="translate(0.029 0.029)"/><path class="b" d="M19.219,7.168,19.3,9.656a2.03,2.03,0,0,0,1.039,1.7l2.173,1.217-2.488.086a2.03,2.03,0,0,0-1.7,1.039l-1.218,2.173-.087-2.488a2.025,2.025,0,0,0-1.039-1.7l-2.171-1.212,2.488-.087a2.026,2.026,0,0,0,1.7-1.044Z" transform="translate(15.881 8.773)"/><path class="b" d="M7.561.522l.126,3.485A2.842,2.842,0,0,0,9.132,6.383l3.042,1.7L8.7,8.212A2.839,2.839,0,0,0,6.322,9.663L4.619,12.7,4.493,9.221A2.839,2.839,0,0,0,3.042,6.844L0,5.143l3.484-.127A2.838,2.838,0,0,0,5.86,3.564Z" transform="translate(0 0.639)"/><path class="c" d="M25.238,5.74A1.74,1.74,0,0,0,23.5,4H11.9V5.255a1.646,1.646,0,0,1-1.519,1.737l-5.115.2a1.342,1.342,0,0,0-1.139.728L3,10.116v21.06A1.74,1.74,0,0,0,4.74,32.91H23.5a1.74,1.74,0,0,0,1.74-1.74ZM5.224,10.672h6.116V12.9H5.224Zm0,4.448H15.231v2.224H5.224Zm0,4.448H17.177v2.224H5.224Zm17.791,6.672H5.224V24.015H23.015Z" transform="translate(3.661 4.895)"/><path class="b" d="M16.929,0l.334,2.478a2.035,2.035,0,0,0,1.206,1.595l2.291,1-2.478.334a2.039,2.039,0,0,0-1.594,1.206l-1,2.282-.334-2.478a2.039,2.039,0,0,0-1.206-1.595l-2.289-1,2.48-.334a2.035,2.035,0,0,0,1.6-1.2Z" transform="translate(14.48 1)"/></g></svg>