<svg xmlns="http://www.w3.org/2000/svg" width="40" height="40" viewBox="0 0 40 40"><defs><style>.a,.c{fill:#786aff;}.a{opacity:0;}.b{fill:#fa9797;}</style></defs><g transform="translate(0 0.004)"><rect class="a" width="40" height="40" transform="translate(0 -0.004)"/><g transform="translate(0.971 1)"><path class="b" d="M28.095,13.109l-3.8-3.8a.8.8,0,0,0-.571-.233H23.7a.9.9,0,0,0-.611.268L11.371,21.068a.657.657,0,0,0-.166.277l-2.2,6.5c-.075.248.3.56.516.56h.04c.182-.042,5.548-1.91,6.5-2.2a.65.65,0,0,0,.273-.164L28.061,14.316a.906.906,0,0,0,.266-.582.8.8,0,0,0-.233-.625ZM15.532,24.983c-1.423.428-3.574,1.331-4.8,1.7l1.69-4.8Z" transform="translate(10.494 10.591)"/><path class="c" d="M19.235,29.919A4.153,4.153,0,0,1,20.2,28.4l6.244-6.243a15.091,15.091,0,0,0-4.608-1.083,1.55,1.55,0,0,1-1.352-1.564c0-.781.047-1.1.091-2.292a1.561,1.561,0,0,1,.4-1.007A11.669,11.669,0,0,0,23.1,12.231a10.73,10.73,0,0,0,.625-3.407,11.688,11.688,0,0,0-.56-3.715A6.886,6.886,0,0,0,16.187,0,7.365,7.365,0,0,0,11.8,1.335a6.532,6.532,0,0,0-1.408,1.44,9.771,9.771,0,0,0-1.785,6,10.231,10.231,0,0,0,.3,2.31,11.882,11.882,0,0,0,2.449,5.17,1.564,1.564,0,0,1,.4,1.007c.034.906.09,1.588.09,2.2a1.55,1.55,0,0,1-1.354,1.564C1.429,21.817.014,28.014.014,30.458c0,.272.052,1.653.052,1.653H18.357Z" transform="translate(0.016)"/></g></g></svg>