<svg width="112" height="112" viewBox="0 0 112 112" fill="none" xmlns="http://www.w3.org/2000/svg">
<path d="M59.0862 45.603C64.0672 45.603 68.1052 42.7301 68.1052 37.8151C68.0894 35.4389 67.1303 33.1664 65.4389 31.4973C63.7475 29.8283 61.4624 28.8993 59.0862 28.915C58.9652 28.915 58.8542 28.9741 58.7342 28.9851C58.2506 27.0544 57.1345 25.3412 55.5639 24.1188C53.9932 22.8963 52.0585 22.235 50.0682 22.2401C48.7767 22.2328 47.4986 22.5021 46.3198 23.0299C45.141 23.5577 44.0889 24.3317 43.2342 25.3C43.2572 25.018 43.3052 24.7541 43.3052 24.4661C43.2854 21.496 42.0866 18.6554 39.9726 16.5691C37.8585 14.4828 35.0023 13.3216 32.0322 13.3411C29.0621 13.3216 26.2059 14.4828 24.0919 16.5691C21.9778 18.6554 20.779 21.496 20.7592 24.4661C20.753 25.213 20.8237 25.9586 20.9702 26.691C20.8992 26.691 20.8292 26.691 20.7592 26.691C18.383 26.6753 16.0979 27.6043 14.4066 29.2733C12.7152 30.9424 11.7561 33.2149 11.7402 35.5911C11.7402 40.5071 15.7782 45.6041 20.7592 45.6041L59.0862 45.603Z" fill="#FA9797"/>
<path d="M100.469 48.918H72.2159C71.7774 48.918 71.4219 49.2735 71.4219 49.712V97.859C71.4219 98.2975 71.7774 98.653 72.2159 98.653H100.469C100.907 98.653 101.263 98.2975 101.263 97.859V49.712C101.263 49.2735 100.907 48.918 100.469 48.918Z" fill="#786AFF"/>
<path d="M94.6307 55.6162H78.0527V82.0682H94.6307V55.6162Z" fill="white"/>
<path d="M86.3414 93.6801C88.1728 93.6801 89.6574 92.1955 89.6574 90.3641C89.6574 88.5327 88.1728 87.0481 86.3414 87.0481C84.51 87.0481 83.0254 88.5327 83.0254 90.3641C83.0254 92.1955 84.51 93.6801 86.3414 93.6801Z" fill="white"/>
<path d="M63.4231 92.0221C56.1719 90.023 49.7799 85.6935 45.2333 79.7014C40.6867 73.7094 38.238 66.3878 38.2651 58.8661M33.4961 60.524L38.2251 55.551L43.4431 60.524" stroke="#373449" stroke-linecap="round" stroke-linejoin="round"/>
</svg>
