<svg xmlns="http://www.w3.org/2000/svg" width="40" height="40" viewBox="0 0 40 40"><defs><style>.a,.b{fill:#786aff;}.a{opacity:0;}.c{fill:#fa9797;}</style></defs><rect class="a" width="40" height="40"/><rect class="b" width="14" height="14" transform="translate(13 13)"/><path class="b" d="M8.667,8.667H24.222V3.111A1.111,1.111,0,0,0,23.111,2h-20A1.111,1.111,0,0,0,2,3.111v20a1.111,1.111,0,0,0,1.111,1.111H8.667Z" transform="translate(2.444 2.444)"/><path class="c" d="M27.111,6H21.556V21.556H6v5.556a1.111,1.111,0,0,0,1.111,1.111h20a1.111,1.111,0,0,0,1.111-1.111v-20A1.111,1.111,0,0,0,27.111,6Z" transform="translate(7.333 7.333)"/></svg>