<svg xmlns="http://www.w3.org/2000/svg" width="40" height="40" viewBox="0 0 40 40"><defs><style>.a,.b{fill:#786aff;}.a{opacity:0;}.c{fill:#fa9797;}</style></defs><rect class="a" width="40" height="40"/><path class="b" d="M10,1V12.111H21.111Z" transform="translate(12.222 1.222)"/><path class="b" d="M14.111,24.333a1.111,1.111,0,0,1,1.111-1.111H29.667V14.333H17.444a1.111,1.111,0,0,1-1.111-1.111V1H4.111A1.111,1.111,0,0,0,3,2.111V35.444a1.111,1.111,0,0,0,1.111,1.111h10Z" transform="translate(3.667 1.222)"/><path class="c" d="M20.342,21.167,29,14.871v9.351a1.111,1.111,0,0,1-1.111,1.111H10.111A1.111,1.111,0,0,1,9,24.222V14.871l8.658,6.3A2.282,2.282,0,0,0,20.342,21.167ZM19,19.052,29,12H9Z" transform="translate(11 14.667)"/></svg>