<svg xmlns="http://www.w3.org/2000/svg" width="40" height="40" viewBox="0 0 40 40"><defs><style>.a,.b{fill:#786aff;}.a{opacity:0;}</style></defs><rect class="a" width="40" height="40"/><path class="b" d="M25.574,27.093c2.333-.477,7.239-2.906,7.239-10.43A12.073,12.073,0,0,0,20,3.852c-8.43,0-15.288,5.667-15.288,16A15.748,15.748,0,0,0,13.619,34.9a.453.453,0,0,1,.238.428l-.094,3.148c0,.239-.048.239-.239.191A19.256,19.256,0,0,1,1.094,20.045,18.43,18.43,0,0,1,20.143.711c8.954,0,16.146,5.81,16.146,15.667,0,9.667-7.1,14.383-15.192,14.383-6.287,0-10.621-3.524-10.621-10.333A10.81,10.81,0,0,1,20.89,9.236q.341-.012.682,0A12.678,12.678,0,0,1,26.336,10c.19.048.238.1.238.286ZM23.049,12.52a6.384,6.384,0,0,0-1.952-.238,7.233,7.233,0,0,0-7.144,7.858c0,4.143,2.191,7.43,6.763,7.43a5.873,5.873,0,0,0,1.476-.143Z" transform="translate(1.309 0.855)"/></svg>