<svg width="112" height="112" viewBox="0 0 112 112" fill="none" xmlns="http://www.w3.org/2000/svg">
<path d="M75.4368 12.3181H36.9238C33.6101 12.3181 30.9238 15.0044 30.9238 18.3181V93.6811C30.9238 96.9948 33.6101 99.6811 36.9238 99.6811H75.4368C78.7505 99.6811 81.4368 96.9948 81.4368 93.6811V18.3181C81.4368 15.0044 78.7505 12.3181 75.4368 12.3181Z" fill="white"/>
<path d="M75.1965 101H37.1645C35.1603 100.998 33.2389 100.201 31.8218 98.7837C30.4047 97.3666 29.6076 95.4451 29.6055 93.441V18.559C29.6076 16.5549 30.4047 14.6334 31.8218 13.2163C33.2389 11.7992 35.1603 11.0021 37.1645 11H75.1965C77.2006 11.0021 79.122 11.7992 80.5391 13.2163C81.9563 14.6334 82.7534 16.5549 82.7555 18.559V93.441C82.7534 95.4451 81.9563 97.3666 80.5391 98.7837C79.122 100.201 77.2006 100.998 75.1965 101V101ZM37.1645 13.637C35.8591 13.637 34.6071 14.1556 33.6841 15.0786C32.761 16.0017 32.2425 17.2536 32.2425 18.559V93.441C32.2425 94.7464 32.761 95.9983 33.6841 96.9214C34.6071 97.8444 35.8591 98.363 37.1645 98.363H75.1965C76.5019 98.363 77.7538 97.8444 78.6768 96.9214C79.5999 95.9983 80.1185 94.7464 80.1185 93.441V18.559C80.1185 17.2536 79.5999 16.0017 78.6768 15.0786C77.7538 14.1556 76.5019 13.637 75.1965 13.637H37.1645Z" fill="#786AFF"/>
<path d="M45.1387 12.3181H67.2207V17.0031C67.2207 17.7205 66.9357 18.4086 66.4284 18.9158C65.9211 19.4231 65.2331 19.7081 64.5157 19.7081H47.8487C47.1313 19.7081 46.4432 19.4231 45.9359 18.9158C45.4287 18.4086 45.1437 17.7205 45.1437 17.0031L45.1387 12.3181Z" fill="#786AFF"/>
<path d="M76.1633 38.2741V52.0591C76.1634 52.4198 76.0925 52.777 75.9545 53.1103C75.8166 53.4435 75.6143 53.7464 75.3593 54.0015C75.1043 54.2566 74.8016 54.4589 74.4683 54.597C74.1351 54.735 73.7779 54.8061 73.4173 54.8061H38.9433C38.5826 54.8061 38.2254 54.735 37.8922 54.597C37.559 54.4589 37.2562 54.2566 37.0012 54.0015C36.7462 53.7464 36.5439 53.4435 36.406 53.1103C36.2681 52.777 36.1971 52.4198 36.1973 52.0591V38.2741C36.1971 37.9134 36.2681 37.5562 36.406 37.2229C36.5439 36.8897 36.7462 36.5868 37.0012 36.3317C37.2562 36.0766 37.559 35.8743 37.8922 35.7362C38.2254 35.5982 38.5826 35.5271 38.9433 35.5271H73.4173C73.7779 35.5271 74.1351 35.5982 74.4683 35.7362C74.8016 35.8743 75.1043 36.0766 75.3593 36.3317C75.6143 36.5868 75.8166 36.8897 75.9545 37.2229C76.0925 37.5562 76.1634 37.9134 76.1633 38.2741V38.2741Z" fill="#FA9797"/>
<path d="M41.4464 44.168L45.5985 48.32C45.6723 48.394 45.76 48.4526 45.8565 48.4926C45.953 48.5326 46.0565 48.5532 46.161 48.5532C46.2654 48.5532 46.3689 48.5326 46.4654 48.4926C46.5619 48.4526 46.6496 48.394 46.7235 48.32L50.8754 44.168C50.9866 44.0568 51.0622 43.9152 51.0929 43.761C51.1235 43.6069 51.1078 43.4471 51.0476 43.3018C50.9875 43.1566 50.8856 43.0325 50.755 42.9451C50.6243 42.8578 50.4706 42.8111 50.3134 42.811H42.0134C41.8563 42.8111 41.7026 42.8578 41.5719 42.9451C41.4412 43.0325 41.3394 43.1566 41.2792 43.3018C41.2191 43.4471 41.2034 43.6069 41.234 43.761C41.2647 43.9152 41.3403 44.0568 41.4515 44.168H41.4464Z" fill="white"/>
<path d="M61.3097 47.1949L65.4617 43.0429C65.6115 42.8948 65.8136 42.8118 66.0242 42.8118C66.2349 42.8118 66.437 42.8948 66.5867 43.0429L70.7387 47.1949C70.8499 47.3061 70.9255 47.4477 70.9562 47.6019C70.9868 47.7561 70.9711 47.9159 70.9109 48.0611C70.8508 48.2063 70.7489 48.3305 70.6183 48.4178C70.4876 48.5052 70.3339 48.5519 70.1767 48.5519H61.8767C61.7196 48.5519 61.5659 48.5052 61.4352 48.4178C61.3045 48.3305 61.2027 48.2063 61.1425 48.0611C61.0824 47.9159 61.0666 47.7561 61.0973 47.6019C61.1279 47.4477 61.2036 47.3061 61.3147 47.1949H61.3097Z" fill="white"/>
<path d="M80.1202 26.2981H32.2422V28.9351H80.1202V26.2981Z" fill="white"/>
<path d="M76.1621 26.2981H80.1171V28.9351H76.1621V26.2981Z" fill="white"/>
<path d="M65.6881 83.0149H72.4701C73.4499 83.0149 74.3894 83.4041 75.0822 84.0968C75.775 84.7896 76.1641 85.7292 76.1641 86.7089C76.1641 87.6886 75.775 88.6282 75.0822 89.3209C74.3894 90.0137 73.4499 90.4029 72.4701 90.4029H65.6881C64.7084 90.4029 63.7688 90.0137 63.0761 89.3209C62.3833 88.6282 61.9941 87.6886 61.9941 86.7089C61.9941 85.7292 62.3833 84.7896 63.0761 84.0968C63.7688 83.4041 64.7084 83.0149 65.6881 83.0149V83.0149Z" fill="#786AFF"/>
<path d="M56.0694 91.722H37.1974C36.8477 91.722 36.5123 91.5831 36.2651 91.3358C36.0178 91.0886 35.8789 90.7532 35.8789 90.4035C35.8789 90.0538 36.0178 89.7185 36.2651 89.4712C36.5123 89.224 36.8477 89.085 37.1974 89.085H56.0694C56.4191 89.085 56.7545 89.224 57.0017 89.4712C57.249 89.7185 57.3879 90.0538 57.3879 90.4035C57.3879 90.7532 57.249 91.0886 57.0017 91.3358C56.7545 91.5831 56.4191 91.722 56.0694 91.722V91.722ZM56.0694 84.334H37.1974C36.8477 84.334 36.5123 84.1951 36.2651 83.9478C36.0178 83.7006 35.8789 83.3652 35.8789 83.0155C35.8789 82.6658 36.0178 82.3305 36.2651 82.0832C36.5123 81.836 36.8477 81.697 37.1974 81.697H56.0694C56.4191 81.697 56.7545 81.836 57.0017 82.0832C57.249 82.3305 57.3879 82.6658 57.3879 83.0155C57.3879 83.3652 57.249 83.7006 57.0017 83.9478C56.7545 84.1951 56.4191 84.334 56.0694 84.334Z" fill="#786AFF"/>
<path d="M72.4701 63.717H65.6881C63.648 63.717 61.9941 65.3709 61.9941 67.411C61.9941 69.4512 63.648 71.105 65.6881 71.105H72.4701C74.5103 71.105 76.1641 69.4512 76.1641 67.411C76.1641 65.3709 74.5103 63.717 72.4701 63.717Z" fill="#786AFF"/>
<path d="M56.0694 72.4229H37.1974C36.8477 72.4229 36.5123 72.284 36.2651 72.0368C36.0178 71.7895 35.8789 71.4541 35.8789 71.1045C35.8789 70.7548 36.0178 70.4194 36.2651 70.1721C36.5123 69.9249 36.8477 69.7859 37.1974 69.7859H56.0694C56.4191 69.7859 56.7545 69.9249 57.0017 70.1721C57.249 70.4194 57.3879 70.7548 57.3879 71.1045C57.3879 71.4541 57.249 71.7895 57.0017 72.0368C56.7545 72.284 56.4191 72.4229 56.0694 72.4229V72.4229ZM56.0694 65.0349H37.1974C36.8477 65.0349 36.5123 64.896 36.2651 64.6488C36.0178 64.4015 35.8789 64.0661 35.8789 63.7165C35.8789 63.3668 36.0178 63.0314 36.2651 62.7841C36.5123 62.5369 36.8477 62.3979 37.1974 62.3979H56.0694C56.4191 62.3979 56.7545 62.5369 57.0017 62.7841C57.249 63.0314 57.3879 63.3668 57.3879 63.7165C57.3879 64.0661 57.249 64.4015 57.0017 64.6488C56.7545 64.896 56.4191 65.0349 56.0694 65.0349Z" fill="#786AFF"/>
</svg>
