<svg xmlns="http://www.w3.org/2000/svg" width="40" height="40" viewBox="0 0 40 40"><defs><style>.a,.b{fill:#786aff;}.a{opacity:0;}.c{fill:#fa9797;}</style></defs><g transform="translate(0.068 0.068)"><rect class="a" width="40" height="40" transform="translate(-0.068 -0.068)"/><path class="b" d="M9.8,16.605l-1.77,1.98L3.955,10.591.034,13.532,1.588,16.17,2.9,15.036l4.978,9.126,4.375-5.841A15.5,15.5,0,0,1,9.8,16.605Z" transform="translate(0.061 12.861)"/><path class="c" d="M18.09,15.169l3.241-3.737a8.774,8.774,0,0,0-.744-3.49l-2.132,2.52L14.792,5.2c-.073-.028-.152-.046-.221-.071L6.128,17.617a8.835,8.835,0,0,0,2.421,1.752l6.137-9.1Z" transform="translate(7.45 6.236)"/><path class="b" d="M16.317,9.848l5.364-6.021L19.486,1.8,14.84,7.007a15.375,15.375,0,0,1,1.477,2.841Z" transform="translate(18.012 2.203)"/><path class="b" d="M35.472,31.105,27.2,22.84A13.289,13.289,0,1,0,23.839,26.2l8.27,8.265a2.384,2.384,0,0,0,3.363-3.363ZM5.228,15.289A11.062,11.062,0,1,1,16.29,26.351,11.062,11.062,0,0,1,5.228,15.289Z" transform="translate(3.641 2.43)"/></g></svg>