<svg width="30" height="30" viewBox="0 0 30 30" fill="none" xmlns="http://www.w3.org/2000/svg">
<path d="M29.0563 25.6495C28.774 26.3664 28.1228 27.3758 27.1993 28.0868C26.6661 28.4975 26.0295 28.89 25.1551 29.149C24.223 29.4253 23.075 29.5186 21.646 29.5186H8.58069C7.15188 29.5186 6.00381 29.4253 5.07161 29.149C4.19723 28.89 3.56077 28.4975 3.02746 28.0868C2.10404 27.3757 1.45269 26.3664 1.17046 25.6495C0.601961 24.2051 0.596191 22.5663 0.596191 21.5342V8.46876C0.596191 7.43664 0.601961 5.79784 1.17046 4.35345C1.45269 3.63657 2.10392 2.62718 3.02746 1.91618C3.56065 1.50553 4.19723 1.11299 5.07161 0.853952C6.00369 0.577721 7.15177 0.484375 8.58069 0.484375H21.6462C23.075 0.484375 24.223 0.577721 25.1552 0.853952C26.0296 1.11299 26.6661 1.50564 27.1994 1.91618C28.1228 2.6273 28.7742 3.63657 29.0564 4.35345C29.6249 5.79784 29.6307 7.43664 29.6307 8.46876V21.5342C29.6307 22.5662 29.6248 24.205 29.0563 25.6495Z" fill="url(#paint0_linear)"/>
<path d="M17.2191 17.1736C16.7834 16.7139 16.0182 16.4192 15.1148 16.4192C14.2114 16.4192 13.4461 16.7139 13.0104 17.1736C12.7831 17.4135 12.6629 17.6594 12.6251 18.0097C12.5517 18.688 12.5929 19.2721 12.6724 20.2059C12.7481 21.0958 12.8918 22.2824 13.0794 23.4909C13.2129 24.351 13.3214 24.8152 13.4202 25.1476C13.5803 25.6863 14.1788 26.1574 15.1148 26.1574C16.0507 26.1574 16.6492 25.6862 16.8094 25.1476C16.9081 24.8152 17.0166 24.351 17.1501 23.4909C17.3377 22.2824 17.4815 21.0958 17.5572 20.2059C17.6367 19.272 17.6779 18.6879 17.6045 18.0097C17.5666 17.6595 17.4464 17.4135 17.2191 17.1736ZM12.7409 13.0806C12.7409 14.3928 13.8048 15.4567 15.117 15.4567C16.4294 15.4567 17.4932 14.3928 17.4932 13.0806C17.4932 11.7682 16.4294 10.7043 15.117 10.7043C13.8048 10.7043 12.7409 11.7682 12.7409 13.0806ZM15.0876 3.70317C9.53033 3.71906 4.97667 8.22748 4.9079 13.7844C4.85206 18.2859 7.7256 22.1365 11.7381 23.5479C11.8355 23.5822 11.9344 23.5013 11.919 23.3992C11.8664 23.0497 11.8168 22.6984 11.7712 22.3531C11.7551 22.231 11.6773 22.1258 11.5646 22.0765C8.3931 20.691 6.17852 17.5103 6.21406 13.8259C6.26067 8.99087 10.2089 5.0491 15.044 5.00998C19.9869 4.97006 24.0209 8.97944 24.0209 13.9133C24.0209 17.5607 21.816 20.7024 18.6693 22.0769C18.5565 22.1261 18.4792 22.2317 18.4632 22.3537C18.4176 22.6989 18.368 23.05 18.3155 23.3992C18.3 23.5013 18.3989 23.5822 18.4963 23.548C22.4705 22.1501 25.3273 18.3594 25.3273 13.9134C25.3271 8.27352 20.7309 3.6871 15.0876 3.70317ZM14.9031 8.38729C18.0534 8.26533 20.6551 10.7927 20.6551 13.9164C20.6551 15.505 19.9821 16.9393 18.9064 17.9493C18.8151 18.0349 18.7661 18.1566 18.7731 18.2815C18.7946 18.6615 18.7867 19.0307 18.7614 19.4477C18.7546 19.5588 18.8792 19.6298 18.9712 19.5671C20.7751 18.3344 21.9616 16.2615 21.9616 13.9164C21.9616 10.0552 18.7454 6.93091 14.8513 7.08183C11.2324 7.22214 8.32894 10.2059 8.28256 13.8273C8.2521 16.2091 9.44587 18.3191 11.273 19.5674C11.3647 19.63 11.489 19.5589 11.4822 19.4479C11.4568 19.0307 11.4491 18.6615 11.4704 18.2815C11.4774 18.1567 11.4285 18.0351 11.3375 17.9496C10.2282 16.9081 9.54694 15.4156 9.59033 13.7679C9.66671 10.8683 12.0045 8.49956 14.9031 8.38729Z" fill="white"/>
<defs>
<linearGradient id="paint0_linear" x1="15.1134" y1="0.484375" x2="15.1134" y2="29.5186" gradientUnits="userSpaceOnUse">
<stop stop-color="#F452FF"/>
<stop offset="1" stop-color="#832BC1"/>
</linearGradient>
</defs>
</svg>
