<svg width="33" height="33" viewBox="0 0 33 33" fill="none" xmlns="http://www.w3.org/2000/svg">
<path d="M28.553 0.492188H5.17786C4.61137 0.491906 4.05036 0.603243 3.52691 0.819837C3.00345 1.03643 2.5278 1.35404 2.12712 1.75451C1.72645 2.15499 1.40861 2.63048 1.19175 3.15383C0.974897 3.67718 0.863281 4.23813 0.863281 4.80463L0.863281 28.1797C0.863281 29.3235 1.31763 30.4204 2.12636 31.2291C2.9351 32.0378 4.03199 32.4922 5.17572 32.4922H16.7056L16.7249 21.0578H13.7545C13.5691 21.0578 13.3912 20.9843 13.2599 20.8534C13.1286 20.7225 13.0545 20.5448 13.054 20.3594L13.04 16.6735C13.0395 16.5815 13.057 16.4903 13.0917 16.4051C13.1264 16.3199 13.1775 16.2423 13.2422 16.1769C13.3068 16.1114 13.3837 16.0594 13.4685 16.0237C13.5533 15.9879 13.6442 15.9693 13.7362 15.9687H16.7013V12.4072C16.7013 8.27389 19.2255 6.02326 22.9125 6.02326H25.9376C26.1234 6.02326 26.3016 6.09707 26.433 6.22844C26.5643 6.35981 26.6381 6.53798 26.6381 6.72377V9.83473C26.6381 10.0205 26.5643 10.1987 26.433 10.3301C26.3016 10.4614 26.1234 10.5352 25.9376 10.5352H24.0861C22.0811 10.5352 21.6928 11.4878 21.6928 12.8867V15.9698H26.0985C26.1976 15.9697 26.2955 15.9906 26.3858 16.0311C26.4762 16.0716 26.5569 16.1308 26.6227 16.2048C26.6885 16.2788 26.7378 16.3659 26.7675 16.4604C26.7971 16.5549 26.8064 16.6545 26.7948 16.7529L26.3582 20.4388C26.3382 20.6094 26.2562 20.7667 26.1278 20.8808C25.9995 20.9949 25.8337 21.0579 25.6619 21.0578H21.7132L21.6928 32.4922H28.553C29.6967 32.4922 30.7936 32.0378 31.6023 31.2291C32.4111 30.4204 32.8654 29.3235 32.8654 28.1797V4.80463C32.8654 3.6609 32.4111 2.56401 31.6023 1.75527C30.7936 0.946533 29.6967 0.492188 28.553 0.492188Z" fill="#464646"/>
</svg>
