<svg width="30" height="30" viewBox="0 0 30 30" fill="none" xmlns="http://www.w3.org/2000/svg">
<path d="M13.125 9.54688V14.0929V15.9099V20.456H16.875V15.9099V14.0929V9.54688H13.125Z" fill="#FAB908"/>
<path d="M1.875 15.8516C2.91053 15.8516 3.75 15.0121 3.75 13.9766C3.75 12.941 2.91053 12.1016 1.875 12.1016C0.839466 12.1016 0 12.941 0 13.9766C0 15.0121 0.839466 15.8516 1.875 15.8516Z" fill="#0066D9"/>
<path d="M1.875 17.8984C2.91053 17.8984 3.75 17.059 3.75 16.0234C3.75 14.9879 2.91053 14.1484 1.875 14.1484C0.839466 14.1484 0 14.9879 0 16.0234C0 17.059 0.839466 17.8984 1.875 17.8984Z" fill="#0066D9"/>
<path d="M3.75 13.9766H0V16.022H3.75V13.9766Z" fill="#0066D9"/>
<path d="M28.125 17.8984C29.1605 17.8984 30 17.059 30 16.0234C30 14.9879 29.1605 14.1484 28.125 14.1484C27.0895 14.1484 26.25 14.9879 26.25 16.0234C26.25 17.059 27.0895 17.8984 28.125 17.8984Z" fill="#4285F4"/>
<path d="M28.125 15.8516C29.1605 15.8516 30 15.0121 30 13.9766C30 12.941 29.1605 12.1016 28.125 12.1016C27.0895 12.1016 26.25 12.941 26.25 13.9766C26.25 15.0121 27.0895 15.8516 28.125 15.8516Z" fill="#4285F4"/>
<path d="M26.25 16.0234H30V13.978H26.25V16.0234Z" fill="#4285F4"/>
<path d="M8.3523 21.9883C9.38783 21.9883 10.2273 21.1488 10.2273 20.1133C10.2273 19.0777 9.38783 18.2383 8.3523 18.2383C7.31676 18.2383 6.47729 19.0777 6.47729 20.1133C6.47729 21.1488 7.31676 21.9883 8.3523 21.9883Z" fill="#EA4335"/>
<path d="M8.3523 24.0352C9.38783 24.0352 10.2273 23.1957 10.2273 22.1602C10.2273 21.1246 9.38783 20.2852 8.3523 20.2852C7.31676 20.2852 6.47729 21.1246 6.47729 22.1602C6.47729 23.1957 7.31676 24.0352 8.3523 24.0352Z" fill="#EA4335"/>
<path d="M10.2273 20.1133H6.47729V22.1587H10.2273V20.1133Z" fill="#EA4335"/>
<path d="M8.3523 9.71484C9.38783 9.71484 10.2273 8.87538 10.2273 7.83984C10.2273 6.80431 9.38783 5.96484 8.3523 5.96484C7.31676 5.96484 6.47729 6.80431 6.47729 7.83984C6.47729 8.87538 7.31676 9.71484 8.3523 9.71484Z" fill="#EA4335"/>
<path d="M8.3523 16.3633C9.38783 16.3633 10.2273 15.5238 10.2273 14.4883C10.2273 13.4527 9.38783 12.6133 8.3523 12.6133C7.31676 12.6133 6.47729 13.4527 6.47729 14.4883C6.47729 15.5238 7.31676 16.3633 8.3523 16.3633Z" fill="#EA4335"/>
<path d="M10.2273 7.83984H6.47729V14.5302H10.2273V7.83984Z" fill="#EA4335"/>
<path d="M21.6477 11.7617C22.6832 11.7617 23.5227 10.9223 23.5227 9.88672C23.5227 8.85118 22.6832 8.01172 21.6477 8.01172C20.6122 8.01172 19.7727 8.85118 19.7727 9.88672C19.7727 10.9223 20.6122 11.7617 21.6477 11.7617Z" fill="#34A853"/>
<path d="M21.6477 9.71484C22.6832 9.71484 23.5227 8.87538 23.5227 7.83984C23.5227 6.80431 22.6832 5.96484 21.6477 5.96484C20.6122 5.96484 19.7727 6.80431 19.7727 7.83984C19.7727 8.87538 20.6122 9.71484 21.6477 9.71484Z" fill="#34A853"/>
<path d="M19.7727 9.88672H23.5227V7.84126H19.7727V9.88672Z" fill="#34A853"/>
<path d="M15 5.79688C16.0355 5.79688 16.875 4.95741 16.875 3.92188C16.875 2.88634 16.0355 2.04688 15 2.04688C13.9645 2.04688 13.125 2.88634 13.125 3.92188C13.125 4.95741 13.9645 5.79688 15 5.79688Z" fill="#FAB908"/>
<path d="M15 3.75C16.0355 3.75 16.875 2.91053 16.875 1.875C16.875 0.839466 16.0355 0 15 0C13.9645 0 13.125 0.839466 13.125 1.875C13.125 2.91053 13.9645 3.75 15 3.75Z" fill="#FAB908"/>
<path d="M13.125 3.92188L16.875 3.92188V1.87642L13.125 1.87642V3.92188Z" fill="#FAB908"/>
<path d="M15 30C16.0355 30 16.875 29.1605 16.875 28.125C16.875 27.0895 16.0355 26.25 15 26.25C13.9645 26.25 13.125 27.0895 13.125 28.125C13.125 29.1605 13.9645 30 15 30Z" fill="#FAB908"/>
<path d="M15 27.9531C16.0355 27.9531 16.875 27.1137 16.875 26.0781C16.875 25.0426 16.0355 24.2031 15 24.2031C13.9645 24.2031 13.125 25.0426 13.125 26.0781C13.125 27.1137 13.9645 27.9531 15 27.9531Z" fill="#FAB908"/>
<path d="M13.125 28.125H16.875V26.0795H13.125V28.125Z" fill="#FAB908"/>
<path d="M21.6477 24.0352C22.6832 24.0352 23.5227 23.1957 23.5227 22.1602C23.5227 21.1246 22.6832 20.2852 21.6477 20.2852C20.6122 20.2852 19.7727 21.1246 19.7727 22.1602C19.7727 23.1957 20.6122 24.0352 21.6477 24.0352Z" fill="#34A853"/>
<path d="M21.6477 17.3867C22.6832 17.3867 23.5227 16.5473 23.5227 15.5117C23.5227 14.4762 22.6832 13.6367 21.6477 13.6367C20.6122 13.6367 19.7727 14.4762 19.7727 15.5117C19.7727 16.5473 20.6122 17.3867 21.6477 17.3867Z" fill="#34A853"/>
<path d="M19.7727 22.1602H23.5227V15.5124H19.7727V22.1602Z" fill="#34A853"/>
<path d="M15 11.4219C16.0355 11.4219 16.875 10.5824 16.875 9.54688C16.875 8.51134 16.0355 7.67188 15 7.67188C13.9645 7.67188 13.125 8.51134 13.125 9.54688C13.125 10.5824 13.9645 11.4219 15 11.4219Z" fill="#FAB908"/>
<path d="M15 22.3281C16.0355 22.3281 16.875 21.4887 16.875 20.4531C16.875 19.4176 16.0355 18.5781 15 18.5781C13.9645 18.5781 13.125 19.4176 13.125 20.4531C13.125 21.4887 13.9645 22.3281 15 22.3281Z" fill="#FAB908"/>
</svg>
