<svg width="104" height="105" viewBox="0 0 104 105" fill="none" xmlns="http://www.w3.org/2000/svg">
<g filter="url(#filter0_d)">
<rect width="56" height="56" rx="28" transform="matrix(-1 0 0 1 80 20.3667)" fill="white"/>
</g>
<path d="M53.0444 48.3682L48.9835 44.2582C48.8728 44.1448 48.8108 43.9925 48.8108 43.8339C48.8108 43.6753 48.8728 43.5231 48.9835 43.4097L49.3364 43.0498C49.3913 42.9941 49.4567 42.9499 49.5288 42.9197C49.6009 42.8895 49.6783 42.8739 49.7564 42.8739C49.8346 42.8739 49.912 42.8895 49.9841 42.9197C50.0562 42.9499 50.1215 42.9941 50.1764 43.0498L55.0146 47.9419C55.126 48.0548 55.1882 48.2073 55.1875 48.3661C55.1882 48.5249 55.126 48.6774 55.0146 48.7903L50.1835 53.6838C50.1286 53.7395 50.0632 53.7836 49.9911 53.8138C49.919 53.8439 49.8416 53.8594 49.7635 53.8594C49.6854 53.8594 49.608 53.8439 49.5359 53.8138C49.4639 53.7836 49.3984 53.7395 49.3435 53.6838L48.9906 53.3239C48.8797 53.2107 48.8176 53.0584 48.8176 52.8997C48.8176 52.7411 48.8797 52.5888 48.9906 52.4755L53.0444 48.3682Z" fill="black"/>
<defs>
<filter id="filter0_d" x="0" y="0.366669" width="104" height="104" filterUnits="userSpaceOnUse" color-interpolation-filters="sRGB">
<feFlood flood-opacity="0" result="BackgroundImageFix"/>
<feColorMatrix in="SourceAlpha" type="matrix" values="0 0 0 0 0 0 0 0 0 0 0 0 0 0 0 0 0 0 127 0" result="hardAlpha"/>
<feOffset dy="4"/>
<feGaussianBlur stdDeviation="12"/>
<feComposite in2="hardAlpha" operator="out"/>
<feColorMatrix type="matrix" values="0 0 0 0 0 0 0 0 0 0 0 0 0 0 0 0 0 0 0.15 0"/>
<feBlend mode="normal" in2="BackgroundImageFix" result="effect1_dropShadow"/>
<feBlend mode="normal" in="SourceGraphic" in2="effect1_dropShadow" result="shape"/>
</filter>
</defs>
</svg>
