<svg width="33" height="33" viewBox="0 0 33 33" fill="none" xmlns="http://www.w3.org/2000/svg">
<path d="M0.5 16.0011C0.5 22.8323 4.78164 28.6647 10.8074 30.9595C10.6607 29.7101 10.5047 27.65 10.8407 26.2045C11.1301 24.9618 12.7089 18.2866 12.7089 18.2866C12.7089 18.2866 12.2328 17.3332 12.2328 15.9211C12.2328 13.7076 13.5156 12.0542 15.1144 12.0542C16.4745 12.0542 17.1305 13.0743 17.1305 14.297C17.1305 15.6638 16.2598 17.7066 15.8104 19.6014C15.4357 21.1868 16.6065 22.4803 18.1693 22.4803C21.0001 22.4803 23.1776 19.4947 23.1776 15.1851C23.1776 11.3701 20.4361 8.70462 16.5225 8.70462C11.9915 8.70462 9.3313 12.1035 9.3313 15.6171C9.3313 16.9865 9.858 18.4533 10.5167 19.252C10.5729 19.3124 10.6126 19.3861 10.6319 19.4662C10.6513 19.5463 10.6498 19.6301 10.6274 19.7094C10.506 20.2134 10.2367 21.2949 10.1847 21.5162C10.114 21.8069 9.95401 21.8696 9.65132 21.7282C7.66184 20.8028 6.41909 17.8946 6.41909 15.5584C6.41909 10.5328 10.0687 5.91909 16.9425 5.91909C22.4682 5.91909 26.7632 9.8567 26.7632 15.1184C26.7632 20.6081 23.303 25.0271 18.4973 25.0271C16.8825 25.0271 15.3664 24.1871 14.8464 23.1963C14.8464 23.1963 14.0476 26.2392 13.8543 26.9833C13.4783 28.4287 12.4355 30.2582 11.7888 31.2969C13.2796 31.7556 14.861 32.0023 16.5011 32.0023C25.3378 32.0023 32.5023 24.8378 32.5023 16.0011C32.5023 7.16451 25.3378 0 16.5011 0C7.66451 0 0.5 7.16451 0.5 16.0011Z" fill="#464646"/>
</svg>
