<svg width="30" height="30" viewBox="0 0 30 30" fill="none" xmlns="http://www.w3.org/2000/svg">
<path d="M23.873 13.2978C19.0379 10.4264 11.0624 10.1623 6.44669 11.5632C5.70531 11.7882 4.92148 11.3698 4.69687 10.6286C4.47225 9.88685 4.89032 9.10357 5.63205 8.87823C10.9306 7.26992 19.7388 7.58052 25.3051 10.8847C25.9718 11.2806 26.1905 12.1416 25.7953 12.8072C25.3999 13.4739 24.5381 13.6937 23.873 13.2978ZM23.7147 17.5508C23.3754 18.1013 22.6558 18.2739 22.106 17.9359C18.075 15.4582 11.9281 14.7403 7.15904 16.1879C6.54054 16.3747 5.88748 16.0262 5.69958 15.4088C5.5133 14.7904 5.86204 14.1384 6.47946 13.9504C11.9274 12.2971 18.7001 13.0978 23.33 15.9431C23.8797 16.2816 24.0527 17.0017 23.7147 17.5508ZM21.8793 21.6353C21.6097 22.0774 21.0342 22.2158 20.5937 21.9464C17.0713 19.7936 12.6378 19.3075 7.41644 20.5C6.9133 20.6154 6.41177 20.3001 6.29695 19.797C6.18178 19.294 6.49595 18.7925 7.00017 18.6777C12.7141 17.3715 17.6153 17.9336 21.569 20.3496C22.0098 20.6188 22.1487 21.1947 21.8793 21.6353ZM15 0C6.71591 0 0 6.71572 0 14.9998C0 23.2848 6.71591 30 15 30C23.2845 30 30 23.2848 30 14.9998C30 6.71572 23.2845 0 15 0Z" fill="#1ED760"/>
</svg>
