<svg width="33" height="33" viewBox="0 0 33 33" fill="none" xmlns="http://www.w3.org/2000/svg">
<path d="M32.1135 6.29918C31.4034 6.61397 30.6658 6.8627 29.9101 7.04223C30.7475 6.24724 31.3711 5.25397 31.7231 4.15423C31.745 4.08467 31.7454 4.01009 31.724 3.94034C31.7027 3.87059 31.6607 3.80895 31.6036 3.76355C31.5465 3.71816 31.477 3.69114 31.4042 3.68607C31.3315 3.681 31.2589 3.69811 31.196 3.73515V3.73515C30.1456 4.35679 29.0111 4.82393 27.8275 5.12218C27.7589 5.1394 27.6883 5.14806 27.6175 5.14794C27.3985 5.14854 27.1869 5.06848 27.0231 4.92305C25.764 3.81391 24.1435 3.20235 22.4657 3.20313C21.7263 3.20539 20.9916 3.31895 20.286 3.53998C19.1845 3.8843 18.1911 4.50836 17.4028 5.35122C16.6144 6.19409 16.0581 7.22696 15.7881 8.34901C15.5866 9.17885 15.5313 10.0375 15.6246 10.8863C15.6293 10.9219 15.6261 10.958 15.6153 10.9923C15.6045 11.0265 15.5864 11.0579 15.5622 11.0844C15.5384 11.1114 15.5091 11.133 15.4763 11.1479C15.4435 11.1627 15.408 11.1705 15.372 11.1706H15.3482C12.9397 10.9516 10.5997 10.2512 8.46698 9.11098C6.33423 7.97074 4.45214 6.41387 2.93229 4.53269V4.53269C2.89552 4.48683 2.8481 4.45065 2.79415 4.4273C2.7402 4.40395 2.68136 4.39414 2.62275 4.39873C2.56415 4.40333 2.50755 4.42217 2.4579 4.45364C2.40824 4.4851 2.36703 4.52823 2.33785 4.57926V4.57926C1.5699 5.90238 1.26362 7.44326 1.46718 8.95948C1.67074 10.4757 2.3726 11.8812 3.46234 12.955C2.91322 12.825 2.38453 12.6203 1.89103 12.3466V12.3466C1.83653 12.3165 1.77517 12.301 1.71292 12.3017C1.65066 12.3023 1.58963 12.3191 1.53577 12.3503C1.4819 12.3815 1.43704 12.4261 1.40554 12.4798C1.37404 12.5335 1.35699 12.5945 1.35603 12.6567V12.6567C1.33954 13.9919 1.71093 15.3031 2.42511 16.4312C3.1393 17.5594 4.16558 18.456 5.37941 19.0123H5.23278C4.84311 19.0119 4.45434 18.9748 4.07164 18.9014V18.9014C4.01026 18.8897 3.9469 18.8941 3.88777 18.9143C3.82863 18.9344 3.77574 18.9696 3.73429 19.0163C3.69284 19.0631 3.66424 19.1198 3.6513 19.1809C3.63836 19.242 3.64153 19.3055 3.66048 19.365V19.365C4.04947 20.5729 4.76384 21.6503 5.72513 22.4788C6.68641 23.3072 7.85742 23.8547 9.10954 24.0611C7.0048 25.4758 4.52507 26.2286 1.98911 26.2229H1.19652C1.07854 26.2217 0.963554 26.26 0.869969 26.3319C0.776385 26.4037 0.709613 26.5049 0.680345 26.6192C0.652444 26.7345 0.662881 26.8558 0.710075 26.9647C0.75727 27.0736 0.838652 27.1641 0.9419 27.2226C3.82763 28.9003 7.10606 29.7843 10.4441 29.7846C13.2454 29.8109 16.0185 29.2228 18.5681 28.0617C20.8386 27.0087 22.8635 25.492 24.5125 23.6093C26.0873 21.8177 27.3204 19.7526 28.1505 17.5163C28.9542 15.3841 29.3728 13.1262 29.387 10.8477V10.7456C29.3872 10.5704 29.4268 10.3974 29.5028 10.2395C29.5787 10.0816 29.6891 9.94275 29.8259 9.83314C30.8844 8.97365 31.8078 7.96005 32.5652 6.82625V6.82625C32.6082 6.7613 32.6289 6.68419 32.6244 6.60646C32.6199 6.52873 32.5903 6.45455 32.5402 6.39501C32.49 6.33547 32.4219 6.29377 32.346 6.27614C32.2702 6.25851 32.1907 6.2659 32.1194 6.2972L32.1135 6.29918Z" fill="#464646"/>
</svg>
