<svg xmlns="http://www.w3.org/2000/svg" width="39.194" height="39.194" viewBox="0 0 39.194 39.194"><defs><style>.a,.b{fill:#786aff;}.a{opacity:0;}.c{fill:#fa9797;}</style></defs><rect class="a" width="39" height="39"/><rect class="b" width="4" height="4" transform="translate(7 13)"/><rect class="b" width="4" height="4" transform="translate(13 13)"/><rect class="b" width="4" height="4" transform="translate(20 13)"/><rect class="b" width="4" height="4" transform="translate(7 20)"/><rect class="b" width="4" height="4" transform="translate(13 20)"/><rect class="b" width="4" height="5" transform="translate(7 26)"/><path class="b" d="M8.948,15.275A13.4,13.4,0,0,1,9.367,12H6v4.367H9C8.974,16.007,8.948,15.644,8.948,15.275Z" transform="translate(7.101 14.202)"/><path class="b" d="M15.275,8.948c.369,0,.73.026,1.092.055V6H12V9.367a13.412,13.412,0,0,1,3.275-.419Z" transform="translate(14.202 7.101)"/><path class="b" d="M17.216,33.752H2.183V7.55H6.55V8.642A1.092,1.092,0,0,0,7.642,9.734H9.826a1.092,1.092,0,0,0,1.092-1.092V7.55H26.2V8.642a1.092,1.092,0,0,0,1.092,1.092h2.183a1.092,1.092,0,0,0,1.092-1.092V7.55h4.367v8.482a13.383,13.383,0,0,1,2.183,1.227V6.459a1.092,1.092,0,0,0-1.092-1.092H30.569V2.092A1.092,1.092,0,0,0,29.477,1H27.294A1.092,1.092,0,0,0,26.2,2.092V5.367H10.917V2.092A1.092,1.092,0,0,0,9.826,1H7.642A1.092,1.092,0,0,0,6.55,2.092V5.367H1.092A1.092,1.092,0,0,0,0,6.459V34.844a1.092,1.092,0,0,0,1.092,1.092H18.443a13.411,13.411,0,0,1-1.227-2.183Z" transform="translate(0 1.183)"/><path class="c" d="M18.767,9.05a9.717,9.717,0,1,0,9.717,9.717A9.717,9.717,0,0,0,18.767,9.05Zm5.459,10.262a.546.546,0,0,1-.546.546H19.858v3.821a.546.546,0,0,1-.546.546H18.221a.546.546,0,0,1-.546-.546V19.858H13.854a.546.546,0,0,1-.546-.546V18.221a.546.546,0,0,1,.546-.546h3.821V13.854a.546.546,0,0,1,.546-.546h1.092a.546.546,0,0,1,.546.546v3.821h3.821a.546.546,0,0,1,.546.546Z" transform="translate(10.711 10.711)"/></svg>