<svg xmlns="http://www.w3.org/2000/svg" width="112" height="112" viewBox="0 0 112 112"><defs><style>.a,.f{fill:#fff;}.b{fill:#9c92ff;}.b,.c{fill-rule:evenodd;}.c{fill:#786aff;}.d,.e{fill:#fa9797;}.d{stroke:#fff;stroke-width:4px;}.f{opacity:0;}</style></defs><g transform="translate(-254 -1974)"><g transform="translate(254 1974)"><rect class="a" width="112" height="112" rx="10"/><g transform="translate(-190.507 -35.505)"><path class="b" d="M211,64.407v38.507a2.407,2.407,0,1,0,4.813,0V64.407a2.407,2.407,0,1,0-4.813,0Z" transform="translate(4.22 14.068)"/><path class="b" d="M211,64.407v38.507a2.407,2.407,0,1,0,4.813,0V64.407a2.407,2.407,0,1,0-4.813,0Z" transform="translate(61.98 14.068)"/><path class="c" d="M242.463,53.275,209.033,76.5a2.407,2.407,0,0,0,1.374,4.383h72.2a2.407,2.407,0,0,0,1.374-4.383L250.55,53.275A7.043,7.043,0,0,0,242.463,53.275Z" transform="translate(0)"/><path class="c" d="M282.607,112.886h2.407a7.221,7.221,0,0,0-7.22-7.22H215.22a7.221,7.221,0,0,0-7.22,7.22h0a7.221,7.221,0,0,0,7.22,7.22h62.573a7.221,7.221,0,0,0,7.22-7.22Z" transform="translate(0 8.907)"/><ellipse class="d" cx="21.512" cy="21" rx="21.512" ry="21" transform="translate(225.507 77.505)"/><circle class="e" cx="17" cy="17" r="17" transform="translate(229.507 81.505)"/><g transform="translate(234.528 86.527)"><rect class="f" width="24" height="24" transform="translate(-0.021 -0.021)"/><circle class="a" cx="2.5" cy="2.5" r="2.5" transform="translate(11.979 6.979)"/><path class="a" d="M4,12.982V3.665A.665.665,0,0,1,4.665,3h17.3a.665.665,0,0,1,.665.665v9.317a.665.665,0,0,1-.665.665H4.665A.665.665,0,0,1,4,12.982ZM21.3,6.765a4,4,0,0,1-2.434-2.434H7.765A4,4,0,0,1,5.331,6.765V9.883a4,4,0,0,1,2.434,2.434h11.1A4,4,0,0,1,21.3,9.883Z" transform="translate(1.324 0.993)"/><path class="a" d="M21.3,15.979H2.665A.665.665,0,0,1,2,15.313V4.665A.665.665,0,0,1,2.665,4h.665V14.648H21.964v.665A.665.665,0,0,1,21.3,15.979Z" transform="translate(0.662 1.324)"/><path class="a" d="M19.3,17.979H.665A.665.665,0,0,1,0,17.313V6.665A.665.665,0,0,1,.665,6h.665V16.648H19.964v.665A.665.665,0,0,1,19.3,17.979Z" transform="translate(0 1.986)"/></g></g></g></g></svg>