<svg xmlns="http://www.w3.org/2000/svg" width="40" height="40" viewBox="0 0 40 40"><defs><style>.a,.d{fill:#786aff;}.a{opacity:0;}.b{fill:#696969;}.c{fill:#9c92ff;}.e{fill:#5858e0;}.f{fill:#dcf5fa;}.g{fill:#bedce6;}.h{fill:#fa9797;}.i{fill:#fff;}</style></defs><rect class="a" width="40" height="40"/><g transform="translate(2.85 2.735)"><path class="b" d="M30.5,0H3.113A3.116,3.116,0,0,0,0,3.113V30.5a3.116,3.116,0,0,0,3.113,3.113H23.587a1.037,1.037,0,0,0,.734-.3l8.992-8.992a1.037,1.037,0,0,0,.3-.734V3.113A3.116,3.116,0,0,0,30.5,0Z"/><path class="c" d="M16.808,0H3.113A3.116,3.116,0,0,0,0,3.113v13.7H16.808Z"/><path class="d" d="M259.808,16.808V3.113A3.116,3.116,0,0,0,256.7,0H243V16.808Z" transform="translate(-226.192)"/><path class="c" d="M243,243v16.808h6.779a1.037,1.037,0,0,0,.734-.3l8.992-8.992a1.037,1.037,0,0,0,.3-.734V243Zm15.771,6.779h0Z" transform="translate(-226.192 -226.192)"/><path class="e" d="M0,243v13.7a3.116,3.116,0,0,0,3.113,3.113h13.7V243Z" transform="translate(0 -226.192)"/><path class="f" d="M77.379,73.921H76V72.538a1.038,1.038,0,0,0-2.075,0v1.383H72.538a1.038,1.038,0,0,0,0,2.075h1.383v1.383a1.038,1.038,0,1,0,2.075,0V76h1.383a1.038,1.038,0,1,0,0-2.075Z" transform="translate(-66.554 -66.554)"/><path class="g" d="M320.379,108.575h-4.842a1.038,1.038,0,1,1,0-2.075h4.842a1.038,1.038,0,1,1,0,2.075Z" transform="translate(-292.746 -99.133)"/><path class="f" d="M85.734,327.266l1-1a1.038,1.038,0,0,0-1.467-1.467l-1,1-1-1a1.038,1.038,0,0,0-1.467,1.467l1,1-1,1a1.037,1.037,0,1,0,1.467,1.467l1-1,1,1a1.037,1.037,0,0,0,1.467-1.467Z" transform="translate(-75.862 -302.054)"/><path class="h" d="M212.721,223.442a10.721,10.721,0,1,1,10.721-10.721A10.733,10.733,0,0,1,212.721,223.442Z" transform="translate(-188.028 -188.028)"/><g transform="translate(21.235 21.581)"><path class="i" d="M312.879,374.075h-4.842a1.038,1.038,0,0,1,0-2.075h4.842a1.038,1.038,0,0,1,0,2.075Z" transform="translate(-307 -367.85)"/><path class="i" d="M312.879,314.075h-4.842a1.038,1.038,0,1,1,0-2.075h4.842a1.038,1.038,0,0,1,0,2.075Z" transform="translate(-307 -312)"/></g></g></svg>