<svg xmlns="http://www.w3.org/2000/svg" width="40" height="40" viewBox="0 0 40 40"><defs><style>.a,.c{fill:#786aff;}.a{opacity:0;}.b{fill:#fa9797;}</style></defs><g transform="translate(0.198)"><rect class="a" width="40" height="40" transform="translate(-0.198)"/><circle class="b" cx="4.83" cy="4.83" r="4.83" transform="translate(16.361 15.822)"/><path class="c" d="M5.748,10.156H1A18.164,18.164,0,0,0,16.374,25.531V20.783A13.486,13.486,0,0,1,5.748,10.156Z" transform="translate(2.22 13.091)"/><path class="c" d="M20.782,10.156A13.486,13.486,0,0,1,10.156,20.783v4.748A18.164,18.164,0,0,0,25.53,10.156Z" transform="translate(13.631 13.091)"/><path class="c" d="M16.374,5.749V1A18.163,18.163,0,0,0,1,16.374H5.749A13.478,13.478,0,0,1,16.374,5.749Z" transform="translate(2.22 1.681)"/><path class="c" d="M20.781,16.374H25.53A18.163,18.163,0,0,0,10.156,1V5.749A13.478,13.478,0,0,1,20.781,16.374Z" transform="translate(13.631 1.681)"/></g></svg>