<svg xmlns="http://www.w3.org/2000/svg" width="41.193" height="41.193" viewBox="0 0 41.193 41.193"><defs><style>.a,.b{fill:#786aff;}.a{opacity:0;}.c{fill:#fa9797;}</style></defs><rect class="a" width="41" height="41"/><path class="b" d="M17.02,5.577H1V2.716A1.716,1.716,0,0,1,2.716,1H11.5a2.288,2.288,0,0,1,1.618.67Z" transform="translate(1.289 1.289)"/><path class="c" d="M22.506,22.032v-1.6a1.105,1.105,0,0,1,.281-.713A8.429,8.429,0,0,0,24.7,14.454c0-3.981-2.111-6.206-5.3-6.206s-5.362,2.313-5.362,6.206a8.521,8.521,0,0,0,2.009,5.264,1.1,1.1,0,0,1,.281.713V22.02a1.1,1.1,0,0,1-.957,1.107c-6.408.557-7.368,4.942-7.368,6.671,0,.2-.007.769-.007.769H30.885V29.8c0-1.657-1.132-6.026-7.426-6.665a1.1,1.1,0,0,1-.953-1.105Z" transform="translate(10.308 10.627)"/><path class="b" d="M21.241,25.694a11.81,11.81,0,0,1-1.613-5.757c0-5.674,3.616-9.639,8.795-9.639,5.222,0,8.734,3.873,8.734,9.639A12.006,12.006,0,0,1,35.6,25.726a12.225,12.225,0,0,1,2.017.792V5.144A1.144,1.144,0,0,0,36.472,4H1V28.029a1.144,1.144,0,0,0,1.144,1.144h13.7a10.353,10.353,0,0,1,5.4-3.48Z" transform="translate(1.289 5.154)"/></svg>