<svg xmlns="http://www.w3.org/2000/svg" width="40" height="40" viewBox="0 0 40 40"><defs><style>.a,.b{fill:#786aff;}.a{opacity:0;}</style></defs><rect class="a" width="40" height="40"/><g transform="translate(1.898 2.295)"><rect class="a" width="37" height="37" transform="translate(0.102 -0.294)"/><path class="b" d="M28.734,10.969l-6.524.01a21.39,21.39,0,0,0,.8-6.056A3.788,3.788,0,0,0,19.846,1a3.314,3.314,0,0,0-3.268,3.152c-.469,4.537-5.232,8.23-7.737,9.336a.986.986,0,0,0-.869-.535H2a1,1,0,0,0-1,1V29.886a1,1,0,0,0,1,1H7.972a1,1,0,0,0,1-1v-1H23.356a4.618,4.618,0,0,0,4.11-2.413l3.968-11.233a2.988,2.988,0,0,0-2.7-4.275Zm.9,3.411-4,11.311A1.835,1.835,0,0,1,23.9,26.917L8.968,26.9V15.542c2.856-1.148,9.114-5.5,9.6-11.355a1.369,1.369,0,0,1,1.276-1.2c.608,0,1.117.739,1.168,1.93a14.99,14.99,0,0,1-1.739,8.03h9.463a1,1,0,0,1,.9,1.426Z" transform="translate(1.574 1.439)"/></g></svg>