<svg xmlns="http://www.w3.org/2000/svg" width="39.999" height="40" viewBox="0 0 39.999 40"><defs><style>.a,.c{fill:#786aff;}.b{fill:#fa9797;}.c{opacity:0.3;}</style></defs><g transform="translate(-9.779 -9.744)"><path class="a" d="M35.29,19.4a2.893,2.893,0,0,1-.185-.339,2.315,2.315,0,0,1-.123-.277.57.57,0,0,0-.062-.17c-.023-.062-.062-.185-.085-.277s-.054-.231-.077-.347a4.28,4.28,0,0,1-.054-.439V17.1a2.617,2.617,0,0,1-3.54,2.612,2.582,2.582,0,0,1-1.635-2.442v-.5a4.088,4.088,0,0,1-.077.817,1.544,1.544,0,0,1,0,.2,1.46,1.46,0,0,1-.069.262,2.061,2.061,0,0,1-.085.262,3.7,3.7,0,0,1-.208.509.363.363,0,0,0-.038.077l-.131.231-.069.108a2.791,2.791,0,0,1-.169.247,3.957,3.957,0,0,1-.277-.5c-.038-.077-.069-.154-.1-.231a3.985,3.985,0,0,1-.315-1.064,3.669,3.669,0,0,1,0-.416v-.5a3.076,3.076,0,1,1-6.151,0v.5a4.04,4.04,0,0,1-.285,1.5.525.525,0,0,1-.092.216,3.572,3.572,0,0,1-.277.5,2.791,2.791,0,0,1-.169-.247l-.069-.108-.131-.231-.038-.077a3.7,3.7,0,0,1-.208-.509,2.061,2.061,0,0,1-.085-.262,1.459,1.459,0,0,1-.069-.262,1.545,1.545,0,0,1,0-.2,4.087,4.087,0,0,1-.115-.817v.5a2.579,2.579,0,0,1-2.576,2.582,2.8,2.8,0,0,1-.569-.062l-.169-.046a1.8,1.8,0,0,1-.469-.2L15.4,20.663a3.948,3.948,0,0,0,1.4.624l.177.039a3.015,3.015,0,0,0,.369.046,3.068,3.068,0,0,0,.377,0,3.643,3.643,0,0,0,.415,0,3.068,3.068,0,0,0,.384-.054,3.993,3.993,0,0,0,1.5-.632c.054,0,.108-.077.161-.116a1.869,1.869,0,0,0,.192-.154,2.8,2.8,0,0,0,.346-.331c.077-.085.154-.17.223-.262a2.937,2.937,0,0,0,.223-.316h0l.046.054a2.7,2.7,0,0,0,.223.277,4.711,4.711,0,0,0,.561.547c.108.085.208.162.315.231a4.6,4.6,0,0,0,5.167,0c.108-.069.208-.146.315-.231a4.71,4.71,0,0,0,.577-.532,2.7,2.7,0,0,0,.223-.277l.046-.054a4.114,4.114,0,0,0,2.661,1.827,3.068,3.068,0,0,0,.384.054,3.644,3.644,0,0,0,.415,0,4.124,4.124,0,0,0,3.007-1.31,3.62,3.62,0,0,0,.346-.424A3.085,3.085,0,0,1,35.29,19.4ZM28.761,36.041a.77.77,0,0,1,.769.678l.1.863h1.438V36.041Zm6.982-10.313a.769.769,0,0,1,.707-.478H34.913A3.849,3.849,0,0,0,31.068,29.1v2.312h.769a.77.77,0,0,0,.769-.771V29.1a2.31,2.31,0,0,1,2.307-2.312h1.215l-.223-.224a.772.772,0,0,1-.161-.84Zm5.682-6.321a.767.767,0,0,0-.769,0,2.518,2.518,0,0,1-1.384.416h-.446a2.579,2.579,0,0,1-2.568-2.413v-.447a.77.77,0,0,0-1.538.054v.046A2.638,2.638,0,0,1,31.186,19.7a2.582,2.582,0,0,1-1.656-2.429v-.5a.769.769,0,1,0-1.538,0,3.076,3.076,0,1,1-6.151,0,.769.769,0,1,0-1.538,0v.5a2.579,2.579,0,0,1-2.576,2.582,2.8,2.8,0,0,1-.569-.062l-.169-.046a1.8,1.8,0,0,1-.469-.2,1.745,1.745,0,0,1-.338-.208l-.123-.1a2.655,2.655,0,0,1-.215-.2,2.547,2.547,0,0,1-.684-1.935v-.046A.77.77,0,0,0,13.621,17v.447a2.578,2.578,0,0,1-2.6,2.4h-.446a2.564,2.564,0,0,1-1.392-.416h0A.8.8,0,0,0,8,20.085v12.1A5.281,5.281,0,0,0,9,35.27l.146.2c.138.17.292.347.454.516l.123.108a3.946,3.946,0,0,0,.461.385l.138.1a4.757,4.757,0,0,0,.623.37l.1.054a4.269,4.269,0,0,0,.546.224.768.768,0,0,0,.177.062,4.9,4.9,0,0,0,.684.17h.169a5.064,5.064,0,0,0,.761.123H31.837a.77.77,0,0,0,.769-.771V29.1a2.31,2.31,0,0,1,2.307-2.312h6.151a.749.749,0,0,0,.707-.47.44.44,0,0,0,0-.108.533.533,0,0,0,.062-.193V20.085a.771.771,0,0,0-.408-.678ZM34.913,25.25A3.849,3.849,0,0,0,31.068,29.1v6.937H13.383a4.226,4.226,0,0,1-.546-.046H12.7a3.277,3.277,0,0,1-.492-.116h-.1a2.242,2.242,0,0,1-.415-.17l-.085-.046-.361-.208-.169-.185L10.76,35l-.062-.062a4.23,4.23,0,0,1-.346-.385l-.6.47.538-.555a3.806,3.806,0,0,1-.754-2.282V21.265h.054a.936.936,0,0,0,.2.046H11a3.983,3.983,0,0,0,1.707-.378,2.075,2.075,0,0,0,.261-.131,3.893,3.893,0,0,0,.415-.177l.315-.254a3.766,3.766,0,0,0,.646-.709,3.621,3.621,0,0,0,.346.424,2.571,2.571,0,0,0,.254.247,1.261,1.261,0,0,0,.254.2l.177.131a3.948,3.948,0,0,0,1.4.624l.177.039a3.015,3.015,0,0,0,.369.046,3.068,3.068,0,0,0,.377,0,3.643,3.643,0,0,0,.415,0,3.068,3.068,0,0,0,.384-.054,3.993,3.993,0,0,0,1.5-.632c.054,0,.108-.077.161-.116a1.87,1.87,0,0,0,.192-.154,2.8,2.8,0,0,0,.346-.331c.077-.085.154-.17.223-.262a2.937,2.937,0,0,0,.223-.316h0l.046.054a2.7,2.7,0,0,0,.223.277,4.711,4.711,0,0,0,.561.547c.108.085.208.162.315.231a4.6,4.6,0,0,0,5.167,0c.108-.069.208-.146.315-.231a4.709,4.709,0,0,0,.607-.532,2.7,2.7,0,0,0,.223-.277l.046-.054a4.114,4.114,0,0,0,2.661,1.827,3.068,3.068,0,0,0,.384.054,3.644,3.644,0,0,0,.415,0,4.124,4.124,0,0,0,3.007-1.31,3.62,3.62,0,0,0,.346-.424c.069.1.146.193.223.285l.177.185a.47.47,0,0,0,.123.123.9.9,0,0,0,.123.116l.346.247a2.983,2.983,0,0,0,.369.231l.315.154a3.983,3.983,0,0,0,1.684.37h.8a4.136,4.136,0,0,0,.431-.062.936.936,0,0,0,.2-.046H40.3V25.25Zm.377-5.85a2.893,2.893,0,0,1-.185-.339,2.315,2.315,0,0,1-.123-.277.57.57,0,0,0-.062-.17c-.023-.062-.062-.185-.085-.277s-.054-.231-.077-.347a4.28,4.28,0,0,1-.054-.439V17.1a2.617,2.617,0,0,1-3.54,2.612,2.582,2.582,0,0,1-1.635-2.442v-.5a4.088,4.088,0,0,1-.077.817,1.544,1.544,0,0,1,0,.2,1.46,1.46,0,0,1-.069.262,2.061,2.061,0,0,1-.085.262,3.7,3.7,0,0,1-.208.509.363.363,0,0,0-.038.077l-.131.231-.069.108a1.28,1.28,0,0,1-.169.247,3.957,3.957,0,0,1-.277-.5c-.038-.077-.069-.154-.1-.231a3.985,3.985,0,0,1-.315-1.064,3.669,3.669,0,0,1,0-.416v-.5a3.076,3.076,0,1,1-6.151,0v.5a4.04,4.04,0,0,1-.285,1.5.525.525,0,0,1-.092.216,3.572,3.572,0,0,1-.277.5,1.28,1.28,0,0,1-.169-.247l-.069-.108-.131-.231-.038-.077a3.7,3.7,0,0,1-.208-.509,2.061,2.061,0,0,1-.085-.262,1.459,1.459,0,0,1-.069-.262,1.545,1.545,0,0,1,0-.2,4.087,4.087,0,0,1-.115-.817v.5a2.579,2.579,0,0,1-2.576,2.582,2.8,2.8,0,0,1-.569-.062l-.169-.046a1.8,1.8,0,0,1-.469-.2L15.4,20.663a3.948,3.948,0,0,0,1.4.624l.177.039a3.015,3.015,0,0,0,.369.046,3.068,3.068,0,0,0,.377,0,3.643,3.643,0,0,0,.415,0,3.068,3.068,0,0,0,.384-.054,3.993,3.993,0,0,0,1.5-.632c.054,0,.108-.077.161-.116a1.869,1.869,0,0,0,.192-.154,2.8,2.8,0,0,0,.346-.331c.077-.085.154-.17.223-.262a2.937,2.937,0,0,0,.223-.316h0l.046.054a2.7,2.7,0,0,0,.223.277,4.711,4.711,0,0,0,.561.547c.108.085.208.162.315.231a4.6,4.6,0,0,0,5.167,0c.108-.069.208-.146.315-.231a4.71,4.71,0,0,0,.577-.532,2.7,2.7,0,0,0,.223-.277l.046-.054a4.114,4.114,0,0,0,2.661,1.827,3.068,3.068,0,0,0,.384.054,3.644,3.644,0,0,0,.415,0,4.124,4.124,0,0,0,3.007-1.31,3.62,3.62,0,0,0,.346-.424A3.085,3.085,0,0,1,35.29,19.4Z" transform="translate(3.321 1.418)"/><path class="a" d="M33.792,48.845l-.092-.678-.578-4.625-.1-.863A.771.771,0,0,0,32.25,42H24.542a.771.771,0,0,0-.771.678l-.1.863-.578,4.625-.085.678a.769.769,0,0,0,.763.863h9.25a.771.771,0,0,0,.316-.069.648.648,0,0,0,.262-.193.817.817,0,0,0,.131-.2A.709.709,0,0,0,33.792,48.845Zm-9.15-.678.578-4.625h6.351l.578,4.625Z" transform="translate(-0.155 -4.589)"/><path class="a" d="M32.666,47.1a.771.771,0,0,1-.771.771H18.021a.771.771,0,1,1,0-1.542H31.9A.771.771,0,0,1,32.666,47.1ZM31.9,35.542H8.771a.771.771,0,1,1,0-1.542H31.9a.771.771,0,0,1,0,1.542Z" transform="translate(3.321 -2.756)"/><path class="a" d="M53.031,30.174A3.854,3.854,0,0,0,49.562,28H41.854A3.854,3.854,0,0,0,38,31.854V47.27a3.854,3.854,0,0,0,3.854,3.854h7.708a3.854,3.854,0,0,0,3.854-3.854V31.854a3.854,3.854,0,0,0-.386-1.681Zm-1.156,17.1a2.312,2.312,0,0,1-2.312,2.312H41.854a2.312,2.312,0,0,1-2.312-2.312V31.854a2.312,2.312,0,0,1,2.312-2.312h7.708a2.312,2.312,0,0,1,2.266,1.835,2.451,2.451,0,0,1,.046.478ZM42.687,28.478A.771.771,0,0,1,43.4,28H41.854A3.854,3.854,0,0,0,38,31.854v13.1h.247l1.295-1.295V31.854a2.312,2.312,0,0,1,2.312-2.312h1.218l-.224-.224A.771.771,0,0,1,42.687,28.478Z" transform="translate(-3.637 -1.38)"/><path class="a" d="M48.625,30.312H45.542a.771.771,0,0,1-.547-.224l-.771-.771A.776.776,0,0,1,44.771,28H49.4a.776.776,0,0,1,.547,1.318l-.771.771A.771.771,0,0,1,48.625,30.312Z" transform="translate(-5.013 -1.335)"/><g transform="translate(9.779 9.744)"><circle class="a" cx="0.771" cy="0.771" r="0.771" transform="translate(17.687 24.609)"/><circle class="a" cx="0.771" cy="0.771" r="0.771" transform="translate(31.52 35.375)"/><g transform="translate(0 0)"><g transform="translate(28.438 23.913)"><path class="b" d="M48.4,46.937H45.312A2.312,2.312,0,0,1,43,44.625V40.771A.771.771,0,0,1,43.771,40h6.166a.771.771,0,0,1,.771.771v3.854A2.312,2.312,0,0,1,48.4,46.937Zm-3.854-5.4v3.083a.771.771,0,0,0,.771.771H48.4a.771.771,0,0,0,.771-.771V41.542Z" transform="translate(-43 -37.788)"/><path class="b" d="M48.884,40.784H45.8a.671.671,0,0,1-.671-.671v-.771a2.212,2.212,0,0,1,4.424,0v.771a.671.671,0,0,1-.671.671Zm-2.413-1.341h1.742v-.1a.871.871,0,1,0-1.742,0Z" transform="translate(-43.488 -37.13)"/></g><path class="b" d="M10.571,19.1h-.447A4.132,4.132,0,0,1,6,14.98v-.17a4.185,4.185,0,0,1,.077-.771.4.4,0,0,1,0-.085l1.6-5.218A3.854,3.854,0,0,1,11.4,6h3.083a.778.778,0,0,1,.771.825l-.563,8.425A4.132,4.132,0,0,1,10.571,19.1ZM7.58,14.332a3.615,3.615,0,0,0-.039.478v.17a2.6,2.6,0,0,0,2.582,2.582h.447a2.582,2.582,0,0,0,2.575-2.413l.509-7.608H11.4a2.312,2.312,0,0,0-2.2,1.642Z" transform="translate(-6 -6)"/><path class="b" d="M19.424,19.1a4.132,4.132,0,0,1-4.116-4.4l.532-7.986A.771.771,0,0,1,16.61,6h6.166a.771.771,0,0,1,.771.771V14.98A4.132,4.132,0,0,1,19.424,19.1Zm-2.1-11.562-.478,7.269a2.544,2.544,0,0,0,.686,1.935,2.582,2.582,0,0,0,4.471-1.765V7.542Z" transform="translate(-8.151 -6)"/><path class="b" d="M32.479,6H24.771A.771.771,0,0,0,24,6.771v7.708a4.078,4.078,0,0,0,.077.817,1.542,1.542,0,0,0,0,.2,1.457,1.457,0,0,0,.069.262,2.058,2.058,0,0,0,.085.262,3.7,3.7,0,0,0,.208.509l.039.077.131.231.069.108a2.789,2.789,0,0,0,.17.247h0l.046.054a2.7,2.7,0,0,0,.224.277,4.717,4.717,0,0,0,.563.547c.108.085.208.162.316.231a4.625,4.625,0,0,0,5.18,0c.108-.069.208-.146.316-.231a4.718,4.718,0,0,0,.6-.509,2.706,2.706,0,0,0,.224-.277l.046-.054h0a2.79,2.79,0,0,0,.17-.247l.069-.108.131-.231a.362.362,0,0,1,.039-.077,3.7,3.7,0,0,0,.208-.509,2.058,2.058,0,0,0,.085-.262,1.457,1.457,0,0,0,.069-.262,1.543,1.543,0,0,0,0-.2,4.078,4.078,0,0,0,.116-.856V6.771A.771.771,0,0,0,32.479,6ZM28.625,17.562a3.083,3.083,0,0,1-3.083-3.083V7.542h6.166v6.937A3.083,3.083,0,0,1,28.625,17.562Z" transform="translate(-10.167 -6)"/><path class="b" d="M41.76,7.542l-.054-.825A.771.771,0,0,0,40.936,6H34.769A.771.771,0,0,0,34,6.771V14.98a3.66,3.66,0,0,0,0,.416,3.977,3.977,0,0,0,.254,1.064.6.6,0,0,0,.1.231,3.955,3.955,0,0,0,.277.5h0A4.124,4.124,0,0,0,37.3,19.019a3.083,3.083,0,0,0,.385.054,3.661,3.661,0,0,0,.416,0,4.139,4.139,0,0,0,3.014-1.31,3.623,3.623,0,0,0,.347-.424,4.155,4.155,0,0,0,.771-2.667Zm-1.75,9.2A2.582,2.582,0,0,1,35.54,14.98V7.542h4.679l.409,6.251.069.971v.046A2.544,2.544,0,0,1,40.011,16.745Z" transform="translate(-12.478 -6)"/><path class="b" d="M51.172,14.016a.4.4,0,0,0,0-.085l-1.6-5.2A3.854,3.854,0,0,0,45.854,6H42.77A.778.778,0,0,0,42,6.825l.046.717.416,6.251.069.971v.493a4.273,4.273,0,0,0,.054.439,2.8,2.8,0,0,0,.077.347.957.957,0,0,0,.085.277,1.784,1.784,0,0,0,.062.17,2.312,2.312,0,0,0,.123.277,2.89,2.89,0,0,0,.185.339,3.084,3.084,0,0,0,.17.262c.069.1.146.193.224.285l.177.185a.47.47,0,0,0,.123.123.9.9,0,0,0,.123.116l.378.254a2.991,2.991,0,0,0,.37.231l.316.154a4,4,0,0,0,1.688.37h.8a4.154,4.154,0,0,0,.432-.062.94.94,0,0,0,.2-.046h.046a4.116,4.116,0,0,0,1.187-.532,4.162,4.162,0,0,0,.355-.254,4.1,4.1,0,0,0,1.542-3.207v-.17a4.186,4.186,0,0,0-.077-.8Zm-1.465.964a2.567,2.567,0,0,1-1.195,2.166,2.528,2.528,0,0,1-1.387.416h-.447A2.582,2.582,0,0,1,44.1,15.149V14.7L43.6,7.542h2.312a2.312,2.312,0,0,1,2.2,1.642l1.6,5.149a3.615,3.615,0,0,1,0,.478Z" transform="translate(-14.333 -6)"/></g></g><path class="c" d="M37.571,44v4.625h-.863L36.13,44Z" transform="translate(-3.176 -5.033)"/></g></svg>