<svg xmlns="http://www.w3.org/2000/svg" width="130" height="130" viewBox="0 0 130 130"><defs><style>.a{fill:none;}.b,.d{fill:#786aff;}.c{fill:#fa9797;}.d{opacity:0.3;}</style></defs><g transform="translate(-94 -4375)"><rect class="a" width="130" height="130" transform="translate(94 4375)"/><g transform="translate(100.391 4381.344)"><path class="b" d="M74.744,24.294a7.053,7.053,0,0,1-.451-.827,5.642,5.642,0,0,1-.3-.677,1.39,1.39,0,0,0-.15-.414c-.056-.15-.15-.451-.207-.677s-.132-.564-.188-.846a10.419,10.419,0,0,1-.132-1.072V18.689a6.206,6.206,0,0,1-1.674,4.72A6.3,6.3,0,0,1,60.658,19.1V17.881a9.949,9.949,0,0,1-.188,1.993,3.759,3.759,0,0,1,0,.489A3.554,3.554,0,0,1,60.3,21a5.02,5.02,0,0,1-.207.639,9.026,9.026,0,0,1-.508,1.241.884.884,0,0,0-.094.188l-.32.564L59,23.9a6.809,6.809,0,0,1-.414.6,9.647,9.647,0,0,1-.677-1.222c-.094-.188-.169-.376-.244-.564a9.7,9.7,0,0,1-.771-2.6,8.931,8.931,0,0,1,0-1.016V17.881a7.523,7.523,0,1,1-15.045,0V19.1a9.836,9.836,0,0,1-.7,3.648,1.279,1.279,0,0,1-.226.527,8.708,8.708,0,0,1-.677,1.222,6.807,6.807,0,0,1-.414-.6l-.169-.263-.32-.564-.094-.188a9.026,9.026,0,0,1-.508-1.241A5.021,5.021,0,0,1,38.542,21a3.554,3.554,0,0,1-.169-.639,3.761,3.761,0,0,1,0-.489,9.949,9.949,0,0,1-.282-1.993V19.1a6.3,6.3,0,0,1-6.3,6.3,6.864,6.864,0,0,1-1.392-.15l-.414-.113a4.4,4.4,0,0,1-1.147-.489l-2.727,2.727A9.666,9.666,0,0,0,29.533,28.9l.433.094a7.391,7.391,0,0,0,.9.113,7.524,7.524,0,0,0,.922,0,8.934,8.934,0,0,0,1.016,0,7.523,7.523,0,0,0,.94-.132,9.779,9.779,0,0,0,3.667-1.542c.132,0,.263-.188.395-.282a4.569,4.569,0,0,0,.47-.376,6.846,6.846,0,0,0,.846-.809c.188-.207.376-.414.545-.639a7.166,7.166,0,0,0,.545-.771h0l.113.132a6.6,6.6,0,0,0,.545.677A11.51,11.51,0,0,0,42.247,26.7c.263.207.508.395.771.564a11.284,11.284,0,0,0,12.638,0c.263-.169.508-.357.771-.564a11.509,11.509,0,0,0,1.41-1.3,6.6,6.6,0,0,0,.545-.677l.113-.132A10.061,10.061,0,0,0,65,29.052a7.522,7.522,0,0,0,.94.132,8.932,8.932,0,0,0,1.016,0,10.1,10.1,0,0,0,7.353-3.2,8.837,8.837,0,0,0,.846-1.034A7.524,7.524,0,0,1,74.744,24.294ZM58.778,64.9a1.881,1.881,0,0,1,1.881,1.655l.244,2.106h3.517V64.9ZM75.854,39.734a1.881,1.881,0,0,1,1.73-1.166H73.823a9.4,9.4,0,0,0-9.4,9.4v5.642H66.3a1.881,1.881,0,0,0,1.881-1.881V47.971a5.642,5.642,0,0,1,5.642-5.642h2.971l-.545-.545a1.881,1.881,0,0,1-.395-2.05Zm13.9-15.421a1.881,1.881,0,0,0-1.881,0,6.168,6.168,0,0,1-3.385,1.016H83.4a6.3,6.3,0,0,1-6.281-5.886V18.351a1.883,1.883,0,0,0-3.761.132V18.6a6.206,6.206,0,0,1-1.674,4.72A6.3,6.3,0,0,1,60.658,19.1V17.881a1.881,1.881,0,0,0-3.761,0,7.523,7.523,0,1,1-15.045,0,1.881,1.881,0,0,0-3.761,0V19.1a6.3,6.3,0,0,1-6.3,6.3,6.864,6.864,0,0,1-1.392-.15l-.414-.113a4.4,4.4,0,0,1-1.147-.489,4.269,4.269,0,0,1-.827-.508l-.3-.244a6.488,6.488,0,0,1-.527-.489,6.206,6.206,0,0,1-1.674-4.72v-.113a1.883,1.883,0,0,0-3.761-.132v1.091A6.3,6.3,0,0,1,15.391,25.4H14.3a6.281,6.281,0,0,1-3.4-1.016h0A1.961,1.961,0,0,0,8,25.967V55.494a12.864,12.864,0,0,0,2.445,7.523l.357.489c.339.414.715.846,1.11,1.26l.3.263a9.648,9.648,0,0,0,1.128.94l.339.244a11.641,11.641,0,0,0,1.523.9l.244.132a10.456,10.456,0,0,0,1.335.545,1.88,1.88,0,0,0,.433.15,12,12,0,0,0,1.674.414H19.3a12.413,12.413,0,0,0,1.862.3H66.3a1.881,1.881,0,0,0,1.881-1.881V47.971a5.642,5.642,0,0,1,5.642-5.642H88.868a1.832,1.832,0,0,0,1.73-1.147,1.072,1.072,0,0,0,0-.263,1.3,1.3,0,0,0,.15-.47V25.967a1.881,1.881,0,0,0-1-1.655ZM73.823,38.568a9.4,9.4,0,0,0-9.4,9.4V64.9H21.165a10.361,10.361,0,0,1-1.335-.113h-.339a8.032,8.032,0,0,1-1.2-.282h-.244a5.491,5.491,0,0,1-1.016-.414l-.207-.113-.884-.508-.414-.451-.771-.658-.15-.15a10.326,10.326,0,0,1-.846-.94l-1.467,1.147L13.6,61.06a9.272,9.272,0,0,1-1.843-5.567V28.845h.132a2.294,2.294,0,0,0,.489.113h2.953a9.761,9.761,0,0,0,4.175-.922,5.079,5.079,0,0,0,.639-.32,9.534,9.534,0,0,0,1.016-.433l.771-.621a9.2,9.2,0,0,0,1.58-1.73,8.839,8.839,0,0,0,.846,1.034,6.28,6.28,0,0,0,.621.6,3.084,3.084,0,0,0,.621.489l.433.32A9.667,9.667,0,0,0,29.458,28.9l.433.094a7.391,7.391,0,0,0,.9.113,7.523,7.523,0,0,0,.922,0,8.935,8.935,0,0,0,1.016,0,7.522,7.522,0,0,0,.94-.132,9.779,9.779,0,0,0,3.667-1.542c.132,0,.263-.188.395-.282a4.571,4.571,0,0,0,.47-.376,6.846,6.846,0,0,0,.846-.809c.188-.207.376-.414.545-.639a7.165,7.165,0,0,0,.545-.771h0l.113.132a6.6,6.6,0,0,0,.545.677A11.509,11.509,0,0,0,42.171,26.7c.263.207.508.395.771.564a11.284,11.284,0,0,0,12.638,0c.263-.169.508-.357.771-.564a11.509,11.509,0,0,0,1.486-1.3,6.6,6.6,0,0,0,.545-.677l.113-.132A10.061,10.061,0,0,0,65,29.052a7.522,7.522,0,0,0,.94.132,8.932,8.932,0,0,0,1.016,0,10.1,10.1,0,0,0,7.353-3.2,8.837,8.837,0,0,0,.846-1.034c.169.244.357.47.545.7l.433.451a1.147,1.147,0,0,0,.3.3,2.2,2.2,0,0,0,.3.282l.846.6a7.3,7.3,0,0,0,.9.564l.771.376a9.761,9.761,0,0,0,4.119.9h1.956a10.137,10.137,0,0,0,1.053-.15,2.294,2.294,0,0,0,.489-.113h.113v9.7Zm.922-14.274a7.053,7.053,0,0,1-.451-.827,5.642,5.642,0,0,1-.3-.677,1.39,1.39,0,0,0-.15-.414c-.056-.15-.15-.451-.207-.677s-.132-.564-.188-.846a10.419,10.419,0,0,1-.132-1.072V18.689a6.206,6.206,0,0,1-1.674,4.72A6.3,6.3,0,0,1,60.658,19.1V17.881a9.949,9.949,0,0,1-.188,1.993,3.759,3.759,0,0,1,0,.489A3.554,3.554,0,0,1,60.3,21a5.02,5.02,0,0,1-.207.639,9.026,9.026,0,0,1-.508,1.241.884.884,0,0,0-.094.188l-.32.564L59,23.9a3.122,3.122,0,0,1-.414.6,9.647,9.647,0,0,1-.677-1.222c-.094-.188-.169-.376-.244-.564a9.7,9.7,0,0,1-.771-2.6,8.931,8.931,0,0,1,0-1.016V17.881a7.523,7.523,0,1,1-15.045,0V19.1a9.836,9.836,0,0,1-.7,3.648,1.279,1.279,0,0,1-.226.527,8.708,8.708,0,0,1-.677,1.222,3.122,3.122,0,0,1-.414-.6l-.169-.263-.32-.564-.094-.188a9.026,9.026,0,0,1-.508-1.241A5.021,5.021,0,0,1,38.542,21a3.554,3.554,0,0,1-.169-.639,3.761,3.761,0,0,1,0-.489,9.949,9.949,0,0,1-.282-1.993V19.1a6.3,6.3,0,0,1-6.3,6.3,6.864,6.864,0,0,1-1.392-.15l-.414-.113a4.4,4.4,0,0,1-1.147-.489l-2.727,2.727A9.666,9.666,0,0,0,29.533,28.9l.433.094a7.391,7.391,0,0,0,.9.113,7.524,7.524,0,0,0,.922,0,8.934,8.934,0,0,0,1.016,0,7.523,7.523,0,0,0,.94-.132,9.779,9.779,0,0,0,3.667-1.542c.132,0,.263-.188.395-.282a4.569,4.569,0,0,0,.47-.376,6.846,6.846,0,0,0,.846-.809c.188-.207.376-.414.545-.639a7.166,7.166,0,0,0,.545-.771h0l.113.132a6.6,6.6,0,0,0,.545.677A11.51,11.51,0,0,0,42.247,26.7c.263.207.508.395.771.564a11.284,11.284,0,0,0,12.638,0c.263-.169.508-.357.771-.564a11.509,11.509,0,0,0,1.41-1.3,6.6,6.6,0,0,0,.545-.677l.113-.132A10.061,10.061,0,0,0,65,29.052a7.522,7.522,0,0,0,.94.132,8.932,8.932,0,0,0,1.016,0,10.1,10.1,0,0,0,7.353-3.2,8.837,8.837,0,0,0,.846-1.034A7.524,7.524,0,0,1,74.744,24.294Z" transform="translate(5.54 12.551)"/><path class="b" d="M49.327,58.7,49.1,57.045l-1.41-11.284-.244-2.106A1.881,1.881,0,0,0,45.566,42H26.759a1.881,1.881,0,0,0-1.881,1.655l-.244,2.106-1.41,11.284L23.017,58.7a1.876,1.876,0,0,0,1.862,2.106H47.446a1.881,1.881,0,0,0,.771-.169,1.58,1.58,0,0,0,.639-.47,1.993,1.993,0,0,0,.32-.489A1.73,1.73,0,0,0,49.327,58.7ZM27,57.045l1.41-11.284h15.5l1.41,11.284Z" transform="translate(18.752 35.448)"/><path class="b" d="M68.181,65.971A1.881,1.881,0,0,1,66.3,67.852H32.448a1.881,1.881,0,1,1,0-3.761H66.3A1.881,1.881,0,0,1,68.181,65.971ZM66.3,37.761H9.881a1.881,1.881,0,1,1,0-3.761H66.3a1.881,1.881,0,1,1,0,3.761Z" transform="translate(5.54 28.403)"/><path class="b" d="M74.673,33.3A9.4,9.4,0,0,0,66.21,28H47.4A9.4,9.4,0,0,0,38,37.4V75.016a9.4,9.4,0,0,0,9.4,9.4H66.21a9.4,9.4,0,0,0,9.4-9.4V37.4a9.4,9.4,0,0,0-.941-4.1ZM71.852,75.016a5.642,5.642,0,0,1-5.642,5.642H47.4a5.642,5.642,0,0,1-5.642-5.642V37.4A5.642,5.642,0,0,1,47.4,31.761H66.21a5.642,5.642,0,0,1,5.529,4.476,5.982,5.982,0,0,1,.113,1.166ZM49.434,29.166A1.881,1.881,0,0,1,51.165,28H47.4A9.4,9.4,0,0,0,38,37.4V69.374h.6l3.159-3.159V37.4A5.642,5.642,0,0,1,47.4,31.761h2.971l-.545-.545A1.881,1.881,0,0,1,49.434,29.166Z" transform="translate(31.959 23.119)"/><path class="b" d="M55.282,33.642H47.76a1.881,1.881,0,0,1-1.335-.545l-1.881-1.881A1.892,1.892,0,0,1,45.879,28H57.163A1.892,1.892,0,0,1,58.5,31.216L56.618,33.1A1.881,1.881,0,0,1,55.282,33.642Z" transform="translate(37.245 23.119)"/><g transform="translate(9.779 9.744)"><circle class="b" cx="1.881" cy="1.881" r="1.881" transform="translate(43.255 60.182)"/><circle class="b" cx="1.881" cy="1.881" r="1.881" transform="translate(77.106 86.51)"/><path class="c" d="M56.165,56.926H48.642A5.642,5.642,0,0,1,43,51.284v-9.4A1.881,1.881,0,0,1,44.881,40H59.926a1.881,1.881,0,0,1,1.881,1.881v9.4A5.642,5.642,0,0,1,56.165,56.926Zm-9.4-13.165v7.523a1.881,1.881,0,0,0,1.881,1.881h7.523a1.881,1.881,0,0,0,1.881-1.881V43.761Z" transform="translate(26.584 23.943)"/><path class="c" d="M54.289,46.044H46.766a1.636,1.636,0,0,1-1.636-1.636V42.527a5.4,5.4,0,0,1,10.795,0v1.881a1.636,1.636,0,0,1-1.636,1.636ZM48.4,42.772h4.25v-.244a2.125,2.125,0,0,0-4.25,0Z" transform="translate(28.461 21.416)"/><path class="c" d="M17.152,37.971H16.061A10.08,10.08,0,0,1,6,27.91V27.5a10.212,10.212,0,0,1,.188-1.881.978.978,0,0,1,0-.207L10.1,12.676A9.4,9.4,0,0,1,19.165,6h7.523a1.9,1.9,0,0,1,1.881,2.012L27.195,28.568a10.08,10.08,0,0,1-10.043,9.4ZM9.855,26.33A8.82,8.82,0,0,0,9.761,27.5v.414a6.338,6.338,0,0,0,6.3,6.3h1.091a6.3,6.3,0,0,0,6.281-5.886L24.675,9.761h-5.51a5.642,5.642,0,0,0-5.379,4.006Z" transform="translate(-6 -6)"/><path class="c" d="M25.363,37.971A10.08,10.08,0,0,1,15.32,27.233l1.3-19.484A1.881,1.881,0,0,1,18.5,6H33.544a1.881,1.881,0,0,1,1.881,1.881V27.91A10.08,10.08,0,0,1,25.363,37.971ZM20.247,9.761,19.081,27.5a6.206,6.206,0,0,0,1.674,4.72A6.3,6.3,0,0,0,31.663,27.91V9.761Z" transform="translate(2.189 -6)"/><path class="c" d="M44.687,6H25.881A1.881,1.881,0,0,0,24,7.881V26.687a9.949,9.949,0,0,0,.188,1.993,3.762,3.762,0,0,0,0,.489,3.554,3.554,0,0,0,.169.639,5.021,5.021,0,0,0,.207.639,9.027,9.027,0,0,0,.508,1.241l.094.188.32.564.169.263a6.807,6.807,0,0,0,.414.6h0l.113.132a6.6,6.6,0,0,0,.545.677A11.509,11.509,0,0,0,28.1,35.451c.263.207.508.395.771.564a11.284,11.284,0,0,0,12.638,0c.263-.169.508-.357.771-.564a11.51,11.51,0,0,0,1.467-1.241,6.6,6.6,0,0,0,.545-.677l.113-.132h0a6.807,6.807,0,0,0,.414-.6l.169-.263.32-.564a.884.884,0,0,1,.094-.188,9.027,9.027,0,0,0,.508-1.241,5.02,5.02,0,0,0,.207-.639,3.554,3.554,0,0,0,.169-.639,3.762,3.762,0,0,0,0-.489,9.949,9.949,0,0,0,.282-2.088V7.881A1.881,1.881,0,0,0,44.687,6Zm-9.4,28.21a7.523,7.523,0,0,1-7.523-7.523V9.761H42.807V26.687A7.523,7.523,0,0,1,35.284,34.21Z" transform="translate(9.852 -6)"/><path class="c" d="M52.945,9.761l-.132-2.012A1.881,1.881,0,0,0,50.933,6H35.887a1.881,1.881,0,0,0-1.881,1.881V27.91a8.931,8.931,0,0,0,0,1.016,9.7,9.7,0,0,0,.621,2.6,1.474,1.474,0,0,0,.244.564,9.649,9.649,0,0,0,.677,1.222h0a10.061,10.061,0,0,0,6.507,4.457A7.523,7.523,0,0,0,43,37.9a8.932,8.932,0,0,0,1.016,0,10.1,10.1,0,0,0,7.353-3.2,8.839,8.839,0,0,0,.846-1.034,10.137,10.137,0,0,0,1.881-6.507ZM48.676,32.216A6.3,6.3,0,0,1,37.768,27.91V9.761H49.184l1,15.252.169,2.37V27.5A6.206,6.206,0,0,1,48.676,32.216Z" transform="translate(18.65 -6)"/><path class="c" d="M64.382,25.559a.978.978,0,0,0,0-.207L60.47,12.676A9.4,9.4,0,0,0,51.405,6H43.882A1.9,1.9,0,0,0,42,8.012l.113,1.749L43.13,25.013l.169,2.37v1.2a10.423,10.423,0,0,0,.132,1.072,6.825,6.825,0,0,0,.188.846,2.334,2.334,0,0,0,.207.677,4.355,4.355,0,0,0,.15.414,5.642,5.642,0,0,0,.3.677,7.052,7.052,0,0,0,.451.827,7.523,7.523,0,0,0,.414.639c.169.244.357.47.545.7l.433.451a1.147,1.147,0,0,0,.3.3,2.2,2.2,0,0,0,.3.282l.922.621a7.3,7.3,0,0,0,.9.564l.771.376a9.761,9.761,0,0,0,4.119.9h1.956a10.136,10.136,0,0,0,1.053-.15,2.294,2.294,0,0,0,.489-.113h.113a10.043,10.043,0,0,0,2.9-1.3,10.157,10.157,0,0,0,.865-.621,10.005,10.005,0,0,0,3.761-7.823v-.414a10.213,10.213,0,0,0-.188-1.956ZM60.808,27.91a6.263,6.263,0,0,1-2.915,5.285,6.169,6.169,0,0,1-3.385,1.016H53.417a6.3,6.3,0,0,1-6.281-5.886V27.233L45.895,9.761h5.642a5.642,5.642,0,0,1,5.379,4.006L60.808,26.33a8.82,8.82,0,0,1,0,1.166Z" transform="translate(25.701 -6)"/></g><path class="d" d="M39.647,44V55.284H37.54L36.13,44Z" transform="translate(30.313 37.209)"/></g></g></svg>