<svg xmlns="http://www.w3.org/2000/svg" width="112" height="112" viewBox="0 0 112 112"><defs><style>.a{fill:#fff;}.b{fill:#9c92ff;}.c{fill:#786aff;}.d{fill:#ffa0a0;}.e{fill:#fa9797;}.f{fill:#5c546a;}</style></defs><g transform="translate(-254 -1974)"><g transform="translate(254 1974)"><rect class="a" width="112" height="112" rx="10"/><g transform="translate(5.774 -30.35)"><path class="b" d="M139.025,144.635a1.328,1.328,0,0,0-1.484-1.316L92.432,148.63a1.328,1.328,0,0,0-1.172,1.319V161.9c0,5.241,15.024,6.639,23.9,6.639s23.9-1.4,23.9-6.639v0Z" transform="translate(-65.205 -65.972)"/><path class="b" d="M223.735,167.474h-23.9v19.917h.036c8.645,0,23.113-1.328,23.865-6.237Z" transform="translate(-149.915 -84.826)"/><path class="c" d="M89.533,71.331,55.553,59.68a17.335,17.335,0,0,0-11.2,0L10.378,71.331a3.982,3.982,0,0,0,0,7.536l33.979,11.65a17.336,17.336,0,0,0,11.2,0l33.98-11.65a3.983,3.983,0,0,0,0-7.536Z"/><path class="d" d="M220.348,155.678a1.327,1.327,0,0,1-1.328-1.328V137a1.329,1.329,0,0,0-.9-1.257l-23.434-8.034a1.328,1.328,0,1,1,.861-2.512l23.434,8.035A3.983,3.983,0,0,1,221.676,137v17.35A1.327,1.327,0,0,1,220.348,155.678Z" transform="translate(-145.2 -51.785)"/><path class="e" d="M306.518,264h-2.656a1.328,1.328,0,0,1-1.328-1.328V254.7a2.656,2.656,0,0,1,2.655-2.656h0a2.655,2.655,0,0,1,2.656,2.656v7.967A1.328,1.328,0,0,1,306.518,264Z" transform="translate(-230.043 -150.811)"/><path class="f" d="M308.576,201.559l.03-.017-.008-3.634c0,.021-.019.044-.022.065Z" transform="translate(-234.756 -108.57)"/><ellipse class="a" cx="5.311" cy="2.656" rx="5.311" ry="2.656" transform="translate(44.644 72.026)"/></g></g></g></svg>