<svg xmlns="http://www.w3.org/2000/svg" width="41" height="41" viewBox="0 0 41 41"><defs><style>.a,.b{fill:#786aff;}.a{opacity:0;}.c{fill:#fa9797;}</style></defs><rect class="a" width="41" height="41"/><path class="b" d="M15.131,8.653A5.052,5.052,0,0,1,13.3,12.6c-1.115,1.058-2.174,2-2.174,2.86a3.018,3.018,0,0,0,.456,1.573.123.123,0,0,1-.114.2H8.988a.477.477,0,0,1-.371-.114,3.125,3.125,0,0,1-.683-1.973c0-1.345.829-2.2,2.2-3.575.943-.944,1.481-1.544,1.481-2.43,0-1.025-.683-1.745-2.43-1.745a7.265,7.265,0,0,0-3.6.943c-.114.057-.228,0-.228-.114V5.45c0-.114,0-.228.114-.286a9.081,9.081,0,0,1,4.347-1C13.244,4.163,15.131,6.137,15.131,8.653Z" transform="translate(6.842 5.317)"/><path class="b" d="M16.641,32.889H3.278V3.278H28.333v15.4L30.611,16.4V2.139A1.139,1.139,0,0,0,29.472,1H2.139A1.139,1.139,0,0,0,1,2.139V34.028a1.139,1.139,0,0,0,1.139,1.139H15.884Z" transform="translate(1.278 1.278)"/><path class="c" d="M30.33,13.274,25.405,8.35a1.233,1.233,0,0,0-.772-.3,1.287,1.287,0,0,0-.8.342l-12.792,12.8a.838.838,0,0,0-.214.359L8.046,29.912c-.1.321.393.727.67.727l.052-.006C9,30.578,15.9,28.22,17.133,27.849a.835.835,0,0,0,.353-.213l12.793-12.8a1.173,1.173,0,0,0,.342-.754A1.043,1.043,0,0,0,30.33,13.274ZM10.279,28.407l2.253-6.286,4.032,4.021C14.717,26.7,11.873,27.931,10.279,28.407Z" transform="translate(10.266 10.284)"/><path class="b" d="M6.548,12.893a1.9,1.9,0,0,1,1.82-1.976q.091,0,.182,0a1.9,1.9,0,0,1,2,1.793q0,.091,0,.182a1.848,1.848,0,0,1-2,2,1.877,1.877,0,0,1-2-2Z" transform="translate(8.361 13.947)"/></svg>