<svg xmlns="http://www.w3.org/2000/svg" width="40.303" height="40.303" viewBox="0 0 40.303 40.303"><defs><style>.a,.b{fill:#786aff;}.a{opacity:0;}.c{fill:#fa9797;}</style></defs><rect class="a" width="40" height="40"/><path class="b" d="M16.581,29.066a14.758,14.758,0,0,1,3.592-9.443C22.512,16.6,33.346,2.815,33.346,2.815A1.123,1.123,0,0,0,32.462,1H1.15A1.123,1.123,0,0,0,.266,2.815L13.438,19.623V36.812a1.114,1.114,0,0,0,1.886.926L17.949,35a13.619,13.619,0,0,1-1.367-5.934Z" transform="translate(0.034 1.245)"/><path class="c" d="M19.041,9.05a9.991,9.991,0,1,0,9.991,9.991A9.991,9.991,0,0,0,19.041,9.05Zm0,17.85s-7.858-6.062-7.858-9.288a4.286,4.286,0,0,1,4.286-4.286,4.5,4.5,0,0,1,3.572,2.143,4.5,4.5,0,0,1,3.572-2.143A4.286,4.286,0,0,1,26.9,17.612C26.9,20.838,19.041,26.9,19.041,26.9Z" transform="translate(11.27 11.27)"/></svg>