<svg xmlns="http://www.w3.org/2000/svg" width="130" height="130" viewBox="0 0 130 130"><defs><style>.a{fill:none;}.b{fill:#fa9797;}.c{fill:#786aff;}</style></defs><g transform="translate(-94 -4375)"><rect class="a" width="130" height="130" transform="translate(94 4375)"/><g transform="translate(104.837 4384.993)"><path class="b" d="M13.029,54.086a22.1,22.1,0,0,1,4.1-22.918l3.472,3.493,2.229-18.772L4.143,18.12l3.587,3.6C.28,30.4.009,42.846,7.409,50.276A18.1,18.1,0,0,0,13.029,54.086ZM100.762,28.38a18.1,18.1,0,0,0-5.618-3.809,22.1,22.1,0,0,1-4.1,22.918l-3.472-3.493L85.338,62.767l18.692-2.231-3.587-3.6C107.891,48.249,108.162,35.811,100.762,28.38ZM99.177,74.97a6.094,6.094,0,0,0-7.827-.656l-6.339-6.339L80.3,82.082l-9.4,9.4,1.175,1.175-2.851,2.851a4.281,4.281,0,0,0,0,6.054l3.351,3.351a4.281,4.281,0,0,0,6.054,0l2.851-2.851,1.175,1.175,3.526-3.528,4.67,4.67,5.9,1.215,4.7-4.7-6.216-1.514-4.347-4.372,1.175-1.175,14.1-4.7L99.833,82.8a6.094,6.094,0,0,0-.656-7.827ZM54.086,2A17.362,17.362,0,1,0,71.448,19.362,17.362,17.362,0,0,0,54.086,2ZM59.3,15.889H55.823v-.212A1.526,1.526,0,0,0,54.3,14.153h-.424a1.526,1.526,0,0,0-1.524,1.524V16.1a1.526,1.526,0,0,0,1.524,1.524H54.3a5,5,0,0,1,5,5v.424a4.985,4.985,0,0,1-3.472,4.733v2H52.35v-2a4.985,4.985,0,0,1-3.472-4.733v-.212H52.35v.212a1.526,1.526,0,0,0,1.524,1.524H54.3a1.526,1.526,0,0,0,1.524-1.524v-.424A1.526,1.526,0,0,0,54.3,21.1h-.424a5,5,0,0,1-5-5v-.424a4.985,4.985,0,0,1,3.472-4.733v-2h3.472v2A4.985,4.985,0,0,1,59.3,15.678ZM4.605,73.184a2.6,2.6,0,0,0,5.209,0V67.975H11.55v5.209a2.6,2.6,0,0,0,5.209,0V67.975h1.736v5.209a2.6,2.6,0,0,0,5.209,0V67.975h1.736v5.209a2.6,2.6,0,0,0,5.209,0V67.975h1.736v5.209a2.6,2.6,0,0,0,5.209,0V67.975h1.736v5.209a2.6,2.6,0,0,0,5.209,0V67.975h1.736v5.209a2.6,2.6,0,0,0,5.209,0V67.975h1.736v5.209a2.6,2.6,0,0,0,5.209,0V67.975h1.736v5.209a2.6,2.6,0,0,0,5.209,0V67.975h2.6l-9.9-10.417H11.9L2,67.975h2.6Z" transform="translate(0)"/><path class="c" d="M39.46,63.468V75.251H65.5V44a4.4,4.4,0,0,1-6.945,0,4.4,4.4,0,0,1-6.945,0,4.4,4.4,0,0,1-6.945,0,4.4,4.4,0,0,1-6.945,0,4.4,4.4,0,0,1-6.945,0,4.4,4.4,0,0,1-6.945,0,4.4,4.4,0,0,1-6.945,0,4.4,4.4,0,0,1-6.945,0A4.4,4.4,0,0,1,3,44V75.251H29.043V63.468a5.209,5.209,0,1,1,10.417,0Z" transform="translate(0.737 30.92)"/></g></g></svg>