<svg xmlns="http://www.w3.org/2000/svg" width="41" height="41" viewBox="0 0 41 41"><defs><style>.a,.b{fill:#786aff;}.a{opacity:0;}.c{fill:#fa9797;}</style></defs><rect class="a" width="41" height="41"/><path class="b" d="M21.464,17.913l1.013-2.786.861,1.72a13.507,13.507,0,0,1,8.074-1.192l5.739-8.2a.566.566,0,0,0,.1-.324V1.492a.566.566,0,0,0-1.026-.33L27,14.049l-4.6-9.194a.566.566,0,0,0-1.039.06L15.193,21.9,10.57,17.276a.566.566,0,0,0-.764-.035L1.2,24.408a.566.566,0,0,0-.2.435v4.745a.566.566,0,0,0,.939.427l7.985-6.975,5.507,5.507a13.913,13.913,0,0,1,6.033-10.634Z" transform="translate(1.266 1.173)"/><path class="c" d="M19.133,9.05A10.083,10.083,0,1,0,29.216,19.133,10.083,10.083,0,0,0,19.133,9.05ZM24.8,19.7a.566.566,0,0,1-.566.566H20.266v3.965a.566.566,0,0,1-.566.566H18.567A.566.566,0,0,1,18,24.231V20.266H14.035a.566.566,0,0,1-.566-.566V18.567A.566.566,0,0,1,14.035,18H18V14.035a.566.566,0,0,1,.566-.566H19.7a.566.566,0,0,1,.566.566V18h3.965a.566.566,0,0,1,.566.566Z" transform="translate(11.456 11.456)"/></svg>