<svg xmlns="http://www.w3.org/2000/svg" width="40" height="40" viewBox="0 0 40 40"><defs><style>.a,.i{fill:#786aff;}.a{opacity:0;}.b{fill:#666;}.c{fill:#eae8ff;}.d{fill:#fa9797;}.e{fill:#ffd2d2;}.f{fill:#ffafaf;}.g{fill:#a89fff;}.h{fill:none;stroke:#496078;stroke-width:0.5px;}</style></defs><g transform="translate(0.198)"><rect class="a" width="40" height="40" transform="translate(-0.198)"/><g transform="translate(-2.641 -1.444)"><path class="b" d="M32,33h6.36V50.808H32Z" transform="translate(-10.556 -10.92)"/><path class="c" d="M24.031,5.232A7.636,7.636,0,0,0,11,10.632V22.08H26.264V10.632A7.608,7.608,0,0,0,24.031,5.232Z" transform="translate(-2.912 0)"/><g transform="translate(2 -1)"><path class="d" d="M3,15.1V26.416l6.326-5.651Z" transform="translate(0 -4.406)"/><path class="e" d="M19.536,29.654,13.21,24l-1.094.979a1.272,1.272,0,0,1-1.7,0L9.326,24,3,29.654v.07H19.536Z" transform="translate(0 -7.644)"/><path class="d" d="M25.38,26.416V15.1l-6.326,5.66Z" transform="translate(-5.844 -4.406)"/><path class="f" d="M9.328,20.724l1.094.979a1.272,1.272,0,0,0,1.7,0l1.091-.979,6.326-5.657V15H3v.067l6.326,5.657Z" transform="translate(0 -4.368)"/></g><path class="g" d="M9.994,33,8.37,36.247a1.272,1.272,0,0,0,1.138,1.841h12.42a1.272,1.272,0,0,0,1.138-.7L25.258,33Z" transform="translate(-1.906 -10.92)"/><g transform="translate(6.127 -8.864)"><path class="h" d="M-18.011,1265.62h4.361m0,1.308h-.872m-1.745,0h-3.489m5.234,1.308h-2.617m-.872,0h-.872m-.872-2.617h.872m-2.617,1.308h.872" transform="translate(19.536 -1250.833)"/></g><path class="i" d="M39.536,3H23a7.622,7.622,0,0,1,7.632,7.632V22.08H47.167V10.632A7.632,7.632,0,0,0,39.536,3Z" transform="translate(-7.28)"/></g></g></svg>