<svg xmlns="http://www.w3.org/2000/svg" width="40" height="40" viewBox="0 0 40 40"><defs><style>.a{fill:none;opacity:0.21;}.b{fill:#fa9797;}.c{fill:#786aff;}</style></defs><g transform="translate(-696.754 -686.82)"><rect class="a" width="40" height="40" transform="translate(696.754 686.82)"/><g transform="translate(697.877 670.999)"><path class="b" d="M158.209,27.021a8.364,8.364,0,1,0-8.364,8.364A8.373,8.373,0,0,0,158.209,27.021Zm-12.253-3.167H148.2v2.241h-2.241Zm3.906,7.737h-.016a4.448,4.448,0,0,1-3.666-2.008l1.831-1.226a2.219,2.219,0,0,0,1.843,1.031h.007a2.247,2.247,0,0,0,1.86-1.037l1.822,1.239A4.417,4.417,0,0,1,149.862,31.59Zm3.873-5.5h-2.241V23.853h2.241Z" transform="translate(-131.09)"/><path class="c" d="M8.364,265.454a8.364,8.364,0,1,0,8.364,8.364A8.373,8.373,0,0,0,8.364,265.454Zm-3.889,5.255H6.715v2.241H4.475Zm6.676,6.952H5.614v-2.2h5.537v2.2Zm1.1-4.711H10.012v-2.241h2.241Z" transform="translate(0 -228.669)"/><path class="c" d="M292.474,265.454a8.364,8.364,0,1,0,8.364,8.364A8.373,8.373,0,0,0,292.474,265.454Zm-3.889,5.255h2.241v2.241h-2.241Zm5.747,7.254a2.247,2.247,0,0,0-1.86-1.037h-.007a2.219,2.219,0,0,0-1.843,1.031l-1.831-1.226a4.448,4.448,0,0,1,3.666-2.008h.016a4.417,4.417,0,0,1,3.682,2Zm2.032-5.013h-2.241v-2.241h2.241Z" transform="translate(-263.242 -228.669)"/></g></g></svg>