<svg xmlns="http://www.w3.org/2000/svg" width="40.303" height="40.303" viewBox="0 0 40.303 40.303"><defs><style>.a{fill:#fa9797;}.b{fill:#786aff;}</style></defs><g transform="translate(11.886 7.163)"><path class="a" d="M167.5,103.716a1.179,1.179,0,0,0-.776-.849l-5.793-1.931,4.114-8.228a1.181,1.181,0,0,0-1.891-1.363l-11.807,11.807a1.18,1.18,0,0,0,.461,1.954l5.793,1.931-4.114,8.228a1.181,1.181,0,0,0,1.891,1.363l11.807-11.807A1.182,1.182,0,0,0,167.5,103.716Z" transform="translate(-150.998 -90.999)"/></g><g transform="translate(2.361)"><path class="b" d="M47.79,0A20.3,20.3,0,0,0,32.361,7.284v-1.3a1.181,1.181,0,0,0-2.361,0V11c0,1.127,1.455,1.288,1.181,1.181l.073,0,4.723-.293a1.181,1.181,0,0,0-.145-2.357l-2.393.149A17.772,17.772,0,0,1,65.58,20.151a1.181,1.181,0,1,0,2.361,0A20.23,20.23,0,0,0,47.79,0Z" transform="translate(-30)"/></g><g transform="translate(0 18.971)"><path class="b" d="M36.688,250.155l-4.723.293a1.181,1.181,0,0,0-1.106,1.251,1.194,1.194,0,0,0,1.251,1.106l2.393-.149A17.772,17.772,0,0,1,2.361,242.181a1.181,1.181,0,0,0-2.361,0,20.23,20.23,0,0,0,20.151,20.151,20.3,20.3,0,0,0,15.428-7.284v1.3a1.181,1.181,0,1,0,2.361,0v-5.016A1.234,1.234,0,0,0,36.688,250.155Z" transform="translate(0 -241)"/></g></svg>