<svg xmlns="http://www.w3.org/2000/svg" width="73.658" height="149.704" viewBox="0 0 73.658 149.704"><defs><style>.a{fill:#383886;}</style></defs><path class="a" d="M1.948.571c26.329,3.3,50.976,18.064,59.516,41.711,2.5,7.082,3.617,15.317,1.5,22.47a58.715,58.715,0,0,1,10.363,26.8c1.587,13.013-1.057,27.068-10.351,36.588A39.44,39.44,0,0,1,40.539,139.7a52.62,52.62,0,0,1,10.486,6.575c2.463,2,.1,5.2-2.792,3.5-8.118-4.608-15.942-8.28-25.21-10.359-4.039-.915-3.793-5.616.265-5.615,5.65.027,8.5-3.635,9.784-7.96.864-2.91,6.127-1.55,5.982,1.437a11.758,11.758,0,0,1-5.831,9.4l.282.1c34.16-1.4,42.075-40.352,27.04-66.359A19.3,19.3,0,0,1,57.6,74.041c-7.518,7.033-19.774,7.83-30.462,4.683-10.812-3.1-21.695-11.2-21.251-21.909C6.342,46.939,17.3,42.723,27.364,43.523A46.566,46.566,0,0,1,56.836,57.366a34.55,34.55,0,0,0-1.959-12.872C47.9,23.258,24.819,8.882,1.776,3.917-.479,3.374-.492.237,1.948.571ZM44.929,54.052C36.773,48.969,24.2,45.138,15.4,49.308c-5.3,2.495-6.317,8.114-3.875,13.055,2.377,4.825,7.573,8.1,12.844,10.011,8.471,3.078,19.651,3.456,26.349-1.94a14.677,14.677,0,0,0,4.864-7.076A43.346,43.346,0,0,0,44.929,54.052Z" transform="translate(-0.101 -0.546)"/></svg>