<svg xmlns="http://www.w3.org/2000/svg" width="40" height="40" viewBox="0 0 40 40"><defs><style>.a,.e{fill:#786aff;}.a{opacity:0;}.b{fill:#fff;}.c{fill:#fa9797;}.d{fill:#d9d9db;}</style></defs><rect class="a" width="40" height="40"/><g transform="translate(0.82 0.82)"><path class="b" d="M29.8,22.076l-7.72,7.72A37.172,37.172,0,0,1,4.92,12.64a34.571,34.571,0,0,1-3-10.721,34.571,34.571,0,0,1,10.722,3A37.172,37.172,0,0,1,29.8,22.076Z" transform="translate(0.107 0.107)"/><path class="c" d="M19.38,8.749l5.935-.619a4.852,4.852,0,0,1,3.934,1.395l4.367,4.367-8.234,1.681M8.749,19.38l-.619,5.944a4.852,4.852,0,0,0,1.395,3.934l4.367,4.367,1.681-8.234" transform="translate(1.424 1.424)"/><circle class="d" cx="1.82" cy="1.82" r="1.82" transform="translate(6.743 9.317) rotate(-45)"/><path class="e" d="M28.186,27.328a.606.606,0,1,0-.858.858l4.086,4.085a.606.606,0,1,0,.858-.858Zm8.577,3.43-5.147-5.146a.606.606,0,1,0-.858.858l5.147,5.146a.606.606,0,1,0,.858-.858ZM7.6,7.6a2.426,2.426,0,1,0,3.43,0A2.426,2.426,0,0,0,7.6,7.6Zm2.573,2.573a1.213,1.213,0,1,1,0-1.715A1.213,1.213,0,0,1,10.173,10.173ZM30.444,21.912a40.758,40.758,0,0,0-2.627-4.5l7.352-1.5a.607.607,0,0,0,.308-1.024L31.11,10.525a5.409,5.409,0,0,0-4.425-1.57l-5.815.607A34.547,34.547,0,0,0,13,4.477,35.127,35.127,0,0,0,2.095,1.423a.607.607,0,0,0-.672.672A35.127,35.127,0,0,0,4.477,13a34.547,34.547,0,0,0,5.08,7.863l-.607,5.815a5.438,5.438,0,0,0,1.57,4.425l4.367,4.367a.607.607,0,0,0,.429.177.586.586,0,0,0,.175-.025.607.607,0,0,0,.421-.46l1.5-7.352a40.767,40.767,0,0,0,4.5,2.627.607.607,0,0,0,.7-.114l7.72-7.72A.607.607,0,0,0,30.444,21.912ZM26.805,10.159a4.232,4.232,0,0,1,3.445,1.22l3.572,3.572-6.76,1.379a38.871,38.871,0,0,0-4.973-5.681ZM14.952,33.822,11.379,30.25a4.235,4.235,0,0,1-1.222-3.443l.492-4.724a38.871,38.871,0,0,0,5.681,4.973Zm7.111-4.66A36.59,36.59,0,0,1,5.577,12.492,33.843,33.843,0,0,1,2.723,2.723a33.843,33.843,0,0,1,9.768,2.854A36.59,36.59,0,0,1,29.162,22.063Zm4.408,1.6a.606.606,0,1,0-.858.858l5.146,5.147a.606.606,0,1,0,.858-.858ZM21.324,17.035a2.426,2.426,0,0,0-3.43,0l-.858.858a1.213,1.213,0,1,1-1.715-1.715l.858-.857a1.213,1.213,0,0,1,1.715,0,.606.606,0,1,0,.858-.858,2.426,2.426,0,0,0-3.43,0l-.429-.429a.606.606,0,1,0-.858.858l.429.429a2.426,2.426,0,1,0,3.431,3.431l.857-.858a1.213,1.213,0,1,1,1.715,1.715l-.858.857a1.213,1.213,0,0,1-1.715,0,.606.606,0,1,0-.858.858,2.426,2.426,0,0,0,3.43,0l.429.429a.606.606,0,1,0,.858-.858l-.429-.429a2.426,2.426,0,0,0,0-3.43Z" transform="translate(0)"/></g></svg>