<svg xmlns="http://www.w3.org/2000/svg" width="40" height="40" viewBox="0 0 40 40"><defs><style>.a,.c{fill:#786aff;}.a,.b{opacity:0;}.b{fill:#ff13dc;}.d{fill:#fa9797;}</style></defs><rect class="a" width="40" height="40"/><g transform="translate(1)"><rect class="b" width="36" height="36"/><path class="c" d="M15.581,27.227A11.57,11.57,0,0,1,20.4,17.833a15.143,15.143,0,0,0,3.334-8.715c0-5.472-3.114-9.118-7.6-9.118s-7.6,3.646-7.6,9.118A15.161,15.161,0,0,0,12.1,18.151c0,1.666-.026,3-1.688,3.146C8.144,21.5.718,23.964.05,31.206A1.009,1.009,0,0,0,1,32.268H16.747a11.528,11.528,0,0,1-1.166-5.042Z" transform="translate(0.049)"/><path class="d" d="M19.041,9.05a9.991,9.991,0,1,0,9.991,9.991A9.991,9.991,0,0,0,19.041,9.05Zm0,17.85s-7.858-6.062-7.858-9.288a4.286,4.286,0,0,1,4.286-4.286,4.5,4.5,0,0,1,3.572,2.143,4.5,4.5,0,0,1,3.572-2.143A4.286,4.286,0,0,1,26.9,17.612C26.9,20.838,19.041,26.9,19.041,26.9Z" transform="translate(9.27 9.27)"/></g></svg>