<svg xmlns="http://www.w3.org/2000/svg" width="40" height="40" viewBox="0 0 40 40"><defs><style>.a,.b{fill:#786aff;}.a{opacity:0;}.c{fill:#fa9797;}</style></defs><rect class="a" width="40" height="40"/><g transform="translate(-0.192 -0.13)"><path class="b" d="M34.544,15.486a.694.694,0,0,1-.6-1.042l.925-1.6-.115-.2H26.165a1.528,1.528,0,0,1-1.319-.761L20.553,4.444H20.32L16.027,11.88a1.528,1.528,0,0,1-1.319.761H6.118l-.115.2.925,1.6a.694.694,0,1,1-1.2.694l-.925-1.6a1.524,1.524,0,0,1,1.319-2.286h8.587l4.409-7.5a1.573,1.573,0,0,1,2.639,0l4.293,7.436,8.7.067a1.523,1.523,0,0,1,1.318,2.286l-.924,1.6a.693.693,0,0,1-.6.347ZM20.435,39.1a1.508,1.508,0,0,1-1.319-.762L14.823,30.9l-8.7-.067A1.523,1.523,0,0,1,4.8,28.545l.924-1.6a.694.694,0,1,1,1.2.694L6,29.24l.115.2H14.7a1.527,1.527,0,0,1,1.319.761l4.293,7.436h.233L24.843,30.2a1.528,1.528,0,0,1,1.319-.761h8.587l.115-.2-.925-1.6a.694.694,0,1,1,1.2-.694l.925,1.6a1.524,1.524,0,0,1-1.319,2.286H26.161l-4.409,7.5A1.5,1.5,0,0,1,20.435,39.1Z" transform="translate(0)"/><path class="c" d="M11.055,20.027V15.861a2.086,2.086,0,0,0-2.083-2.083H7.583A2.086,2.086,0,0,0,5.5,15.861v4.166A2.086,2.086,0,0,0,7.583,22.11H8.972A2.086,2.086,0,0,0,11.055,20.027Zm-4.166,0V15.861a.694.694,0,0,1,.694-.694H8.972a.694.694,0,0,1,.694.694v4.166a.694.694,0,0,1-.694.694H7.583A.694.694,0,0,1,6.889,20.027Zm7.638-4.861h1.389a.694.694,0,1,0,0-1.389H14.527a2.086,2.086,0,0,0-2.083,2.083v5.555a.694.694,0,1,0,1.389,0V17.944h2.083a.694.694,0,1,0,0-1.389H13.833v-.694A.694.694,0,0,1,14.527,15.166Zm5.555,0h1.389a.694.694,0,1,0,0-1.389H20.082A2.086,2.086,0,0,0,18,15.861v5.555a.694.694,0,1,0,1.389,0V17.944h2.083a.694.694,0,1,0,0-1.389H19.388v-.694A.694.694,0,0,1,20.082,15.166Zm5.555,0h1.389a.694.694,0,0,0,0-1.389H25.638a2.086,2.086,0,0,0-2.083,2.083v4.166a2.086,2.086,0,0,0,2.083,2.083h1.389a.694.694,0,0,0,0-1.389H25.638a.694.694,0,0,1-.694-.694V18.638h2.083a.694.694,0,0,0,0-1.389H24.943V15.861A.694.694,0,0,1,25.638,15.166Zm9.027,1.389v-.694a2.086,2.086,0,0,0-2.083-2.083H31.193a2.086,2.086,0,0,0-2.083,2.083v5.555a.694.694,0,1,0,1.389,0V18.638h.36l2.569,3.212a.695.695,0,0,0,1.085-.868l-1.879-2.348a2.083,2.083,0,0,0,2.032-2.079Zm-1.389,0a.694.694,0,0,1-.694.694H30.5V15.861a.694.694,0,0,1,.694-.694h1.389a.694.694,0,0,1,.694.694ZM9.666,12.389H30.5A.694.694,0,0,0,30.5,11H9.666a.694.694,0,1,0,0,1.389ZM30.5,23.5H9.666a.694.694,0,1,0,0,1.389H30.5a.694.694,0,0,0,0-1.389Z" transform="translate(0.353 3.098)"/></g></svg>