<svg xmlns="http://www.w3.org/2000/svg" width="42.785" height="42.785" viewBox="0 0 42.785 42.785"><defs><style>.a{fill:#786aff;}.b{fill:#fa9797;}</style></defs><g transform="translate(0.001 -0.003)"><g transform="translate(0.835 5.19)"><path class="a" d="M30.841,154.7a8.691,8.691,0,0,1-12.291-12.291l5.788-5.788-4.254-4.254L14.3,138.155a14.707,14.707,0,1,0,20.8,20.8l5.788-5.788-4.254-4.254Z" transform="translate(-9.995 -126.493)"/><path class="a" d="M0,0H8.31V6.017H0Z" transform="translate(26.628 22.42) rotate(-45)"/><path class="a" d="M0,0H8.31V6.017H0Z" transform="translate(10.086 5.875) rotate(-45)"/></g><path class="b" d="M365.768,22.379a4.008,4.008,0,0,0-4.008-4.008,4.008,4.008,0,0,0-8.016,0v8.016h8.016A4.008,4.008,0,0,0,365.768,22.379Z" transform="translate(-324.184 -13.16)"/><g transform="translate(-0.001 0.003)"><path class="a" d="M33.935,68.842a.836.836,0,0,0-1.182,0L21.089,80.506A7.855,7.855,0,0,1,9.981,69.4L21.644,57.733a.836.836,0,0,0,0-1.182L17.39,52.3a.836.836,0,0,0-1.182,0L4.544,63.961A15.543,15.543,0,0,0,26.526,85.942L38.189,74.278a.836.836,0,0,0,0-1.182ZM16.8,54.07l3.073,3.073-4.625,4.625L12.174,58.7Zm8.545,30.69A13.872,13.872,0,0,1,5.726,65.142l5.266-5.266,3.073,3.073L8.8,68.215A9.526,9.526,0,0,0,22.271,81.687l5.266-5.266,3.073,3.073Zm6.447-6.447L28.719,75.24l4.625-4.625,3.073,3.073Z" transform="translate(0.001 -47.703)"/><path class="b" d="M344.581,18.059H352.6a4.844,4.844,0,0,0,.774-9.625,4.844,4.844,0,0,0-9.625.774v8.016a.836.836,0,0,0,.836.836Zm.836-8.851a3.172,3.172,0,1,1,6.344,0,.836.836,0,0,0,.836.836,3.172,3.172,0,1,1,0,6.344h-7.18Z" transform="translate(-315.02 -4)"/><path class="b" d="M448.235,187.58a.836.836,0,0,0-1.1-.439l-2.9,1.241a.836.836,0,0,0-.262,1.359l.782.782-1.761.755a.836.836,0,1,0,.658,1.536l2.9-1.241a.836.836,0,0,0,.262-1.359l-.782-.782,1.761-.755A.836.836,0,0,0,448.235,187.58Z" transform="translate(-405.518 -171.44)"/><path class="b" d="M256.26,5.811a.834.834,0,0,0,.329-.068l2.9-1.241a.836.836,0,0,0,.262-1.359l-.782-.782,1.761-.755a.836.836,0,1,0-.658-1.536l-2.9,1.241a.836.836,0,0,0-.262,1.359l.782.782-1.761.755a.836.836,0,0,0,.33,1.6Z" transform="translate(-234.079 -0.003)"/></g></g></svg>