<svg xmlns="http://www.w3.org/2000/svg" width="112" height="112" viewBox="0 0 112 112"><defs><style>.a{fill:#fff;}.b{fill:#786aff;}.c{fill:none;}.d{fill:#fa9797;}</style></defs><g transform="translate(-255 -1973)"><g transform="translate(255 1973)"><rect class="a" width="112" height="112" rx="10"/><g transform="translate(16.031 20.085)"><path class="b" d="M64.7,23.114V5.469H56.4V16.054L40.141,2.93,3,32.761H8.933v43.9h61.7v-43.9h5.933L64.7,23.114Z" transform="translate(0.187 0.186)"/><path class="c" d="M70.824,78.039H9.12a1.187,1.187,0,0,1-1.187-1.187V34.134H3.187a1.187,1.187,0,0,1-.748-2.112L39.592,2.191a1.187,1.187,0,0,1,1.483,0L55.4,13.76v-8.1a1.187,1.187,0,0,1,1.187-1.187h8.306a1.187,1.187,0,0,1,1.187,1.187V22.743L77.5,32.022a1.187,1.187,0,0,1-.748,2.112H72.01V76.852A1.187,1.187,0,0,1,70.824,78.039ZM10.307,75.665h59.33V32.948a1.187,1.187,0,0,1,1.187-1.187h2.587l-9.267-7.535A1.187,1.187,0,0,1,63.7,23.3V6.842H57.771v9.41a1.187,1.187,0,0,1-1.934.926L40.328,4.647,6.557,31.761H9.12a1.187,1.187,0,0,1,1.187,1.187Z"/><path class="d" d="M41.719,28.52a7.725,7.725,0,0,0-5.541,2.444,7.725,7.725,0,0,0-5.541-2.433c-4.592,0-8.306,4.26-8.306,9.493-.012,8.757,13.848,14.8,13.848,14.8s13.86-5.933,13.86-14.785C50.037,32.78,46.311,28.52,41.719,28.52Z" transform="translate(3.794 4.962)"/><path class="a" d="M36.364,54.3l-.463-.2c-.593-.261-14.571-6.455-14.571-15.877,0-5.933,4.26-10.679,9.493-10.679a8.769,8.769,0,0,1,5.541,1.993,8.769,8.769,0,0,1,5.541-2.017c5.233,0,9.493,4.746,9.493,10.679,0,9.576-13.978,15.628-14.583,15.877ZM30.823,29.893c-3.928,0-7.12,3.738-7.12,8.306-.012,7.037,10.288,12.436,12.661,13.5,2.373-1.1,12.661-6.348,12.661-13.48,0-4.592-3.192-8.306-7.12-8.306a6.562,6.562,0,0,0-4.746,2.077l-.8.842-.854-.866a6.562,6.562,0,0,0-4.687-2.077Z" transform="translate(3.608 4.775)"/></g></g></g></svg>