<svg xmlns="http://www.w3.org/2000/svg" width="112" height="112" viewBox="0 0 112 112"><defs><style>.a{fill:#fff;}.b{fill:#fa9797;}.c{fill:#786aff;}</style></defs><g transform="translate(-254 -1974)"><g transform="translate(254 1974)"><rect class="a" width="112" height="112" rx="10"/><g transform="translate(12.005 16.584)"><path class="b" d="M32.854,44.566,24.691,31.749l-2.2,4.171a4.5,4.5,0,0,1-2.846,2.238l15,22.52C47.39,34.505,72.238,14.134,72.238,14.134,59.4,17.571,32.854,44.566,32.854,44.566Z" transform="translate(14.757 5.537)"/><circle class="c" cx="6.265" cy="6.265" r="6.265" transform="translate(20.759 7.139)"/><path class="c" d="M30.917,32.01a2.685,2.685,0,1,0,4.746,2.514l5.37-10.145a2.687,2.687,0,0,0-1.327-3.731L28.071,15.726a2.678,2.678,0,0,0-.683-.175,6.957,6.957,0,0,0-6.353.114,2.667,2.667,0,0,0-.745.371l-8.421,6.178-7.84-1.007a2.684,2.684,0,1,0-.685,5.325l8.906,1.145a2.51,2.51,0,0,0,.343.023,2.676,2.676,0,0,0,1.588-.521l2.907-2.133c-.012.855-.178,11.35-.135,12.2L13.561,48.611A2.686,2.686,0,0,0,14.6,51.583l5.434,3.783-1.31,6.458a2.685,2.685,0,0,0,5.264,1.066l.848-4.182L28.1,60.981a2.686,2.686,0,0,0,3.068-4.409L26,52.973c.168-.827,3.433-16.344,3.4-17.188l2-12.649c.008-.051.007-.11.014-.163l3.5,1.482ZM19.263,48.284l1.674-5.61A4.371,4.371,0,0,0,22.542,43L21.2,49.631Z" transform="translate(0 6.095)"/></g></g></g></svg>