<svg xmlns="http://www.w3.org/2000/svg" width="130" height="130" viewBox="0 0 130 130"><defs><style>.a{fill:none;}.b{fill:#786aff;}.c{fill:#fff;}.d{fill:#fa9797;}.e{fill:#e6e6e6;}</style></defs><g transform="translate(-94 -4375)"><rect class="a" width="130" height="130" transform="translate(94 4375)"/><g transform="translate(113.367 4387.55)"><g transform="translate(12 2)"><path class="b" d="M74.222,2H17.045A5.051,5.051,0,0,0,12,7.045v90.81a5.051,5.051,0,0,0,5.045,5.045H74.222a5.051,5.051,0,0,0,5.045-5.045V7.045A5.051,5.051,0,0,0,74.222,2Z" transform="translate(-12 -2)"/><path class="c" d="M14,7H74.54V74.267H14Z" transform="translate(-10.637 1.408)"/><path class="d" d="M46.727,24C42.085,24,40,34.25,40,36.893a7.03,7.03,0,0,0,6.727,7.287,7.03,7.03,0,0,0,6.727-7.287C53.453,34.25,51.368,24,46.727,24Z" transform="translate(7.087 12.997)"/><path class="e" d="M18,22h3.363v3.363H18Z" transform="translate(-7.91 11.633)"/><path class="e" d="M22,22h3.363v3.363H22Z" transform="translate(-5.183 11.633)"/><path class="e" d="M26,22h3.363v3.363H26Z" transform="translate(-2.457 11.633)"/><path class="d" d="M26.207,11h1.766a4.162,4.162,0,0,1,4.162,4.162v.883h.883a4.162,4.162,0,0,1,4.162,4.162v.084a4.162,4.162,0,0,1-4.162,4.162H21.162A4.162,4.162,0,0,1,17,20.291v-.084a4.162,4.162,0,0,1,4.162-4.162h.883v-.883A4.162,4.162,0,0,1,26.207,11Z" transform="translate(-8.592 4.135)"/><path class="d" d="M26.361,40.453a1.682,1.682,0,0,1-1.4-2.615l1.621-2.43h-1.9a1.682,1.682,0,0,1-1.4-2.613l3.363-5.045a1.682,1.682,0,0,1,2.8,1.867l-1.621,2.428h1.9a1.682,1.682,0,0,1,1.4,2.613L27.762,39.7a1.677,1.677,0,0,1-1.4.75Z" transform="translate(-4.501 15.042)"/><path class="d" d="M19.361,40.453a1.682,1.682,0,0,1-1.4-2.615l1.621-2.43h-1.9a1.682,1.682,0,0,1-1.4-2.613l3.363-5.045a1.682,1.682,0,0,1,2.8,1.867l-1.621,2.428h1.9a1.682,1.682,0,0,1,1.4,2.613L20.762,39.7a1.677,1.677,0,0,1-1.4.75Z" transform="translate(-9.273 15.042)"/><path class="c" d="M34.727,50a6.727,6.727,0,1,0,6.727,6.727A6.733,6.733,0,0,0,34.727,50Z" transform="translate(-1.093 30.72)"/><circle class="b" cx="3" cy="3" r="3" transform="translate(30.633 84.45)"/><path class="e" d="M44,12h6.727v3.363H44Z" transform="translate(9.814 4.817)"/><path class="e" d="M40,12h3.362v3.363H40Z" transform="translate(7.087 4.817)"/><path class="e" d="M29,38h3.363v3.363H29Z" transform="translate(-0.412 22.54)"/><path class="e" d="M33,38h3.363v3.363H33Z" transform="translate(2.315 22.54)"/><path class="e" d="M29,42h3.363v3.363H29Z" transform="translate(-0.412 25.267)"/><path class="e" d="M33,42h3.363v3.363H33Z" transform="translate(2.315 25.267)"/><path class="e" d="M34,12h6.727v3.363H34Z" transform="translate(2.997 4.817)"/><path class="e" d="M34,16H57.543v3.363H34Z" transform="translate(2.997 7.543)"/><path class="e" d="M34,20H57.543v3.363H34Z" transform="translate(2.997 10.27)"/><path class="e" d="M37,38H55.5v3.363H37Z" transform="translate(5.042 22.54)"/><path class="e" d="M37,42H55.5v3.363H37Z" transform="translate(5.042 25.267)"/><path class="e" d="M16,38H34.5v3.363H16Z" transform="translate(-9.273 22.54)"/><path class="e" d="M16,42H34.5v3.363H16Z" transform="translate(-9.273 25.267)"/></g></g></g></svg>