<svg xmlns="http://www.w3.org/2000/svg" width="38" height="38" viewBox="0 0 38 38"><defs><style>.a,.b{fill:#786aff;}.a{opacity:0;}.c{fill:#fa9797;}</style></defs><g transform="translate(-1 -1)"><g transform="translate(1 1)"><rect class="a" width="38" height="38" transform="translate(0 0)"/><path class="b" d="M19,18.087,38,3.813V2.23A1.211,1.211,0,0,0,36.812,1H1.188A1.211,1.211,0,0,0,0,2.232V3.782Z" transform="translate(0 1.111)"/><path class="b" d="M11.784,12.65,0,3.756V21.365Z" transform="translate(0 4.173)"/><path class="b" d="M15.517,18.847A12.924,12.924,0,0,1,17.725,11.6c-.026-.019-.06-.025-.087-.045l-3.83-2.87L0,18.919v1.863a1.211,1.211,0,0,0,1.187,1.232H15.922a12.955,12.955,0,0,1-.405-3.167Z" transform="translate(0 9.653)"/><path class="c" d="M18.5,20.292a6.557,6.557,0,0,1-5.036-2.241l2.436-2.44H9v6.914l2.639-2.648A9.23,9.23,0,0,0,18.5,23,9.817,9.817,0,0,0,28,13.5H25.593A7.272,7.272,0,0,1,18.5,20.292Z" transform="translate(10 15)"/><path class="c" d="M25.422,12.122A9.727,9.727,0,0,0,18.5,9,9.817,9.817,0,0,0,9,18.5h2.407A7.272,7.272,0,0,1,18.5,11.707a6.632,6.632,0,0,1,5.142,2.234l-2.4,2.448H28v-6.9Z" transform="translate(10 10)"/><path class="b" d="M23.32,10.816V3.771L13.212,11.358c.2-.01.4-.031.609-.031a12.827,12.827,0,0,1,6.912,2.035Z" transform="translate(14.679 4.189)"/></g></g></svg>