<svg xmlns="http://www.w3.org/2000/svg" width="32.959" height="32.958" viewBox="0 0 32.959 32.958"><defs><style>.a{fill:#464646;}</style></defs><path class="a" d="M23.14,0H9.819A9.83,9.83,0,0,0,0,9.819V23.14a9.83,9.83,0,0,0,9.819,9.819H23.14a9.83,9.83,0,0,0,9.819-9.819V9.819A9.83,9.83,0,0,0,23.14,0Zm6.5,23.14a6.5,6.5,0,0,1-6.5,6.5H9.819a6.5,6.5,0,0,1-6.5-6.5V9.819a6.5,6.5,0,0,1,6.5-6.5H23.14a6.5,6.5,0,0,1,6.5,6.5V23.14Z"/><path class="a" d="M141.524,133a8.524,8.524,0,1,0,8.524,8.524A8.534,8.534,0,0,0,141.524,133Zm0,13.733a5.209,5.209,0,1,1,5.209-5.209A5.209,5.209,0,0,1,141.524,146.733Z" transform="translate(-125.045 -125.045)"/><circle class="a" cx="2.043" cy="2.043" r="2.043" transform="translate(22.977 5.976)"/></svg>