<svg xmlns="http://www.w3.org/2000/svg" width="32.255" height="26.83" viewBox="0 0 32.255 26.83"><defs><style>.a{fill:#464646;}</style></defs><path class="a" d="M31.742,37.612a12.772,12.772,0,0,1-2.224.75,6.934,6.934,0,0,0,1.83-2.915h0a.364.364,0,0,0-.532-.423h0a12.833,12.833,0,0,1-3.4,1.4.866.866,0,0,1-.212.026.9.9,0,0,1-.6-.227,6.954,6.954,0,0,0-4.6-1.736,7.435,7.435,0,0,0-2.2.34,6.737,6.737,0,0,0-4.54,4.854,7.418,7.418,0,0,0-.165,2.561.249.249,0,0,1-.063.2.258.258,0,0,1-.192.087H14.82a18.234,18.234,0,0,1-12.532-6.7h0a.364.364,0,0,0-.6.047h0A6.962,6.962,0,0,0,2.823,44.33a6.231,6.231,0,0,1-1.586-.614h0a.364.364,0,0,0-.54.313h0a6.962,6.962,0,0,0,4.061,6.415l-.148,0a6.257,6.257,0,0,1-1.172-.112h0a.364.364,0,0,0-.415.468h0a6.969,6.969,0,0,0,5.5,4.74,12.832,12.832,0,0,1-7.187,2.182h-.8a.532.532,0,0,0-.521.4.551.551,0,0,0,.264.609,19.086,19.086,0,0,0,9.591,2.586,19.348,19.348,0,0,0,8.2-1.739,18.1,18.1,0,0,0,6-4.494,19.7,19.7,0,0,0,3.672-6.15,19.427,19.427,0,0,0,1.248-6.731V42.1a1.183,1.183,0,0,1,.443-.921,13.744,13.744,0,0,0,2.765-3.035h0a.364.364,0,0,0-.45-.534Z" transform="translate(0 -34.491)"/></svg>