<svg xmlns="http://www.w3.org/2000/svg" width="29.829" height="29.83" viewBox="0 0 29.829 29.83"><defs><style>.a{fill:#464646;}</style></defs><path class="a" d="M25.812,0H4.022A4.02,4.02,0,0,0,0,4.02V25.81a4.02,4.02,0,0,0,4.02,4.02H14.768l.018-10.659H12.017a.653.653,0,0,1-.653-.651l-.013-3.436A.653.653,0,0,1,12,14.427h2.764v-3.32c0-3.853,2.353-5.951,5.79-5.951h2.82a.653.653,0,0,1,.653.653v2.9a.653.653,0,0,1-.653.653H21.648c-1.869,0-2.231.888-2.231,2.192v2.874h4.107a.653.653,0,0,1,.649.73l-.407,3.436a.653.653,0,0,1-.649.577H19.436L19.417,29.83h6.395a4.02,4.02,0,0,0,4.02-4.02V4.02A4.02,4.02,0,0,0,25.812,0Z" transform="translate(-0.002)"/></svg>