<svg width="16" height="16" viewBox="0 0 16 16" fill="none" xmlns="http://www.w3.org/2000/svg">
<path d="M15.1111 11.1111C14.0045 11.1111 12.9333 10.9333 11.9378 10.6045C11.6311 10.5067 11.28 10.5778 11.0356 10.8223L9.08004 12.7822C6.56004 11.5022 4.50225 9.44446 3.22225 6.92892L5.17779 4.96446C5.42225 4.72 5.49333 4.36892 5.39558 4.06225C5.06671 3.06671 4.88892 1.99558 4.88892 0.888917C4.88888 0.395542 4.49333 0 4 0H0.888875C0.4 0 0 0.395542 0 0.888875C0 9.23554 6.76446 16 15.1111 16C15.6045 16 16 15.6045 16 15.1111V12C16 11.5067 15.6045 11.1111 15.1111 11.1111Z" fill="#FC295E"/>
</svg>
