<svg xmlns="http://www.w3.org/2000/svg" width="18" height="18" viewBox="0 0 18 18"><defs><style>.a{opacity:0;}.b{fill:#20c58b;}</style></defs><g transform="translate(12)"><rect class="a" width="18" height="18" transform="translate(-12)"/><g transform="translate(-11 1)"><path class="b" d="M8,16a8,8,0,1,1,8-8A8.009,8.009,0,0,1,8,16ZM8,1.288A6.71,6.71,0,1,0,14.708,8,6.719,6.719,0,0,0,8,1.288Z"/><path class="b" d="M7.081.215,2.817,4.48,1.256,2.919A.736.736,0,0,0,.216,3.96L2.3,6.042a.738.738,0,0,0,1.041,0L8.122,1.256A.736.736,0,0,0,7.081.215Z" transform="translate(3.831 4.871)"/></g></g></svg>