<svg width="125" height="124" viewBox="0 0 125 124" fill="none" xmlns="http://www.w3.org/2000/svg">
<g opacity="0.3">
<circle opacity="0.3" cx="52.75" cy="116" r="2" transform="rotate(-90 52.75 116)" fill="#20C58B"/>
<circle opacity="0.3" cx="52.75" cy="107" r="2" transform="rotate(-90 52.75 107)" fill="#20C58B"/>
<circle opacity="0.3" cx="52.75" cy="98" r="2" transform="rotate(-90 52.75 98)" fill="#20C58B"/>
<circle opacity="0.3" cx="52.75" cy="89" r="2" transform="rotate(-90 52.75 89)" fill="#20C58B"/>
<circle opacity="0.3" cx="52.75" cy="80" r="2" transform="rotate(-90 52.75 80)" fill="#20C58B"/>
<circle opacity="0.3" cx="52.75" cy="71" r="2" transform="rotate(-90 52.75 71)" fill="#20C58B"/>
<circle opacity="0.3" cx="52.75" cy="62" r="2" transform="rotate(-90 52.75 62)" fill="#20C58B"/>
<circle opacity="0.3" cx="52.75" cy="53" r="2" transform="rotate(-90 52.75 53)" fill="#20C58B"/>
<circle opacity="0.3" cx="52.75" cy="44" r="2" transform="rotate(-90 52.75 44)" fill="#20C58B"/>
<circle opacity="0.3" cx="52.75" cy="35" r="2" transform="rotate(-90 52.75 35)" fill="#20C58B"/>
<circle opacity="0.3" cx="52.75" cy="26" r="2" transform="rotate(-90 52.75 26)" fill="#20C58B"/>
<circle opacity="0.3" cx="52.75" cy="17" r="2" transform="rotate(-90 52.75 17)" fill="#20C58B"/>
<circle opacity="0.3" cx="52.75" cy="8" r="2" transform="rotate(-90 52.75 8)" fill="#20C58B"/>
<circle opacity="0.3" cx="61.75" cy="116" r="2" transform="rotate(-90 61.75 116)" fill="#20C58B"/>
<circle opacity="0.3" cx="61.75" cy="107" r="2" transform="rotate(-90 61.75 107)" fill="#20C58B"/>
<circle opacity="0.3" cx="61.75" cy="98" r="2" transform="rotate(-90 61.75 98)" fill="#20C58B"/>
<circle opacity="0.3" cx="61.75" cy="89" r="2" transform="rotate(-90 61.75 89)" fill="#20C58B"/>
<circle opacity="0.3" cx="61.75" cy="80" r="2" transform="rotate(-90 61.75 80)" fill="#20C58B"/>
<circle opacity="0.3" cx="61.75" cy="71" r="2" transform="rotate(-90 61.75 71)" fill="#20C58B"/>
<circle opacity="0.3" cx="61.75" cy="62" r="2" transform="rotate(-90 61.75 62)" fill="#20C58B"/>
<circle opacity="0.3" cx="61.75" cy="53" r="2" transform="rotate(-90 61.75 53)" fill="#20C58B"/>
<circle opacity="0.3" cx="61.75" cy="44" r="2" transform="rotate(-90 61.75 44)" fill="#20C58B"/>
<circle opacity="0.3" cx="61.75" cy="35" r="2" transform="rotate(-90 61.75 35)" fill="#20C58B"/>
<circle opacity="0.3" cx="61.75" cy="26" r="2" transform="rotate(-90 61.75 26)" fill="#20C58B"/>
<circle opacity="0.3" cx="61.75" cy="17" r="2" transform="rotate(-90 61.75 17)" fill="#20C58B"/>
<circle opacity="0.3" cx="61.75" cy="8" r="2" transform="rotate(-90 61.75 8)" fill="#20C58B"/>
<circle opacity="0.3" cx="70.75" cy="116" r="2" transform="rotate(-90 70.75 116)" fill="#20C58B"/>
<circle opacity="0.3" cx="70.75" cy="107" r="2" transform="rotate(-90 70.75 107)" fill="#20C58B"/>
<circle opacity="0.3" cx="70.75" cy="98" r="2" transform="rotate(-90 70.75 98)" fill="#20C58B"/>
<circle opacity="0.3" cx="70.75" cy="89" r="2" transform="rotate(-90 70.75 89)" fill="#20C58B"/>
<circle opacity="0.3" cx="70.75" cy="80" r="2" transform="rotate(-90 70.75 80)" fill="#20C58B"/>
<circle opacity="0.3" cx="70.75" cy="71" r="2" transform="rotate(-90 70.75 71)" fill="#20C58B"/>
<circle opacity="0.3" cx="70.75" cy="62" r="2" transform="rotate(-90 70.75 62)" fill="#20C58B"/>
<circle opacity="0.3" cx="70.75" cy="53" r="2" transform="rotate(-90 70.75 53)" fill="#20C58B"/>
<circle opacity="0.3" cx="70.75" cy="44" r="2" transform="rotate(-90 70.75 44)" fill="#20C58B"/>
<circle opacity="0.3" cx="70.75" cy="35" r="2" transform="rotate(-90 70.75 35)" fill="#20C58B"/>
<circle opacity="0.3" cx="70.75" cy="26" r="2" transform="rotate(-90 70.75 26)" fill="#20C58B"/>
<circle opacity="0.3" cx="70.75" cy="17" r="2" transform="rotate(-90 70.75 17)" fill="#20C58B"/>
<circle opacity="0.3" cx="70.75" cy="8" r="2" transform="rotate(-90 70.75 8)" fill="#20C58B"/>
<circle opacity="0.3" cx="79.75" cy="116" r="2" transform="rotate(-90 79.75 116)" fill="#20C58B"/>
<circle opacity="0.3" cx="79.75" cy="107" r="2" transform="rotate(-90 79.75 107)" fill="#20C58B"/>
<circle opacity="0.3" cx="79.75" cy="98" r="2" transform="rotate(-90 79.75 98)" fill="#20C58B"/>
<circle opacity="0.3" cx="79.75" cy="89" r="2" transform="rotate(-90 79.75 89)" fill="#20C58B"/>
<circle opacity="0.3" cx="79.75" cy="80" r="2" transform="rotate(-90 79.75 80)" fill="#20C58B"/>
<circle opacity="0.3" cx="79.75" cy="71" r="2" transform="rotate(-90 79.75 71)" fill="#20C58B"/>
<circle opacity="0.3" cx="79.75" cy="62" r="2" transform="rotate(-90 79.75 62)" fill="#20C58B"/>
<circle opacity="0.3" cx="79.75" cy="53" r="2" transform="rotate(-90 79.75 53)" fill="#20C58B"/>
<circle opacity="0.3" cx="79.75" cy="44" r="2" transform="rotate(-90 79.75 44)" fill="#20C58B"/>
<circle opacity="0.3" cx="79.75" cy="35" r="2" transform="rotate(-90 79.75 35)" fill="#20C58B"/>
<circle opacity="0.3" cx="79.75" cy="26" r="2" transform="rotate(-90 79.75 26)" fill="#20C58B"/>
<circle opacity="0.3" cx="79.75" cy="17" r="2" transform="rotate(-90 79.75 17)" fill="#20C58B"/>
<circle opacity="0.3" cx="79.75" cy="8" r="2" transform="rotate(-90 79.75 8)" fill="#20C58B"/>
<circle opacity="0.3" cx="88.75" cy="116" r="2" transform="rotate(-90 88.75 116)" fill="#20C58B"/>
<circle opacity="0.3" cx="88.75" cy="107" r="2" transform="rotate(-90 88.75 107)" fill="#20C58B"/>
<circle opacity="0.3" cx="88.75" cy="98" r="2" transform="rotate(-90 88.75 98)" fill="#20C58B"/>
<circle opacity="0.3" cx="88.75" cy="89" r="2" transform="rotate(-90 88.75 89)" fill="#20C58B"/>
<circle opacity="0.3" cx="88.75" cy="80" r="2" transform="rotate(-90 88.75 80)" fill="#20C58B"/>
<circle opacity="0.3" cx="88.75" cy="71" r="2" transform="rotate(-90 88.75 71)" fill="#20C58B"/>
<circle opacity="0.3" cx="88.75" cy="62" r="2" transform="rotate(-90 88.75 62)" fill="#20C58B"/>
<circle opacity="0.3" cx="88.75" cy="53" r="2" transform="rotate(-90 88.75 53)" fill="#20C58B"/>
<circle opacity="0.3" cx="88.75" cy="44" r="2" transform="rotate(-90 88.75 44)" fill="#20C58B"/>
<circle opacity="0.3" cx="88.75" cy="35" r="2" transform="rotate(-90 88.75 35)" fill="#20C58B"/>
<circle opacity="0.3" cx="88.75" cy="26" r="2" transform="rotate(-90 88.75 26)" fill="#20C58B"/>
<circle opacity="0.3" cx="88.75" cy="17" r="2" transform="rotate(-90 88.75 17)" fill="#20C58B"/>
<circle opacity="0.3" cx="88.75" cy="8" r="2" transform="rotate(-90 88.75 8)" fill="#20C58B"/>
<circle opacity="0.3" cx="97.75" cy="116" r="2" transform="rotate(-90 97.75 116)" fill="#20C58B"/>
<circle opacity="0.3" cx="97.75" cy="107" r="2" transform="rotate(-90 97.75 107)" fill="#20C58B"/>
<circle opacity="0.3" cx="97.75" cy="98" r="2" transform="rotate(-90 97.75 98)" fill="#20C58B"/>
<circle opacity="0.3" cx="97.75" cy="89" r="2" transform="rotate(-90 97.75 89)" fill="#20C58B"/>
<circle opacity="0.3" cx="97.75" cy="80" r="2" transform="rotate(-90 97.75 80)" fill="#20C58B"/>
<circle opacity="0.3" cx="97.75" cy="71" r="2" transform="rotate(-90 97.75 71)" fill="#20C58B"/>
<circle opacity="0.3" cx="97.75" cy="62" r="2" transform="rotate(-90 97.75 62)" fill="#20C58B"/>
<circle opacity="0.3" cx="97.75" cy="53" r="2" transform="rotate(-90 97.75 53)" fill="#20C58B"/>
<circle opacity="0.3" cx="97.75" cy="44" r="2" transform="rotate(-90 97.75 44)" fill="#20C58B"/>
<circle opacity="0.3" cx="97.75" cy="35" r="2" transform="rotate(-90 97.75 35)" fill="#20C58B"/>
<circle opacity="0.3" cx="97.75" cy="26" r="2" transform="rotate(-90 97.75 26)" fill="#20C58B"/>
<circle opacity="0.3" cx="97.75" cy="17" r="2" transform="rotate(-90 97.75 17)" fill="#20C58B"/>
<circle opacity="0.3" cx="97.75" cy="8" r="2" transform="rotate(-90 97.75 8)" fill="#20C58B"/>
<circle opacity="0.3" cx="106.75" cy="116" r="2" transform="rotate(-90 106.75 116)" fill="#20C58B"/>
<circle opacity="0.3" cx="106.75" cy="107" r="2" transform="rotate(-90 106.75 107)" fill="#20C58B"/>
<circle opacity="0.3" cx="106.75" cy="98" r="2" transform="rotate(-90 106.75 98)" fill="#20C58B"/>
<circle opacity="0.3" cx="106.75" cy="89" r="2" transform="rotate(-90 106.75 89)" fill="#20C58B"/>
<circle opacity="0.3" cx="106.75" cy="80" r="2" transform="rotate(-90 106.75 80)" fill="#20C58B"/>
<circle opacity="0.3" cx="106.75" cy="71" r="2" transform="rotate(-90 106.75 71)" fill="#20C58B"/>
<circle opacity="0.3" cx="106.75" cy="62" r="2" transform="rotate(-90 106.75 62)" fill="#20C58B"/>
<circle opacity="0.3" cx="106.75" cy="53" r="2" transform="rotate(-90 106.75 53)" fill="#20C58B"/>
<circle opacity="0.3" cx="106.75" cy="44" r="2" transform="rotate(-90 106.75 44)" fill="#20C58B"/>
<circle opacity="0.3" cx="106.75" cy="35" r="2" transform="rotate(-90 106.75 35)" fill="#20C58B"/>
<circle opacity="0.3" cx="106.75" cy="26" r="2" transform="rotate(-90 106.75 26)" fill="#20C58B"/>
<circle opacity="0.3" cx="106.75" cy="17" r="2" transform="rotate(-90 106.75 17)" fill="#20C58B"/>
<circle opacity="0.3" cx="106.75" cy="8" r="2" transform="rotate(-90 106.75 8)" fill="#20C58B"/>
<circle opacity="0.3" cx="115.75" cy="116" r="2" transform="rotate(-90 115.75 116)" fill="#20C58B"/>
<circle opacity="0.3" cx="115.75" cy="107" r="2" transform="rotate(-90 115.75 107)" fill="#20C58B"/>
<circle opacity="0.3" cx="115.75" cy="98" r="2" transform="rotate(-90 115.75 98)" fill="#20C58B"/>
<circle opacity="0.3" cx="115.75" cy="89" r="2" transform="rotate(-90 115.75 89)" fill="#20C58B"/>
<circle opacity="0.3" cx="115.75" cy="80" r="2" transform="rotate(-90 115.75 80)" fill="#20C58B"/>
<circle opacity="0.3" cx="115.75" cy="71" r="2" transform="rotate(-90 115.75 71)" fill="#20C58B"/>
<circle opacity="0.3" cx="115.75" cy="62" r="2" transform="rotate(-90 115.75 62)" fill="#20C58B"/>
<circle opacity="0.3" cx="115.75" cy="53" r="2" transform="rotate(-90 115.75 53)" fill="#20C58B"/>
<circle opacity="0.3" cx="115.75" cy="44" r="2" transform="rotate(-90 115.75 44)" fill="#20C58B"/>
<circle opacity="0.3" cx="115.75" cy="35" r="2" transform="rotate(-90 115.75 35)" fill="#20C58B"/>
<circle opacity="0.3" cx="115.75" cy="26" r="2" transform="rotate(-90 115.75 26)" fill="#20C58B"/>
<circle opacity="0.3" cx="115.75" cy="17" r="2" transform="rotate(-90 115.75 17)" fill="#20C58B"/>
<circle opacity="0.3" cx="115.75" cy="8" r="2" transform="rotate(-90 115.75 8)" fill="#20C58B"/>
</g>
<g filter="url(#filter0_d)">
<rect x="20.25" y="20" width="84" height="84" rx="16" fill="#20C58B"/>
</g>
<path d="M67.9211 58.2596C70.3079 56.0835 73.5356 53.1404 73.8298 46.1094H75.9609V44H48.5391V46.1094H50.6702C50.9644 53.1404 54.1921 56.0835 56.5789 58.2596C58.18 59.7193 59.0859 60.6128 59.0859 62C59.0859 63.3872 58.18 64.2807 56.5789 65.7404C54.1921 67.9165 50.9644 70.8596 50.6702 77.8906H48.5391V80H75.9609V77.8906H73.8298C73.5356 70.8596 70.3079 67.9165 67.9211 65.7404C66.32 64.2807 65.4141 63.3872 65.4141 62C65.4141 60.6128 66.32 59.7193 67.9211 58.2596ZM61.1953 69.9058C60.8696 69.973 60.5477 70.0708 60.2336 70.2008L53.7735 72.874C54.8285 70.1915 56.5277 68.6416 58.0001 67.2992C59.6433 65.8011 61.1953 64.3861 61.1953 62V69.9058ZM66.4999 67.2992C67.9723 68.6416 69.6714 70.1915 70.7265 72.8739L64.2664 70.2007C63.9523 70.0707 63.6304 69.9729 63.3047 69.9057V62C63.3047 64.3861 64.8567 65.8011 66.4999 67.2992ZM53.7365 51.0312C53.2265 49.7024 52.8743 48.098 52.7821 46.1094H71.7178C71.6256 48.098 71.2735 49.7024 70.7634 51.0312H53.7365Z" fill="white"/>
<defs>
<filter id="filter0_d" x="0.25" y="0" width="124" height="124" filterUnits="userSpaceOnUse" color-interpolation-filters="sRGB">
<feFlood flood-opacity="0" result="BackgroundImageFix"/>
<feColorMatrix in="SourceAlpha" type="matrix" values="0 0 0 0 0 0 0 0 0 0 0 0 0 0 0 0 0 0 127 0"/>
<feOffset/>
<feGaussianBlur stdDeviation="10"/>
<feColorMatrix type="matrix" values="0 0 0 0 0.12549 0 0 0 0 0.772549 0 0 0 0 0.545098 0 0 0 0.4 0"/>
<feBlend mode="normal" in2="BackgroundImageFix" result="effect1_dropShadow"/>
<feBlend mode="normal" in="SourceGraphic" in2="effect1_dropShadow" result="shape"/>
</filter>
</defs>
</svg>
