<svg width="28" height="28" viewBox="0 0 28 28" fill="none" xmlns="http://www.w3.org/2000/svg">
<path d="M21 4.66663H6.99999C5.71133 4.66663 4.66666 5.71129 4.66666 6.99996V21C4.66666 22.2886 5.71133 23.3333 6.99999 23.3333H21C22.2887 23.3333 23.3333 22.2886 23.3333 21V6.99996C23.3333 5.71129 22.2887 4.66663 21 4.66663Z" stroke="#5858E0" stroke-width="2" stroke-linecap="round" stroke-linejoin="round"/>
<path d="M17.5 10.5H10.5V17.5H17.5V10.5Z" stroke="#5858E0" stroke-width="2" stroke-linecap="round" stroke-linejoin="round"/>
<path d="M10.5 1.16663V4.66663" stroke="#5858E0" stroke-width="2" stroke-linecap="round" stroke-linejoin="round"/>
<path d="M17.5 1.16663V4.66663" stroke="#5858E0" stroke-width="2" stroke-linecap="round" stroke-linejoin="round"/>
<path d="M10.5 23.3334V26.8334" stroke="#5858E0" stroke-width="2" stroke-linecap="round" stroke-linejoin="round"/>
<path d="M17.5 23.3334V26.8334" stroke="#5858E0" stroke-width="2" stroke-linecap="round" stroke-linejoin="round"/>
<path d="M23.3333 10.5H26.8333" stroke="#5858E0" stroke-width="2" stroke-linecap="round" stroke-linejoin="round"/>
<path d="M23.3333 16.3334H26.8333" stroke="#5858E0" stroke-width="2" stroke-linecap="round" stroke-linejoin="round"/>
<path d="M1.16666 10.5H4.66666" stroke="#5858E0" stroke-width="2" stroke-linecap="round" stroke-linejoin="round"/>
<path d="M1.16666 16.3334H4.66666" stroke="#5858E0" stroke-width="2" stroke-linecap="round" stroke-linejoin="round"/>
</svg>
