<svg width="30" height="24" viewBox="0 0 30 24" fill="none" xmlns="http://www.w3.org/2000/svg">
<path d="M28.5 0H1.5C1.10218 0 0.720644 0.158036 0.43934 0.43934C0.158035 0.720645 0 1.10218 0 1.5V22.5C0 22.8978 0.158035 23.2794 0.43934 23.5607C0.720644 23.842 1.10218 24 1.5 24H28.5C28.8978 24 29.2794 23.842 29.5607 23.5607C29.842 23.2794 30 22.8978 30 22.5V1.5C30 1.10218 29.842 0.720645 29.5607 0.43934C29.2794 0.158036 28.8978 0 28.5 0ZM28.5 1.5V4.5H1.5V1.5H28.5ZM1.5 22.5V6H28.5V22.5H1.5ZM3 3C3 2.85166 3.04399 2.70666 3.1264 2.58332C3.20881 2.45999 3.32594 2.36386 3.46299 2.30709C3.60003 2.25032 3.75083 2.23547 3.89632 2.26441C4.0418 2.29335 4.17544 2.36478 4.28033 2.46967C4.38522 2.57456 4.45665 2.7082 4.48559 2.85368C4.51453 2.99917 4.49968 3.14997 4.44291 3.28701C4.38614 3.42406 4.29001 3.54119 4.16668 3.6236C4.04334 3.70601 3.89834 3.75 3.75 3.75C3.55109 3.75 3.36032 3.67098 3.21967 3.53033C3.07902 3.38968 3 3.19891 3 3ZM9.75 9C8.71165 9 7.69661 9.30791 6.83326 9.88478C5.9699 10.4617 5.29699 11.2816 4.89963 12.2409C4.50227 13.2002 4.3983 14.2558 4.60088 15.2742C4.80345 16.2926 5.30346 17.2281 6.03769 17.9623C6.77192 18.6965 7.70738 19.1966 8.72578 19.3991C9.74418 19.6017 10.7998 19.4977 11.7591 19.1004C12.7184 18.703 13.5383 18.0301 14.1152 17.1667C14.6921 16.3034 15 15.2884 15 14.25C14.9984 12.8581 14.4448 11.5237 13.4606 10.5394C12.4763 9.55522 11.1419 9.00159 9.75 9ZM13.425 13.5H10.5V10.575C11.22 10.7234 11.8808 11.0796 12.4006 11.5994C12.9204 12.1192 13.2766 12.78 13.425 13.5ZM9.75 18C8.82004 18.0009 7.9229 17.6563 7.23275 17.033C6.5426 16.4097 6.10868 15.5521 6.01522 14.6269C5.92176 13.7016 6.17543 12.7746 6.72698 12.0259C7.27854 11.2772 8.08863 10.7601 9 10.575V15H13.425C13.2509 15.8464 12.7904 16.607 12.1209 17.1535C11.4515 17.6999 10.6142 17.9989 9.75 18ZM18 15H19.5V19.5H18V15ZM21 12H22.5V19.5H21V12ZM24 9H25.5V19.5H24V9Z" fill="#334D6E"/>
</svg>
