<svg width="22" height="24" viewBox="0 0 22 24" fill="none" xmlns="http://www.w3.org/2000/svg">
<path d="M18.403 0.746727H2.89721C2.52143 0.746531 2.14929 0.824017 1.80206 0.974757C1.45483 1.1255 1.1393 1.34654 0.87352 1.62525C0.607734 1.90397 0.396894 2.23489 0.253045 2.59912C0.109196 2.96335 0.0351562 3.35375 0.0351563 3.74801L0.0351563 20.0161C0.0351563 20.8121 0.336544 21.5755 0.873016 22.1384C1.40949 22.7012 2.1371 23.0174 2.89579 23.0174H10.5441L10.5569 15.0595H8.58646C8.46346 15.0595 8.34549 15.0084 8.25838 14.9173C8.17128 14.8262 8.12216 14.7026 8.12178 14.5735L8.11253 12.0082C8.11216 11.9442 8.12381 11.8807 8.14681 11.8214C8.16982 11.7621 8.20373 11.7082 8.24662 11.6626C8.2895 11.6171 8.34052 11.5808 8.39675 11.556C8.45299 11.5311 8.51334 11.5181 8.57436 11.5177H10.5412V9.03907C10.5412 6.16247 12.2156 4.59613 14.6614 4.59613H16.6681C16.7913 4.59613 16.9095 4.64749 16.9967 4.73892C17.0838 4.83035 17.1328 4.95435 17.1328 5.08365V7.24875C17.1328 7.37805 17.0838 7.50205 16.9967 7.59348C16.9095 7.68491 16.7913 7.73627 16.6681 7.73627H15.4399C14.1099 7.73627 13.8523 8.39924 13.8523 9.37279V11.5185H16.7748C16.8405 11.5184 16.9055 11.533 16.9654 11.5612C17.0253 11.5894 17.0789 11.6306 17.1225 11.6821C17.1662 11.7336 17.1989 11.7942 17.2186 11.8599C17.2382 11.9257 17.2444 11.9951 17.2367 12.0635L16.9471 14.6288C16.9338 14.7475 16.8794 14.8569 16.7943 14.9364C16.7091 15.0158 16.5991 15.0596 16.4852 15.0595H13.8658L13.8523 23.0174H18.403C19.1617 23.0174 19.8893 22.7012 20.4258 22.1384C20.9622 21.5755 21.2636 20.8121 21.2636 20.0161V3.74801C21.2636 2.95202 20.9622 2.18863 20.4258 1.62578C19.8893 1.06293 19.1617 0.746727 18.403 0.746727Z" fill="#333333"/>
</svg>
