<svg width="125" height="124" viewBox="0 0 125 124" fill="none" xmlns="http://www.w3.org/2000/svg">
<g opacity="0.3">
<circle opacity="0.3" cx="51.0625" cy="116" r="2" transform="rotate(-90 51.0625 116)" fill="#334D6E"/>
<circle opacity="0.3" cx="51.0625" cy="107" r="2" transform="rotate(-90 51.0625 107)" fill="#334D6E"/>
<circle opacity="0.3" cx="51.0625" cy="98" r="2" transform="rotate(-90 51.0625 98)" fill="#334D6E"/>
<circle opacity="0.3" cx="51.0625" cy="89" r="2" transform="rotate(-90 51.0625 89)" fill="#334D6E"/>
<circle opacity="0.3" cx="51.0625" cy="80" r="2" transform="rotate(-90 51.0625 80)" fill="#334D6E"/>
<circle opacity="0.3" cx="51.0625" cy="71" r="2" transform="rotate(-90 51.0625 71)" fill="#334D6E"/>
<circle opacity="0.3" cx="51.0625" cy="62" r="2" transform="rotate(-90 51.0625 62)" fill="#334D6E"/>
<circle opacity="0.3" cx="51.0625" cy="53" r="2" transform="rotate(-90 51.0625 53)" fill="#334D6E"/>
<circle opacity="0.3" cx="51.0625" cy="44" r="2" transform="rotate(-90 51.0625 44)" fill="#334D6E"/>
<circle opacity="0.3" cx="51.0625" cy="35" r="2" transform="rotate(-90 51.0625 35)" fill="#334D6E"/>
<circle opacity="0.3" cx="51.0625" cy="26" r="2" transform="rotate(-90 51.0625 26)" fill="#334D6E"/>
<circle opacity="0.3" cx="51.0625" cy="17" r="2" transform="rotate(-90 51.0625 17)" fill="#334D6E"/>
<circle opacity="0.3" cx="51.0625" cy="8" r="2" transform="rotate(-90 51.0625 8)" fill="#334D6E"/>
<circle opacity="0.3" cx="60.0625" cy="116" r="2" transform="rotate(-90 60.0625 116)" fill="#334D6E"/>
<circle opacity="0.3" cx="60.0625" cy="107" r="2" transform="rotate(-90 60.0625 107)" fill="#334D6E"/>
<circle opacity="0.3" cx="60.0625" cy="98" r="2" transform="rotate(-90 60.0625 98)" fill="#334D6E"/>
<circle opacity="0.3" cx="60.0625" cy="89" r="2" transform="rotate(-90 60.0625 89)" fill="#334D6E"/>
<circle opacity="0.3" cx="60.0625" cy="80" r="2" transform="rotate(-90 60.0625 80)" fill="#334D6E"/>
<circle opacity="0.3" cx="60.0625" cy="71" r="2" transform="rotate(-90 60.0625 71)" fill="#334D6E"/>
<circle opacity="0.3" cx="60.0625" cy="62" r="2" transform="rotate(-90 60.0625 62)" fill="#334D6E"/>
<circle opacity="0.3" cx="60.0625" cy="53" r="2" transform="rotate(-90 60.0625 53)" fill="#334D6E"/>
<circle opacity="0.3" cx="60.0625" cy="44" r="2" transform="rotate(-90 60.0625 44)" fill="#334D6E"/>
<circle opacity="0.3" cx="60.0625" cy="35" r="2" transform="rotate(-90 60.0625 35)" fill="#334D6E"/>
<circle opacity="0.3" cx="60.0625" cy="26" r="2" transform="rotate(-90 60.0625 26)" fill="#334D6E"/>
<circle opacity="0.3" cx="60.0625" cy="17" r="2" transform="rotate(-90 60.0625 17)" fill="#334D6E"/>
<circle opacity="0.3" cx="60.0625" cy="8" r="2" transform="rotate(-90 60.0625 8)" fill="#334D6E"/>
<circle opacity="0.3" cx="69.0625" cy="116" r="2" transform="rotate(-90 69.0625 116)" fill="#334D6E"/>
<circle opacity="0.3" cx="69.0625" cy="107" r="2" transform="rotate(-90 69.0625 107)" fill="#334D6E"/>
<circle opacity="0.3" cx="69.0625" cy="98" r="2" transform="rotate(-90 69.0625 98)" fill="#334D6E"/>
<circle opacity="0.3" cx="69.0625" cy="89" r="2" transform="rotate(-90 69.0625 89)" fill="#334D6E"/>
<circle opacity="0.3" cx="69.0625" cy="80" r="2" transform="rotate(-90 69.0625 80)" fill="#334D6E"/>
<circle opacity="0.3" cx="69.0625" cy="71" r="2" transform="rotate(-90 69.0625 71)" fill="#334D6E"/>
<circle opacity="0.3" cx="69.0625" cy="62" r="2" transform="rotate(-90 69.0625 62)" fill="#334D6E"/>
<circle opacity="0.3" cx="69.0625" cy="53" r="2" transform="rotate(-90 69.0625 53)" fill="#334D6E"/>
<circle opacity="0.3" cx="69.0625" cy="44" r="2" transform="rotate(-90 69.0625 44)" fill="#334D6E"/>
<circle opacity="0.3" cx="69.0625" cy="35" r="2" transform="rotate(-90 69.0625 35)" fill="#334D6E"/>
<circle opacity="0.3" cx="69.0625" cy="26" r="2" transform="rotate(-90 69.0625 26)" fill="#334D6E"/>
<circle opacity="0.3" cx="69.0625" cy="17" r="2" transform="rotate(-90 69.0625 17)" fill="#334D6E"/>
<circle opacity="0.3" cx="69.0625" cy="8" r="2" transform="rotate(-90 69.0625 8)" fill="#334D6E"/>
<circle opacity="0.3" cx="78.0625" cy="116" r="2" transform="rotate(-90 78.0625 116)" fill="#334D6E"/>
<circle opacity="0.3" cx="78.0625" cy="107" r="2" transform="rotate(-90 78.0625 107)" fill="#334D6E"/>
<circle opacity="0.3" cx="78.0625" cy="98" r="2" transform="rotate(-90 78.0625 98)" fill="#334D6E"/>
<circle opacity="0.3" cx="78.0625" cy="89" r="2" transform="rotate(-90 78.0625 89)" fill="#334D6E"/>
<circle opacity="0.3" cx="78.0625" cy="80" r="2" transform="rotate(-90 78.0625 80)" fill="#334D6E"/>
<circle opacity="0.3" cx="78.0625" cy="71" r="2" transform="rotate(-90 78.0625 71)" fill="#334D6E"/>
<circle opacity="0.3" cx="78.0625" cy="62" r="2" transform="rotate(-90 78.0625 62)" fill="#334D6E"/>
<circle opacity="0.3" cx="78.0625" cy="53" r="2" transform="rotate(-90 78.0625 53)" fill="#334D6E"/>
<circle opacity="0.3" cx="78.0625" cy="44" r="2" transform="rotate(-90 78.0625 44)" fill="#334D6E"/>
<circle opacity="0.3" cx="78.0625" cy="35" r="2" transform="rotate(-90 78.0625 35)" fill="#334D6E"/>
<circle opacity="0.3" cx="78.0625" cy="26" r="2" transform="rotate(-90 78.0625 26)" fill="#334D6E"/>
<circle opacity="0.3" cx="78.0625" cy="17" r="2" transform="rotate(-90 78.0625 17)" fill="#334D6E"/>
<circle opacity="0.3" cx="78.0625" cy="8" r="2" transform="rotate(-90 78.0625 8)" fill="#334D6E"/>
<circle opacity="0.3" cx="87.0625" cy="116" r="2" transform="rotate(-90 87.0625 116)" fill="#334D6E"/>
<circle opacity="0.3" cx="87.0625" cy="107" r="2" transform="rotate(-90 87.0625 107)" fill="#334D6E"/>
<circle opacity="0.3" cx="87.0625" cy="98" r="2" transform="rotate(-90 87.0625 98)" fill="#334D6E"/>
<circle opacity="0.3" cx="87.0625" cy="89" r="2" transform="rotate(-90 87.0625 89)" fill="#334D6E"/>
<circle opacity="0.3" cx="87.0625" cy="80" r="2" transform="rotate(-90 87.0625 80)" fill="#334D6E"/>
<circle opacity="0.3" cx="87.0625" cy="71" r="2" transform="rotate(-90 87.0625 71)" fill="#334D6E"/>
<circle opacity="0.3" cx="87.0625" cy="62" r="2" transform="rotate(-90 87.0625 62)" fill="#334D6E"/>
<circle opacity="0.3" cx="87.0625" cy="53" r="2" transform="rotate(-90 87.0625 53)" fill="#334D6E"/>
<circle opacity="0.3" cx="87.0625" cy="44" r="2" transform="rotate(-90 87.0625 44)" fill="#334D6E"/>
<circle opacity="0.3" cx="87.0625" cy="35" r="2" transform="rotate(-90 87.0625 35)" fill="#334D6E"/>
<circle opacity="0.3" cx="87.0625" cy="26" r="2" transform="rotate(-90 87.0625 26)" fill="#334D6E"/>
<circle opacity="0.3" cx="87.0625" cy="17" r="2" transform="rotate(-90 87.0625 17)" fill="#334D6E"/>
<circle opacity="0.3" cx="87.0625" cy="8" r="2" transform="rotate(-90 87.0625 8)" fill="#334D6E"/>
<circle opacity="0.3" cx="96.0625" cy="116" r="2" transform="rotate(-90 96.0625 116)" fill="#334D6E"/>
<circle opacity="0.3" cx="96.0625" cy="107" r="2" transform="rotate(-90 96.0625 107)" fill="#334D6E"/>
<circle opacity="0.3" cx="96.0625" cy="98" r="2" transform="rotate(-90 96.0625 98)" fill="#334D6E"/>
<circle opacity="0.3" cx="96.0625" cy="89" r="2" transform="rotate(-90 96.0625 89)" fill="#334D6E"/>
<circle opacity="0.3" cx="96.0625" cy="80" r="2" transform="rotate(-90 96.0625 80)" fill="#334D6E"/>
<circle opacity="0.3" cx="96.0625" cy="71" r="2" transform="rotate(-90 96.0625 71)" fill="#334D6E"/>
<circle opacity="0.3" cx="96.0625" cy="62" r="2" transform="rotate(-90 96.0625 62)" fill="#334D6E"/>
<circle opacity="0.3" cx="96.0625" cy="53" r="2" transform="rotate(-90 96.0625 53)" fill="#334D6E"/>
<circle opacity="0.3" cx="96.0625" cy="44" r="2" transform="rotate(-90 96.0625 44)" fill="#334D6E"/>
<circle opacity="0.3" cx="96.0625" cy="35" r="2" transform="rotate(-90 96.0625 35)" fill="#334D6E"/>
<circle opacity="0.3" cx="96.0625" cy="26" r="2" transform="rotate(-90 96.0625 26)" fill="#334D6E"/>
<circle opacity="0.3" cx="96.0625" cy="17" r="2" transform="rotate(-90 96.0625 17)" fill="#334D6E"/>
<circle opacity="0.3" cx="96.0625" cy="8" r="2" transform="rotate(-90 96.0625 8)" fill="#334D6E"/>
<circle opacity="0.3" cx="105.062" cy="116" r="2" transform="rotate(-90 105.062 116)" fill="#334D6E"/>
<circle opacity="0.3" cx="105.062" cy="107" r="2" transform="rotate(-90 105.062 107)" fill="#334D6E"/>
<circle opacity="0.3" cx="105.062" cy="98" r="2" transform="rotate(-90 105.062 98)" fill="#334D6E"/>
<circle opacity="0.3" cx="105.062" cy="89" r="2" transform="rotate(-90 105.062 89)" fill="#334D6E"/>
<circle opacity="0.3" cx="105.062" cy="80" r="2" transform="rotate(-90 105.062 80)" fill="#334D6E"/>
<circle opacity="0.3" cx="105.062" cy="71" r="2" transform="rotate(-90 105.062 71)" fill="#334D6E"/>
<circle opacity="0.3" cx="105.062" cy="62" r="2" transform="rotate(-90 105.062 62)" fill="#334D6E"/>
<circle opacity="0.3" cx="105.062" cy="53" r="2" transform="rotate(-90 105.062 53)" fill="#334D6E"/>
<circle opacity="0.3" cx="105.062" cy="44" r="2" transform="rotate(-90 105.062 44)" fill="#334D6E"/>
<circle opacity="0.3" cx="105.062" cy="35" r="2" transform="rotate(-90 105.062 35)" fill="#334D6E"/>
<circle opacity="0.3" cx="105.062" cy="26" r="2" transform="rotate(-90 105.062 26)" fill="#334D6E"/>
<circle opacity="0.3" cx="105.062" cy="17" r="2" transform="rotate(-90 105.062 17)" fill="#334D6E"/>
<circle opacity="0.3" cx="105.062" cy="8" r="2" transform="rotate(-90 105.062 8)" fill="#334D6E"/>
<circle opacity="0.3" cx="114.062" cy="116" r="2" transform="rotate(-90 114.062 116)" fill="#334D6E"/>
<circle opacity="0.3" cx="114.062" cy="107" r="2" transform="rotate(-90 114.062 107)" fill="#334D6E"/>
<circle opacity="0.3" cx="114.062" cy="98" r="2" transform="rotate(-90 114.062 98)" fill="#334D6E"/>
<circle opacity="0.3" cx="114.062" cy="89" r="2" transform="rotate(-90 114.062 89)" fill="#334D6E"/>
<circle opacity="0.3" cx="114.062" cy="80" r="2" transform="rotate(-90 114.062 80)" fill="#334D6E"/>
<circle opacity="0.3" cx="114.062" cy="71" r="2" transform="rotate(-90 114.062 71)" fill="#334D6E"/>
<circle opacity="0.3" cx="114.062" cy="62" r="2" transform="rotate(-90 114.062 62)" fill="#334D6E"/>
<circle opacity="0.3" cx="114.062" cy="53" r="2" transform="rotate(-90 114.062 53)" fill="#334D6E"/>
<circle opacity="0.3" cx="114.062" cy="44" r="2" transform="rotate(-90 114.062 44)" fill="#334D6E"/>
<circle opacity="0.3" cx="114.062" cy="35" r="2" transform="rotate(-90 114.062 35)" fill="#334D6E"/>
<circle opacity="0.3" cx="114.062" cy="26" r="2" transform="rotate(-90 114.062 26)" fill="#334D6E"/>
<circle opacity="0.3" cx="114.062" cy="17" r="2" transform="rotate(-90 114.062 17)" fill="#334D6E"/>
<circle opacity="0.3" cx="114.062" cy="8" r="2" transform="rotate(-90 114.062 8)" fill="#334D6E"/>
</g>
<g filter="url(#filter0_d)">
<rect x="20.9375" y="20" width="84" height="84" rx="16" fill="#334D6E"/>
</g>
<path d="M73.6875 59.75H71.4375V53C71.4375 48.0375 67.4 44 62.4375 44C57.475 44 53.4375 48.0375 53.4375 53V59.75H51.1875C49.9449 59.75 48.9375 60.7573 48.9375 62V77.75C48.9375 78.9926 49.9449 80 51.1875 80H73.6875C74.9301 80 75.9375 78.9926 75.9375 77.75V62C75.9375 60.7573 74.9301 59.75 73.6875 59.75ZM63.5625 70.6879V73.25C63.5625 73.8713 63.0589 74.375 62.4375 74.375C61.8161 74.375 61.3125 73.8713 61.3125 73.25V70.6879C60.6428 70.2981 60.1875 69.5807 60.1875 68.75C60.1875 67.5073 61.1949 66.5 62.4375 66.5C63.6801 66.5 64.6875 67.5073 64.6875 68.75C64.6875 69.5807 64.2322 70.2982 63.5625 70.6879ZM57.9375 59.75V53C57.9375 50.5187 59.9562 48.5 62.4375 48.5C64.9188 48.5 66.9375 50.5187 66.9375 53V59.75H57.9375Z" fill="white"/>
<defs>
<filter id="filter0_d" x="0.9375" y="0" width="124" height="124" filterUnits="userSpaceOnUse" color-interpolation-filters="sRGB">
<feFlood flood-opacity="0" result="BackgroundImageFix"/>
<feColorMatrix in="SourceAlpha" type="matrix" values="0 0 0 0 0 0 0 0 0 0 0 0 0 0 0 0 0 0 127 0"/>
<feOffset/>
<feGaussianBlur stdDeviation="10"/>
<feColorMatrix type="matrix" values="0 0 0 0 0.2 0 0 0 0 0.301961 0 0 0 0 0.431373 0 0 0 0.4 0"/>
<feBlend mode="normal" in2="BackgroundImageFix" result="effect1_dropShadow"/>
<feBlend mode="normal" in="SourceGraphic" in2="effect1_dropShadow" result="shape"/>
</filter>
</defs>
</svg>
