<svg width="125" height="124" viewBox="0 0 125 124" fill="none" xmlns="http://www.w3.org/2000/svg">
<g opacity="0.3">
<circle opacity="0.3" cx="52.875" cy="116" r="2" transform="rotate(-90 52.875 116)" fill="#20C58B"/>
<circle opacity="0.3" cx="52.875" cy="107" r="2" transform="rotate(-90 52.875 107)" fill="#20C58B"/>
<circle opacity="0.3" cx="52.875" cy="98" r="2" transform="rotate(-90 52.875 98)" fill="#20C58B"/>
<circle opacity="0.3" cx="52.875" cy="89" r="2" transform="rotate(-90 52.875 89)" fill="#20C58B"/>
<circle opacity="0.3" cx="52.875" cy="80" r="2" transform="rotate(-90 52.875 80)" fill="#20C58B"/>
<circle opacity="0.3" cx="52.875" cy="71" r="2" transform="rotate(-90 52.875 71)" fill="#20C58B"/>
<circle opacity="0.3" cx="52.875" cy="62" r="2" transform="rotate(-90 52.875 62)" fill="#20C58B"/>
<circle opacity="0.3" cx="52.875" cy="53" r="2" transform="rotate(-90 52.875 53)" fill="#20C58B"/>
<circle opacity="0.3" cx="52.875" cy="44" r="2" transform="rotate(-90 52.875 44)" fill="#20C58B"/>
<circle opacity="0.3" cx="52.875" cy="35" r="2" transform="rotate(-90 52.875 35)" fill="#20C58B"/>
<circle opacity="0.3" cx="52.875" cy="26" r="2" transform="rotate(-90 52.875 26)" fill="#20C58B"/>
<circle opacity="0.3" cx="52.875" cy="17" r="2" transform="rotate(-90 52.875 17)" fill="#20C58B"/>
<circle opacity="0.3" cx="52.875" cy="8" r="2" transform="rotate(-90 52.875 8)" fill="#20C58B"/>
<circle opacity="0.3" cx="61.875" cy="116" r="2" transform="rotate(-90 61.875 116)" fill="#20C58B"/>
<circle opacity="0.3" cx="61.875" cy="107" r="2" transform="rotate(-90 61.875 107)" fill="#20C58B"/>
<circle opacity="0.3" cx="61.875" cy="98" r="2" transform="rotate(-90 61.875 98)" fill="#20C58B"/>
<circle opacity="0.3" cx="61.875" cy="89" r="2" transform="rotate(-90 61.875 89)" fill="#20C58B"/>
<circle opacity="0.3" cx="61.875" cy="80" r="2" transform="rotate(-90 61.875 80)" fill="#20C58B"/>
<circle opacity="0.3" cx="61.875" cy="71" r="2" transform="rotate(-90 61.875 71)" fill="#20C58B"/>
<circle opacity="0.3" cx="61.875" cy="62" r="2" transform="rotate(-90 61.875 62)" fill="#20C58B"/>
<circle opacity="0.3" cx="61.875" cy="53" r="2" transform="rotate(-90 61.875 53)" fill="#20C58B"/>
<circle opacity="0.3" cx="61.875" cy="44" r="2" transform="rotate(-90 61.875 44)" fill="#20C58B"/>
<circle opacity="0.3" cx="61.875" cy="35" r="2" transform="rotate(-90 61.875 35)" fill="#20C58B"/>
<circle opacity="0.3" cx="61.875" cy="26" r="2" transform="rotate(-90 61.875 26)" fill="#20C58B"/>
<circle opacity="0.3" cx="61.875" cy="17" r="2" transform="rotate(-90 61.875 17)" fill="#20C58B"/>
<circle opacity="0.3" cx="61.875" cy="8" r="2" transform="rotate(-90 61.875 8)" fill="#20C58B"/>
<circle opacity="0.3" cx="70.875" cy="116" r="2" transform="rotate(-90 70.875 116)" fill="#20C58B"/>
<circle opacity="0.3" cx="70.875" cy="107" r="2" transform="rotate(-90 70.875 107)" fill="#20C58B"/>
<circle opacity="0.3" cx="70.875" cy="98" r="2" transform="rotate(-90 70.875 98)" fill="#20C58B"/>
<circle opacity="0.3" cx="70.875" cy="89" r="2" transform="rotate(-90 70.875 89)" fill="#20C58B"/>
<circle opacity="0.3" cx="70.875" cy="80" r="2" transform="rotate(-90 70.875 80)" fill="#20C58B"/>
<circle opacity="0.3" cx="70.875" cy="71" r="2" transform="rotate(-90 70.875 71)" fill="#20C58B"/>
<circle opacity="0.3" cx="70.875" cy="62" r="2" transform="rotate(-90 70.875 62)" fill="#20C58B"/>
<circle opacity="0.3" cx="70.875" cy="53" r="2" transform="rotate(-90 70.875 53)" fill="#20C58B"/>
<circle opacity="0.3" cx="70.875" cy="44" r="2" transform="rotate(-90 70.875 44)" fill="#20C58B"/>
<circle opacity="0.3" cx="70.875" cy="35" r="2" transform="rotate(-90 70.875 35)" fill="#20C58B"/>
<circle opacity="0.3" cx="70.875" cy="26" r="2" transform="rotate(-90 70.875 26)" fill="#20C58B"/>
<circle opacity="0.3" cx="70.875" cy="17" r="2" transform="rotate(-90 70.875 17)" fill="#20C58B"/>
<circle opacity="0.3" cx="70.875" cy="8" r="2" transform="rotate(-90 70.875 8)" fill="#20C58B"/>
<circle opacity="0.3" cx="79.875" cy="116" r="2" transform="rotate(-90 79.875 116)" fill="#20C58B"/>
<circle opacity="0.3" cx="79.875" cy="107" r="2" transform="rotate(-90 79.875 107)" fill="#20C58B"/>
<circle opacity="0.3" cx="79.875" cy="98" r="2" transform="rotate(-90 79.875 98)" fill="#20C58B"/>
<circle opacity="0.3" cx="79.875" cy="89" r="2" transform="rotate(-90 79.875 89)" fill="#20C58B"/>
<circle opacity="0.3" cx="79.875" cy="80" r="2" transform="rotate(-90 79.875 80)" fill="#20C58B"/>
<circle opacity="0.3" cx="79.875" cy="71" r="2" transform="rotate(-90 79.875 71)" fill="#20C58B"/>
<circle opacity="0.3" cx="79.875" cy="62" r="2" transform="rotate(-90 79.875 62)" fill="#20C58B"/>
<circle opacity="0.3" cx="79.875" cy="53" r="2" transform="rotate(-90 79.875 53)" fill="#20C58B"/>
<circle opacity="0.3" cx="79.875" cy="44" r="2" transform="rotate(-90 79.875 44)" fill="#20C58B"/>
<circle opacity="0.3" cx="79.875" cy="35" r="2" transform="rotate(-90 79.875 35)" fill="#20C58B"/>
<circle opacity="0.3" cx="79.875" cy="26" r="2" transform="rotate(-90 79.875 26)" fill="#20C58B"/>
<circle opacity="0.3" cx="79.875" cy="17" r="2" transform="rotate(-90 79.875 17)" fill="#20C58B"/>
<circle opacity="0.3" cx="79.875" cy="8" r="2" transform="rotate(-90 79.875 8)" fill="#20C58B"/>
<circle opacity="0.3" cx="88.875" cy="116" r="2" transform="rotate(-90 88.875 116)" fill="#20C58B"/>
<circle opacity="0.3" cx="88.875" cy="107" r="2" transform="rotate(-90 88.875 107)" fill="#20C58B"/>
<circle opacity="0.3" cx="88.875" cy="98" r="2" transform="rotate(-90 88.875 98)" fill="#20C58B"/>
<circle opacity="0.3" cx="88.875" cy="89" r="2" transform="rotate(-90 88.875 89)" fill="#20C58B"/>
<circle opacity="0.3" cx="88.875" cy="80" r="2" transform="rotate(-90 88.875 80)" fill="#20C58B"/>
<circle opacity="0.3" cx="88.875" cy="71" r="2" transform="rotate(-90 88.875 71)" fill="#20C58B"/>
<circle opacity="0.3" cx="88.875" cy="62" r="2" transform="rotate(-90 88.875 62)" fill="#20C58B"/>
<circle opacity="0.3" cx="88.875" cy="53" r="2" transform="rotate(-90 88.875 53)" fill="#20C58B"/>
<circle opacity="0.3" cx="88.875" cy="44" r="2" transform="rotate(-90 88.875 44)" fill="#20C58B"/>
<circle opacity="0.3" cx="88.875" cy="35" r="2" transform="rotate(-90 88.875 35)" fill="#20C58B"/>
<circle opacity="0.3" cx="88.875" cy="26" r="2" transform="rotate(-90 88.875 26)" fill="#20C58B"/>
<circle opacity="0.3" cx="88.875" cy="17" r="2" transform="rotate(-90 88.875 17)" fill="#20C58B"/>
<circle opacity="0.3" cx="88.875" cy="8" r="2" transform="rotate(-90 88.875 8)" fill="#20C58B"/>
<circle opacity="0.3" cx="97.875" cy="116" r="2" transform="rotate(-90 97.875 116)" fill="#20C58B"/>
<circle opacity="0.3" cx="97.875" cy="107" r="2" transform="rotate(-90 97.875 107)" fill="#20C58B"/>
<circle opacity="0.3" cx="97.875" cy="98" r="2" transform="rotate(-90 97.875 98)" fill="#20C58B"/>
<circle opacity="0.3" cx="97.875" cy="89" r="2" transform="rotate(-90 97.875 89)" fill="#20C58B"/>
<circle opacity="0.3" cx="97.875" cy="80" r="2" transform="rotate(-90 97.875 80)" fill="#20C58B"/>
<circle opacity="0.3" cx="97.875" cy="71" r="2" transform="rotate(-90 97.875 71)" fill="#20C58B"/>
<circle opacity="0.3" cx="97.875" cy="62" r="2" transform="rotate(-90 97.875 62)" fill="#20C58B"/>
<circle opacity="0.3" cx="97.875" cy="53" r="2" transform="rotate(-90 97.875 53)" fill="#20C58B"/>
<circle opacity="0.3" cx="97.875" cy="44" r="2" transform="rotate(-90 97.875 44)" fill="#20C58B"/>
<circle opacity="0.3" cx="97.875" cy="35" r="2" transform="rotate(-90 97.875 35)" fill="#20C58B"/>
<circle opacity="0.3" cx="97.875" cy="26" r="2" transform="rotate(-90 97.875 26)" fill="#20C58B"/>
<circle opacity="0.3" cx="97.875" cy="17" r="2" transform="rotate(-90 97.875 17)" fill="#20C58B"/>
<circle opacity="0.3" cx="97.875" cy="8" r="2" transform="rotate(-90 97.875 8)" fill="#20C58B"/>
<circle opacity="0.3" cx="106.875" cy="116" r="2" transform="rotate(-90 106.875 116)" fill="#20C58B"/>
<circle opacity="0.3" cx="106.875" cy="107" r="2" transform="rotate(-90 106.875 107)" fill="#20C58B"/>
<circle opacity="0.3" cx="106.875" cy="98" r="2" transform="rotate(-90 106.875 98)" fill="#20C58B"/>
<circle opacity="0.3" cx="106.875" cy="89" r="2" transform="rotate(-90 106.875 89)" fill="#20C58B"/>
<circle opacity="0.3" cx="106.875" cy="80" r="2" transform="rotate(-90 106.875 80)" fill="#20C58B"/>
<circle opacity="0.3" cx="106.875" cy="71" r="2" transform="rotate(-90 106.875 71)" fill="#20C58B"/>
<circle opacity="0.3" cx="106.875" cy="62" r="2" transform="rotate(-90 106.875 62)" fill="#20C58B"/>
<circle opacity="0.3" cx="106.875" cy="53" r="2" transform="rotate(-90 106.875 53)" fill="#20C58B"/>
<circle opacity="0.3" cx="106.875" cy="44" r="2" transform="rotate(-90 106.875 44)" fill="#20C58B"/>
<circle opacity="0.3" cx="106.875" cy="35" r="2" transform="rotate(-90 106.875 35)" fill="#20C58B"/>
<circle opacity="0.3" cx="106.875" cy="26" r="2" transform="rotate(-90 106.875 26)" fill="#20C58B"/>
<circle opacity="0.3" cx="106.875" cy="17" r="2" transform="rotate(-90 106.875 17)" fill="#20C58B"/>
<circle opacity="0.3" cx="106.875" cy="8" r="2" transform="rotate(-90 106.875 8)" fill="#20C58B"/>
<circle opacity="0.3" cx="115.875" cy="116" r="2" transform="rotate(-90 115.875 116)" fill="#20C58B"/>
<circle opacity="0.3" cx="115.875" cy="107" r="2" transform="rotate(-90 115.875 107)" fill="#20C58B"/>
<circle opacity="0.3" cx="115.875" cy="98" r="2" transform="rotate(-90 115.875 98)" fill="#20C58B"/>
<circle opacity="0.3" cx="115.875" cy="89" r="2" transform="rotate(-90 115.875 89)" fill="#20C58B"/>
<circle opacity="0.3" cx="115.875" cy="80" r="2" transform="rotate(-90 115.875 80)" fill="#20C58B"/>
<circle opacity="0.3" cx="115.875" cy="71" r="2" transform="rotate(-90 115.875 71)" fill="#20C58B"/>
<circle opacity="0.3" cx="115.875" cy="62" r="2" transform="rotate(-90 115.875 62)" fill="#20C58B"/>
<circle opacity="0.3" cx="115.875" cy="53" r="2" transform="rotate(-90 115.875 53)" fill="#20C58B"/>
<circle opacity="0.3" cx="115.875" cy="44" r="2" transform="rotate(-90 115.875 44)" fill="#20C58B"/>
<circle opacity="0.3" cx="115.875" cy="35" r="2" transform="rotate(-90 115.875 35)" fill="#20C58B"/>
<circle opacity="0.3" cx="115.875" cy="26" r="2" transform="rotate(-90 115.875 26)" fill="#20C58B"/>
<circle opacity="0.3" cx="115.875" cy="17" r="2" transform="rotate(-90 115.875 17)" fill="#20C58B"/>
<circle opacity="0.3" cx="115.875" cy="8" r="2" transform="rotate(-90 115.875 8)" fill="#20C58B"/>
</g>
<g filter="url(#filter0_d)">
<rect x="20.125" y="20" width="84" height="84" rx="16" fill="#20C58B"/>
</g>
<path d="M47.8207 59.6522C47.42 59.6522 47.0193 59.4988 46.7141 59.1936C46.1021 58.5816 46.1021 57.5924 46.7141 56.9804L57.5235 46.171C58.1355 45.559 59.1247 45.559 59.7367 46.171C60.3487 46.783 60.3487 47.7722 59.7367 48.3842L48.9273 59.1936C48.6221 59.4988 48.2214 59.6522 47.8207 59.6522Z" fill="white"/>
<path d="M60.7336 51.8261C60.4284 51.8261 60.1279 51.7071 59.904 51.4817L54.4258 46.0035C54.0892 45.6685 53.9891 45.163 54.1706 44.7247C54.3522 44.2864 54.7811 44 55.2553 44H60.7336C61.3816 44 61.9075 44.5259 61.9075 45.1739V50.6522C61.9075 51.1264 61.6211 51.5553 61.1828 51.7369C61.0372 51.7963 60.8854 51.8261 60.7336 51.8261Z" fill="white"/>
<path d="M54.0815 66.3044V75.3044H44.6902V66.3044C44.6902 65.2244 45.5667 64.3478 46.6467 64.3478H52.125C53.205 64.3478 54.0815 65.2244 54.0815 66.3044Z" fill="white"/>
<path d="M66.6032 60.0435V75.3044H57.2119V60.0435C57.2119 58.9635 58.0884 58.087 59.1684 58.087H64.6467C65.7267 58.087 66.6032 58.9635 66.6032 60.0435Z" fill="white"/>
<path d="M79.1249 53.7826V75.3044H69.7336V53.7826C69.7336 52.7026 70.6102 51.8261 71.6902 51.8261H77.1684C78.2484 51.8261 79.1249 52.7026 79.1249 53.7826Z" fill="white"/>
<path d="M79.5163 80H44.2989C43.6509 80 43.125 79.4741 43.125 78.8261C43.125 78.1781 43.6509 77.6522 44.2989 77.6522H79.5163C80.1643 77.6522 80.6902 78.1781 80.6902 78.8261C80.6902 79.4741 80.1643 80 79.5163 80Z" fill="white"/>
<defs>
<filter id="filter0_d" x="0.125" y="0" width="124" height="124" filterUnits="userSpaceOnUse" color-interpolation-filters="sRGB">
<feFlood flood-opacity="0" result="BackgroundImageFix"/>
<feColorMatrix in="SourceAlpha" type="matrix" values="0 0 0 0 0 0 0 0 0 0 0 0 0 0 0 0 0 0 127 0"/>
<feOffset/>
<feGaussianBlur stdDeviation="10"/>
<feColorMatrix type="matrix" values="0 0 0 0 0.12549 0 0 0 0 0.772549 0 0 0 0 0.545098 0 0 0 0.4 0"/>
<feBlend mode="normal" in2="BackgroundImageFix" result="effect1_dropShadow"/>
<feBlend mode="normal" in="SourceGraphic" in2="effect1_dropShadow" result="shape"/>
</filter>
</defs>
</svg>
