<svg width="32" height="32" viewBox="0 0 32 32" fill="none" xmlns="http://www.w3.org/2000/svg">
<rect width="32" height="32" rx="4" fill="#5858E0"/>
<g clip-path="url(#clip0)">
<path d="M21.9259 18.5925C21.0037 18.5925 20.1111 18.4444 19.2815 18.1703C19.0259 18.0888 18.7333 18.1481 18.5296 18.3518L16.9 19.9851C14.8 18.9185 13.0852 17.2036 12.0185 15.1073L13.6481 13.4703C13.8519 13.2666 13.9111 12.974 13.8296 12.7185C13.5556 11.8888 13.4074 10.9962 13.4074 10.074C13.4074 9.66287 13.0778 9.33325 12.6666 9.33325H10.074C9.66665 9.33325 9.33331 9.66287 9.33331 10.074C9.33331 17.0295 14.9704 22.6666 21.9259 22.6666C22.337 22.6666 22.6666 22.337 22.6666 21.9259V19.3333C22.6666 18.9221 22.337 18.5925 21.9259 18.5925Z" fill="white"/>
</g>
<defs>
<clipPath id="clip0">
<rect width="13.3333" height="13.3333" fill="white" transform="translate(9.33331 9.33325)"/>
</clipPath>
</defs>
</svg>
