<svg width="125" height="124" viewBox="0 0 125 124" fill="none" xmlns="http://www.w3.org/2000/svg">
<g opacity="0.3">
<circle opacity="0.3" cx="52.0625" cy="116" r="2" transform="rotate(-90 52.0625 116)" fill="#FC295E"/>
<circle opacity="0.3" cx="52.0625" cy="107" r="2" transform="rotate(-90 52.0625 107)" fill="#FC295E"/>
<circle opacity="0.3" cx="52.0625" cy="98" r="2" transform="rotate(-90 52.0625 98)" fill="#FC295E"/>
<circle opacity="0.3" cx="52.0625" cy="89" r="2" transform="rotate(-90 52.0625 89)" fill="#FC295E"/>
<circle opacity="0.3" cx="52.0625" cy="80" r="2" transform="rotate(-90 52.0625 80)" fill="#FC295E"/>
<circle opacity="0.3" cx="52.0625" cy="71" r="2" transform="rotate(-90 52.0625 71)" fill="#FC295E"/>
<circle opacity="0.3" cx="52.0625" cy="62" r="2" transform="rotate(-90 52.0625 62)" fill="#FC295E"/>
<circle opacity="0.3" cx="52.0625" cy="53" r="2" transform="rotate(-90 52.0625 53)" fill="#FC295E"/>
<circle opacity="0.3" cx="52.0625" cy="44" r="2" transform="rotate(-90 52.0625 44)" fill="#FC295E"/>
<circle opacity="0.3" cx="52.0625" cy="35" r="2" transform="rotate(-90 52.0625 35)" fill="#FC295E"/>
<circle opacity="0.3" cx="52.0625" cy="26" r="2" transform="rotate(-90 52.0625 26)" fill="#FC295E"/>
<circle opacity="0.3" cx="52.0625" cy="17" r="2" transform="rotate(-90 52.0625 17)" fill="#FC295E"/>
<circle opacity="0.3" cx="52.0625" cy="8" r="2" transform="rotate(-90 52.0625 8)" fill="#FC295E"/>
<circle opacity="0.3" cx="61.0625" cy="116" r="2" transform="rotate(-90 61.0625 116)" fill="#FC295E"/>
<circle opacity="0.3" cx="61.0625" cy="107" r="2" transform="rotate(-90 61.0625 107)" fill="#FC295E"/>
<circle opacity="0.3" cx="61.0625" cy="98" r="2" transform="rotate(-90 61.0625 98)" fill="#FC295E"/>
<circle opacity="0.3" cx="61.0625" cy="89" r="2" transform="rotate(-90 61.0625 89)" fill="#FC295E"/>
<circle opacity="0.3" cx="61.0625" cy="80" r="2" transform="rotate(-90 61.0625 80)" fill="#FC295E"/>
<circle opacity="0.3" cx="61.0625" cy="71" r="2" transform="rotate(-90 61.0625 71)" fill="#FC295E"/>
<circle opacity="0.3" cx="61.0625" cy="62" r="2" transform="rotate(-90 61.0625 62)" fill="#FC295E"/>
<circle opacity="0.3" cx="61.0625" cy="53" r="2" transform="rotate(-90 61.0625 53)" fill="#FC295E"/>
<circle opacity="0.3" cx="61.0625" cy="44" r="2" transform="rotate(-90 61.0625 44)" fill="#FC295E"/>
<circle opacity="0.3" cx="61.0625" cy="35" r="2" transform="rotate(-90 61.0625 35)" fill="#FC295E"/>
<circle opacity="0.3" cx="61.0625" cy="26" r="2" transform="rotate(-90 61.0625 26)" fill="#FC295E"/>
<circle opacity="0.3" cx="61.0625" cy="17" r="2" transform="rotate(-90 61.0625 17)" fill="#FC295E"/>
<circle opacity="0.3" cx="61.0625" cy="8" r="2" transform="rotate(-90 61.0625 8)" fill="#FC295E"/>
<circle opacity="0.3" cx="70.0625" cy="116" r="2" transform="rotate(-90 70.0625 116)" fill="#FC295E"/>
<circle opacity="0.3" cx="70.0625" cy="107" r="2" transform="rotate(-90 70.0625 107)" fill="#FC295E"/>
<circle opacity="0.3" cx="70.0625" cy="98" r="2" transform="rotate(-90 70.0625 98)" fill="#FC295E"/>
<circle opacity="0.3" cx="70.0625" cy="89" r="2" transform="rotate(-90 70.0625 89)" fill="#FC295E"/>
<circle opacity="0.3" cx="70.0625" cy="80" r="2" transform="rotate(-90 70.0625 80)" fill="#FC295E"/>
<circle opacity="0.3" cx="70.0625" cy="71" r="2" transform="rotate(-90 70.0625 71)" fill="#FC295E"/>
<circle opacity="0.3" cx="70.0625" cy="62" r="2" transform="rotate(-90 70.0625 62)" fill="#FC295E"/>
<circle opacity="0.3" cx="70.0625" cy="53" r="2" transform="rotate(-90 70.0625 53)" fill="#FC295E"/>
<circle opacity="0.3" cx="70.0625" cy="44" r="2" transform="rotate(-90 70.0625 44)" fill="#FC295E"/>
<circle opacity="0.3" cx="70.0625" cy="35" r="2" transform="rotate(-90 70.0625 35)" fill="#FC295E"/>
<circle opacity="0.3" cx="70.0625" cy="26" r="2" transform="rotate(-90 70.0625 26)" fill="#FC295E"/>
<circle opacity="0.3" cx="70.0625" cy="17" r="2" transform="rotate(-90 70.0625 17)" fill="#FC295E"/>
<circle opacity="0.3" cx="70.0625" cy="8" r="2" transform="rotate(-90 70.0625 8)" fill="#FC295E"/>
<circle opacity="0.3" cx="79.0625" cy="116" r="2" transform="rotate(-90 79.0625 116)" fill="#FC295E"/>
<circle opacity="0.3" cx="79.0625" cy="107" r="2" transform="rotate(-90 79.0625 107)" fill="#FC295E"/>
<circle opacity="0.3" cx="79.0625" cy="98" r="2" transform="rotate(-90 79.0625 98)" fill="#FC295E"/>
<circle opacity="0.3" cx="79.0625" cy="89" r="2" transform="rotate(-90 79.0625 89)" fill="#FC295E"/>
<circle opacity="0.3" cx="79.0625" cy="80" r="2" transform="rotate(-90 79.0625 80)" fill="#FC295E"/>
<circle opacity="0.3" cx="79.0625" cy="71" r="2" transform="rotate(-90 79.0625 71)" fill="#FC295E"/>
<circle opacity="0.3" cx="79.0625" cy="62" r="2" transform="rotate(-90 79.0625 62)" fill="#FC295E"/>
<circle opacity="0.3" cx="79.0625" cy="53" r="2" transform="rotate(-90 79.0625 53)" fill="#FC295E"/>
<circle opacity="0.3" cx="79.0625" cy="44" r="2" transform="rotate(-90 79.0625 44)" fill="#FC295E"/>
<circle opacity="0.3" cx="79.0625" cy="35" r="2" transform="rotate(-90 79.0625 35)" fill="#FC295E"/>
<circle opacity="0.3" cx="79.0625" cy="26" r="2" transform="rotate(-90 79.0625 26)" fill="#FC295E"/>
<circle opacity="0.3" cx="79.0625" cy="17" r="2" transform="rotate(-90 79.0625 17)" fill="#FC295E"/>
<circle opacity="0.3" cx="79.0625" cy="8" r="2" transform="rotate(-90 79.0625 8)" fill="#FC295E"/>
<circle opacity="0.3" cx="88.0625" cy="116" r="2" transform="rotate(-90 88.0625 116)" fill="#FC295E"/>
<circle opacity="0.3" cx="88.0625" cy="107" r="2" transform="rotate(-90 88.0625 107)" fill="#FC295E"/>
<circle opacity="0.3" cx="88.0625" cy="98" r="2" transform="rotate(-90 88.0625 98)" fill="#FC295E"/>
<circle opacity="0.3" cx="88.0625" cy="89" r="2" transform="rotate(-90 88.0625 89)" fill="#FC295E"/>
<circle opacity="0.3" cx="88.0625" cy="80" r="2" transform="rotate(-90 88.0625 80)" fill="#FC295E"/>
<circle opacity="0.3" cx="88.0625" cy="71" r="2" transform="rotate(-90 88.0625 71)" fill="#FC295E"/>
<circle opacity="0.3" cx="88.0625" cy="62" r="2" transform="rotate(-90 88.0625 62)" fill="#FC295E"/>
<circle opacity="0.3" cx="88.0625" cy="53" r="2" transform="rotate(-90 88.0625 53)" fill="#FC295E"/>
<circle opacity="0.3" cx="88.0625" cy="44" r="2" transform="rotate(-90 88.0625 44)" fill="#FC295E"/>
<circle opacity="0.3" cx="88.0625" cy="35" r="2" transform="rotate(-90 88.0625 35)" fill="#FC295E"/>
<circle opacity="0.3" cx="88.0625" cy="26" r="2" transform="rotate(-90 88.0625 26)" fill="#FC295E"/>
<circle opacity="0.3" cx="88.0625" cy="17" r="2" transform="rotate(-90 88.0625 17)" fill="#FC295E"/>
<circle opacity="0.3" cx="88.0625" cy="8" r="2" transform="rotate(-90 88.0625 8)" fill="#FC295E"/>
<circle opacity="0.3" cx="97.0625" cy="116" r="2" transform="rotate(-90 97.0625 116)" fill="#FC295E"/>
<circle opacity="0.3" cx="97.0625" cy="107" r="2" transform="rotate(-90 97.0625 107)" fill="#FC295E"/>
<circle opacity="0.3" cx="97.0625" cy="98" r="2" transform="rotate(-90 97.0625 98)" fill="#FC295E"/>
<circle opacity="0.3" cx="97.0625" cy="89" r="2" transform="rotate(-90 97.0625 89)" fill="#FC295E"/>
<circle opacity="0.3" cx="97.0625" cy="80" r="2" transform="rotate(-90 97.0625 80)" fill="#FC295E"/>
<circle opacity="0.3" cx="97.0625" cy="71" r="2" transform="rotate(-90 97.0625 71)" fill="#FC295E"/>
<circle opacity="0.3" cx="97.0625" cy="62" r="2" transform="rotate(-90 97.0625 62)" fill="#FC295E"/>
<circle opacity="0.3" cx="97.0625" cy="53" r="2" transform="rotate(-90 97.0625 53)" fill="#FC295E"/>
<circle opacity="0.3" cx="97.0625" cy="44" r="2" transform="rotate(-90 97.0625 44)" fill="#FC295E"/>
<circle opacity="0.3" cx="97.0625" cy="35" r="2" transform="rotate(-90 97.0625 35)" fill="#FC295E"/>
<circle opacity="0.3" cx="97.0625" cy="26" r="2" transform="rotate(-90 97.0625 26)" fill="#FC295E"/>
<circle opacity="0.3" cx="97.0625" cy="17" r="2" transform="rotate(-90 97.0625 17)" fill="#FC295E"/>
<circle opacity="0.3" cx="97.0625" cy="8" r="2" transform="rotate(-90 97.0625 8)" fill="#FC295E"/>
<circle opacity="0.3" cx="106.062" cy="116" r="2" transform="rotate(-90 106.062 116)" fill="#FC295E"/>
<circle opacity="0.3" cx="106.062" cy="107" r="2" transform="rotate(-90 106.062 107)" fill="#FC295E"/>
<circle opacity="0.3" cx="106.062" cy="98" r="2" transform="rotate(-90 106.062 98)" fill="#FC295E"/>
<circle opacity="0.3" cx="106.062" cy="89" r="2" transform="rotate(-90 106.062 89)" fill="#FC295E"/>
<circle opacity="0.3" cx="106.062" cy="80" r="2" transform="rotate(-90 106.062 80)" fill="#FC295E"/>
<circle opacity="0.3" cx="106.062" cy="71" r="2" transform="rotate(-90 106.062 71)" fill="#FC295E"/>
<circle opacity="0.3" cx="106.062" cy="62" r="2" transform="rotate(-90 106.062 62)" fill="#FC295E"/>
<circle opacity="0.3" cx="106.062" cy="53" r="2" transform="rotate(-90 106.062 53)" fill="#FC295E"/>
<circle opacity="0.3" cx="106.062" cy="44" r="2" transform="rotate(-90 106.062 44)" fill="#FC295E"/>
<circle opacity="0.3" cx="106.062" cy="35" r="2" transform="rotate(-90 106.062 35)" fill="#FC295E"/>
<circle opacity="0.3" cx="106.062" cy="26" r="2" transform="rotate(-90 106.062 26)" fill="#FC295E"/>
<circle opacity="0.3" cx="106.062" cy="17" r="2" transform="rotate(-90 106.062 17)" fill="#FC295E"/>
<circle opacity="0.3" cx="106.062" cy="8" r="2" transform="rotate(-90 106.062 8)" fill="#FC295E"/>
<circle opacity="0.3" cx="115.062" cy="116" r="2" transform="rotate(-90 115.062 116)" fill="#FC295E"/>
<circle opacity="0.3" cx="115.062" cy="107" r="2" transform="rotate(-90 115.062 107)" fill="#FC295E"/>
<circle opacity="0.3" cx="115.062" cy="98" r="2" transform="rotate(-90 115.062 98)" fill="#FC295E"/>
<circle opacity="0.3" cx="115.062" cy="89" r="2" transform="rotate(-90 115.062 89)" fill="#FC295E"/>
<circle opacity="0.3" cx="115.062" cy="80" r="2" transform="rotate(-90 115.062 80)" fill="#FC295E"/>
<circle opacity="0.3" cx="115.062" cy="71" r="2" transform="rotate(-90 115.062 71)" fill="#FC295E"/>
<circle opacity="0.3" cx="115.062" cy="62" r="2" transform="rotate(-90 115.062 62)" fill="#FC295E"/>
<circle opacity="0.3" cx="115.062" cy="53" r="2" transform="rotate(-90 115.062 53)" fill="#FC295E"/>
<circle opacity="0.3" cx="115.062" cy="44" r="2" transform="rotate(-90 115.062 44)" fill="#FC295E"/>
<circle opacity="0.3" cx="115.062" cy="35" r="2" transform="rotate(-90 115.062 35)" fill="#FC295E"/>
<circle opacity="0.3" cx="115.062" cy="26" r="2" transform="rotate(-90 115.062 26)" fill="#FC295E"/>
<circle opacity="0.3" cx="115.062" cy="17" r="2" transform="rotate(-90 115.062 17)" fill="#FC295E"/>
<circle opacity="0.3" cx="115.062" cy="8" r="2" transform="rotate(-90 115.062 8)" fill="#FC295E"/>
</g>
<g filter="url(#filter0_d)">
<rect x="20.9375" y="20" width="84" height="84" rx="16" fill="#FC295E"/>
</g>
<path d="M80.5132 56.3794C80.1684 56.0012 79.6803 55.7854 79.1683 55.7854H46.7569C46.2451 55.7854 45.7568 56.0012 45.412 56.3794C45.0673 56.7577 44.8979 57.2639 44.9454 57.7735L46.6747 76.3493C46.7618 77.2848 47.5467 78 48.4863 78H77.439C78.3785 78 79.1634 77.2846 79.2505 76.3493L80.9799 57.7735C81.0273 57.2639 80.858 56.7577 80.5132 56.3794ZM69.031 74.19C69.0297 74.1898 69.0286 74.1898 69.0274 74.19H56.898C55.8932 74.19 55.0786 73.3753 55.0786 72.3706C55.0786 69.8999 57.0887 67.8898 59.5594 67.8898H60.8652C59.5223 67.1479 58.6104 65.7175 58.6104 64.0778C58.6104 61.6781 60.5628 59.7255 62.9628 59.7255C65.3627 59.7255 67.3151 61.6779 67.3151 64.0778C67.3151 65.7175 66.4033 67.1479 65.0604 67.8898H66.3661C68.7865 67.8898 70.7647 69.8189 70.8444 72.2203C70.8484 72.2698 70.8506 72.32 70.8506 72.3706C70.8504 73.3755 70.0359 74.19 69.031 74.19ZM77.4875 52.3983C77.4875 53.152 76.8766 53.7628 76.123 53.7628H49.8024C49.0488 53.7628 48.4379 53.152 48.4379 52.3983C48.4379 51.6445 49.0488 51.0337 49.8024 51.0337H76.123C76.8766 51.0337 77.4875 51.6445 77.4875 52.3983ZM73.8851 47.3645C73.8851 48.1183 73.2742 48.7291 72.5206 48.7291H53.4048C52.6512 48.7291 52.0403 48.1183 52.0403 47.3645C52.0403 46.6108 52.6512 46 53.4048 46H72.5204C73.2742 46 73.8851 46.6108 73.8851 47.3645Z" fill="white"/>
<defs>
<filter id="filter0_d" x="0.9375" y="0" width="124" height="124" filterUnits="userSpaceOnUse" color-interpolation-filters="sRGB">
<feFlood flood-opacity="0" result="BackgroundImageFix"/>
<feColorMatrix in="SourceAlpha" type="matrix" values="0 0 0 0 0 0 0 0 0 0 0 0 0 0 0 0 0 0 127 0"/>
<feOffset/>
<feGaussianBlur stdDeviation="10"/>
<feColorMatrix type="matrix" values="0 0 0 0 0.988235 0 0 0 0 0.160784 0 0 0 0 0.368627 0 0 0 0.4 0"/>
<feBlend mode="normal" in2="BackgroundImageFix" result="effect1_dropShadow"/>
<feBlend mode="normal" in="SourceGraphic" in2="effect1_dropShadow" result="shape"/>
</filter>
</defs>
</svg>
