<svg width="124" height="124" viewBox="0 0 124 124" fill="none" xmlns="http://www.w3.org/2000/svg">
<g opacity="0.3">
<circle cx="53" cy="116" r="2" transform="rotate(-90 53 116)" fill="#FFDB47"/>
<circle cx="53" cy="107" r="2" transform="rotate(-90 53 107)" fill="#FFDB47"/>
<circle cx="53" cy="98" r="2" transform="rotate(-90 53 98)" fill="#FFDB47"/>
<circle cx="53" cy="89" r="2" transform="rotate(-90 53 89)" fill="#FFDB47"/>
<circle cx="53" cy="80" r="2" transform="rotate(-90 53 80)" fill="#FFDB47"/>
<circle cx="53" cy="71" r="2" transform="rotate(-90 53 71)" fill="#FFDB47"/>
<circle cx="53" cy="62" r="2" transform="rotate(-90 53 62)" fill="#FFDB47"/>
<circle cx="53" cy="53" r="2" transform="rotate(-90 53 53)" fill="#FFDB47"/>
<circle cx="53" cy="44" r="2" transform="rotate(-90 53 44)" fill="#FFDB47"/>
<circle cx="53" cy="35" r="2" transform="rotate(-90 53 35)" fill="#FFDB47"/>
<circle cx="53" cy="26" r="2" transform="rotate(-90 53 26)" fill="#FFDB47"/>
<circle cx="53" cy="17" r="2" transform="rotate(-90 53 17)" fill="#FFDB47"/>
<circle cx="53" cy="8" r="2" transform="rotate(-90 53 8)" fill="#FFDB47"/>
<circle cx="62" cy="116" r="2" transform="rotate(-90 62 116)" fill="#FFDB47"/>
<circle cx="62" cy="107" r="2" transform="rotate(-90 62 107)" fill="#FFDB47"/>
<circle cx="62" cy="98" r="2" transform="rotate(-90 62 98)" fill="#FFDB47"/>
<circle cx="62" cy="89" r="2" transform="rotate(-90 62 89)" fill="#FFDB47"/>
<circle cx="62" cy="80" r="2" transform="rotate(-90 62 80)" fill="#FFDB47"/>
<circle cx="62" cy="71" r="2" transform="rotate(-90 62 71)" fill="#FFDB47"/>
<circle cx="62" cy="62" r="2" transform="rotate(-90 62 62)" fill="#FFDB47"/>
<circle cx="62" cy="53" r="2" transform="rotate(-90 62 53)" fill="#FFDB47"/>
<circle cx="62" cy="44" r="2" transform="rotate(-90 62 44)" fill="#FFDB47"/>
<circle cx="62" cy="35" r="2" transform="rotate(-90 62 35)" fill="#FFDB47"/>
<circle cx="62" cy="26" r="2" transform="rotate(-90 62 26)" fill="#FFDB47"/>
<circle cx="62" cy="17" r="2" transform="rotate(-90 62 17)" fill="#FFDB47"/>
<circle cx="62" cy="8" r="2" transform="rotate(-90 62 8)" fill="#FFDB47"/>
<circle cx="71" cy="116" r="2" transform="rotate(-90 71 116)" fill="#FFDB47"/>
<circle cx="71" cy="107" r="2" transform="rotate(-90 71 107)" fill="#FFDB47"/>
<circle cx="71" cy="98" r="2" transform="rotate(-90 71 98)" fill="#FFDB47"/>
<circle cx="71" cy="89" r="2" transform="rotate(-90 71 89)" fill="#FFDB47"/>
<circle cx="71" cy="80" r="2" transform="rotate(-90 71 80)" fill="#FFDB47"/>
<circle cx="71" cy="71" r="2" transform="rotate(-90 71 71)" fill="#FFDB47"/>
<circle cx="71" cy="62" r="2" transform="rotate(-90 71 62)" fill="#FFDB47"/>
<circle cx="71" cy="53" r="2" transform="rotate(-90 71 53)" fill="#FFDB47"/>
<circle cx="71" cy="44" r="2" transform="rotate(-90 71 44)" fill="#FFDB47"/>
<circle cx="71" cy="35" r="2" transform="rotate(-90 71 35)" fill="#FFDB47"/>
<circle cx="71" cy="26" r="2" transform="rotate(-90 71 26)" fill="#FFDB47"/>
<circle cx="71" cy="17" r="2" transform="rotate(-90 71 17)" fill="#FFDB47"/>
<circle cx="71" cy="8" r="2" transform="rotate(-90 71 8)" fill="#FFDB47"/>
<circle cx="80" cy="116" r="2" transform="rotate(-90 80 116)" fill="#FFDB47"/>
<circle cx="80" cy="107" r="2" transform="rotate(-90 80 107)" fill="#FFDB47"/>
<circle cx="80" cy="98" r="2" transform="rotate(-90 80 98)" fill="#FFDB47"/>
<circle cx="80" cy="89" r="2" transform="rotate(-90 80 89)" fill="#FFDB47"/>
<circle cx="80" cy="80" r="2" transform="rotate(-90 80 80)" fill="#FFDB47"/>
<circle cx="80" cy="71" r="2" transform="rotate(-90 80 71)" fill="#FFDB47"/>
<circle cx="80" cy="62" r="2" transform="rotate(-90 80 62)" fill="#FFDB47"/>
<circle cx="80" cy="53" r="2" transform="rotate(-90 80 53)" fill="#FFDB47"/>
<circle cx="80" cy="44" r="2" transform="rotate(-90 80 44)" fill="#FFDB47"/>
<circle cx="80" cy="35" r="2" transform="rotate(-90 80 35)" fill="#FFDB47"/>
<circle cx="80" cy="26" r="2" transform="rotate(-90 80 26)" fill="#FFDB47"/>
<circle cx="80" cy="17" r="2" transform="rotate(-90 80 17)" fill="#FFDB47"/>
<circle cx="80" cy="8" r="2" transform="rotate(-90 80 8)" fill="#FFDB47"/>
<circle cx="89" cy="116" r="2" transform="rotate(-90 89 116)" fill="#FFDB47"/>
<circle cx="89" cy="107" r="2" transform="rotate(-90 89 107)" fill="#FFDB47"/>
<circle cx="89" cy="98" r="2" transform="rotate(-90 89 98)" fill="#FFDB47"/>
<circle cx="89" cy="89" r="2" transform="rotate(-90 89 89)" fill="#FFDB47"/>
<circle cx="89" cy="80" r="2" transform="rotate(-90 89 80)" fill="#FFDB47"/>
<circle cx="89" cy="71" r="2" transform="rotate(-90 89 71)" fill="#FFDB47"/>
<circle cx="89" cy="62" r="2" transform="rotate(-90 89 62)" fill="#FFDB47"/>
<circle cx="89" cy="53" r="2" transform="rotate(-90 89 53)" fill="#FFDB47"/>
<circle cx="89" cy="44" r="2" transform="rotate(-90 89 44)" fill="#FFDB47"/>
<circle cx="89" cy="35" r="2" transform="rotate(-90 89 35)" fill="#FFDB47"/>
<circle cx="89" cy="26" r="2" transform="rotate(-90 89 26)" fill="#FFDB47"/>
<circle cx="89" cy="17" r="2" transform="rotate(-90 89 17)" fill="#FFDB47"/>
<circle cx="89" cy="8" r="2" transform="rotate(-90 89 8)" fill="#FFDB47"/>
<circle cx="98" cy="116" r="2" transform="rotate(-90 98 116)" fill="#FFDB47"/>
<circle cx="98" cy="107" r="2" transform="rotate(-90 98 107)" fill="#FFDB47"/>
<circle cx="98" cy="98" r="2" transform="rotate(-90 98 98)" fill="#FFDB47"/>
<circle cx="98" cy="89" r="2" transform="rotate(-90 98 89)" fill="#FFDB47"/>
<circle cx="98" cy="80" r="2" transform="rotate(-90 98 80)" fill="#FFDB47"/>
<circle cx="98" cy="71" r="2" transform="rotate(-90 98 71)" fill="#FFDB47"/>
<circle cx="98" cy="62" r="2" transform="rotate(-90 98 62)" fill="#FFDB47"/>
<circle cx="98" cy="53" r="2" transform="rotate(-90 98 53)" fill="#FFDB47"/>
<circle cx="98" cy="44" r="2" transform="rotate(-90 98 44)" fill="#FFDB47"/>
<circle cx="98" cy="35" r="2" transform="rotate(-90 98 35)" fill="#FFDB47"/>
<circle cx="98" cy="26" r="2" transform="rotate(-90 98 26)" fill="#FFDB47"/>
<circle cx="98" cy="17" r="2" transform="rotate(-90 98 17)" fill="#FFDB47"/>
<circle cx="98" cy="8" r="2" transform="rotate(-90 98 8)" fill="#FFDB47"/>
<circle cx="107" cy="116" r="2" transform="rotate(-90 107 116)" fill="#FFDB47"/>
<circle cx="107" cy="107" r="2" transform="rotate(-90 107 107)" fill="#FFDB47"/>
<circle cx="107" cy="98" r="2" transform="rotate(-90 107 98)" fill="#FFDB47"/>
<circle cx="107" cy="89" r="2" transform="rotate(-90 107 89)" fill="#FFDB47"/>
<circle cx="107" cy="80" r="2" transform="rotate(-90 107 80)" fill="#FFDB47"/>
<circle cx="107" cy="71" r="2" transform="rotate(-90 107 71)" fill="#FFDB47"/>
<circle cx="107" cy="62" r="2" transform="rotate(-90 107 62)" fill="#FFDB47"/>
<circle cx="107" cy="53" r="2" transform="rotate(-90 107 53)" fill="#FFDB47"/>
<circle cx="107" cy="44" r="2" transform="rotate(-90 107 44)" fill="#FFDB47"/>
<circle cx="107" cy="35" r="2" transform="rotate(-90 107 35)" fill="#FFDB47"/>
<circle cx="107" cy="26" r="2" transform="rotate(-90 107 26)" fill="#FFDB47"/>
<circle cx="107" cy="17" r="2" transform="rotate(-90 107 17)" fill="#FFDB47"/>
<circle cx="107" cy="8" r="2" transform="rotate(-90 107 8)" fill="#FFDB47"/>
<circle cx="116" cy="116" r="2" transform="rotate(-90 116 116)" fill="#FFDB47"/>
<circle cx="116" cy="107" r="2" transform="rotate(-90 116 107)" fill="#FFDB47"/>
<circle cx="116" cy="98" r="2" transform="rotate(-90 116 98)" fill="#FFDB47"/>
<circle cx="116" cy="89" r="2" transform="rotate(-90 116 89)" fill="#FFDB47"/>
<circle cx="116" cy="80" r="2" transform="rotate(-90 116 80)" fill="#FFDB47"/>
<circle cx="116" cy="71" r="2" transform="rotate(-90 116 71)" fill="#FFDB47"/>
<circle cx="116" cy="62" r="2" transform="rotate(-90 116 62)" fill="#FFDB47"/>
<circle cx="116" cy="53" r="2" transform="rotate(-90 116 53)" fill="#FFDB47"/>
<circle cx="116" cy="44" r="2" transform="rotate(-90 116 44)" fill="#FFDB47"/>
<circle cx="116" cy="35" r="2" transform="rotate(-90 116 35)" fill="#FFDB47"/>
<circle cx="116" cy="26" r="2" transform="rotate(-90 116 26)" fill="#FFDB47"/>
<circle cx="116" cy="17" r="2" transform="rotate(-90 116 17)" fill="#FFDB47"/>
<circle cx="116" cy="8" r="2" transform="rotate(-90 116 8)" fill="#FFDB47"/>
</g>
<g filter="url(#filter0_d)">
<rect x="20" y="20" width="84" height="84" rx="16" fill="#FFDB47"/>
</g>
<path d="M51.3509 54.618C51.3509 50.0594 55.0595 46.3508 59.6181 46.3508C64.1766 46.3508 67.8852 50.0594 67.8852 54.618C67.8852 55.3946 67.7769 56.164 67.5634 56.9048L69.8223 57.5561C70.0969 56.6036 70.2361 55.6151 70.2361 54.6181C70.2361 48.7632 65.4729 44 59.6181 44C53.7632 44 49 48.7632 49 54.6181C49 57.2167 49.9526 59.7194 51.6823 61.6653L53.4394 60.1034C52.0926 58.5883 51.3509 56.6402 51.3509 54.618Z" fill="white"/>
<path d="M66.2667 55.4355C66.3009 55.1568 66.3181 54.8817 66.3181 54.618C66.3181 50.9236 63.3125 47.918 59.6182 47.918C55.9238 47.918 52.9182 50.9236 52.9182 54.618C52.9182 56.1268 53.4112 57.5533 54.3439 58.7435L56.1942 57.2935C55.5889 56.5212 55.269 55.5959 55.269 54.618C55.269 52.2199 57.22 50.2689 59.6181 50.2689C62.0162 50.2689 63.9672 52.2199 63.9672 54.618C63.9672 54.789 63.9561 54.9629 63.9332 55.1498L66.2667 55.4355Z" fill="white"/>
<path d="M73.9584 61.7059C72.8548 61.7059 71.9602 62.6006 71.9602 63.7041H71.1766V61.5512C71.1766 60.4477 70.2819 59.553 69.1783 59.553C68.0748 59.553 67.1801 60.4477 67.1801 61.5512V63.7041H66.3965V59.5849C66.3965 58.4813 65.5018 57.5867 64.3982 57.5867C63.2947 57.5867 62.4 58.4813 62.4 59.5849V63.7041H61.6164V54.618C61.6164 53.5144 60.7217 52.6198 59.6182 52.6198C58.5146 52.6198 57.6199 53.5144 57.6199 54.618V69.4126H56.8363V64.5878C56.8363 63.4842 55.9416 62.5895 54.8381 62.5895C53.7345 62.5895 52.8398 63.4842 52.8398 64.5878V71.9421C52.8398 76.3852 56.4546 80 60.8977 80H67.8988C72.3419 80 75.9566 76.3852 75.9566 71.9421V63.7041C75.9566 62.6006 75.062 61.7059 73.9584 61.7059Z" fill="white"/>
<defs>
<filter id="filter0_d" x="0" y="0" width="124" height="124" filterUnits="userSpaceOnUse" color-interpolation-filters="sRGB">
<feFlood flood-opacity="0" result="BackgroundImageFix"/>
<feColorMatrix in="SourceAlpha" type="matrix" values="0 0 0 0 0 0 0 0 0 0 0 0 0 0 0 0 0 0 127 0"/>
<feOffset/>
<feGaussianBlur stdDeviation="10"/>
<feColorMatrix type="matrix" values="0 0 0 0 1 0 0 0 0 0.858824 0 0 0 0 0.278431 0 0 0 0.4 0"/>
<feBlend mode="normal" in2="BackgroundImageFix" result="effect1_dropShadow"/>
<feBlend mode="normal" in="SourceGraphic" in2="effect1_dropShadow" result="shape"/>
</filter>
</defs>
</svg>
