<svg width="62" height="62" viewBox="0 0 62 62" fill="none" xmlns="http://www.w3.org/2000/svg">
<path d="M59.8001 0.600006H2.2001C1.31644 0.600006 0.600098 1.31635 0.600098 2.20001V59.8C0.600098 60.6837 1.31644 61.4 2.2001 61.4H59.8001C60.6838 61.4 61.4001 60.6837 61.4001 59.8V2.20001C61.4001 1.31635 60.6838 0.600006 59.8001 0.600006Z" fill="white"/>
<path fill-rule="evenodd" clip-rule="evenodd" d="M44.824 31.3273C44.824 30.3062 44.7324 29.3244 44.5622 28.3818H31V33.952H38.7498C38.416 35.752 37.4015 37.2771 35.8764 38.2982V41.9113H40.5302C43.2531 39.4044 44.824 35.7127 44.824 31.3273Z" fill="#4285F4"/>
<path fill-rule="evenodd" clip-rule="evenodd" d="M31 45.4C34.888 45.4 38.1476 44.1105 40.5301 41.9113L35.8763 38.2982C34.5869 39.1622 32.9374 39.6727 31 39.6727C27.2494 39.6727 24.0749 37.1396 22.9425 33.736H18.1316V37.4669C20.501 42.1731 25.3709 45.4 31 45.4Z" fill="#34A853"/>
<path fill-rule="evenodd" clip-rule="evenodd" d="M22.9426 33.736C22.6546 32.872 22.491 31.9491 22.491 31C22.491 30.0509 22.6546 29.128 22.9426 28.264V24.5331H18.1317C17.1565 26.4771 16.6001 28.6764 16.6001 31C16.6001 33.3236 17.1565 35.5229 18.1317 37.4669L22.9426 33.736Z" fill="#FBBC05"/>
<path fill-rule="evenodd" clip-rule="evenodd" d="M31 22.3273C33.1141 22.3273 35.0123 23.0538 36.5047 24.4807L40.6349 20.3506C38.141 18.0269 34.8814 16.6 31 16.6C25.3709 16.6 20.501 19.8269 18.1316 24.5331L22.9425 28.264C24.0749 24.8604 27.2494 22.3273 31 22.3273Z" fill="#EA4335"/>
</svg>
