<svg width="157" height="333" viewBox="0 0 157 333" fill="none" xmlns="http://www.w3.org/2000/svg">
<path opacity="0.1" fill-rule="evenodd" clip-rule="evenodd" d="M-124.531 229.462C-137.854 202.256 -141.329 172.356 -139.692 142.116C-137.63 104.036 -140.288 61.0416 -113.924 33.5595C-86.6866 5.16839 -43.0295 1.65384 -3.71484 0.377495C35.538 -0.896826 78.8119 0.321532 108.3 26.3452C136.788 51.4852 136.747 94.2864 144.793 131.436C151.647 163.08 163.082 195.723 151.532 225.94C140.384 255.106 109.909 269.732 84.8397 288.29C60.5586 306.265 38.2889 332.119 8.07626 332.137C-21.9005 332.155 -44.3304 306.757 -68.0627 288.381C-90.1059 271.314 -112.262 254.514 -124.531 229.462Z" fill="#5858E0"/>
</svg>
