<svg xmlns="http://www.w3.org/2000/svg" xmlns:xlink="http://www.w3.org/1999/xlink" width="30.209" height="30.209" viewBox="0 0 30.209 30.209"><defs><style>.a{fill:none;}.b{fill:url(#a);}.c{fill:url(#b);}.d{fill:url(#c);}</style><linearGradient id="a" x1="0.092" y1="0.908" x2="0.908" y2="0.092" gradientUnits="objectBoundingBox"><stop offset="0" stop-color="#ffc107"/><stop offset="0.507" stop-color="#f44336"/><stop offset="0.99" stop-color="#9c27b0"/></linearGradient><linearGradient id="b" x1="0.146" y1="0.854" x2="0.854" y2="0.146" xlink:href="#a"/><linearGradient id="c" x1="0.146" y1="0.854" x2="0.854" y2="0.146" xlink:href="#a"/></defs><path class="a" d="M0,0H30.209V30.209H0Z" transform="translate(0 0)"/><g transform="translate(1.678 1.678)"><path class="b" d="M19.038,0H8.654A8.654,8.654,0,0,0,0,8.654V19.038a8.654,8.654,0,0,0,8.654,8.654H19.038a8.654,8.654,0,0,0,8.654-8.654V8.654A8.654,8.654,0,0,0,19.038,0ZM25.1,19.038A6.064,6.064,0,0,1,19.038,25.1H8.654A6.064,6.064,0,0,1,2.6,19.038V8.654A6.064,6.064,0,0,1,8.654,2.6H19.038A6.064,6.064,0,0,1,25.1,8.654Z"/><path class="c" d="M10.923,4a6.923,6.923,0,1,0,6.923,6.923A6.923,6.923,0,0,0,10.923,4Zm0,11.25a4.327,4.327,0,1,1,4.327-4.327A4.332,4.332,0,0,1,10.923,15.25Z" transform="translate(2.923 2.923)"/><circle class="d" cx="0.922" cy="0.922" r="0.922" transform="translate(20.365 5.481)"/></g></svg>