<svg width="124" height="124" viewBox="0 0 124 124" fill="none" xmlns="http://www.w3.org/2000/svg">
<g opacity="0.3">
<circle cx="53" cy="116" r="2" transform="rotate(-90 53 116)" fill="#FFDB47"/>
<circle cx="53" cy="107" r="2" transform="rotate(-90 53 107)" fill="#FFDB47"/>
<circle cx="53" cy="98" r="2" transform="rotate(-90 53 98)" fill="#FFDB47"/>
<circle cx="53" cy="89" r="2" transform="rotate(-90 53 89)" fill="#FFDB47"/>
<circle cx="53" cy="80" r="2" transform="rotate(-90 53 80)" fill="#FFDB47"/>
<circle cx="53" cy="71" r="2" transform="rotate(-90 53 71)" fill="#FFDB47"/>
<circle cx="53" cy="62" r="2" transform="rotate(-90 53 62)" fill="#FFDB47"/>
<circle cx="53" cy="53" r="2" transform="rotate(-90 53 53)" fill="#FFDB47"/>
<circle cx="53" cy="44" r="2" transform="rotate(-90 53 44)" fill="#FFDB47"/>
<circle cx="53" cy="35" r="2" transform="rotate(-90 53 35)" fill="#FFDB47"/>
<circle cx="53" cy="26" r="2" transform="rotate(-90 53 26)" fill="#FFDB47"/>
<circle cx="53" cy="17" r="2" transform="rotate(-90 53 17)" fill="#FFDB47"/>
<circle cx="53" cy="8" r="2" transform="rotate(-90 53 8)" fill="#FFDB47"/>
<circle cx="62" cy="116" r="2" transform="rotate(-90 62 116)" fill="#FFDB47"/>
<circle cx="62" cy="107" r="2" transform="rotate(-90 62 107)" fill="#FFDB47"/>
<circle cx="62" cy="98" r="2" transform="rotate(-90 62 98)" fill="#FFDB47"/>
<circle cx="62" cy="89" r="2" transform="rotate(-90 62 89)" fill="#FFDB47"/>
<circle cx="62" cy="80" r="2" transform="rotate(-90 62 80)" fill="#FFDB47"/>
<circle cx="62" cy="71" r="2" transform="rotate(-90 62 71)" fill="#FFDB47"/>
<circle cx="62" cy="62" r="2" transform="rotate(-90 62 62)" fill="#FFDB47"/>
<circle cx="62" cy="53" r="2" transform="rotate(-90 62 53)" fill="#FFDB47"/>
<circle cx="62" cy="44" r="2" transform="rotate(-90 62 44)" fill="#FFDB47"/>
<circle cx="62" cy="35" r="2" transform="rotate(-90 62 35)" fill="#FFDB47"/>
<circle cx="62" cy="26" r="2" transform="rotate(-90 62 26)" fill="#FFDB47"/>
<circle cx="62" cy="17" r="2" transform="rotate(-90 62 17)" fill="#FFDB47"/>
<circle cx="62" cy="8" r="2" transform="rotate(-90 62 8)" fill="#FFDB47"/>
<circle cx="71" cy="116" r="2" transform="rotate(-90 71 116)" fill="#FFDB47"/>
<circle cx="71" cy="107" r="2" transform="rotate(-90 71 107)" fill="#FFDB47"/>
<circle cx="71" cy="98" r="2" transform="rotate(-90 71 98)" fill="#FFDB47"/>
<circle cx="71" cy="89" r="2" transform="rotate(-90 71 89)" fill="#FFDB47"/>
<circle cx="71" cy="80" r="2" transform="rotate(-90 71 80)" fill="#FFDB47"/>
<circle cx="71" cy="71" r="2" transform="rotate(-90 71 71)" fill="#FFDB47"/>
<circle cx="71" cy="62" r="2" transform="rotate(-90 71 62)" fill="#FFDB47"/>
<circle cx="71" cy="53" r="2" transform="rotate(-90 71 53)" fill="#FFDB47"/>
<circle cx="71" cy="44" r="2" transform="rotate(-90 71 44)" fill="#FFDB47"/>
<circle cx="71" cy="35" r="2" transform="rotate(-90 71 35)" fill="#FFDB47"/>
<circle cx="71" cy="26" r="2" transform="rotate(-90 71 26)" fill="#FFDB47"/>
<circle cx="71" cy="17" r="2" transform="rotate(-90 71 17)" fill="#FFDB47"/>
<circle cx="71" cy="8" r="2" transform="rotate(-90 71 8)" fill="#FFDB47"/>
<circle cx="80" cy="116" r="2" transform="rotate(-90 80 116)" fill="#FFDB47"/>
<circle cx="80" cy="107" r="2" transform="rotate(-90 80 107)" fill="#FFDB47"/>
<circle cx="80" cy="98" r="2" transform="rotate(-90 80 98)" fill="#FFDB47"/>
<circle cx="80" cy="89" r="2" transform="rotate(-90 80 89)" fill="#FFDB47"/>
<circle cx="80" cy="80" r="2" transform="rotate(-90 80 80)" fill="#FFDB47"/>
<circle cx="80" cy="71" r="2" transform="rotate(-90 80 71)" fill="#FFDB47"/>
<circle cx="80" cy="62" r="2" transform="rotate(-90 80 62)" fill="#FFDB47"/>
<circle cx="80" cy="53" r="2" transform="rotate(-90 80 53)" fill="#FFDB47"/>
<circle cx="80" cy="44" r="2" transform="rotate(-90 80 44)" fill="#FFDB47"/>
<circle cx="80" cy="35" r="2" transform="rotate(-90 80 35)" fill="#FFDB47"/>
<circle cx="80" cy="26" r="2" transform="rotate(-90 80 26)" fill="#FFDB47"/>
<circle cx="80" cy="17" r="2" transform="rotate(-90 80 17)" fill="#FFDB47"/>
<circle cx="80" cy="8" r="2" transform="rotate(-90 80 8)" fill="#FFDB47"/>
<circle cx="89" cy="116" r="2" transform="rotate(-90 89 116)" fill="#FFDB47"/>
<circle cx="89" cy="107" r="2" transform="rotate(-90 89 107)" fill="#FFDB47"/>
<circle cx="89" cy="98" r="2" transform="rotate(-90 89 98)" fill="#FFDB47"/>
<circle cx="89" cy="89" r="2" transform="rotate(-90 89 89)" fill="#FFDB47"/>
<circle cx="89" cy="80" r="2" transform="rotate(-90 89 80)" fill="#FFDB47"/>
<circle cx="89" cy="71" r="2" transform="rotate(-90 89 71)" fill="#FFDB47"/>
<circle cx="89" cy="62" r="2" transform="rotate(-90 89 62)" fill="#FFDB47"/>
<circle cx="89" cy="53" r="2" transform="rotate(-90 89 53)" fill="#FFDB47"/>
<circle cx="89" cy="44" r="2" transform="rotate(-90 89 44)" fill="#FFDB47"/>
<circle cx="89" cy="35" r="2" transform="rotate(-90 89 35)" fill="#FFDB47"/>
<circle cx="89" cy="26" r="2" transform="rotate(-90 89 26)" fill="#FFDB47"/>
<circle cx="89" cy="17" r="2" transform="rotate(-90 89 17)" fill="#FFDB47"/>
<circle cx="89" cy="8" r="2" transform="rotate(-90 89 8)" fill="#FFDB47"/>
<circle cx="98" cy="116" r="2" transform="rotate(-90 98 116)" fill="#FFDB47"/>
<circle cx="98" cy="107" r="2" transform="rotate(-90 98 107)" fill="#FFDB47"/>
<circle cx="98" cy="98" r="2" transform="rotate(-90 98 98)" fill="#FFDB47"/>
<circle cx="98" cy="89" r="2" transform="rotate(-90 98 89)" fill="#FFDB47"/>
<circle cx="98" cy="80" r="2" transform="rotate(-90 98 80)" fill="#FFDB47"/>
<circle cx="98" cy="71" r="2" transform="rotate(-90 98 71)" fill="#FFDB47"/>
<circle cx="98" cy="62" r="2" transform="rotate(-90 98 62)" fill="#FFDB47"/>
<circle cx="98" cy="53" r="2" transform="rotate(-90 98 53)" fill="#FFDB47"/>
<circle cx="98" cy="44" r="2" transform="rotate(-90 98 44)" fill="#FFDB47"/>
<circle cx="98" cy="35" r="2" transform="rotate(-90 98 35)" fill="#FFDB47"/>
<circle cx="98" cy="26" r="2" transform="rotate(-90 98 26)" fill="#FFDB47"/>
<circle cx="98" cy="17" r="2" transform="rotate(-90 98 17)" fill="#FFDB47"/>
<circle cx="98" cy="8" r="2" transform="rotate(-90 98 8)" fill="#FFDB47"/>
<circle cx="107" cy="116" r="2" transform="rotate(-90 107 116)" fill="#FFDB47"/>
<circle cx="107" cy="107" r="2" transform="rotate(-90 107 107)" fill="#FFDB47"/>
<circle cx="107" cy="98" r="2" transform="rotate(-90 107 98)" fill="#FFDB47"/>
<circle cx="107" cy="89" r="2" transform="rotate(-90 107 89)" fill="#FFDB47"/>
<circle cx="107" cy="80" r="2" transform="rotate(-90 107 80)" fill="#FFDB47"/>
<circle cx="107" cy="71" r="2" transform="rotate(-90 107 71)" fill="#FFDB47"/>
<circle cx="107" cy="62" r="2" transform="rotate(-90 107 62)" fill="#FFDB47"/>
<circle cx="107" cy="53" r="2" transform="rotate(-90 107 53)" fill="#FFDB47"/>
<circle cx="107" cy="44" r="2" transform="rotate(-90 107 44)" fill="#FFDB47"/>
<circle cx="107" cy="35" r="2" transform="rotate(-90 107 35)" fill="#FFDB47"/>
<circle cx="107" cy="26" r="2" transform="rotate(-90 107 26)" fill="#FFDB47"/>
<circle cx="107" cy="17" r="2" transform="rotate(-90 107 17)" fill="#FFDB47"/>
<circle cx="107" cy="8" r="2" transform="rotate(-90 107 8)" fill="#FFDB47"/>
<circle cx="116" cy="116" r="2" transform="rotate(-90 116 116)" fill="#FFDB47"/>
<circle cx="116" cy="107" r="2" transform="rotate(-90 116 107)" fill="#FFDB47"/>
<circle cx="116" cy="98" r="2" transform="rotate(-90 116 98)" fill="#FFDB47"/>
<circle cx="116" cy="89" r="2" transform="rotate(-90 116 89)" fill="#FFDB47"/>
<circle cx="116" cy="80" r="2" transform="rotate(-90 116 80)" fill="#FFDB47"/>
<circle cx="116" cy="71" r="2" transform="rotate(-90 116 71)" fill="#FFDB47"/>
<circle cx="116" cy="62" r="2" transform="rotate(-90 116 62)" fill="#FFDB47"/>
<circle cx="116" cy="53" r="2" transform="rotate(-90 116 53)" fill="#FFDB47"/>
<circle cx="116" cy="44" r="2" transform="rotate(-90 116 44)" fill="#FFDB47"/>
<circle cx="116" cy="35" r="2" transform="rotate(-90 116 35)" fill="#FFDB47"/>
<circle cx="116" cy="26" r="2" transform="rotate(-90 116 26)" fill="#FFDB47"/>
<circle cx="116" cy="17" r="2" transform="rotate(-90 116 17)" fill="#FFDB47"/>
<circle cx="116" cy="8" r="2" transform="rotate(-90 116 8)" fill="#FFDB47"/>
</g>
<g filter="url(#filter0_d)">
<rect x="20" y="20" width="84" height="84" rx="16" fill="#FFDB47"/>
</g>
<path d="M44 57.5V75.5C44 76.7426 45.0073 77.75 46.25 77.75H53V55.25H46.25C45.0073 55.25 44 56.2573 44 57.5Z" fill="white"/>
<path d="M75.845 57.4995H69.1983C68.6171 57.4995 68.3259 57.1117 68.2282 56.9447C68.1304 56.7788 67.9326 56.3361 68.2139 55.8285L70.5573 51.6087C71.0714 50.6847 71.1242 49.5982 70.7034 48.6281C70.2826 47.6569 69.452 46.9527 68.4248 46.6967L66.7725 46.2836C66.3704 46.1825 65.9441 46.3111 65.6639 46.622L56.6925 56.5888C55.762 57.6248 55.25 58.9607 55.25 60.3516V72.1245C55.25 75.226 57.7736 77.7495 60.875 77.7495L72.0668 77.7484C74.5936 77.7484 76.825 76.0466 77.4918 73.611L79.8934 62.5895C79.9637 62.283 80 61.9688 80 61.6545C80 59.3639 78.1356 57.4995 75.845 57.4995L75.845 57.4995Z" fill="white"/>
<defs>
<filter id="filter0_d" x="0" y="0" width="124" height="124" filterUnits="userSpaceOnUse" color-interpolation-filters="sRGB">
<feFlood flood-opacity="0" result="BackgroundImageFix"/>
<feColorMatrix in="SourceAlpha" type="matrix" values="0 0 0 0 0 0 0 0 0 0 0 0 0 0 0 0 0 0 127 0"/>
<feOffset/>
<feGaussianBlur stdDeviation="10"/>
<feColorMatrix type="matrix" values="0 0 0 0 1 0 0 0 0 0.858824 0 0 0 0 0.278431 0 0 0 0.4 0"/>
<feBlend mode="normal" in2="BackgroundImageFix" result="effect1_dropShadow"/>
<feBlend mode="normal" in="SourceGraphic" in2="effect1_dropShadow" result="shape"/>
</filter>
</defs>
</svg>
