<svg width="30" height="30" viewBox="0 0 30 30" fill="none" xmlns="http://www.w3.org/2000/svg">
<path d="M15.0111 12.2162C13.4772 12.2162 12.2088 13.4551 12.2088 14.9889C12.2088 16.5227 13.4477 17.7911 15.0111 17.7911C16.5744 17.7911 17.8133 16.5522 17.8133 14.9889C17.8133 13.4256 16.5449 12.2162 15.0111 12.2162ZM15.0111 16.7292C14.0672 16.7292 13.3002 15.9623 13.3002 15.0184C13.3002 14.0745 14.0672 13.3076 15.0111 13.3076C15.955 13.3076 16.7219 14.0745 16.7219 15.0184C16.7514 15.9623 15.955 16.7292 15.0111 16.7292Z" fill="#334D6E" stroke="#334D6E" stroke-width="0.2"/>
<path d="M21.1759 18.7056L19.9076 17.1717C19.9371 17.1127 19.9666 17.0537 19.9961 16.9947L21.9723 16.7883C22.2378 16.7588 22.4443 16.5228 22.4443 16.2573V13.8091C22.4443 13.5436 22.2378 13.3076 21.9723 13.2781L19.9961 13.0716C19.9666 13.0126 19.9371 12.9537 19.9076 12.8947L21.1759 11.3608C21.3529 11.1543 21.3234 10.8299 21.1464 10.6529L19.4061 8.91257C19.1996 8.70609 18.9047 8.70609 18.6982 8.88307L17.1643 10.1514C17.1053 10.1219 17.0464 10.0924 16.9874 10.063L16.7809 8.05716C16.7514 7.79168 16.5154 7.58521 16.2499 7.58521H13.8017C13.5362 7.58521 13.3002 7.79168 13.2707 8.05716L13.0643 10.0335C13.0053 10.063 12.9463 10.0924 12.8873 10.1219L11.3534 8.85358C11.147 8.67659 10.8225 8.70609 10.6455 8.88307L8.90519 10.6234C8.69871 10.8299 8.69871 11.1248 8.87569 11.3313L10.1441 12.8652C10.1146 12.9242 10.0851 12.9832 10.0556 13.0421L8.04978 13.2486C7.78431 13.2781 7.57783 13.5141 7.57783 13.7796V16.2278C7.57783 16.4933 7.78431 16.7293 8.04978 16.7588L10.0261 16.9652C10.0556 17.0242 10.0851 17.0832 10.1146 17.1422L8.8462 18.6761C8.66922 18.8825 8.69871 19.207 8.87569 19.384L10.616 21.1243C10.8225 21.3308 11.1175 21.3308 11.3239 21.1538L12.8578 19.8854C12.9168 19.9149 12.9758 19.9444 13.0348 19.9739L13.2412 21.9502C13.2707 22.2157 13.5067 22.4222 13.7722 22.4222H16.2204C16.4859 22.4222 16.7219 22.2157 16.7514 21.9502L16.9579 19.9739C17.0169 19.9444 17.0759 19.9149 17.1348 19.8854L18.6687 21.1538C18.8752 21.3308 19.1996 21.3013 19.3766 21.1243L21.1169 19.384C21.3529 19.207 21.3529 18.912 21.1759 18.7056ZM18.9932 20.0624L17.5773 18.912C17.4003 18.7646 17.1938 18.7646 16.9874 18.853C16.7514 18.971 16.5449 19.0595 16.3089 19.148C16.1025 19.207 15.955 19.384 15.955 19.5905L15.778 21.4193H14.2736L14.0967 19.5905C14.0672 19.384 13.9197 19.207 13.7427 19.148C13.5067 19.089 13.3002 18.971 13.0643 18.853C12.8873 18.7646 12.6513 18.7646 12.4743 18.912L11.0585 20.0624L9.99658 19.0005L11.147 17.5847C11.2944 17.4077 11.2944 17.2012 11.206 16.9947C11.088 16.7588 10.9995 16.5523 10.911 16.3163C10.852 16.1098 10.675 15.9623 10.4685 15.9623L8.63972 15.7854V14.281L10.4685 14.104C10.675 14.0745 10.852 13.9271 10.911 13.7501C10.97 13.5141 11.088 13.3076 11.206 13.0716C11.2944 12.8947 11.2944 12.6587 11.147 12.4817L9.99658 11.0658L11.0585 10.004L12.4743 11.1543C12.6513 11.3018 12.8578 11.3018 13.0643 11.2133C13.3002 11.0953 13.5067 11.0069 13.7427 10.9479C13.9492 10.8889 14.0967 10.7119 14.0967 10.5054L14.2736 8.67659H15.778L15.955 10.5054C15.9845 10.7119 16.1319 10.8889 16.3089 10.9479C16.5449 11.0069 16.7514 11.1248 16.9874 11.2133C17.1643 11.3018 17.4003 11.3018 17.5773 11.1543L18.9932 10.004L20.055 11.0658L18.9047 12.4817C18.7572 12.6587 18.7572 12.8652 18.8457 13.0716C18.9637 13.3076 19.0521 13.5141 19.1111 13.7501C19.1701 13.9566 19.3471 14.104 19.5536 14.104L21.3824 14.281V15.7854L19.5536 15.9623C19.3471 15.9918 19.1701 16.1393 19.1111 16.3163C19.0521 16.5523 18.9342 16.7588 18.8162 16.9947C18.7277 17.1717 18.7572 17.4077 18.8752 17.5847L20.0255 19.0005L18.9932 20.0624Z" fill="#334D6E" stroke="#334D6E" stroke-width="0.2"/>
<path d="M13.9197 3.39663L14.4801 2.83619V5.78588C14.4801 6.08085 14.7161 6.31683 15.0111 6.31683C15.306 6.31683 15.542 6.08085 15.542 5.78588V2.83619L16.1024 3.39663C16.2204 3.51462 16.3384 3.54411 16.4859 3.54411C16.6334 3.54411 16.7514 3.48512 16.8694 3.39663C17.0758 3.19015 17.0758 2.83619 16.8694 2.62971L15.3945 1.15486C15.188 0.94838 14.8636 0.94838 14.6571 1.15486L13.1822 2.62971C12.9758 2.83619 12.9758 3.16065 13.1822 3.36713C13.3887 3.57361 13.7132 3.60311 13.9197 3.39663Z" fill="#334D6E" stroke="#334D6E" stroke-width="0.2"/>
<path d="M5.48354 8.08664C5.77851 8.08664 6.01448 7.85066 6.01448 7.55569V6.75928L8.10877 8.85356C8.22675 8.97155 8.34474 9.00105 8.49223 9.00105C8.63971 9.00105 8.7577 8.94205 8.87569 8.85356C9.08217 8.64708 9.08217 8.32262 8.87569 8.11614L6.75191 6.02185H7.54832C7.84329 6.02185 8.07927 5.78588 8.07927 5.49091C8.07927 5.19594 7.84329 4.95996 7.54832 4.95996H5.48354C5.18857 4.95996 4.95259 5.19594 4.95259 5.49091V7.55569C4.95259 7.85066 5.18857 8.08664 5.48354 8.08664Z" fill="#334D6E" stroke="#334D6E" stroke-width="0.2"/>
<path d="M2.79932 15.5494H5.74901C6.04398 15.5494 6.27996 15.3134 6.27996 15.0185C6.27996 14.7235 6.04398 14.4875 5.74901 14.4875H2.79932L3.35976 13.9271C3.56624 13.7206 3.56624 13.3961 3.35976 13.1896C3.18278 12.9537 2.82881 12.9537 2.62233 13.1601L1.14748 14.635C1.05899 14.7235 1 14.871 1 15.0185C1 15.1659 1.05899 15.2839 1.14748 15.4019L2.62233 16.8768C2.74032 16.9948 2.85831 17.0242 3.00579 17.0242C3.15328 17.0242 3.27127 16.9653 3.38925 16.8768C3.59573 16.6703 3.59573 16.3458 3.38925 16.1393L2.79932 15.5494Z" fill="#334D6E" stroke="#334D6E" stroke-width="0.2"/>
<path d="M8.10877 21.1833L6.01448 23.2776V22.4812C6.01448 22.1862 5.77851 21.9502 5.48354 21.9502C5.18857 21.9502 4.95259 22.1862 4.95259 22.4812V24.546C4.95259 24.8409 5.18857 25.0769 5.48354 25.0769H7.54832C7.84329 25.0769 8.07927 24.8409 8.07927 24.546C8.07927 24.251 7.84329 24.015 7.54832 24.015H6.75191L8.84619 21.9207C9.05267 21.7142 9.05267 21.3898 8.84619 21.1833C8.63971 20.9768 8.31525 20.9768 8.10877 21.1833Z" fill="#334D6E" stroke="#334D6E" stroke-width="0.2"/>
<path d="M16.1024 26.6403L15.542 27.2007V24.251C15.542 23.9561 15.306 23.7201 15.0111 23.7201C14.7161 23.7201 14.4801 23.9561 14.4801 24.251V27.2007L13.9197 26.6403C13.7132 26.4338 13.3887 26.4338 13.1822 26.6403C12.9758 26.8468 12.9758 27.1712 13.1822 27.3777L14.6571 28.8526C14.7751 28.9706 14.8931 29.0001 15.0406 29.0001C15.188 29.0001 15.306 28.9411 15.424 28.8526L16.8989 27.3777C17.1053 27.1712 17.1053 26.8468 16.8989 26.6403C16.6629 26.4338 16.3089 26.4338 16.1024 26.6403Z" fill="#334D6E" stroke="#334D6E" stroke-width="0.2"/>
<path d="M24.5386 21.9502C24.2436 21.9502 24.0076 22.1862 24.0076 22.4812V23.2776L21.9134 21.1833C21.7069 20.9768 21.3824 20.9768 21.1759 21.1833C20.9695 21.3898 20.9695 21.7142 21.1759 21.9207L23.2702 24.015H22.4738C22.1788 24.015 21.9429 24.251 21.9429 24.546C21.9429 24.8409 22.1788 25.0769 22.4738 25.0769H24.5386C24.8336 25.0769 25.0695 24.8409 25.0695 24.546V22.4812C25.0695 22.1862 24.8336 21.9502 24.5386 21.9502Z" fill="#334D6E" stroke="#334D6E" stroke-width="0.2"/>
<path d="M28.8746 14.635L27.3998 13.1601C27.1933 12.9536 26.8688 12.9536 26.6624 13.1601C26.4559 13.3666 26.4559 13.6911 26.6624 13.8975L27.2228 14.458H24.2731C23.9781 14.458 23.7422 14.694 23.7422 14.9889C23.7422 15.2839 23.9781 15.5199 24.2731 15.5199H27.2228L26.6624 16.0803C26.4559 16.2868 26.4559 16.6113 26.6624 16.8177C26.7804 16.9357 26.8983 16.9652 27.0458 16.9652C27.1933 16.9652 27.3113 16.9062 27.4293 16.8177L28.9041 15.3429C29.0811 15.1954 29.0811 14.8414 28.8746 14.635Z" fill="#334D6E" stroke="#334D6E" stroke-width="0.2"/>
<path d="M21.5299 9.03059C21.6774 9.03059 21.7954 8.97159 21.9134 8.8831L24.0076 6.78882V7.58524C24.0076 7.8802 24.2436 8.11618 24.5386 8.11618C24.8336 8.11618 25.0695 7.8802 25.0695 7.58524V5.52045C25.0695 5.22548 24.8336 4.9895 24.5386 4.9895H22.4738C22.1788 4.9895 21.9429 5.22548 21.9429 5.52045C21.9429 5.81542 22.1788 6.05139 22.4738 6.05139H23.2702L21.1759 8.14568C20.9695 8.35216 20.9695 8.67662 21.1759 8.8831C21.2644 8.97159 21.4119 9.03059 21.5299 9.03059Z" fill="#334D6E" stroke="#334D6E" stroke-width="0.2"/>
</svg>
