<svg width="33" height="33" viewBox="0 0 33 33" fill="none" xmlns="http://www.w3.org/2000/svg">
<path d="M0.300781 10.4961H7.45704V32.4953H0.300781V10.4961Z" fill="#464646"/>
<path d="M26.9486 10.7538C26.8724 10.7295 26.8007 10.7041 26.7175 10.6821C26.6343 10.6602 26.5246 10.6417 26.4275 10.6267C26.0058 10.5402 25.5765 10.4965 25.146 10.4961C23.6279 10.5626 22.1453 10.9763 20.8121 11.7055C19.479 12.4347 18.3308 13.4599 17.4559 14.7023V10.4961H10.3008V32.4953H17.457V20.4961C17.457 20.4961 22.865 12.9643 25.1472 18.4959V32.4953H32.3011V17.65C32.2983 16.0703 31.7714 14.5362 30.803 13.2882C29.8345 12.0401 28.4793 11.1488 26.9498 10.7538H26.9486Z" fill="#464646"/>
<path d="M3.80091 7.49635C5.73398 7.49635 7.30104 5.92929 7.30104 3.99622C7.30104 2.06316 5.73398 0.496094 3.80091 0.496094C1.86784 0.496094 0.300781 2.06316 0.300781 3.99622C0.300781 5.92929 1.86784 7.49635 3.80091 7.49635Z" fill="#464646"/>
</svg>
