<svg width="39" height="20" viewBox="0 0 39 20" fill="none" xmlns="http://www.w3.org/2000/svg">
<path d="M14.1086 5.87133C14.1086 6.11037 13.9154 6.3036 13.6764 6.3036H7.45865C7.2196 6.3036 7.02637 6.11037 7.02637 5.87133C7.02637 5.63228 7.2196 5.43905 7.45865 5.43905H13.6764C13.9154 5.43905 14.1086 5.63228 14.1086 5.87133ZM13.6764 13.6964H7.45865C7.2196 13.6964 7.02637 13.8896 7.02637 14.1287C7.02637 14.3677 7.2196 14.561 7.45865 14.561H13.6764C13.9154 14.561 14.1086 14.3677 14.1086 14.1287C14.1086 13.8896 13.9154 13.6964 13.6764 13.6964ZM9.91772 10C9.91772 9.76095 9.72449 9.56772 9.48545 9.56772H1.43228C1.19323 9.56772 1 9.76095 1 10C1 10.239 1.19323 10.4323 1.43228 10.4323H9.48545C9.72449 10.4323 9.91772 10.239 9.91772 10ZM38.0931 3.59366V16.4063C38.0931 17.8367 36.9298 19 35.4994 19H15.8654C14.435 19 13.2718 17.8367 13.2718 16.4063V3.59366C13.2718 2.16326 14.435 1 15.8654 1H35.4994C36.9298 1 38.0931 2.16326 38.0931 3.59366ZM15.8654 1.86455C15.5486 1.86455 15.255 1.95663 14.9991 2.1062L24.9307 9.9732C25.3293 10.2896 26.0282 10.2892 26.4268 9.97363L36.3618 2.10404C36.1068 1.95576 35.8145 1.86455 35.4994 1.86455H15.8654ZM37.2285 3.59366C37.2285 3.27248 37.1347 2.97464 36.9817 2.71657L26.9637 10.6514C26.6036 10.9367 26.1415 11.0794 25.679 11.0794C25.2164 11.0794 24.7535 10.9363 24.3934 10.6506L14.3814 2.7196C14.2292 2.97723 14.1363 3.27334 14.1363 3.59323V16.4063C14.1363 17.3599 14.9118 18.1354 15.8654 18.1354H35.4994C36.453 18.1354 37.2285 17.3599 37.2285 16.4063V3.59366Z" fill="#334D6E" stroke="#334D6E" stroke-width="0.5"/>
</svg>
