<svg xmlns="http://www.w3.org/2000/svg" width="22" height="22" viewBox="0 0 22 22"><defs><style>.a,.b{fill:#786aff;}.a{opacity:0;}</style></defs><g transform="translate(0.082 0.082)"><rect class="a" width="22" height="22" transform="translate(-0.082 -0.082)"/><path class="b" d="M10.918,11.819l10.918-8.2v-.91A.7.7,0,0,0,21.154,2H.682A.7.7,0,0,0,0,2.708V3.6Z" transform="translate(0 0.426)"/><path class="b" d="M12.389,9.878l6.807,5.1V4.771Z" transform="translate(2.64 1.017)"/><path class="b" d="M13.869,9.7,11.7,11.337a1.317,1.317,0,0,1-1.565,0l-2.2-1.649L0,15.567v1.071a.7.7,0,0,0,.682.707H21.154a.7.7,0,0,0,.682-.707v-.964Z" transform="translate(0 2.064)"/><path class="b" d="M6.772,9.867,0,4.756V14.875Z" transform="translate(0 1.014)"/></g></svg>