<svg xmlns="http://www.w3.org/2000/svg" width="23.501" height="23.436" viewBox="0 0 23.501 23.436"><defs><style>.a,.b{fill:#786aff;}.a{opacity:0;}</style></defs><g transform="translate(0.5 0.5)"><rect class="a" width="23" height="23" transform="translate(-0.5 -0.5)"/><path class="b" d="M22.281,1H.719A.733.733,0,0,0,0,1.746v.938l11.5,8.659L23,2.7V1.744A.733.733,0,0,0,22.281,1Z" transform="translate(0 0.278)"/><path class="b" d="M0,3.756V14.414L7.133,9.139Z" transform="translate(0 1.043)"/><path class="b" d="M10.676,10.425,8.358,8.688,0,14.88v1.128a.733.733,0,0,0,.719.746H9.637a7.789,7.789,0,0,1,1.091-6.3C10.712,10.441,10.692,10.437,10.676,10.425Z" transform="translate(0 2.413)"/><path class="b" d="M13.58,8.344a7.829,7.829,0,0,1,5.751,2.515V3.77L13.212,8.363C13.335,8.357,13.456,8.344,13.58,8.344Z" transform="translate(3.67 1.047)"/><path class="b" d="M14.736,9.05a5.686,5.686,0,1,0,5.686,5.686A5.686,5.686,0,0,0,14.736,9.05Zm0,10.158a4.472,4.472,0,0,1-.639-8.9v4.559a.431.431,0,0,0,.128.3l1.853,1.853a.43.43,0,0,0,.608,0h0l.575-.575a.431.431,0,0,0,0-.609l-1.312-1.312a.431.431,0,0,1-.128-.3V10.4a4.472,4.472,0,0,1-1.085,8.812Z" transform="translate(2.514 2.514)"/></g></svg>