<svg xmlns="http://www.w3.org/2000/svg" width="56" height="56" viewBox="0 0 56 56"><defs><style>.a{opacity:0;}.b{fill:#fbb03b;}.c{fill:#f6ffb8;}</style></defs><g transform="translate(-45.048 0.952)"><rect class="a" width="56" height="56" transform="translate(45.048 -0.952)"/><g transform="translate(42.204 -2.796)"><circle class="b" cx="27" cy="27" r="27" transform="translate(3.843 2.842)"/><path class="c" d="M28.476,15.563,30.5,21.795a1.438,1.438,0,0,0,1.438,1.053h6.542a1.442,1.442,0,0,1,.891,2.741L34.083,29.44a1.445,1.445,0,0,0-.546,1.688L35.55,37.36a1.439,1.439,0,0,1-2.329,1.688L27.93,35.2a1.434,1.434,0,0,0-1.768,0l-5.305,3.852a1.439,1.439,0,0,1-2.315-1.688l2.013-6.232a1.445,1.445,0,0,0-.546-1.688l-5.291-3.852a1.442,1.442,0,0,1,.891-2.741H22.15a1.438,1.438,0,0,0,1.438-1.053L25.6,15.563a1.438,1.438,0,1,1,2.876,0Z" transform="translate(3.797 2.983)"/></g></g></svg>