<svg width="125" height="124" viewBox="0 0 125 124" fill="none" xmlns="http://www.w3.org/2000/svg">
<g opacity="0.3">
<circle opacity="0.3" cx="52.5" cy="116" r="2" transform="rotate(-90 52.5 116)" fill="#FC295E"/>
<circle opacity="0.3" cx="52.5" cy="107" r="2" transform="rotate(-90 52.5 107)" fill="#FC295E"/>
<circle opacity="0.3" cx="52.5" cy="98" r="2" transform="rotate(-90 52.5 98)" fill="#FC295E"/>
<circle opacity="0.3" cx="52.5" cy="89" r="2" transform="rotate(-90 52.5 89)" fill="#FC295E"/>
<circle opacity="0.3" cx="52.5" cy="80" r="2" transform="rotate(-90 52.5 80)" fill="#FC295E"/>
<circle opacity="0.3" cx="52.5" cy="71" r="2" transform="rotate(-90 52.5 71)" fill="#FC295E"/>
<circle opacity="0.3" cx="52.5" cy="62" r="2" transform="rotate(-90 52.5 62)" fill="#FC295E"/>
<circle opacity="0.3" cx="52.5" cy="53" r="2" transform="rotate(-90 52.5 53)" fill="#FC295E"/>
<circle opacity="0.3" cx="52.5" cy="44" r="2" transform="rotate(-90 52.5 44)" fill="#FC295E"/>
<circle opacity="0.3" cx="52.5" cy="35" r="2" transform="rotate(-90 52.5 35)" fill="#FC295E"/>
<circle opacity="0.3" cx="52.5" cy="26" r="2" transform="rotate(-90 52.5 26)" fill="#FC295E"/>
<circle opacity="0.3" cx="52.5" cy="17" r="2" transform="rotate(-90 52.5 17)" fill="#FC295E"/>
<circle opacity="0.3" cx="52.5" cy="8" r="2" transform="rotate(-90 52.5 8)" fill="#FC295E"/>
<circle opacity="0.3" cx="61.5" cy="116" r="2" transform="rotate(-90 61.5 116)" fill="#FC295E"/>
<circle opacity="0.3" cx="61.5" cy="107" r="2" transform="rotate(-90 61.5 107)" fill="#FC295E"/>
<circle opacity="0.3" cx="61.5" cy="98" r="2" transform="rotate(-90 61.5 98)" fill="#FC295E"/>
<circle opacity="0.3" cx="61.5" cy="89" r="2" transform="rotate(-90 61.5 89)" fill="#FC295E"/>
<circle opacity="0.3" cx="61.5" cy="80" r="2" transform="rotate(-90 61.5 80)" fill="#FC295E"/>
<circle opacity="0.3" cx="61.5" cy="71" r="2" transform="rotate(-90 61.5 71)" fill="#FC295E"/>
<circle opacity="0.3" cx="61.5" cy="62" r="2" transform="rotate(-90 61.5 62)" fill="#FC295E"/>
<circle opacity="0.3" cx="61.5" cy="53" r="2" transform="rotate(-90 61.5 53)" fill="#FC295E"/>
<circle opacity="0.3" cx="61.5" cy="44" r="2" transform="rotate(-90 61.5 44)" fill="#FC295E"/>
<circle opacity="0.3" cx="61.5" cy="35" r="2" transform="rotate(-90 61.5 35)" fill="#FC295E"/>
<circle opacity="0.3" cx="61.5" cy="26" r="2" transform="rotate(-90 61.5 26)" fill="#FC295E"/>
<circle opacity="0.3" cx="61.5" cy="17" r="2" transform="rotate(-90 61.5 17)" fill="#FC295E"/>
<circle opacity="0.3" cx="61.5" cy="8" r="2" transform="rotate(-90 61.5 8)" fill="#FC295E"/>
<circle opacity="0.3" cx="70.5" cy="116" r="2" transform="rotate(-90 70.5 116)" fill="#FC295E"/>
<circle opacity="0.3" cx="70.5" cy="107" r="2" transform="rotate(-90 70.5 107)" fill="#FC295E"/>
<circle opacity="0.3" cx="70.5" cy="98" r="2" transform="rotate(-90 70.5 98)" fill="#FC295E"/>
<circle opacity="0.3" cx="70.5" cy="89" r="2" transform="rotate(-90 70.5 89)" fill="#FC295E"/>
<circle opacity="0.3" cx="70.5" cy="80" r="2" transform="rotate(-90 70.5 80)" fill="#FC295E"/>
<circle opacity="0.3" cx="70.5" cy="71" r="2" transform="rotate(-90 70.5 71)" fill="#FC295E"/>
<circle opacity="0.3" cx="70.5" cy="62" r="2" transform="rotate(-90 70.5 62)" fill="#FC295E"/>
<circle opacity="0.3" cx="70.5" cy="53" r="2" transform="rotate(-90 70.5 53)" fill="#FC295E"/>
<circle opacity="0.3" cx="70.5" cy="44" r="2" transform="rotate(-90 70.5 44)" fill="#FC295E"/>
<circle opacity="0.3" cx="70.5" cy="35" r="2" transform="rotate(-90 70.5 35)" fill="#FC295E"/>
<circle opacity="0.3" cx="70.5" cy="26" r="2" transform="rotate(-90 70.5 26)" fill="#FC295E"/>
<circle opacity="0.3" cx="70.5" cy="17" r="2" transform="rotate(-90 70.5 17)" fill="#FC295E"/>
<circle opacity="0.3" cx="70.5" cy="8" r="2" transform="rotate(-90 70.5 8)" fill="#FC295E"/>
<circle opacity="0.3" cx="79.5" cy="116" r="2" transform="rotate(-90 79.5 116)" fill="#FC295E"/>
<circle opacity="0.3" cx="79.5" cy="107" r="2" transform="rotate(-90 79.5 107)" fill="#FC295E"/>
<circle opacity="0.3" cx="79.5" cy="98" r="2" transform="rotate(-90 79.5 98)" fill="#FC295E"/>
<circle opacity="0.3" cx="79.5" cy="89" r="2" transform="rotate(-90 79.5 89)" fill="#FC295E"/>
<circle opacity="0.3" cx="79.5" cy="80" r="2" transform="rotate(-90 79.5 80)" fill="#FC295E"/>
<circle opacity="0.3" cx="79.5" cy="71" r="2" transform="rotate(-90 79.5 71)" fill="#FC295E"/>
<circle opacity="0.3" cx="79.5" cy="62" r="2" transform="rotate(-90 79.5 62)" fill="#FC295E"/>
<circle opacity="0.3" cx="79.5" cy="53" r="2" transform="rotate(-90 79.5 53)" fill="#FC295E"/>
<circle opacity="0.3" cx="79.5" cy="44" r="2" transform="rotate(-90 79.5 44)" fill="#FC295E"/>
<circle opacity="0.3" cx="79.5" cy="35" r="2" transform="rotate(-90 79.5 35)" fill="#FC295E"/>
<circle opacity="0.3" cx="79.5" cy="26" r="2" transform="rotate(-90 79.5 26)" fill="#FC295E"/>
<circle opacity="0.3" cx="79.5" cy="17" r="2" transform="rotate(-90 79.5 17)" fill="#FC295E"/>
<circle opacity="0.3" cx="79.5" cy="8" r="2" transform="rotate(-90 79.5 8)" fill="#FC295E"/>
<circle opacity="0.3" cx="88.5" cy="116" r="2" transform="rotate(-90 88.5 116)" fill="#FC295E"/>
<circle opacity="0.3" cx="88.5" cy="107" r="2" transform="rotate(-90 88.5 107)" fill="#FC295E"/>
<circle opacity="0.3" cx="88.5" cy="98" r="2" transform="rotate(-90 88.5 98)" fill="#FC295E"/>
<circle opacity="0.3" cx="88.5" cy="89" r="2" transform="rotate(-90 88.5 89)" fill="#FC295E"/>
<circle opacity="0.3" cx="88.5" cy="80" r="2" transform="rotate(-90 88.5 80)" fill="#FC295E"/>
<circle opacity="0.3" cx="88.5" cy="71" r="2" transform="rotate(-90 88.5 71)" fill="#FC295E"/>
<circle opacity="0.3" cx="88.5" cy="62" r="2" transform="rotate(-90 88.5 62)" fill="#FC295E"/>
<circle opacity="0.3" cx="88.5" cy="53" r="2" transform="rotate(-90 88.5 53)" fill="#FC295E"/>
<circle opacity="0.3" cx="88.5" cy="44" r="2" transform="rotate(-90 88.5 44)" fill="#FC295E"/>
<circle opacity="0.3" cx="88.5" cy="35" r="2" transform="rotate(-90 88.5 35)" fill="#FC295E"/>
<circle opacity="0.3" cx="88.5" cy="26" r="2" transform="rotate(-90 88.5 26)" fill="#FC295E"/>
<circle opacity="0.3" cx="88.5" cy="17" r="2" transform="rotate(-90 88.5 17)" fill="#FC295E"/>
<circle opacity="0.3" cx="88.5" cy="8" r="2" transform="rotate(-90 88.5 8)" fill="#FC295E"/>
<circle opacity="0.3" cx="97.5" cy="116" r="2" transform="rotate(-90 97.5 116)" fill="#FC295E"/>
<circle opacity="0.3" cx="97.5" cy="107" r="2" transform="rotate(-90 97.5 107)" fill="#FC295E"/>
<circle opacity="0.3" cx="97.5" cy="98" r="2" transform="rotate(-90 97.5 98)" fill="#FC295E"/>
<circle opacity="0.3" cx="97.5" cy="89" r="2" transform="rotate(-90 97.5 89)" fill="#FC295E"/>
<circle opacity="0.3" cx="97.5" cy="80" r="2" transform="rotate(-90 97.5 80)" fill="#FC295E"/>
<circle opacity="0.3" cx="97.5" cy="71" r="2" transform="rotate(-90 97.5 71)" fill="#FC295E"/>
<circle opacity="0.3" cx="97.5" cy="62" r="2" transform="rotate(-90 97.5 62)" fill="#FC295E"/>
<circle opacity="0.3" cx="97.5" cy="53" r="2" transform="rotate(-90 97.5 53)" fill="#FC295E"/>
<circle opacity="0.3" cx="97.5" cy="44" r="2" transform="rotate(-90 97.5 44)" fill="#FC295E"/>
<circle opacity="0.3" cx="97.5" cy="35" r="2" transform="rotate(-90 97.5 35)" fill="#FC295E"/>
<circle opacity="0.3" cx="97.5" cy="26" r="2" transform="rotate(-90 97.5 26)" fill="#FC295E"/>
<circle opacity="0.3" cx="97.5" cy="17" r="2" transform="rotate(-90 97.5 17)" fill="#FC295E"/>
<circle opacity="0.3" cx="97.5" cy="8" r="2" transform="rotate(-90 97.5 8)" fill="#FC295E"/>
<circle opacity="0.3" cx="106.5" cy="116" r="2" transform="rotate(-90 106.5 116)" fill="#FC295E"/>
<circle opacity="0.3" cx="106.5" cy="107" r="2" transform="rotate(-90 106.5 107)" fill="#FC295E"/>
<circle opacity="0.3" cx="106.5" cy="98" r="2" transform="rotate(-90 106.5 98)" fill="#FC295E"/>
<circle opacity="0.3" cx="106.5" cy="89" r="2" transform="rotate(-90 106.5 89)" fill="#FC295E"/>
<circle opacity="0.3" cx="106.5" cy="80" r="2" transform="rotate(-90 106.5 80)" fill="#FC295E"/>
<circle opacity="0.3" cx="106.5" cy="71" r="2" transform="rotate(-90 106.5 71)" fill="#FC295E"/>
<circle opacity="0.3" cx="106.5" cy="62" r="2" transform="rotate(-90 106.5 62)" fill="#FC295E"/>
<circle opacity="0.3" cx="106.5" cy="53" r="2" transform="rotate(-90 106.5 53)" fill="#FC295E"/>
<circle opacity="0.3" cx="106.5" cy="44" r="2" transform="rotate(-90 106.5 44)" fill="#FC295E"/>
<circle opacity="0.3" cx="106.5" cy="35" r="2" transform="rotate(-90 106.5 35)" fill="#FC295E"/>
<circle opacity="0.3" cx="106.5" cy="26" r="2" transform="rotate(-90 106.5 26)" fill="#FC295E"/>
<circle opacity="0.3" cx="106.5" cy="17" r="2" transform="rotate(-90 106.5 17)" fill="#FC295E"/>
<circle opacity="0.3" cx="106.5" cy="8" r="2" transform="rotate(-90 106.5 8)" fill="#FC295E"/>
<circle opacity="0.3" cx="115.5" cy="116" r="2" transform="rotate(-90 115.5 116)" fill="#FC295E"/>
<circle opacity="0.3" cx="115.5" cy="107" r="2" transform="rotate(-90 115.5 107)" fill="#FC295E"/>
<circle opacity="0.3" cx="115.5" cy="98" r="2" transform="rotate(-90 115.5 98)" fill="#FC295E"/>
<circle opacity="0.3" cx="115.5" cy="89" r="2" transform="rotate(-90 115.5 89)" fill="#FC295E"/>
<circle opacity="0.3" cx="115.5" cy="80" r="2" transform="rotate(-90 115.5 80)" fill="#FC295E"/>
<circle opacity="0.3" cx="115.5" cy="71" r="2" transform="rotate(-90 115.5 71)" fill="#FC295E"/>
<circle opacity="0.3" cx="115.5" cy="62" r="2" transform="rotate(-90 115.5 62)" fill="#FC295E"/>
<circle opacity="0.3" cx="115.5" cy="53" r="2" transform="rotate(-90 115.5 53)" fill="#FC295E"/>
<circle opacity="0.3" cx="115.5" cy="44" r="2" transform="rotate(-90 115.5 44)" fill="#FC295E"/>
<circle opacity="0.3" cx="115.5" cy="35" r="2" transform="rotate(-90 115.5 35)" fill="#FC295E"/>
<circle opacity="0.3" cx="115.5" cy="26" r="2" transform="rotate(-90 115.5 26)" fill="#FC295E"/>
<circle opacity="0.3" cx="115.5" cy="17" r="2" transform="rotate(-90 115.5 17)" fill="#FC295E"/>
<circle opacity="0.3" cx="115.5" cy="8" r="2" transform="rotate(-90 115.5 8)" fill="#FC295E"/>
</g>
<g filter="url(#filter0_d)">
<rect x="20.5" y="20" width="84" height="84" rx="16" fill="#FC295E"/>
</g>
<path d="M62.5 77C70.7843 77 77.5 70.2843 77.5 62C77.5 53.7157 70.7843 47 62.5 47C54.2157 47 47.5 53.7157 47.5 62C47.5 70.2843 54.2157 77 62.5 77Z" stroke="white" stroke-width="2" stroke-linecap="round" stroke-linejoin="round"/>
<path d="M62.5 53V62L68.5 65" stroke="white" stroke-width="2" stroke-linecap="round" stroke-linejoin="round"/>
<defs>
<filter id="filter0_d" x="0.5" y="0" width="124" height="124" filterUnits="userSpaceOnUse" color-interpolation-filters="sRGB">
<feFlood flood-opacity="0" result="BackgroundImageFix"/>
<feColorMatrix in="SourceAlpha" type="matrix" values="0 0 0 0 0 0 0 0 0 0 0 0 0 0 0 0 0 0 127 0"/>
<feOffset/>
<feGaussianBlur stdDeviation="10"/>
<feColorMatrix type="matrix" values="0 0 0 0 0.988235 0 0 0 0 0.160784 0 0 0 0 0.368627 0 0 0 0.4 0"/>
<feBlend mode="normal" in2="BackgroundImageFix" result="effect1_dropShadow"/>
<feBlend mode="normal" in="SourceGraphic" in2="effect1_dropShadow" result="shape"/>
</filter>
</defs>
</svg>
