<svg width="125" height="124" viewBox="0 0 125 124" fill="none" xmlns="http://www.w3.org/2000/svg">
<g opacity="0.3">
<circle opacity="0.3" cx="51.25" cy="116" r="2" transform="rotate(-90 51.25 116)" fill="#334D6E"/>
<circle opacity="0.3" cx="51.25" cy="107" r="2" transform="rotate(-90 51.25 107)" fill="#334D6E"/>
<circle opacity="0.3" cx="51.25" cy="98" r="2" transform="rotate(-90 51.25 98)" fill="#334D6E"/>
<circle opacity="0.3" cx="51.25" cy="89" r="2" transform="rotate(-90 51.25 89)" fill="#334D6E"/>
<circle opacity="0.3" cx="51.25" cy="80" r="2" transform="rotate(-90 51.25 80)" fill="#334D6E"/>
<circle opacity="0.3" cx="51.25" cy="71" r="2" transform="rotate(-90 51.25 71)" fill="#334D6E"/>
<circle opacity="0.3" cx="51.25" cy="62" r="2" transform="rotate(-90 51.25 62)" fill="#334D6E"/>
<circle opacity="0.3" cx="51.25" cy="53" r="2" transform="rotate(-90 51.25 53)" fill="#334D6E"/>
<circle opacity="0.3" cx="51.25" cy="44" r="2" transform="rotate(-90 51.25 44)" fill="#334D6E"/>
<circle opacity="0.3" cx="51.25" cy="35" r="2" transform="rotate(-90 51.25 35)" fill="#334D6E"/>
<circle opacity="0.3" cx="51.25" cy="26" r="2" transform="rotate(-90 51.25 26)" fill="#334D6E"/>
<circle opacity="0.3" cx="51.25" cy="17" r="2" transform="rotate(-90 51.25 17)" fill="#334D6E"/>
<circle opacity="0.3" cx="51.25" cy="8" r="2" transform="rotate(-90 51.25 8)" fill="#334D6E"/>
<circle opacity="0.3" cx="60.25" cy="116" r="2" transform="rotate(-90 60.25 116)" fill="#334D6E"/>
<circle opacity="0.3" cx="60.25" cy="107" r="2" transform="rotate(-90 60.25 107)" fill="#334D6E"/>
<circle opacity="0.3" cx="60.25" cy="98" r="2" transform="rotate(-90 60.25 98)" fill="#334D6E"/>
<circle opacity="0.3" cx="60.25" cy="89" r="2" transform="rotate(-90 60.25 89)" fill="#334D6E"/>
<circle opacity="0.3" cx="60.25" cy="80" r="2" transform="rotate(-90 60.25 80)" fill="#334D6E"/>
<circle opacity="0.3" cx="60.25" cy="71" r="2" transform="rotate(-90 60.25 71)" fill="#334D6E"/>
<circle opacity="0.3" cx="60.25" cy="62" r="2" transform="rotate(-90 60.25 62)" fill="#334D6E"/>
<circle opacity="0.3" cx="60.25" cy="53" r="2" transform="rotate(-90 60.25 53)" fill="#334D6E"/>
<circle opacity="0.3" cx="60.25" cy="44" r="2" transform="rotate(-90 60.25 44)" fill="#334D6E"/>
<circle opacity="0.3" cx="60.25" cy="35" r="2" transform="rotate(-90 60.25 35)" fill="#334D6E"/>
<circle opacity="0.3" cx="60.25" cy="26" r="2" transform="rotate(-90 60.25 26)" fill="#334D6E"/>
<circle opacity="0.3" cx="60.25" cy="17" r="2" transform="rotate(-90 60.25 17)" fill="#334D6E"/>
<circle opacity="0.3" cx="60.25" cy="8" r="2" transform="rotate(-90 60.25 8)" fill="#334D6E"/>
<circle opacity="0.3" cx="69.25" cy="116" r="2" transform="rotate(-90 69.25 116)" fill="#334D6E"/>
<circle opacity="0.3" cx="69.25" cy="107" r="2" transform="rotate(-90 69.25 107)" fill="#334D6E"/>
<circle opacity="0.3" cx="69.25" cy="98" r="2" transform="rotate(-90 69.25 98)" fill="#334D6E"/>
<circle opacity="0.3" cx="69.25" cy="89" r="2" transform="rotate(-90 69.25 89)" fill="#334D6E"/>
<circle opacity="0.3" cx="69.25" cy="80" r="2" transform="rotate(-90 69.25 80)" fill="#334D6E"/>
<circle opacity="0.3" cx="69.25" cy="71" r="2" transform="rotate(-90 69.25 71)" fill="#334D6E"/>
<circle opacity="0.3" cx="69.25" cy="62" r="2" transform="rotate(-90 69.25 62)" fill="#334D6E"/>
<circle opacity="0.3" cx="69.25" cy="53" r="2" transform="rotate(-90 69.25 53)" fill="#334D6E"/>
<circle opacity="0.3" cx="69.25" cy="44" r="2" transform="rotate(-90 69.25 44)" fill="#334D6E"/>
<circle opacity="0.3" cx="69.25" cy="35" r="2" transform="rotate(-90 69.25 35)" fill="#334D6E"/>
<circle opacity="0.3" cx="69.25" cy="26" r="2" transform="rotate(-90 69.25 26)" fill="#334D6E"/>
<circle opacity="0.3" cx="69.25" cy="17" r="2" transform="rotate(-90 69.25 17)" fill="#334D6E"/>
<circle opacity="0.3" cx="69.25" cy="8" r="2" transform="rotate(-90 69.25 8)" fill="#334D6E"/>
<circle opacity="0.3" cx="78.25" cy="116" r="2" transform="rotate(-90 78.25 116)" fill="#334D6E"/>
<circle opacity="0.3" cx="78.25" cy="107" r="2" transform="rotate(-90 78.25 107)" fill="#334D6E"/>
<circle opacity="0.3" cx="78.25" cy="98" r="2" transform="rotate(-90 78.25 98)" fill="#334D6E"/>
<circle opacity="0.3" cx="78.25" cy="89" r="2" transform="rotate(-90 78.25 89)" fill="#334D6E"/>
<circle opacity="0.3" cx="78.25" cy="80" r="2" transform="rotate(-90 78.25 80)" fill="#334D6E"/>
<circle opacity="0.3" cx="78.25" cy="71" r="2" transform="rotate(-90 78.25 71)" fill="#334D6E"/>
<circle opacity="0.3" cx="78.25" cy="62" r="2" transform="rotate(-90 78.25 62)" fill="#334D6E"/>
<circle opacity="0.3" cx="78.25" cy="53" r="2" transform="rotate(-90 78.25 53)" fill="#334D6E"/>
<circle opacity="0.3" cx="78.25" cy="44" r="2" transform="rotate(-90 78.25 44)" fill="#334D6E"/>
<circle opacity="0.3" cx="78.25" cy="35" r="2" transform="rotate(-90 78.25 35)" fill="#334D6E"/>
<circle opacity="0.3" cx="78.25" cy="26" r="2" transform="rotate(-90 78.25 26)" fill="#334D6E"/>
<circle opacity="0.3" cx="78.25" cy="17" r="2" transform="rotate(-90 78.25 17)" fill="#334D6E"/>
<circle opacity="0.3" cx="78.25" cy="8" r="2" transform="rotate(-90 78.25 8)" fill="#334D6E"/>
<circle opacity="0.3" cx="87.25" cy="116" r="2" transform="rotate(-90 87.25 116)" fill="#334D6E"/>
<circle opacity="0.3" cx="87.25" cy="107" r="2" transform="rotate(-90 87.25 107)" fill="#334D6E"/>
<circle opacity="0.3" cx="87.25" cy="98" r="2" transform="rotate(-90 87.25 98)" fill="#334D6E"/>
<circle opacity="0.3" cx="87.25" cy="89" r="2" transform="rotate(-90 87.25 89)" fill="#334D6E"/>
<circle opacity="0.3" cx="87.25" cy="80" r="2" transform="rotate(-90 87.25 80)" fill="#334D6E"/>
<circle opacity="0.3" cx="87.25" cy="71" r="2" transform="rotate(-90 87.25 71)" fill="#334D6E"/>
<circle opacity="0.3" cx="87.25" cy="62" r="2" transform="rotate(-90 87.25 62)" fill="#334D6E"/>
<circle opacity="0.3" cx="87.25" cy="53" r="2" transform="rotate(-90 87.25 53)" fill="#334D6E"/>
<circle opacity="0.3" cx="87.25" cy="44" r="2" transform="rotate(-90 87.25 44)" fill="#334D6E"/>
<circle opacity="0.3" cx="87.25" cy="35" r="2" transform="rotate(-90 87.25 35)" fill="#334D6E"/>
<circle opacity="0.3" cx="87.25" cy="26" r="2" transform="rotate(-90 87.25 26)" fill="#334D6E"/>
<circle opacity="0.3" cx="87.25" cy="17" r="2" transform="rotate(-90 87.25 17)" fill="#334D6E"/>
<circle opacity="0.3" cx="87.25" cy="8" r="2" transform="rotate(-90 87.25 8)" fill="#334D6E"/>
<circle opacity="0.3" cx="96.25" cy="116" r="2" transform="rotate(-90 96.25 116)" fill="#334D6E"/>
<circle opacity="0.3" cx="96.25" cy="107" r="2" transform="rotate(-90 96.25 107)" fill="#334D6E"/>
<circle opacity="0.3" cx="96.25" cy="98" r="2" transform="rotate(-90 96.25 98)" fill="#334D6E"/>
<circle opacity="0.3" cx="96.25" cy="89" r="2" transform="rotate(-90 96.25 89)" fill="#334D6E"/>
<circle opacity="0.3" cx="96.25" cy="80" r="2" transform="rotate(-90 96.25 80)" fill="#334D6E"/>
<circle opacity="0.3" cx="96.25" cy="71" r="2" transform="rotate(-90 96.25 71)" fill="#334D6E"/>
<circle opacity="0.3" cx="96.25" cy="62" r="2" transform="rotate(-90 96.25 62)" fill="#334D6E"/>
<circle opacity="0.3" cx="96.25" cy="53" r="2" transform="rotate(-90 96.25 53)" fill="#334D6E"/>
<circle opacity="0.3" cx="96.25" cy="44" r="2" transform="rotate(-90 96.25 44)" fill="#334D6E"/>
<circle opacity="0.3" cx="96.25" cy="35" r="2" transform="rotate(-90 96.25 35)" fill="#334D6E"/>
<circle opacity="0.3" cx="96.25" cy="26" r="2" transform="rotate(-90 96.25 26)" fill="#334D6E"/>
<circle opacity="0.3" cx="96.25" cy="17" r="2" transform="rotate(-90 96.25 17)" fill="#334D6E"/>
<circle opacity="0.3" cx="96.25" cy="8" r="2" transform="rotate(-90 96.25 8)" fill="#334D6E"/>
<circle opacity="0.3" cx="105.25" cy="116" r="2" transform="rotate(-90 105.25 116)" fill="#334D6E"/>
<circle opacity="0.3" cx="105.25" cy="107" r="2" transform="rotate(-90 105.25 107)" fill="#334D6E"/>
<circle opacity="0.3" cx="105.25" cy="98" r="2" transform="rotate(-90 105.25 98)" fill="#334D6E"/>
<circle opacity="0.3" cx="105.25" cy="89" r="2" transform="rotate(-90 105.25 89)" fill="#334D6E"/>
<circle opacity="0.3" cx="105.25" cy="80" r="2" transform="rotate(-90 105.25 80)" fill="#334D6E"/>
<circle opacity="0.3" cx="105.25" cy="71" r="2" transform="rotate(-90 105.25 71)" fill="#334D6E"/>
<circle opacity="0.3" cx="105.25" cy="62" r="2" transform="rotate(-90 105.25 62)" fill="#334D6E"/>
<circle opacity="0.3" cx="105.25" cy="53" r="2" transform="rotate(-90 105.25 53)" fill="#334D6E"/>
<circle opacity="0.3" cx="105.25" cy="44" r="2" transform="rotate(-90 105.25 44)" fill="#334D6E"/>
<circle opacity="0.3" cx="105.25" cy="35" r="2" transform="rotate(-90 105.25 35)" fill="#334D6E"/>
<circle opacity="0.3" cx="105.25" cy="26" r="2" transform="rotate(-90 105.25 26)" fill="#334D6E"/>
<circle opacity="0.3" cx="105.25" cy="17" r="2" transform="rotate(-90 105.25 17)" fill="#334D6E"/>
<circle opacity="0.3" cx="105.25" cy="8" r="2" transform="rotate(-90 105.25 8)" fill="#334D6E"/>
<circle opacity="0.3" cx="114.25" cy="116" r="2" transform="rotate(-90 114.25 116)" fill="#334D6E"/>
<circle opacity="0.3" cx="114.25" cy="107" r="2" transform="rotate(-90 114.25 107)" fill="#334D6E"/>
<circle opacity="0.3" cx="114.25" cy="98" r="2" transform="rotate(-90 114.25 98)" fill="#334D6E"/>
<circle opacity="0.3" cx="114.25" cy="89" r="2" transform="rotate(-90 114.25 89)" fill="#334D6E"/>
<circle opacity="0.3" cx="114.25" cy="80" r="2" transform="rotate(-90 114.25 80)" fill="#334D6E"/>
<circle opacity="0.3" cx="114.25" cy="71" r="2" transform="rotate(-90 114.25 71)" fill="#334D6E"/>
<circle opacity="0.3" cx="114.25" cy="62" r="2" transform="rotate(-90 114.25 62)" fill="#334D6E"/>
<circle opacity="0.3" cx="114.25" cy="53" r="2" transform="rotate(-90 114.25 53)" fill="#334D6E"/>
<circle opacity="0.3" cx="114.25" cy="44" r="2" transform="rotate(-90 114.25 44)" fill="#334D6E"/>
<circle opacity="0.3" cx="114.25" cy="35" r="2" transform="rotate(-90 114.25 35)" fill="#334D6E"/>
<circle opacity="0.3" cx="114.25" cy="26" r="2" transform="rotate(-90 114.25 26)" fill="#334D6E"/>
<circle opacity="0.3" cx="114.25" cy="17" r="2" transform="rotate(-90 114.25 17)" fill="#334D6E"/>
<circle opacity="0.3" cx="114.25" cy="8" r="2" transform="rotate(-90 114.25 8)" fill="#334D6E"/>
</g>
<g filter="url(#filter0_d)">
<rect x="20.75" y="20" width="84" height="84" rx="16" fill="#334D6E"/>
</g>
<path d="M73.25 60.5H52.25C50.5931 60.5 49.25 61.8431 49.25 63.5V74C49.25 75.6569 50.5931 77 52.25 77H73.25C74.9069 77 76.25 75.6569 76.25 74V63.5C76.25 61.8431 74.9069 60.5 73.25 60.5Z" stroke="white" stroke-width="2" stroke-linecap="round" stroke-linejoin="round"/>
<path d="M55.25 60.5V54.5C55.25 52.5109 56.0402 50.6032 57.4467 49.1967C58.8532 47.7902 60.7609 47 62.75 47C64.7391 47 66.6468 47.7902 68.0533 49.1967C69.4598 50.6032 70.25 52.5109 70.25 54.5V60.5" stroke="white" stroke-width="2" stroke-linecap="round" stroke-linejoin="round"/>
<defs>
<filter id="filter0_d" x="0.75" y="0" width="124" height="124" filterUnits="userSpaceOnUse" color-interpolation-filters="sRGB">
<feFlood flood-opacity="0" result="BackgroundImageFix"/>
<feColorMatrix in="SourceAlpha" type="matrix" values="0 0 0 0 0 0 0 0 0 0 0 0 0 0 0 0 0 0 127 0"/>
<feOffset/>
<feGaussianBlur stdDeviation="10"/>
<feColorMatrix type="matrix" values="0 0 0 0 0.2 0 0 0 0 0.301961 0 0 0 0 0.431373 0 0 0 0.4 0"/>
<feBlend mode="normal" in2="BackgroundImageFix" result="effect1_dropShadow"/>
<feBlend mode="normal" in="SourceGraphic" in2="effect1_dropShadow" result="shape"/>
</filter>
</defs>
</svg>
