<svg xmlns="http://www.w3.org/2000/svg" width="22" height="22" viewBox="0 0 22 22"><defs><style>.a,.b{fill:#786aff;}.a{opacity:0;}</style></defs><g transform="translate(-0.27 -0.27)"><rect class="a" width="22" height="22" transform="translate(0.27 0.27)"/><path class="b" d="M17.281,13.511A3.733,3.733,0,0,0,14.4,14.889l-5.98-3.047a3.517,3.517,0,0,0,0-1.668L14.4,7.125a3.7,3.7,0,1,0-.8-1.653L7.574,8.54a3.766,3.766,0,0,0-.568-.53,3.812,3.812,0,0,0-.624-.379c-.023-.011-.044-.026-.066-.036a3.733,3.733,0,0,0-.622-.215c-.046-.012-.088-.031-.134-.042a3.757,3.757,0,1,0,0,7.335c.046-.01.088-.03.134-.042a3.733,3.733,0,0,0,.622-.215c.023-.011.044-.025.066-.036A3.748,3.748,0,0,0,7,14a3.826,3.826,0,0,0,.573-.533L13.6,16.538a3.757,3.757,0,1,0,3.683-3.026Zm0-10.643A1.878,1.878,0,1,1,15.4,4.746a1.878,1.878,0,0,1,1.878-1.878Zm0,16.278a1.878,1.878,0,1,1,1.878-1.878,1.878,1.878,0,0,1-1.878,1.878Z" transform="translate(0.249 0.263)"/></g></svg>