<svg xmlns="http://www.w3.org/2000/svg" width="32.191" height="26.826" viewBox="0 0 32.191 26.826"><defs><style>.a{fill:#fff;}</style></defs><path class="a" d="M32.191,3.175A12.835,12.835,0,0,1,28.4,4.245,6.768,6.768,0,0,0,31.3.5a12.976,12.976,0,0,1-4.194,1.643A6.52,6.52,0,0,0,22.289,0a6.692,6.692,0,0,0-6.605,6.773,6.931,6.931,0,0,0,.172,1.542A18.591,18.591,0,0,1,2.242,1.24a6.888,6.888,0,0,0-.894,3.408,6.813,6.813,0,0,0,2.938,5.634A6.5,6.5,0,0,1,1.3,9.435c0,.029,0,.056,0,.083a6.732,6.732,0,0,0,5.3,6.638,6.441,6.441,0,0,1-1.741.239,6.6,6.6,0,0,1-1.243-.12,6.622,6.622,0,0,0,6.17,4.7,13.02,13.02,0,0,1-8.2,2.9A12.437,12.437,0,0,1,0,23.779a18.358,18.358,0,0,0,10.125,3.047c12.147,0,18.789-10.322,18.789-19.268,0-.292-.005-.585-.019-.874a13.672,13.672,0,0,0,3.3-3.508"/></svg>