<svg width="24" height="21" viewBox="0 0 24 21" fill="none" xmlns="http://www.w3.org/2000/svg">
<path d="M23.5215 2.56955C23.0115 2.80677 22.4817 2.99421 21.9389 3.12949C22.5404 2.53041 22.9883 1.78192 23.2411 0.953195C23.2569 0.900772 23.2571 0.844571 23.2418 0.79201C23.2265 0.739449 23.1963 0.693 23.1553 0.658792C23.1143 0.624584 23.0644 0.604226 23.0121 0.600405C22.9598 0.596584 22.9077 0.609478 22.8626 0.637389C22.1081 1.10584 21.2932 1.45786 20.4431 1.68261C20.3938 1.69559 20.3431 1.70211 20.2923 1.70202C20.1349 1.70247 19.983 1.64214 19.8653 1.53255C18.961 0.696744 17.7971 0.235892 16.592 0.236474C16.0609 0.23818 15.5332 0.323752 15.0264 0.490313C14.2353 0.749787 13.5217 1.22005 12.9555 1.85521C12.3893 2.49036 11.9897 3.2687 11.7958 4.11424C11.6511 4.73958 11.6113 5.3866 11.6784 6.02625C11.6817 6.05306 11.6794 6.08031 11.6717 6.1061C11.6639 6.13189 11.6509 6.1556 11.6335 6.17557C11.6164 6.19587 11.5954 6.21216 11.5718 6.22335C11.5483 6.23454 11.5227 6.24039 11.4969 6.24052H11.4798C9.74992 6.07547 8.06922 5.54767 6.53736 4.68843C5.00551 3.82919 3.65369 2.65598 2.56205 1.23839C2.53564 1.20383 2.50158 1.17656 2.46283 1.15897C2.42408 1.14137 2.38182 1.13398 2.33973 1.13744C2.29763 1.1409 2.25698 1.15511 2.22132 1.17882C2.18565 1.20253 2.15605 1.23503 2.13509 1.27348C1.58351 2.27054 1.36352 3.43169 1.50973 4.57427C1.65594 5.71685 2.16005 6.77601 2.94276 7.58512C2.54836 7.48715 2.16862 7.33292 1.81416 7.12672C1.77502 7.10402 1.73095 7.09235 1.68623 7.09283C1.64152 7.09331 1.59768 7.10593 1.559 7.12946C1.52031 7.15299 1.48808 7.18662 1.46546 7.22709C1.44284 7.26756 1.43059 7.31349 1.4299 7.3604C1.41806 8.3665 1.68481 9.35458 2.19777 10.2047C2.71074 11.0549 3.44787 11.7306 4.3197 12.1497H4.21439C3.9345 12.1494 3.65527 12.1214 3.38039 12.0661C3.33631 12.0573 3.2908 12.0607 3.24833 12.0759C3.20585 12.091 3.16786 12.1175 3.13809 12.1528C3.10832 12.188 3.08778 12.2307 3.07848 12.2768C3.06919 12.3229 3.07146 12.3707 3.08508 12.4155C3.36447 13.3258 3.87757 14.1376 4.56801 14.7619C5.25846 15.3862 6.09954 15.7988 6.99888 15.9543C5.48714 17.0204 3.70607 17.5877 1.88461 17.5834H1.31533C1.23059 17.5825 1.148 17.6114 1.08079 17.6655C1.01357 17.7197 0.965609 17.7959 0.944588 17.882C0.924547 17.9689 0.932044 18.0603 0.965941 18.1424C0.999839 18.2244 1.05829 18.2926 1.13245 18.3367C3.20513 19.601 5.55987 20.2671 7.9574 20.2674C9.9695 20.2872 11.9613 19.844 13.7925 18.9691C15.4233 18.1755 16.8777 17.0326 18.0621 15.6139C19.1932 14.2638 20.0789 12.7076 20.6751 11.0224C21.2523 9.41567 21.553 7.71417 21.5632 5.99713V5.92023C21.5634 5.78818 21.5918 5.65787 21.6464 5.53887C21.7009 5.41988 21.7802 5.31523 21.8784 5.23263C22.6387 4.58495 23.302 3.82113 23.846 2.96674C23.8768 2.91779 23.8917 2.85969 23.8885 2.80111C23.8853 2.74254 23.864 2.68664 23.828 2.64177C23.7919 2.5969 23.743 2.56548 23.6886 2.55219C23.6341 2.5389 23.577 2.54447 23.5258 2.56806L23.5215 2.56955Z" fill="#333333"/>
</svg>
