<svg width="33" height="33" viewBox="0 0 33 33" fill="none" xmlns="http://www.w3.org/2000/svg">
<path d="M16.0876 0.718752H16.0798C13.1732 0.717425 10.3227 1.51983 7.84353 3.03726C5.36437 4.5547 3.35306 6.72808 2.03191 9.31718C0.710759 11.9063 0.13122 14.8103 0.357351 17.7081C0.583482 20.606 1.60648 23.3849 3.31326 25.7378L1.3473 31.5981L7.40993 29.6597C9.46275 31.012 11.8032 31.8656 14.2446 32.1526C16.686 32.4395 19.1606 32.1518 21.471 31.3123C23.7814 30.4729 25.8636 29.105 27.5514 27.3178C29.2392 25.5306 30.4858 23.3737 31.1918 21.0191C31.8979 18.6644 32.0437 16.1774 31.6177 13.7564C31.1916 11.3354 30.2056 9.04756 28.7382 7.0754C27.2709 5.10323 25.3628 3.50138 23.1663 2.39771C20.9698 1.29403 18.5458 0.71908 16.0876 0.718752V0.718752Z" fill="#464646"/>
<path d="M25.2663 22.9957C24.9474 23.5729 24.5042 24.072 23.9688 24.457C23.4333 24.8419 22.819 25.1031 22.1703 25.2215C21.3466 25.3973 20.2696 25.5367 16.6417 24.0351C12.0066 22.1145 9.02116 17.4008 8.79117 17.0989C7.72095 15.7281 7.07041 14.0768 6.91809 12.3444C6.89745 11.6257 7.03094 10.911 7.30958 10.2482C7.58823 9.58543 8.00557 8.99002 8.53354 8.50201C8.97815 8.11231 9.55615 7.90948 10.1468 7.93588C10.3425 7.93588 10.5172 7.94584 10.6753 7.95358C11.1386 7.97348 11.3708 8.00112 11.6771 8.72758C12.0597 9.64974 12.9829 11.9131 13.0935 12.1453C13.1724 12.2717 13.22 12.415 13.2325 12.5635C13.245 12.7119 13.222 12.8612 13.1654 12.999C13.0357 13.2662 12.8631 13.5105 12.6545 13.7221C12.4223 13.9908 12.2012 14.1953 11.9679 14.4828C11.7545 14.7327 11.5145 15.0014 11.7821 15.4647C12.4754 16.6441 13.3378 17.7155 14.3419 18.6447C15.42 19.6314 16.6749 20.4053 18.0405 20.9258C18.222 21.0123 18.4254 21.0418 18.6239 21.0104C18.8225 20.979 19.0069 20.8882 19.1528 20.75C19.5923 20.2284 20.0035 19.6836 20.3846 19.118C20.4977 18.9311 20.6759 18.7928 20.885 18.7295C21.094 18.6662 21.3191 18.6825 21.5168 18.7752C21.9425 18.9234 24.196 20.0368 24.6593 20.2679C25.1226 20.499 25.4333 20.6107 25.5439 20.8064C25.6624 21.5477 25.5661 22.3075 25.2663 22.9957V22.9957Z" fill="#FAFAFA"/>
</svg>
