<svg xmlns="http://www.w3.org/2000/svg" width="35.475" height="35.476" viewBox="0 0 35.475 35.476"><defs><style>.a{fill:#d1d1d1;fill-rule:evenodd;}</style></defs><path class="a" d="M89.5,37.6a11.944,11.944,0,0,1-4.018.745c-1.409.065-2.209.1-3.979.113V26.028h4.022l.6-4.851H81.5v-3.1c0-1.4.375-2.362,2.32-2.362h2.47v-4.34a31.871,31.871,0,0,0-3.6-.191c-3.567,0-6,2.261-6,6.413v3.578H72.644v4.851h4.033V38.475h.06c-5.778,0-6.463-.02-8.743-.126a11.943,11.943,0,0,1-4.018-.745A7.166,7.166,0,0,1,59.869,33.5a12,12,0,0,1-.745-4.018C59.02,27.2,59,26.513,59,20.738s.02-6.461.126-8.743a11.943,11.943,0,0,1,.745-4.018,6.7,6.7,0,0,1,1.618-2.489,6.694,6.694,0,0,1,2.489-1.618A12.007,12.007,0,0,1,68,3.124C70.277,3.023,70.961,3,76.738,3s6.461.02,8.743.126a11.944,11.944,0,0,1,4.018.745,6.679,6.679,0,0,1,2.489,1.618,6.749,6.749,0,0,1,1.618,2.489A12.007,12.007,0,0,1,94.351,12c.1,2.283.124,2.966.124,8.742s-.02,6.462-.127,8.742A11.945,11.945,0,0,1,93.6,33.5,7.165,7.165,0,0,1,89.5,37.6Z" transform="translate(-59 -3)"/></svg>