<svg xmlns="http://www.w3.org/2000/svg" width="35.475" height="35.476" viewBox="0 0 35.475 35.476"><defs><style>.a{fill:#d1d1d1;}.b{fill:#353535;}</style></defs><path class="a" d="M29.48,38.35A11.943,11.943,0,0,0,33.5,37.6,7.163,7.163,0,0,0,37.6,33.5a11.943,11.943,0,0,0,.745-4.018c.105-2.28.126-2.964.126-8.743s-.023-6.461-.126-8.743A12.007,12.007,0,0,0,37.6,7.976a6.748,6.748,0,0,0-1.618-2.489A6.686,6.686,0,0,0,33.5,3.869a11.943,11.943,0,0,0-4.018-.745C27.2,3.02,26.513,3,20.738,3s-6.461.023-8.743.126a12.007,12.007,0,0,0-4.018.745A6.7,6.7,0,0,0,5.489,5.489,6.7,6.7,0,0,0,3.871,7.976a11.943,11.943,0,0,0-.745,4.018C3.02,14.277,3,14.961,3,20.738s.02,6.461.126,8.743A12,12,0,0,0,3.871,33.5a6.71,6.71,0,0,0,1.618,2.487A6.714,6.714,0,0,0,7.977,37.6,11.944,11.944,0,0,0,12,38.35c2.28.105,2.965.126,8.742.126S27.2,38.455,29.48,38.35Z" transform="translate(-3 -3)"/><path class="b" d="M23.885,19.576a4.394,4.394,0,1,0-4.393,4.394,4.394,4.394,0,0,0,4.393-4.394Zm2.375,0a6.768,6.768,0,1,1-6.768-6.768A6.768,6.768,0,0,1,26.261,19.576ZM14.039,12.543a1.581,1.581,0,1,1-1.583-1.581h0a1.583,1.583,0,0,1,1.583,1.581ZM24.819,30.306a7.282,7.282,0,0,0,2.448-.453,4.366,4.366,0,0,0,2.5-2.5,7.277,7.277,0,0,0,.453-2.448c.064-1.389.076-1.807.076-5.321s-.014-3.935-.076-5.321a7.331,7.331,0,0,0-.453-2.448,4.366,4.366,0,0,0-2.5-2.5,7.277,7.277,0,0,0-2.448-.453c-1.389-.064-1.807-.076-5.321-.076s-3.935.014-5.321.076a7.333,7.333,0,0,0-2.448.453,4.366,4.366,0,0,0-2.5,2.5,7.277,7.277,0,0,0-.453,2.448c-.064,1.39-.076,1.807-.076,5.321s.012,3.935.076,5.321a7.311,7.311,0,0,0,.453,2.448,4.366,4.366,0,0,0,2.5,2.5,7.277,7.277,0,0,0,2.448.453c1.389.064,1.807.076,5.321.076s3.935-.012,5.321-.076Zm.109-23.827a9.664,9.664,0,0,1,3.2.606,6.738,6.738,0,0,1,3.855,3.855,9.664,9.664,0,0,1,.613,3.2c.065,1.405.079,1.854.079,5.433s-.015,4.028-.079,5.433a9.663,9.663,0,0,1-.613,3.2,6.738,6.738,0,0,1-3.855,3.86,9.674,9.674,0,0,1-3.2.613c-1.405.064-1.854.08-5.433.08s-4.028-.015-5.433-.081a9.668,9.668,0,0,1-3.2-.613,6.738,6.738,0,0,1-3.855-3.855,9.638,9.638,0,0,1-.613-3.2c-.064-1.407-.079-1.854-.079-5.433s.015-4.028.079-5.433a9.663,9.663,0,0,1,.613-3.2,6.74,6.74,0,0,1,3.853-3.86,9.651,9.651,0,0,1,3.2-.613c1.405-.064,1.854-.079,5.433-.079s4.029.015,5.435.079" transform="translate(-1.792 -2.304)"/></svg>