<svg xmlns="http://www.w3.org/2000/svg" width="35.475" height="35.476" viewBox="0 0 35.475 35.476"><defs><style>.a{fill:#d1d1d1;fill-rule:evenodd;}</style></defs><path class="a" d="M145.5,37.6a11.953,11.953,0,0,1-4.018.745c-2.28.105-2.966.126-8.742.126s-6.462-.02-8.743-.126a11.952,11.952,0,0,1-4.018-.745,7.165,7.165,0,0,1-4.106-4.106,11.96,11.96,0,0,1-.745-4.018C115.02,27.2,115,26.513,115,20.738s.02-6.461.126-8.743a11.925,11.925,0,0,1,.745-4.018,6.686,6.686,0,0,1,1.618-2.489,6.685,6.685,0,0,1,2.487-1.618,12.019,12.019,0,0,1,4.018-.745c2.283-.1,2.966-.124,8.743-.124s6.462.02,8.743.126a11.949,11.949,0,0,1,4.018.745,6.668,6.668,0,0,1,2.487,1.618A6.744,6.744,0,0,1,149.6,7.977,11.972,11.972,0,0,1,150.35,12c.1,2.283.126,2.966.126,8.743s-.02,6.462-.127,8.742A11.933,11.933,0,0,1,149.6,33.5,7.162,7.162,0,0,1,145.5,37.6ZM122.56,10.539a2.426,2.426,0,0,0-.738,1.82,2.472,2.472,0,0,0,2.592,2.558h.02a2.64,2.64,0,0,0,1.939-.727,2.376,2.376,0,0,0,.716-1.764,2.476,2.476,0,0,0-2.613-2.6,2.632,2.632,0,0,0-1.917.716Zm-.465,6.379V31.653h4.677V16.917Zm11.95,14.736h-4.679q.044-6.66.042-10.342t-.042-4.388h4.679v2.094l-.022.044h.022v-.044a4.736,4.736,0,0,1,4.23-2.448,4.926,4.926,0,0,1,3.9,1.686,7.315,7.315,0,0,1,1.48,4.952v8.446h-4.679V23.78q0-3.329-2.359-3.329a2.228,2.228,0,0,0-1.5.518,3.2,3.2,0,0,0-.9,1.268,3.322,3.322,0,0,0-.168,1.191Z" transform="translate(-115 -3)"/></svg>