<svg xmlns="http://www.w3.org/2000/svg" width="35.476" height="35.476" viewBox="0 0 35.476 35.476"><defs><style>.a{fill:#d1d1d1;fill-rule:evenodd;}</style></defs><path class="a" d="M201.5,37.6a11.95,11.95,0,0,1-4.018.745c-2.28.105-2.966.126-8.742.126s-6.462-.02-8.743-.126a11.95,11.95,0,0,1-4.018-.745A7.166,7.166,0,0,1,171.87,33.5a11.961,11.961,0,0,1-.745-4.018C171.02,27.2,171,26.513,171,20.738s.02-6.461.126-8.743a11.925,11.925,0,0,1,.745-4.018,6.686,6.686,0,0,1,1.618-2.489,6.686,6.686,0,0,1,2.487-1.618,12.019,12.019,0,0,1,4.018-.745c2.283-.1,2.966-.124,8.743-.124s6.462.02,8.743.126a11.95,11.95,0,0,1,4.018.745,6.667,6.667,0,0,1,2.487,1.618A6.745,6.745,0,0,1,205.6,7.977,11.974,11.974,0,0,1,206.35,12c.1,2.283.126,2.966.126,8.743s-.02,6.462-.127,8.742A11.934,11.934,0,0,1,205.6,33.5,7.163,7.163,0,0,1,201.5,37.6Zm-8.177-25.054h0a2.526,2.526,0,0,1-.273.045,4.238,4.238,0,0,0-.67.168,5.623,5.623,0,0,0-.868.374,4.4,4.4,0,0,0-.836.561,4.306,4.306,0,0,0-.6.61l-.136.19q-.136.183-.229.337a4.049,4.049,0,0,0-.287.617,4.576,4.576,0,0,0-.22.759,3.825,3.825,0,0,0-.059.434c-.01.123-.015.251-.015.383a4.425,4.425,0,0,0,.042.689l.042.246v.06h-.146c-.1,0-.273-.019-.546-.045s-.659-.085-1.183-.177-.892-.168-1.108-.226-.592-.184-1.13-.374a12.968,12.968,0,0,1-1.5-.64q-.7-.355-1.276-.719t-.931-.64a4.136,4.136,0,0,1-.418-.348.6.6,0,0,0-.057-.06.168.168,0,0,0-.048-.031,3.946,3.946,0,0,1-.428-.378q-.386-.364-.67-.659l-.282-.295h0l-.011-.019-.011-.019h-.02l-.01.03-.011.03-.177.374a4.494,4.494,0,0,0-.273.708,4.077,4.077,0,0,0-.125.6,4.591,4.591,0,0,0-.02.64,4.066,4.066,0,0,0,.094.759,4.341,4.341,0,0,0,.244.761,5.646,5.646,0,0,0,.31.626,3.1,3.1,0,0,0,.336.463c.082.094.162.186.244.273a1.606,1.606,0,0,0,.136.136c.049.042.12.121.177.173a2.206,2.206,0,0,0,.181.147l.18.126h0l.02.01.022.01h.007l.02.01.022.01h-.188l-.09.027c-.063,0-.254-.042-.574-.108a4.269,4.269,0,0,1-.805-.236l-.325-.136-.02-.01-.022-.01-.02-.01-.02-.01h-.042l.038.409a4.281,4.281,0,0,0,.15.819,4.585,4.585,0,0,0,.345.846,3.893,3.893,0,0,0,.523.778,5.8,5.8,0,0,0,.538.546,5.057,5.057,0,0,0,.518.388,4.433,4.433,0,0,0,.733.364l.36.143q.149.057.2.074l.146.04.042.01.041.01.042.01.042.01.041.01h0l-.052.01-.053.01-.041.01-.061.012-.169.027a5.9,5.9,0,0,1-.682.04,5.449,5.449,0,0,1-.722-.019l-.231-.03h-.063v.038l.011.03.01.03.175.359a4.768,4.768,0,0,0,.359.636,4.106,4.106,0,0,0,.443.538q.258.261.419.4a3.73,3.73,0,0,0,.529.36,5.7,5.7,0,0,0,.753.374c.153.063.3.115.439.16.1.03.191.056.281.078.127.03.233.052.322.067a1.655,1.655,0,0,0,.171.022l.169.011.154.01.168.01h-.007v.038h-.056l-.48.306q-.164.1-.3.186-.262.158-.418.232-.236.115-.794.347a8.961,8.961,0,0,1-1.228.4,11.441,11.441,0,0,1-1.161.236,9.647,9.647,0,0,1-.962.089q-.471.019-.89,0t-.512-.03l-.094-.01h-.042v.04h.018l.02.01.02.01h.014l.188.108c.126.072.237.136.338.181s.352.168.753.355a12.833,12.833,0,0,0,1.449.557c.291.094.546.173.76.236s.377.106.516.136a11.672,11.672,0,0,0,1.182.2q.562.074.77.1l.1.011c.078,0,.175.014.293.019l.177.01v.112h1.364v-.01l.742-.068q.535-.049.989-.115c.117-.016.229-.034.338-.053a11.451,11.451,0,0,0,1.213-.273q.629-.177,1.193-.383a10.213,10.213,0,0,0,1.051-.449q.487-.24.832-.427t.757-.467q.409-.281.774-.564t.409-.323l.546-.512q.5-.469.819-.843t.637-.8q.315-.423.69-1.033a12.07,12.07,0,0,0,.722-1.378,12.472,12.472,0,0,0,.585-1.575,13.291,13.291,0,0,0,.356-1.448,11.992,11.992,0,0,0,.157-1.191q.042-.551.048-.988a.915.915,0,0,1,.4-.741q.273-.2.546-.448.13-.113.258-.235a5.81,5.81,0,0,0,.443-.439.15.15,0,0,1,.059-.059,2.879,2.879,0,0,0,.282-.334l.186-.235.079-.1h.007l.011-.019.01-.019h.041v-.04h-.083l-.022.01-.02.01-.02.01-.022.01-.031.01-.063.019-.564.177a10.972,10.972,0,0,1-1.12.285l-.585.119h-.1l.022-.01.02-.01h.007l.02-.01.022-.01.1-.065a.873.873,0,0,0,.179-.136q.074-.074.3-.257a3.547,3.547,0,0,0,.506-.535,4.884,4.884,0,0,0,.471-.7,3.115,3.115,0,0,0,.2-.393c.008-.033.015-.059.022-.079l.01-.03.011-.019.011-.019.01-.03.011-.03.007-.03v-.03h-.049l-.022.01-.02.01-.02.01-.022.01h0l-.029.016-.075.042q-.057.03-.233.108l-.327.136q-.461.2-.931.355-.273.093-.532.161c-.12.033-.235.06-.347.085a.64.64,0,0,1-.6-.094,3.309,3.309,0,0,0-.439-.342c-.1-.063-.2-.126-.3-.187l-.246-.136a5.2,5.2,0,0,0-.628-.273,4.455,4.455,0,0,0-.722-.191l-.349-.15Z" transform="translate(-171 -3)"/></svg>