<svg xmlns="http://www.w3.org/2000/svg" xmlns:xlink="http://www.w3.org/1999/xlink" width="1440" height="508" viewBox="0 0 1440 508">
  <defs>
    <clipPath id="clip-path">
      <rect id="Rectangle_150" data-name="Rectangle 150" width="1440" height="508" transform="translate(0 671)" fill="#fff"/>
    </clipPath>
    <clipPath id="clip-path-2">
      <rect id="Rectangle_143" data-name="Rectangle 143" width="401" height="509" transform="translate(543 671)" fill="#fff"/>
    </clipPath>
    <filter id="Rectangle_144" x="220" y="113" width="356" height="174" filterUnits="userSpaceOnUse">
      <feOffset dy="5" input="SourceAlpha"/>
      <feGaussianBlur stdDeviation="17" result="blur"/>
      <feFlood flood-opacity="0.078"/>
      <feComposite operator="in" in2="blur"/>
      <feComposite in="SourceGraphic"/>
    </filter>
    <filter id="Rectangle_146" x="957" y="192" width="280" height="138" filterUnits="userSpaceOnUse">
      <feOffset dy="5" input="SourceAlpha"/>
      <feGaussianBlur stdDeviation="11" result="blur-2"/>
      <feFlood flood-opacity="0.161"/>
      <feComposite operator="in" in2="blur-2"/>
      <feComposite in="SourceGraphic"/>
    </filter>
    <linearGradient id="linear-gradient" x1="-0.089" y1="1.249" x2="-0.047" y2="1.229" gradientUnits="objectBoundingBox">
      <stop offset="0" stop-color="#fff" stop-opacity="0.2"/>
      <stop offset="1" stop-color="#fff" stop-opacity="0"/>
    </linearGradient>
    <filter id="Rectangle_148" x="809" y="40" width="301" height="138" filterUnits="userSpaceOnUse">
      <feOffset dy="5" input="SourceAlpha"/>
      <feGaussianBlur stdDeviation="11" result="blur-3"/>
      <feFlood flood-opacity="0.161"/>
      <feComposite operator="in" in2="blur-3"/>
      <feComposite in="SourceGraphic"/>
    </filter>
  </defs>
  <g id="Affiliate_top_infographic" transform="translate(0 -671)" clip-path="url(#clip-path)">
    <g id="Group_79557" data-name="Group 79557">
      <g id="circles">
        <path id="Path_67603" data-name="Path 67603" d="M1321,1278c0,331.37-268.85,600-600.5,600S120,1609.37,120,1278,388.853,678,720.5,678,1321,946.629,1321,1278Z" fill="#f7f7ff" opacity="0.64"/>
        <path id="Path_67604" data-name="Path 67604" d="M1213.515,1224.3c0,301.714-244.789,546.3-546.757,546.3S120,1526.016,120,1224.3,364.792,678,666.757,678,1213.515,922.588,1213.515,1224.3Z" transform="translate(53.743 53.698)" fill="#f2f2ff"/>
        <path id="Path_67605" data-name="Path 67605" d="M1137.107,1186.13c0,280.632-227.685,508.13-508.553,508.13S120,1466.761,120,1186.13,347.687,678,628.553,678,1137.107,905.5,1137.107,1186.13Z" transform="translate(91.947 91.87)" fill="#ebebf9"/>
      </g>
      <g id="Group_79546" data-name="Group 79546" clip-path="url(#clip-path-2)">
        <path id="Path_67606" data-name="Path 67606" d="M669.118,808.171c-5,8.062-2.545,18.427-.783,27.755s1.919,20.67-5.657,26.364c-2.866,2.155-6.645,3.284-8.636,6.271-5.037,7.562,5.706,18.657.757,26.272-4.9,7.536-19.356,2.568-23.724,10.422-3.638,6.542,3.141,17.148-3.119,21.234a17.18,17.18,0,0,1-6.51,1.592c-8.857,1.612-14.736,11.463-13.622,20.425s7.959,16.492,16.134,20.269a52.653,52.653,0,0,0,26.474,3.566c8.974-.739,17.813-2.667,26.776-3.54,38.58-3.757,76.962,12.106,115.6,9.024,6.889-.548,14.074-1.843,19.45-6.205s8.157-12.6,4.478-18.466c-3.346-5.339-10.3-6.787-16.451-8.077s-13.118-3.642-15.317-9.547c-1.608-4.3-.081-9.038.918-13.511s1.233-9.829-2.122-12.945c-4.432-4.118-12.961-2.213-16.075-7.4-2.09-3.471-.216-8.041,2.478-11.056s6.214-5.371,8.2-8.9a18.336,18.336,0,0,0,.328-14.971,118.849,118.849,0,0,0-7-13.753c-6.074-11.809-8.557-25.355-15.671-36.567a50.666,50.666,0,0,0-80.912-6.321" fill="#d3d3d3"/>
        <path id="Path_67607" data-name="Path 67607" d="M893.727,969.8s22.734-51.527,26.948-61.664a84.3,84.3,0,0,0,2.159-11.024c.489-4.837.14-7.085.918-6.8a15.125,15.125,0,0,1,3.5,10.943c-.63,5.121-4.134,15.854-3.776,18.519s.629,4.07,2.588,4.56,14.617,3.778,15.177,5.713a26.9,26.9,0,0,1,.63,5.3s2.725.634,2.027,2.667-1.818,5.19-1.818,5.19,2.239.352.28,3.648a12.363,12.363,0,0,1-4.2,4.489s1.957,2.6-.689,2.946-20.353.212-20.353.212-1.258.421-2.726,5.4-5.316,17.4-5.316,17.4Z" fill="#fcbda4"/>
        <path id="Path_67608" data-name="Path 67608" d="M920.365,939.084a25.726,25.726,0,0,0,2.407-17.482" fill="none" stroke="#f07d6a" stroke-miterlimit="10" stroke-width="0.02"/>
        <path id="Path_67609" data-name="Path 67609" d="M942.243,935.735a11.77,11.77,0,0,1-6.163,4.1,19.9,19.9,0,0,1-10.688-1.345l-1.532-.631a4.521,4.521,0,0,1,2.32-3.322,6.2,6.2,0,0,1,3.229-.133,16.673,16.673,0,0,0,3.24.41,5.974,5.974,0,0,0,4.655-2.573" fill="none" stroke="#f07d6a" stroke-miterlimit="10" stroke-width="0.02"/>
        <path id="Path_67610" data-name="Path 67610" d="M927.275,943.874a12.687,12.687,0,0,0,15.271-1.52" fill="none" stroke="#f07d6a" stroke-miterlimit="10" stroke-width="0.02"/>
        <path id="Path_67611" data-name="Path 67611" d="M926.924,948.3a22.665,22.665,0,0,0,5.8,2.2,7.646,7.646,0,0,0,5.946-1.131" fill="none" stroke="#f07d6a" stroke-miterlimit="10" stroke-width="0.02"/>
        <path id="Path_67612" data-name="Path 67612" d="M825,981.126s.551,1.025,1.518,2.784c6.2,11.286,21.524,30.69,28.246,30.69,7.888,0,41.18-59.195,41.18-59.195l21.666,9.307s-22.7,166.618-116.957,73.948" fill="#5d5fef"/>
        <path id="Path_67613" data-name="Path 67613" d="M926.359,939.084s-4.906-1.5-4.494-1.91,4.96-.322,4.96.673Z" fill="#5858e0"/>
        <path id="Path_67614" data-name="Path 67614" d="M927.094,943.531a.9.9,0,0,0,.567.242.59.59,0,0,0,.526-.288.668.668,0,0,0-.115-.709,1.964,1.964,0,0,0-.609-.461,11,11,0,0,0-1.761-.836,3.671,3.671,0,0,0-1.92-.173c-.259.056-.549.187-.606.447a.542.542,0,0,0,.191.5,1.5,1.5,0,0,0,.489.26,22.535,22.535,0,0,0,3.8,1.251" fill="#5858e0"/>
        <path id="Path_67615" data-name="Path 67615" d="M928.823,948.958c.158.138-.209,0,0,0a.6.6,0,0,0,.3-.072.6.6,0,0,0,.224-.216.667.667,0,0,0-.115-.709,1.978,1.978,0,0,0-.611-.45,10.983,10.983,0,0,0-1.759-.836,3.669,3.669,0,0,0-1.922-.17c-.257.053-.547.186-.6.444a.544.544,0,0,0,.03.274.553.553,0,0,0,.161.224,1.506,1.506,0,0,0,.489.26A22.526,22.526,0,0,0,928.823,948.958Z" fill="#5858e0"/>
        <path id="Path_67616" data-name="Path 67616" d="M922.8,897.855a1.258,1.258,0,0,0,1.4-.532,3.2,3.2,0,0,0,.459-1.53,16.1,16.1,0,0,0-.23-4.922c-.08-.4-.3-.894-.709-.852s-.522.56-.538.963c-.1,2.4-.445,4.47-.39,6.873" fill="#5858e0"/>
        <path id="Path_67617" data-name="Path 67617" d="M829.985,993.287s-20.726-57.414-105.866-59.5c-63.363-1.555-97.857,23.906-107.771,54.5" fill="#5d5fef"/>
        <path id="Path_67618" data-name="Path 67618" d="M676.122,860.092a18.771,18.771,0,0,1-12.171-20.038,10.36,10.36,0,0,1,1.756-4.9,5.484,5.484,0,0,1,4.465-2.354" fill="#fffefe"/>
        <path id="Path_67619" data-name="Path 67619" d="M765.962,862.739a18.773,18.773,0,0,0,11.3-20.534,10.36,10.36,0,0,0-1.961-4.821,5.5,5.5,0,0,0-4.563-2.163" fill="#fff"/>
        <path id="Path_67620" data-name="Path 67620" d="M766.964,860.092c-3.112,10.84-4.648,14.866-13.972,21.172-8.329,5.634-20.734-.23-30.717.894-10.763,1.225-25.763,3.284-35.062-2.29-6.93-4.146-9.849-10.219-12.7-17.8s-2.425-18.3-3.509-26.322c-1.754-12.982-5.479-30.256,2.494-40.644,6.533-8.508,20.011-9.142,30.43-11.611,10.015-2.375,7.36-20.96,17.57-22.234a40.1,40.1,0,0,1,31.5,10.994,44.389,44.389,0,0,1,7.036,9.393,83.529,83.529,0,0,1,11.282,46.418A149.214,149.214,0,0,1,766.964,860.092Z" fill="#d3d3d3"/>
        <path id="Path_67621" data-name="Path 67621" d="M724.429,765.706c35.708,4.445,41.488,38.868,41.534,64.853.062,34.181-11.907,73.768-38.677,74.857-44.08,1.8-52.795-39.863-51.865-58.692,2.432-49.21,2.166-81.044,47.865-81.009A9.9,9.9,0,0,1,724.429,765.706Z" fill="#fffcfb"/>
        <path id="Path_67622" data-name="Path 67622" d="M745.651,893.589l-4.673,47.994a24.463,24.463,0,0,1-48.767-3.851l2.845-47.725Z" fill="#fff"/>
        <path id="Path_67623" data-name="Path 67623" d="M730.278,825c.264.661,5.721-1.3,12.654-1.062,6.939.136,12.279,2.393,12.579,1.748.136-.276-1.047-1.232-3.274-2.2a26.269,26.269,0,0,0-18.569-.505C731.39,823.831,730.159,824.721,730.278,825Z" fill="#471c3a"/>
        <path id="Path_67624" data-name="Path 67624" d="M709.133,837.46a15.926,15.926,0,0,0-27.38.921" fill="none" stroke="#340605" stroke-miterlimit="10" stroke-width="0.1"/>
        <path id="Path_67625" data-name="Path 67625" d="M700.326,831.216a12.63,12.63,0,0,1-.944,7.815,3.3,3.3,0,0,1-1.933,1.992,2.518,2.518,0,0,1-2.311-.668,4.719,4.719,0,0,1-1.164-2.057,11.828,11.828,0,0,1-.425-5.431,4.04,4.04,0,0,1,1.521-2.883,3.478,3.478,0,0,1,3.019-.256,5.814,5.814,0,0,1,2.419,1.783" fill="#340605"/>
        <path id="Path_67626" data-name="Path 67626" d="M682.816,827.526c.355.617,5.511-2.181,12.471-2.815,6.959-.746,12.555.984,12.785.309.1-.286-1.178-1.124-3.523-1.843a25.488,25.488,0,0,0-18.64,1.843C683.75,826.192,682.655,827.266,682.816,827.526Z" fill="#471c3a"/>
        <path id="Path_67627" data-name="Path 67627" d="M735.273,872c-6.542,2.359-13.5,4.752-20.307,3.329-5.679-1.189-10.465-4.886-15.033-8.474" fill="none" stroke="#f07d6a" stroke-miterlimit="10" stroke-width="0.05"/>
        <path id="Path_67628" data-name="Path 67628" d="M728.48,875.167c-2.487-2.533-4.531-2.3-7.865-1.559a7.748,7.748,0,0,1-3.656.461,9.4,9.4,0,0,1-2.538-1.532,7.508,7.508,0,0,0-7.69-.329" fill="none" stroke="#f07d6a" stroke-miterlimit="10" stroke-width="0.25" opacity="0.4"/>
        <path id="Path_67629" data-name="Path 67629" d="M728.74,875.209a15.237,15.237,0,0,1-13,4.468,11.27,11.27,0,0,1-9.269-9.535" fill="none" stroke="#f07d6a" stroke-miterlimit="10" stroke-width="0.25" opacity="0.4"/>
        <path id="Path_67630" data-name="Path 67630" d="M736.692,901.906a44.494,44.494,0,0,1-33.275-1.746" fill="none" stroke="#f07d6a" stroke-miterlimit="10" stroke-width="0.05"/>
        <path id="Path_67631" data-name="Path 67631" d="M745.972,830.53A13.865,13.865,0,0,1,744.9,839.2a3.673,3.673,0,0,1-2.177,2.211,2.87,2.87,0,0,1-2.595-.734,5.206,5.206,0,0,1-1.3-2.278,12.93,12.93,0,0,1-.459-6.026c.19-1.2.9-2.561,2.2-2.494,2.379.124,1.282-.261,2.379.124s2.527.018,3.241.857" fill="#340605"/>
        <path id="Path_67632" data-name="Path 67632" d="M756.9,837.875a17.077,17.077,0,0,0-29.359.988" fill="none" stroke="#340605" stroke-miterlimit="10" stroke-width="0.1"/>
        <path id="Path_67633" data-name="Path 67633" d="M563.4,1010.73a3.8,3.8,0,0,1-3.243-3.96.2.2,0,0,1,.124-.21c.085-.01.136.06.179.12C561.4,1007.99,562.49,1009.33,563.4,1010.73Z" fill="#4285e5"/>
        <path id="Path_67634" data-name="Path 67634" d="M716.172,826.142q2.173,14.533,4.363,29.074l-11.078-2.955a15.657,15.657,0,0,0,9.562,10.349" fill="none" stroke="#f07d6a" stroke-miterlimit="10" stroke-width="0.05"/>
        <path id="Path_67635" data-name="Path 67635" d="M721.59,761.05c-9.528-.677-26.087,5.592-36.042,15.757-5.151,5.26-14.739,17.952-15.492,25.288s6.244,8.478,12.614,12.156,15.788,1.7,19.084-4.892a17.487,17.487,0,0,0,25.233-1.562c.891,3.713,5.192,5.528,9,5.632s7.618-.956,11.391-.447c5.444.735,11.022,4.618,15.951,2.17a9.34,9.34,0,0,0,4.567-8.483,23.885,23.885,0,0,0-2.733-9.7c-4.544-9.883-10.641-19.347-19.358-25.824S732.317,761.405,721.59,761.05Z" fill="#d3d3d3"/>
        <path id="Path_67636" data-name="Path 67636" d="M672.374,806.366a23.352,23.352,0,0,0-1.938-18.673,16.792,16.792,0,0,0-16.3-8.073,13.275,13.275,0,0,0-11.1,13.575c.661,6.793,7.034,11.558,13.337,14.126a25,25,0,0,0,9.593,2.168,12.48,12.48,0,0,0,8.956-3.561" fill="#d3d3d3"/>
        <path id="Path_67637" data-name="Path 67637" d="M670.837,795.128a35.911,35.911,0,0,1-23.572,33.386" fill="none" stroke="#f29165" stroke-miterlimit="10" stroke-width="0.05"/>
        <path id="Path_67638" data-name="Path 67638" d="M672.17,803.284a30.816,30.816,0,0,1-27.587,13.642" fill="none" stroke="#f29165" stroke-miterlimit="10" stroke-width="0.05"/>
        <path id="Path_67639" data-name="Path 67639" d="M769.031,803.523a71.918,71.918,0,0,0,12.46,57.44c3.445,4.625,7.723,9.635,6.908,15.354-1.006,7.052-8.867,10.489-13.88,15.535a15.967,15.967,0,0,0-4.9,14.207c1.148,5.1,6.531,9.252,11.569,7.91s7.323-9.018,3.215-12.245" fill="none" stroke="#f29165" stroke-miterlimit="10" stroke-width="0.05"/>
        <path id="Path_67640" data-name="Path 67640" d="M666.918,817.5a90.891,90.891,0,0,1,3.293,23.049,30.546,30.546,0,0,1-8.3,21.19c-5.032,4.849-12.973,8.658-12.757,15.663.188,6.078,6.889,12.3,3.275,17.173-2.788,3.752-8.545,2.048-13.207,1.887a17.241,17.241,0,0,0-17.1,14.86c-.712,6.579,2.473,13.419.4,19.7a12.247,12.247,0,0,1-21.915,2.842,8.85,8.85,0,0,1-.583-9.308,5.616,5.616,0,0,1,8.421-1.257c2.216,2.421-.035,7.37-3.245,6.707" fill="none" stroke="#f29165" stroke-miterlimit="10" stroke-width="0.05"/>
        <path id="Path_67641" data-name="Path 67641" d="M663.808,941.258v41.033h11.549l.347-43.451Z" fill="#f2a0db"/>
        <path id="Path_67642" data-name="Path 67642" d="M761.549,936.953v44.209H773.1l.31-38.808Z" fill="#f2a0db"/>
        <path id="Path_67643" data-name="Path 67643" d="M565.9,1061.89c4.246-.46,30.866-5.83,49.587-1.61l.282-17.47s-30.117-3.34-39.5-15.37-16.018-20.89-16.018-20.89-2.345,3.78,1.52,10.4,11.5,16.26,10.1,18.15-20.473,2.81-19.272,6.98,4.363,3.92,4.363,3.92-5.741,1.61-4.822,4.54a6.619,6.619,0,0,0,3.807,3.95s-5.644,2.35-3.277,4.53a11.328,11.328,0,0,0,3.576,2.09,12.2,12.2,0,0,0,4.271.77h5.358" fill="#f5ad8c"/>
        <path id="Path_67644" data-name="Path 67644" d="M560.483,1040.72s26.849,1.21,25.644,3.63-27.022,1.55-27.022,1.55Z" fill="#f5ad8c"/>
        <path id="Path_67645" data-name="Path 67645" d="M558.232,1046.05s26.85,1.21,25.647,3.62-27.023,1.56-27.023,1.56Z" fill="#f5ad8c"/>
        <path id="Path_67646" data-name="Path 67646" d="M557.72,1053.26s26.726-2.87,25.9-.29-26.48,5.62-26.48,5.62Z" fill="#f5ad8c"/>
        <path id="Path_67647" data-name="Path 67647" d="M581.548,1045.39a.851.851,0,0,1-.141-.33.873.873,0,0,1,.006-.36.884.884,0,0,1,.151-.33.852.852,0,0,1,.271-.24,2.548,2.548,0,0,1,1.437-.25l2.556.06c.324,0,.735.08.8.4.071.36-.381.58-.742.66a21.643,21.643,0,0,1-4.682.43" fill="#cc5fe7"/>
        <path id="Path_67648" data-name="Path 67648" d="M578.735,1055.14a.968.968,0,0,1-.221-.33.935.935,0,0,1-.072-.39.955.955,0,0,1,.092-.38.869.869,0,0,1,.237-.31,2.687,2.687,0,0,1,1.479-.58l2.745-.49c.346-.06.8-.07.937.26.153.37-.285.7-.653.86A20.56,20.56,0,0,1,578.735,1055.14Z" fill="#cc5fe7"/>
        <path id="Path_67649" data-name="Path 67649" d="M564.515,1058.43s16.994-2.28,16.5-.62-16.78,4.02-16.78,4.02Z" fill="#f5ad8c"/>
        <path id="Path_67650" data-name="Path 67650" d="M577.279,1059.09a.688.688,0,0,1-.131-.21.613.613,0,0,1-.036-.25.558.558,0,0,1,.065-.23.51.51,0,0,1,.155-.19,1.676,1.676,0,0,1,.937-.33l1.72-.23c.218-.03.5-.02.578.18s-.193.43-.427.52a12.306,12.306,0,0,1-2.861.74" fill="#cc5fe7"/>
        <path id="Path_67651" data-name="Path 67651" d="M578.978,1050.78a1,1,0,0,1-.145-.35.914.914,0,0,1,.01-.38.894.894,0,0,1,.162-.35.935.935,0,0,1,.288-.25,2.707,2.707,0,0,1,1.509-.25l2.684.09c.34.02.769.1.834.43.071.38-.407.61-.786.68A19.361,19.361,0,0,1,578.978,1050.78Z" fill="#cc5fe7"/>
        <path id="Path_67652" data-name="Path 67652" d="M571.365,1047.28l-13.431-.68" fill="none" stroke="#f07d6a" stroke-miterlimit="10" stroke-width="0.02"/>
        <path id="Path_67653" data-name="Path 67653" d="M571.173,1041.15q-5.893-.45-11.811-.35" fill="none" stroke="#f07d6a" stroke-miterlimit="10" stroke-width="0.02"/>
        <path id="Path_67654" data-name="Path 67654" d="M571.747,1051.27l-14.7.66" fill="none" stroke="#f07d6a" stroke-miterlimit="10" stroke-width="0.02"/>
        <path id="Path_67655" data-name="Path 67655" d="M571.515,1057.55a113.3,113.3,0,0,0-17.7,2.11" fill="none" stroke="#f07d6a" stroke-miterlimit="10" stroke-width="0.02"/>
        <path id="Path_67656" data-name="Path 67656" d="M752.769,969.16l-3.9,4.607" fill="none" stroke="#6d3e67" stroke-miterlimit="10" stroke-width="0.05"/>
        <path id="Path_67657" data-name="Path 67657" d="M739.565,962.377a15.885,15.885,0,0,0,6.173,1.548" fill="none" stroke="#6d3e67" stroke-miterlimit="10" stroke-width="0.05"/>
        <path id="Path_67658" data-name="Path 67658" d="M754.538,950.05l-4.9,5.143" fill="none" stroke="#6d3e67" stroke-miterlimit="10" stroke-width="0.05"/>
        <path id="Path_67659" data-name="Path 67659" d="M746,942.817l4.885-.255" fill="none" stroke="#6d3e67" stroke-miterlimit="10" stroke-width="0.05"/>
        <path id="Path_67660" data-name="Path 67660" d="M780.471,963.137a26.607,26.607,0,0,1,4.072,6.73" fill="none" stroke="#6d3e67" stroke-miterlimit="10" stroke-width="0.05"/>
        <path id="Path_67661" data-name="Path 67661" d="M786.111,954.382a16.25,16.25,0,0,0,3.344,4.9" fill="none" stroke="#6d3e67" stroke-miterlimit="10" stroke-width="0.05"/>
        <path id="Path_67662" data-name="Path 67662" d="M794.062,973.955l6.127-6.771" fill="none" stroke="#6d3e67" stroke-miterlimit="10" stroke-width="0.05"/>
        <path id="Path_67663" data-name="Path 67663" d="M806.439,976.858l4.118-1.016" fill="none" stroke="#6d3e67" stroke-miterlimit="10" stroke-width="0.05"/>
        <path id="Path_67664" data-name="Path 67664" d="M863.517,1037.18a15.292,15.292,0,0,1,1.543,5.15" fill="none" stroke="#6d3e67" stroke-miterlimit="10" stroke-width="0.05"/>
        <path id="Path_67665" data-name="Path 67665" d="M853.486,1048.78a21,21,0,0,0,5.4,4.13" fill="none" stroke="#6d3e67" stroke-miterlimit="10" stroke-width="0.05"/>
        <path id="Path_67666" data-name="Path 67666" d="M857.859,1026.61l-2.315,5.41" fill="none" stroke="#6d3e67" stroke-miterlimit="10" stroke-width="0.05"/>
        <path id="Path_67667" data-name="Path 67667" d="M871.782,1012.43l-3.3,6.99" fill="none" stroke="#6d3e67" stroke-miterlimit="10" stroke-width="0.05"/>
        <path id="Path_67668" data-name="Path 67668" d="M874.292,1031.81l6.159,3.12" fill="none" stroke="#6d3e67" stroke-miterlimit="10" stroke-width="0.05"/>
        <path id="Path_67669" data-name="Path 67669" d="M736.192,971.118l-4.8,4.728" fill="none" stroke="#6d3e67" stroke-miterlimit="10" stroke-width="0.05"/>
        <path id="Path_67670" data-name="Path 67670" d="M700.478,973.983a16.881,16.881,0,0,0,6.684,2.322" fill="none" stroke="#6d3e67" stroke-miterlimit="10" stroke-width="0.05"/>
        <path id="Path_67671" data-name="Path 67671" d="M712.846,972.726l4.914-3.831" fill="none" stroke="#6d3e67" stroke-miterlimit="10" stroke-width="0.05"/>
        <path id="Path_67672" data-name="Path 67672" d="M683.247,968.824a16.251,16.251,0,0,0,.772,6.707" fill="none" stroke="#6d3e67" stroke-miterlimit="10" stroke-width="0.05"/>
        <path id="Path_67673" data-name="Path 67673" d="M688.908,969.86l6.079-4.146" fill="none" stroke="#6d3e67" stroke-miterlimit="10" stroke-width="0.05"/>
        <path id="Path_67674" data-name="Path 67674" d="M681.557,955.386a8.363,8.363,0,0,0,3.851,5.192" fill="none" stroke="#6d3e67" stroke-miterlimit="10" stroke-width="0.05"/>
        <path id="Path_67675" data-name="Path 67675" d="M691.6,944.738a31.343,31.343,0,0,0-3.9,6.839" fill="none" stroke="#6d3e67" stroke-miterlimit="10" stroke-width="0.05"/>
        <path id="Path_67676" data-name="Path 67676" d="M686.045,937.844l-5.107,5.706" fill="none" stroke="#6d3e67" stroke-miterlimit="10" stroke-width="0.05"/>
        <path id="Path_67677" data-name="Path 67677" d="M652.831,954.684l4.134,5.917" fill="none" stroke="#6d3e67" stroke-miterlimit="10" stroke-width="0.05"/>
        <path id="Path_67678" data-name="Path 67678" d="M637.98,967.271l5.144-6.705" fill="none" stroke="#6d3e67" stroke-miterlimit="10" stroke-width="0.05"/>
        <path id="Path_67679" data-name="Path 67679" d="M649.044,965.988l3.6,5.934" fill="none" stroke="#6d3e67" stroke-miterlimit="10" stroke-width="0.05"/>
        <path id="Path_67680" data-name="Path 67680" d="M631.808,976.786a24.431,24.431,0,0,1,8.751-.725" fill="none" stroke="#6d3e67" stroke-miterlimit="10" stroke-width="0.05"/>
        <path id="Path_67681" data-name="Path 67681" d="M881.326,1022.84l8.267-4.34" fill="none" stroke="#6d3e67" stroke-miterlimit="10" stroke-width="0.05"/>
        <path id="Path_67682" data-name="Path 67682" d="M875.665,1002.65a21.476,21.476,0,0,0,2.319,8.37" fill="none" stroke="#6d3e67" stroke-miterlimit="10" stroke-width="0.05"/>
        <path id="Path_67683" data-name="Path 67683" d="M884.853,1012.34l5.1-5.11" fill="none" stroke="#6d3e67" stroke-miterlimit="10" stroke-width="0.05"/>
        <path id="Path_67684" data-name="Path 67684" d="M883.542,991.967a9.141,9.141,0,0,0,.473,6.042" fill="none" stroke="#6d3e67" stroke-miterlimit="10" stroke-width="0.05"/>
        <path id="Path_67685" data-name="Path 67685" d="M900.329,1013.87l3.706-6.98" fill="none" stroke="#6d3e67" stroke-miterlimit="10" stroke-width="0.05"/>
        <path id="Path_67686" data-name="Path 67686" d="M884.722,1042.5l7.06-10.15" fill="none" stroke="#6d3e67" stroke-miterlimit="10" stroke-width="0.05"/>
        <path id="Path_67687" data-name="Path 67687" d="M872.422,1054.27l5.562-3.72" fill="none" stroke="#6d3e67" stroke-miterlimit="10" stroke-width="0.05"/>
        <path id="Path_67688" data-name="Path 67688" d="M895.6,995.222a13.97,13.97,0,0,0,2.781,7.438" fill="none" stroke="#6d3e67" stroke-miterlimit="10" stroke-width="0.05"/>
        <path id="Path_67689" data-name="Path 67689" d="M908.465,986.762l-5.9,7.994" fill="none" stroke="#6d3e67" stroke-miterlimit="10" stroke-width="0.05"/>
        <path id="Path_67690" data-name="Path 67690" d="M890.523,978.47a15.062,15.062,0,0,0,5.052,6.564" fill="none" stroke="#6d3e67" stroke-miterlimit="10" stroke-width="0.05"/>
        <path id="Path_67691" data-name="Path 67691" d="M902.531,980.313,909,977.021" fill="none" stroke="#6d3e67" stroke-miterlimit="10" stroke-width="0.05"/>
        <path id="Path_67692" data-name="Path 67692" d="M897.426,966.871l2.322,7.437" fill="none" stroke="#6d3e67" stroke-miterlimit="10" stroke-width="0.05"/>
        <path id="Path_67693" data-name="Path 67693" d="M906.254,966.509l6.953.426" fill="none" stroke="#6d3e67" stroke-miterlimit="10" stroke-width="0.05"/>
        <path id="Path_67694" data-name="Path 67694" d="M762.116,862.536s-.018.343-.129,1.046c0,.018.019.018,0,.037a30.394,30.394,0,0,1-.712,3.535l-.018.053c-.092.415-.23.866-.347,1.352-.073.27-.147.541-.229.829-.292,1.009-.657,2.165-1.077,3.428l-2.869,6.836-.8,1.93-.568,1.334-1.058,2.533v.019a60.038,60.038,0,0,1-5.078,7.177c-.328.4-.638.776-.987,1.151-.292.343-.586.668-.9.993a6.115,6.115,0,0,1-.475.5,11.684,11.684,0,0,1-.822.848,44.149,44.149,0,0,1-10.483,7.877,41.454,41.454,0,0,1-12.768,4.4c-1.1.2-2.228.362-3.381.461H719.4c-.42.036-.822.089-1.243.126-.9.053-1.754.09-2.594.108h-.513c-.459,0-.918-.018-1.377-.036a32.484,32.484,0,0,1-6.265-.811,28.685,28.685,0,0,1-4.476-1.426,31.258,31.258,0,0,1-4.731-2.381,40.543,40.543,0,0,1-13.937-15.854c-.459-.848-.877-1.732-1.279-2.58-.073-.161-.147-.324-.229-.486-.129-.324-.274-.631-.421-.937-.229-.523-.438-1.027-.638-1.534-.055-.18-.147-.325-.2-.486-.037-.071-.055-.145-.092-.217-.184-.486-.365-.974-.549-1.441v-.019c-.229-.649-.459-1.262-.656-1.875a.052.052,0,0,1-.019-.037q-.355-1.055-.657-2.057c-.273-.866-.512-1.713-.73-2.533-.073-.217-.129-.461-.184-.668s-.128-.461-.183-.691c-.675-2.534-1.114-4.779-1.424-6.546-.459-2.6-.6-4.185-.6-4.185s.933-.505,2.685-1.3c.383-.161.8-.343,1.279-.541.785-.325,1.662-.691,2.648-1.046.918-.362,1.917-.7,2.985-1.083.147-.053.31-.108.475-.161a100.165,100.165,0,0,1,20.057-4.418,2.033,2.033,0,0,1,.46-.053c2.027-.23,4.133-.4,6.264-.486.365-.018.712-.036,1.077-.036,1.645-.072,3.326-.109,5.023-.056,2.066.037,4.055.145,5.991.288h.037c3.086.217,6.065.594,8.878,1.027,3.362.542,6.485,1.173,9.316,1.859,1.936.461,3.709.922,5.372,1.408.459.126.918.269,1.378.4,1.077.324,2.082.649,3.031.956.42.145.84.287,1.224.414.767.27,1.46.523,2.1.758.459.18.877.343,1.279.5a3.487,3.487,0,0,1,.384.145C760.8,861.887,762.116,862.536,762.116,862.536Z" fill="#20c58b"/>
        <path id="Path_67695" data-name="Path 67695" d="M772.381,835.459a2.931,2.931,0,0,0-1.913.257,1.947,1.947,0,0,0-2.136.187c-5,3.31-8.549,24.645-8.588,24.85-.053.373-.246.629-.46.629a.291.291,0,0,1-.142-.046,1.063,1.063,0,0,1-.326-1.073c.142-.91,3.72-22.379,9.174-25.993,1.431-.954,2.875-.629,4.269,1A1.366,1.366,0,0,1,772.381,835.459Z" fill="#2d2227"/>
        <path id="Path_67696" data-name="Path 67696" d="M767.779,862.389a158.293,158.293,0,0,1-11.712,18.979c-.094.106-.209.209-.3.209-.264,0-.53-.417-.645-1.151a3.986,3.986,0,0,1,.342-2.61A146.564,146.564,0,0,0,764.4,863.84C765.5,863.427,766.7,862.9,767.779,862.389Z" fill="#2d2227"/>
        <path id="Path_67697" data-name="Path 67697" d="M683.645,862.1a.516.516,0,0,1-.2.025c-.262,0-.494-.209-.575-.58-1.77-7.453-7.491-27.073-12.671-28.443a2.344,2.344,0,0,0-2.281.672,5.856,5.856,0,0,0-2.342,1.207,1.071,1.071,0,0,1,.131-.649c1.426-2.417,3-3.391,4.705-2.949,6.968,1.843,13.345,28.464,13.623,29.6a1.012,1.012,0,0,1-.395,1.115Z" fill="#2d2227"/>
        <path id="Path_67698" data-name="Path 67698" d="M685.629,879.986c-.124.79-.416,1.239-.689,1.239a.579.579,0,0,1-.354-.23,181.949,181.949,0,0,1-14.327-23.112,3.976,3.976,0,0,1-.312-1.179,11.72,11.72,0,0,0,3.58,2.073,165.15,165.15,0,0,0,11.741,18.4A4.33,4.33,0,0,1,685.629,879.986Z" fill="#2d2227"/>
        <path id="Path_67699" data-name="Path 67699" d="M716.277,866.977a.676.676,0,0,1-.675-.677v-8.606a.672.672,0,0,1,.183-.5.674.674,0,0,1,.982,0,.683.683,0,0,1,.183.5V866.3a.678.678,0,0,1-.673.675Z" fill="#fcddbc"/>
        <path id="Path_67700" data-name="Path 67700" d="M720.525,862.4H711.8a.677.677,0,0,1,0-1.352h8.726a.672.672,0,0,1,.452.211.678.678,0,0,1,0,.929A.673.673,0,0,1,720.525,862.4Z" fill="#fcddbc"/>
        <path id="Path_67701" data-name="Path 67701" d="M728.505,879.237a.676.676,0,0,1-.675-.677v-8.607a.672.672,0,0,1,.04-.271.673.673,0,0,1,1.125-.234.7.7,0,0,1,.144.234.67.67,0,0,1,.039.271v8.607a.679.679,0,0,1-.2.478A.671.671,0,0,1,728.505,879.237Z" fill="#fcddbc"/>
        <path id="Path_67702" data-name="Path 67702" d="M732.749,874.658h-8.726a.676.676,0,0,1-.271-.039.679.679,0,0,1-.389-.905.678.678,0,0,1,.157-.224.66.66,0,0,1,.232-.144.677.677,0,0,1,.271-.04h8.726a.67.67,0,0,1,.27.04.673.673,0,0,1,.389.368.68.68,0,0,1-.156.761.685.685,0,0,1-.233.144A.669.669,0,0,1,732.749,874.658Z" fill="#fcddbc"/>
        <path id="Path_67703" data-name="Path 67703" d="M737.11,867.956a.678.678,0,0,1-.675-.677v-8.608a.677.677,0,0,1,.04-.271.674.674,0,0,1,1.268,0,.676.676,0,0,1,.04.271v8.61a.678.678,0,0,1-.673.675Z" fill="#fcddbc"/>
        <path id="Path_67704" data-name="Path 67704" d="M741.368,863.377h-8.727a.677.677,0,0,1,0-1.352h8.727a.677.677,0,0,1,0,1.352Z" fill="#fcddbc"/>
        <path id="Path_67705" data-name="Path 67705" d="M752.652,858.139v6.205a.677.677,0,0,1-.674.717.675.675,0,0,1-.634-.446.677.677,0,0,1-.04-.271v-6.6C751.754,857.865,752.205,858.008,752.652,858.139Z" fill="#fcddbc"/>
        <path id="Path_67706" data-name="Path 67706" d="M756.221,860.44h-8.726a.677.677,0,0,1,0-1.352h8.726a.677.677,0,0,1,0,1.352Z" fill="#fcddbc"/>
        <path id="Path_67707" data-name="Path 67707" d="M739.634,890.4a.676.676,0,0,1-.675-.678v-8.607a.672.672,0,0,1,.183-.5.674.674,0,0,1,1.125.233.677.677,0,0,1,.04.271v8.607a.678.678,0,0,1-.673.678Z" fill="#fcddbc"/>
        <path id="Path_67708" data-name="Path 67708" d="M743.882,885.825h-8.726a.677.677,0,0,1,0-1.352h8.726a.672.672,0,0,1,.452.211.678.678,0,0,1-.452,1.141Z" fill="#fcddbc"/>
        <path id="Path_67709" data-name="Path 67709" d="M749.853,880.159a.676.676,0,0,1-.675-.678v-8.609a.675.675,0,0,1,1.348,0v8.609a.678.678,0,0,1-.673.678Z" fill="#fcddbc"/>
        <path id="Path_67710" data-name="Path 67710" d="M754.1,875.58H745.37a.677.677,0,0,1,0-1.352H754.1a.677.677,0,0,1,0,1.352Z" fill="#fcddbc"/>
        <path id="Path_67711" data-name="Path 67711" d="M750.59,894.784v-3.353a.694.694,0,0,0-.039-.271.686.686,0,0,0-.144-.233.675.675,0,0,0-.491-.213.676.676,0,0,0-.634.446.675.675,0,0,0-.04.271v4.708Z" fill="#fcddbc"/>
        <path id="Path_67712" data-name="Path 67712" d="M750.583,894.784h-5.142a.684.684,0,0,0-.261.045.661.661,0,0,0-.224.143.68.68,0,0,0-.2.48.69.69,0,0,0,.689.691h3.794Z" fill="#fcddbc"/>
        <path id="Path_67713" data-name="Path 67713" d="M695.618,866.977a.678.678,0,0,1-.675-.677v-8.606a.675.675,0,0,1,1.348,0V866.3a.678.678,0,0,1-.673.675Z" fill="#fcddbc"/>
        <path id="Path_67714" data-name="Path 67714" d="M699.864,862.4h-8.726a.677.677,0,0,1,0-1.352h8.726a.672.672,0,0,1,.452.211.678.678,0,0,1-.452,1.141Z" fill="#fcddbc"/>
        <path id="Path_67715" data-name="Path 67715" d="M707.844,879.237a.676.676,0,0,1-.675-.677v-8.607a.672.672,0,0,1,.04-.271.673.673,0,0,1,1.125-.234.7.7,0,0,1,.144.234.691.691,0,0,1,.039.271v8.607a.679.679,0,0,1-.2.478A.671.671,0,0,1,707.844,879.237Z" fill="#fcddbc"/>
        <path id="Path_67716" data-name="Path 67716" d="M712.091,874.658h-8.727a.669.669,0,0,1-.27-.039.681.681,0,0,1-.232-.144.68.68,0,0,1-.157-.761.663.663,0,0,1,.157-.224.652.652,0,0,1,.232-.144.67.67,0,0,1,.27-.04h8.727a.675.675,0,0,1,.27.04.661.661,0,0,1,.232.144.678.678,0,0,1,.157.224.679.679,0,0,1-.389.905A.674.674,0,0,1,712.091,874.658Z" fill="#fcddbc"/>
        <path id="Path_67717" data-name="Path 67717" d="M718.973,890.4a.678.678,0,0,1-.675-.678v-8.607a.678.678,0,0,1,.04-.271.674.674,0,0,1,1.268,0,.677.677,0,0,1,.04.271v8.607a.678.678,0,0,1-.673.678Z" fill="#fcddbc"/>
        <path id="Path_67718" data-name="Path 67718" d="M723.222,885.825h-8.727a.677.677,0,0,1,0-1.352h8.727a.677.677,0,0,1,0,1.352Z" fill="#fcddbc"/>
        <path id="Path_67719" data-name="Path 67719" d="M729.249,900.706a.676.676,0,0,1-.675-.677v-8.607a.675.675,0,0,1,1.348,0v8.607a.679.679,0,0,1-.2.478A.671.671,0,0,1,729.249,900.706Z" fill="#fcddbc"/>
        <path id="Path_67720" data-name="Path 67720" d="M733.5,896.127h-8.727a.677.677,0,0,1,0-1.352H733.5a.675.675,0,0,1,.27.04.66.66,0,0,1,.232.144.678.678,0,0,1,.157.224.679.679,0,0,1-.389.905A.674.674,0,0,1,733.5,896.127Z" fill="#fcddbc"/>
        <path id="Path_67721" data-name="Path 67721" d="M683.624,879.009a.657.657,0,0,1-.259-.051.689.689,0,0,1-.219-.146.661.661,0,0,1-.146-.22.684.684,0,0,1-.051-.26v-8.607a.691.691,0,0,1,.039-.271.7.7,0,0,1,.144-.234.673.673,0,0,1,1.125.234.675.675,0,0,1,.04.271v8.607a.679.679,0,0,1-.2.478A.67.67,0,0,1,683.624,879.009Z" fill="#fcddbc"/>
        <path id="Path_67722" data-name="Path 67722" d="M688.545,873.755a.666.666,0,0,1-.689.668h-5.621c-.071-.216-.127-.46-.179-.668s-.127-.46-.18-.691h5.99a.69.69,0,0,1,.679.691Z" fill="#fcddbc"/>
        <path id="Path_67723" data-name="Path 67723" d="M695.848,891.267a.676.676,0,0,1-.675-.677v-8.61a.675.675,0,0,1,1.348,0v8.61a.679.679,0,0,1-.2.478A.67.67,0,0,1,695.848,891.267Z" fill="#fcddbc"/>
        <path id="Path_67724" data-name="Path 67724" d="M700.094,886.688h-8.726a.672.672,0,0,1-.452-.211.678.678,0,0,1,.452-1.141h8.726a.677.677,0,0,1,0,1.352Z" fill="#fcddbc"/>
        <path id="Path_67725" data-name="Path 67725" d="M706.981,902.436a.674.674,0,0,1-.675-.677v-8.608a.675.675,0,0,1,1.348,0v8.608a.676.676,0,0,1-.673.677Z" fill="#fcddbc"/>
        <path id="Path_67726" data-name="Path 67726" d="M711.227,897.855H702.5a.677.677,0,0,1-.636-.676.68.68,0,0,1,.184-.465.672.672,0,0,1,.452-.211h8.726a.673.673,0,0,1,.452.211.678.678,0,0,1-.452,1.141Z" fill="#fcddbc"/>
        <path id="Path_67727" data-name="Path 67727" d="M717.928,903.461v5.664c-.459,0-.9-.019-1.348-.037v-5.627a.677.677,0,0,1,.04-.271.674.674,0,0,1,1.125-.233.685.685,0,0,1,.144.233A.675.675,0,0,1,717.928,903.461Z" fill="#fcddbc"/>
        <path id="Path_67728" data-name="Path 67728" d="M721.5,908.16h-8.726a.678.678,0,0,1-.66-.408.679.679,0,0,1,.389-.905.676.676,0,0,1,.271-.039H721.5a.669.669,0,0,1,.27.039.685.685,0,0,1,.233.144.676.676,0,0,1,.156.761.662.662,0,0,1-.156.224.677.677,0,0,1-.5.184Z" fill="#fcddbc"/>
        <path id="Path_67729" data-name="Path 67729" d="M571.012,1180.71H848.3V979.387H571.012Z" fill="#f8f8ff"/>
        <g id="Group_79545" data-name="Group 79545" transform="translate(-1 -3)">
          <text id="_" data-name="❤" transform="translate(648 1061)" fill="#09090c" font-size="32" font-family="SegoeUIEmoji, Segoe UI Emoji"><tspan x="0" y="0">❤</tspan></text>
          <text id="I" transform="translate(622 1059)" fill="#09090c" font-size="32" font-family="Poppins-Bold, Poppins" font-weight="700"><tspan x="0" y="0">I</tspan></text>
          <text id="Email" transform="translate(710 1059)" fill="#09090c" font-size="32" font-family="Poppins-Bold, Poppins" font-weight="700"><tspan x="0" y="0">Email</tspan></text>
        </g>
        <g id="piggy-bank" transform="translate(655.982 1083.6)">
          <path id="Path_67730" data-name="Path 67730" d="M59.5,61.7,78.1,45.4l9.3,7.5,12.7-11.2-3.9-4.6,16.2-5.5-6.1,16.2L102,44.2,87.7,62.6l-10-10.1-11.5,16Z" fill="#35c0c8"/>
          <path id="Path_67731" data-name="Path 67731" d="M22.4,96.4H74.9s7.4-5.7,8.9-11.5h5.1V73.2H84.1S80.5,59.4,66.3,56.9C52,54.4,29.4,54.3,19.6,69.6,9.3,85.7,22.4,96.4,22.4,96.4Z" fill="#f15963"/>
          <path id="Path_67732" data-name="Path 67732" d="M71.8,85.9c-9.6,1.8-22.9,1.5-31.1-1.3-8-2.7-15-5.2-17.1-14a16.993,16.993,0,0,1-.3-5.5,23.375,23.375,0,0,0-3.7,4.5C9.3,85.7,22.4,96.4,22.4,96.4H74.9s7.4-5.7,8.9-11.5h5.1V75.5A31.479,31.479,0,0,1,71.8,85.9Z" fill="#c92027" opacity="0.35"/>
          <path id="Path_67733" data-name="Path 67733" d="M69.4,58.3s5.9-6,6.5-5.8c.6.3,2.5,5.2,1,10.2Zm-1.3-.7s-5.9-6-6.5-5.8c-1.1.5-2.5,5.2-1,10.2Z" fill="#f15963"/>
          <path id="Path_67734" data-name="Path 67734" d="M53,61.9a11.185,11.185,0,0,0-3.5-1.2,28.366,28.366,0,0,0-8-.2c-3.4.5-8.4,2.2-10.1,3.8,0,0-.8,1,.4,2.4s2.7.2,3.6-.1c.4-.2,1.9-.7,3.5-1.2a15.238,15.238,0,0,1,6-.7c1.9.1,4.2.3,4.7.4.9.2,2.6.9,3.5-.7C54.1,62.7,53,61.9,53,61.9Z" fill="#fff"/>
          <path id="Path_67735" data-name="Path 67735" d="M74.7,70.5A4.306,4.306,0,0,1,70.8,73a4.393,4.393,0,0,1-3.9-2.4c-.5-1-2.4,0,.5,3.3,2.2,2.6,6.6,2.2,7.9-1a4.477,4.477,0,0,0,.4-2C75.7,70.2,74.9,70,74.7,70.5Z" fill="#170e38"/>
        </g>
        <g id="investment-deal" transform="translate(675.055 1132.205) rotate(-9)">
          <circle id="Ellipse_1980" data-name="Ellipse 1980" cx="8.699" cy="8.699" r="8.699" transform="translate(12.63 0.371)" fill="#fedc55"/>
          <path id="Path_67736" data-name="Path 67736" d="M22.054,13.049H20.6a1.45,1.45,0,0,1-1.45-1.45.725.725,0,1,0-1.45,0,2.9,2.9,0,0,0,2.9,2.9v.725a.725.725,0,1,0,1.45,0V14.5a2.9,2.9,0,0,0,0-5.8H20.6a1.45,1.45,0,0,1,0-2.9h1.45a1.45,1.45,0,0,1,1.45,1.45.725.725,0,1,0,1.45,0,2.9,2.9,0,0,0-2.9-2.9V3.625a.725.725,0,0,0-1.45,0V4.35a2.9,2.9,0,0,0,0,5.8h1.45a1.45,1.45,0,0,1,0,2.9Zm-.725,5.8A9.424,9.424,0,1,0,11.9,9.424a9.424,9.424,0,0,0,9.424,9.424Zm0-17.4a7.974,7.974,0,1,1-7.974,7.974A7.974,7.974,0,0,1,21.329,1.45Z" transform="translate(0 0)"/>
        </g>
        <g id="investment-deal-2" data-name="investment-deal" transform="translate(658.088 1115.827) rotate(-9)" opacity="0.15">
          <circle id="Ellipse_1981" data-name="Ellipse 1981" cx="7.197" cy="7.197" r="7.197" transform="translate(0.6 0.307)" fill="#fedc55"/>
          <path id="Path_67737" data-name="Path 67737" d="M8.4,10.8H7.2A1.2,1.2,0,0,1,6,9.6a.6.6,0,1,0-1.2,0A2.4,2.4,0,0,0,7.2,12v.6a.6.6,0,0,0,1.2,0V12a2.4,2.4,0,1,0,0-4.8H7.2a1.2,1.2,0,0,1,0-2.4H8.4A1.2,1.2,0,0,1,9.6,6a.6.6,0,0,0,1.2,0A2.4,2.4,0,0,0,8.4,3.6V3A.6.6,0,0,0,7.2,3v.6a2.4,2.4,0,0,0,0,4.8H8.4a1.2,1.2,0,0,1,0,2.4Zm-.6,4.8A7.8,7.8,0,1,0,0,7.8a7.8,7.8,0,0,0,7.8,7.8ZM7.8,1.2A6.6,6.6,0,1,1,1.2,7.8,6.6,6.6,0,0,1,7.8,1.2Z" transform="translate(0 0)"/>
        </g>
        <g id="investment-deal-3" data-name="investment-deal" transform="translate(624.049 1086.786) rotate(-9)" opacity="0.1">
          <ellipse id="Ellipse_1982" data-name="Ellipse 1982" cx="5.387" cy="5.387" rx="5.387" ry="5.387" transform="translate(0.449 0.23)" fill="#fedc55"/>
          <path id="Path_67738" data-name="Path 67738" d="M6.285,8.081h-.9a.9.9,0,0,1-.9-.9.449.449,0,1,0-.9,0,1.8,1.8,0,0,0,1.8,1.8v.449a.449.449,0,0,0,.9,0V8.979a1.8,1.8,0,1,0,0-3.592h-.9a.9.9,0,1,1,0-1.8h.9a.9.9,0,0,1,.9.9.449.449,0,0,0,.9,0,1.8,1.8,0,0,0-1.8-1.8V2.245a.449.449,0,0,0-.9,0v.449a1.8,1.8,0,1,0,0,3.592h.9a.9.9,0,0,1,0,1.8Zm-.449,3.592A5.836,5.836,0,1,0,0,5.836a5.836,5.836,0,0,0,5.836,5.836ZM5.836.9A4.938,4.938,0,1,1,.9,5.836,4.938,4.938,0,0,1,5.836.9Z" transform="translate(0 0)"/>
        </g>
        <g id="investment-deal-4" data-name="investment-deal" transform="translate(672.153 1099.279) rotate(-9)" opacity="0.15">
          <circle id="Ellipse_1983" data-name="Ellipse 1983" cx="7.197" cy="7.197" r="7.197" transform="translate(0.6 0.307)" fill="#fedc55"/>
          <path id="Path_67739" data-name="Path 67739" d="M8.4,10.8H7.2A1.2,1.2,0,0,1,6,9.6a.6.6,0,1,0-1.2,0A2.4,2.4,0,0,0,7.2,12v.6a.6.6,0,0,0,1.2,0V12a2.4,2.4,0,1,0,0-4.8H7.2a1.2,1.2,0,0,1,0-2.4H8.4A1.2,1.2,0,0,1,9.6,6a.6.6,0,0,0,1.2,0A2.4,2.4,0,0,0,8.4,3.6V3A.6.6,0,0,0,7.2,3v.6a2.4,2.4,0,0,0,0,4.8H8.4a1.2,1.2,0,0,1,0,2.4Zm-.6,4.8A7.8,7.8,0,1,0,0,7.8a7.8,7.8,0,0,0,7.8,7.8ZM7.8,1.2A6.6,6.6,0,1,1,1.2,7.8,6.6,6.6,0,0,1,7.8,1.2Z" transform="translate(0 0)"/>
        </g>
        <g id="investment-deal-5" data-name="investment-deal" transform="translate(634.802 1111.276) rotate(-9)" opacity="0.15">
          <circle id="Ellipse_1984" data-name="Ellipse 1984" cx="7.197" cy="7.197" r="7.197" transform="translate(0.6 0.307)" fill="#fedc55"/>
          <path id="Path_67740" data-name="Path 67740" d="M8.4,10.8H7.2A1.2,1.2,0,0,1,6,9.6a.6.6,0,1,0-1.2,0A2.4,2.4,0,0,0,7.2,12v.6a.6.6,0,0,0,1.2,0V12a2.4,2.4,0,1,0,0-4.8H7.2a1.2,1.2,0,0,1,0-2.4H8.4A1.2,1.2,0,0,1,9.6,6a.6.6,0,0,0,1.2,0A2.4,2.4,0,0,0,8.4,3.6V3A.6.6,0,0,0,7.2,3v.6a2.4,2.4,0,0,0,0,4.8H8.4a1.2,1.2,0,0,1,0,2.4Zm-.6,4.8A7.8,7.8,0,1,0,0,7.8a7.8,7.8,0,0,0,7.8,7.8ZM7.8,1.2A6.6,6.6,0,1,1,1.2,7.8,6.6,6.6,0,0,1,7.8,1.2Z" transform="translate(0 0)"/>
        </g>
        <g id="investment-deal-6" data-name="investment-deal" transform="translate(634.577 1074.4) rotate(-9)" opacity="0.1">
          <ellipse id="Ellipse_1985" data-name="Ellipse 1985" cx="5.387" cy="5.387" rx="5.387" ry="5.387" transform="translate(0.449 0.23)" fill="#fedc55"/>
          <path id="Path_67741" data-name="Path 67741" d="M6.285,8.081h-.9a.9.9,0,0,1-.9-.9.449.449,0,1,0-.9,0,1.8,1.8,0,0,0,1.8,1.8v.449a.449.449,0,0,0,.9,0V8.979a1.8,1.8,0,1,0,0-3.592h-.9a.9.9,0,1,1,0-1.8h.9a.9.9,0,0,1,.9.9.449.449,0,0,0,.9,0,1.8,1.8,0,0,0-1.8-1.8V2.245a.449.449,0,0,0-.9,0v.449a1.8,1.8,0,1,0,0,3.592h.9a.9.9,0,0,1,0,1.8Zm-.449,3.592A5.836,5.836,0,1,0,0,5.836a5.836,5.836,0,0,0,5.836,5.836ZM5.836.9A4.938,4.938,0,1,1,.9,5.836,4.938,4.938,0,0,1,5.836.9Z" transform="translate(0 0)"/>
        </g>
        <g id="investment-deal-7" data-name="investment-deal" transform="translate(644.85 1091.833) rotate(-9)" opacity="0.15">
          <circle id="Ellipse_1986" data-name="Ellipse 1986" cx="7.197" cy="7.197" r="7.197" transform="translate(0.6 0.307)" fill="#fedc55"/>
          <path id="Path_67742" data-name="Path 67742" d="M8.4,10.8H7.2A1.2,1.2,0,0,1,6,9.6a.6.6,0,1,0-1.2,0A2.4,2.4,0,0,0,7.2,12v.6a.6.6,0,0,0,1.2,0V12a2.4,2.4,0,1,0,0-4.8H7.2a1.2,1.2,0,0,1,0-2.4H8.4A1.2,1.2,0,0,1,9.6,6a.6.6,0,0,0,1.2,0A2.4,2.4,0,0,0,8.4,3.6V3A.6.6,0,0,0,7.2,3v.6a2.4,2.4,0,0,0,0,4.8H8.4a1.2,1.2,0,0,1,0,2.4Zm-.6,4.8A7.8,7.8,0,1,0,0,7.8a7.8,7.8,0,0,0,7.8,7.8ZM7.8,1.2A6.6,6.6,0,1,1,1.2,7.8,6.6,6.6,0,0,1,7.8,1.2Z" transform="translate(0 0)"/>
        </g>
        <g id="investment-deal-8" data-name="investment-deal" transform="translate(607.499 1103.83) rotate(-9)" opacity="0.15">
          <circle id="Ellipse_1987" data-name="Ellipse 1987" cx="7.197" cy="7.197" r="7.197" transform="translate(0.6 0.307)" fill="#fedc55"/>
          <path id="Path_67743" data-name="Path 67743" d="M8.4,10.8H7.2A1.2,1.2,0,0,1,6,9.6a.6.6,0,1,0-1.2,0A2.4,2.4,0,0,0,7.2,12v.6a.6.6,0,0,0,1.2,0V12a2.4,2.4,0,1,0,0-4.8H7.2a1.2,1.2,0,0,1,0-2.4H8.4A1.2,1.2,0,0,1,9.6,6a.6.6,0,0,0,1.2,0A2.4,2.4,0,0,0,8.4,3.6V3A.6.6,0,0,0,7.2,3v.6a2.4,2.4,0,0,0,0,4.8H8.4a1.2,1.2,0,0,1,0,2.4Zm-.6,4.8A7.8,7.8,0,1,0,0,7.8a7.8,7.8,0,0,0,7.8,7.8ZM7.8,1.2A6.6,6.6,0,1,1,1.2,7.8,6.6,6.6,0,0,1,7.8,1.2Z" transform="translate(0 0)"/>
        </g>
        <g id="investment-deal-9" data-name="investment-deal" transform="translate(614.141 1068.826) rotate(-9)" opacity="0.1">
          <ellipse id="Ellipse_1988" data-name="Ellipse 1988" cx="5.387" cy="5.387" rx="5.387" ry="5.387" transform="translate(0.449 0.23)" fill="#fedc55"/>
          <path id="Path_67744" data-name="Path 67744" d="M6.285,8.081h-.9a.9.9,0,0,1-.9-.9.449.449,0,1,0-.9,0,1.8,1.8,0,0,0,1.8,1.8v.449a.449.449,0,0,0,.9,0V8.979a1.8,1.8,0,1,0,0-3.592h-.9a.9.9,0,1,1,0-1.8h.9a.9.9,0,0,1,.9.9.449.449,0,0,0,.9,0,1.8,1.8,0,0,0-1.8-1.8V2.245a.449.449,0,0,0-.9,0v.449a1.8,1.8,0,1,0,0,3.592h.9a.9.9,0,0,1,0,1.8Zm-.449,3.592A5.836,5.836,0,1,0,0,5.836a5.836,5.836,0,0,0,5.836,5.836ZM5.836.9A4.938,4.938,0,1,1,.9,5.836,4.938,4.938,0,0,1,5.836.9Z" transform="translate(0 0)"/>
        </g>
      </g>
      <g id="Group_79556" data-name="Group 79556">
        <g id="Group_79549" data-name="Group 79549" transform="translate(-72 77)">
          <g transform="matrix(1, 0, 0, 1, 72, 594)" filter="url(#Rectangle_144)">
            <rect id="Rectangle_144-2" data-name="Rectangle 144" width="254" height="72" rx="8" transform="translate(271 159)" fill="#fff"/>
          </g>
          <g id="Group_79548" data-name="Group 79548" transform="translate(0 2)">
            <text id="Become_an_Affiliate" data-name="Become an Affiliate" transform="translate(415 792)" font-size="16" font-family="Inter-Bold, Inter" font-weight="700" opacity="0.74"><tspan x="0" y="0">Become an Affiliate</tspan></text>
            <g id="Group_79547" data-name="Group 79547">
              <rect id="Rectangle_145" data-name="Rectangle 145" width="48" height="48" rx="13" transform="translate(356 763)" fill="#fff2f2"/>
              <g id="investment-deal-10" data-name="investment-deal" transform="translate(360.953 765)">
                <circle id="Ellipse_1989" data-name="Ellipse 1989" cx="7.143" cy="7.143" r="7.143" transform="translate(12.5 0.305)" fill="#fedc55"/>
                <path id="Path_67745" data-name="Path 67745" d="M28.062,24.608l-5.714-3.765-2.231-1.475-.06-.012-.42-4.077-4.749-1.043a4.9,4.9,0,0,0-2.662.168l-6.744,2.43v9.089a23.369,23.369,0,0,0,8.809,7.531l2.579,1.271a1.9,1.9,0,0,0,2.262-2.986l.144.012h.012l.432.288a1.8,1.8,0,0,0,2.17-.132,1.95,1.95,0,0,0,.324-.371,1.786,1.786,0,0,0-.515-2.5l1.543,1.012a1.793,1.793,0,0,0,1.714.144,1.862,1.862,0,0,0,.78-.66,1.8,1.8,0,0,0-.515-2.482l-.371-.252c.444.288.863.563,1.235.815a1.8,1.8,0,1,0,1.979-3.01Z" transform="translate(1.044 2.69)" fill="#f5c78c"/>
                <path id="Path_67746" data-name="Path 67746" d="M26.507,24.821,18.395,19.48l-3.187,1.035a1.958,1.958,0,0,1-2.06-.551h0a1.958,1.958,0,0,1,.79-3.154l5.282-1.9a3.669,3.669,0,0,1,2.321-.056l7.619,2.339v8.983h-.267a2.786,2.786,0,0,1-2.381-1.346Z" transform="translate(2.408 2.797)" fill="#fddaaa"/>
                <path id="Path_67747" data-name="Path 67747" d="M6.452,16.244v9.524a1.19,1.19,0,0,1-1.19,1.19H.5v-11.9H5.262A1.19,1.19,0,0,1,6.452,16.244Z" transform="translate(0.095 2.867)" fill="#5858e0"/>
                <path id="Path_67748" data-name="Path 67748" d="M27.69,15.056h4.762v11.9H27.69a1.19,1.19,0,0,1-1.19-1.19V16.246A1.19,1.19,0,0,1,27.69,15.056Z" transform="translate(5.047 2.868)" fill="#ed6649"/>
                <path id="Path_67749" data-name="Path 67749" d="M20.238,10.714h-1.19a1.19,1.19,0,0,1-1.19-1.19.6.6,0,1,0-1.19,0A2.381,2.381,0,0,0,19.047,11.9v.6a.6.6,0,0,0,1.19,0v-.6a2.381,2.381,0,0,0,0-4.762h-1.19a1.19,1.19,0,1,1,0-2.381h1.19a1.19,1.19,0,0,1,1.19,1.19.6.6,0,0,0,1.19,0,2.381,2.381,0,0,0-2.381-2.381v-.6a.6.6,0,1,0-1.19,0v.6a2.381,2.381,0,1,0,0,4.762h1.19a1.19,1.19,0,1,1,0,2.381Zm-.6,4.762A7.738,7.738,0,1,0,11.9,7.738a7.738,7.738,0,0,0,7.738,7.738Zm0-14.286A6.548,6.548,0,1,1,13.1,7.738,6.548,6.548,0,0,1,19.643,1.19ZM37.5,17.619H32.738A1.786,1.786,0,0,0,31,19l-6.694-2.055a4.188,4.188,0,0,0-2.637.064l-1,.357L16,16.343a5.348,5.348,0,0,0-2.964.193L7,18.712a1.786,1.786,0,0,0-1.646-1.093H.6a.6.6,0,0,0-.6.6v11.9a.6.6,0,0,0,.6.6H5.357a1.786,1.786,0,0,0,1.485-.8,23.886,23.886,0,0,0,8.188,6.63L17.6,37.812a2.481,2.481,0,0,0,3.58-2.381,2.343,2.343,0,0,0,.493.073,2.418,2.418,0,0,0,.486-.05,2.362,2.362,0,0,0,1.89-2.239,2.349,2.349,0,0,0,1.107.3,2.408,2.408,0,0,0,.485-.05,2.365,2.365,0,0,0,1.892-2.438A2.223,2.223,0,0,0,29.97,30.02a2.369,2.369,0,0,0,.357-.893h.645a1.786,1.786,0,0,0,1.765,1.587H37.5a.6.6,0,0,0,.6-.6v-11.9a.6.6,0,0,0-.6-.6ZM5.952,28.928a.6.6,0,0,1-.6.6H1.19V18.809H5.357a.6.6,0,0,1,.6.6Zm23.025.442a1.19,1.19,0,0,1-1.649.34L21.8,26.071l-.255.387a.357.357,0,0,0-.151.229l-.249.379.456.3c.006,0,.01.011.015.015l4.2,2.764a1.19,1.19,0,1,1-1.31,1.988L23,31.144l-.017-.013-3.652-2.4h-.01l-.346-.229a.6.6,0,1,0-.655.994l4.015,2.644a1.187,1.187,0,0,1-1.315,1.977l-4.031-2.655a.6.6,0,1,0-.655.994l.21.138c.006,0,.01.012.017.017l2.857,1.88a1.3,1.3,0,1,1-1.291,2.262l-2.575-1.273a22.693,22.693,0,0,1-8.412-7.143V19.926l6.3-2.269a4.176,4.176,0,0,1,2.306-.15l2.825.62-2.043.737a2.5,2.5,0,1,0,1.62,4.732l2.83-.918,7.657,5.042a1.19,1.19,0,0,1,.524.833.715.715,0,0,0,.008.087,1.183,1.183,0,0,1-.193.729Zm1.975-1.43h-.714a2.36,2.36,0,0,0-.943-1.214l-7.9-5.2a.6.6,0,0,0-.511-.069l-3.1,1.007a1.311,1.311,0,0,1-.85-2.48l5.142-1.855a2.986,2.986,0,0,1,1.883-.045l6.99,2.148ZM36.9,29.524H32.738a.6.6,0,0,1-.6-.6V19.4a.6.6,0,0,1,.6-.6H36.9Z" transform="translate(0 0)"/>
              </g>
            </g>
          </g>
        </g>
        <g id="Group_79552" data-name="Group 79552" transform="translate(647 138)">
          <g transform="matrix(1, 0, 0, 1, -647, 533)" filter="url(#Rectangle_146)">
            <rect id="Rectangle_146-2" data-name="Rectangle 146" width="214" height="72" rx="8" transform="translate(990 220)" fill="#fff"/>
          </g>
          <g id="Group_79551" data-name="Group 79551" transform="translate(0 2)">
            <text id="Get_paid" data-name="Get paid" transform="translate(415 792)" font-size="16" font-family="Inter-Bold, Inter" font-weight="700" opacity="0.74"><tspan x="0" y="0">Get paid</tspan></text>
            <g id="Group_79550" data-name="Group 79550">
              <rect id="Rectangle_147" data-name="Rectangle 147" width="48" height="48" rx="13" transform="translate(356 763)" fill="#fff2f2"/>
              <g id="money" transform="translate(365.028 772.028)">
                <path id="Path_67756" data-name="Path 67756" d="M14.972,0A14.972,14.972,0,1,0,29.943,14.972,14.989,14.989,0,0,0,14.972,0Z" fill="#303c42"/>
                <path id="Path_67757" data-name="Path 67757" d="M35.057,48.781A13.724,13.724,0,1,1,48.781,35.057,13.74,13.74,0,0,1,35.057,48.781Z" transform="translate(-20.085 -20.085)" fill="#fed600"/>
                <path id="Path_67758" data-name="Path 67758" d="M96.77,77.445A13.708,13.708,0,0,1,77.445,96.77,13.711,13.711,0,1,0,96.77,77.445Z" transform="translate(-72.916 -72.916)" fill="#010101" opacity="0.1"/>
                <g id="Group_79558" data-name="Group 79558" transform="translate(6.238 6.238)">
                  <path id="Path_67759" data-name="Path 67759" d="M109.473,114.152H107.29a.624.624,0,0,0,0,1.248h1.248v.624a.624.624,0,0,0,1.248,0v-.655a2.178,2.178,0,0,0-.312-4.335h-.624a.936.936,0,1,1,0-1.871h2.183a.624.624,0,0,0,0-1.248h-1.248v-.624a.624.624,0,1,0-1.248,0v.655a2.178,2.178,0,0,0,.312,4.335h.624a.936.936,0,0,1,0,1.872Z" transform="translate(-106.666 -106.666)" fill="#303c42"/>
                  <path id="Path_67760" data-name="Path 67760" d="M322.183,109.161h2.183a.624.624,0,0,0,0-1.248h-1.248v-.624a.624.624,0,1,0-1.248,0v.655a2.178,2.178,0,0,0,.312,4.335h.624a.936.936,0,1,1,0,1.871h-2.183a.624.624,0,0,0,0,1.248h1.248v.624a.624.624,0,1,0,1.248,0v-.655a2.178,2.178,0,0,0-.312-4.335h-.624a.936.936,0,0,1,0-1.872Z" transform="translate(-307.523 -106.666)" fill="#303c42"/>
                  <path id="Path_67761" data-name="Path 67761" d="M123.507,298.676l-16.219-.009h0a.624.624,0,0,0-.607.767,9.233,9.233,0,0,0,3.76,5.19c.173,2.416,2.108,4.024,4.957,4.024s4.784-1.608,4.957-4.023a9.206,9.206,0,0,0,3.76-5.181.623.623,0,0,0-.606-.768Z" transform="translate(-106.663 -287.438)" fill="#303c42"/>
                </g>
                <path id="Path_67762" data-name="Path 67762" d="M195.88,387.606c-1.661,0-3.59-.756-3.734-2.863a2.575,2.575,0,0,1,3.111-.6v.972a.624.624,0,0,0,1.248,0v-.946a3.02,3.02,0,0,1,1.248-.3,2.653,2.653,0,0,1,1.863.878C199.472,386.85,197.542,387.606,195.88,387.606Z" transform="translate(-180.909 -361.406)" fill="#fe989c"/>
                <g id="Group_79559" data-name="Group 79559" transform="translate(11.237 22.449)">
                  <path id="Path_67763" data-name="Path 67763" d="M269.677,385.427a3.087,3.087,0,0,0,.1-.549,2.653,2.653,0,0,0-1.863-.878,3.022,3.022,0,0,0-1.248.3v.632a3.022,3.022,0,0,1,1.248-.3A2.584,2.584,0,0,1,269.677,385.427Z" transform="translate(-262.309 -383.992)" fill="#fff" opacity="0.2"/>
                  <path id="Path_67764" data-name="Path 67764" d="M195.256,384.771v-.632a2.575,2.575,0,0,0-3.111.6,3.078,3.078,0,0,0,.1.549A2.545,2.545,0,0,1,195.256,384.771Z" transform="translate(-192.145 -383.855)" fill="#fff" opacity="0.2"/>
                </g>
                <path id="Path_67765" data-name="Path 67765" d="M143.485,323.562a3.772,3.772,0,0,0-2.538-1.057,4.247,4.247,0,0,0-1.871.437,4.248,4.248,0,0,0-1.871-.437,3.8,3.8,0,0,0-2.535,1.057,8.289,8.289,0,0,1-2.856-3.552l14.525.008A8.254,8.254,0,0,1,143.485,323.562Z" transform="translate(-124.103 -301.296)" fill="#fe989c"/>
                <path id="Path_67766" data-name="Path 67766" d="M134.08,322.869a1.25,1.25,0,0,1,.971-2.042l10.89.006a6.613,6.613,0,0,0,.4-.813l-14.525-.008a8.289,8.289,0,0,0,2.856,3.552c.011-.01.024-.018.035-.027Q134.372,323.215,134.08,322.869Z" transform="translate(-124.104 -301.297)" fill="#010101" opacity="0.1"/>
                <path id="Path_67767" data-name="Path 67767" d="M14.972,0A14.972,14.972,0,1,0,29.943,14.972,14.989,14.989,0,0,0,14.972,0Z" fill="url(#linear-gradient)"/>
              </g>
            </g>
          </g>
        </g>
        <g id="Group_79555" data-name="Group 79555" transform="translate(499 -14)">
          <g transform="matrix(1, 0, 0, 1, -499, 685)" filter="url(#Rectangle_148)">
            <rect id="Rectangle_148-2" data-name="Rectangle 148" width="235" height="72" rx="8" transform="translate(842 68)" fill="#fff"/>
          </g>
          <g id="Group_79554" data-name="Group 79554" transform="translate(0 2)">
            <text id="Spread_the_word" data-name="Spread the word" transform="translate(415 792)" font-size="16" font-family="Inter-Bold, Inter" font-weight="700" opacity="0.74"><tspan x="0" y="0">Spread the word</tspan></text>
            <g id="Group_79553" data-name="Group 79553">
              <rect id="Rectangle_149" data-name="Rectangle 149" width="48" height="48" rx="13" transform="translate(356 763)" fill="#fffce0"/>
              <g id="promotion" transform="matrix(-0.921, -0.391, 0.391, -0.921, 391.343, 805.234)">
                <path id="Path_67751" data-name="Path 67751" d="M0,7.783A4.191,4.191,0,0,0,2.65,3.9,4.192,4.192,0,0,0,.03,0" transform="translate(22.497 8.955)" fill="none" stroke="#000" stroke-linecap="round" stroke-linejoin="round" stroke-width="1"/>
                <path id="Path_67752" data-name="Path 67752" d="M0,10.478l19.559,4.89V0L0,4.89Z" transform="translate(2.794 5.157)" fill="#fedc55" stroke="#000" stroke-linecap="round" stroke-linejoin="round" stroke-width="1"/>
                <path id="Path_67753" data-name="Path 67753" d="M0,3.842V1.4L6.985,0V2.235" transform="translate(6.287 5.157)" fill="none" stroke="#000" stroke-linecap="round" stroke-linejoin="round" stroke-width="1"/>
                <path id="Path_67754" data-name="Path 67754" d="M0,4.191H2.794V0H0Z" transform="translate(0 10.745)" fill="none" stroke="#000" stroke-linecap="round" stroke-linejoin="round" stroke-width="1"/>
                <path id="Path_67755" data-name="Path 67755" d="M4.092,12.841H8.283M0,22.718l2.964,2.964M0,2.964,2.964,0m.121,18.052,3.889,1.563M6.819,5.688,2.966,7.337" transform="translate(24.548 0)" fill="none" stroke="#000" stroke-width="1"/>
              </g>
            </g>
          </g>
        </g>
      </g>
    </g>
  </g>
</svg>
